<?xml version="1.0" encoding="utf-8" standalone="no"?>
<!DOCTYPE svg PUBLIC "-//W3C//DTD SVG 1.1//EN"
  "http://www.w3.org/Graphics/SVG/1.1/DTD/svg11.dtd">
<!-- Created with matplotlib (http://matplotlib.org/) -->
<svg height="288pt" version="1.1" viewBox="0 0 432 288" width="432pt" xmlns="http://www.w3.org/2000/svg" xmlns:xlink="http://www.w3.org/1999/xlink">
 <defs>
  <style type="text/css">
*{stroke-linecap:butt;stroke-linejoin:round;}
  </style>
 </defs>
 <g id="figure_1">
  <g id="patch_1">
   <path d="M 0 288 
L 432 288 
L 432 0 
L 0 0 
z
" style="fill:none;"/>
  </g>
  <g id="axes_1">
   <g id="patch_2">
    <path d="M 88.939494 231.052 
L 415.152 231.052 
L 415.152 34.848 
L 88.939494 34.848 
z
" style="fill:none;"/>
   </g>
   <g id="matplotlib.axis_1">
    <g id="xtick_1">
     <g id="line2d_1">
      <path clip-path="url(#p44390bcccc)" d="M 103.767335 231.052 
L 103.767335 34.848 
" style="fill:none;stroke:#999999;stroke-linecap:round;stroke-width:1.3;"/>
     </g>
     <g id="line2d_2"/>
     <g id="text_1">
      <!-- 0 -->
      <defs>
       <path d="M 31.78125 66.40625 
Q 24.171875 66.40625 20.328125 58.90625 
Q 16.5 51.421875 16.5 36.375 
Q 16.5 21.390625 20.328125 13.890625 
Q 24.171875 6.390625 31.78125 6.390625 
Q 39.453125 6.390625 43.28125 13.890625 
Q 47.125 21.390625 47.125 36.375 
Q 47.125 51.421875 43.28125 58.90625 
Q 39.453125 66.40625 31.78125 66.40625 
z
M 31.78125 74.21875 
Q 44.046875 74.21875 50.515625 64.515625 
Q 56.984375 54.828125 56.984375 36.375 
Q 56.984375 17.96875 50.515625 8.265625 
Q 44.046875 -1.421875 31.78125 -1.421875 
Q 19.53125 -1.421875 13.0625 8.265625 
Q 6.59375 17.96875 6.59375 36.375 
Q 6.59375 54.828125 13.0625 64.515625 
Q 19.53125 74.21875 31.78125 74.21875 
z
" id="DejaVuSans-30"/>
      </defs>
      <g style="fill:#262626;" transform="translate(99.63171 250.029969)scale(0.13 -0.13)">
       <use xlink:href="#DejaVuSans-30"/>
      </g>
     </g>
    </g>
    <g id="xtick_2">
     <g id="line2d_3">
      <path clip-path="url(#p44390bcccc)" d="M 161.68859 231.052 
L 161.68859 34.848 
" style="fill:none;stroke:#999999;stroke-linecap:round;stroke-width:1.3;"/>
     </g>
     <g id="line2d_4"/>
     <g id="text_2">
      <!-- 100 -->
      <defs>
       <path d="M 12.40625 8.296875 
L 28.515625 8.296875 
L 28.515625 63.921875 
L 10.984375 60.40625 
L 10.984375 69.390625 
L 28.421875 72.90625 
L 38.28125 72.90625 
L 38.28125 8.296875 
L 54.390625 8.296875 
L 54.390625 0 
L 12.40625 0 
z
" id="DejaVuSans-31"/>
      </defs>
      <g style="fill:#262626;" transform="translate(149.281715 250.029969)scale(0.13 -0.13)">
       <use xlink:href="#DejaVuSans-31"/>
       <use x="63.623047" xlink:href="#DejaVuSans-30"/>
       <use x="127.246094" xlink:href="#DejaVuSans-30"/>
      </g>
     </g>
    </g>
    <g id="xtick_3">
     <g id="line2d_5">
      <path clip-path="url(#p44390bcccc)" d="M 219.609844 231.052 
L 219.609844 34.848 
" style="fill:none;stroke:#999999;stroke-linecap:round;stroke-width:1.3;"/>
     </g>
     <g id="line2d_6"/>
     <g id="text_3">
      <!-- 200 -->
      <defs>
       <path d="M 19.1875 8.296875 
L 53.609375 8.296875 
L 53.609375 0 
L 7.328125 0 
L 7.328125 8.296875 
Q 12.9375 14.109375 22.625 23.890625 
Q 32.328125 33.6875 34.8125 36.53125 
Q 39.546875 41.84375 41.421875 45.53125 
Q 43.3125 49.21875 43.3125 52.78125 
Q 43.3125 58.59375 39.234375 62.25 
Q 35.15625 65.921875 28.609375 65.921875 
Q 23.96875 65.921875 18.8125 64.3125 
Q 13.671875 62.703125 7.8125 59.421875 
L 7.8125 69.390625 
Q 13.765625 71.78125 18.9375 73 
Q 24.125 74.21875 28.421875 74.21875 
Q 39.75 74.21875 46.484375 68.546875 
Q 53.21875 62.890625 53.21875 53.421875 
Q 53.21875 48.921875 51.53125 44.890625 
Q 49.859375 40.875 45.40625 35.40625 
Q 44.1875 33.984375 37.640625 27.21875 
Q 31.109375 20.453125 19.1875 8.296875 
z
" id="DejaVuSans-32"/>
      </defs>
      <g style="fill:#262626;" transform="translate(207.202969 250.029969)scale(0.13 -0.13)">
       <use xlink:href="#DejaVuSans-32"/>
       <use x="63.623047" xlink:href="#DejaVuSans-30"/>
       <use x="127.246094" xlink:href="#DejaVuSans-30"/>
      </g>
     </g>
    </g>
    <g id="xtick_4">
     <g id="line2d_7">
      <path clip-path="url(#p44390bcccc)" d="M 277.531099 231.052 
L 277.531099 34.848 
" style="fill:none;stroke:#999999;stroke-linecap:round;stroke-width:1.3;"/>
     </g>
     <g id="line2d_8"/>
     <g id="text_4">
      <!-- 300 -->
      <defs>
       <path d="M 40.578125 39.3125 
Q 47.65625 37.796875 51.625 33 
Q 55.609375 28.21875 55.609375 21.1875 
Q 55.609375 10.40625 48.1875 4.484375 
Q 40.765625 -1.421875 27.09375 -1.421875 
Q 22.515625 -1.421875 17.65625 -0.515625 
Q 12.796875 0.390625 7.625 2.203125 
L 7.625 11.71875 
Q 11.71875 9.328125 16.59375 8.109375 
Q 21.484375 6.890625 26.8125 6.890625 
Q 36.078125 6.890625 40.9375 10.546875 
Q 45.796875 14.203125 45.796875 21.1875 
Q 45.796875 27.640625 41.28125 31.265625 
Q 36.765625 34.90625 28.71875 34.90625 
L 20.21875 34.90625 
L 20.21875 43.015625 
L 29.109375 43.015625 
Q 36.375 43.015625 40.234375 45.921875 
Q 44.09375 48.828125 44.09375 54.296875 
Q 44.09375 59.90625 40.109375 62.90625 
Q 36.140625 65.921875 28.71875 65.921875 
Q 24.65625 65.921875 20.015625 65.03125 
Q 15.375 64.15625 9.8125 62.3125 
L 9.8125 71.09375 
Q 15.4375 72.65625 20.34375 73.4375 
Q 25.25 74.21875 29.59375 74.21875 
Q 40.828125 74.21875 47.359375 69.109375 
Q 53.90625 64.015625 53.90625 55.328125 
Q 53.90625 49.265625 50.4375 45.09375 
Q 46.96875 40.921875 40.578125 39.3125 
z
" id="DejaVuSans-33"/>
      </defs>
      <g style="fill:#262626;" transform="translate(265.124224 250.029969)scale(0.13 -0.13)">
       <use xlink:href="#DejaVuSans-33"/>
       <use x="63.623047" xlink:href="#DejaVuSans-30"/>
       <use x="127.246094" xlink:href="#DejaVuSans-30"/>
      </g>
     </g>
    </g>
    <g id="xtick_5">
     <g id="line2d_9">
      <path clip-path="url(#p44390bcccc)" d="M 335.452354 231.052 
L 335.452354 34.848 
" style="fill:none;stroke:#999999;stroke-linecap:round;stroke-width:1.3;"/>
     </g>
     <g id="line2d_10"/>
     <g id="text_5">
      <!-- 400 -->
      <defs>
       <path d="M 37.796875 64.3125 
L 12.890625 25.390625 
L 37.796875 25.390625 
z
M 35.203125 72.90625 
L 47.609375 72.90625 
L 47.609375 25.390625 
L 58.015625 25.390625 
L 58.015625 17.1875 
L 47.609375 17.1875 
L 47.609375 0 
L 37.796875 0 
L 37.796875 17.1875 
L 4.890625 17.1875 
L 4.890625 26.703125 
z
" id="DejaVuSans-34"/>
      </defs>
      <g style="fill:#262626;" transform="translate(323.045479 250.029969)scale(0.13 -0.13)">
       <use xlink:href="#DejaVuSans-34"/>
       <use x="63.623047" xlink:href="#DejaVuSans-30"/>
       <use x="127.246094" xlink:href="#DejaVuSans-30"/>
      </g>
     </g>
    </g>
    <g id="xtick_6">
     <g id="line2d_11">
      <path clip-path="url(#p44390bcccc)" d="M 393.373608 231.052 
L 393.373608 34.848 
" style="fill:none;stroke:#999999;stroke-linecap:round;stroke-width:1.3;"/>
     </g>
     <g id="line2d_12"/>
     <g id="text_6">
      <!-- 500 -->
      <defs>
       <path d="M 10.796875 72.90625 
L 49.515625 72.90625 
L 49.515625 64.59375 
L 19.828125 64.59375 
L 19.828125 46.734375 
Q 21.96875 47.46875 24.109375 47.828125 
Q 26.265625 48.1875 28.421875 48.1875 
Q 40.625 48.1875 47.75 41.5 
Q 54.890625 34.8125 54.890625 23.390625 
Q 54.890625 11.625 47.5625 5.09375 
Q 40.234375 -1.421875 26.90625 -1.421875 
Q 22.3125 -1.421875 17.546875 -0.640625 
Q 12.796875 0.140625 7.71875 1.703125 
L 7.71875 11.625 
Q 12.109375 9.234375 16.796875 8.0625 
Q 21.484375 6.890625 26.703125 6.890625 
Q 35.15625 6.890625 40.078125 11.328125 
Q 45.015625 15.765625 45.015625 23.390625 
Q 45.015625 31 40.078125 35.4375 
Q 35.15625 39.890625 26.703125 39.890625 
Q 22.75 39.890625 18.8125 39.015625 
Q 14.890625 38.140625 10.796875 36.28125 
z
" id="DejaVuSans-35"/>
      </defs>
      <g style="fill:#262626;" transform="translate(380.966733 250.029969)scale(0.13 -0.13)">
       <use xlink:href="#DejaVuSans-35"/>
       <use x="63.623047" xlink:href="#DejaVuSans-30"/>
       <use x="127.246094" xlink:href="#DejaVuSans-30"/>
      </g>
     </g>
    </g>
    <g id="text_7">
     <!-- Iteration -->
     <defs>
      <path d="M 9.8125 72.90625 
L 19.671875 72.90625 
L 19.671875 0 
L 9.8125 0 
z
" id="DejaVuSans-49"/>
      <path d="M 18.3125 70.21875 
L 18.3125 54.6875 
L 36.8125 54.6875 
L 36.8125 47.703125 
L 18.3125 47.703125 
L 18.3125 18.015625 
Q 18.3125 11.328125 20.140625 9.421875 
Q 21.96875 7.515625 27.59375 7.515625 
L 36.8125 7.515625 
L 36.8125 0 
L 27.59375 0 
Q 17.1875 0 13.234375 3.875 
Q 9.28125 7.765625 9.28125 18.015625 
L 9.28125 47.703125 
L 2.6875 47.703125 
L 2.6875 54.6875 
L 9.28125 54.6875 
L 9.28125 70.21875 
z
" id="DejaVuSans-74"/>
      <path d="M 56.203125 29.59375 
L 56.203125 25.203125 
L 14.890625 25.203125 
Q 15.484375 15.921875 20.484375 11.0625 
Q 25.484375 6.203125 34.421875 6.203125 
Q 39.59375 6.203125 44.453125 7.46875 
Q 49.3125 8.734375 54.109375 11.28125 
L 54.109375 2.78125 
Q 49.265625 0.734375 44.1875 -0.34375 
Q 39.109375 -1.421875 33.890625 -1.421875 
Q 20.796875 -1.421875 13.15625 6.1875 
Q 5.515625 13.8125 5.515625 26.8125 
Q 5.515625 40.234375 12.765625 48.109375 
Q 20.015625 56 32.328125 56 
Q 43.359375 56 49.78125 48.890625 
Q 56.203125 41.796875 56.203125 29.59375 
z
M 47.21875 32.234375 
Q 47.125 39.59375 43.09375 43.984375 
Q 39.0625 48.390625 32.421875 48.390625 
Q 24.90625 48.390625 20.390625 44.140625 
Q 15.875 39.890625 15.1875 32.171875 
z
" id="DejaVuSans-65"/>
      <path d="M 41.109375 46.296875 
Q 39.59375 47.171875 37.8125 47.578125 
Q 36.03125 48 33.890625 48 
Q 26.265625 48 22.1875 43.046875 
Q 18.109375 38.09375 18.109375 28.8125 
L 18.109375 0 
L 9.078125 0 
L 9.078125 54.6875 
L 18.109375 54.6875 
L 18.109375 46.1875 
Q 20.953125 51.171875 25.484375 53.578125 
Q 30.03125 56 36.53125 56 
Q 37.453125 56 38.578125 55.875 
Q 39.703125 55.765625 41.0625 55.515625 
z
" id="DejaVuSans-72"/>
      <path d="M 34.28125 27.484375 
Q 23.390625 27.484375 19.1875 25 
Q 14.984375 22.515625 14.984375 16.5 
Q 14.984375 11.71875 18.140625 8.90625 
Q 21.296875 6.109375 26.703125 6.109375 
Q 34.1875 6.109375 38.703125 11.40625 
Q 43.21875 16.703125 43.21875 25.484375 
L 43.21875 27.484375 
z
M 52.203125 31.203125 
L 52.203125 0 
L 43.21875 0 
L 43.21875 8.296875 
Q 40.140625 3.328125 35.546875 0.953125 
Q 30.953125 -1.421875 24.3125 -1.421875 
Q 15.921875 -1.421875 10.953125 3.296875 
Q 6 8.015625 6 15.921875 
Q 6 25.140625 12.171875 29.828125 
Q 18.359375 34.515625 30.609375 34.515625 
L 43.21875 34.515625 
L 43.21875 35.40625 
Q 43.21875 41.609375 39.140625 45 
Q 35.0625 48.390625 27.6875 48.390625 
Q 23 48.390625 18.546875 47.265625 
Q 14.109375 46.140625 10.015625 43.890625 
L 10.015625 52.203125 
Q 14.9375 54.109375 19.578125 55.046875 
Q 24.21875 56 28.609375 56 
Q 40.484375 56 46.34375 49.84375 
Q 52.203125 43.703125 52.203125 31.203125 
z
" id="DejaVuSans-61"/>
      <path d="M 9.421875 54.6875 
L 18.40625 54.6875 
L 18.40625 0 
L 9.421875 0 
z
M 9.421875 75.984375 
L 18.40625 75.984375 
L 18.40625 64.59375 
L 9.421875 64.59375 
z
" id="DejaVuSans-69"/>
      <path d="M 30.609375 48.390625 
Q 23.390625 48.390625 19.1875 42.75 
Q 14.984375 37.109375 14.984375 27.296875 
Q 14.984375 17.484375 19.15625 11.84375 
Q 23.34375 6.203125 30.609375 6.203125 
Q 37.796875 6.203125 41.984375 11.859375 
Q 46.1875 17.53125 46.1875 27.296875 
Q 46.1875 37.015625 41.984375 42.703125 
Q 37.796875 48.390625 30.609375 48.390625 
z
M 30.609375 56 
Q 42.328125 56 49.015625 48.375 
Q 55.71875 40.765625 55.71875 27.296875 
Q 55.71875 13.875 49.015625 6.21875 
Q 42.328125 -1.421875 30.609375 -1.421875 
Q 18.84375 -1.421875 12.171875 6.21875 
Q 5.515625 13.875 5.515625 27.296875 
Q 5.515625 40.765625 12.171875 48.375 
Q 18.84375 56 30.609375 56 
z
" id="DejaVuSans-6f"/>
      <path d="M 54.890625 33.015625 
L 54.890625 0 
L 45.90625 0 
L 45.90625 32.71875 
Q 45.90625 40.484375 42.875 44.328125 
Q 39.84375 48.1875 33.796875 48.1875 
Q 26.515625 48.1875 22.3125 43.546875 
Q 18.109375 38.921875 18.109375 30.90625 
L 18.109375 0 
L 9.078125 0 
L 9.078125 54.6875 
L 18.109375 54.6875 
L 18.109375 46.1875 
Q 21.34375 51.125 25.703125 53.5625 
Q 30.078125 56 35.796875 56 
Q 45.21875 56 50.046875 50.171875 
Q 54.890625 44.34375 54.890625 33.015625 
z
" id="DejaVuSans-6e"/>
     </defs>
     <g style="fill:#262626;" transform="translate(221.717458 267.599328)scale(0.143 -0.143)">
      <use xlink:href="#DejaVuSans-49"/>
      <use x="29.492188" xlink:href="#DejaVuSans-74"/>
      <use x="68.701172" xlink:href="#DejaVuSans-65"/>
      <use x="130.224609" xlink:href="#DejaVuSans-72"/>
      <use x="171.337891" xlink:href="#DejaVuSans-61"/>
      <use x="232.617188" xlink:href="#DejaVuSans-74"/>
      <use x="271.826172" xlink:href="#DejaVuSans-69"/>
      <use x="299.609375" xlink:href="#DejaVuSans-6f"/>
      <use x="360.791016" xlink:href="#DejaVuSans-6e"/>
     </g>
    </g>
   </g>
   <g id="matplotlib.axis_2">
    <g id="ytick_1">
     <g id="line2d_13">
      <path clip-path="url(#p44390bcccc)" d="M 88.939494 203.800211 
L 415.152 203.800211 
" style="fill:none;stroke:#999999;stroke-linecap:round;stroke-width:1.3;"/>
     </g>
     <g id="line2d_14"/>
     <g id="text_8">
      <!-- $\mathdefault{10^{-17}}$ -->
      <defs>
       <path d="M 10.59375 35.5 
L 73.1875 35.5 
L 73.1875 27.203125 
L 10.59375 27.203125 
z
" id="DejaVuSans-2212"/>
       <path d="M 8.203125 72.90625 
L 55.078125 72.90625 
L 55.078125 68.703125 
L 28.609375 0 
L 18.3125 0 
L 43.21875 64.59375 
L 8.203125 64.59375 
z
" id="DejaVuSans-37"/>
      </defs>
      <g style="fill:#262626;" transform="translate(43.569494 208.739195)scale(0.13 -0.13)">
       <use transform="translate(0 0.684375)" xlink:href="#DejaVuSans-31"/>
       <use transform="translate(63.623047 0.684375)" xlink:href="#DejaVuSans-30"/>
       <use transform="translate(128.203125 38.965625)scale(0.7)" xlink:href="#DejaVuSans-2212"/>
       <use transform="translate(186.855469 38.965625)scale(0.7)" xlink:href="#DejaVuSans-31"/>
       <use transform="translate(231.391602 38.965625)scale(0.7)" xlink:href="#DejaVuSans-37"/>
      </g>
     </g>
    </g>
    <g id="ytick_2">
     <g id="line2d_15">
      <path clip-path="url(#p44390bcccc)" d="M 88.939494 172.717212 
L 415.152 172.717212 
" style="fill:none;stroke:#999999;stroke-linecap:round;stroke-width:1.3;"/>
     </g>
     <g id="line2d_16"/>
     <g id="text_9">
      <!-- $\mathdefault{10^{-12}}$ -->
      <g style="fill:#262626;" transform="translate(43.569494 177.656197)scale(0.13 -0.13)">
       <use transform="translate(0 0.765625)" xlink:href="#DejaVuSans-31"/>
       <use transform="translate(63.623047 0.765625)" xlink:href="#DejaVuSans-30"/>
       <use transform="translate(128.203125 39.046875)scale(0.7)" xlink:href="#DejaVuSans-2212"/>
       <use transform="translate(186.855469 39.046875)scale(0.7)" xlink:href="#DejaVuSans-31"/>
       <use transform="translate(231.391602 39.046875)scale(0.7)" xlink:href="#DejaVuSans-32"/>
      </g>
     </g>
    </g>
    <g id="ytick_3">
     <g id="line2d_17">
      <path clip-path="url(#p44390bcccc)" d="M 88.939494 141.634214 
L 415.152 141.634214 
" style="fill:none;stroke:#999999;stroke-linecap:round;stroke-width:1.3;"/>
     </g>
     <g id="line2d_18"/>
     <g id="text_10">
      <!-- $\mathdefault{10^{-7}}$ -->
      <g style="fill:#262626;" transform="translate(49.289494 146.573198)scale(0.13 -0.13)">
       <use transform="translate(0 0.684375)" xlink:href="#DejaVuSans-31"/>
       <use transform="translate(63.623047 0.684375)" xlink:href="#DejaVuSans-30"/>
       <use transform="translate(128.203125 38.965625)scale(0.7)" xlink:href="#DejaVuSans-2212"/>
       <use transform="translate(186.855469 38.965625)scale(0.7)" xlink:href="#DejaVuSans-37"/>
      </g>
     </g>
    </g>
    <g id="ytick_4">
     <g id="line2d_19">
      <path clip-path="url(#p44390bcccc)" d="M 88.939494 110.551215 
L 415.152 110.551215 
" style="fill:none;stroke:#999999;stroke-linecap:round;stroke-width:1.3;"/>
     </g>
     <g id="line2d_20"/>
     <g id="text_11">
      <!-- $\mathdefault{10^{-2}}$ -->
      <g style="fill:#262626;" transform="translate(49.289494 115.4902)scale(0.13 -0.13)">
       <use transform="translate(0 0.765625)" xlink:href="#DejaVuSans-31"/>
       <use transform="translate(63.623047 0.765625)" xlink:href="#DejaVuSans-30"/>
       <use transform="translate(128.203125 39.046875)scale(0.7)" xlink:href="#DejaVuSans-2212"/>
       <use transform="translate(186.855469 39.046875)scale(0.7)" xlink:href="#DejaVuSans-32"/>
      </g>
     </g>
    </g>
    <g id="ytick_5">
     <g id="line2d_21">
      <path clip-path="url(#p44390bcccc)" d="M 88.939494 79.468217 
L 415.152 79.468217 
" style="fill:none;stroke:#999999;stroke-linecap:round;stroke-width:1.3;"/>
     </g>
     <g id="line2d_22"/>
     <g id="text_12">
      <!-- $\mathdefault{10^{3}}$ -->
      <g style="fill:#262626;" transform="translate(56.959494 84.407201)scale(0.13 -0.13)">
       <use transform="translate(0 0.765625)" xlink:href="#DejaVuSans-31"/>
       <use transform="translate(63.623047 0.765625)" xlink:href="#DejaVuSans-30"/>
       <use transform="translate(128.203125 39.046875)scale(0.7)" xlink:href="#DejaVuSans-33"/>
      </g>
     </g>
    </g>
    <g id="ytick_6">
     <g id="line2d_23">
      <path clip-path="url(#p44390bcccc)" d="M 88.939494 48.385218 
L 415.152 48.385218 
" style="fill:none;stroke:#999999;stroke-linecap:round;stroke-width:1.3;"/>
     </g>
     <g id="line2d_24"/>
     <g id="text_13">
      <!-- $\mathdefault{10^{8}}$ -->
      <defs>
       <path d="M 31.78125 34.625 
Q 24.75 34.625 20.71875 30.859375 
Q 16.703125 27.09375 16.703125 20.515625 
Q 16.703125 13.921875 20.71875 10.15625 
Q 24.75 6.390625 31.78125 6.390625 
Q 38.8125 6.390625 42.859375 10.171875 
Q 46.921875 13.96875 46.921875 20.515625 
Q 46.921875 27.09375 42.890625 30.859375 
Q 38.875 34.625 31.78125 34.625 
z
M 21.921875 38.8125 
Q 15.578125 40.375 12.03125 44.71875 
Q 8.5 49.078125 8.5 55.328125 
Q 8.5 64.0625 14.71875 69.140625 
Q 20.953125 74.21875 31.78125 74.21875 
Q 42.671875 74.21875 48.875 69.140625 
Q 55.078125 64.0625 55.078125 55.328125 
Q 55.078125 49.078125 51.53125 44.71875 
Q 48 40.375 41.703125 38.8125 
Q 48.828125 37.15625 52.796875 32.3125 
Q 56.78125 27.484375 56.78125 20.515625 
Q 56.78125 9.90625 50.3125 4.234375 
Q 43.84375 -1.421875 31.78125 -1.421875 
Q 19.734375 -1.421875 13.25 4.234375 
Q 6.78125 9.90625 6.78125 20.515625 
Q 6.78125 27.484375 10.78125 32.3125 
Q 14.796875 37.15625 21.921875 38.8125 
z
M 18.3125 54.390625 
Q 18.3125 48.734375 21.84375 45.5625 
Q 25.390625 42.390625 31.78125 42.390625 
Q 38.140625 42.390625 41.71875 45.5625 
Q 45.3125 48.734375 45.3125 54.390625 
Q 45.3125 60.0625 41.71875 63.234375 
Q 38.140625 66.40625 31.78125 66.40625 
Q 25.390625 66.40625 21.84375 63.234375 
Q 18.3125 60.0625 18.3125 54.390625 
z
" id="DejaVuSans-38"/>
      </defs>
      <g style="fill:#262626;" transform="translate(56.959494 53.324203)scale(0.13 -0.13)">
       <use transform="translate(0 0.765625)" xlink:href="#DejaVuSans-31"/>
       <use transform="translate(63.623047 0.765625)" xlink:href="#DejaVuSans-30"/>
       <use transform="translate(128.203125 39.046875)scale(0.7)" xlink:href="#DejaVuSans-38"/>
      </g>
     </g>
    </g>
    <g id="text_14">
     <!-- $\|\| x_k - x^* \|\|^2$ -->
     <defs>
      <path d="M 21 76.421875 
L 21 -23.578125 
L 12.703125 -23.578125 
L 12.703125 76.421875 
z
" id="DejaVuSans-7c"/>
      <path d="M 60.015625 54.6875 
L 34.90625 27.875 
L 50.296875 0 
L 39.984375 0 
L 28.421875 21.6875 
L 8.296875 0 
L -2.59375 0 
L 24.3125 28.8125 
L 10.015625 54.6875 
L 20.3125 54.6875 
L 30.8125 34.90625 
L 49.125 54.6875 
z
" id="DejaVuSans-Oblique-78"/>
      <path d="M 18.3125 75.984375 
L 27.296875 75.984375 
L 18.703125 31.6875 
L 49.515625 54.6875 
L 61.1875 54.6875 
L 26.8125 28.515625 
L 51.90625 0 
L 41.015625 0 
L 17.671875 26.703125 
L 12.5 0 
L 3.515625 0 
z
" id="DejaVuSans-Oblique-6b"/>
      <path d="M 47.015625 60.890625 
L 29.5 51.421875 
L 47.015625 41.890625 
L 44.1875 37.109375 
L 27.78125 47.015625 
L 27.78125 28.609375 
L 22.21875 28.609375 
L 22.21875 47.015625 
L 5.8125 37.109375 
L 2.984375 41.890625 
L 20.515625 51.421875 
L 2.984375 60.890625 
L 5.8125 65.71875 
L 22.21875 55.8125 
L 22.21875 74.21875 
L 27.78125 74.21875 
L 27.78125 55.8125 
L 44.1875 65.71875 
z
" id="DejaVuSans-2a"/>
     </defs>
     <g style="fill:#262626;" transform="translate(36.137494 171.3455)rotate(-90)scale(0.143 -0.143)">
      <use transform="translate(0 0.765625)" xlink:href="#DejaVuSans-7c"/>
      <use transform="translate(33.691406 0.765625)" xlink:href="#DejaVuSans-7c"/>
      <use transform="translate(67.382812 0.765625)" xlink:href="#DejaVuSans-Oblique-78"/>
      <use transform="translate(126.5625 -15.640625)scale(0.7)" xlink:href="#DejaVuSans-Oblique-6b"/>
      <use transform="translate(189.316406 0.765625)" xlink:href="#DejaVuSans-2212"/>
      <use transform="translate(292.587891 0.765625)" xlink:href="#DejaVuSans-Oblique-78"/>
      <use transform="translate(369.871419 39.046875)scale(0.7)" xlink:href="#DejaVuSans-2a"/>
      <use transform="translate(421.24349 0.765625)" xlink:href="#DejaVuSans-7c"/>
      <use transform="translate(454.934896 0.765625)" xlink:href="#DejaVuSans-7c"/>
      <use transform="translate(489.583333 39.046875)scale(0.7)" xlink:href="#DejaVuSans-32"/>
     </g>
    </g>
   </g>
   <g id="PolyCollection_1">
    <defs>
     <path d="M 103.767335 -243.965373 
L 103.767335 -243.965373 
L 104.346548 -243.964593 
L 104.92576 -243.932314 
L 105.504973 -243.8568 
L 106.084185 -243.739305 
L 106.663398 -243.609266 
L 107.242611 -243.433543 
L 107.821823 -243.285733 
L 108.401036 -243.074796 
L 108.980248 -242.958672 
L 109.559461 -242.726837 
L 110.138673 -242.57369 
L 110.717886 -242.384622 
L 111.297098 -242.095089 
L 111.876311 -241.877692 
L 112.455524 -241.732967 
L 113.034736 -241.4603 
L 113.613949 -241.251748 
L 114.193161 -240.993678 
L 114.772374 -240.864883 
L 115.351586 -240.592537 
L 115.930799 -240.320006 
L 116.510011 -240.00273 
L 117.089224 -239.792576 
L 117.668436 -239.67916 
L 118.247649 -239.461191 
L 118.826862 -239.168359 
L 119.406074 -238.984265 
L 119.985287 -238.625269 
L 120.564499 -238.298825 
L 121.143712 -238.063465 
L 121.722924 -237.752486 
L 122.302137 -237.576034 
L 122.881349 -237.329887 
L 123.460562 -237.005087 
L 124.039774 -236.762014 
L 124.618987 -236.600922 
L 125.1982 -236.230876 
L 125.777412 -235.94225 
L 126.356625 -235.758867 
L 126.935837 -235.492296 
L 127.51505 -235.121702 
L 128.094262 -234.897884 
L 128.673475 -234.610313 
L 129.252687 -234.48749 
L 129.8319 -234.113709 
L 130.411112 -233.782428 
L 130.990325 -233.618881 
L 131.569538 -233.396618 
L 132.14875 -233.12866 
L 132.727963 -232.729062 
L 133.307175 -232.551831 
L 133.886388 -232.151269 
L 134.4656 -232.000435 
L 135.044813 -231.752449 
L 135.624025 -231.497872 
L 136.203238 -231.237978 
L 136.78245 -230.91888 
L 137.361663 -230.750858 
L 137.940876 -230.425169 
L 138.520088 -230.213518 
L 139.099301 -229.810397 
L 139.678513 -229.608773 
L 140.257726 -229.390155 
L 140.836938 -229.080839 
L 141.416151 -228.780898 
L 141.995363 -228.548556 
L 142.574576 -228.27153 
L 143.153788 -228.015741 
L 143.733001 -227.602107 
L 144.312214 -227.389633 
L 144.891426 -227.040274 
L 145.470639 -226.706804 
L 146.049851 -226.425878 
L 146.629064 -226.28075 
L 147.208276 -226.075129 
L 147.787489 -225.885872 
L 148.366701 -225.475972 
L 148.945914 -225.307638 
L 149.525126 -224.986138 
L 150.104339 -224.751442 
L 150.683552 -224.628122 
L 151.262764 -224.163614 
L 151.841977 -224.003787 
L 152.421189 -223.560357 
L 153.000402 -223.334752 
L 153.579614 -223.064516 
L 154.158827 -222.914919 
L 154.738039 -222.685569 
L 155.317252 -222.471096 
L 155.896464 -222.168767 
L 156.475677 -221.898531 
L 157.05489 -221.534307 
L 157.634102 -221.21002 
L 158.213315 -220.890056 
L 158.792527 -220.757333 
L 159.37174 -220.484085 
L 159.950952 -220.099563 
L 160.530165 -219.622019 
L 161.109377 -219.371649 
L 161.68859 -218.988295 
L 162.267802 -218.802918 
L 162.847015 -218.525998 
L 163.426228 -218.282001 
L 164.00544 -217.92934 
L 164.584653 -217.588292 
L 165.163865 -217.32523 
L 165.743078 -216.994887 
L 166.32229 -216.809075 
L 166.901503 -216.366617 
L 167.480715 -216.215855 
L 168.059928 -215.844391 
L 168.63914 -215.551111 
L 169.218353 -215.315785 
L 169.797566 -214.978878 
L 170.376778 -214.771985 
L 170.955991 -214.470303 
L 171.535203 -214.088936 
L 172.114416 -213.970926 
L 172.693628 -213.870096 
L 173.272841 -213.306893 
L 173.852053 -213.062642 
L 174.431266 -212.858328 
L 175.010478 -212.634392 
L 175.589691 -212.442628 
L 176.168904 -212.100571 
L 176.748116 -211.858758 
L 177.327329 -211.442665 
L 177.906541 -211.320112 
L 178.485754 -210.899359 
L 179.064966 -210.651351 
L 179.644179 -210.391624 
L 180.223391 -210.128547 
L 180.802604 -209.769297 
L 181.381816 -209.555884 
L 181.961029 -209.175011 
L 182.540242 -209.072507 
L 183.119454 -208.905103 
L 183.698667 -208.732639 
L 184.277879 -208.542703 
L 184.857092 -208.182749 
L 185.436304 -207.792891 
L 186.015517 -207.681261 
L 186.594729 -207.493212 
L 187.173942 -206.98984 
L 187.753154 -206.781734 
L 188.332367 -206.609122 
L 188.91158 -206.296487 
L 189.490792 -205.902843 
L 190.070005 -205.619342 
L 190.649217 -205.244893 
L 191.22843 -205.007394 
L 191.807642 -204.573323 
L 192.386855 -204.344006 
L 192.966067 -204.148391 
L 193.54528 -203.844944 
L 194.124492 -203.568662 
L 194.703705 -203.194751 
L 195.282918 -202.96537 
L 195.86213 -202.739004 
L 196.441343 -202.398265 
L 197.020555 -202.037774 
L 197.599768 -201.695434 
L 198.17898 -201.493322 
L 198.758193 -201.222632 
L 199.337405 -200.776081 
L 199.916618 -200.425359 
L 200.49583 -199.99402 
L 201.075043 -199.727275 
L 201.654256 -199.630128 
L 202.233468 -199.204158 
L 202.812681 -199.014405 
L 203.391893 -198.728131 
L 203.971106 -198.389581 
L 204.550318 -198.283988 
L 205.129531 -197.917474 
L 205.708743 -197.531785 
L 206.287956 -197.310066 
L 206.867168 -196.836865 
L 207.446381 -196.566227 
L 208.025594 -196.334712 
L 208.604806 -195.867316 
L 209.184019 -195.822125 
L 209.763231 -195.689138 
L 210.342444 -195.425557 
L 210.921656 -194.942521 
L 211.500869 -194.718231 
L 212.080081 -194.347788 
L 212.659294 -194.155085 
L 213.238506 -193.824249 
L 213.817719 -193.70081 
L 214.396932 -193.446932 
L 214.976144 -193.159658 
L 215.555357 -192.868257 
L 216.134569 -192.640275 
L 216.713782 -192.207925 
L 217.292994 -192.082753 
L 217.872207 -191.553718 
L 218.451419 -191.459816 
L 219.030632 -191.095516 
L 219.609844 -190.866257 
L 220.189057 -190.480751 
L 220.76827 -190.118878 
L 221.347482 -190.101682 
L 221.926695 -189.772334 
L 222.505907 -189.470372 
L 223.08512 -189.331506 
L 223.664332 -189.038218 
L 224.243545 -188.744181 
L 224.822757 -188.446327 
L 225.40197 -187.826701 
L 225.981183 -187.671679 
L 226.560395 -187.3612 
L 227.139608 -187.120594 
L 227.71882 -186.779096 
L 228.298033 -186.38041 
L 228.877245 -186.056179 
L 229.456458 -185.955093 
L 230.03567 -185.490119 
L 230.614883 -185.186346 
L 231.194095 -184.88865 
L 231.773308 -184.718835 
L 232.352521 -184.57429 
L 232.931733 -183.783019 
L 233.510946 -183.574271 
L 234.090158 -183.265285 
L 234.669371 -183.113648 
L 235.248583 -182.785612 
L 235.827796 -182.428852 
L 236.407008 -182.204849 
L 236.986221 -181.978269 
L 237.565433 -181.613294 
L 238.144646 -181.288953 
L 238.723859 -181.114387 
L 239.303071 -180.836452 
L 239.882284 -180.675527 
L 240.461496 -180.460013 
L 241.040709 -180.214781 
L 241.619921 -179.819142 
L 242.199134 -179.356023 
L 242.778346 -179.013598 
L 243.357559 -178.736307 
L 243.936771 -178.561997 
L 244.515984 -178.409809 
L 245.095197 -178.025763 
L 245.674409 -177.864238 
L 246.253622 -177.561362 
L 246.832834 -177.04221 
L 247.412047 -176.707913 
L 247.991259 -176.396891 
L 248.570472 -176.064027 
L 249.149684 -175.808468 
L 249.728897 -175.781367 
L 250.308109 -175.289036 
L 250.887322 -175.104334 
L 251.466535 -174.755053 
L 252.045747 -174.660162 
L 252.62496 -174.178919 
L 253.204172 -173.73659 
L 253.783385 -173.38288 
L 254.362597 -173.101781 
L 254.94181 -172.935673 
L 255.521022 -172.696138 
L 256.100235 -172.490201 
L 256.679447 -172.089422 
L 257.25866 -171.815105 
L 257.837873 -171.713167 
L 258.417085 -171.47657 
L 258.996298 -171.225417 
L 259.57551 -170.765202 
L 260.154723 -170.693506 
L 260.733935 -170.31331 
L 261.313148 -169.949442 
L 261.89236 -169.653642 
L 262.471573 -169.576329 
L 263.050785 -169.269982 
L 263.629998 -169.010395 
L 264.209211 -168.650006 
L 264.788423 -168.437913 
L 265.367636 -167.924388 
L 265.946848 -167.780088 
L 266.526061 -167.554328 
L 267.105273 -167.141407 
L 267.684486 -166.900812 
L 268.263698 -166.712363 
L 268.842911 -166.346546 
L 269.422123 -165.985968 
L 270.001336 -165.570393 
L 270.580549 -165.365403 
L 271.159761 -164.93282 
L 271.738974 -164.690269 
L 272.318186 -164.306544 
L 272.897399 -163.871563 
L 273.476611 -163.820015 
L 274.055824 -163.26086 
L 274.635036 -162.999025 
L 275.214249 -162.750788 
L 275.793461 -162.585927 
L 276.372674 -162.351294 
L 276.951887 -162.14275 
L 277.531099 -161.912829 
L 278.110312 -161.710938 
L 278.689524 -161.367013 
L 279.268737 -161.107181 
L 279.847949 -160.891446 
L 280.427162 -160.460654 
L 281.006374 -160.039911 
L 281.585587 -159.532758 
L 282.164799 -159.421547 
L 282.744012 -159.17548 
L 283.323225 -158.810757 
L 283.902437 -158.615439 
L 284.48165 -158.131472 
L 285.060862 -157.963294 
L 285.640075 -157.549034 
L 286.219287 -157.340278 
L 286.7985 -157.081383 
L 287.377712 -156.830577 
L 287.956925 -156.320016 
L 288.536137 -156.096343 
L 289.11535 -155.870344 
L 289.694563 -155.657728 
L 290.273775 -155.469214 
L 290.852988 -154.99345 
L 291.4322 -154.536061 
L 292.011413 -154.350638 
L 292.590625 -154.228082 
L 293.169838 -153.801265 
L 293.74905 -153.362516 
L 294.328263 -153.064545 
L 294.907475 -152.884777 
L 295.486688 -152.495751 
L 296.065901 -152.169928 
L 296.645113 -151.921427 
L 297.224326 -151.624184 
L 297.803538 -150.859276 
L 298.382751 -150.66439 
L 298.961963 -150.614322 
L 299.541176 -150.176242 
L 300.120388 -149.910678 
L 300.699601 -149.725457 
L 301.278813 -149.390282 
L 301.858026 -149.133534 
L 302.437239 -148.752521 
L 303.016451 -148.165003 
L 303.595664 -148.134595 
L 304.174876 -147.77927 
L 304.754089 -147.217653 
L 305.333301 -146.994401 
L 305.912514 -146.661363 
L 306.491726 -146.402087 
L 307.070939 -146.239488 
L 307.650151 -145.903423 
L 308.229364 -145.777347 
L 308.808577 -145.522343 
L 309.387789 -145.099089 
L 309.967002 -144.806138 
L 310.546214 -144.362913 
L 311.125427 -143.973145 
L 311.704639 -143.609437 
L 312.283852 -143.268325 
L 312.863064 -142.93601 
L 313.442277 -142.602158 
L 314.021489 -142.18585 
L 314.600702 -141.891044 
L 315.179915 -141.678422 
L 315.759127 -141.188066 
L 316.33834 -140.864016 
L 316.917552 -140.598872 
L 317.496765 -140.405334 
L 318.075977 -139.934743 
L 318.65519 -139.803219 
L 319.234402 -139.638741 
L 319.813615 -139.320756 
L 320.392827 -139.033774 
L 320.97204 -138.628356 
L 321.551253 -138.320563 
L 322.130465 -138.113329 
L 322.709678 -137.889954 
L 323.28889 -137.807973 
L 323.868103 -137.668177 
L 324.447315 -137.247751 
L 325.026528 -137.167298 
L 325.60574 -136.805057 
L 326.184953 -136.459905 
L 326.764165 -136.084077 
L 327.343378 -135.962671 
L 327.922591 -135.760991 
L 328.501803 -135.333712 
L 329.081016 -135.253665 
L 329.660228 -134.787028 
L 330.239441 -134.576675 
L 330.818653 -134.4744 
L 331.397866 -133.968717 
L 331.977078 -133.848158 
L 332.556291 -133.440887 
L 333.135503 -133.110724 
L 333.714716 -132.869795 
L 334.293929 -132.517315 
L 334.873141 -132.153085 
L 335.452354 -131.946221 
L 336.031566 -131.484046 
L 336.610779 -131.241809 
L 337.189991 -131.103758 
L 337.769204 -130.858375 
L 338.348416 -130.72157 
L 338.927629 -130.283469 
L 339.506842 -130.20026 
L 340.086054 -129.59843 
L 340.665267 -129.354312 
L 341.244479 -128.974493 
L 341.823692 -128.9097 
L 342.402904 -128.569028 
L 342.982117 -128.299273 
L 343.561329 -127.923675 
L 344.140542 -127.704305 
L 344.719754 -127.458604 
L 345.298967 -126.7618 
L 345.87818 -126.579008 
L 346.457392 -126.240542 
L 347.036605 -125.885019 
L 347.615817 -125.590931 
L 348.19503 -125.52508 
L 348.774242 -125.267164 
L 349.353455 -124.817753 
L 349.932667 -124.647235 
L 350.51188 -124.385222 
L 351.091092 -124.217269 
L 351.670305 -123.840492 
L 352.249518 -123.672015 
L 352.82873 -123.316156 
L 353.407943 -123.239977 
L 353.987155 -122.76347 
L 354.566368 -122.679086 
L 355.14558 -122.129792 
L 355.724793 -122.042357 
L 356.304005 -121.561458 
L 356.883218 -121.309415 
L 357.46243 -120.991232 
L 358.041643 -120.781644 
L 358.620856 -120.497779 
L 359.200068 -120.415973 
L 359.779281 -119.966395 
L 360.358493 -119.769057 
L 360.937706 -119.512399 
L 361.516918 -118.95844 
L 362.096131 -118.668888 
L 362.675343 -118.473153 
L 363.254556 -118.278314 
L 363.833768 -118.090627 
L 364.412981 -117.907887 
L 364.992194 -117.510643 
L 365.571406 -117.170687 
L 366.150619 -116.949221 
L 366.729831 -116.699453 
L 367.309044 -116.478418 
L 367.888256 -116.260328 
L 368.467469 -115.930381 
L 369.046681 -115.239734 
L 369.625894 -114.918515 
L 370.205106 -114.735961 
L 370.784319 -114.325927 
L 371.363532 -114.036061 
L 371.942744 -113.570138 
L 372.521957 -113.448494 
L 373.101169 -113.157874 
L 373.680382 -112.655383 
L 374.259594 -112.31976 
L 374.838807 -112.060558 
L 375.418019 -111.838614 
L 375.997232 -111.716785 
L 376.576444 -111.519625 
L 377.155657 -111.092376 
L 377.73487 -110.953847 
L 378.314082 -110.33036 
L 378.893295 -110.156795 
L 379.472507 -109.462074 
L 380.05172 -109.249609 
L 380.630932 -109.182285 
L 381.210145 -109.060162 
L 381.789357 -108.567218 
L 382.36857 -107.998373 
L 382.947782 -107.836623 
L 383.526995 -107.530042 
L 384.106208 -107.378397 
L 384.68542 -107.140041 
L 385.264633 -106.888169 
L 385.843845 -106.570252 
L 386.423058 -106.146036 
L 387.00227 -105.817582 
L 387.581483 -105.811796 
L 388.160695 -105.337559 
L 388.739908 -105.100713 
L 389.31912 -104.762922 
L 389.898333 -104.231862 
L 390.477546 -104.103172 
L 391.056758 -104.103065 
L 391.635971 -103.518553 
L 392.215183 -103.236267 
L 392.794396 -103.000641 
L 393.373608 -102.689461 
L 393.952821 -102.306722 
L 394.532033 -102.113465 
L 395.111246 -101.947959 
L 395.690458 -101.638323 
L 396.269671 -101.278285 
L 396.848884 -100.93729 
L 397.428096 -100.713425 
L 398.007309 -100.517336 
L 398.586521 -100.20753 
L 399.165734 -99.866183 
L 399.744946 -99.58706 
L 400.324159 -99.114812 
L 400.324159 -65.866364 
L 400.324159 -65.866364 
L 399.744946 -65.92049 
L 399.165734 -66.417197 
L 398.586521 -66.719116 
L 398.007309 -66.976139 
L 397.428096 -67.39173 
L 396.848884 -67.698771 
L 396.269671 -67.790742 
L 395.690458 -68.417895 
L 395.111246 -68.689258 
L 394.532033 -68.907753 
L 393.952821 -69.055827 
L 393.373608 -69.276251 
L 392.794396 -69.883618 
L 392.215183 -70.305911 
L 391.635971 -70.476187 
L 391.056758 -70.930441 
L 390.477546 -71.309669 
L 389.898333 -71.62308 
L 389.31912 -71.783225 
L 388.739908 -72.320715 
L 388.160695 -72.379136 
L 387.581483 -72.957819 
L 387.00227 -73.290034 
L 386.423058 -73.516292 
L 385.843845 -73.609037 
L 385.264633 -74.352213 
L 384.68542 -74.619353 
L 384.106208 -74.819657 
L 383.526995 -75.054509 
L 382.947782 -75.464774 
L 382.36857 -75.715958 
L 381.789357 -75.920426 
L 381.210145 -76.252841 
L 380.630932 -76.427535 
L 380.05172 -76.842287 
L 379.472507 -77.318355 
L 378.893295 -77.73051 
L 378.314082 -78.104694 
L 377.73487 -78.327425 
L 377.155657 -78.681149 
L 376.576444 -78.9993 
L 375.997232 -79.293607 
L 375.418019 -79.511246 
L 374.838807 -79.669146 
L 374.259594 -80.078469 
L 373.680382 -80.428854 
L 373.101169 -80.64561 
L 372.521957 -81.047105 
L 371.942744 -82.052348 
L 371.363532 -82.257799 
L 370.784319 -82.317604 
L 370.205106 -82.593069 
L 369.625894 -83.072681 
L 369.046681 -83.379628 
L 368.467469 -83.692432 
L 367.888256 -84.265668 
L 367.309044 -84.722895 
L 366.729831 -84.998074 
L 366.150619 -85.425213 
L 365.571406 -85.574964 
L 364.992194 -86.078226 
L 364.412981 -86.117058 
L 363.833768 -86.909337 
L 363.254556 -87.299234 
L 362.675343 -87.593941 
L 362.096131 -87.701007 
L 361.516918 -88.029181 
L 360.937706 -88.400586 
L 360.358493 -88.505582 
L 359.779281 -89.041772 
L 359.200068 -89.074796 
L 358.620856 -89.220866 
L 358.041643 -89.843656 
L 357.46243 -90.057112 
L 356.883218 -90.501786 
L 356.304005 -90.8788 
L 355.724793 -91.069047 
L 355.14558 -91.545184 
L 354.566368 -91.646119 
L 353.987155 -91.861642 
L 353.407943 -92.360677 
L 352.82873 -92.80652 
L 352.249518 -93.026897 
L 351.670305 -93.705433 
L 351.091092 -94.20464 
L 350.51188 -94.226916 
L 349.932667 -94.458349 
L 349.353455 -94.755918 
L 348.774242 -95.225373 
L 348.19503 -95.732155 
L 347.615817 -96.22798 
L 347.036605 -96.336247 
L 346.457392 -96.680455 
L 345.87818 -96.979117 
L 345.298967 -97.510598 
L 344.719754 -97.926171 
L 344.140542 -98.15503 
L 343.561329 -98.394505 
L 342.982117 -98.7803 
L 342.402904 -98.963441 
L 341.823692 -99.464269 
L 341.244479 -99.668372 
L 340.665267 -99.907337 
L 340.086054 -100.087709 
L 339.506842 -100.775571 
L 338.927629 -101.07304 
L 338.348416 -101.465469 
L 337.769204 -101.614227 
L 337.189991 -101.855345 
L 336.610779 -102.078219 
L 336.031566 -102.371993 
L 335.452354 -102.889335 
L 334.873141 -103.191534 
L 334.293929 -103.53046 
L 333.714716 -103.767489 
L 333.135503 -104.182929 
L 332.556291 -104.313648 
L 331.977078 -104.68542 
L 331.397866 -104.830331 
L 330.818653 -105.251712 
L 330.239441 -105.458329 
L 329.660228 -105.818409 
L 329.081016 -106.147855 
L 328.501803 -106.359507 
L 327.922591 -106.837164 
L 327.343378 -107.141275 
L 326.764165 -107.40515 
L 326.184953 -107.944113 
L 325.60574 -108.14567 
L 325.026528 -108.791529 
L 324.447315 -109.028735 
L 323.868103 -109.237576 
L 323.28889 -109.999272 
L 322.709678 -110.402318 
L 322.130465 -110.658446 
L 321.551253 -110.964465 
L 320.97204 -111.328646 
L 320.392827 -111.684998 
L 319.813615 -112.045701 
L 319.234402 -112.485241 
L 318.65519 -113.017523 
L 318.075977 -113.136978 
L 317.496765 -113.504287 
L 316.917552 -113.821343 
L 316.33834 -114.022173 
L 315.759127 -114.172171 
L 315.179915 -114.432905 
L 314.600702 -114.852762 
L 314.021489 -115.026067 
L 313.442277 -115.284894 
L 312.863064 -115.691543 
L 312.283852 -115.939097 
L 311.704639 -116.223738 
L 311.125427 -116.657169 
L 310.546214 -117.035586 
L 309.967002 -117.322202 
L 309.387789 -118.222879 
L 308.808577 -118.495186 
L 308.229364 -118.907546 
L 307.650151 -119.201508 
L 307.070939 -119.453189 
L 306.491726 -119.801273 
L 305.912514 -119.984623 
L 305.333301 -120.407539 
L 304.754089 -120.733048 
L 304.174876 -121.170127 
L 303.595664 -121.5364 
L 303.016451 -121.884483 
L 302.437239 -122.119657 
L 301.858026 -122.499755 
L 301.278813 -122.688467 
L 300.699601 -122.914812 
L 300.120388 -123.413306 
L 299.541176 -123.927774 
L 298.961963 -124.337209 
L 298.382751 -124.694967 
L 297.803538 -125.152559 
L 297.224326 -125.435333 
L 296.645113 -126.057368 
L 296.065901 -126.407006 
L 295.486688 -126.939033 
L 294.907475 -126.940471 
L 294.328263 -127.530824 
L 293.74905 -127.873299 
L 293.169838 -128.105428 
L 292.590625 -128.349113 
L 292.011413 -128.729689 
L 291.4322 -128.868824 
L 290.852988 -129.286121 
L 290.273775 -129.930103 
L 289.694563 -130.433467 
L 289.11535 -130.642878 
L 288.536137 -131.041054 
L 287.956925 -131.236522 
L 287.377712 -131.523083 
L 286.7985 -132.25575 
L 286.219287 -132.649626 
L 285.640075 -132.941581 
L 285.060862 -133.104138 
L 284.48165 -133.475546 
L 283.902437 -133.522176 
L 283.323225 -133.831296 
L 282.744012 -134.195925 
L 282.164799 -134.297467 
L 281.585587 -134.774858 
L 281.006374 -135.295174 
L 280.427162 -135.492546 
L 279.847949 -135.767266 
L 279.268737 -136.251277 
L 278.689524 -136.585396 
L 278.110312 -136.712832 
L 277.531099 -137.257429 
L 276.951887 -137.426976 
L 276.372674 -137.857249 
L 275.793461 -138.194047 
L 275.214249 -138.475236 
L 274.635036 -138.785095 
L 274.055824 -139.081199 
L 273.476611 -139.565506 
L 272.897399 -139.930413 
L 272.318186 -140.033106 
L 271.738974 -140.381788 
L 271.159761 -140.591839 
L 270.580549 -140.824348 
L 270.001336 -141.101967 
L 269.422123 -141.657932 
L 268.842911 -141.792574 
L 268.263698 -141.900309 
L 267.684486 -142.386886 
L 267.105273 -143.16985 
L 266.526061 -143.304071 
L 265.946848 -143.748027 
L 265.367636 -143.964094 
L 264.788423 -144.527677 
L 264.209211 -144.839894 
L 263.629998 -145.141227 
L 263.050785 -145.49187 
L 262.471573 -145.708348 
L 261.89236 -146.015866 
L 261.313148 -146.503799 
L 260.733935 -146.909846 
L 260.154723 -147.295609 
L 259.57551 -147.518618 
L 258.996298 -147.913067 
L 258.417085 -148.208544 
L 257.837873 -148.556342 
L 257.25866 -148.716882 
L 256.679447 -149.23781 
L 256.100235 -149.366757 
L 255.521022 -149.787924 
L 254.94181 -150.215245 
L 254.362597 -150.565888 
L 253.783385 -150.899644 
L 253.204172 -151.319101 
L 252.62496 -151.737364 
L 252.045747 -151.881942 
L 251.466535 -152.218976 
L 250.887322 -152.784687 
L 250.308109 -152.991764 
L 249.728897 -153.114165 
L 249.149684 -153.402578 
L 248.570472 -153.941084 
L 247.991259 -154.289351 
L 247.412047 -154.565287 
L 246.832834 -154.837858 
L 246.253622 -155.144948 
L 245.674409 -155.557055 
L 245.095197 -155.938765 
L 244.515984 -156.251865 
L 243.936771 -156.437998 
L 243.357559 -156.877448 
L 242.778346 -157.251154 
L 242.199134 -157.558679 
L 241.619921 -157.911535 
L 241.040709 -158.340792 
L 240.461496 -158.540219 
L 239.882284 -158.856084 
L 239.303071 -159.182938 
L 238.723859 -159.382323 
L 238.144646 -159.620479 
L 237.565433 -159.778431 
L 236.986221 -160.114864 
L 236.407008 -160.40616 
L 235.827796 -160.704624 
L 235.248583 -161.054376 
L 234.669371 -161.518151 
L 234.090158 -162.308428 
L 233.510946 -162.755022 
L 232.931733 -162.996846 
L 232.352521 -163.208136 
L 231.773308 -163.44319 
L 231.194095 -164.019406 
L 230.614883 -164.324768 
L 230.03567 -164.597572 
L 229.456458 -164.757962 
L 228.877245 -165.222664 
L 228.298033 -165.52694 
L 227.71882 -165.761494 
L 227.139608 -166.186134 
L 226.560395 -166.34458 
L 225.981183 -166.734388 
L 225.40197 -166.922359 
L 224.822757 -167.374211 
L 224.243545 -167.906817 
L 223.664332 -168.192521 
L 223.08512 -168.697138 
L 222.505907 -169.167768 
L 221.926695 -169.396552 
L 221.347482 -169.756743 
L 220.76827 -170.04859 
L 220.189057 -170.524336 
L 219.609844 -171.111273 
L 219.030632 -171.192414 
L 218.451419 -171.670363 
L 217.872207 -172.059322 
L 217.292994 -172.251175 
L 216.713782 -172.638935 
L 216.134569 -172.917429 
L 215.555357 -173.180855 
L 214.976144 -173.746549 
L 214.396932 -174.038366 
L 213.817719 -174.25585 
L 213.238506 -174.823348 
L 212.659294 -175.183985 
L 212.080081 -175.457056 
L 211.500869 -175.741072 
L 210.921656 -175.997828 
L 210.342444 -176.257591 
L 209.763231 -176.553639 
L 209.184019 -176.997136 
L 208.604806 -177.227747 
L 208.025594 -177.415886 
L 207.446381 -177.847411 
L 206.867168 -178.096987 
L 206.287956 -178.664142 
L 205.708743 -178.843941 
L 205.129531 -179.28889 
L 204.550318 -179.639973 
L 203.971106 -180.041268 
L 203.391893 -180.128103 
L 202.812681 -180.581872 
L 202.233468 -180.967197 
L 201.654256 -181.161515 
L 201.075043 -181.451507 
L 200.49583 -181.915256 
L 199.916618 -182.087915 
L 199.337405 -182.521267 
L 198.758193 -182.790635 
L 198.17898 -183.309936 
L 197.599768 -183.609596 
L 197.020555 -183.726645 
L 196.441343 -184.190291 
L 195.86213 -184.599383 
L 195.282918 -184.896215 
L 194.703705 -185.114399 
L 194.124492 -185.517793 
L 193.54528 -185.970139 
L 192.966067 -186.230784 
L 192.386855 -186.463694 
L 191.807642 -186.966096 
L 191.22843 -187.509549 
L 190.649217 -187.955563 
L 190.070005 -188.116628 
L 189.490792 -188.481744 
L 188.91158 -188.882518 
L 188.332367 -189.148072 
L 187.753154 -189.35403 
L 187.173942 -189.776413 
L 186.594729 -190.066091 
L 186.015517 -190.374774 
L 185.436304 -190.677832 
L 184.857092 -191.183091 
L 184.277879 -191.423495 
L 183.698667 -191.955252 
L 183.119454 -192.285454 
L 182.540242 -192.610332 
L 181.961029 -193.089552 
L 181.381816 -193.275493 
L 180.802604 -193.781582 
L 180.223391 -194.131162 
L 179.644179 -194.476615 
L 179.064966 -194.654474 
L 178.485754 -194.984813 
L 177.906541 -195.407759 
L 177.327329 -195.797315 
L 176.748116 -195.926952 
L 176.168904 -196.19416 
L 175.589691 -196.738185 
L 175.010478 -197.047731 
L 174.431266 -197.640928 
L 173.852053 -197.911079 
L 173.272841 -198.231104 
L 172.693628 -198.403416 
L 172.114416 -198.76553 
L 171.535203 -199.107946 
L 170.955991 -199.476053 
L 170.376778 -199.874848 
L 169.797566 -200.311525 
L 169.218353 -200.543407 
L 168.63914 -200.911988 
L 168.059928 -201.187924 
L 167.480715 -201.53571 
L 166.901503 -201.701891 
L 166.32229 -202.51837 
L 165.743078 -202.839455 
L 165.163865 -203.131022 
L 164.584653 -203.411609 
L 164.00544 -203.781426 
L 163.426228 -204.170119 
L 162.847015 -204.422949 
L 162.267802 -204.616053 
L 161.68859 -204.778505 
L 161.109377 -205.258754 
L 160.530165 -205.638429 
L 159.950952 -205.973292 
L 159.37174 -206.131228 
L 158.792527 -206.395592 
L 158.213315 -206.717886 
L 157.634102 -207.211777 
L 157.05489 -207.798831 
L 156.475677 -207.939861 
L 155.896464 -208.374431 
L 155.317252 -208.607546 
L 154.738039 -208.847928 
L 154.158827 -209.328717 
L 153.579614 -209.860442 
L 153.000402 -210.365131 
L 152.421189 -210.747244 
L 151.841977 -211.070924 
L 151.262764 -211.385697 
L 150.683552 -211.819123 
L 150.104339 -212.260275 
L 149.525126 -212.527143 
L 148.945914 -212.871886 
L 148.366701 -213.142516 
L 147.787489 -213.397915 
L 147.208276 -213.691558 
L 146.629064 -214.00431 
L 146.049851 -214.474634 
L 145.470639 -214.700264 
L 144.891426 -215.093087 
L 144.312214 -215.350108 
L 143.733001 -215.772425 
L 143.153788 -216.073377 
L 142.574576 -216.634052 
L 141.995363 -216.885643 
L 141.416151 -217.416913 
L 140.836938 -217.811977 
L 140.257726 -218.159403 
L 139.678513 -218.35057 
L 139.099301 -218.846151 
L 138.520088 -218.987336 
L 137.940876 -219.437221 
L 137.361663 -219.786821 
L 136.78245 -220.196478 
L 136.203238 -220.57842 
L 135.624025 -221.006035 
L 135.044813 -221.266213 
L 134.4656 -221.717142 
L 133.886388 -222.169227 
L 133.307175 -222.635879 
L 132.727963 -222.896284 
L 132.14875 -223.210605 
L 131.569538 -223.693011 
L 130.990325 -223.877659 
L 130.411112 -224.135602 
L 129.8319 -224.522817 
L 129.252687 -224.976156 
L 128.673475 -225.488438 
L 128.094262 -225.933665 
L 127.51505 -226.208474 
L 126.935837 -226.461162 
L 126.356625 -226.838717 
L 125.777412 -227.125381 
L 125.1982 -227.626897 
L 124.618987 -227.882577 
L 124.039774 -228.259321 
L 123.460562 -228.638643 
L 122.881349 -228.983727 
L 122.302137 -229.399584 
L 121.722924 -229.968908 
L 121.143712 -230.292989 
L 120.564499 -230.721396 
L 119.985287 -231.092217 
L 119.406074 -231.390054 
L 118.826862 -231.764415 
L 118.247649 -232.211609 
L 117.668436 -232.383569 
L 117.089224 -232.90405 
L 116.510011 -233.163289 
L 115.930799 -233.49447 
L 115.351586 -234.020292 
L 114.772374 -234.494537 
L 114.193161 -234.915047 
L 113.613949 -235.338307 
L 113.034736 -235.732201 
L 112.455524 -236.178548 
L 111.876311 -236.434331 
L 111.297098 -236.747607 
L 110.717886 -237.132853 
L 110.138673 -237.775131 
L 109.559461 -238.189192 
L 108.980248 -238.766471 
L 108.401036 -239.170963 
L 107.821823 -239.581618 
L 107.242611 -239.986909 
L 106.663398 -240.525761 
L 106.084185 -241.09866 
L 105.504973 -241.524223 
L 104.92576 -242.071257 
L 104.346548 -242.703709 
L 103.767335 -243.965373 
z
" id="maff9382c2f" style="stroke:#ff7f0e;stroke-opacity:0.2;stroke-width:0.39;"/>
    </defs>
    <g clip-path="url(#p44390bcccc)">
     <use style="fill:#ff7f0e;fill-opacity:0.2;stroke:#ff7f0e;stroke-opacity:0.2;stroke-width:0.39;" x="0" xlink:href="#maff9382c2f" y="288"/>
    </g>
   </g>
   <g id="line2d_25">
    <path clip-path="url(#p44390bcccc)" d="M 103.767335 44.034627 
L 104.346548 44.162762 
L 111.297098 47.943668 
L 139.099301 63.202912 
L 140.836938 64.244062 
L 141.416151 64.464426 
L 144.312214 66.14266 
L 146.049851 67.03541 
L 147.787489 67.995895 
L 148.366701 68.254073 
L 149.525126 69.071975 
L 151.262764 69.982009 
L 155.896464 72.446597 
L 158.792527 73.990724 
L 159.37174 74.189195 
L 161.109377 75.267848 
L 162.847015 76.114024 
L 163.426228 76.508887 
L 164.00544 76.738623 
L 165.163865 77.476093 
L 165.743078 77.725792 
L 166.901503 78.423119 
L 177.906541 84.499198 
L 179.064966 85.061663 
L 180.223391 85.683387 
L 181.381816 86.230139 
L 182.540242 86.85226 
L 183.119454 87.096897 
L 183.698667 87.523493 
L 184.857092 88.130788 
L 188.332367 90.006785 
L 197.599768 94.933421 
L 199.337405 95.975125 
L 200.49583 96.61878 
L 203.391893 98.118775 
L 204.550318 98.887861 
L 206.867168 100.161725 
L 207.446381 100.400402 
L 209.763231 101.900025 
L 214.976144 104.479514 
L 215.555357 104.914938 
L 216.134569 105.113212 
L 217.292994 105.807388 
L 222.505907 108.65136 
L 223.08512 108.876252 
L 223.664332 109.402607 
L 224.822757 110.005608 
L 227.139608 111.146363 
L 227.71882 111.354923 
L 230.614883 113.010575 
L 231.194095 113.197151 
L 232.352521 114.025189 
L 238.144646 117.051588 
L 239.303071 117.615021 
L 241.040709 118.636278 
L 242.778346 119.689572 
L 243.936771 120.217876 
L 245.674409 121.317367 
L 247.412047 122.136658 
L 250.887322 124.201663 
L 253.204172 125.293727 
L 253.783385 125.583282 
L 254.362597 126.00653 
L 254.94181 126.140953 
L 256.100235 126.87499 
L 257.25866 127.461629 
L 258.417085 128.081671 
L 258.996298 128.515712 
L 261.313148 129.706487 
L 261.89236 130.131971 
L 262.471573 130.351387 
L 263.050785 130.762063 
L 264.788423 131.591285 
L 270.001336 134.359533 
L 270.580549 134.617154 
L 271.159761 135.00226 
L 271.738974 135.243388 
L 274.635036 137.040036 
L 279.268737 139.409011 
L 279.847949 139.838737 
L 281.585587 140.59801 
L 282.744012 141.29078 
L 283.323225 141.52983 
L 283.902437 142.026558 
L 285.060862 142.558987 
L 285.640075 142.84306 
L 286.7985 143.596341 
L 289.11535 144.839387 
L 290.852988 145.649802 
L 292.011413 146.252982 
L 301.278813 151.244492 
L 302.437239 152.127504 
L 304.754089 153.383889 
L 305.333301 153.604275 
L 305.912514 154.020943 
L 307.070939 154.631896 
L 307.650151 155.015765 
L 308.229364 155.25273 
L 309.967002 156.311921 
L 311.704639 157.183241 
L 312.283852 157.441482 
L 312.863064 157.966155 
L 313.442277 158.163517 
L 315.179915 159.075029 
L 316.33834 159.542721 
L 316.917552 160.06818 
L 319.234402 161.303448 
L 322.709678 163.422789 
L 323.868103 163.820565 
L 325.026528 164.484336 
L 326.184953 165.111077 
L 327.922591 166.031331 
L 329.081016 166.593647 
L 329.660228 166.972889 
L 330.239441 167.19805 
L 331.977078 168.350385 
L 332.556291 168.527992 
L 334.293929 169.501567 
L 334.873141 169.678051 
L 336.031566 170.466663 
L 339.506842 172.479525 
L 340.665267 172.975193 
L 341.244479 173.349701 
L 342.982117 174.130088 
L 344.140542 174.776733 
L 348.19503 176.787996 
L 348.774242 177.216286 
L 349.353455 177.406359 
L 353.987155 179.928928 
L 354.566368 180.48516 
L 355.14558 180.63658 
L 355.724793 181.169068 
L 364.992194 185.851959 
L 365.571406 186.495207 
L 369.046681 188.089161 
L 371.942744 189.758458 
L 372.521957 189.97653 
L 373.101169 190.467731 
L 374.259594 190.905753 
L 375.997232 191.946908 
L 377.155657 192.750553 
L 378.314082 192.998246 
L 379.472507 193.626135 
L 380.630932 194.398711 
L 382.36857 195.159701 
L 388.160695 198.474027 
L 388.739908 198.983409 
L 391.056758 200.27052 
L 391.635971 200.488379 
L 393.952821 201.787354 
L 395.111246 202.329481 
L 396.269671 203.123081 
L 396.848884 203.302378 
L 398.586521 204.294567 
L 399.165734 204.81633 
L 400.324159 205.447488 
L 400.324159 205.447488 
" style="fill:none;stroke:#ff7f0e;stroke-linecap:round;stroke-width:2.275;"/>
   </g>
   <g id="line2d_26">
    <path clip-path="url(#p44390bcccc)" d="M 103.767335 43.766364 
L 399.744946 172.407473 
L 399.744946 172.407473 
" style="fill:none;stroke:#2ca02c;stroke-linecap:round;stroke-width:2.275;"/>
   </g>
   <g id="line2d_27">
    <path clip-path="url(#p44390bcccc)" d="M 103.767335 44.034627 
L 399.744946 206.109822 
L 399.744946 206.109822 
" style="fill:none;stroke:#d62728;stroke-linecap:round;stroke-width:2.275;"/>
   </g>
   <g id="patch_3">
    <path d="M 88.939494 231.052 
L 88.939494 34.848 
" style="fill:none;stroke:#999999;stroke-linecap:square;stroke-linejoin:miter;"/>
   </g>
   <g id="patch_4">
    <path d="M 415.152 231.052 
L 415.152 34.848 
" style="fill:none;stroke:#999999;stroke-linecap:square;stroke-linejoin:miter;"/>
   </g>
   <g id="patch_5">
    <path d="M 88.939494 231.052 
L 415.152 231.052 
" style="fill:none;stroke:#999999;stroke-linecap:square;stroke-linejoin:miter;"/>
   </g>
   <g id="patch_6">
    <path d="M 88.939494 34.848 
L 415.152 34.848 
" style="fill:none;stroke:#999999;stroke-linecap:square;stroke-linejoin:miter;"/>
   </g>
   <g id="text_15">
    <!-- Error vs Iteration (Inconsistent Gaussian) -->
    <defs>
     <path d="M 9.8125 72.90625 
L 55.90625 72.90625 
L 55.90625 64.59375 
L 19.671875 64.59375 
L 19.671875 43.015625 
L 54.390625 43.015625 
L 54.390625 34.71875 
L 19.671875 34.71875 
L 19.671875 8.296875 
L 56.78125 8.296875 
L 56.78125 0 
L 9.8125 0 
z
" id="DejaVuSans-45"/>
     <path id="DejaVuSans-20"/>
     <path d="M 2.984375 54.6875 
L 12.5 54.6875 
L 29.59375 8.796875 
L 46.6875 54.6875 
L 56.203125 54.6875 
L 35.6875 0 
L 23.484375 0 
z
" id="DejaVuSans-76"/>
     <path d="M 44.28125 53.078125 
L 44.28125 44.578125 
Q 40.484375 46.53125 36.375 47.5 
Q 32.28125 48.484375 27.875 48.484375 
Q 21.1875 48.484375 17.84375 46.4375 
Q 14.5 44.390625 14.5 40.28125 
Q 14.5 37.15625 16.890625 35.375 
Q 19.28125 33.59375 26.515625 31.984375 
L 29.59375 31.296875 
Q 39.15625 29.25 43.1875 25.515625 
Q 47.21875 21.78125 47.21875 15.09375 
Q 47.21875 7.46875 41.1875 3.015625 
Q 35.15625 -1.421875 24.609375 -1.421875 
Q 20.21875 -1.421875 15.453125 -0.5625 
Q 10.6875 0.296875 5.421875 2 
L 5.421875 11.28125 
Q 10.40625 8.6875 15.234375 7.390625 
Q 20.0625 6.109375 24.8125 6.109375 
Q 31.15625 6.109375 34.5625 8.28125 
Q 37.984375 10.453125 37.984375 14.40625 
Q 37.984375 18.0625 35.515625 20.015625 
Q 33.0625 21.96875 24.703125 23.78125 
L 21.578125 24.515625 
Q 13.234375 26.265625 9.515625 29.90625 
Q 5.8125 33.546875 5.8125 39.890625 
Q 5.8125 47.609375 11.28125 51.796875 
Q 16.75 56 26.8125 56 
Q 31.78125 56 36.171875 55.265625 
Q 40.578125 54.546875 44.28125 53.078125 
z
" id="DejaVuSans-73"/>
     <path d="M 31 75.875 
Q 24.46875 64.65625 21.28125 53.65625 
Q 18.109375 42.671875 18.109375 31.390625 
Q 18.109375 20.125 21.3125 9.0625 
Q 24.515625 -2 31 -13.1875 
L 23.1875 -13.1875 
Q 15.875 -1.703125 12.234375 9.375 
Q 8.59375 20.453125 8.59375 31.390625 
Q 8.59375 42.28125 12.203125 53.3125 
Q 15.828125 64.359375 23.1875 75.875 
z
" id="DejaVuSans-28"/>
     <path d="M 48.78125 52.59375 
L 48.78125 44.1875 
Q 44.96875 46.296875 41.140625 47.34375 
Q 37.3125 48.390625 33.40625 48.390625 
Q 24.65625 48.390625 19.8125 42.84375 
Q 14.984375 37.3125 14.984375 27.296875 
Q 14.984375 17.28125 19.8125 11.734375 
Q 24.65625 6.203125 33.40625 6.203125 
Q 37.3125 6.203125 41.140625 7.25 
Q 44.96875 8.296875 48.78125 10.40625 
L 48.78125 2.09375 
Q 45.015625 0.34375 40.984375 -0.53125 
Q 36.96875 -1.421875 32.421875 -1.421875 
Q 20.0625 -1.421875 12.78125 6.34375 
Q 5.515625 14.109375 5.515625 27.296875 
Q 5.515625 40.671875 12.859375 48.328125 
Q 20.21875 56 33.015625 56 
Q 37.15625 56 41.109375 55.140625 
Q 45.0625 54.296875 48.78125 52.59375 
z
" id="DejaVuSans-63"/>
     <path d="M 59.515625 10.40625 
L 59.515625 29.984375 
L 43.40625 29.984375 
L 43.40625 38.09375 
L 69.28125 38.09375 
L 69.28125 6.78125 
Q 63.578125 2.734375 56.6875 0.65625 
Q 49.8125 -1.421875 42 -1.421875 
Q 24.90625 -1.421875 15.25 8.5625 
Q 5.609375 18.5625 5.609375 36.375 
Q 5.609375 54.25 15.25 64.234375 
Q 24.90625 74.21875 42 74.21875 
Q 49.125 74.21875 55.546875 72.453125 
Q 61.96875 70.703125 67.390625 67.28125 
L 67.390625 56.78125 
Q 61.921875 61.421875 55.765625 63.765625 
Q 49.609375 66.109375 42.828125 66.109375 
Q 29.4375 66.109375 22.71875 58.640625 
Q 16.015625 51.171875 16.015625 36.375 
Q 16.015625 21.625 22.71875 14.15625 
Q 29.4375 6.6875 42.828125 6.6875 
Q 48.046875 6.6875 52.140625 7.59375 
Q 56.25 8.5 59.515625 10.40625 
z
" id="DejaVuSans-47"/>
     <path d="M 8.5 21.578125 
L 8.5 54.6875 
L 17.484375 54.6875 
L 17.484375 21.921875 
Q 17.484375 14.15625 20.5 10.265625 
Q 23.53125 6.390625 29.59375 6.390625 
Q 36.859375 6.390625 41.078125 11.03125 
Q 45.3125 15.671875 45.3125 23.6875 
L 45.3125 54.6875 
L 54.296875 54.6875 
L 54.296875 0 
L 45.3125 0 
L 45.3125 8.40625 
Q 42.046875 3.421875 37.71875 1 
Q 33.40625 -1.421875 27.6875 -1.421875 
Q 18.265625 -1.421875 13.375 4.4375 
Q 8.5 10.296875 8.5 21.578125 
z
M 31.109375 56 
z
" id="DejaVuSans-75"/>
     <path d="M 8.015625 75.875 
L 15.828125 75.875 
Q 23.140625 64.359375 26.78125 53.3125 
Q 30.421875 42.28125 30.421875 31.390625 
Q 30.421875 20.453125 26.78125 9.375 
Q 23.140625 -1.703125 15.828125 -13.1875 
L 8.015625 -13.1875 
Q 14.5 -2 17.703125 9.0625 
Q 20.90625 20.125 20.90625 31.390625 
Q 20.90625 42.671875 17.703125 53.65625 
Q 14.5 64.65625 8.015625 75.875 
z
" id="DejaVuSans-29"/>
    </defs>
    <g style="fill:#262626;" transform="translate(91.776466 28.848)scale(0.156 -0.156)">
     <use xlink:href="#DejaVuSans-45"/>
     <use x="63.183594" xlink:href="#DejaVuSans-72"/>
     <use x="104.28125" xlink:href="#DejaVuSans-72"/>
     <use x="145.363281" xlink:href="#DejaVuSans-6f"/>
     <use x="206.544922" xlink:href="#DejaVuSans-72"/>
     <use x="247.658203" xlink:href="#DejaVuSans-20"/>
     <use x="279.445312" xlink:href="#DejaVuSans-76"/>
     <use x="338.625" xlink:href="#DejaVuSans-73"/>
     <use x="390.724609" xlink:href="#DejaVuSans-20"/>
     <use x="422.511719" xlink:href="#DejaVuSans-49"/>
     <use x="452.003906" xlink:href="#DejaVuSans-74"/>
     <use x="491.212891" xlink:href="#DejaVuSans-65"/>
     <use x="552.736328" xlink:href="#DejaVuSans-72"/>
     <use x="593.849609" xlink:href="#DejaVuSans-61"/>
     <use x="655.128906" xlink:href="#DejaVuSans-74"/>
     <use x="694.337891" xlink:href="#DejaVuSans-69"/>
     <use x="722.121094" xlink:href="#DejaVuSans-6f"/>
     <use x="783.302734" xlink:href="#DejaVuSans-6e"/>
     <use x="846.681641" xlink:href="#DejaVuSans-20"/>
     <use x="878.46875" xlink:href="#DejaVuSans-28"/>
     <use x="917.482422" xlink:href="#DejaVuSans-49"/>
     <use x="946.974609" xlink:href="#DejaVuSans-6e"/>
     <use x="1010.353516" xlink:href="#DejaVuSans-63"/>
     <use x="1065.333984" xlink:href="#DejaVuSans-6f"/>
     <use x="1126.515625" xlink:href="#DejaVuSans-6e"/>
     <use x="1189.894531" xlink:href="#DejaVuSans-73"/>
     <use x="1241.994141" xlink:href="#DejaVuSans-69"/>
     <use x="1269.777344" xlink:href="#DejaVuSans-73"/>
     <use x="1321.876953" xlink:href="#DejaVuSans-74"/>
     <use x="1361.085938" xlink:href="#DejaVuSans-65"/>
     <use x="1422.609375" xlink:href="#DejaVuSans-6e"/>
     <use x="1485.988281" xlink:href="#DejaVuSans-74"/>
     <use x="1525.197266" xlink:href="#DejaVuSans-20"/>
     <use x="1556.984375" xlink:href="#DejaVuSans-47"/>
     <use x="1634.474609" xlink:href="#DejaVuSans-61"/>
     <use x="1695.753906" xlink:href="#DejaVuSans-75"/>
     <use x="1759.132812" xlink:href="#DejaVuSans-73"/>
     <use x="1811.232422" xlink:href="#DejaVuSans-73"/>
     <use x="1863.332031" xlink:href="#DejaVuSans-69"/>
     <use x="1891.115234" xlink:href="#DejaVuSans-61"/>
     <use x="1952.394531" xlink:href="#DejaVuSans-6e"/>
     <use x="2015.773438" xlink:href="#DejaVuSans-29"/>
    </g>
   </g>
   <g id="legend_1">
    <g id="line2d_28">
     <path d="M 281.952781 51.875969 
L 307.952781 51.875969 
" style="fill:none;stroke:#ff7f0e;stroke-linecap:round;stroke-width:2.275;"/>
    </g>
    <g id="line2d_29"/>
    <g id="text_16">
     <!-- Optimal -->
     <defs>
      <path d="M 39.40625 66.21875 
Q 28.65625 66.21875 22.328125 58.203125 
Q 16.015625 50.203125 16.015625 36.375 
Q 16.015625 22.609375 22.328125 14.59375 
Q 28.65625 6.59375 39.40625 6.59375 
Q 50.140625 6.59375 56.421875 14.59375 
Q 62.703125 22.609375 62.703125 36.375 
Q 62.703125 50.203125 56.421875 58.203125 
Q 50.140625 66.21875 39.40625 66.21875 
z
M 39.40625 74.21875 
Q 54.734375 74.21875 63.90625 63.9375 
Q 73.09375 53.65625 73.09375 36.375 
Q 73.09375 19.140625 63.90625 8.859375 
Q 54.734375 -1.421875 39.40625 -1.421875 
Q 24.03125 -1.421875 14.8125 8.828125 
Q 5.609375 19.09375 5.609375 36.375 
Q 5.609375 53.65625 14.8125 63.9375 
Q 24.03125 74.21875 39.40625 74.21875 
z
" id="DejaVuSans-4f"/>
      <path d="M 18.109375 8.203125 
L 18.109375 -20.796875 
L 9.078125 -20.796875 
L 9.078125 54.6875 
L 18.109375 54.6875 
L 18.109375 46.390625 
Q 20.953125 51.265625 25.265625 53.625 
Q 29.59375 56 35.59375 56 
Q 45.5625 56 51.78125 48.09375 
Q 58.015625 40.1875 58.015625 27.296875 
Q 58.015625 14.40625 51.78125 6.484375 
Q 45.5625 -1.421875 35.59375 -1.421875 
Q 29.59375 -1.421875 25.265625 0.953125 
Q 20.953125 3.328125 18.109375 8.203125 
z
M 48.6875 27.296875 
Q 48.6875 37.203125 44.609375 42.84375 
Q 40.53125 48.484375 33.40625 48.484375 
Q 26.265625 48.484375 22.1875 42.84375 
Q 18.109375 37.203125 18.109375 27.296875 
Q 18.109375 17.390625 22.1875 11.75 
Q 26.265625 6.109375 33.40625 6.109375 
Q 40.53125 6.109375 44.609375 11.75 
Q 48.6875 17.390625 48.6875 27.296875 
z
" id="DejaVuSans-70"/>
      <path d="M 52 44.1875 
Q 55.375 50.25 60.0625 53.125 
Q 64.75 56 71.09375 56 
Q 79.640625 56 84.28125 50.015625 
Q 88.921875 44.046875 88.921875 33.015625 
L 88.921875 0 
L 79.890625 0 
L 79.890625 32.71875 
Q 79.890625 40.578125 77.09375 44.375 
Q 74.3125 48.1875 68.609375 48.1875 
Q 61.625 48.1875 57.5625 43.546875 
Q 53.515625 38.921875 53.515625 30.90625 
L 53.515625 0 
L 44.484375 0 
L 44.484375 32.71875 
Q 44.484375 40.625 41.703125 44.40625 
Q 38.921875 48.1875 33.109375 48.1875 
Q 26.21875 48.1875 22.15625 43.53125 
Q 18.109375 38.875 18.109375 30.90625 
L 18.109375 0 
L 9.078125 0 
L 9.078125 54.6875 
L 18.109375 54.6875 
L 18.109375 46.1875 
Q 21.1875 51.21875 25.484375 53.609375 
Q 29.78125 56 35.6875 56 
Q 41.65625 56 45.828125 52.96875 
Q 50 49.953125 52 44.1875 
z
" id="DejaVuSans-6d"/>
      <path d="M 9.421875 75.984375 
L 18.40625 75.984375 
L 18.40625 0 
L 9.421875 0 
z
" id="DejaVuSans-6c"/>
     </defs>
     <g style="fill:#262626;" transform="translate(318.352781 56.425969)scale(0.13 -0.13)">
      <use xlink:href="#DejaVuSans-4f"/>
      <use x="78.710938" xlink:href="#DejaVuSans-70"/>
      <use x="142.1875" xlink:href="#DejaVuSans-74"/>
      <use x="181.396484" xlink:href="#DejaVuSans-69"/>
      <use x="209.179688" xlink:href="#DejaVuSans-6d"/>
      <use x="306.591797" xlink:href="#DejaVuSans-61"/>
      <use x="367.871094" xlink:href="#DejaVuSans-6c"/>
     </g>
    </g>
    <g id="line2d_30">
     <path d="M 281.952781 70.957531 
L 307.952781 70.957531 
" style="fill:none;stroke:#2ca02c;stroke-linecap:round;stroke-width:2.275;"/>
    </g>
    <g id="line2d_31"/>
    <g id="text_17">
     <!-- Upper Bound -->
     <defs>
      <path d="M 8.6875 72.90625 
L 18.609375 72.90625 
L 18.609375 28.609375 
Q 18.609375 16.890625 22.84375 11.734375 
Q 27.09375 6.59375 36.625 6.59375 
Q 46.09375 6.59375 50.34375 11.734375 
Q 54.59375 16.890625 54.59375 28.609375 
L 54.59375 72.90625 
L 64.5 72.90625 
L 64.5 27.390625 
Q 64.5 13.140625 57.4375 5.859375 
Q 50.390625 -1.421875 36.625 -1.421875 
Q 22.796875 -1.421875 15.734375 5.859375 
Q 8.6875 13.140625 8.6875 27.390625 
z
" id="DejaVuSans-55"/>
      <path d="M 19.671875 34.8125 
L 19.671875 8.109375 
L 35.5 8.109375 
Q 43.453125 8.109375 47.28125 11.40625 
Q 51.125 14.703125 51.125 21.484375 
Q 51.125 28.328125 47.28125 31.5625 
Q 43.453125 34.8125 35.5 34.8125 
z
M 19.671875 64.796875 
L 19.671875 42.828125 
L 34.28125 42.828125 
Q 41.5 42.828125 45.03125 45.53125 
Q 48.578125 48.25 48.578125 53.8125 
Q 48.578125 59.328125 45.03125 62.0625 
Q 41.5 64.796875 34.28125 64.796875 
z
M 9.8125 72.90625 
L 35.015625 72.90625 
Q 46.296875 72.90625 52.390625 68.21875 
Q 58.5 63.53125 58.5 54.890625 
Q 58.5 48.1875 55.375 44.234375 
Q 52.25 40.28125 46.1875 39.3125 
Q 53.46875 37.75 57.5 32.78125 
Q 61.53125 27.828125 61.53125 20.40625 
Q 61.53125 10.640625 54.890625 5.3125 
Q 48.25 0 35.984375 0 
L 9.8125 0 
z
" id="DejaVuSans-42"/>
      <path d="M 45.40625 46.390625 
L 45.40625 75.984375 
L 54.390625 75.984375 
L 54.390625 0 
L 45.40625 0 
L 45.40625 8.203125 
Q 42.578125 3.328125 38.25 0.953125 
Q 33.9375 -1.421875 27.875 -1.421875 
Q 17.96875 -1.421875 11.734375 6.484375 
Q 5.515625 14.40625 5.515625 27.296875 
Q 5.515625 40.1875 11.734375 48.09375 
Q 17.96875 56 27.875 56 
Q 33.9375 56 38.25 53.625 
Q 42.578125 51.265625 45.40625 46.390625 
z
M 14.796875 27.296875 
Q 14.796875 17.390625 18.875 11.75 
Q 22.953125 6.109375 30.078125 6.109375 
Q 37.203125 6.109375 41.296875 11.75 
Q 45.40625 17.390625 45.40625 27.296875 
Q 45.40625 37.203125 41.296875 42.84375 
Q 37.203125 48.484375 30.078125 48.484375 
Q 22.953125 48.484375 18.875 42.84375 
Q 14.796875 37.203125 14.796875 27.296875 
z
" id="DejaVuSans-64"/>
     </defs>
     <g style="fill:#262626;" transform="translate(318.352781 75.507531)scale(0.13 -0.13)">
      <use xlink:href="#DejaVuSans-55"/>
      <use x="73.193359" xlink:href="#DejaVuSans-70"/>
      <use x="136.669922" xlink:href="#DejaVuSans-70"/>
      <use x="200.146484" xlink:href="#DejaVuSans-65"/>
      <use x="261.669922" xlink:href="#DejaVuSans-72"/>
      <use x="302.783203" xlink:href="#DejaVuSans-20"/>
      <use x="334.570312" xlink:href="#DejaVuSans-42"/>
      <use x="403.173828" xlink:href="#DejaVuSans-6f"/>
      <use x="464.355469" xlink:href="#DejaVuSans-75"/>
      <use x="527.734375" xlink:href="#DejaVuSans-6e"/>
      <use x="591.113281" xlink:href="#DejaVuSans-64"/>
     </g>
    </g>
    <g id="line2d_32">
     <path d="M 281.952781 90.039094 
L 307.952781 90.039094 
" style="fill:none;stroke:#d62728;stroke-linecap:round;stroke-width:2.275;"/>
    </g>
    <g id="line2d_33"/>
    <g id="text_18">
     <!-- Lower Bound -->
     <defs>
      <path d="M 9.8125 72.90625 
L 19.671875 72.90625 
L 19.671875 8.296875 
L 55.171875 8.296875 
L 55.171875 0 
L 9.8125 0 
z
" id="DejaVuSans-4c"/>
      <path d="M 4.203125 54.6875 
L 13.1875 54.6875 
L 24.421875 12.015625 
L 35.59375 54.6875 
L 46.1875 54.6875 
L 57.421875 12.015625 
L 68.609375 54.6875 
L 77.59375 54.6875 
L 63.28125 0 
L 52.6875 0 
L 40.921875 44.828125 
L 29.109375 0 
L 18.5 0 
z
" id="DejaVuSans-77"/>
     </defs>
     <g style="fill:#262626;" transform="translate(318.352781 94.589094)scale(0.13 -0.13)">
      <use xlink:href="#DejaVuSans-4c"/>
      <use x="55.697266" xlink:href="#DejaVuSans-6f"/>
      <use x="116.878906" xlink:href="#DejaVuSans-77"/>
      <use x="198.666016" xlink:href="#DejaVuSans-65"/>
      <use x="260.189453" xlink:href="#DejaVuSans-72"/>
      <use x="301.302734" xlink:href="#DejaVuSans-20"/>
      <use x="333.089844" xlink:href="#DejaVuSans-42"/>
      <use x="401.693359" xlink:href="#DejaVuSans-6f"/>
      <use x="462.875" xlink:href="#DejaVuSans-75"/>
      <use x="526.253906" xlink:href="#DejaVuSans-6e"/>
      <use x="589.632812" xlink:href="#DejaVuSans-64"/>
     </g>
    </g>
   </g>
  </g>
 </g>
 <defs>
  <clipPath id="p44390bcccc">
   <rect height="196.204" width="326.212506" x="88.939494" y="34.848"/>
  </clipPath>
 </defs>
</svg>
