<?xml version="1.0" encoding="utf-8" standalone="no"?>
<!DOCTYPE svg PUBLIC "-//W3C//DTD SVG 1.1//EN"
  "http://www.w3.org/Graphics/SVG/1.1/DTD/svg11.dtd">
<!-- Created with matplotlib (http://matplotlib.org/) -->
<svg height="288pt" version="1.1" viewBox="0 0 432 288" width="432pt" xmlns="http://www.w3.org/2000/svg" xmlns:xlink="http://www.w3.org/1999/xlink">
 <defs>
  <style type="text/css">
*{stroke-linecap:butt;stroke-linejoin:round;}
  </style>
 </defs>
 <g id="figure_1">
  <g id="patch_1">
   <path d="M 0 288 
L 432 288 
L 432 0 
L 0 0 
z
" style="fill:none;"/>
  </g>
  <g id="axes_1">
   <g id="patch_2">
    <path d="M 88.751994 231.052 
L 415.152 231.052 
L 415.152 34.848 
L 88.751994 34.848 
z
" style="fill:none;"/>
   </g>
   <g id="matplotlib.axis_1">
    <g id="xtick_1">
     <g id="line2d_1">
      <path clip-path="url(#p909e44eb4e)" d="M 103.588358 231.052 
L 103.588358 34.848 
" style="fill:none;stroke:#999999;stroke-linecap:round;stroke-width:1.3;"/>
     </g>
     <g id="line2d_2"/>
     <g id="text_1">
      <!-- 0 -->
      <defs>
       <path d="M 31.78125 66.40625 
Q 24.171875 66.40625 20.328125 58.90625 
Q 16.5 51.421875 16.5 36.375 
Q 16.5 21.390625 20.328125 13.890625 
Q 24.171875 6.390625 31.78125 6.390625 
Q 39.453125 6.390625 43.28125 13.890625 
Q 47.125 21.390625 47.125 36.375 
Q 47.125 51.421875 43.28125 58.90625 
Q 39.453125 66.40625 31.78125 66.40625 
z
M 31.78125 74.21875 
Q 44.046875 74.21875 50.515625 64.515625 
Q 56.984375 54.828125 56.984375 36.375 
Q 56.984375 17.96875 50.515625 8.265625 
Q 44.046875 -1.421875 31.78125 -1.421875 
Q 19.53125 -1.421875 13.0625 8.265625 
Q 6.59375 17.96875 6.59375 36.375 
Q 6.59375 54.828125 13.0625 64.515625 
Q 19.53125 74.21875 31.78125 74.21875 
z
" id="DejaVuSans-30"/>
      </defs>
      <g style="fill:#262626;" transform="translate(99.452733 250.029969)scale(0.13 -0.13)">
       <use xlink:href="#DejaVuSans-30"/>
      </g>
     </g>
    </g>
    <g id="xtick_2">
     <g id="line2d_3">
      <path clip-path="url(#p909e44eb4e)" d="M 161.542905 231.052 
L 161.542905 34.848 
" style="fill:none;stroke:#999999;stroke-linecap:round;stroke-width:1.3;"/>
     </g>
     <g id="line2d_4"/>
     <g id="text_2">
      <!-- 100 -->
      <defs>
       <path d="M 12.40625 8.296875 
L 28.515625 8.296875 
L 28.515625 63.921875 
L 10.984375 60.40625 
L 10.984375 69.390625 
L 28.421875 72.90625 
L 38.28125 72.90625 
L 38.28125 8.296875 
L 54.390625 8.296875 
L 54.390625 0 
L 12.40625 0 
z
" id="DejaVuSans-31"/>
      </defs>
      <g style="fill:#262626;" transform="translate(149.13603 250.029969)scale(0.13 -0.13)">
       <use xlink:href="#DejaVuSans-31"/>
       <use x="63.623047" xlink:href="#DejaVuSans-30"/>
       <use x="127.246094" xlink:href="#DejaVuSans-30"/>
      </g>
     </g>
    </g>
    <g id="xtick_3">
     <g id="line2d_5">
      <path clip-path="url(#p909e44eb4e)" d="M 219.497451 231.052 
L 219.497451 34.848 
" style="fill:none;stroke:#999999;stroke-linecap:round;stroke-width:1.3;"/>
     </g>
     <g id="line2d_6"/>
     <g id="text_3">
      <!-- 200 -->
      <defs>
       <path d="M 19.1875 8.296875 
L 53.609375 8.296875 
L 53.609375 0 
L 7.328125 0 
L 7.328125 8.296875 
Q 12.9375 14.109375 22.625 23.890625 
Q 32.328125 33.6875 34.8125 36.53125 
Q 39.546875 41.84375 41.421875 45.53125 
Q 43.3125 49.21875 43.3125 52.78125 
Q 43.3125 58.59375 39.234375 62.25 
Q 35.15625 65.921875 28.609375 65.921875 
Q 23.96875 65.921875 18.8125 64.3125 
Q 13.671875 62.703125 7.8125 59.421875 
L 7.8125 69.390625 
Q 13.765625 71.78125 18.9375 73 
Q 24.125 74.21875 28.421875 74.21875 
Q 39.75 74.21875 46.484375 68.546875 
Q 53.21875 62.890625 53.21875 53.421875 
Q 53.21875 48.921875 51.53125 44.890625 
Q 49.859375 40.875 45.40625 35.40625 
Q 44.1875 33.984375 37.640625 27.21875 
Q 31.109375 20.453125 19.1875 8.296875 
z
" id="DejaVuSans-32"/>
      </defs>
      <g style="fill:#262626;" transform="translate(207.090576 250.029969)scale(0.13 -0.13)">
       <use xlink:href="#DejaVuSans-32"/>
       <use x="63.623047" xlink:href="#DejaVuSans-30"/>
       <use x="127.246094" xlink:href="#DejaVuSans-30"/>
      </g>
     </g>
    </g>
    <g id="xtick_4">
     <g id="line2d_7">
      <path clip-path="url(#p909e44eb4e)" d="M 277.451998 231.052 
L 277.451998 34.848 
" style="fill:none;stroke:#999999;stroke-linecap:round;stroke-width:1.3;"/>
     </g>
     <g id="line2d_8"/>
     <g id="text_4">
      <!-- 300 -->
      <defs>
       <path d="M 40.578125 39.3125 
Q 47.65625 37.796875 51.625 33 
Q 55.609375 28.21875 55.609375 21.1875 
Q 55.609375 10.40625 48.1875 4.484375 
Q 40.765625 -1.421875 27.09375 -1.421875 
Q 22.515625 -1.421875 17.65625 -0.515625 
Q 12.796875 0.390625 7.625 2.203125 
L 7.625 11.71875 
Q 11.71875 9.328125 16.59375 8.109375 
Q 21.484375 6.890625 26.8125 6.890625 
Q 36.078125 6.890625 40.9375 10.546875 
Q 45.796875 14.203125 45.796875 21.1875 
Q 45.796875 27.640625 41.28125 31.265625 
Q 36.765625 34.90625 28.71875 34.90625 
L 20.21875 34.90625 
L 20.21875 43.015625 
L 29.109375 43.015625 
Q 36.375 43.015625 40.234375 45.921875 
Q 44.09375 48.828125 44.09375 54.296875 
Q 44.09375 59.90625 40.109375 62.90625 
Q 36.140625 65.921875 28.71875 65.921875 
Q 24.65625 65.921875 20.015625 65.03125 
Q 15.375 64.15625 9.8125 62.3125 
L 9.8125 71.09375 
Q 15.4375 72.65625 20.34375 73.4375 
Q 25.25 74.21875 29.59375 74.21875 
Q 40.828125 74.21875 47.359375 69.109375 
Q 53.90625 64.015625 53.90625 55.328125 
Q 53.90625 49.265625 50.4375 45.09375 
Q 46.96875 40.921875 40.578125 39.3125 
z
" id="DejaVuSans-33"/>
      </defs>
      <g style="fill:#262626;" transform="translate(265.045123 250.029969)scale(0.13 -0.13)">
       <use xlink:href="#DejaVuSans-33"/>
       <use x="63.623047" xlink:href="#DejaVuSans-30"/>
       <use x="127.246094" xlink:href="#DejaVuSans-30"/>
      </g>
     </g>
    </g>
    <g id="xtick_5">
     <g id="line2d_9">
      <path clip-path="url(#p909e44eb4e)" d="M 335.406544 231.052 
L 335.406544 34.848 
" style="fill:none;stroke:#999999;stroke-linecap:round;stroke-width:1.3;"/>
     </g>
     <g id="line2d_10"/>
     <g id="text_5">
      <!-- 400 -->
      <defs>
       <path d="M 37.796875 64.3125 
L 12.890625 25.390625 
L 37.796875 25.390625 
z
M 35.203125 72.90625 
L 47.609375 72.90625 
L 47.609375 25.390625 
L 58.015625 25.390625 
L 58.015625 17.1875 
L 47.609375 17.1875 
L 47.609375 0 
L 37.796875 0 
L 37.796875 17.1875 
L 4.890625 17.1875 
L 4.890625 26.703125 
z
" id="DejaVuSans-34"/>
      </defs>
      <g style="fill:#262626;" transform="translate(322.999669 250.029969)scale(0.13 -0.13)">
       <use xlink:href="#DejaVuSans-34"/>
       <use x="63.623047" xlink:href="#DejaVuSans-30"/>
       <use x="127.246094" xlink:href="#DejaVuSans-30"/>
      </g>
     </g>
    </g>
    <g id="xtick_6">
     <g id="line2d_11">
      <path clip-path="url(#p909e44eb4e)" d="M 393.361091 231.052 
L 393.361091 34.848 
" style="fill:none;stroke:#999999;stroke-linecap:round;stroke-width:1.3;"/>
     </g>
     <g id="line2d_12"/>
     <g id="text_6">
      <!-- 500 -->
      <defs>
       <path d="M 10.796875 72.90625 
L 49.515625 72.90625 
L 49.515625 64.59375 
L 19.828125 64.59375 
L 19.828125 46.734375 
Q 21.96875 47.46875 24.109375 47.828125 
Q 26.265625 48.1875 28.421875 48.1875 
Q 40.625 48.1875 47.75 41.5 
Q 54.890625 34.8125 54.890625 23.390625 
Q 54.890625 11.625 47.5625 5.09375 
Q 40.234375 -1.421875 26.90625 -1.421875 
Q 22.3125 -1.421875 17.546875 -0.640625 
Q 12.796875 0.140625 7.71875 1.703125 
L 7.71875 11.625 
Q 12.109375 9.234375 16.796875 8.0625 
Q 21.484375 6.890625 26.703125 6.890625 
Q 35.15625 6.890625 40.078125 11.328125 
Q 45.015625 15.765625 45.015625 23.390625 
Q 45.015625 31 40.078125 35.4375 
Q 35.15625 39.890625 26.703125 39.890625 
Q 22.75 39.890625 18.8125 39.015625 
Q 14.890625 38.140625 10.796875 36.28125 
z
" id="DejaVuSans-35"/>
      </defs>
      <g style="fill:#262626;" transform="translate(380.954216 250.029969)scale(0.13 -0.13)">
       <use xlink:href="#DejaVuSans-35"/>
       <use x="63.623047" xlink:href="#DejaVuSans-30"/>
       <use x="127.246094" xlink:href="#DejaVuSans-30"/>
      </g>
     </g>
    </g>
    <g id="text_7">
     <!-- Iteration -->
     <defs>
      <path d="M 9.8125 72.90625 
L 19.671875 72.90625 
L 19.671875 0 
L 9.8125 0 
z
" id="DejaVuSans-49"/>
      <path d="M 18.3125 70.21875 
L 18.3125 54.6875 
L 36.8125 54.6875 
L 36.8125 47.703125 
L 18.3125 47.703125 
L 18.3125 18.015625 
Q 18.3125 11.328125 20.140625 9.421875 
Q 21.96875 7.515625 27.59375 7.515625 
L 36.8125 7.515625 
L 36.8125 0 
L 27.59375 0 
Q 17.1875 0 13.234375 3.875 
Q 9.28125 7.765625 9.28125 18.015625 
L 9.28125 47.703125 
L 2.6875 47.703125 
L 2.6875 54.6875 
L 9.28125 54.6875 
L 9.28125 70.21875 
z
" id="DejaVuSans-74"/>
      <path d="M 56.203125 29.59375 
L 56.203125 25.203125 
L 14.890625 25.203125 
Q 15.484375 15.921875 20.484375 11.0625 
Q 25.484375 6.203125 34.421875 6.203125 
Q 39.59375 6.203125 44.453125 7.46875 
Q 49.3125 8.734375 54.109375 11.28125 
L 54.109375 2.78125 
Q 49.265625 0.734375 44.1875 -0.34375 
Q 39.109375 -1.421875 33.890625 -1.421875 
Q 20.796875 -1.421875 13.15625 6.1875 
Q 5.515625 13.8125 5.515625 26.8125 
Q 5.515625 40.234375 12.765625 48.109375 
Q 20.015625 56 32.328125 56 
Q 43.359375 56 49.78125 48.890625 
Q 56.203125 41.796875 56.203125 29.59375 
z
M 47.21875 32.234375 
Q 47.125 39.59375 43.09375 43.984375 
Q 39.0625 48.390625 32.421875 48.390625 
Q 24.90625 48.390625 20.390625 44.140625 
Q 15.875 39.890625 15.1875 32.171875 
z
" id="DejaVuSans-65"/>
      <path d="M 41.109375 46.296875 
Q 39.59375 47.171875 37.8125 47.578125 
Q 36.03125 48 33.890625 48 
Q 26.265625 48 22.1875 43.046875 
Q 18.109375 38.09375 18.109375 28.8125 
L 18.109375 0 
L 9.078125 0 
L 9.078125 54.6875 
L 18.109375 54.6875 
L 18.109375 46.1875 
Q 20.953125 51.171875 25.484375 53.578125 
Q 30.03125 56 36.53125 56 
Q 37.453125 56 38.578125 55.875 
Q 39.703125 55.765625 41.0625 55.515625 
z
" id="DejaVuSans-72"/>
      <path d="M 34.28125 27.484375 
Q 23.390625 27.484375 19.1875 25 
Q 14.984375 22.515625 14.984375 16.5 
Q 14.984375 11.71875 18.140625 8.90625 
Q 21.296875 6.109375 26.703125 6.109375 
Q 34.1875 6.109375 38.703125 11.40625 
Q 43.21875 16.703125 43.21875 25.484375 
L 43.21875 27.484375 
z
M 52.203125 31.203125 
L 52.203125 0 
L 43.21875 0 
L 43.21875 8.296875 
Q 40.140625 3.328125 35.546875 0.953125 
Q 30.953125 -1.421875 24.3125 -1.421875 
Q 15.921875 -1.421875 10.953125 3.296875 
Q 6 8.015625 6 15.921875 
Q 6 25.140625 12.171875 29.828125 
Q 18.359375 34.515625 30.609375 34.515625 
L 43.21875 34.515625 
L 43.21875 35.40625 
Q 43.21875 41.609375 39.140625 45 
Q 35.0625 48.390625 27.6875 48.390625 
Q 23 48.390625 18.546875 47.265625 
Q 14.109375 46.140625 10.015625 43.890625 
L 10.015625 52.203125 
Q 14.9375 54.109375 19.578125 55.046875 
Q 24.21875 56 28.609375 56 
Q 40.484375 56 46.34375 49.84375 
Q 52.203125 43.703125 52.203125 31.203125 
z
" id="DejaVuSans-61"/>
      <path d="M 9.421875 54.6875 
L 18.40625 54.6875 
L 18.40625 0 
L 9.421875 0 
z
M 9.421875 75.984375 
L 18.40625 75.984375 
L 18.40625 64.59375 
L 9.421875 64.59375 
z
" id="DejaVuSans-69"/>
      <path d="M 30.609375 48.390625 
Q 23.390625 48.390625 19.1875 42.75 
Q 14.984375 37.109375 14.984375 27.296875 
Q 14.984375 17.484375 19.15625 11.84375 
Q 23.34375 6.203125 30.609375 6.203125 
Q 37.796875 6.203125 41.984375 11.859375 
Q 46.1875 17.53125 46.1875 27.296875 
Q 46.1875 37.015625 41.984375 42.703125 
Q 37.796875 48.390625 30.609375 48.390625 
z
M 30.609375 56 
Q 42.328125 56 49.015625 48.375 
Q 55.71875 40.765625 55.71875 27.296875 
Q 55.71875 13.875 49.015625 6.21875 
Q 42.328125 -1.421875 30.609375 -1.421875 
Q 18.84375 -1.421875 12.171875 6.21875 
Q 5.515625 13.875 5.515625 27.296875 
Q 5.515625 40.765625 12.171875 48.375 
Q 18.84375 56 30.609375 56 
z
" id="DejaVuSans-6f"/>
      <path d="M 54.890625 33.015625 
L 54.890625 0 
L 45.90625 0 
L 45.90625 32.71875 
Q 45.90625 40.484375 42.875 44.328125 
Q 39.84375 48.1875 33.796875 48.1875 
Q 26.515625 48.1875 22.3125 43.546875 
Q 18.109375 38.921875 18.109375 30.90625 
L 18.109375 0 
L 9.078125 0 
L 9.078125 54.6875 
L 18.109375 54.6875 
L 18.109375 46.1875 
Q 21.34375 51.125 25.703125 53.5625 
Q 30.078125 56 35.796875 56 
Q 45.21875 56 50.046875 50.171875 
Q 54.890625 44.34375 54.890625 33.015625 
z
" id="DejaVuSans-6e"/>
     </defs>
     <g style="fill:#262626;" transform="translate(221.623708 267.599328)scale(0.143 -0.143)">
      <use xlink:href="#DejaVuSans-49"/>
      <use x="29.492188" xlink:href="#DejaVuSans-74"/>
      <use x="68.701172" xlink:href="#DejaVuSans-65"/>
      <use x="130.224609" xlink:href="#DejaVuSans-72"/>
      <use x="171.337891" xlink:href="#DejaVuSans-61"/>
      <use x="232.617188" xlink:href="#DejaVuSans-74"/>
      <use x="271.826172" xlink:href="#DejaVuSans-69"/>
      <use x="299.609375" xlink:href="#DejaVuSans-6f"/>
      <use x="360.791016" xlink:href="#DejaVuSans-6e"/>
     </g>
    </g>
   </g>
   <g id="matplotlib.axis_2">
    <g id="ytick_1">
     <g id="line2d_13">
      <path clip-path="url(#p909e44eb4e)" d="M 88.751994 203.030091 
L 415.152 203.030091 
" style="fill:none;stroke:#999999;stroke-linecap:round;stroke-width:1.3;"/>
     </g>
     <g id="line2d_14"/>
     <g id="text_8">
      <!-- $\mathdefault{10^{-18}}$ -->
      <defs>
       <path d="M 10.59375 35.5 
L 73.1875 35.5 
L 73.1875 27.203125 
L 10.59375 27.203125 
z
" id="DejaVuSans-2212"/>
       <path d="M 31.78125 34.625 
Q 24.75 34.625 20.71875 30.859375 
Q 16.703125 27.09375 16.703125 20.515625 
Q 16.703125 13.921875 20.71875 10.15625 
Q 24.75 6.390625 31.78125 6.390625 
Q 38.8125 6.390625 42.859375 10.171875 
Q 46.921875 13.96875 46.921875 20.515625 
Q 46.921875 27.09375 42.890625 30.859375 
Q 38.875 34.625 31.78125 34.625 
z
M 21.921875 38.8125 
Q 15.578125 40.375 12.03125 44.71875 
Q 8.5 49.078125 8.5 55.328125 
Q 8.5 64.0625 14.71875 69.140625 
Q 20.953125 74.21875 31.78125 74.21875 
Q 42.671875 74.21875 48.875 69.140625 
Q 55.078125 64.0625 55.078125 55.328125 
Q 55.078125 49.078125 51.53125 44.71875 
Q 48 40.375 41.703125 38.8125 
Q 48.828125 37.15625 52.796875 32.3125 
Q 56.78125 27.484375 56.78125 20.515625 
Q 56.78125 9.90625 50.3125 4.234375 
Q 43.84375 -1.421875 31.78125 -1.421875 
Q 19.734375 -1.421875 13.25 4.234375 
Q 6.78125 9.90625 6.78125 20.515625 
Q 6.78125 27.484375 10.78125 32.3125 
Q 14.796875 37.15625 21.921875 38.8125 
z
M 18.3125 54.390625 
Q 18.3125 48.734375 21.84375 45.5625 
Q 25.390625 42.390625 31.78125 42.390625 
Q 38.140625 42.390625 41.71875 45.5625 
Q 45.3125 48.734375 45.3125 54.390625 
Q 45.3125 60.0625 41.71875 63.234375 
Q 38.140625 66.40625 31.78125 66.40625 
Q 25.390625 66.40625 21.84375 63.234375 
Q 18.3125 60.0625 18.3125 54.390625 
z
" id="DejaVuSans-38"/>
      </defs>
      <g style="fill:#262626;" transform="translate(43.381994 207.969075)scale(0.13 -0.13)">
       <use transform="translate(0 0.765625)" xlink:href="#DejaVuSans-31"/>
       <use transform="translate(63.623047 0.765625)" xlink:href="#DejaVuSans-30"/>
       <use transform="translate(128.203125 39.046875)scale(0.7)" xlink:href="#DejaVuSans-2212"/>
       <use transform="translate(186.855469 39.046875)scale(0.7)" xlink:href="#DejaVuSans-31"/>
       <use transform="translate(231.391602 39.046875)scale(0.7)" xlink:href="#DejaVuSans-38"/>
      </g>
     </g>
    </g>
    <g id="ytick_2">
     <g id="line2d_15">
      <path clip-path="url(#p909e44eb4e)" d="M 88.751994 173.604108 
L 415.152 173.604108 
" style="fill:none;stroke:#999999;stroke-linecap:round;stroke-width:1.3;"/>
     </g>
     <g id="line2d_16"/>
     <g id="text_9">
      <!-- $\mathdefault{10^{-13}}$ -->
      <g style="fill:#262626;" transform="translate(43.381994 178.543092)scale(0.13 -0.13)">
       <use transform="translate(0 0.765625)" xlink:href="#DejaVuSans-31"/>
       <use transform="translate(63.623047 0.765625)" xlink:href="#DejaVuSans-30"/>
       <use transform="translate(128.203125 39.046875)scale(0.7)" xlink:href="#DejaVuSans-2212"/>
       <use transform="translate(186.855469 39.046875)scale(0.7)" xlink:href="#DejaVuSans-31"/>
       <use transform="translate(231.391602 39.046875)scale(0.7)" xlink:href="#DejaVuSans-33"/>
      </g>
     </g>
    </g>
    <g id="ytick_3">
     <g id="line2d_17">
      <path clip-path="url(#p909e44eb4e)" d="M 88.751994 144.178125 
L 415.152 144.178125 
" style="fill:none;stroke:#999999;stroke-linecap:round;stroke-width:1.3;"/>
     </g>
     <g id="line2d_18"/>
     <g id="text_10">
      <!-- $\mathdefault{10^{-8}}$ -->
      <g style="fill:#262626;" transform="translate(49.101994 149.11711)scale(0.13 -0.13)">
       <use transform="translate(0 0.765625)" xlink:href="#DejaVuSans-31"/>
       <use transform="translate(63.623047 0.765625)" xlink:href="#DejaVuSans-30"/>
       <use transform="translate(128.203125 39.046875)scale(0.7)" xlink:href="#DejaVuSans-2212"/>
       <use transform="translate(186.855469 39.046875)scale(0.7)" xlink:href="#DejaVuSans-38"/>
      </g>
     </g>
    </g>
    <g id="ytick_4">
     <g id="line2d_19">
      <path clip-path="url(#p909e44eb4e)" d="M 88.751994 114.752143 
L 415.152 114.752143 
" style="fill:none;stroke:#999999;stroke-linecap:round;stroke-width:1.3;"/>
     </g>
     <g id="line2d_20"/>
     <g id="text_11">
      <!-- $\mathdefault{10^{-3}}$ -->
      <g style="fill:#262626;" transform="translate(49.101994 119.691127)scale(0.13 -0.13)">
       <use transform="translate(0 0.765625)" xlink:href="#DejaVuSans-31"/>
       <use transform="translate(63.623047 0.765625)" xlink:href="#DejaVuSans-30"/>
       <use transform="translate(128.203125 39.046875)scale(0.7)" xlink:href="#DejaVuSans-2212"/>
       <use transform="translate(186.855469 39.046875)scale(0.7)" xlink:href="#DejaVuSans-33"/>
      </g>
     </g>
    </g>
    <g id="ytick_5">
     <g id="line2d_21">
      <path clip-path="url(#p909e44eb4e)" d="M 88.751994 85.32616 
L 415.152 85.32616 
" style="fill:none;stroke:#999999;stroke-linecap:round;stroke-width:1.3;"/>
     </g>
     <g id="line2d_22"/>
     <g id="text_12">
      <!-- $\mathdefault{10^{2}}$ -->
      <g style="fill:#262626;" transform="translate(56.771994 90.265145)scale(0.13 -0.13)">
       <use transform="translate(0 0.765625)" xlink:href="#DejaVuSans-31"/>
       <use transform="translate(63.623047 0.765625)" xlink:href="#DejaVuSans-30"/>
       <use transform="translate(128.203125 39.046875)scale(0.7)" xlink:href="#DejaVuSans-32"/>
      </g>
     </g>
    </g>
    <g id="ytick_6">
     <g id="line2d_23">
      <path clip-path="url(#p909e44eb4e)" d="M 88.751994 55.900178 
L 415.152 55.900178 
" style="fill:none;stroke:#999999;stroke-linecap:round;stroke-width:1.3;"/>
     </g>
     <g id="line2d_24"/>
     <g id="text_13">
      <!-- $\mathdefault{10^{7}}$ -->
      <defs>
       <path d="M 8.203125 72.90625 
L 55.078125 72.90625 
L 55.078125 68.703125 
L 28.609375 0 
L 18.3125 0 
L 43.21875 64.59375 
L 8.203125 64.59375 
z
" id="DejaVuSans-37"/>
      </defs>
      <g style="fill:#262626;" transform="translate(56.771994 60.839162)scale(0.13 -0.13)">
       <use transform="translate(0 0.684375)" xlink:href="#DejaVuSans-31"/>
       <use transform="translate(63.623047 0.684375)" xlink:href="#DejaVuSans-30"/>
       <use transform="translate(128.203125 38.965625)scale(0.7)" xlink:href="#DejaVuSans-37"/>
      </g>
     </g>
    </g>
    <g id="text_14">
     <!-- $\|\| x_k - x^* \|\|^2$ -->
     <defs>
      <path d="M 21 76.421875 
L 21 -23.578125 
L 12.703125 -23.578125 
L 12.703125 76.421875 
z
" id="DejaVuSans-7c"/>
      <path d="M 60.015625 54.6875 
L 34.90625 27.875 
L 50.296875 0 
L 39.984375 0 
L 28.421875 21.6875 
L 8.296875 0 
L -2.59375 0 
L 24.3125 28.8125 
L 10.015625 54.6875 
L 20.3125 54.6875 
L 30.8125 34.90625 
L 49.125 54.6875 
z
" id="DejaVuSans-Oblique-78"/>
      <path d="M 18.3125 75.984375 
L 27.296875 75.984375 
L 18.703125 31.6875 
L 49.515625 54.6875 
L 61.1875 54.6875 
L 26.8125 28.515625 
L 51.90625 0 
L 41.015625 0 
L 17.671875 26.703125 
L 12.5 0 
L 3.515625 0 
z
" id="DejaVuSans-Oblique-6b"/>
      <path d="M 47.015625 60.890625 
L 29.5 51.421875 
L 47.015625 41.890625 
L 44.1875 37.109375 
L 27.78125 47.015625 
L 27.78125 28.609375 
L 22.21875 28.609375 
L 22.21875 47.015625 
L 5.8125 37.109375 
L 2.984375 41.890625 
L 20.515625 51.421875 
L 2.984375 60.890625 
L 5.8125 65.71875 
L 22.21875 55.8125 
L 22.21875 74.21875 
L 27.78125 74.21875 
L 27.78125 55.8125 
L 44.1875 65.71875 
z
" id="DejaVuSans-2a"/>
     </defs>
     <g style="fill:#262626;" transform="translate(35.949994 171.3455)rotate(-90)scale(0.143 -0.143)">
      <use transform="translate(0 0.765625)" xlink:href="#DejaVuSans-7c"/>
      <use transform="translate(33.691406 0.765625)" xlink:href="#DejaVuSans-7c"/>
      <use transform="translate(67.382812 0.765625)" xlink:href="#DejaVuSans-Oblique-78"/>
      <use transform="translate(126.5625 -15.640625)scale(0.7)" xlink:href="#DejaVuSans-Oblique-6b"/>
      <use transform="translate(189.316406 0.765625)" xlink:href="#DejaVuSans-2212"/>
      <use transform="translate(292.587891 0.765625)" xlink:href="#DejaVuSans-Oblique-78"/>
      <use transform="translate(369.871419 39.046875)scale(0.7)" xlink:href="#DejaVuSans-2a"/>
      <use transform="translate(421.24349 0.765625)" xlink:href="#DejaVuSans-7c"/>
      <use transform="translate(454.934896 0.765625)" xlink:href="#DejaVuSans-7c"/>
      <use transform="translate(489.583333 39.046875)scale(0.7)" xlink:href="#DejaVuSans-32"/>
     </g>
    </g>
   </g>
   <g id="PolyCollection_1">
    <defs>
     <path d="M 103.588358 -243.433283 
L 103.588358 -243.433283 
L 104.167904 -243.4356 
L 104.747449 -243.408132 
L 105.326994 -243.357747 
L 105.90654 -243.273411 
L 106.486085 -243.169327 
L 107.065631 -243.03916 
L 107.645176 -242.863035 
L 108.224722 -242.741298 
L 108.804267 -242.55556 
L 109.383813 -242.35447 
L 109.963358 -242.222745 
L 110.542904 -242.051954 
L 111.122449 -241.821502 
L 111.701995 -241.654515 
L 112.28154 -241.541239 
L 112.861085 -241.319303 
L 113.440631 -241.091879 
L 114.020176 -240.95309 
L 114.599722 -240.780491 
L 115.179267 -240.587764 
L 115.758813 -240.330206 
L 116.338358 -240.07821 
L 116.917904 -239.886145 
L 117.497449 -239.691391 
L 118.076995 -239.429978 
L 118.65654 -239.241872 
L 119.236086 -239.057596 
L 119.815631 -238.790993 
L 120.395177 -238.643667 
L 120.974722 -238.450315 
L 121.554267 -238.231525 
L 122.133813 -237.965241 
L 122.713358 -237.658764 
L 123.292904 -237.421393 
L 123.872449 -237.159506 
L 124.451995 -237.015988 
L 125.03154 -236.836901 
L 125.611086 -236.692566 
L 126.190631 -236.437396 
L 126.770177 -236.213111 
L 127.349722 -235.896801 
L 127.929268 -235.600899 
L 128.508813 -235.397564 
L 129.088359 -235.168532 
L 129.667904 -234.972067 
L 130.247449 -234.659541 
L 130.826995 -234.504028 
L 131.40654 -234.221328 
L 131.986086 -234.121152 
L 132.565631 -233.921569 
L 133.145177 -233.706233 
L 133.724722 -233.392864 
L 134.304268 -233.197658 
L 134.883813 -232.957517 
L 135.463359 -232.750546 
L 136.042904 -232.459382 
L 136.62245 -232.269627 
L 137.201995 -231.970976 
L 137.78154 -231.738442 
L 138.361086 -231.485042 
L 138.940631 -231.226651 
L 139.520177 -230.999148 
L 140.099722 -230.789004 
L 140.679268 -230.627958 
L 141.258813 -230.320385 
L 141.838359 -229.886217 
L 142.417904 -229.701136 
L 142.99745 -229.501671 
L 143.576995 -229.337903 
L 144.156541 -229.222005 
L 144.736086 -228.999503 
L 145.315632 -228.662658 
L 145.895177 -228.420339 
L 146.474722 -228.240347 
L 147.054268 -227.946504 
L 147.633813 -227.706183 
L 148.213359 -227.544432 
L 148.792904 -227.377315 
L 149.37245 -227.012517 
L 149.951995 -226.830322 
L 150.531541 -226.673305 
L 151.111086 -226.289491 
L 151.690632 -225.961395 
L 152.270177 -225.941511 
L 152.849723 -225.774824 
L 153.429268 -225.613989 
L 154.008813 -225.58279 
L 154.588359 -225.156605 
L 155.167904 -224.883637 
L 155.74745 -224.546071 
L 156.326995 -224.056179 
L 156.906541 -223.911092 
L 157.486086 -223.64043 
L 158.065632 -223.444083 
L 158.645177 -223.184015 
L 159.224723 -223.093044 
L 159.804268 -222.841372 
L 160.383814 -222.606445 
L 160.963359 -222.363129 
L 161.542905 -222.245341 
L 162.12245 -221.933749 
L 162.701995 -221.796797 
L 163.281541 -221.631094 
L 163.861086 -221.334426 
L 164.440632 -221.103242 
L 165.020177 -220.819719 
L 165.599723 -220.569339 
L 166.179268 -220.326614 
L 166.758814 -220.069341 
L 167.338359 -219.737882 
L 167.917905 -219.518813 
L 168.49745 -219.124256 
L 169.076996 -218.886683 
L 169.656541 -218.70442 
L 170.236087 -218.450533 
L 170.815632 -218.346837 
L 171.395177 -217.949836 
L 171.974723 -217.601214 
L 172.554268 -217.33531 
L 173.133814 -217.168207 
L 173.713359 -216.960875 
L 174.292905 -216.686163 
L 174.87245 -216.554189 
L 175.451996 -216.171182 
L 176.031541 -215.971276 
L 176.611087 -215.705602 
L 177.190632 -215.54646 
L 177.770178 -215.235384 
L 178.349723 -215.124955 
L 178.929268 -214.87391 
L 179.508814 -214.600799 
L 180.088359 -214.37894 
L 180.667905 -214.062403 
L 181.24745 -213.753222 
L 181.826996 -213.451249 
L 182.406541 -213.115218 
L 182.986087 -212.988155 
L 183.565632 -212.558599 
L 184.145178 -212.275945 
L 184.724723 -211.930471 
L 185.304269 -211.706552 
L 185.883814 -211.54641 
L 186.46336 -211.501738 
L 187.042905 -211.366346 
L 187.62245 -210.878515 
L 188.201996 -210.667434 
L 188.781541 -210.422927 
L 189.361087 -210.303319 
L 189.940632 -209.943553 
L 190.520178 -209.739326 
L 191.099723 -209.375707 
L 191.679269 -209.0879 
L 192.258814 -208.833289 
L 192.83836 -208.700356 
L 193.417905 -208.485102 
L 193.997451 -208.162213 
L 194.576996 -207.936868 
L 195.156542 -207.525992 
L 195.736087 -207.383684 
L 196.315632 -207.24417 
L 196.895178 -207.10835 
L 197.474723 -206.787258 
L 198.054269 -206.475963 
L 198.633814 -206.180614 
L 199.21336 -206.141962 
L 199.792905 -205.707229 
L 200.372451 -205.515222 
L 200.951996 -205.248355 
L 201.531542 -205.136672 
L 202.111087 -204.877609 
L 202.690633 -204.826047 
L 203.270178 -204.537145 
L 203.849723 -203.946503 
L 204.429269 -203.495166 
L 205.008814 -203.44097 
L 205.58836 -203.185661 
L 206.167905 -202.902043 
L 206.747451 -202.745841 
L 207.326996 -202.364956 
L 207.906542 -202.3508 
L 208.486087 -201.940691 
L 209.065633 -201.537072 
L 209.645178 -201.433062 
L 210.224724 -200.954675 
L 210.804269 -200.53445 
L 211.383815 -200.450793 
L 211.96336 -200.042224 
L 212.542905 -199.851049 
L 213.122451 -199.749686 
L 213.701996 -199.713223 
L 214.281542 -199.284847 
L 214.861087 -199.010717 
L 215.440633 -198.76309 
L 216.020178 -198.671651 
L 216.599724 -198.501971 
L 217.179269 -198.334176 
L 217.758815 -197.753596 
L 218.33836 -197.360239 
L 218.917906 -197.144928 
L 219.497451 -196.521931 
L 220.076996 -196.403696 
L 220.656542 -195.782105 
L 221.236087 -195.747668 
L 221.815633 -195.495776 
L 222.395178 -195.399666 
L 222.974724 -195.116366 
L 223.554269 -195.035304 
L 224.133815 -194.784779 
L 224.71336 -194.484138 
L 225.292906 -194.312837 
L 225.872451 -194.209403 
L 226.451997 -193.935906 
L 227.031542 -193.434723 
L 227.611088 -193.199499 
L 228.190633 -192.903631 
L 228.770178 -192.745677 
L 229.349724 -192.373304 
L 229.929269 -192.266127 
L 230.508815 -191.936651 
L 231.08836 -191.575761 
L 231.667906 -191.263781 
L 232.247451 -191.104693 
L 232.826997 -190.755474 
L 233.406542 -190.498964 
L 233.986088 -190.051596 
L 234.565633 -189.927422 
L 235.145179 -189.581231 
L 235.724724 -189.370165 
L 236.30427 -189.011446 
L 236.883815 -188.802427 
L 237.46336 -188.766183 
L 238.042906 -188.291415 
L 238.622451 -188.125792 
L 239.201997 -187.81804 
L 239.781542 -187.346579 
L 240.361088 -187.109954 
L 240.940633 -186.903234 
L 241.520179 -186.782018 
L 242.099724 -186.519329 
L 242.67927 -186.208892 
L 243.258815 -186.033375 
L 243.838361 -185.787425 
L 244.417906 -185.555503 
L 244.997451 -185.186767 
L 245.576997 -184.993442 
L 246.156542 -184.717015 
L 246.736088 -184.466953 
L 247.315633 -184.100463 
L 247.895179 -183.800819 
L 248.474724 -183.648361 
L 249.05427 -183.468844 
L 249.633815 -183.214728 
L 250.213361 -183.1081 
L 250.792906 -182.790909 
L 251.372452 -182.454199 
L 251.951997 -182.302089 
L 252.531543 -182.122293 
L 253.111088 -181.717363 
L 253.690633 -181.369416 
L 254.270179 -181.310268 
L 254.849724 -180.929569 
L 255.42927 -180.851285 
L 256.008815 -180.466198 
L 256.588361 -180.172734 
L 257.167906 -179.84008 
L 257.747452 -179.660563 
L 258.326997 -179.549782 
L 258.906543 -179.420505 
L 259.486088 -179.060504 
L 260.065634 -178.879463 
L 260.645179 -178.61562 
L 261.224725 -178.30776 
L 261.80427 -178.130209 
L 262.383815 -177.784521 
L 262.963361 -177.648697 
L 263.542906 -177.400421 
L 264.122452 -176.9499 
L 264.701997 -176.549558 
L 265.281543 -176.393081 
L 265.861088 -175.757415 
L 266.440634 -175.576895 
L 267.020179 -175.529076 
L 267.599725 -175.244696 
L 268.17927 -174.883566 
L 268.758816 -174.494117 
L 269.338361 -174.386236 
L 269.917906 -174.024057 
L 270.497452 -173.878353 
L 271.076997 -173.504177 
L 271.656543 -173.22514 
L 272.236088 -172.927644 
L 272.815634 -172.833642 
L 273.395179 -172.426769 
L 273.974725 -172.177268 
L 274.55427 -172.026517 
L 275.133816 -171.816166 
L 275.713361 -171.695685 
L 276.292907 -171.387472 
L 276.872452 -171.230093 
L 277.451998 -171.134593 
L 278.031543 -170.860465 
L 278.611088 -170.585264 
L 279.190634 -170.233289 
L 279.770179 -169.960916 
L 280.349725 -169.763827 
L 280.92927 -169.480504 
L 281.508816 -169.096878 
L 282.088361 -168.914855 
L 282.667907 -168.844752 
L 283.247452 -168.411441 
L 283.826998 -168.174364 
L 284.406543 -167.936583 
L 284.986089 -167.440562 
L 285.565634 -167.282484 
L 286.14518 -166.734243 
L 286.724725 -166.341276 
L 287.30427 -165.957183 
L 287.883816 -165.727823 
L 288.463361 -165.577609 
L 289.042907 -165.189811 
L 289.622452 -165.122869 
L 290.201998 -165.044503 
L 290.781543 -164.628835 
L 291.361089 -164.403901 
L 291.940634 -164.27036 
L 292.52018 -163.960802 
L 293.099725 -163.884969 
L 293.679271 -163.573671 
L 294.258816 -163.510897 
L 294.838361 -163.426867 
L 295.417907 -163.105276 
L 295.997452 -162.873821 
L 296.576998 -162.429827 
L 297.156543 -162.003757 
L 297.736089 -161.58082 
L 298.315634 -161.413755 
L 298.89518 -161.190138 
L 299.474725 -161.148653 
L 300.054271 -160.931204 
L 300.633816 -160.789581 
L 301.213362 -160.358749 
L 301.792907 -160.090273 
L 302.372453 -159.790871 
L 302.951998 -159.530597 
L 303.531543 -159.069911 
L 304.111089 -158.96231 
L 304.690634 -158.711747 
L 305.27018 -158.243035 
L 305.849725 -157.953059 
L 306.429271 -157.680389 
L 307.008816 -157.503086 
L 307.588362 -157.388206 
L 308.167907 -156.991837 
L 308.747453 -156.953799 
L 309.326998 -156.752688 
L 309.906544 -156.563875 
L 310.486089 -156.076409 
L 311.065634 -155.794024 
L 311.64518 -155.739331 
L 312.224725 -155.293356 
L 312.804271 -155.088009 
L 313.383816 -154.840109 
L 313.963362 -154.283788 
L 314.542907 -153.992342 
L 315.122453 -153.857045 
L 315.701998 -153.6266 
L 316.281544 -153.312082 
L 316.861089 -153.206468 
L 317.440635 -152.971822 
L 318.02018 -152.859985 
L 318.599726 -152.594502 
L 319.179271 -152.295134 
L 319.758816 -151.99214 
L 320.338362 -151.587492 
L 320.917907 -151.426077 
L 321.497453 -151.083287 
L 322.076998 -150.993673 
L 322.656544 -150.533193 
L 323.236089 -150.375804 
L 323.815635 -149.995142 
L 324.39518 -149.938196 
L 324.974726 -149.723906 
L 325.554271 -149.350689 
L 326.133817 -148.97935 
L 326.713362 -148.796215 
L 327.292908 -148.444406 
L 327.872453 -148.132366 
L 328.451998 -148.019807 
L 329.031544 -147.787021 
L 329.611089 -147.547196 
L 330.190635 -147.391379 
L 330.77018 -147.052445 
L 331.349726 -146.880705 
L 331.929271 -146.400168 
L 332.508817 -146.161839 
L 333.088362 -146.037446 
L 333.667908 -145.733869 
L 334.247453 -145.452907 
L 334.826999 -145.197801 
L 335.406544 -144.794535 
L 335.986089 -144.515637 
L 336.565635 -144.253668 
L 337.14518 -144.023849 
L 337.724726 -143.766031 
L 338.304271 -143.571016 
L 338.883817 -143.226397 
L 339.463362 -142.912085 
L 340.042908 -142.666418 
L 340.622453 -142.508836 
L 341.201999 -142.253887 
L 341.781544 -141.968793 
L 342.36109 -141.571149 
L 342.940635 -141.337912 
L 343.520181 -141.12392 
L 344.099726 -140.812809 
L 344.679271 -140.578849 
L 345.258817 -140.482668 
L 345.838362 -139.956656 
L 346.417908 -139.856207 
L 346.997453 -139.605867 
L 347.576999 -139.585418 
L 348.156544 -139.09481 
L 348.73609 -138.939751 
L 349.315635 -138.65503 
L 349.895181 -138.40872 
L 350.474726 -138.209164 
L 351.054272 -138.012984 
L 351.633817 -137.788528 
L 352.213363 -137.455649 
L 352.792908 -137.080544 
L 353.372453 -136.790953 
L 353.951999 -136.667446 
L 354.531544 -136.246511 
L 355.11109 -135.917328 
L 355.690635 -135.741114 
L 356.270181 -135.312496 
L 356.849726 -135.148625 
L 357.429272 -134.6926 
L 358.008817 -134.480872 
L 358.588363 -134.21532 
L 359.167908 -134.052752 
L 359.747454 -133.635216 
L 360.326999 -133.475815 
L 360.906544 -133.252868 
L 361.48609 -132.76638 
L 362.065635 -132.605974 
L 362.645181 -132.206837 
L 363.224726 -132.008073 
L 363.804272 -131.59418 
L 364.383817 -131.299779 
L 364.963363 -131.086315 
L 365.542908 -131.067518 
L 366.122454 -130.805321 
L 366.701999 -130.41637 
L 367.281545 -130.345025 
L 367.86109 -129.774158 
L 368.440636 -129.635714 
L 369.020181 -129.082461 
L 369.599726 -128.967832 
L 370.179272 -128.711782 
L 370.758817 -128.381274 
L 371.338363 -128.23307 
L 371.917908 -128.214964 
L 372.497454 -128.114001 
L 373.076999 -127.834984 
L 373.656545 -127.065794 
L 374.23609 -126.960309 
L 374.815636 -126.649254 
L 375.395181 -126.402959 
L 375.974727 -125.941133 
L 376.554272 -125.644286 
L 377.133817 -125.490187 
L 377.713363 -125.262066 
L 378.292908 -124.98764 
L 378.872454 -124.697791 
L 379.451999 -124.529989 
L 380.031545 -123.991314 
L 380.61109 -123.65933 
L 381.190636 -123.495974 
L 381.770181 -123.418028 
L 382.349727 -123.31281 
L 382.929272 -122.868956 
L 383.508818 -122.448634 
L 384.088363 -122.350161 
L 384.667909 -122.120021 
L 385.247454 -121.703886 
L 385.826999 -121.585881 
L 386.406545 -121.385047 
L 386.98609 -121.351799 
L 387.565636 -121.17125 
L 388.145181 -120.791251 
L 388.724727 -120.651783 
L 389.304272 -120.611906 
L 389.883818 -120.214911 
L 390.463363 -119.982342 
L 391.042909 -119.973057 
L 391.622454 -119.348131 
L 392.202 -118.981966 
L 392.781545 -118.936169 
L 393.361091 -118.472289 
L 393.940636 -118.452129 
L 394.520181 -117.778453 
L 395.099727 -117.778351 
L 395.679272 -117.608968 
L 396.258818 -116.892619 
L 396.838363 -116.58189 
L 397.417909 -116.550693 
L 397.997454 -116.400344 
L 398.577 -116.161675 
L 399.156545 -116.121153 
L 399.736091 -115.868187 
L 400.315636 -115.262509 
L 400.315636 -81.206445 
L 400.315636 -81.206445 
L 399.736091 -81.486334 
L 399.156545 -81.899626 
L 398.577 -82.030718 
L 397.997454 -82.184329 
L 397.417909 -82.33121 
L 396.838363 -82.61516 
L 396.258818 -82.799115 
L 395.679272 -83.10879 
L 395.099727 -83.359396 
L 394.520181 -83.705885 
L 393.940636 -84.110613 
L 393.361091 -84.280578 
L 392.781545 -84.33311 
L 392.202 -84.824692 
L 391.622454 -85.112406 
L 391.042909 -85.452939 
L 390.463363 -85.973827 
L 389.883818 -86.048104 
L 389.304272 -86.450551 
L 388.724727 -86.61297 
L 388.145181 -86.813778 
L 387.565636 -87.036049 
L 386.98609 -87.229135 
L 386.406545 -87.919391 
L 385.826999 -88.356232 
L 385.247454 -88.691359 
L 384.667909 -89.220257 
L 384.088363 -89.431976 
L 383.508818 -89.754381 
L 382.929272 -90.050874 
L 382.349727 -90.37537 
L 381.770181 -90.678236 
L 381.190636 -91.239609 
L 380.61109 -91.682012 
L 380.031545 -91.850736 
L 379.451999 -92.219459 
L 378.872454 -92.487046 
L 378.292908 -92.769009 
L 377.713363 -93.09279 
L 377.133817 -93.331313 
L 376.554272 -93.845214 
L 375.974727 -93.853355 
L 375.395181 -93.969832 
L 374.815636 -94.545923 
L 374.23609 -94.569741 
L 373.656545 -94.569724 
L 373.076999 -95.156033 
L 372.497454 -95.6274 
L 371.917908 -96.485334 
L 371.338363 -96.567603 
L 370.758817 -96.630373 
L 370.179272 -96.913254 
L 369.599726 -97.349744 
L 369.020181 -97.428117 
L 368.440636 -97.771255 
L 367.86109 -97.917063 
L 367.281545 -98.511466 
L 366.701999 -98.647695 
L 366.122454 -98.882067 
L 365.542908 -99.157659 
L 364.963363 -99.498545 
L 364.383817 -99.761624 
L 363.804272 -100.313243 
L 363.224726 -100.70881 
L 362.645181 -100.796167 
L 362.065635 -101.143161 
L 361.48609 -101.561168 
L 360.906544 -101.81598 
L 360.326999 -101.917371 
L 359.747454 -102.409576 
L 359.167908 -102.663832 
L 358.588363 -102.984037 
L 358.008817 -103.107705 
L 357.429272 -103.536448 
L 356.849726 -103.658067 
L 356.270181 -104.087306 
L 355.690635 -104.441261 
L 355.11109 -104.838788 
L 354.531544 -104.917065 
L 353.951999 -104.953954 
L 353.372453 -105.254604 
L 352.792908 -105.615836 
L 352.213363 -105.763104 
L 351.633817 -106.039177 
L 351.054272 -106.579702 
L 350.474726 -106.763519 
L 349.895181 -107.527506 
L 349.315635 -107.68636 
L 348.73609 -108.224028 
L 348.156544 -108.456553 
L 347.576999 -108.726856 
L 346.997453 -108.924584 
L 346.417908 -109.382752 
L 345.838362 -109.490846 
L 345.258817 -109.738023 
L 344.679271 -109.965557 
L 344.099726 -110.283507 
L 343.520181 -110.479454 
L 342.940635 -110.957597 
L 342.36109 -111.250388 
L 341.781544 -111.690592 
L 341.201999 -112.137482 
L 340.622453 -112.513399 
L 340.042908 -112.873149 
L 339.463362 -113.33599 
L 338.883817 -113.615631 
L 338.304271 -113.655642 
L 337.724726 -113.785317 
L 337.14518 -114.2051 
L 336.565635 -114.71572 
L 335.986089 -115.099302 
L 335.406544 -115.395215 
L 334.826999 -115.603189 
L 334.247453 -115.993203 
L 333.667908 -116.295353 
L 333.088362 -116.540691 
L 332.508817 -116.879364 
L 331.929271 -117.463742 
L 331.349726 -117.613303 
L 330.77018 -117.779279 
L 330.190635 -117.940653 
L 329.611089 -118.063408 
L 329.031544 -118.681661 
L 328.451998 -118.82978 
L 327.872453 -118.862548 
L 327.292908 -119.021034 
L 326.713362 -119.242671 
L 326.133817 -119.674538 
L 325.554271 -120.229132 
L 324.974726 -120.275411 
L 324.39518 -120.558346 
L 323.815635 -120.94535 
L 323.236089 -121.263002 
L 322.656544 -121.423009 
L 322.076998 -121.837905 
L 321.497453 -122.297554 
L 320.917907 -122.464115 
L 320.338362 -122.874603 
L 319.758816 -123.160934 
L 319.179271 -123.498135 
L 318.599726 -123.809266 
L 318.02018 -124.424556 
L 317.440635 -124.753982 
L 316.861089 -124.895822 
L 316.281544 -125.167703 
L 315.701998 -125.303924 
L 315.122453 -125.47268 
L 314.542907 -125.808162 
L 313.963362 -126.17644 
L 313.383816 -126.333923 
L 312.804271 -126.67698 
L 312.224725 -126.889051 
L 311.64518 -127.594582 
L 311.065634 -127.767913 
L 310.486089 -127.970953 
L 309.906544 -128.284402 
L 309.326998 -128.459892 
L 308.747453 -128.688934 
L 308.167907 -128.91395 
L 307.588362 -129.279537 
L 307.008816 -129.758819 
L 306.429271 -130.289215 
L 305.849725 -130.324596 
L 305.27018 -130.474628 
L 304.690634 -130.882107 
L 304.111089 -131.407893 
L 303.531543 -131.690018 
L 302.951998 -131.780718 
L 302.372453 -132.238485 
L 301.792907 -132.474807 
L 301.213362 -132.88219 
L 300.633816 -133.050487 
L 300.054271 -133.380079 
L 299.474725 -133.484746 
L 298.89518 -133.699187 
L 298.315634 -134.128177 
L 297.736089 -134.644268 
L 297.156543 -134.840227 
L 296.576998 -135.152681 
L 295.997452 -135.545816 
L 295.417907 -135.875619 
L 294.838361 -136.078455 
L 294.258816 -136.476603 
L 293.679271 -136.670471 
L 293.099725 -137.100364 
L 292.52018 -137.352019 
L 291.940634 -137.709852 
L 291.361089 -137.981788 
L 290.781543 -138.113172 
L 290.201998 -138.454536 
L 289.622452 -138.703987 
L 289.042907 -139.314183 
L 288.463361 -139.452551 
L 287.883816 -139.612321 
L 287.30427 -139.926845 
L 286.724725 -140.171551 
L 286.14518 -140.526464 
L 285.565634 -140.728657 
L 284.986089 -141.19644 
L 284.406543 -141.480348 
L 283.826998 -141.807817 
L 283.247452 -142.10223 
L 282.667907 -142.542198 
L 282.088361 -142.811846 
L 281.508816 -142.964046 
L 280.92927 -143.167094 
L 280.349725 -143.848778 
L 279.770179 -144.124846 
L 279.190634 -144.72045 
L 278.611088 -145.000984 
L 278.031543 -145.380826 
L 277.451998 -145.892624 
L 276.872452 -146.126582 
L 276.292907 -146.443425 
L 275.713361 -146.743754 
L 275.133816 -146.857551 
L 274.55427 -147.296552 
L 273.974725 -147.691927 
L 273.395179 -147.904409 
L 272.815634 -148.204261 
L 272.236088 -148.618722 
L 271.656543 -148.872781 
L 271.076997 -149.138162 
L 270.497452 -149.510197 
L 269.917906 -149.821891 
L 269.338361 -150.080159 
L 268.758816 -150.358758 
L 268.17927 -150.800423 
L 267.599725 -151.140216 
L 267.020179 -151.290484 
L 266.440634 -151.551287 
L 265.861088 -151.777951 
L 265.281543 -152.114521 
L 264.701997 -152.407142 
L 264.122452 -152.770369 
L 263.542906 -152.874097 
L 262.963361 -153.272368 
L 262.383815 -153.450259 
L 261.80427 -153.932896 
L 261.224725 -154.041202 
L 260.645179 -154.232368 
L 260.065634 -154.362262 
L 259.486088 -154.761769 
L 258.906543 -154.959447 
L 258.326997 -155.205684 
L 257.747452 -155.808241 
L 257.167906 -155.976253 
L 256.588361 -156.447875 
L 256.008815 -156.633997 
L 255.42927 -157.083832 
L 254.849724 -157.213301 
L 254.270179 -157.323302 
L 253.690633 -157.740752 
L 253.111088 -158.164535 
L 252.531543 -158.350224 
L 251.951997 -158.812518 
L 251.372452 -158.93888 
L 250.792906 -159.095675 
L 250.213361 -159.621091 
L 249.633815 -160.083051 
L 249.05427 -160.261058 
L 248.474724 -160.520155 
L 247.895179 -161.031018 
L 247.315633 -161.219786 
L 246.736088 -161.486753 
L 246.156542 -161.819679 
L 245.576997 -162.057012 
L 244.997451 -162.228338 
L 244.417906 -162.664444 
L 243.838361 -162.943636 
L 243.258815 -163.185903 
L 242.67927 -163.33424 
L 242.099724 -163.678697 
L 241.520179 -164.091154 
L 240.940633 -164.553227 
L 240.361088 -164.756082 
L 239.781542 -165.170486 
L 239.201997 -165.377131 
L 238.622451 -165.472801 
L 238.042906 -165.881603 
L 237.46336 -166.169585 
L 236.883815 -166.445919 
L 236.30427 -166.663713 
L 235.724724 -166.921551 
L 235.145179 -167.477537 
L 234.565633 -167.620222 
L 233.986088 -167.846939 
L 233.406542 -168.255149 
L 232.826997 -168.411836 
L 232.247451 -168.917532 
L 231.667906 -169.268237 
L 231.08836 -169.564247 
L 230.508815 -169.78529 
L 229.929269 -170.194718 
L 229.349724 -170.345777 
L 228.770178 -170.698779 
L 228.190633 -170.993635 
L 227.611088 -171.446748 
L 227.031542 -171.784711 
L 226.451997 -171.902969 
L 225.872451 -172.280894 
L 225.292906 -172.49013 
L 224.71336 -172.784911 
L 224.133815 -173.117889 
L 223.554269 -173.270906 
L 222.974724 -173.71881 
L 222.395178 -173.908392 
L 221.815633 -174.712401 
L 221.236087 -174.950443 
L 220.656542 -175.158207 
L 220.076996 -175.352994 
L 219.497451 -175.647554 
L 218.917906 -175.864551 
L 218.33836 -176.165139 
L 217.758815 -176.295643 
L 217.179269 -176.558282 
L 216.599724 -177.029207 
L 216.020178 -177.11708 
L 215.440633 -177.701855 
L 214.861087 -178.058853 
L 214.281542 -178.434054 
L 213.701996 -178.459372 
L 213.122451 -178.861429 
L 212.542905 -178.964133 
L 211.96336 -179.209012 
L 211.383815 -179.504274 
L 210.804269 -179.899547 
L 210.224724 -180.16365 
L 209.645178 -180.750979 
L 209.065633 -180.96079 
L 208.486087 -181.55775 
L 207.906542 -181.733153 
L 207.326996 -182.10507 
L 206.747451 -182.226762 
L 206.167905 -182.635571 
L 205.58836 -183.245769 
L 205.008814 -183.95561 
L 204.429269 -184.264452 
L 203.849723 -184.468388 
L 203.270178 -184.853324 
L 202.690633 -185.113785 
L 202.111087 -185.58041 
L 201.531542 -185.809159 
L 200.951996 -186.184029 
L 200.372451 -186.534561 
L 199.792905 -186.911772 
L 199.21336 -187.111214 
L 198.633814 -187.331335 
L 198.054269 -187.771703 
L 197.474723 -187.856487 
L 196.895178 -188.294907 
L 196.315632 -188.610642 
L 195.736087 -188.755781 
L 195.156542 -189.091427 
L 194.576996 -189.362014 
L 193.997451 -189.589643 
L 193.417905 -189.850552 
L 192.83836 -190.489052 
L 192.258814 -190.708877 
L 191.679269 -191.049986 
L 191.099723 -191.345063 
L 190.520178 -191.475604 
L 189.940632 -192.043749 
L 189.361087 -192.451831 
L 188.781541 -192.688056 
L 188.201996 -192.987968 
L 187.62245 -193.121627 
L 187.042905 -193.496572 
L 186.46336 -193.702841 
L 185.883814 -194.047789 
L 185.304269 -194.502965 
L 184.724723 -194.677383 
L 184.145178 -195.207303 
L 183.565632 -195.361701 
L 182.986087 -195.75137 
L 182.406541 -196.026611 
L 181.826996 -196.272463 
L 181.24745 -196.558967 
L 180.667905 -196.889339 
L 180.088359 -197.211014 
L 179.508814 -197.552431 
L 178.929268 -198.036931 
L 178.349723 -198.393908 
L 177.770178 -198.701907 
L 177.190632 -199.012646 
L 176.611087 -199.171066 
L 176.031541 -199.399466 
L 175.451996 -199.704385 
L 174.87245 -200.019788 
L 174.292905 -200.680447 
L 173.713359 -200.795229 
L 173.133814 -201.058734 
L 172.554268 -201.507724 
L 171.974723 -201.621955 
L 171.395177 -202.052676 
L 170.815632 -202.362629 
L 170.236087 -202.884979 
L 169.656541 -203.240371 
L 169.076996 -203.585966 
L 168.49745 -203.694429 
L 167.917905 -203.982657 
L 167.338359 -204.436789 
L 166.758814 -204.929609 
L 166.179268 -205.221818 
L 165.599723 -205.537265 
L 165.020177 -205.905635 
L 164.440632 -206.219336 
L 163.861086 -206.58481 
L 163.281541 -206.790145 
L 162.701995 -206.966642 
L 162.12245 -207.284522 
L 161.542905 -207.572816 
L 160.963359 -207.934016 
L 160.383814 -208.192622 
L 159.804268 -208.652608 
L 159.224723 -208.83748 
L 158.645177 -209.367875 
L 158.065632 -209.521336 
L 157.486086 -209.85135 
L 156.906541 -210.193593 
L 156.326995 -210.511126 
L 155.74745 -210.886989 
L 155.167904 -211.072546 
L 154.588359 -211.505031 
L 154.008813 -211.816674 
L 153.429268 -211.997597 
L 152.849723 -212.605916 
L 152.270177 -212.766706 
L 151.690632 -213.247879 
L 151.111086 -213.555495 
L 150.531541 -213.84443 
L 149.951995 -214.348709 
L 149.37245 -214.464418 
L 148.792904 -214.870525 
L 148.213359 -215.185833 
L 147.633813 -215.414786 
L 147.054268 -215.959046 
L 146.474722 -216.139849 
L 145.895177 -216.458266 
L 145.315632 -216.950999 
L 144.736086 -217.177552 
L 144.156541 -217.441388 
L 143.576995 -217.791031 
L 142.99745 -217.997812 
L 142.417904 -218.287618 
L 141.838359 -218.755576 
L 141.258813 -219.20175 
L 140.679268 -219.61337 
L 140.099722 -219.932881 
L 139.520177 -220.370754 
L 138.940631 -220.567387 
L 138.361086 -220.82771 
L 137.78154 -220.998958 
L 137.201995 -221.426991 
L 136.62245 -221.744392 
L 136.042904 -221.954216 
L 135.463359 -222.391793 
L 134.883813 -222.662536 
L 134.304268 -223.118333 
L 133.724722 -223.340896 
L 133.145177 -223.669169 
L 132.565631 -224.05896 
L 131.986086 -224.385518 
L 131.40654 -224.800166 
L 130.826995 -225.071465 
L 130.247449 -225.434926 
L 129.667904 -225.928256 
L 129.088359 -226.183014 
L 128.508813 -226.458732 
L 127.929268 -226.849025 
L 127.349722 -227.222337 
L 126.770177 -227.595166 
L 126.190631 -227.950823 
L 125.611086 -228.266334 
L 125.03154 -228.694386 
L 124.451995 -228.96159 
L 123.872449 -229.324323 
L 123.292904 -229.67274 
L 122.713358 -230.076197 
L 122.133813 -230.361011 
L 121.554267 -230.639772 
L 120.974722 -230.779133 
L 120.395177 -231.202798 
L 119.815631 -231.633603 
L 119.236086 -232.132984 
L 118.65654 -232.491532 
L 118.076995 -232.781206 
L 117.497449 -233.138813 
L 116.917904 -233.448096 
L 116.338358 -233.799299 
L 115.758813 -234.164621 
L 115.179267 -234.548205 
L 114.599722 -234.964155 
L 114.020176 -235.328123 
L 113.440631 -235.568558 
L 112.861085 -235.983876 
L 112.28154 -236.271321 
L 111.701995 -236.603878 
L 111.122449 -237.071841 
L 110.542904 -237.439496 
L 109.963358 -237.752452 
L 109.383813 -238.322829 
L 108.804267 -238.706484 
L 108.224722 -239.168257 
L 107.645176 -239.677154 
L 107.065631 -240.029124 
L 106.486085 -240.509507 
L 105.90654 -240.921423 
L 105.326994 -241.331037 
L 104.747449 -241.753455 
L 104.167904 -242.429893 
L 103.588358 -243.433283 
z
" id="me15839396a" style="stroke:#ff7f0e;stroke-opacity:0.2;stroke-width:0.39;"/>
    </defs>
    <g clip-path="url(#p909e44eb4e)">
     <use style="fill:#ff7f0e;fill-opacity:0.2;stroke:#ff7f0e;stroke-opacity:0.2;stroke-width:0.39;" x="0" xlink:href="#me15839396a" y="288"/>
    </g>
   </g>
   <g id="line2d_25">
    <path clip-path="url(#p909e44eb4e)" d="M 103.588358 44.566717 
L 104.167904 44.676421 
L 107.065631 46.001299 
L 125.611086 54.936631 
L 128.508813 56.362731 
L 130.247449 57.181562 
L 130.826995 57.523551 
L 131.986086 58.048607 
L 133.724722 58.935964 
L 135.463359 59.812214 
L 139.520177 61.728872 
L 140.679268 62.411083 
L 142.417904 63.279169 
L 142.99745 63.502311 
L 144.156541 64.059695 
L 148.792904 66.386598 
L 150.531541 67.243312 
L 153.429268 68.599643 
L 154.008813 68.941993 
L 155.167904 69.452248 
L 156.326995 69.986114 
L 156.906541 70.364294 
L 157.486086 70.541166 
L 160.383814 72.052476 
L 162.701995 73.044281 
L 165.599723 74.485296 
L 166.758814 75.033809 
L 168.49745 75.824879 
L 169.656541 76.335355 
L 180.088359 81.513729 
L 180.667905 81.744378 
L 182.406541 82.725609 
L 184.145178 83.60087 
L 184.724723 83.76163 
L 185.883814 84.507464 
L 187.042905 85.118604 
L 187.62245 85.303283 
L 191.679269 87.398937 
L 193.997451 88.465728 
L 196.315632 89.565142 
L 198.633814 90.692964 
L 200.372451 91.74152 
L 202.111087 92.581008 
L 206.167905 94.361785 
L 206.747451 94.782338 
L 207.326996 95.030135 
L 208.486087 95.81823 
L 209.065633 95.963831 
L 211.96336 97.324894 
L 212.542905 97.537943 
L 213.701996 98.268584 
L 214.861087 98.695835 
L 217.179269 99.803142 
L 217.758815 100.20972 
L 221.815633 102.058594 
L 225.292906 104.041256 
L 226.451997 104.609256 
L 228.190633 105.261311 
L 229.349724 105.861853 
L 229.929269 105.975405 
L 230.508815 106.408153 
L 234.565633 108.20208 
L 235.724724 108.713728 
L 237.46336 109.687397 
L 238.042906 109.879441 
L 239.201997 110.635935 
L 242.099724 111.920541 
L 244.417906 112.931206 
L 244.997451 113.426374 
L 249.633815 115.677063 
L 250.213361 115.848318 
L 250.792906 116.219901 
L 253.111088 117.2518 
L 255.42927 118.428526 
L 256.588361 119.051344 
L 257.167906 119.204264 
L 259.486088 120.4526 
L 260.065634 120.639309 
L 261.224725 121.233648 
L 262.963361 122.010832 
L 264.122452 122.79557 
L 265.281543 123.255326 
L 269.338361 125.193728 
L 270.497452 125.691372 
L 275.713361 128.293131 
L 276.292907 128.457444 
L 277.451998 129.097347 
L 278.031543 129.564624 
L 279.770179 130.340403 
L 283.247452 132.006264 
L 285.565634 132.887313 
L 286.724725 133.634203 
L 289.042907 134.67743 
L 289.622452 134.862097 
L 290.781543 135.511162 
L 291.361089 135.770812 
L 292.52018 136.507052 
L 294.258816 137.35167 
L 294.838361 137.5135 
L 296.576998 138.592275 
L 298.89518 139.499705 
L 303.531543 141.665155 
L 305.849725 142.911995 
L 306.429271 143.046316 
L 308.747453 144.347132 
L 309.906544 144.8786 
L 310.486089 145.330295 
L 311.065634 145.439446 
L 312.224725 146.226644 
L 313.383816 146.782375 
L 313.963362 146.940749 
L 316.281544 148.18649 
L 316.861089 148.379138 
L 318.02018 149.015225 
L 318.599726 149.216993 
L 319.179271 149.74839 
L 319.758816 149.909167 
L 322.656544 151.407047 
L 323.236089 151.777875 
L 323.815635 151.949052 
L 327.292908 153.774336 
L 327.872453 153.956122 
L 328.451998 154.321292 
L 330.190635 154.9871 
L 331.929271 156.060398 
L 337.14518 158.487789 
L 337.724726 158.69822 
L 339.463362 159.652421 
L 343.520181 161.574606 
L 344.099726 161.688605 
L 347.576999 163.692991 
L 351.054272 165.231444 
L 351.633817 165.391288 
L 352.792908 166.146732 
L 353.951999 166.566924 
L 354.531544 167.03463 
L 356.849726 167.982875 
L 357.429272 168.382205 
L 358.588363 168.803976 
L 359.167908 169.244069 
L 359.747454 169.361163 
L 360.326999 169.741854 
L 360.906544 170.317567 
L 369.599726 174.468651 
L 370.758817 175.414236 
L 373.076999 176.375555 
L 374.23609 176.916904 
L 375.395181 177.428841 
L 378.292908 178.99355 
L 378.872454 179.123318 
L 380.031545 179.91642 
L 384.088363 182.103555 
L 386.406545 182.937698 
L 386.98609 183.341244 
L 393.361091 186.173938 
L 393.940636 186.578264 
L 395.099727 187.0466 
L 396.838363 187.957479 
L 397.997454 188.437937 
L 398.577 188.91535 
L 399.156545 189.140946 
L 400.315636 189.782992 
L 400.315636 189.782992 
" style="fill:none;stroke:#ff7f0e;stroke-linecap:round;stroke-width:2.275;"/>
   </g>
   <g id="line2d_26">
    <path clip-path="url(#p909e44eb4e)" d="M 103.588358 43.766364 
L 399.736091 132.264654 
L 399.736091 132.264654 
" style="fill:none;stroke:#2ca02c;stroke-linecap:round;stroke-width:2.275;"/>
   </g>
   <g id="line2d_27">
    <path clip-path="url(#p909e44eb4e)" d="M 103.588358 44.566717 
L 399.736091 222.133636 
L 399.736091 222.133636 
" style="fill:none;stroke:#d62728;stroke-linecap:round;stroke-width:2.275;"/>
   </g>
   <g id="patch_3">
    <path d="M 88.751994 231.052 
L 88.751994 34.848 
" style="fill:none;stroke:#999999;stroke-linecap:square;stroke-linejoin:miter;"/>
   </g>
   <g id="patch_4">
    <path d="M 415.152 231.052 
L 415.152 34.848 
" style="fill:none;stroke:#999999;stroke-linecap:square;stroke-linejoin:miter;"/>
   </g>
   <g id="patch_5">
    <path d="M 88.751994 231.052 
L 415.152 231.052 
" style="fill:none;stroke:#999999;stroke-linecap:square;stroke-linejoin:miter;"/>
   </g>
   <g id="patch_6">
    <path d="M 88.751994 34.848 
L 415.152 34.848 
" style="fill:none;stroke:#999999;stroke-linecap:square;stroke-linejoin:miter;"/>
   </g>
   <g id="text_15">
    <!-- Error vs Iteration (Inconsistent Gaussian) -->
    <defs>
     <path d="M 9.8125 72.90625 
L 55.90625 72.90625 
L 55.90625 64.59375 
L 19.671875 64.59375 
L 19.671875 43.015625 
L 54.390625 43.015625 
L 54.390625 34.71875 
L 19.671875 34.71875 
L 19.671875 8.296875 
L 56.78125 8.296875 
L 56.78125 0 
L 9.8125 0 
z
" id="DejaVuSans-45"/>
     <path id="DejaVuSans-20"/>
     <path d="M 2.984375 54.6875 
L 12.5 54.6875 
L 29.59375 8.796875 
L 46.6875 54.6875 
L 56.203125 54.6875 
L 35.6875 0 
L 23.484375 0 
z
" id="DejaVuSans-76"/>
     <path d="M 44.28125 53.078125 
L 44.28125 44.578125 
Q 40.484375 46.53125 36.375 47.5 
Q 32.28125 48.484375 27.875 48.484375 
Q 21.1875 48.484375 17.84375 46.4375 
Q 14.5 44.390625 14.5 40.28125 
Q 14.5 37.15625 16.890625 35.375 
Q 19.28125 33.59375 26.515625 31.984375 
L 29.59375 31.296875 
Q 39.15625 29.25 43.1875 25.515625 
Q 47.21875 21.78125 47.21875 15.09375 
Q 47.21875 7.46875 41.1875 3.015625 
Q 35.15625 -1.421875 24.609375 -1.421875 
Q 20.21875 -1.421875 15.453125 -0.5625 
Q 10.6875 0.296875 5.421875 2 
L 5.421875 11.28125 
Q 10.40625 8.6875 15.234375 7.390625 
Q 20.0625 6.109375 24.8125 6.109375 
Q 31.15625 6.109375 34.5625 8.28125 
Q 37.984375 10.453125 37.984375 14.40625 
Q 37.984375 18.0625 35.515625 20.015625 
Q 33.0625 21.96875 24.703125 23.78125 
L 21.578125 24.515625 
Q 13.234375 26.265625 9.515625 29.90625 
Q 5.8125 33.546875 5.8125 39.890625 
Q 5.8125 47.609375 11.28125 51.796875 
Q 16.75 56 26.8125 56 
Q 31.78125 56 36.171875 55.265625 
Q 40.578125 54.546875 44.28125 53.078125 
z
" id="DejaVuSans-73"/>
     <path d="M 31 75.875 
Q 24.46875 64.65625 21.28125 53.65625 
Q 18.109375 42.671875 18.109375 31.390625 
Q 18.109375 20.125 21.3125 9.0625 
Q 24.515625 -2 31 -13.1875 
L 23.1875 -13.1875 
Q 15.875 -1.703125 12.234375 9.375 
Q 8.59375 20.453125 8.59375 31.390625 
Q 8.59375 42.28125 12.203125 53.3125 
Q 15.828125 64.359375 23.1875 75.875 
z
" id="DejaVuSans-28"/>
     <path d="M 48.78125 52.59375 
L 48.78125 44.1875 
Q 44.96875 46.296875 41.140625 47.34375 
Q 37.3125 48.390625 33.40625 48.390625 
Q 24.65625 48.390625 19.8125 42.84375 
Q 14.984375 37.3125 14.984375 27.296875 
Q 14.984375 17.28125 19.8125 11.734375 
Q 24.65625 6.203125 33.40625 6.203125 
Q 37.3125 6.203125 41.140625 7.25 
Q 44.96875 8.296875 48.78125 10.40625 
L 48.78125 2.09375 
Q 45.015625 0.34375 40.984375 -0.53125 
Q 36.96875 -1.421875 32.421875 -1.421875 
Q 20.0625 -1.421875 12.78125 6.34375 
Q 5.515625 14.109375 5.515625 27.296875 
Q 5.515625 40.671875 12.859375 48.328125 
Q 20.21875 56 33.015625 56 
Q 37.15625 56 41.109375 55.140625 
Q 45.0625 54.296875 48.78125 52.59375 
z
" id="DejaVuSans-63"/>
     <path d="M 59.515625 10.40625 
L 59.515625 29.984375 
L 43.40625 29.984375 
L 43.40625 38.09375 
L 69.28125 38.09375 
L 69.28125 6.78125 
Q 63.578125 2.734375 56.6875 0.65625 
Q 49.8125 -1.421875 42 -1.421875 
Q 24.90625 -1.421875 15.25 8.5625 
Q 5.609375 18.5625 5.609375 36.375 
Q 5.609375 54.25 15.25 64.234375 
Q 24.90625 74.21875 42 74.21875 
Q 49.125 74.21875 55.546875 72.453125 
Q 61.96875 70.703125 67.390625 67.28125 
L 67.390625 56.78125 
Q 61.921875 61.421875 55.765625 63.765625 
Q 49.609375 66.109375 42.828125 66.109375 
Q 29.4375 66.109375 22.71875 58.640625 
Q 16.015625 51.171875 16.015625 36.375 
Q 16.015625 21.625 22.71875 14.15625 
Q 29.4375 6.6875 42.828125 6.6875 
Q 48.046875 6.6875 52.140625 7.59375 
Q 56.25 8.5 59.515625 10.40625 
z
" id="DejaVuSans-47"/>
     <path d="M 8.5 21.578125 
L 8.5 54.6875 
L 17.484375 54.6875 
L 17.484375 21.921875 
Q 17.484375 14.15625 20.5 10.265625 
Q 23.53125 6.390625 29.59375 6.390625 
Q 36.859375 6.390625 41.078125 11.03125 
Q 45.3125 15.671875 45.3125 23.6875 
L 45.3125 54.6875 
L 54.296875 54.6875 
L 54.296875 0 
L 45.3125 0 
L 45.3125 8.40625 
Q 42.046875 3.421875 37.71875 1 
Q 33.40625 -1.421875 27.6875 -1.421875 
Q 18.265625 -1.421875 13.375 4.4375 
Q 8.5 10.296875 8.5 21.578125 
z
M 31.109375 56 
z
" id="DejaVuSans-75"/>
     <path d="M 8.015625 75.875 
L 15.828125 75.875 
Q 23.140625 64.359375 26.78125 53.3125 
Q 30.421875 42.28125 30.421875 31.390625 
Q 30.421875 20.453125 26.78125 9.375 
Q 23.140625 -1.703125 15.828125 -13.1875 
L 8.015625 -13.1875 
Q 14.5 -2 17.703125 9.0625 
Q 20.90625 20.125 20.90625 31.390625 
Q 20.90625 42.671875 17.703125 53.65625 
Q 14.5 64.65625 8.015625 75.875 
z
" id="DejaVuSans-29"/>
    </defs>
    <g style="fill:#262626;" transform="translate(91.682716 28.848)scale(0.156 -0.156)">
     <use xlink:href="#DejaVuSans-45"/>
     <use x="63.183594" xlink:href="#DejaVuSans-72"/>
     <use x="104.28125" xlink:href="#DejaVuSans-72"/>
     <use x="145.363281" xlink:href="#DejaVuSans-6f"/>
     <use x="206.544922" xlink:href="#DejaVuSans-72"/>
     <use x="247.658203" xlink:href="#DejaVuSans-20"/>
     <use x="279.445312" xlink:href="#DejaVuSans-76"/>
     <use x="338.625" xlink:href="#DejaVuSans-73"/>
     <use x="390.724609" xlink:href="#DejaVuSans-20"/>
     <use x="422.511719" xlink:href="#DejaVuSans-49"/>
     <use x="452.003906" xlink:href="#DejaVuSans-74"/>
     <use x="491.212891" xlink:href="#DejaVuSans-65"/>
     <use x="552.736328" xlink:href="#DejaVuSans-72"/>
     <use x="593.849609" xlink:href="#DejaVuSans-61"/>
     <use x="655.128906" xlink:href="#DejaVuSans-74"/>
     <use x="694.337891" xlink:href="#DejaVuSans-69"/>
     <use x="722.121094" xlink:href="#DejaVuSans-6f"/>
     <use x="783.302734" xlink:href="#DejaVuSans-6e"/>
     <use x="846.681641" xlink:href="#DejaVuSans-20"/>
     <use x="878.46875" xlink:href="#DejaVuSans-28"/>
     <use x="917.482422" xlink:href="#DejaVuSans-49"/>
     <use x="946.974609" xlink:href="#DejaVuSans-6e"/>
     <use x="1010.353516" xlink:href="#DejaVuSans-63"/>
     <use x="1065.333984" xlink:href="#DejaVuSans-6f"/>
     <use x="1126.515625" xlink:href="#DejaVuSans-6e"/>
     <use x="1189.894531" xlink:href="#DejaVuSans-73"/>
     <use x="1241.994141" xlink:href="#DejaVuSans-69"/>
     <use x="1269.777344" xlink:href="#DejaVuSans-73"/>
     <use x="1321.876953" xlink:href="#DejaVuSans-74"/>
     <use x="1361.085938" xlink:href="#DejaVuSans-65"/>
     <use x="1422.609375" xlink:href="#DejaVuSans-6e"/>
     <use x="1485.988281" xlink:href="#DejaVuSans-74"/>
     <use x="1525.197266" xlink:href="#DejaVuSans-20"/>
     <use x="1556.984375" xlink:href="#DejaVuSans-47"/>
     <use x="1634.474609" xlink:href="#DejaVuSans-61"/>
     <use x="1695.753906" xlink:href="#DejaVuSans-75"/>
     <use x="1759.132812" xlink:href="#DejaVuSans-73"/>
     <use x="1811.232422" xlink:href="#DejaVuSans-73"/>
     <use x="1863.332031" xlink:href="#DejaVuSans-69"/>
     <use x="1891.115234" xlink:href="#DejaVuSans-61"/>
     <use x="1952.394531" xlink:href="#DejaVuSans-6e"/>
     <use x="2015.773438" xlink:href="#DejaVuSans-29"/>
    </g>
   </g>
   <g id="legend_1">
    <g id="line2d_28">
     <path d="M 100.451994 173.935281 
L 126.451994 173.935281 
" style="fill:none;stroke:#ff7f0e;stroke-linecap:round;stroke-width:2.275;"/>
    </g>
    <g id="line2d_29"/>
    <g id="text_16">
     <!-- Optimal -->
     <defs>
      <path d="M 39.40625 66.21875 
Q 28.65625 66.21875 22.328125 58.203125 
Q 16.015625 50.203125 16.015625 36.375 
Q 16.015625 22.609375 22.328125 14.59375 
Q 28.65625 6.59375 39.40625 6.59375 
Q 50.140625 6.59375 56.421875 14.59375 
Q 62.703125 22.609375 62.703125 36.375 
Q 62.703125 50.203125 56.421875 58.203125 
Q 50.140625 66.21875 39.40625 66.21875 
z
M 39.40625 74.21875 
Q 54.734375 74.21875 63.90625 63.9375 
Q 73.09375 53.65625 73.09375 36.375 
Q 73.09375 19.140625 63.90625 8.859375 
Q 54.734375 -1.421875 39.40625 -1.421875 
Q 24.03125 -1.421875 14.8125 8.828125 
Q 5.609375 19.09375 5.609375 36.375 
Q 5.609375 53.65625 14.8125 63.9375 
Q 24.03125 74.21875 39.40625 74.21875 
z
" id="DejaVuSans-4f"/>
      <path d="M 18.109375 8.203125 
L 18.109375 -20.796875 
L 9.078125 -20.796875 
L 9.078125 54.6875 
L 18.109375 54.6875 
L 18.109375 46.390625 
Q 20.953125 51.265625 25.265625 53.625 
Q 29.59375 56 35.59375 56 
Q 45.5625 56 51.78125 48.09375 
Q 58.015625 40.1875 58.015625 27.296875 
Q 58.015625 14.40625 51.78125 6.484375 
Q 45.5625 -1.421875 35.59375 -1.421875 
Q 29.59375 -1.421875 25.265625 0.953125 
Q 20.953125 3.328125 18.109375 8.203125 
z
M 48.6875 27.296875 
Q 48.6875 37.203125 44.609375 42.84375 
Q 40.53125 48.484375 33.40625 48.484375 
Q 26.265625 48.484375 22.1875 42.84375 
Q 18.109375 37.203125 18.109375 27.296875 
Q 18.109375 17.390625 22.1875 11.75 
Q 26.265625 6.109375 33.40625 6.109375 
Q 40.53125 6.109375 44.609375 11.75 
Q 48.6875 17.390625 48.6875 27.296875 
z
" id="DejaVuSans-70"/>
      <path d="M 52 44.1875 
Q 55.375 50.25 60.0625 53.125 
Q 64.75 56 71.09375 56 
Q 79.640625 56 84.28125 50.015625 
Q 88.921875 44.046875 88.921875 33.015625 
L 88.921875 0 
L 79.890625 0 
L 79.890625 32.71875 
Q 79.890625 40.578125 77.09375 44.375 
Q 74.3125 48.1875 68.609375 48.1875 
Q 61.625 48.1875 57.5625 43.546875 
Q 53.515625 38.921875 53.515625 30.90625 
L 53.515625 0 
L 44.484375 0 
L 44.484375 32.71875 
Q 44.484375 40.625 41.703125 44.40625 
Q 38.921875 48.1875 33.109375 48.1875 
Q 26.21875 48.1875 22.15625 43.53125 
Q 18.109375 38.875 18.109375 30.90625 
L 18.109375 0 
L 9.078125 0 
L 9.078125 54.6875 
L 18.109375 54.6875 
L 18.109375 46.1875 
Q 21.1875 51.21875 25.484375 53.609375 
Q 29.78125 56 35.6875 56 
Q 41.65625 56 45.828125 52.96875 
Q 50 49.953125 52 44.1875 
z
" id="DejaVuSans-6d"/>
      <path d="M 9.421875 75.984375 
L 18.40625 75.984375 
L 18.40625 0 
L 9.421875 0 
z
" id="DejaVuSans-6c"/>
     </defs>
     <g style="fill:#262626;" transform="translate(136.851994 178.485281)scale(0.13 -0.13)">
      <use xlink:href="#DejaVuSans-4f"/>
      <use x="78.710938" xlink:href="#DejaVuSans-70"/>
      <use x="142.1875" xlink:href="#DejaVuSans-74"/>
      <use x="181.396484" xlink:href="#DejaVuSans-69"/>
      <use x="209.179688" xlink:href="#DejaVuSans-6d"/>
      <use x="306.591797" xlink:href="#DejaVuSans-61"/>
      <use x="367.871094" xlink:href="#DejaVuSans-6c"/>
     </g>
    </g>
    <g id="line2d_30">
     <path d="M 100.451994 193.016844 
L 126.451994 193.016844 
" style="fill:none;stroke:#2ca02c;stroke-linecap:round;stroke-width:2.275;"/>
    </g>
    <g id="line2d_31"/>
    <g id="text_17">
     <!-- Upper Bound -->
     <defs>
      <path d="M 8.6875 72.90625 
L 18.609375 72.90625 
L 18.609375 28.609375 
Q 18.609375 16.890625 22.84375 11.734375 
Q 27.09375 6.59375 36.625 6.59375 
Q 46.09375 6.59375 50.34375 11.734375 
Q 54.59375 16.890625 54.59375 28.609375 
L 54.59375 72.90625 
L 64.5 72.90625 
L 64.5 27.390625 
Q 64.5 13.140625 57.4375 5.859375 
Q 50.390625 -1.421875 36.625 -1.421875 
Q 22.796875 -1.421875 15.734375 5.859375 
Q 8.6875 13.140625 8.6875 27.390625 
z
" id="DejaVuSans-55"/>
      <path d="M 19.671875 34.8125 
L 19.671875 8.109375 
L 35.5 8.109375 
Q 43.453125 8.109375 47.28125 11.40625 
Q 51.125 14.703125 51.125 21.484375 
Q 51.125 28.328125 47.28125 31.5625 
Q 43.453125 34.8125 35.5 34.8125 
z
M 19.671875 64.796875 
L 19.671875 42.828125 
L 34.28125 42.828125 
Q 41.5 42.828125 45.03125 45.53125 
Q 48.578125 48.25 48.578125 53.8125 
Q 48.578125 59.328125 45.03125 62.0625 
Q 41.5 64.796875 34.28125 64.796875 
z
M 9.8125 72.90625 
L 35.015625 72.90625 
Q 46.296875 72.90625 52.390625 68.21875 
Q 58.5 63.53125 58.5 54.890625 
Q 58.5 48.1875 55.375 44.234375 
Q 52.25 40.28125 46.1875 39.3125 
Q 53.46875 37.75 57.5 32.78125 
Q 61.53125 27.828125 61.53125 20.40625 
Q 61.53125 10.640625 54.890625 5.3125 
Q 48.25 0 35.984375 0 
L 9.8125 0 
z
" id="DejaVuSans-42"/>
      <path d="M 45.40625 46.390625 
L 45.40625 75.984375 
L 54.390625 75.984375 
L 54.390625 0 
L 45.40625 0 
L 45.40625 8.203125 
Q 42.578125 3.328125 38.25 0.953125 
Q 33.9375 -1.421875 27.875 -1.421875 
Q 17.96875 -1.421875 11.734375 6.484375 
Q 5.515625 14.40625 5.515625 27.296875 
Q 5.515625 40.1875 11.734375 48.09375 
Q 17.96875 56 27.875 56 
Q 33.9375 56 38.25 53.625 
Q 42.578125 51.265625 45.40625 46.390625 
z
M 14.796875 27.296875 
Q 14.796875 17.390625 18.875 11.75 
Q 22.953125 6.109375 30.078125 6.109375 
Q 37.203125 6.109375 41.296875 11.75 
Q 45.40625 17.390625 45.40625 27.296875 
Q 45.40625 37.203125 41.296875 42.84375 
Q 37.203125 48.484375 30.078125 48.484375 
Q 22.953125 48.484375 18.875 42.84375 
Q 14.796875 37.203125 14.796875 27.296875 
z
" id="DejaVuSans-64"/>
     </defs>
     <g style="fill:#262626;" transform="translate(136.851994 197.566844)scale(0.13 -0.13)">
      <use xlink:href="#DejaVuSans-55"/>
      <use x="73.193359" xlink:href="#DejaVuSans-70"/>
      <use x="136.669922" xlink:href="#DejaVuSans-70"/>
      <use x="200.146484" xlink:href="#DejaVuSans-65"/>
      <use x="261.669922" xlink:href="#DejaVuSans-72"/>
      <use x="302.783203" xlink:href="#DejaVuSans-20"/>
      <use x="334.570312" xlink:href="#DejaVuSans-42"/>
      <use x="403.173828" xlink:href="#DejaVuSans-6f"/>
      <use x="464.355469" xlink:href="#DejaVuSans-75"/>
      <use x="527.734375" xlink:href="#DejaVuSans-6e"/>
      <use x="591.113281" xlink:href="#DejaVuSans-64"/>
     </g>
    </g>
    <g id="line2d_32">
     <path d="M 100.451994 212.098406 
L 126.451994 212.098406 
" style="fill:none;stroke:#d62728;stroke-linecap:round;stroke-width:2.275;"/>
    </g>
    <g id="line2d_33"/>
    <g id="text_18">
     <!-- Lower Bound -->
     <defs>
      <path d="M 9.8125 72.90625 
L 19.671875 72.90625 
L 19.671875 8.296875 
L 55.171875 8.296875 
L 55.171875 0 
L 9.8125 0 
z
" id="DejaVuSans-4c"/>
      <path d="M 4.203125 54.6875 
L 13.1875 54.6875 
L 24.421875 12.015625 
L 35.59375 54.6875 
L 46.1875 54.6875 
L 57.421875 12.015625 
L 68.609375 54.6875 
L 77.59375 54.6875 
L 63.28125 0 
L 52.6875 0 
L 40.921875 44.828125 
L 29.109375 0 
L 18.5 0 
z
" id="DejaVuSans-77"/>
     </defs>
     <g style="fill:#262626;" transform="translate(136.851994 216.648406)scale(0.13 -0.13)">
      <use xlink:href="#DejaVuSans-4c"/>
      <use x="55.697266" xlink:href="#DejaVuSans-6f"/>
      <use x="116.878906" xlink:href="#DejaVuSans-77"/>
      <use x="198.666016" xlink:href="#DejaVuSans-65"/>
      <use x="260.189453" xlink:href="#DejaVuSans-72"/>
      <use x="301.302734" xlink:href="#DejaVuSans-20"/>
      <use x="333.089844" xlink:href="#DejaVuSans-42"/>
      <use x="401.693359" xlink:href="#DejaVuSans-6f"/>
      <use x="462.875" xlink:href="#DejaVuSans-75"/>
      <use x="526.253906" xlink:href="#DejaVuSans-6e"/>
      <use x="589.632812" xlink:href="#DejaVuSans-64"/>
     </g>
    </g>
   </g>
  </g>
 </g>
 <defs>
  <clipPath id="p909e44eb4e">
   <rect height="196.204" width="326.400006" x="88.751994" y="34.848"/>
  </clipPath>
 </defs>
</svg>
