<?xml version="1.0" encoding="utf-8" standalone="no"?>
<!DOCTYPE svg PUBLIC "-//W3C//DTD SVG 1.1//EN"
  "http://www.w3.org/Graphics/SVG/1.1/DTD/svg11.dtd">
<!-- Created with matplotlib (http://matplotlib.org/) -->
<svg height="288pt" version="1.1" viewBox="0 0 432 288" width="432pt" xmlns="http://www.w3.org/2000/svg" xmlns:xlink="http://www.w3.org/1999/xlink">
 <defs>
  <style type="text/css">
*{stroke-linecap:butt;stroke-linejoin:round;}
  </style>
 </defs>
 <g id="figure_1">
  <g id="patch_1">
   <path d="M 0 288 
L 432 288 
L 432 0 
L 0 0 
z
" style="fill:none;"/>
  </g>
  <g id="axes_1">
   <g id="patch_2">
    <path d="M 83.087297 231.052 
L 415.152 231.052 
L 415.152 34.848 
L 83.087297 34.848 
z
" style="fill:none;"/>
   </g>
   <g id="matplotlib.axis_1">
    <g id="xtick_1">
     <g id="line2d_1">
      <path clip-path="url(#p860122ec77)" d="M 98.181147 231.052 
L 98.181147 34.848 
" style="fill:none;stroke:#999999;stroke-linecap:round;stroke-width:1.3;"/>
     </g>
     <g id="line2d_2"/>
     <g id="text_1">
      <!-- 0 -->
      <defs>
       <path d="M 31.78125 66.40625 
Q 24.171875 66.40625 20.328125 58.90625 
Q 16.5 51.421875 16.5 36.375 
Q 16.5 21.390625 20.328125 13.890625 
Q 24.171875 6.390625 31.78125 6.390625 
Q 39.453125 6.390625 43.28125 13.890625 
Q 47.125 21.390625 47.125 36.375 
Q 47.125 51.421875 43.28125 58.90625 
Q 39.453125 66.40625 31.78125 66.40625 
z
M 31.78125 74.21875 
Q 44.046875 74.21875 50.515625 64.515625 
Q 56.984375 54.828125 56.984375 36.375 
Q 56.984375 17.96875 50.515625 8.265625 
Q 44.046875 -1.421875 31.78125 -1.421875 
Q 19.53125 -1.421875 13.0625 8.265625 
Q 6.59375 17.96875 6.59375 36.375 
Q 6.59375 54.828125 13.0625 64.515625 
Q 19.53125 74.21875 31.78125 74.21875 
z
" id="DejaVuSans-30"/>
      </defs>
      <g style="fill:#262626;" transform="translate(94.045522 250.029969)scale(0.13 -0.13)">
       <use xlink:href="#DejaVuSans-30"/>
      </g>
     </g>
    </g>
    <g id="xtick_2">
     <g id="line2d_3">
      <path clip-path="url(#p860122ec77)" d="M 157.141499 231.052 
L 157.141499 34.848 
" style="fill:none;stroke:#999999;stroke-linecap:round;stroke-width:1.3;"/>
     </g>
     <g id="line2d_4"/>
     <g id="text_2">
      <!-- 100 -->
      <defs>
       <path d="M 12.40625 8.296875 
L 28.515625 8.296875 
L 28.515625 63.921875 
L 10.984375 60.40625 
L 10.984375 69.390625 
L 28.421875 72.90625 
L 38.28125 72.90625 
L 38.28125 8.296875 
L 54.390625 8.296875 
L 54.390625 0 
L 12.40625 0 
z
" id="DejaVuSans-31"/>
      </defs>
      <g style="fill:#262626;" transform="translate(144.734624 250.029969)scale(0.13 -0.13)">
       <use xlink:href="#DejaVuSans-31"/>
       <use x="63.623047" xlink:href="#DejaVuSans-30"/>
       <use x="127.246094" xlink:href="#DejaVuSans-30"/>
      </g>
     </g>
    </g>
    <g id="xtick_3">
     <g id="line2d_5">
      <path clip-path="url(#p860122ec77)" d="M 216.101851 231.052 
L 216.101851 34.848 
" style="fill:none;stroke:#999999;stroke-linecap:round;stroke-width:1.3;"/>
     </g>
     <g id="line2d_6"/>
     <g id="text_3">
      <!-- 200 -->
      <defs>
       <path d="M 19.1875 8.296875 
L 53.609375 8.296875 
L 53.609375 0 
L 7.328125 0 
L 7.328125 8.296875 
Q 12.9375 14.109375 22.625 23.890625 
Q 32.328125 33.6875 34.8125 36.53125 
Q 39.546875 41.84375 41.421875 45.53125 
Q 43.3125 49.21875 43.3125 52.78125 
Q 43.3125 58.59375 39.234375 62.25 
Q 35.15625 65.921875 28.609375 65.921875 
Q 23.96875 65.921875 18.8125 64.3125 
Q 13.671875 62.703125 7.8125 59.421875 
L 7.8125 69.390625 
Q 13.765625 71.78125 18.9375 73 
Q 24.125 74.21875 28.421875 74.21875 
Q 39.75 74.21875 46.484375 68.546875 
Q 53.21875 62.890625 53.21875 53.421875 
Q 53.21875 48.921875 51.53125 44.890625 
Q 49.859375 40.875 45.40625 35.40625 
Q 44.1875 33.984375 37.640625 27.21875 
Q 31.109375 20.453125 19.1875 8.296875 
z
" id="DejaVuSans-32"/>
      </defs>
      <g style="fill:#262626;" transform="translate(203.694976 250.029969)scale(0.13 -0.13)">
       <use xlink:href="#DejaVuSans-32"/>
       <use x="63.623047" xlink:href="#DejaVuSans-30"/>
       <use x="127.246094" xlink:href="#DejaVuSans-30"/>
      </g>
     </g>
    </g>
    <g id="xtick_4">
     <g id="line2d_7">
      <path clip-path="url(#p860122ec77)" d="M 275.062203 231.052 
L 275.062203 34.848 
" style="fill:none;stroke:#999999;stroke-linecap:round;stroke-width:1.3;"/>
     </g>
     <g id="line2d_8"/>
     <g id="text_4">
      <!-- 300 -->
      <defs>
       <path d="M 40.578125 39.3125 
Q 47.65625 37.796875 51.625 33 
Q 55.609375 28.21875 55.609375 21.1875 
Q 55.609375 10.40625 48.1875 4.484375 
Q 40.765625 -1.421875 27.09375 -1.421875 
Q 22.515625 -1.421875 17.65625 -0.515625 
Q 12.796875 0.390625 7.625 2.203125 
L 7.625 11.71875 
Q 11.71875 9.328125 16.59375 8.109375 
Q 21.484375 6.890625 26.8125 6.890625 
Q 36.078125 6.890625 40.9375 10.546875 
Q 45.796875 14.203125 45.796875 21.1875 
Q 45.796875 27.640625 41.28125 31.265625 
Q 36.765625 34.90625 28.71875 34.90625 
L 20.21875 34.90625 
L 20.21875 43.015625 
L 29.109375 43.015625 
Q 36.375 43.015625 40.234375 45.921875 
Q 44.09375 48.828125 44.09375 54.296875 
Q 44.09375 59.90625 40.109375 62.90625 
Q 36.140625 65.921875 28.71875 65.921875 
Q 24.65625 65.921875 20.015625 65.03125 
Q 15.375 64.15625 9.8125 62.3125 
L 9.8125 71.09375 
Q 15.4375 72.65625 20.34375 73.4375 
Q 25.25 74.21875 29.59375 74.21875 
Q 40.828125 74.21875 47.359375 69.109375 
Q 53.90625 64.015625 53.90625 55.328125 
Q 53.90625 49.265625 50.4375 45.09375 
Q 46.96875 40.921875 40.578125 39.3125 
z
" id="DejaVuSans-33"/>
      </defs>
      <g style="fill:#262626;" transform="translate(262.655328 250.029969)scale(0.13 -0.13)">
       <use xlink:href="#DejaVuSans-33"/>
       <use x="63.623047" xlink:href="#DejaVuSans-30"/>
       <use x="127.246094" xlink:href="#DejaVuSans-30"/>
      </g>
     </g>
    </g>
    <g id="xtick_5">
     <g id="line2d_9">
      <path clip-path="url(#p860122ec77)" d="M 334.022555 231.052 
L 334.022555 34.848 
" style="fill:none;stroke:#999999;stroke-linecap:round;stroke-width:1.3;"/>
     </g>
     <g id="line2d_10"/>
     <g id="text_5">
      <!-- 400 -->
      <defs>
       <path d="M 37.796875 64.3125 
L 12.890625 25.390625 
L 37.796875 25.390625 
z
M 35.203125 72.90625 
L 47.609375 72.90625 
L 47.609375 25.390625 
L 58.015625 25.390625 
L 58.015625 17.1875 
L 47.609375 17.1875 
L 47.609375 0 
L 37.796875 0 
L 37.796875 17.1875 
L 4.890625 17.1875 
L 4.890625 26.703125 
z
" id="DejaVuSans-34"/>
      </defs>
      <g style="fill:#262626;" transform="translate(321.61568 250.029969)scale(0.13 -0.13)">
       <use xlink:href="#DejaVuSans-34"/>
       <use x="63.623047" xlink:href="#DejaVuSans-30"/>
       <use x="127.246094" xlink:href="#DejaVuSans-30"/>
      </g>
     </g>
    </g>
    <g id="xtick_6">
     <g id="line2d_11">
      <path clip-path="url(#p860122ec77)" d="M 392.982908 231.052 
L 392.982908 34.848 
" style="fill:none;stroke:#999999;stroke-linecap:round;stroke-width:1.3;"/>
     </g>
     <g id="line2d_12"/>
     <g id="text_6">
      <!-- 500 -->
      <defs>
       <path d="M 10.796875 72.90625 
L 49.515625 72.90625 
L 49.515625 64.59375 
L 19.828125 64.59375 
L 19.828125 46.734375 
Q 21.96875 47.46875 24.109375 47.828125 
Q 26.265625 48.1875 28.421875 48.1875 
Q 40.625 48.1875 47.75 41.5 
Q 54.890625 34.8125 54.890625 23.390625 
Q 54.890625 11.625 47.5625 5.09375 
Q 40.234375 -1.421875 26.90625 -1.421875 
Q 22.3125 -1.421875 17.546875 -0.640625 
Q 12.796875 0.140625 7.71875 1.703125 
L 7.71875 11.625 
Q 12.109375 9.234375 16.796875 8.0625 
Q 21.484375 6.890625 26.703125 6.890625 
Q 35.15625 6.890625 40.078125 11.328125 
Q 45.015625 15.765625 45.015625 23.390625 
Q 45.015625 31 40.078125 35.4375 
Q 35.15625 39.890625 26.703125 39.890625 
Q 22.75 39.890625 18.8125 39.015625 
Q 14.890625 38.140625 10.796875 36.28125 
z
" id="DejaVuSans-35"/>
      </defs>
      <g style="fill:#262626;" transform="translate(380.576033 250.029969)scale(0.13 -0.13)">
       <use xlink:href="#DejaVuSans-35"/>
       <use x="63.623047" xlink:href="#DejaVuSans-30"/>
       <use x="127.246094" xlink:href="#DejaVuSans-30"/>
      </g>
     </g>
    </g>
    <g id="text_7">
     <!-- Iteration -->
     <defs>
      <path d="M 9.8125 72.90625 
L 19.671875 72.90625 
L 19.671875 0 
L 9.8125 0 
z
" id="DejaVuSans-49"/>
      <path d="M 18.3125 70.21875 
L 18.3125 54.6875 
L 36.8125 54.6875 
L 36.8125 47.703125 
L 18.3125 47.703125 
L 18.3125 18.015625 
Q 18.3125 11.328125 20.140625 9.421875 
Q 21.96875 7.515625 27.59375 7.515625 
L 36.8125 7.515625 
L 36.8125 0 
L 27.59375 0 
Q 17.1875 0 13.234375 3.875 
Q 9.28125 7.765625 9.28125 18.015625 
L 9.28125 47.703125 
L 2.6875 47.703125 
L 2.6875 54.6875 
L 9.28125 54.6875 
L 9.28125 70.21875 
z
" id="DejaVuSans-74"/>
      <path d="M 56.203125 29.59375 
L 56.203125 25.203125 
L 14.890625 25.203125 
Q 15.484375 15.921875 20.484375 11.0625 
Q 25.484375 6.203125 34.421875 6.203125 
Q 39.59375 6.203125 44.453125 7.46875 
Q 49.3125 8.734375 54.109375 11.28125 
L 54.109375 2.78125 
Q 49.265625 0.734375 44.1875 -0.34375 
Q 39.109375 -1.421875 33.890625 -1.421875 
Q 20.796875 -1.421875 13.15625 6.1875 
Q 5.515625 13.8125 5.515625 26.8125 
Q 5.515625 40.234375 12.765625 48.109375 
Q 20.015625 56 32.328125 56 
Q 43.359375 56 49.78125 48.890625 
Q 56.203125 41.796875 56.203125 29.59375 
z
M 47.21875 32.234375 
Q 47.125 39.59375 43.09375 43.984375 
Q 39.0625 48.390625 32.421875 48.390625 
Q 24.90625 48.390625 20.390625 44.140625 
Q 15.875 39.890625 15.1875 32.171875 
z
" id="DejaVuSans-65"/>
      <path d="M 41.109375 46.296875 
Q 39.59375 47.171875 37.8125 47.578125 
Q 36.03125 48 33.890625 48 
Q 26.265625 48 22.1875 43.046875 
Q 18.109375 38.09375 18.109375 28.8125 
L 18.109375 0 
L 9.078125 0 
L 9.078125 54.6875 
L 18.109375 54.6875 
L 18.109375 46.1875 
Q 20.953125 51.171875 25.484375 53.578125 
Q 30.03125 56 36.53125 56 
Q 37.453125 56 38.578125 55.875 
Q 39.703125 55.765625 41.0625 55.515625 
z
" id="DejaVuSans-72"/>
      <path d="M 34.28125 27.484375 
Q 23.390625 27.484375 19.1875 25 
Q 14.984375 22.515625 14.984375 16.5 
Q 14.984375 11.71875 18.140625 8.90625 
Q 21.296875 6.109375 26.703125 6.109375 
Q 34.1875 6.109375 38.703125 11.40625 
Q 43.21875 16.703125 43.21875 25.484375 
L 43.21875 27.484375 
z
M 52.203125 31.203125 
L 52.203125 0 
L 43.21875 0 
L 43.21875 8.296875 
Q 40.140625 3.328125 35.546875 0.953125 
Q 30.953125 -1.421875 24.3125 -1.421875 
Q 15.921875 -1.421875 10.953125 3.296875 
Q 6 8.015625 6 15.921875 
Q 6 25.140625 12.171875 29.828125 
Q 18.359375 34.515625 30.609375 34.515625 
L 43.21875 34.515625 
L 43.21875 35.40625 
Q 43.21875 41.609375 39.140625 45 
Q 35.0625 48.390625 27.6875 48.390625 
Q 23 48.390625 18.546875 47.265625 
Q 14.109375 46.140625 10.015625 43.890625 
L 10.015625 52.203125 
Q 14.9375 54.109375 19.578125 55.046875 
Q 24.21875 56 28.609375 56 
Q 40.484375 56 46.34375 49.84375 
Q 52.203125 43.703125 52.203125 31.203125 
z
" id="DejaVuSans-61"/>
      <path d="M 9.421875 54.6875 
L 18.40625 54.6875 
L 18.40625 0 
L 9.421875 0 
z
M 9.421875 75.984375 
L 18.40625 75.984375 
L 18.40625 64.59375 
L 9.421875 64.59375 
z
" id="DejaVuSans-69"/>
      <path d="M 30.609375 48.390625 
Q 23.390625 48.390625 19.1875 42.75 
Q 14.984375 37.109375 14.984375 27.296875 
Q 14.984375 17.484375 19.15625 11.84375 
Q 23.34375 6.203125 30.609375 6.203125 
Q 37.796875 6.203125 41.984375 11.859375 
Q 46.1875 17.53125 46.1875 27.296875 
Q 46.1875 37.015625 41.984375 42.703125 
Q 37.796875 48.390625 30.609375 48.390625 
z
M 30.609375 56 
Q 42.328125 56 49.015625 48.375 
Q 55.71875 40.765625 55.71875 27.296875 
Q 55.71875 13.875 49.015625 6.21875 
Q 42.328125 -1.421875 30.609375 -1.421875 
Q 18.84375 -1.421875 12.171875 6.21875 
Q 5.515625 13.875 5.515625 27.296875 
Q 5.515625 40.765625 12.171875 48.375 
Q 18.84375 56 30.609375 56 
z
" id="DejaVuSans-6f"/>
      <path d="M 54.890625 33.015625 
L 54.890625 0 
L 45.90625 0 
L 45.90625 32.71875 
Q 45.90625 40.484375 42.875 44.328125 
Q 39.84375 48.1875 33.796875 48.1875 
Q 26.515625 48.1875 22.3125 43.546875 
Q 18.109375 38.921875 18.109375 30.90625 
L 18.109375 0 
L 9.078125 0 
L 9.078125 54.6875 
L 18.109375 54.6875 
L 18.109375 46.1875 
Q 21.34375 51.125 25.703125 53.5625 
Q 30.078125 56 35.796875 56 
Q 45.21875 56 50.046875 50.171875 
Q 54.890625 44.34375 54.890625 33.015625 
z
" id="DejaVuSans-6e"/>
     </defs>
     <g style="fill:#262626;" transform="translate(218.791359 267.599328)scale(0.143 -0.143)">
      <use xlink:href="#DejaVuSans-49"/>
      <use x="29.492188" xlink:href="#DejaVuSans-74"/>
      <use x="68.701172" xlink:href="#DejaVuSans-65"/>
      <use x="130.224609" xlink:href="#DejaVuSans-72"/>
      <use x="171.337891" xlink:href="#DejaVuSans-61"/>
      <use x="232.617188" xlink:href="#DejaVuSans-74"/>
      <use x="271.826172" xlink:href="#DejaVuSans-69"/>
      <use x="299.609375" xlink:href="#DejaVuSans-6f"/>
      <use x="360.791016" xlink:href="#DejaVuSans-6e"/>
     </g>
    </g>
   </g>
   <g id="matplotlib.axis_2">
    <g id="ytick_1">
     <g id="line2d_13">
      <path clip-path="url(#p860122ec77)" d="M 83.087297 210.306039 
L 415.152 210.306039 
" style="fill:none;stroke:#999999;stroke-linecap:round;stroke-width:1.3;"/>
     </g>
     <g id="line2d_14"/>
     <g id="text_8">
      <!-- $\mathdefault{10^{-9}}$ -->
      <defs>
       <path d="M 10.59375 35.5 
L 73.1875 35.5 
L 73.1875 27.203125 
L 10.59375 27.203125 
z
" id="DejaVuSans-2212"/>
       <path d="M 10.984375 1.515625 
L 10.984375 10.5 
Q 14.703125 8.734375 18.5 7.8125 
Q 22.3125 6.890625 25.984375 6.890625 
Q 35.75 6.890625 40.890625 13.453125 
Q 46.046875 20.015625 46.78125 33.40625 
Q 43.953125 29.203125 39.59375 26.953125 
Q 35.25 24.703125 29.984375 24.703125 
Q 19.046875 24.703125 12.671875 31.3125 
Q 6.296875 37.9375 6.296875 49.421875 
Q 6.296875 60.640625 12.9375 67.421875 
Q 19.578125 74.21875 30.609375 74.21875 
Q 43.265625 74.21875 49.921875 64.515625 
Q 56.59375 54.828125 56.59375 36.375 
Q 56.59375 19.140625 48.40625 8.859375 
Q 40.234375 -1.421875 26.421875 -1.421875 
Q 22.703125 -1.421875 18.890625 -0.6875 
Q 15.09375 0.046875 10.984375 1.515625 
z
M 30.609375 32.421875 
Q 37.25 32.421875 41.125 36.953125 
Q 45.015625 41.5 45.015625 49.421875 
Q 45.015625 57.28125 41.125 61.84375 
Q 37.25 66.40625 30.609375 66.40625 
Q 23.96875 66.40625 20.09375 61.84375 
Q 16.21875 57.28125 16.21875 49.421875 
Q 16.21875 41.5 20.09375 36.953125 
Q 23.96875 32.421875 30.609375 32.421875 
z
" id="DejaVuSans-39"/>
      </defs>
      <g style="fill:#262626;" transform="translate(43.437297 215.245023)scale(0.13 -0.13)">
       <use transform="translate(0 0.765625)" xlink:href="#DejaVuSans-31"/>
       <use transform="translate(63.623047 0.765625)" xlink:href="#DejaVuSans-30"/>
       <use transform="translate(128.203125 39.046875)scale(0.7)" xlink:href="#DejaVuSans-2212"/>
       <use transform="translate(186.855469 39.046875)scale(0.7)" xlink:href="#DejaVuSans-39"/>
      </g>
     </g>
    </g>
    <g id="ytick_2">
     <g id="line2d_15">
      <path clip-path="url(#p860122ec77)" d="M 83.087297 182.09177 
L 415.152 182.09177 
" style="fill:none;stroke:#999999;stroke-linecap:round;stroke-width:1.3;"/>
     </g>
     <g id="line2d_16"/>
     <g id="text_9">
      <!-- $\mathdefault{10^{-6}}$ -->
      <defs>
       <path d="M 33.015625 40.375 
Q 26.375 40.375 22.484375 35.828125 
Q 18.609375 31.296875 18.609375 23.390625 
Q 18.609375 15.53125 22.484375 10.953125 
Q 26.375 6.390625 33.015625 6.390625 
Q 39.65625 6.390625 43.53125 10.953125 
Q 47.40625 15.53125 47.40625 23.390625 
Q 47.40625 31.296875 43.53125 35.828125 
Q 39.65625 40.375 33.015625 40.375 
z
M 52.59375 71.296875 
L 52.59375 62.3125 
Q 48.875 64.0625 45.09375 64.984375 
Q 41.3125 65.921875 37.59375 65.921875 
Q 27.828125 65.921875 22.671875 59.328125 
Q 17.53125 52.734375 16.796875 39.40625 
Q 19.671875 43.65625 24.015625 45.921875 
Q 28.375 48.1875 33.59375 48.1875 
Q 44.578125 48.1875 50.953125 41.515625 
Q 57.328125 34.859375 57.328125 23.390625 
Q 57.328125 12.15625 50.6875 5.359375 
Q 44.046875 -1.421875 33.015625 -1.421875 
Q 20.359375 -1.421875 13.671875 8.265625 
Q 6.984375 17.96875 6.984375 36.375 
Q 6.984375 53.65625 15.1875 63.9375 
Q 23.390625 74.21875 37.203125 74.21875 
Q 40.921875 74.21875 44.703125 73.484375 
Q 48.484375 72.75 52.59375 71.296875 
z
" id="DejaVuSans-36"/>
      </defs>
      <g style="fill:#262626;" transform="translate(43.437297 187.030755)scale(0.13 -0.13)">
       <use transform="translate(0 0.765625)" xlink:href="#DejaVuSans-31"/>
       <use transform="translate(63.623047 0.765625)" xlink:href="#DejaVuSans-30"/>
       <use transform="translate(128.203125 39.046875)scale(0.7)" xlink:href="#DejaVuSans-2212"/>
       <use transform="translate(186.855469 39.046875)scale(0.7)" xlink:href="#DejaVuSans-36"/>
      </g>
     </g>
    </g>
    <g id="ytick_3">
     <g id="line2d_17">
      <path clip-path="url(#p860122ec77)" d="M 83.087297 153.877502 
L 415.152 153.877502 
" style="fill:none;stroke:#999999;stroke-linecap:round;stroke-width:1.3;"/>
     </g>
     <g id="line2d_18"/>
     <g id="text_10">
      <!-- $\mathdefault{10^{-3}}$ -->
      <g style="fill:#262626;" transform="translate(43.437297 158.816486)scale(0.13 -0.13)">
       <use transform="translate(0 0.765625)" xlink:href="#DejaVuSans-31"/>
       <use transform="translate(63.623047 0.765625)" xlink:href="#DejaVuSans-30"/>
       <use transform="translate(128.203125 39.046875)scale(0.7)" xlink:href="#DejaVuSans-2212"/>
       <use transform="translate(186.855469 39.046875)scale(0.7)" xlink:href="#DejaVuSans-33"/>
      </g>
     </g>
    </g>
    <g id="ytick_4">
     <g id="line2d_19">
      <path clip-path="url(#p860122ec77)" d="M 83.087297 125.663233 
L 415.152 125.663233 
" style="fill:none;stroke:#999999;stroke-linecap:round;stroke-width:1.3;"/>
     </g>
     <g id="line2d_20"/>
     <g id="text_11">
      <!-- $\mathdefault{10^{0}}$ -->
      <g style="fill:#262626;" transform="translate(51.107297 130.602218)scale(0.13 -0.13)">
       <use transform="translate(0 0.765625)" xlink:href="#DejaVuSans-31"/>
       <use transform="translate(63.623047 0.765625)" xlink:href="#DejaVuSans-30"/>
       <use transform="translate(128.203125 39.046875)scale(0.7)" xlink:href="#DejaVuSans-30"/>
      </g>
     </g>
    </g>
    <g id="ytick_5">
     <g id="line2d_21">
      <path clip-path="url(#p860122ec77)" d="M 83.087297 97.448965 
L 415.152 97.448965 
" style="fill:none;stroke:#999999;stroke-linecap:round;stroke-width:1.3;"/>
     </g>
     <g id="line2d_22"/>
     <g id="text_12">
      <!-- $\mathdefault{10^{3}}$ -->
      <g style="fill:#262626;" transform="translate(51.107297 102.387949)scale(0.13 -0.13)">
       <use transform="translate(0 0.765625)" xlink:href="#DejaVuSans-31"/>
       <use transform="translate(63.623047 0.765625)" xlink:href="#DejaVuSans-30"/>
       <use transform="translate(128.203125 39.046875)scale(0.7)" xlink:href="#DejaVuSans-33"/>
      </g>
     </g>
    </g>
    <g id="ytick_6">
     <g id="line2d_23">
      <path clip-path="url(#p860122ec77)" d="M 83.087297 69.234697 
L 415.152 69.234697 
" style="fill:none;stroke:#999999;stroke-linecap:round;stroke-width:1.3;"/>
     </g>
     <g id="line2d_24"/>
     <g id="text_13">
      <!-- $\mathdefault{10^{6}}$ -->
      <g style="fill:#262626;" transform="translate(51.107297 74.173681)scale(0.13 -0.13)">
       <use transform="translate(0 0.765625)" xlink:href="#DejaVuSans-31"/>
       <use transform="translate(63.623047 0.765625)" xlink:href="#DejaVuSans-30"/>
       <use transform="translate(128.203125 39.046875)scale(0.7)" xlink:href="#DejaVuSans-36"/>
      </g>
     </g>
    </g>
    <g id="ytick_7">
     <g id="line2d_25">
      <path clip-path="url(#p860122ec77)" d="M 83.087297 41.020428 
L 415.152 41.020428 
" style="fill:none;stroke:#999999;stroke-linecap:round;stroke-width:1.3;"/>
     </g>
     <g id="line2d_26"/>
     <g id="text_14">
      <!-- $\mathdefault{10^{9}}$ -->
      <g style="fill:#262626;" transform="translate(51.107297 45.959413)scale(0.13 -0.13)">
       <use transform="translate(0 0.765625)" xlink:href="#DejaVuSans-31"/>
       <use transform="translate(63.623047 0.765625)" xlink:href="#DejaVuSans-30"/>
       <use transform="translate(128.203125 39.046875)scale(0.7)" xlink:href="#DejaVuSans-39"/>
      </g>
     </g>
    </g>
    <g id="text_15">
     <!-- $\|\| x_k - x^* \|\|^2$ -->
     <defs>
      <path d="M 21 76.421875 
L 21 -23.578125 
L 12.703125 -23.578125 
L 12.703125 76.421875 
z
" id="DejaVuSans-7c"/>
      <path d="M 60.015625 54.6875 
L 34.90625 27.875 
L 50.296875 0 
L 39.984375 0 
L 28.421875 21.6875 
L 8.296875 0 
L -2.59375 0 
L 24.3125 28.8125 
L 10.015625 54.6875 
L 20.3125 54.6875 
L 30.8125 34.90625 
L 49.125 54.6875 
z
" id="DejaVuSans-Oblique-78"/>
      <path d="M 18.3125 75.984375 
L 27.296875 75.984375 
L 18.703125 31.6875 
L 49.515625 54.6875 
L 61.1875 54.6875 
L 26.8125 28.515625 
L 51.90625 0 
L 41.015625 0 
L 17.671875 26.703125 
L 12.5 0 
L 3.515625 0 
z
" id="DejaVuSans-Oblique-6b"/>
      <path d="M 47.015625 60.890625 
L 29.5 51.421875 
L 47.015625 41.890625 
L 44.1875 37.109375 
L 27.78125 47.015625 
L 27.78125 28.609375 
L 22.21875 28.609375 
L 22.21875 47.015625 
L 5.8125 37.109375 
L 2.984375 41.890625 
L 20.515625 51.421875 
L 2.984375 60.890625 
L 5.8125 65.71875 
L 22.21875 55.8125 
L 22.21875 74.21875 
L 27.78125 74.21875 
L 27.78125 55.8125 
L 44.1875 65.71875 
z
" id="DejaVuSans-2a"/>
     </defs>
     <g style="fill:#262626;" transform="translate(36.005297 171.3455)rotate(-90)scale(0.143 -0.143)">
      <use transform="translate(0 0.765625)" xlink:href="#DejaVuSans-7c"/>
      <use transform="translate(33.691406 0.765625)" xlink:href="#DejaVuSans-7c"/>
      <use transform="translate(67.382812 0.765625)" xlink:href="#DejaVuSans-Oblique-78"/>
      <use transform="translate(126.5625 -15.640625)scale(0.7)" xlink:href="#DejaVuSans-Oblique-6b"/>
      <use transform="translate(189.316406 0.765625)" xlink:href="#DejaVuSans-2212"/>
      <use transform="translate(292.587891 0.765625)" xlink:href="#DejaVuSans-Oblique-78"/>
      <use transform="translate(369.871419 39.046875)scale(0.7)" xlink:href="#DejaVuSans-2a"/>
      <use transform="translate(421.24349 0.765625)" xlink:href="#DejaVuSans-7c"/>
      <use transform="translate(454.934896 0.765625)" xlink:href="#DejaVuSans-7c"/>
      <use transform="translate(489.583333 39.046875)scale(0.7)" xlink:href="#DejaVuSans-32"/>
     </g>
    </g>
   </g>
   <g id="PolyCollection_1">
    <defs>
     <path d="M 98.181147 -244.18501 
L 98.181147 -244.18501 
L 98.770751 -244.17657 
L 99.360354 -244.083165 
L 99.949958 -243.931394 
L 100.539561 -243.682282 
L 101.129165 -243.440932 
L 101.718768 -243.174749 
L 102.308372 -242.965869 
L 102.897975 -242.651683 
L 103.487579 -242.351233 
L 104.077182 -242.045831 
L 104.666786 -241.80883 
L 105.256389 -241.493379 
L 105.845993 -241.159855 
L 106.435596 -240.690338 
L 107.0252 -240.483583 
L 107.614803 -240.240401 
L 108.204407 -240.052813 
L 108.79401 -239.707847 
L 109.383614 -239.382236 
L 109.973217 -239.036196 
L 110.562821 -238.528099 
L 111.152424 -238.013336 
L 111.742028 -237.656261 
L 112.331632 -237.425677 
L 112.921235 -237.114967 
L 113.510839 -236.794399 
L 114.100442 -236.439496 
L 114.690046 -236.230405 
L 115.279649 -235.928763 
L 115.869253 -235.563923 
L 116.458856 -235.155208 
L 117.04846 -234.793642 
L 117.638063 -234.473008 
L 118.227667 -234.034665 
L 118.81727 -233.693116 
L 119.406874 -233.343167 
L 119.996477 -233.151231 
L 120.586081 -232.613367 
L 121.175684 -232.229488 
L 121.765288 -231.926082 
L 122.354891 -231.571359 
L 122.944495 -231.304354 
L 123.534098 -230.954785 
L 124.123702 -230.661237 
L 124.713305 -230.22307 
L 125.302909 -229.835374 
L 125.892513 -229.563258 
L 126.482116 -229.252697 
L 127.07172 -228.890778 
L 127.661323 -228.395118 
L 128.250927 -228.135367 
L 128.84053 -227.883591 
L 129.430134 -227.607729 
L 130.019737 -227.335611 
L 130.609341 -227.015488 
L 131.198944 -226.748057 
L 131.788548 -226.200006 
L 132.378151 -225.691726 
L 132.967755 -225.176199 
L 133.557358 -224.847056 
L 134.146962 -224.479999 
L 134.736565 -224.209938 
L 135.326169 -223.74926 
L 135.915772 -223.359219 
L 136.505376 -223.028659 
L 137.094979 -222.616358 
L 137.684583 -222.324948 
L 138.274186 -221.967452 
L 138.86379 -221.679423 
L 139.453393 -221.21047 
L 140.042997 -220.88285 
L 140.632601 -220.58897 
L 141.222204 -220.245271 
L 141.811808 -219.62632 
L 142.401411 -219.402884 
L 142.991015 -219.221382 
L 143.580618 -218.835442 
L 144.170222 -218.509314 
L 144.759825 -218.209567 
L 145.349429 -217.71561 
L 145.939032 -217.31923 
L 146.528636 -216.832054 
L 147.118239 -216.458846 
L 147.707843 -216.149098 
L 148.297446 -215.828355 
L 148.88705 -215.424492 
L 149.476653 -214.842654 
L 150.066257 -214.230973 
L 150.65586 -213.968172 
L 151.245464 -213.729139 
L 151.835067 -213.226856 
L 152.424671 -212.863182 
L 153.014274 -212.454011 
L 153.603878 -212.228365 
L 154.193482 -211.577425 
L 154.783085 -211.522951 
L 155.372689 -211.118559 
L 155.962292 -210.747666 
L 156.551896 -210.490925 
L 157.141499 -210.261081 
L 157.731103 -209.891112 
L 158.320706 -209.406784 
L 158.91031 -208.626132 
L 159.499913 -208.380357 
L 160.089517 -208.246047 
L 160.67912 -207.888108 
L 161.268724 -207.490448 
L 161.858327 -207.03746 
L 162.447931 -206.51259 
L 163.037534 -205.978763 
L 163.627138 -205.65132 
L 164.216741 -205.199366 
L 164.806345 -204.705774 
L 165.395948 -204.442638 
L 165.985552 -204.093244 
L 166.575155 -203.913748 
L 167.164759 -203.57101 
L 167.754363 -203.422702 
L 168.343966 -202.878905 
L 168.93357 -202.414835 
L 169.523173 -202.161877 
L 170.112777 -201.763498 
L 170.70238 -201.531027 
L 171.291984 -200.886856 
L 171.881587 -200.533109 
L 172.471191 -200.35922 
L 173.060794 -199.907891 
L 173.650398 -199.517553 
L 174.240001 -199.081387 
L 174.829605 -198.659206 
L 175.419208 -198.298743 
L 176.008812 -197.947995 
L 176.598415 -197.783678 
L 177.188019 -197.303077 
L 177.777622 -196.787443 
L 178.367226 -196.317803 
L 178.956829 -196.101519 
L 179.546433 -195.830956 
L 180.136036 -195.462889 
L 180.72564 -194.896558 
L 181.315244 -194.631037 
L 181.904847 -194.028129 
L 182.494451 -193.526245 
L 183.084054 -193.262926 
L 183.673658 -192.785788 
L 184.263261 -192.141232 
L 184.852865 -191.935557 
L 185.442468 -191.4447 
L 186.032072 -191.072288 
L 186.621675 -190.741978 
L 187.211279 -190.392404 
L 187.800882 -190.110069 
L 188.390486 -189.879376 
L 188.980089 -189.564803 
L 189.569693 -189.155193 
L 190.159296 -188.89354 
L 190.7489 -188.560889 
L 191.338503 -187.75862 
L 191.928107 -187.228128 
L 192.51771 -186.844475 
L 193.107314 -186.421397 
L 193.696917 -186.282059 
L 194.286521 -185.859558 
L 194.876124 -185.172793 
L 195.465728 -184.857334 
L 196.055332 -184.678495 
L 196.644935 -184.016507 
L 197.234539 -183.531253 
L 197.824142 -183.214112 
L 198.413746 -183.027125 
L 199.003349 -182.725071 
L 199.592953 -182.055408 
L 200.182556 -181.847289 
L 200.77216 -181.357369 
L 201.361763 -180.996438 
L 201.951367 -180.445923 
L 202.54097 -179.981987 
L 203.130574 -179.863573 
L 203.720177 -179.376575 
L 204.309781 -179.051306 
L 204.899384 -178.398643 
L 205.488988 -178.086367 
L 206.078591 -177.835187 
L 206.668195 -177.512069 
L 207.257798 -177.280561 
L 207.847402 -176.768633 
L 208.437005 -176.572243 
L 209.026609 -176.108674 
L 209.616213 -175.923874 
L 210.205816 -175.449457 
L 210.79542 -175.288399 
L 211.385023 -175.134363 
L 211.974627 -174.479507 
L 212.56423 -173.98186 
L 213.153834 -173.485985 
L 213.743437 -173.186675 
L 214.333041 -172.692928 
L 214.922644 -172.4931 
L 215.512248 -172.244276 
L 216.101851 -172.05334 
L 216.691455 -171.889437 
L 217.281058 -171.62382 
L 217.870662 -171.358452 
L 218.460265 -170.936401 
L 219.049869 -170.406026 
L 219.639472 -170.099202 
L 220.229076 -169.883686 
L 220.818679 -169.568735 
L 221.408283 -169.263962 
L 221.997886 -168.722783 
L 222.58749 -168.518203 
L 223.177094 -168.36617 
L 223.766697 -168.121371 
L 224.356301 -167.76692 
L 224.945904 -167.375305 
L 225.535508 -167.27706 
L 226.125111 -166.768735 
L 226.714715 -166.590827 
L 227.304318 -166.534189 
L 227.893922 -166.509642 
L 228.483525 -166.566322 
L 229.073129 -166.334105 
L 229.662732 -166.159292 
L 230.252336 -166.072084 
L 230.841939 -165.743378 
L 231.431543 -165.910521 
L 232.021146 -165.757401 
L 232.61075 -165.70037 
L 233.200353 -165.594526 
L 233.789957 -165.536989 
L 234.37956 -165.329717 
L 234.969164 -165.172887 
L 235.558767 -165.128209 
L 236.148371 -165.045137 
L 236.737974 -164.942377 
L 237.327578 -164.846659 
L 237.917182 -164.751527 
L 238.506785 -164.636246 
L 239.096389 -164.69828 
L 239.685992 -164.87736 
L 240.275596 -164.935354 
L 240.865199 -164.99742 
L 241.454803 -164.965056 
L 242.044406 -164.93676 
L 242.63401 -164.789663 
L 243.223613 -164.741354 
L 243.813217 -164.704415 
L 244.40282 -164.765338 
L 244.992424 -164.625485 
L 245.582027 -164.651988 
L 246.171631 -164.526329 
L 246.761234 -164.595158 
L 247.350838 -164.606103 
L 247.940441 -164.515864 
L 248.530045 -164.474706 
L 249.119648 -164.459332 
L 249.709252 -164.305932 
L 250.298855 -164.395166 
L 250.888459 -164.399216 
L 251.478063 -164.361547 
L 252.067666 -164.536576 
L 252.65727 -164.721064 
L 253.246873 -164.684911 
L 253.836477 -164.591441 
L 254.42608 -164.43788 
L 255.015684 -164.411114 
L 255.605287 -164.366462 
L 256.194891 -164.28875 
L 256.784494 -164.300547 
L 257.374098 -164.339823 
L 257.963701 -164.612753 
L 258.553305 -164.479994 
L 259.142908 -164.536884 
L 259.732512 -164.488639 
L 260.322115 -164.631617 
L 260.911719 -164.657124 
L 261.501322 -164.657699 
L 262.090926 -164.515455 
L 262.680529 -164.537597 
L 263.270133 -164.6119 
L 263.859736 -164.549356 
L 264.44934 -164.541692 
L 265.038944 -164.30217 
L 265.628547 -164.248195 
L 266.218151 -164.430225 
L 266.807754 -164.427432 
L 267.397358 -164.421486 
L 267.986961 -164.373441 
L 268.576565 -164.352312 
L 269.166168 -164.297336 
L 269.755772 -164.374928 
L 270.345375 -164.279008 
L 270.934979 -164.361885 
L 271.524582 -164.447763 
L 272.114186 -164.386197 
L 272.703789 -164.457185 
L 273.293393 -164.213752 
L 273.882996 -164.265595 
L 274.4726 -164.313558 
L 275.062203 -164.614981 
L 275.651807 -164.534917 
L 276.24141 -164.4018 
L 276.831014 -164.498306 
L 277.420617 -164.498647 
L 278.010221 -164.452161 
L 278.599824 -164.503277 
L 279.189428 -164.645327 
L 279.779032 -164.634387 
L 280.368635 -164.734758 
L 280.958239 -164.674838 
L 281.547842 -164.704459 
L 282.137446 -164.821078 
L 282.727049 -164.865342 
L 283.316653 -164.8762 
L 283.906256 -164.822624 
L 284.49586 -164.822487 
L 285.085463 -164.763611 
L 285.675067 -164.715178 
L 286.26467 -164.443521 
L 286.854274 -164.488662 
L 287.443877 -164.501682 
L 288.033481 -164.455703 
L 288.623084 -164.539334 
L 289.212688 -164.697077 
L 289.802291 -164.662521 
L 290.391895 -164.843794 
L 290.981498 -164.672456 
L 291.571102 -164.738025 
L 292.160705 -164.754787 
L 292.750309 -164.519653 
L 293.339913 -164.521739 
L 293.929516 -164.460372 
L 294.51912 -164.287283 
L 295.108723 -164.308839 
L 295.698327 -164.63373 
L 296.28793 -164.68469 
L 296.877534 -164.627609 
L 297.467137 -164.637965 
L 298.056741 -164.541558 
L 298.646344 -164.527169 
L 299.235948 -164.544212 
L 299.825551 -164.529391 
L 300.415155 -164.679979 
L 301.004758 -164.700976 
L 301.594362 -164.532573 
L 302.183965 -164.689153 
L 302.773569 -164.788994 
L 303.363172 -164.644975 
L 303.952776 -164.466621 
L 304.542379 -164.387197 
L 305.131983 -164.357709 
L 305.721586 -164.252084 
L 306.31119 -164.426888 
L 306.900794 -164.272899 
L 307.490397 -164.203786 
L 308.080001 -164.336515 
L 308.669604 -164.417031 
L 309.259208 -164.267846 
L 309.848811 -164.155361 
L 310.438415 -164.180056 
L 311.028018 -164.146394 
L 311.617622 -164.18494 
L 312.207225 -164.167041 
L 312.796829 -164.183992 
L 313.386432 -164.231807 
L 313.976036 -164.415945 
L 314.565639 -164.364742 
L 315.155243 -164.492464 
L 315.744846 -164.402947 
L 316.33445 -164.375948 
L 316.924053 -164.423081 
L 317.513657 -164.394178 
L 318.10326 -164.442075 
L 318.692864 -164.309971 
L 319.282467 -164.568421 
L 319.872071 -164.437387 
L 320.461674 -164.589501 
L 321.051278 -164.498623 
L 321.640882 -164.38885 
L 322.230485 -164.539641 
L 322.820089 -164.489431 
L 323.409692 -164.275169 
L 323.999296 -164.444351 
L 324.588899 -164.612652 
L 325.178503 -164.588722 
L 325.768106 -164.810033 
L 326.35771 -164.828381 
L 326.947313 -164.552385 
L 327.536917 -164.459753 
L 328.12652 -164.339562 
L 328.716124 -164.514181 
L 329.305727 -164.493368 
L 329.895331 -164.616146 
L 330.484934 -164.541283 
L 331.074538 -164.613852 
L 331.664141 -164.551505 
L 332.253745 -164.702574 
L 332.843348 -164.55257 
L 333.432952 -164.574309 
L 334.022555 -164.660688 
L 334.612159 -164.71038 
L 335.201763 -164.687412 
L 335.791366 -164.500292 
L 336.38097 -164.383562 
L 336.970573 -164.503318 
L 337.560177 -164.245462 
L 338.14978 -164.280449 
L 338.739384 -164.291567 
L 339.328987 -164.252895 
L 339.918591 -164.227812 
L 340.508194 -164.372652 
L 341.097798 -164.441192 
L 341.687401 -164.423629 
L 342.277005 -164.365027 
L 342.866608 -164.367259 
L 343.456212 -164.34034 
L 344.045815 -164.524401 
L 344.635419 -164.692131 
L 345.225022 -164.780935 
L 345.814626 -164.786979 
L 346.404229 -164.745034 
L 346.993833 -164.577909 
L 347.583436 -164.606787 
L 348.17304 -164.456194 
L 348.762644 -164.44248 
L 349.352247 -164.630964 
L 349.941851 -164.540836 
L 350.531454 -164.492883 
L 351.121058 -164.509927 
L 351.710661 -164.560161 
L 352.300265 -164.596565 
L 352.889868 -164.537443 
L 353.479472 -164.59368 
L 354.069075 -164.49345 
L 354.658679 -164.444016 
L 355.248282 -164.305665 
L 355.837886 -164.294692 
L 356.427489 -164.269361 
L 357.017093 -164.567014 
L 357.606696 -164.561704 
L 358.1963 -164.748396 
L 358.785903 -164.598892 
L 359.375507 -164.733847 
L 359.96511 -164.598656 
L 360.554714 -164.533475 
L 361.144317 -164.19896 
L 361.733921 -164.381019 
L 362.323525 -164.152454 
L 362.913128 -164.389166 
L 363.502732 -164.384205 
L 364.092335 -164.436796 
L 364.681939 -164.540786 
L 365.271542 -164.576916 
L 365.861146 -164.527154 
L 366.450749 -164.377084 
L 367.040353 -164.446529 
L 367.629956 -164.411157 
L 368.21956 -164.480712 
L 368.809163 -164.524539 
L 369.398767 -164.547545 
L 369.98837 -164.561895 
L 370.577974 -164.510745 
L 371.167577 -164.464644 
L 371.757181 -164.371982 
L 372.346784 -164.472855 
L 372.936388 -164.758533 
L 373.525991 -164.759207 
L 374.115595 -164.756278 
L 374.705198 -164.629264 
L 375.294802 -164.697967 
L 375.884405 -164.656264 
L 376.474009 -164.729448 
L 377.063613 -164.757352 
L 377.653216 -164.45182 
L 378.24282 -164.516755 
L 378.832423 -164.390573 
L 379.422027 -164.549284 
L 380.01163 -164.431036 
L 380.601234 -164.532355 
L 381.190837 -164.479985 
L 381.780441 -164.413156 
L 382.370044 -164.527686 
L 382.959648 -164.498019 
L 383.549251 -164.52366 
L 384.138855 -164.520539 
L 384.728458 -164.479846 
L 385.318062 -164.452687 
L 385.907665 -164.61365 
L 386.497269 -164.702339 
L 387.086872 -164.655717 
L 387.676476 -164.567712 
L 388.266079 -164.490575 
L 388.855683 -164.404681 
L 389.445286 -164.453787 
L 390.03489 -164.438113 
L 390.624494 -164.40264 
L 391.214097 -164.371554 
L 391.803701 -164.370275 
L 392.393304 -164.444537 
L 392.982908 -164.44224 
L 393.572511 -164.550177 
L 394.162115 -164.481588 
L 394.751718 -164.577453 
L 395.341322 -164.410881 
L 395.930925 -164.393485 
L 396.520529 -164.408994 
L 397.110132 -164.544834 
L 397.699736 -164.540916 
L 398.289339 -164.523049 
L 398.878943 -164.544937 
L 399.468546 -164.608628 
L 400.05815 -164.415003 
L 400.05815 -157.571875 
L 400.05815 -157.571875 
L 399.468546 -157.420679 
L 398.878943 -157.466899 
L 398.289339 -157.61805 
L 397.699736 -157.379344 
L 397.110132 -157.537594 
L 396.520529 -157.535249 
L 395.930925 -157.293658 
L 395.341322 -157.259859 
L 394.751718 -157.300799 
L 394.162115 -157.274727 
L 393.572511 -157.228109 
L 392.982908 -157.247124 
L 392.393304 -157.495963 
L 391.803701 -157.630234 
L 391.214097 -157.583787 
L 390.624494 -157.390554 
L 390.03489 -157.432937 
L 389.445286 -157.409003 
L 388.855683 -157.534725 
L 388.266079 -157.308011 
L 387.676476 -157.350913 
L 387.086872 -157.477436 
L 386.497269 -157.774593 
L 385.907665 -157.871905 
L 385.318062 -157.768103 
L 384.728458 -157.787449 
L 384.138855 -157.853204 
L 383.549251 -157.784542 
L 382.959648 -157.714429 
L 382.370044 -157.706862 
L 381.780441 -157.826316 
L 381.190837 -157.571496 
L 380.601234 -157.536107 
L 380.01163 -157.571611 
L 379.422027 -157.663642 
L 378.832423 -157.558133 
L 378.24282 -157.800763 
L 377.653216 -157.587746 
L 377.063613 -157.492092 
L 376.474009 -157.325548 
L 375.884405 -157.296352 
L 375.294802 -157.090352 
L 374.705198 -157.317196 
L 374.115595 -157.443193 
L 373.525991 -157.81565 
L 372.936388 -157.393681 
L 372.346784 -157.476675 
L 371.757181 -157.361322 
L 371.167577 -157.256829 
L 370.577974 -157.477772 
L 369.98837 -157.343166 
L 369.398767 -157.507159 
L 368.809163 -157.442504 
L 368.21956 -157.576743 
L 367.629956 -157.341935 
L 367.040353 -157.282859 
L 366.450749 -157.338447 
L 365.861146 -157.254604 
L 365.271542 -157.295142 
L 364.681939 -157.416551 
L 364.092335 -157.452795 
L 363.502732 -157.364512 
L 362.913128 -157.573538 
L 362.323525 -157.328466 
L 361.733921 -157.265174 
L 361.144317 -157.462127 
L 360.554714 -157.427019 
L 359.96511 -157.426997 
L 359.375507 -157.602034 
L 358.785903 -157.685244 
L 358.1963 -157.437417 
L 357.606696 -157.444685 
L 357.017093 -157.181548 
L 356.427489 -157.466776 
L 355.837886 -157.199423 
L 355.248282 -157.348116 
L 354.658679 -157.448592 
L 354.069075 -157.26494 
L 353.479472 -157.363901 
L 352.889868 -157.515899 
L 352.300265 -157.281169 
L 351.710661 -157.656535 
L 351.121058 -157.7507 
L 350.531454 -157.603397 
L 349.941851 -157.53346 
L 349.352247 -157.442906 
L 348.762644 -157.434548 
L 348.17304 -157.68072 
L 347.583436 -157.558979 
L 346.993833 -157.392338 
L 346.404229 -157.600066 
L 345.814626 -157.490994 
L 345.225022 -157.431145 
L 344.635419 -157.343075 
L 344.045815 -157.477943 
L 343.456212 -157.656529 
L 342.866608 -157.574512 
L 342.277005 -157.513984 
L 341.687401 -157.303646 
L 341.097798 -157.502713 
L 340.508194 -157.45087 
L 339.918591 -157.56858 
L 339.328987 -157.85929 
L 338.739384 -157.895318 
L 338.14978 -157.686373 
L 337.560177 -157.638646 
L 336.970573 -157.755044 
L 336.38097 -157.655835 
L 335.791366 -157.627931 
L 335.201763 -157.454905 
L 334.612159 -157.55113 
L 334.022555 -157.641131 
L 333.432952 -157.368877 
L 332.843348 -157.409581 
L 332.253745 -157.30869 
L 331.664141 -157.429371 
L 331.074538 -157.659937 
L 330.484934 -157.5599 
L 329.895331 -157.495693 
L 329.305727 -157.507159 
L 328.716124 -157.683189 
L 328.12652 -157.661431 
L 327.536917 -157.739428 
L 326.947313 -157.790352 
L 326.35771 -157.927139 
L 325.768106 -157.967717 
L 325.178503 -157.86735 
L 324.588899 -157.960405 
L 323.999296 -157.693714 
L 323.409692 -157.545198 
L 322.820089 -157.612686 
L 322.230485 -157.634947 
L 321.640882 -157.716368 
L 321.051278 -157.770396 
L 320.461674 -157.559739 
L 319.872071 -157.783406 
L 319.282467 -157.760343 
L 318.692864 -157.60799 
L 318.10326 -157.756478 
L 317.513657 -157.688984 
L 316.924053 -157.523243 
L 316.33445 -157.540281 
L 315.744846 -157.49273 
L 315.155243 -157.445819 
L 314.565639 -157.560498 
L 313.976036 -157.587632 
L 313.386432 -157.65066 
L 312.796829 -157.297408 
L 312.207225 -157.278522 
L 311.617622 -157.522471 
L 311.028018 -157.312377 
L 310.438415 -157.386268 
L 309.848811 -157.452245 
L 309.259208 -157.532597 
L 308.669604 -157.464346 
L 308.080001 -157.476727 
L 307.490397 -157.597777 
L 306.900794 -157.325997 
L 306.31119 -157.483724 
L 305.721586 -157.530573 
L 305.131983 -157.614328 
L 304.542379 -157.648773 
L 303.952776 -157.552103 
L 303.363172 -157.534274 
L 302.773569 -157.489348 
L 302.183965 -157.385979 
L 301.594362 -157.573232 
L 301.004758 -157.469683 
L 300.415155 -157.241827 
L 299.825551 -157.426787 
L 299.235948 -157.647438 
L 298.646344 -157.416265 
L 298.056741 -157.176134 
L 297.467137 -157.22253 
L 296.877534 -157.272811 
L 296.28793 -157.493972 
L 295.698327 -157.583805 
L 295.108723 -157.493447 
L 294.51912 -157.401899 
L 293.929516 -157.240778 
L 293.339913 -157.317418 
L 292.750309 -157.389892 
L 292.160705 -157.348525 
L 291.571102 -157.470921 
L 290.981498 -157.216283 
L 290.391895 -157.397923 
L 289.802291 -157.255671 
L 289.212688 -157.271136 
L 288.623084 -157.246038 
L 288.033481 -157.393866 
L 287.443877 -157.337224 
L 286.854274 -157.351176 
L 286.26467 -157.106304 
L 285.675067 -157.46165 
L 285.085463 -157.363235 
L 284.49586 -157.52107 
L 283.906256 -157.471011 
L 283.316653 -157.511983 
L 282.727049 -157.674874 
L 282.137446 -157.653984 
L 281.547842 -157.746106 
L 280.958239 -157.864717 
L 280.368635 -157.571897 
L 279.779032 -157.697188 
L 279.189428 -157.686806 
L 278.599824 -157.598941 
L 278.010221 -157.75732 
L 277.420617 -157.701481 
L 276.831014 -157.469593 
L 276.24141 -157.564258 
L 275.651807 -157.824727 
L 275.062203 -157.886985 
L 274.4726 -157.728286 
L 273.882996 -157.71452 
L 273.293393 -157.617101 
L 272.703789 -157.610653 
L 272.114186 -157.517644 
L 271.524582 -157.2531 
L 270.934979 -157.496774 
L 270.345375 -157.356244 
L 269.755772 -157.369382 
L 269.166168 -157.506067 
L 268.576565 -157.313073 
L 267.986961 -157.424598 
L 267.397358 -157.627979 
L 266.807754 -157.477797 
L 266.218151 -157.593662 
L 265.628547 -157.497135 
L 265.038944 -157.550797 
L 264.44934 -157.66139 
L 263.859736 -157.654426 
L 263.270133 -157.611658 
L 262.680529 -157.287478 
L 262.090926 -157.48904 
L 261.501322 -157.386657 
L 260.911719 -157.047421 
L 260.322115 -157.179249 
L 259.732512 -157.256067 
L 259.142908 -157.433228 
L 258.553305 -157.474061 
L 257.963701 -157.652952 
L 257.374098 -157.566866 
L 256.784494 -157.318963 
L 256.194891 -157.460875 
L 255.605287 -157.456326 
L 255.015684 -157.505332 
L 254.42608 -157.383014 
L 253.836477 -157.55013 
L 253.246873 -157.297966 
L 252.65727 -157.477568 
L 252.067666 -157.622304 
L 251.478063 -157.442547 
L 250.888459 -157.610816 
L 250.298855 -157.320185 
L 249.709252 -157.565508 
L 249.119648 -157.418103 
L 248.530045 -157.769503 
L 247.940441 -157.539592 
L 247.350838 -157.734985 
L 246.761234 -157.519516 
L 246.171631 -157.571859 
L 245.582027 -157.675772 
L 244.992424 -157.290975 
L 244.40282 -157.368846 
L 243.813217 -157.657935 
L 243.223613 -157.564466 
L 242.63401 -157.419995 
L 242.044406 -157.402978 
L 241.454803 -157.556172 
L 240.865199 -157.444857 
L 240.275596 -157.574423 
L 239.685992 -157.524894 
L 239.096389 -157.553493 
L 238.506785 -157.505091 
L 237.917182 -157.691412 
L 237.327578 -157.604623 
L 236.737974 -157.604623 
L 236.148371 -157.596415 
L 235.558767 -157.892039 
L 234.969164 -157.88491 
L 234.37956 -157.839187 
L 233.789957 -158.04163 
L 233.200353 -158.049979 
L 232.61075 -157.985408 
L 232.021146 -157.8592 
L 231.431543 -157.604532 
L 230.841939 -157.5255 
L 230.252336 -157.401376 
L 229.662732 -157.421098 
L 229.073129 -157.349511 
L 228.483525 -157.481755 
L 227.893922 -157.5551 
L 227.304318 -157.661991 
L 226.714715 -157.61376 
L 226.125111 -157.564867 
L 225.535508 -157.629473 
L 224.945904 -157.714245 
L 224.356301 -158.01671 
L 223.766697 -157.958396 
L 223.177094 -157.956449 
L 222.58749 -158.18589 
L 221.997886 -158.258268 
L 221.408283 -158.304861 
L 220.818679 -158.352378 
L 220.229076 -158.162448 
L 219.639472 -158.182204 
L 219.049869 -158.432865 
L 218.460265 -158.623199 
L 217.870662 -158.475825 
L 217.281058 -158.714411 
L 216.691455 -158.857986 
L 216.101851 -158.661148 
L 215.512248 -158.671108 
L 214.922644 -158.668162 
L 214.333041 -158.637198 
L 213.743437 -158.774324 
L 213.153834 -158.869332 
L 212.56423 -158.860468 
L 211.974627 -158.707825 
L 211.385023 -158.891792 
L 210.79542 -159.285065 
L 210.205816 -159.082178 
L 209.616213 -159.235291 
L 209.026609 -159.219314 
L 208.437005 -159.449265 
L 207.847402 -159.421015 
L 207.257798 -159.500066 
L 206.668195 -159.572275 
L 206.078591 -159.585536 
L 205.488988 -159.65582 
L 204.899384 -159.896994 
L 204.309781 -160.101185 
L 203.720177 -160.116195 
L 203.130574 -160.163868 
L 202.54097 -160.235881 
L 201.951367 -160.465847 
L 201.361763 -160.553286 
L 200.77216 -160.653884 
L 200.182556 -160.900857 
L 199.592953 -161.070975 
L 199.003349 -161.288982 
L 198.413746 -161.362741 
L 197.824142 -161.305709 
L 197.234539 -161.656458 
L 196.644935 -161.847146 
L 196.055332 -162.239056 
L 195.465728 -162.206952 
L 194.876124 -162.439122 
L 194.286521 -162.421741 
L 193.696917 -162.6112 
L 193.107314 -162.681096 
L 192.51771 -162.802672 
L 191.928107 -162.861922 
L 191.338503 -163.273199 
L 190.7489 -163.424214 
L 190.159296 -163.787572 
L 189.569693 -163.886341 
L 188.980089 -164.554556 
L 188.390486 -164.776259 
L 187.800882 -165.179392 
L 187.211279 -165.779114 
L 186.621675 -165.933281 
L 186.032072 -166.093172 
L 185.442468 -166.531812 
L 184.852865 -166.840271 
L 184.263261 -167.134385 
L 183.673658 -167.246134 
L 183.084054 -167.716912 
L 182.494451 -168.356838 
L 181.904847 -168.589218 
L 181.315244 -168.975643 
L 180.72564 -169.30734 
L 180.136036 -169.849288 
L 179.546433 -170.25961 
L 178.956829 -170.334469 
L 178.367226 -170.720306 
L 177.777622 -171.070742 
L 177.188019 -171.48798 
L 176.598415 -171.972433 
L 176.008812 -172.24935 
L 175.419208 -173.130431 
L 174.829605 -173.460718 
L 174.240001 -173.778951 
L 173.650398 -174.466968 
L 173.060794 -175.063401 
L 172.471191 -175.720303 
L 171.881587 -176.140871 
L 171.291984 -176.30394 
L 170.70238 -176.607001 
L 170.112777 -177.14287 
L 169.523173 -177.632561 
L 168.93357 -178.428307 
L 168.343966 -178.539472 
L 167.754363 -179.056734 
L 167.164759 -179.684794 
L 166.575155 -179.922398 
L 165.985552 -180.299017 
L 165.395948 -180.592274 
L 164.806345 -181.458996 
L 164.216741 -182.03974 
L 163.627138 -182.825857 
L 163.037534 -183.371259 
L 162.447931 -183.688369 
L 161.858327 -184.089411 
L 161.268724 -184.575543 
L 160.67912 -184.930924 
L 160.089517 -185.44239 
L 159.499913 -185.914055 
L 158.91031 -186.303535 
L 158.320706 -187.097846 
L 157.731103 -187.620792 
L 157.141499 -188.113715 
L 156.551896 -188.174568 
L 155.962292 -188.679659 
L 155.372689 -189.462738 
L 154.783085 -189.888375 
L 154.193482 -190.178373 
L 153.603878 -190.406174 
L 153.014274 -190.962954 
L 152.424671 -191.34687 
L 151.835067 -192.389888 
L 151.245464 -192.70535 
L 150.65586 -193.692113 
L 150.066257 -193.966186 
L 149.476653 -194.584982 
L 148.88705 -194.923691 
L 148.297446 -195.508525 
L 147.707843 -195.909293 
L 147.118239 -196.373368 
L 146.528636 -196.779556 
L 145.939032 -197.136395 
L 145.349429 -197.761987 
L 144.759825 -198.134882 
L 144.170222 -198.488155 
L 143.580618 -199.226265 
L 142.991015 -199.673196 
L 142.401411 -200.383819 
L 141.811808 -200.954646 
L 141.222204 -201.271773 
L 140.632601 -201.676522 
L 140.042997 -201.972103 
L 139.453393 -202.542869 
L 138.86379 -203.150478 
L 138.274186 -203.888635 
L 137.684583 -204.347857 
L 137.094979 -205.102047 
L 136.505376 -205.443755 
L 135.915772 -206.066065 
L 135.326169 -206.305455 
L 134.736565 -206.869536 
L 134.146962 -207.379969 
L 133.557358 -208.026969 
L 132.967755 -208.369796 
L 132.378151 -208.731476 
L 131.788548 -209.189998 
L 131.198944 -209.631244 
L 130.609341 -210.165583 
L 130.019737 -210.802756 
L 129.430134 -211.143339 
L 128.84053 -211.540119 
L 128.250927 -211.879158 
L 127.661323 -212.345062 
L 127.07172 -212.786885 
L 126.482116 -213.268762 
L 125.892513 -213.679976 
L 125.302909 -214.889505 
L 124.713305 -215.387351 
L 124.123702 -215.669868 
L 123.534098 -216.597912 
L 122.944495 -216.882027 
L 122.354891 -217.48074 
L 121.765288 -217.806187 
L 121.175684 -218.408696 
L 120.586081 -218.85783 
L 119.996477 -219.354189 
L 119.406874 -219.638847 
L 118.81727 -220.71563 
L 118.227667 -220.989571 
L 117.638063 -221.489756 
L 117.04846 -222.024667 
L 116.458856 -222.541237 
L 115.869253 -223.271045 
L 115.279649 -223.68755 
L 114.690046 -224.248422 
L 114.100442 -224.719031 
L 113.510839 -225.113358 
L 112.921235 -225.711732 
L 112.331632 -226.130958 
L 111.742028 -226.709065 
L 111.152424 -227.002396 
L 110.562821 -227.836098 
L 109.973217 -228.505068 
L 109.383614 -228.967191 
L 108.79401 -229.499992 
L 108.204407 -229.839973 
L 107.614803 -230.780607 
L 107.0252 -231.268377 
L 106.435596 -231.630167 
L 105.845993 -232.479744 
L 105.256389 -233.091891 
L 104.666786 -233.553603 
L 104.077182 -234.032914 
L 103.487579 -234.950513 
L 102.897975 -235.525578 
L 102.308372 -236.197087 
L 101.718768 -236.813043 
L 101.129165 -237.513698 
L 100.539561 -238.122692 
L 99.949958 -239.432401 
L 99.360354 -240.230834 
L 98.770751 -242.190238 
L 98.181147 -244.18501 
z
" id="md5c3ac2e6a" style="stroke:#1f77b4;stroke-opacity:0.2;stroke-width:0.39;"/>
    </defs>
    <g clip-path="url(#p860122ec77)">
     <use style="fill:#1f77b4;fill-opacity:0.2;stroke:#1f77b4;stroke-opacity:0.2;stroke-width:0.39;" x="0" xlink:href="#md5c3ac2e6a" y="288"/>
    </g>
   </g>
   <g id="PolyCollection_2">
    <defs>
     <path d="M 98.181147 -244.18501 
L 98.181147 -244.18501 
L 98.770751 -244.233636 
L 99.360354 -244.164235 
L 99.949958 -244.034318 
L 100.539561 -243.90602 
L 101.129165 -243.690503 
L 101.718768 -243.552119 
L 102.308372 -243.315022 
L 102.897975 -243.046879 
L 103.487579 -242.844499 
L 104.077182 -242.561645 
L 104.666786 -242.430257 
L 105.256389 -242.070531 
L 105.845993 -241.722562 
L 106.435596 -241.534105 
L 107.0252 -241.236939 
L 107.614803 -240.92178 
L 108.204407 -240.729352 
L 108.79401 -240.482697 
L 109.383614 -240.215845 
L 109.973217 -239.942095 
L 110.562821 -239.648795 
L 111.152424 -239.358675 
L 111.742028 -239.139153 
L 112.331632 -238.863817 
L 112.921235 -238.447405 
L 113.510839 -238.082644 
L 114.100442 -237.713178 
L 114.690046 -237.496701 
L 115.279649 -237.225876 
L 115.869253 -237.026059 
L 116.458856 -236.730059 
L 117.04846 -236.443251 
L 117.638063 -236.217578 
L 118.227667 -235.890358 
L 118.81727 -235.548116 
L 119.406874 -235.264601 
L 119.996477 -235.072056 
L 120.586081 -234.849242 
L 121.175684 -234.604649 
L 121.765288 -234.280145 
L 122.354891 -233.903375 
L 122.944495 -233.73619 
L 123.534098 -233.572604 
L 124.123702 -233.332917 
L 124.713305 -233.083138 
L 125.302909 -232.769397 
L 125.892513 -232.512329 
L 126.482116 -232.295764 
L 127.07172 -231.866577 
L 127.661323 -231.731826 
L 128.250927 -231.457588 
L 128.84053 -231.221399 
L 129.430134 -231.059081 
L 130.019737 -230.702859 
L 130.609341 -230.448728 
L 131.198944 -230.114307 
L 131.788548 -229.901775 
L 132.378151 -229.604519 
L 132.967755 -229.273199 
L 133.557358 -228.976333 
L 134.146962 -228.901471 
L 134.736565 -228.572127 
L 135.326169 -228.26055 
L 135.915772 -228.147057 
L 136.505376 -227.837359 
L 137.094979 -227.457305 
L 137.684583 -227.29542 
L 138.274186 -227.117388 
L 138.86379 -226.852475 
L 139.453393 -226.554126 
L 140.042997 -226.460811 
L 140.632601 -226.190884 
L 141.222204 -225.983953 
L 141.811808 -225.350076 
L 142.401411 -225.276857 
L 142.991015 -225.023356 
L 143.580618 -224.887138 
L 144.170222 -224.498742 
L 144.759825 -224.318593 
L 145.349429 -223.979292 
L 145.939032 -223.867172 
L 146.528636 -223.667389 
L 147.118239 -223.256019 
L 147.707843 -223.110592 
L 148.297446 -222.961887 
L 148.88705 -222.497393 
L 149.476653 -222.327372 
L 150.066257 -222.130387 
L 150.65586 -221.972546 
L 151.245464 -221.782956 
L 151.835067 -221.555484 
L 152.424671 -221.436446 
L 153.014274 -221.12731 
L 153.603878 -220.762191 
L 154.193482 -220.603109 
L 154.783085 -220.404023 
L 155.372689 -220.179621 
L 155.962292 -219.88688 
L 156.551896 -219.626971 
L 157.141499 -219.338235 
L 157.731103 -219.221591 
L 158.320706 -218.76609 
L 158.91031 -218.453795 
L 159.499913 -218.136123 
L 160.089517 -217.958417 
L 160.67912 -217.575869 
L 161.268724 -217.349462 
L 161.858327 -217.055015 
L 162.447931 -216.968044 
L 163.037534 -216.744593 
L 163.627138 -216.486735 
L 164.216741 -216.146409 
L 164.806345 -216.019094 
L 165.395948 -215.551532 
L 165.985552 -215.455764 
L 166.575155 -215.137753 
L 167.164759 -214.900224 
L 167.754363 -214.68785 
L 168.343966 -214.442327 
L 168.93357 -214.321549 
L 169.523173 -213.922593 
L 170.112777 -213.701766 
L 170.70238 -213.41741 
L 171.291984 -213.256472 
L 171.881587 -212.920434 
L 172.471191 -212.609465 
L 173.060794 -212.196792 
L 173.650398 -212.02868 
L 174.240001 -211.668649 
L 174.829605 -211.439708 
L 175.419208 -211.124124 
L 176.008812 -211.018977 
L 176.598415 -210.72931 
L 177.188019 -210.523706 
L 177.777622 -210.347276 
L 178.367226 -209.982847 
L 178.956829 -209.929312 
L 179.546433 -209.541667 
L 180.136036 -209.339542 
L 180.72564 -208.792025 
L 181.315244 -208.593247 
L 181.904847 -208.468564 
L 182.494451 -208.119177 
L 183.084054 -207.923387 
L 183.673658 -207.471386 
L 184.263261 -207.120097 
L 184.852865 -206.826813 
L 185.442468 -206.442611 
L 186.032072 -206.13188 
L 186.621675 -206.010818 
L 187.211279 -205.659563 
L 187.800882 -205.462769 
L 188.390486 -205.392296 
L 188.980089 -205.19855 
L 189.569693 -204.902476 
L 190.159296 -204.654916 
L 190.7489 -204.378333 
L 191.338503 -204.173108 
L 191.928107 -203.937509 
L 192.51771 -203.674458 
L 193.107314 -203.467708 
L 193.696917 -203.155103 
L 194.286521 -202.937347 
L 194.876124 -202.729832 
L 195.465728 -202.368065 
L 196.055332 -202.184362 
L 196.644935 -201.85409 
L 197.234539 -201.719435 
L 197.824142 -201.26701 
L 198.413746 -200.996951 
L 199.003349 -200.849936 
L 199.592953 -200.458118 
L 200.182556 -200.358138 
L 200.77216 -200.287211 
L 201.361763 -200.051871 
L 201.951367 -199.767414 
L 202.54097 -199.616537 
L 203.130574 -199.525326 
L 203.720177 -199.171326 
L 204.309781 -199.018987 
L 204.899384 -198.837608 
L 205.488988 -198.404818 
L 206.078591 -198.300929 
L 206.668195 -197.935131 
L 207.257798 -197.776572 
L 207.847402 -197.488881 
L 208.437005 -197.162786 
L 209.026609 -196.745721 
L 209.616213 -196.44149 
L 210.205816 -196.28578 
L 210.79542 -195.99664 
L 211.385023 -195.59043 
L 211.974627 -195.208937 
L 212.56423 -194.785246 
L 213.153834 -194.674853 
L 213.743437 -194.360737 
L 214.333041 -194.04163 
L 214.922644 -193.807686 
L 215.512248 -193.7905 
L 216.101851 -193.572983 
L 216.691455 -193.207251 
L 217.281058 -192.738098 
L 217.870662 -192.59648 
L 218.460265 -192.271509 
L 219.049869 -192.090108 
L 219.639472 -191.862334 
L 220.229076 -191.479341 
L 220.818679 -191.350224 
L 221.408283 -191.177137 
L 221.997886 -190.826641 
L 222.58749 -190.487679 
L 223.177094 -190.381596 
L 223.766697 -190.156971 
L 224.356301 -189.937986 
L 224.945904 -189.586364 
L 225.535508 -189.513142 
L 226.125111 -189.23375 
L 226.714715 -188.97442 
L 227.304318 -188.567544 
L 227.893922 -188.542091 
L 228.483525 -188.183848 
L 229.073129 -187.740092 
L 229.662732 -187.42465 
L 230.252336 -187.321578 
L 230.841939 -187.104169 
L 231.431543 -186.876969 
L 232.021146 -186.331064 
L 232.61075 -186.297127 
L 233.200353 -186.006183 
L 233.789957 -185.469264 
L 234.37956 -185.164601 
L 234.969164 -185.081924 
L 235.558767 -184.566794 
L 236.148371 -184.374654 
L 236.737974 -184.210578 
L 237.327578 -184.0757 
L 237.917182 -183.922888 
L 238.506785 -183.634438 
L 239.096389 -183.335865 
L 239.685992 -182.998914 
L 240.275596 -182.948157 
L 240.865199 -182.705847 
L 241.454803 -182.140926 
L 242.044406 -181.805 
L 242.63401 -181.686468 
L 243.223613 -181.496592 
L 243.813217 -181.447452 
L 244.40282 -181.338245 
L 244.992424 -180.963157 
L 245.582027 -180.57536 
L 246.171631 -180.412537 
L 246.761234 -180.113357 
L 247.350838 -179.772318 
L 247.940441 -179.395239 
L 248.530045 -178.917869 
L 249.119648 -178.708196 
L 249.709252 -178.522133 
L 250.298855 -178.192062 
L 250.888459 -178.035099 
L 251.478063 -177.936373 
L 252.067666 -177.714618 
L 252.65727 -177.553168 
L 253.246873 -177.456286 
L 253.836477 -177.213517 
L 254.42608 -176.959864 
L 255.015684 -176.617638 
L 255.605287 -176.470631 
L 256.194891 -176.131435 
L 256.784494 -175.771453 
L 257.374098 -175.217422 
L 257.963701 -175.04373 
L 258.553305 -174.973152 
L 259.142908 -174.742153 
L 259.732512 -174.442816 
L 260.322115 -174.28093 
L 260.911719 -173.947095 
L 261.501322 -173.226709 
L 262.090926 -173.079386 
L 262.680529 -173.012097 
L 263.270133 -172.72634 
L 263.859736 -172.587205 
L 264.44934 -172.058773 
L 265.038944 -171.699883 
L 265.628547 -171.58399 
L 266.218151 -171.306367 
L 266.807754 -170.878427 
L 267.397358 -170.818345 
L 267.986961 -170.361095 
L 268.576565 -170.031234 
L 269.166168 -169.782319 
L 269.755772 -169.712354 
L 270.345375 -169.455494 
L 270.934979 -169.300543 
L 271.524582 -169.197107 
L 272.114186 -168.819956 
L 272.703789 -168.542096 
L 273.293393 -168.19938 
L 273.882996 -167.939684 
L 274.4726 -167.643634 
L 275.062203 -167.319585 
L 275.651807 -167.256067 
L 276.24141 -167.028246 
L 276.831014 -166.650684 
L 277.420617 -166.51424 
L 278.010221 -165.975445 
L 278.599824 -165.812456 
L 279.189428 -165.534223 
L 279.779032 -165.319703 
L 280.368635 -165.202 
L 280.958239 -164.643905 
L 281.547842 -164.209842 
L 282.137446 -163.771086 
L 282.727049 -163.380561 
L 283.316653 -163.329471 
L 283.906256 -162.956125 
L 284.49586 -162.863111 
L 285.085463 -162.380655 
L 285.675067 -162.195 
L 286.26467 -161.958123 
L 286.854274 -161.925484 
L 287.443877 -161.730625 
L 288.033481 -161.161672 
L 288.623084 -160.926221 
L 289.212688 -160.778266 
L 289.802291 -160.487162 
L 290.391895 -160.225027 
L 290.981498 -159.783793 
L 291.571102 -159.507641 
L 292.160705 -159.051238 
L 292.750309 -158.663 
L 293.339913 -158.343391 
L 293.929516 -158.125445 
L 294.51912 -157.77206 
L 295.108723 -157.644638 
L 295.698327 -157.365778 
L 296.28793 -157.243812 
L 296.877534 -156.670172 
L 297.467137 -156.644783 
L 298.056741 -156.428484 
L 298.646344 -156.11152 
L 299.235948 -156.000534 
L 299.825551 -155.720041 
L 300.415155 -155.66749 
L 301.004758 -155.275853 
L 301.594362 -154.83052 
L 302.183965 -154.447486 
L 302.773569 -154.19606 
L 303.363172 -153.825806 
L 303.952776 -153.433905 
L 304.542379 -153.39096 
L 305.131983 -153.109293 
L 305.721586 -152.767537 
L 306.31119 -152.487744 
L 306.900794 -152.230174 
L 307.490397 -151.924579 
L 308.080001 -151.90733 
L 308.669604 -151.689422 
L 309.259208 -151.38217 
L 309.848811 -151.10603 
L 310.438415 -150.894205 
L 311.028018 -150.688707 
L 311.617622 -150.302019 
L 312.207225 -150.178917 
L 312.796829 -149.94756 
L 313.386432 -149.675587 
L 313.976036 -149.043525 
L 314.565639 -148.980518 
L 315.155243 -148.83352 
L 315.744846 -148.6158 
L 316.33445 -148.309198 
L 316.924053 -148.11243 
L 317.513657 -147.724947 
L 318.10326 -147.681851 
L 318.692864 -147.467206 
L 319.282467 -146.894886 
L 319.872071 -146.687758 
L 320.461674 -146.579383 
L 321.051278 -146.274099 
L 321.640882 -145.991872 
L 322.230485 -145.348598 
L 322.820089 -145.135314 
L 323.409692 -144.79874 
L 323.999296 -144.508878 
L 324.588899 -144.311261 
L 325.178503 -144.082205 
L 325.768106 -143.711385 
L 326.35771 -143.515456 
L 326.947313 -143.355237 
L 327.536917 -142.928308 
L 328.12652 -142.413615 
L 328.716124 -142.225983 
L 329.305727 -141.796406 
L 329.895331 -141.529 
L 330.484934 -141.113013 
L 331.074538 -140.883732 
L 331.664141 -140.673066 
L 332.253745 -140.514873 
L 332.843348 -140.281525 
L 333.432952 -139.834252 
L 334.022555 -139.57828 
L 334.612159 -139.033801 
L 335.201763 -138.8292 
L 335.791366 -138.491623 
L 336.38097 -138.449848 
L 336.970573 -138.03087 
L 337.560177 -137.985867 
L 338.14978 -137.757442 
L 338.739384 -137.384991 
L 339.328987 -137.373806 
L 339.918591 -137.098113 
L 340.508194 -136.821328 
L 341.097798 -136.569687 
L 341.687401 -136.271831 
L 342.277005 -135.874075 
L 342.866608 -135.550243 
L 343.456212 -135.372124 
L 344.045815 -135.217483 
L 344.635419 -134.68719 
L 345.225022 -134.309864 
L 345.814626 -134.160717 
L 346.404229 -133.945898 
L 346.993833 -133.52002 
L 347.583436 -133.240676 
L 348.17304 -132.960806 
L 348.762644 -132.616138 
L 349.352247 -132.45154 
L 349.941851 -132.000159 
L 350.531454 -131.776168 
L 351.121058 -131.430646 
L 351.710661 -131.039077 
L 352.300265 -130.547446 
L 352.889868 -130.446824 
L 353.479472 -130.164609 
L 354.069075 -130.169379 
L 354.658679 -129.832536 
L 355.248282 -129.595801 
L 355.837886 -129.414224 
L 356.427489 -129.058921 
L 357.017093 -128.78225 
L 357.606696 -128.594338 
L 358.1963 -127.881781 
L 358.785903 -127.778241 
L 359.375507 -127.304704 
L 359.96511 -127.200713 
L 360.554714 -126.823615 
L 361.144317 -126.609353 
L 361.733921 -126.544548 
L 362.323525 -126.073193 
L 362.913128 -125.935552 
L 363.502732 -125.895958 
L 364.092335 -125.462116 
L 364.681939 -125.280497 
L 365.271542 -125.124305 
L 365.861146 -124.703333 
L 366.450749 -124.614509 
L 367.040353 -124.301714 
L 367.629956 -123.893511 
L 368.21956 -123.737871 
L 368.809163 -123.332215 
L 369.398767 -123.145283 
L 369.98837 -122.800385 
L 370.577974 -122.575641 
L 371.167577 -122.292541 
L 371.757181 -122.148486 
L 372.346784 -121.684668 
L 372.936388 -121.325615 
L 373.525991 -121.105541 
L 374.115595 -120.866826 
L 374.705198 -120.692317 
L 375.294802 -120.417586 
L 375.884405 -120.360038 
L 376.474009 -120.097327 
L 377.063613 -119.839003 
L 377.653216 -119.433189 
L 378.24282 -119.303683 
L 378.832423 -118.93126 
L 379.422027 -118.71506 
L 380.01163 -118.479036 
L 380.601234 -118.361426 
L 381.190837 -118.116301 
L 381.780441 -117.697902 
L 382.370044 -117.477036 
L 382.959648 -117.134201 
L 383.549251 -116.945852 
L 384.138855 -116.822937 
L 384.728458 -116.424485 
L 385.318062 -116.183428 
L 385.907665 -115.798689 
L 386.497269 -115.656579 
L 387.086872 -115.12249 
L 387.676476 -115.097274 
L 388.266079 -114.648271 
L 388.855683 -114.400969 
L 389.445286 -114.208489 
L 390.03489 -114.055161 
L 390.624494 -113.634156 
L 391.214097 -113.562183 
L 391.803701 -113.296527 
L 392.393304 -112.811829 
L 392.982908 -112.585478 
L 393.572511 -112.352057 
L 394.162115 -112.214019 
L 394.751718 -111.911792 
L 395.341322 -111.473403 
L 395.930925 -111.001946 
L 396.520529 -111.003149 
L 397.110132 -111.012059 
L 397.699736 -110.199295 
L 398.289339 -110.115977 
L 398.878943 -109.959076 
L 399.468546 -109.534167 
L 400.05815 -109.221584 
L 400.05815 -65.866364 
L 400.05815 -65.866364 
L 399.468546 -66.033604 
L 398.878943 -66.654857 
L 398.289339 -67.180523 
L 397.699736 -67.283913 
L 397.110132 -68.177291 
L 396.520529 -68.35212 
L 395.930925 -68.579252 
L 395.341322 -68.887118 
L 394.751718 -69.135469 
L 394.162115 -69.228894 
L 393.572511 -69.495741 
L 392.982908 -69.672582 
L 392.393304 -69.803708 
L 391.803701 -69.874789 
L 391.214097 -70.310622 
L 390.624494 -71.007179 
L 390.03489 -71.241032 
L 389.445286 -71.664669 
L 388.855683 -71.887484 
L 388.266079 -72.442125 
L 387.676476 -72.558918 
L 387.086872 -72.979839 
L 386.497269 -73.135456 
L 385.907665 -73.662715 
L 385.318062 -74.112406 
L 384.728458 -74.305781 
L 384.138855 -74.476731 
L 383.549251 -74.986552 
L 382.959648 -75.286942 
L 382.370044 -75.566726 
L 381.780441 -75.997305 
L 381.190837 -76.495678 
L 380.601234 -76.654797 
L 380.01163 -77.286046 
L 379.422027 -77.318875 
L 378.832423 -77.78732 
L 378.24282 -78.330322 
L 377.653216 -78.864956 
L 377.063613 -79.271847 
L 376.474009 -79.616484 
L 375.884405 -80.090836 
L 375.294802 -80.434661 
L 374.705198 -80.778372 
L 374.115595 -81.179613 
L 373.525991 -81.427376 
L 372.936388 -81.745556 
L 372.346784 -82.147667 
L 371.757181 -82.619458 
L 371.167577 -82.736545 
L 370.577974 -82.966123 
L 369.98837 -83.66391 
L 369.398767 -84.117797 
L 368.809163 -84.522616 
L 368.21956 -84.905499 
L 367.629956 -84.985539 
L 367.040353 -85.082782 
L 366.450749 -85.613097 
L 365.861146 -85.981535 
L 365.271542 -86.339658 
L 364.681939 -86.51082 
L 364.092335 -86.693387 
L 363.502732 -87.13083 
L 362.913128 -87.209552 
L 362.323525 -87.782808 
L 361.733921 -87.937281 
L 361.144317 -88.499976 
L 360.554714 -88.641105 
L 359.96511 -88.9874 
L 359.375507 -89.049884 
L 358.785903 -89.152689 
L 358.1963 -89.409205 
L 357.606696 -89.562419 
L 357.017093 -90.442711 
L 356.427489 -90.633709 
L 355.837886 -90.773773 
L 355.248282 -91.051773 
L 354.658679 -91.516757 
L 354.069075 -91.663607 
L 353.479472 -92.273032 
L 352.889868 -92.528835 
L 352.300265 -92.658667 
L 351.710661 -93.002974 
L 351.121058 -93.171032 
L 350.531454 -93.344632 
L 349.941851 -93.739405 
L 349.352247 -93.765397 
L 348.762644 -94.290087 
L 348.17304 -94.640534 
L 347.583436 -94.901889 
L 346.993833 -95.247859 
L 346.404229 -95.514125 
L 345.814626 -95.929026 
L 345.225022 -96.203399 
L 344.635419 -96.595859 
L 344.045815 -97.072001 
L 343.456212 -97.15356 
L 342.866608 -97.617432 
L 342.277005 -97.772588 
L 341.687401 -98.020434 
L 341.097798 -98.424375 
L 340.508194 -99.096011 
L 339.918591 -99.250296 
L 339.328987 -99.538314 
L 338.739384 -99.758333 
L 338.14978 -99.99812 
L 337.560177 -100.536373 
L 336.970573 -100.799069 
L 336.38097 -100.972069 
L 335.791366 -101.260871 
L 335.201763 -101.420847 
L 334.612159 -101.777123 
L 334.022555 -102.067557 
L 333.432952 -102.378525 
L 332.843348 -102.90938 
L 332.253745 -103.278971 
L 331.664141 -103.613431 
L 331.074538 -104.064746 
L 330.484934 -104.256361 
L 329.895331 -104.481933 
L 329.305727 -104.720913 
L 328.716124 -105.025156 
L 328.12652 -105.45854 
L 327.536917 -105.863831 
L 326.947313 -105.973598 
L 326.35771 -106.39658 
L 325.768106 -106.93808 
L 325.178503 -107.345652 
L 324.588899 -107.662192 
L 323.999296 -107.976775 
L 323.409692 -108.217513 
L 322.820089 -108.661532 
L 322.230485 -108.894313 
L 321.640882 -109.079232 
L 321.051278 -109.326786 
L 320.461674 -109.583437 
L 319.872071 -109.814648 
L 319.282467 -110.031074 
L 318.692864 -110.091342 
L 318.10326 -110.612998 
L 317.513657 -110.866482 
L 316.924053 -111.024154 
L 316.33445 -111.113532 
L 315.744846 -111.63804 
L 315.155243 -112.094058 
L 314.565639 -112.300288 
L 313.976036 -112.630387 
L 313.386432 -112.695012 
L 312.796829 -112.762722 
L 312.207225 -113.082712 
L 311.617622 -113.176198 
L 311.028018 -114.072674 
L 310.438415 -114.46343 
L 309.848811 -114.770837 
L 309.259208 -114.9104 
L 308.669604 -115.158721 
L 308.080001 -115.530964 
L 307.490397 -115.852282 
L 306.900794 -116.251516 
L 306.31119 -116.375353 
L 305.721586 -116.905995 
L 305.131983 -117.042552 
L 304.542379 -117.452759 
L 303.952776 -118.108833 
L 303.363172 -118.207691 
L 302.773569 -118.630655 
L 302.183965 -118.74866 
L 301.594362 -119.319745 
L 301.004758 -119.482048 
L 300.415155 -119.648203 
L 299.825551 -119.739307 
L 299.235948 -120.042792 
L 298.646344 -120.291951 
L 298.056741 -120.767167 
L 297.467137 -121.111523 
L 296.877534 -121.80321 
L 296.28793 -122.143279 
L 295.698327 -122.378999 
L 295.108723 -122.847511 
L 294.51912 -123.093462 
L 293.929516 -123.34362 
L 293.339913 -123.641535 
L 292.750309 -123.816154 
L 292.160705 -123.861339 
L 291.571102 -124.153765 
L 290.981498 -125.356792 
L 290.391895 -125.331644 
L 289.802291 -125.629308 
L 289.212688 -125.943578 
L 288.623084 -126.637618 
L 288.033481 -126.94673 
L 287.443877 -127.335095 
L 286.854274 -127.865178 
L 286.26467 -128.13471 
L 285.675067 -128.482714 
L 285.085463 -128.523257 
L 284.49586 -128.528769 
L 283.906256 -128.757441 
L 283.316653 -129.015855 
L 282.727049 -129.328606 
L 282.137446 -129.497017 
L 281.547842 -130.29983 
L 280.958239 -130.751479 
L 280.368635 -130.807478 
L 279.779032 -130.907291 
L 279.189428 -131.327908 
L 278.599824 -131.706722 
L 278.010221 -131.946542 
L 277.420617 -132.094366 
L 276.831014 -132.357149 
L 276.24141 -132.68244 
L 275.651807 -132.875922 
L 275.062203 -133.430735 
L 274.4726 -133.809553 
L 273.882996 -134.224022 
L 273.293393 -134.802817 
L 272.703789 -135.012525 
L 272.114186 -135.07865 
L 271.524582 -135.741315 
L 270.934979 -135.792147 
L 270.345375 -136.127103 
L 269.755772 -136.398634 
L 269.166168 -136.841472 
L 268.576565 -137.013546 
L 267.986961 -137.187768 
L 267.397358 -137.573448 
L 266.807754 -137.748228 
L 266.218151 -138.09647 
L 265.628547 -138.481718 
L 265.038944 -139.100464 
L 264.44934 -139.226694 
L 263.859736 -139.603157 
L 263.270133 -139.759487 
L 262.680529 -139.842777 
L 262.090926 -140.137772 
L 261.501322 -140.861902 
L 260.911719 -140.918422 
L 260.322115 -141.038674 
L 259.732512 -141.439213 
L 259.142908 -141.36387 
L 258.553305 -141.699075 
L 257.963701 -142.280466 
L 257.374098 -142.875258 
L 256.784494 -142.969727 
L 256.194891 -143.225876 
L 255.605287 -143.520336 
L 255.015684 -143.849064 
L 254.42608 -144.03642 
L 253.836477 -144.207405 
L 253.246873 -144.68631 
L 252.65727 -144.908176 
L 252.067666 -145.286109 
L 251.478063 -145.642591 
L 250.888459 -145.785754 
L 250.298855 -146.300466 
L 249.709252 -146.643816 
L 249.119648 -147.023961 
L 248.530045 -147.312852 
L 247.940441 -147.578157 
L 247.350838 -147.795922 
L 246.761234 -148.09991 
L 246.171631 -148.641167 
L 245.582027 -148.838469 
L 244.992424 -148.965681 
L 244.40282 -149.123372 
L 243.813217 -149.739464 
L 243.223613 -150.260071 
L 242.63401 -150.368462 
L 242.044406 -151.07023 
L 241.454803 -151.175009 
L 240.865199 -151.382511 
L 240.275596 -151.428353 
L 239.685992 -151.816254 
L 239.096389 -152.175462 
L 238.506785 -152.505414 
L 237.917182 -152.77653 
L 237.327578 -153.360199 
L 236.737974 -153.473188 
L 236.148371 -153.589754 
L 235.558767 -153.722448 
L 234.969164 -154.748868 
L 234.37956 -154.870506 
L 233.789957 -155.682225 
L 233.200353 -155.783955 
L 232.61075 -155.987622 
L 232.021146 -156.131338 
L 231.431543 -156.783031 
L 230.841939 -157.193431 
L 230.252336 -157.277846 
L 229.662732 -157.669586 
L 229.073129 -157.885377 
L 228.483525 -158.645075 
L 227.893922 -158.74094 
L 227.304318 -158.98938 
L 226.714715 -159.306079 
L 226.125111 -159.567264 
L 225.535508 -160.063484 
L 224.945904 -160.376436 
L 224.356301 -160.726223 
L 223.766697 -161.012719 
L 223.177094 -161.405329 
L 222.58749 -161.740924 
L 221.997886 -162.246514 
L 221.408283 -163.070325 
L 220.818679 -163.421598 
L 220.229076 -163.746207 
L 219.639472 -163.964557 
L 219.049869 -164.151269 
L 218.460265 -164.236242 
L 217.870662 -164.560602 
L 217.281058 -164.916934 
L 216.691455 -165.338175 
L 216.101851 -165.878683 
L 215.512248 -166.163263 
L 214.922644 -166.72854 
L 214.333041 -166.81339 
L 213.743437 -167.165295 
L 213.153834 -167.209411 
L 212.56423 -167.826382 
L 211.974627 -168.236431 
L 211.385023 -168.3792 
L 210.79542 -169.102031 
L 210.205816 -169.47208 
L 209.616213 -169.664171 
L 209.026609 -170.0066 
L 208.437005 -170.063195 
L 207.847402 -170.472823 
L 207.257798 -170.832177 
L 206.668195 -171.44162 
L 206.078591 -171.67648 
L 205.488988 -171.881263 
L 204.899384 -172.30947 
L 204.309781 -172.416633 
L 203.720177 -172.743331 
L 203.130574 -173.249188 
L 202.54097 -173.320112 
L 201.951367 -173.997663 
L 201.361763 -174.039874 
L 200.77216 -174.28014 
L 200.182556 -174.717381 
L 199.592953 -175.408139 
L 199.003349 -175.696798 
L 198.413746 -175.825607 
L 197.824142 -176.310485 
L 197.234539 -176.73858 
L 196.644935 -177.029146 
L 196.055332 -177.368179 
L 195.465728 -177.701873 
L 194.876124 -178.168665 
L 194.286521 -178.394196 
L 193.696917 -178.73799 
L 193.107314 -179.361189 
L 192.51771 -179.43031 
L 191.928107 -180.040352 
L 191.338503 -180.159764 
L 190.7489 -180.295007 
L 190.159296 -180.614709 
L 189.569693 -181.057056 
L 188.980089 -181.494226 
L 188.390486 -181.816739 
L 187.800882 -182.138847 
L 187.211279 -182.532871 
L 186.621675 -182.773694 
L 186.032072 -183.233421 
L 185.442468 -183.713508 
L 184.852865 -184.291912 
L 184.263261 -184.444367 
L 183.673658 -184.676917 
L 183.084054 -185.037935 
L 182.494451 -185.357591 
L 181.904847 -185.698291 
L 181.315244 -186.045767 
L 180.72564 -186.466576 
L 180.136036 -186.885065 
L 179.546433 -187.061788 
L 178.956829 -187.243217 
L 178.367226 -187.509792 
L 177.777622 -187.977684 
L 177.188019 -188.29171 
L 176.598415 -188.568633 
L 176.008812 -188.848955 
L 175.419208 -189.361217 
L 174.829605 -189.645008 
L 174.240001 -190.033745 
L 173.650398 -190.354123 
L 173.060794 -190.537629 
L 172.471191 -190.895468 
L 171.881587 -191.001332 
L 171.291984 -191.260348 
L 170.70238 -191.764434 
L 170.112777 -192.352712 
L 169.523173 -192.635347 
L 168.93357 -193.437875 
L 168.343966 -193.674414 
L 167.754363 -193.899375 
L 167.164759 -194.082549 
L 166.575155 -194.490807 
L 165.985552 -194.73135 
L 165.395948 -194.860997 
L 164.806345 -194.9771 
L 164.216741 -195.43157 
L 163.627138 -195.709024 
L 163.037534 -196.014002 
L 162.447931 -196.196254 
L 161.858327 -196.401197 
L 161.268724 -196.848974 
L 160.67912 -197.308102 
L 160.089517 -197.658999 
L 159.499913 -198.023589 
L 158.91031 -198.108197 
L 158.320706 -198.745246 
L 157.731103 -198.979802 
L 157.141499 -199.228273 
L 156.551896 -199.318553 
L 155.962292 -199.898352 
L 155.372689 -200.19999 
L 154.783085 -200.52116 
L 154.193482 -201.051348 
L 153.603878 -201.221831 
L 153.014274 -201.633324 
L 152.424671 -202.187812 
L 151.835067 -202.401478 
L 151.245464 -202.634743 
L 150.65586 -203.222341 
L 150.066257 -203.428999 
L 149.476653 -203.86393 
L 148.88705 -204.309637 
L 148.297446 -204.642784 
L 147.707843 -205.118777 
L 147.118239 -205.398206 
L 146.528636 -205.594665 
L 145.939032 -206.202332 
L 145.349429 -206.562044 
L 144.759825 -206.739041 
L 144.170222 -206.976822 
L 143.580618 -207.264105 
L 142.991015 -207.888889 
L 142.401411 -208.208378 
L 141.811808 -208.263672 
L 141.222204 -208.350204 
L 140.632601 -209.067326 
L 140.042997 -209.358708 
L 139.453393 -209.672005 
L 138.86379 -210.079732 
L 138.274186 -210.386482 
L 137.684583 -210.559658 
L 137.094979 -211.205817 
L 136.505376 -211.482723 
L 135.915772 -211.895453 
L 135.326169 -212.244959 
L 134.736565 -212.662549 
L 134.146962 -213.027529 
L 133.557358 -213.527222 
L 132.967755 -213.947822 
L 132.378151 -214.363988 
L 131.788548 -214.590613 
L 131.198944 -214.909824 
L 130.609341 -215.319364 
L 130.019737 -215.648404 
L 129.430134 -215.961743 
L 128.84053 -216.080515 
L 128.250927 -216.423112 
L 127.661323 -216.899738 
L 127.07172 -217.169701 
L 126.482116 -217.832137 
L 125.892513 -218.110933 
L 125.302909 -218.385932 
L 124.713305 -218.842834 
L 124.123702 -219.275056 
L 123.534098 -219.935928 
L 122.944495 -220.37309 
L 122.354891 -220.683466 
L 121.765288 -221.048891 
L 121.175684 -221.684653 
L 120.586081 -222.385882 
L 119.996477 -222.719908 
L 119.406874 -223.134248 
L 118.81727 -223.614439 
L 118.227667 -223.805815 
L 117.638063 -224.552196 
L 117.04846 -224.902917 
L 116.458856 -225.231423 
L 115.869253 -225.681894 
L 115.279649 -226.29245 
L 114.690046 -226.687531 
L 114.100442 -227.154683 
L 113.510839 -227.620547 
L 112.921235 -228.000571 
L 112.331632 -228.554134 
L 111.742028 -229.021713 
L 111.152424 -229.285857 
L 110.562821 -229.643991 
L 109.973217 -230.084801 
L 109.383614 -230.622088 
L 108.79401 -230.805818 
L 108.204407 -231.360428 
L 107.614803 -231.969584 
L 107.0252 -232.546888 
L 106.435596 -233.152106 
L 105.845993 -233.503899 
L 105.256389 -234.073722 
L 104.666786 -234.403632 
L 104.077182 -234.81488 
L 103.487579 -235.53071 
L 102.897975 -236.211903 
L 102.308372 -236.573774 
L 101.718768 -236.825746 
L 101.129165 -237.529722 
L 100.539561 -238.150197 
L 99.949958 -239.105327 
L 99.360354 -240.256146 
L 98.770751 -242.235289 
L 98.181147 -244.18501 
z
" id="m6816fa9455" style="stroke:#ff7f0e;stroke-opacity:0.2;stroke-width:0.39;"/>
    </defs>
    <g clip-path="url(#p860122ec77)">
     <use style="fill:#ff7f0e;fill-opacity:0.2;stroke:#ff7f0e;stroke-opacity:0.2;stroke-width:0.39;" x="0" xlink:href="#m6816fa9455" y="288"/>
    </g>
   </g>
   <g id="line2d_27">
    <path clip-path="url(#p860122ec77)" d="M 98.181147 43.81499 
L 98.770751 44.094836 
L 109.973217 53.437031 
L 112.921235 55.597809 
L 113.510839 56.26574 
L 114.690046 57.125719 
L 117.04846 58.721283 
L 118.227667 59.575895 
L 119.996477 60.944151 
L 127.07172 66.374693 
L 128.250927 67.129369 
L 130.019737 68.545725 
L 131.788548 69.874947 
L 132.967755 70.748462 
L 136.505376 73.500437 
L 137.094979 73.702856 
L 141.222204 76.726708 
L 142.401411 77.659494 
L 144.170222 78.828287 
L 147.118239 80.946392 
L 147.707843 81.28103 
L 148.297446 81.792372 
L 148.88705 82.022048 
L 151.245464 83.891488 
L 153.014274 85.193484 
L 153.603878 85.628243 
L 154.783085 86.204501 
L 155.962292 86.987574 
L 157.141499 88.10756 
L 161.858327 91.666092 
L 162.447931 92.236921 
L 163.037534 92.439461 
L 164.216741 93.489344 
L 164.806345 93.800362 
L 165.395948 94.459821 
L 167.164759 95.467393 
L 176.008812 102.334341 
L 176.598415 102.637401 
L 177.777622 103.519813 
L 178.367226 103.8655 
L 181.315244 106.161127 
L 181.904847 106.455327 
L 183.084054 107.338736 
L 183.673658 108.028213 
L 184.263261 108.252655 
L 184.852865 108.859223 
L 186.032072 109.337782 
L 187.211279 110.163147 
L 187.800882 110.801521 
L 188.390486 111.036292 
L 188.980089 111.59526 
L 190.159296 112.244768 
L 190.7489 112.831891 
L 191.928107 113.553561 
L 197.234539 117.23055 
L 198.413746 117.906819 
L 199.592953 118.614402 
L 202.54097 120.492035 
L 203.130574 120.684743 
L 204.899384 121.687765 
L 210.205816 123.677338 
L 213.743437 124.507606 
L 216.691455 125.071814 
L 220.229076 125.363866 
L 221.408283 125.592039 
L 226.714715 126.119208 
L 228.483525 126.209962 
L 229.073129 126.145913 
L 229.662732 126.326612 
L 230.841939 126.371549 
L 231.431543 126.309828 
L 234.969164 126.618359 
L 236.148371 126.485261 
L 239.685992 126.688272 
L 241.454803 126.68352 
L 242.63401 126.884356 
L 244.992424 126.716852 
L 247.350838 126.765969 
L 247.940441 126.86791 
L 249.709252 126.834888 
L 250.298855 126.955673 
L 252.067666 126.90936 
L 252.65727 126.815759 
L 255.605287 126.926618 
L 257.374098 126.852764 
L 270.345375 126.775148 
L 272.703789 126.796875 
L 273.293393 126.71166 
L 275.651807 126.823768 
L 276.831014 126.816481 
L 280.368635 126.745993 
L 285.085463 126.943464 
L 288.033481 126.854993 
L 288.623084 127.033443 
L 290.391895 126.827223 
L 303.363172 126.778319 
L 304.542379 126.79255 
L 306.31119 126.882391 
L 306.900794 126.777207 
L 307.490397 126.839168 
L 308.669604 126.820784 
L 310.438415 126.836333 
L 311.617622 126.917293 
L 312.796829 126.932206 
L 315.155243 126.804963 
L 320.461674 126.702075 
L 322.820089 126.774993 
L 325.178503 126.697433 
L 326.35771 126.705287 
L 327.536917 126.654677 
L 328.716124 126.786648 
L 331.074538 126.639949 
L 332.253745 126.884505 
L 333.432952 126.811279 
L 334.022555 126.673013 
L 338.739384 126.722476 
L 339.918591 126.792575 
L 340.508194 126.851613 
L 341.097798 126.776876 
L 341.687401 126.882628 
L 349.352247 126.803337 
L 350.531454 126.860633 
L 351.710661 126.733543 
L 352.889868 126.837827 
L 360.554714 126.824208 
L 361.144317 126.966706 
L 363.502732 126.818363 
L 367.629956 126.830899 
L 368.21956 126.709801 
L 376.474009 126.772115 
L 377.653216 126.836956 
L 381.780441 126.866374 
L 382.370044 126.758982 
L 383.549251 126.734268 
L 384.728458 126.647706 
L 385.907665 126.664154 
L 387.086872 126.777768 
L 388.855683 126.870748 
L 391.214097 126.754559 
L 391.803701 126.844044 
L 392.393304 126.736667 
L 396.520529 126.793993 
L 397.699736 126.690521 
L 398.878943 126.745902 
L 400.05815 126.842959 
L 400.05815 126.842959 
" style="fill:none;stroke:#1f77b4;stroke-linecap:round;stroke-width:2.275;"/>
   </g>
   <g id="line2d_28">
    <path clip-path="url(#p860122ec77)" d="M 98.181147 43.81499 
L 98.770751 44.001076 
L 101.718768 46.300187 
L 103.487579 47.656256 
L 104.666786 48.494299 
L 105.845993 49.321766 
L 109.973217 52.173195 
L 111.152424 52.960532 
L 112.921235 54.104256 
L 113.510839 54.381305 
L 115.869253 55.951365 
L 117.04846 56.62717 
L 118.227667 57.286597 
L 119.996477 58.258625 
L 120.586081 58.710237 
L 123.534098 60.066425 
L 127.07172 62.157434 
L 128.84053 62.966837 
L 130.609341 63.937126 
L 131.788548 64.533366 
L 135.326169 66.28803 
L 136.505376 66.904602 
L 137.684583 67.681867 
L 139.453393 68.525491 
L 145.939032 71.643391 
L 150.066257 73.60742 
L 150.65586 73.821823 
L 151.835067 74.551407 
L 152.424671 74.661812 
L 153.014274 75.114921 
L 160.089517 78.739523 
L 160.67912 79.196748 
L 162.447931 80.059126 
L 163.037534 80.549848 
L 164.806345 81.297139 
L 165.395948 81.602143 
L 166.575155 82.368173 
L 171.881587 84.777776 
L 173.060794 85.510243 
L 174.240001 86.140622 
L 175.419208 86.61889 
L 176.598415 87.344913 
L 183.673658 90.959096 
L 184.852865 91.325939 
L 186.621675 92.207452 
L 187.800882 92.629871 
L 188.980089 93.338945 
L 191.928107 94.96838 
L 193.107314 95.451399 
L 193.696917 95.95008 
L 194.876124 96.521671 
L 195.465728 96.775 
L 196.055332 97.193651 
L 197.234539 97.604576 
L 201.361763 99.618233 
L 203.130574 100.39823 
L 203.720177 100.762524 
L 204.309781 100.969834 
L 205.488988 101.758222 
L 206.078591 102.122883 
L 206.668195 102.341581 
L 207.257798 102.802773 
L 208.437005 103.266825 
L 210.205816 104.290179 
L 211.974627 105.108332 
L 217.281058 107.499638 
L 219.639472 109.045569 
L 220.229076 109.180749 
L 221.408283 109.849536 
L 224.356301 111.374418 
L 224.945904 111.935711 
L 226.125111 112.426924 
L 234.37956 116.343571 
L 234.969164 116.522858 
L 235.558767 116.867076 
L 236.148371 116.988418 
L 236.737974 117.493367 
L 239.096389 118.545963 
L 241.454803 119.763693 
L 242.63401 120.33866 
L 244.992424 121.577171 
L 245.582027 121.848568 
L 246.761234 122.613161 
L 248.530045 123.30653 
L 250.298855 124.362874 
L 250.888459 124.517123 
L 253.836477 126.120855 
L 255.605287 126.861153 
L 256.194891 127.266528 
L 256.784494 127.487944 
L 257.374098 127.931935 
L 257.963701 128.176312 
L 258.553305 128.568185 
L 260.322115 129.3562 
L 263.270133 130.768139 
L 264.44934 131.148736 
L 265.038944 131.473644 
L 265.628547 132.030158 
L 266.218151 132.201096 
L 267.397358 133.014365 
L 267.986961 133.373652 
L 268.576565 133.573786 
L 269.166168 133.972311 
L 269.755772 134.212989 
L 270.345375 134.618748 
L 270.934979 134.79118 
L 271.524582 135.124607 
L 272.114186 135.3194 
L 272.703789 135.665961 
L 273.293393 135.830149 
L 274.4726 136.448183 
L 276.24141 137.147832 
L 276.831014 137.489873 
L 277.420617 137.693778 
L 278.010221 138.206578 
L 278.599824 138.372559 
L 279.189428 138.681194 
L 279.779032 138.856871 
L 280.958239 139.523986 
L 281.547842 139.697239 
L 283.316653 140.847232 
L 285.085463 141.742488 
L 285.675067 141.908946 
L 287.443877 142.985062 
L 288.033481 143.212186 
L 289.212688 143.8565 
L 289.802291 144.142729 
L 290.391895 144.606078 
L 290.981498 144.743185 
L 293.929516 146.210231 
L 296.877534 147.415741 
L 297.467137 147.859217 
L 298.056741 148.04896 
L 298.646344 148.59812 
L 301.004758 149.523295 
L 301.594362 149.895566 
L 302.183965 150.088838 
L 303.952776 151.131526 
L 304.542379 151.370347 
L 305.721586 152.107957 
L 307.490397 152.782443 
L 309.848811 153.839013 
L 310.438415 154.320001 
L 312.207225 154.993254 
L 312.796829 155.571626 
L 316.924053 157.517654 
L 317.513657 158.048672 
L 318.10326 158.196493 
L 320.461674 159.266388 
L 321.051278 159.745086 
L 323.999296 161.228911 
L 324.588899 161.740565 
L 326.35771 162.497713 
L 326.947313 162.629228 
L 328.12652 163.321478 
L 329.895331 163.999782 
L 331.074538 164.617688 
L 332.253745 165.230081 
L 332.843348 165.425564 
L 333.432952 165.906112 
L 334.022555 166.135016 
L 334.612159 166.606808 
L 336.970573 167.569277 
L 338.14978 168.172512 
L 339.328987 168.638761 
L 339.918591 169.11158 
L 341.097798 169.5369 
L 343.456212 170.633971 
L 344.045815 170.788075 
L 344.635419 171.389552 
L 347.583436 172.528544 
L 348.17304 172.913618 
L 349.352247 173.283523 
L 350.531454 174.014023 
L 351.121058 174.080194 
L 352.889868 174.962847 
L 355.248282 176.060749 
L 357.606696 177.412672 
L 358.1963 177.489319 
L 360.554714 178.728252 
L 362.913128 179.736778 
L 364.681939 180.775393 
L 372.936388 184.940808 
L 373.525991 185.460088 
L 378.24282 187.66184 
L 381.190837 189.006234 
L 382.370044 189.712686 
L 382.959648 189.908953 
L 384.138855 190.708478 
L 385.318062 191.047594 
L 385.907665 191.252022 
L 389.445286 193.302495 
L 390.03489 193.464951 
L 391.803701 194.478387 
L 392.982908 194.986239 
L 393.572511 195.300673 
L 394.162115 195.406259 
L 395.930925 196.186003 
L 396.520529 196.305992 
L 397.699736 197.010902 
L 398.878943 197.638382 
L 400.05815 198.316535 
L 400.05815 198.316535 
" style="fill:none;stroke:#ff7f0e;stroke-linecap:round;stroke-width:2.275;"/>
   </g>
   <g id="patch_3">
    <path d="M 83.087297 231.052 
L 83.087297 34.848 
" style="fill:none;stroke:#999999;stroke-linecap:square;stroke-linejoin:miter;"/>
   </g>
   <g id="patch_4">
    <path d="M 415.152 231.052 
L 415.152 34.848 
" style="fill:none;stroke:#999999;stroke-linecap:square;stroke-linejoin:miter;"/>
   </g>
   <g id="patch_5">
    <path d="M 83.087297 231.052 
L 415.152 231.052 
" style="fill:none;stroke:#999999;stroke-linecap:square;stroke-linejoin:miter;"/>
   </g>
   <g id="patch_6">
    <path d="M 83.087297 34.848 
L 415.152 34.848 
" style="fill:none;stroke:#999999;stroke-linecap:square;stroke-linejoin:miter;"/>
   </g>
   <g id="text_16">
    <!-- Error vs Iteration (Inconsistent Gaussian) -->
    <defs>
     <path d="M 9.8125 72.90625 
L 55.90625 72.90625 
L 55.90625 64.59375 
L 19.671875 64.59375 
L 19.671875 43.015625 
L 54.390625 43.015625 
L 54.390625 34.71875 
L 19.671875 34.71875 
L 19.671875 8.296875 
L 56.78125 8.296875 
L 56.78125 0 
L 9.8125 0 
z
" id="DejaVuSans-45"/>
     <path id="DejaVuSans-20"/>
     <path d="M 2.984375 54.6875 
L 12.5 54.6875 
L 29.59375 8.796875 
L 46.6875 54.6875 
L 56.203125 54.6875 
L 35.6875 0 
L 23.484375 0 
z
" id="DejaVuSans-76"/>
     <path d="M 44.28125 53.078125 
L 44.28125 44.578125 
Q 40.484375 46.53125 36.375 47.5 
Q 32.28125 48.484375 27.875 48.484375 
Q 21.1875 48.484375 17.84375 46.4375 
Q 14.5 44.390625 14.5 40.28125 
Q 14.5 37.15625 16.890625 35.375 
Q 19.28125 33.59375 26.515625 31.984375 
L 29.59375 31.296875 
Q 39.15625 29.25 43.1875 25.515625 
Q 47.21875 21.78125 47.21875 15.09375 
Q 47.21875 7.46875 41.1875 3.015625 
Q 35.15625 -1.421875 24.609375 -1.421875 
Q 20.21875 -1.421875 15.453125 -0.5625 
Q 10.6875 0.296875 5.421875 2 
L 5.421875 11.28125 
Q 10.40625 8.6875 15.234375 7.390625 
Q 20.0625 6.109375 24.8125 6.109375 
Q 31.15625 6.109375 34.5625 8.28125 
Q 37.984375 10.453125 37.984375 14.40625 
Q 37.984375 18.0625 35.515625 20.015625 
Q 33.0625 21.96875 24.703125 23.78125 
L 21.578125 24.515625 
Q 13.234375 26.265625 9.515625 29.90625 
Q 5.8125 33.546875 5.8125 39.890625 
Q 5.8125 47.609375 11.28125 51.796875 
Q 16.75 56 26.8125 56 
Q 31.78125 56 36.171875 55.265625 
Q 40.578125 54.546875 44.28125 53.078125 
z
" id="DejaVuSans-73"/>
     <path d="M 31 75.875 
Q 24.46875 64.65625 21.28125 53.65625 
Q 18.109375 42.671875 18.109375 31.390625 
Q 18.109375 20.125 21.3125 9.0625 
Q 24.515625 -2 31 -13.1875 
L 23.1875 -13.1875 
Q 15.875 -1.703125 12.234375 9.375 
Q 8.59375 20.453125 8.59375 31.390625 
Q 8.59375 42.28125 12.203125 53.3125 
Q 15.828125 64.359375 23.1875 75.875 
z
" id="DejaVuSans-28"/>
     <path d="M 48.78125 52.59375 
L 48.78125 44.1875 
Q 44.96875 46.296875 41.140625 47.34375 
Q 37.3125 48.390625 33.40625 48.390625 
Q 24.65625 48.390625 19.8125 42.84375 
Q 14.984375 37.3125 14.984375 27.296875 
Q 14.984375 17.28125 19.8125 11.734375 
Q 24.65625 6.203125 33.40625 6.203125 
Q 37.3125 6.203125 41.140625 7.25 
Q 44.96875 8.296875 48.78125 10.40625 
L 48.78125 2.09375 
Q 45.015625 0.34375 40.984375 -0.53125 
Q 36.96875 -1.421875 32.421875 -1.421875 
Q 20.0625 -1.421875 12.78125 6.34375 
Q 5.515625 14.109375 5.515625 27.296875 
Q 5.515625 40.671875 12.859375 48.328125 
Q 20.21875 56 33.015625 56 
Q 37.15625 56 41.109375 55.140625 
Q 45.0625 54.296875 48.78125 52.59375 
z
" id="DejaVuSans-63"/>
     <path d="M 59.515625 10.40625 
L 59.515625 29.984375 
L 43.40625 29.984375 
L 43.40625 38.09375 
L 69.28125 38.09375 
L 69.28125 6.78125 
Q 63.578125 2.734375 56.6875 0.65625 
Q 49.8125 -1.421875 42 -1.421875 
Q 24.90625 -1.421875 15.25 8.5625 
Q 5.609375 18.5625 5.609375 36.375 
Q 5.609375 54.25 15.25 64.234375 
Q 24.90625 74.21875 42 74.21875 
Q 49.125 74.21875 55.546875 72.453125 
Q 61.96875 70.703125 67.390625 67.28125 
L 67.390625 56.78125 
Q 61.921875 61.421875 55.765625 63.765625 
Q 49.609375 66.109375 42.828125 66.109375 
Q 29.4375 66.109375 22.71875 58.640625 
Q 16.015625 51.171875 16.015625 36.375 
Q 16.015625 21.625 22.71875 14.15625 
Q 29.4375 6.6875 42.828125 6.6875 
Q 48.046875 6.6875 52.140625 7.59375 
Q 56.25 8.5 59.515625 10.40625 
z
" id="DejaVuSans-47"/>
     <path d="M 8.5 21.578125 
L 8.5 54.6875 
L 17.484375 54.6875 
L 17.484375 21.921875 
Q 17.484375 14.15625 20.5 10.265625 
Q 23.53125 6.390625 29.59375 6.390625 
Q 36.859375 6.390625 41.078125 11.03125 
Q 45.3125 15.671875 45.3125 23.6875 
L 45.3125 54.6875 
L 54.296875 54.6875 
L 54.296875 0 
L 45.3125 0 
L 45.3125 8.40625 
Q 42.046875 3.421875 37.71875 1 
Q 33.40625 -1.421875 27.6875 -1.421875 
Q 18.265625 -1.421875 13.375 4.4375 
Q 8.5 10.296875 8.5 21.578125 
z
M 31.109375 56 
z
" id="DejaVuSans-75"/>
     <path d="M 8.015625 75.875 
L 15.828125 75.875 
Q 23.140625 64.359375 26.78125 53.3125 
Q 30.421875 42.28125 30.421875 31.390625 
Q 30.421875 20.453125 26.78125 9.375 
Q 23.140625 -1.703125 15.828125 -13.1875 
L 8.015625 -13.1875 
Q 14.5 -2 17.703125 9.0625 
Q 20.90625 20.125 20.90625 31.390625 
Q 20.90625 42.671875 17.703125 53.65625 
Q 14.5 64.65625 8.015625 75.875 
z
" id="DejaVuSans-29"/>
    </defs>
    <g style="fill:#262626;" transform="translate(88.850367 28.848)scale(0.156 -0.156)">
     <use xlink:href="#DejaVuSans-45"/>
     <use x="63.183594" xlink:href="#DejaVuSans-72"/>
     <use x="104.28125" xlink:href="#DejaVuSans-72"/>
     <use x="145.363281" xlink:href="#DejaVuSans-6f"/>
     <use x="206.544922" xlink:href="#DejaVuSans-72"/>
     <use x="247.658203" xlink:href="#DejaVuSans-20"/>
     <use x="279.445312" xlink:href="#DejaVuSans-76"/>
     <use x="338.625" xlink:href="#DejaVuSans-73"/>
     <use x="390.724609" xlink:href="#DejaVuSans-20"/>
     <use x="422.511719" xlink:href="#DejaVuSans-49"/>
     <use x="452.003906" xlink:href="#DejaVuSans-74"/>
     <use x="491.212891" xlink:href="#DejaVuSans-65"/>
     <use x="552.736328" xlink:href="#DejaVuSans-72"/>
     <use x="593.849609" xlink:href="#DejaVuSans-61"/>
     <use x="655.128906" xlink:href="#DejaVuSans-74"/>
     <use x="694.337891" xlink:href="#DejaVuSans-69"/>
     <use x="722.121094" xlink:href="#DejaVuSans-6f"/>
     <use x="783.302734" xlink:href="#DejaVuSans-6e"/>
     <use x="846.681641" xlink:href="#DejaVuSans-20"/>
     <use x="878.46875" xlink:href="#DejaVuSans-28"/>
     <use x="917.482422" xlink:href="#DejaVuSans-49"/>
     <use x="946.974609" xlink:href="#DejaVuSans-6e"/>
     <use x="1010.353516" xlink:href="#DejaVuSans-63"/>
     <use x="1065.333984" xlink:href="#DejaVuSans-6f"/>
     <use x="1126.515625" xlink:href="#DejaVuSans-6e"/>
     <use x="1189.894531" xlink:href="#DejaVuSans-73"/>
     <use x="1241.994141" xlink:href="#DejaVuSans-69"/>
     <use x="1269.777344" xlink:href="#DejaVuSans-73"/>
     <use x="1321.876953" xlink:href="#DejaVuSans-74"/>
     <use x="1361.085938" xlink:href="#DejaVuSans-65"/>
     <use x="1422.609375" xlink:href="#DejaVuSans-6e"/>
     <use x="1485.988281" xlink:href="#DejaVuSans-74"/>
     <use x="1525.197266" xlink:href="#DejaVuSans-20"/>
     <use x="1556.984375" xlink:href="#DejaVuSans-47"/>
     <use x="1634.474609" xlink:href="#DejaVuSans-61"/>
     <use x="1695.753906" xlink:href="#DejaVuSans-75"/>
     <use x="1759.132812" xlink:href="#DejaVuSans-73"/>
     <use x="1811.232422" xlink:href="#DejaVuSans-73"/>
     <use x="1863.332031" xlink:href="#DejaVuSans-69"/>
     <use x="1891.115234" xlink:href="#DejaVuSans-61"/>
     <use x="1952.394531" xlink:href="#DejaVuSans-6e"/>
     <use x="2015.773438" xlink:href="#DejaVuSans-29"/>
    </g>
   </g>
   <g id="legend_1">
    <g id="line2d_29">
     <path d="M 315.616687 51.875969 
L 341.616687 51.875969 
" style="fill:none;stroke:#1f77b4;stroke-linecap:round;stroke-width:2.275;"/>
    </g>
    <g id="line2d_30"/>
    <g id="text_17">
     <!-- Vanilla -->
     <defs>
      <path d="M 28.609375 0 
L 0.78125 72.90625 
L 11.078125 72.90625 
L 34.1875 11.53125 
L 57.328125 72.90625 
L 67.578125 72.90625 
L 39.796875 0 
z
" id="DejaVuSans-56"/>
      <path d="M 9.421875 75.984375 
L 18.40625 75.984375 
L 18.40625 0 
L 9.421875 0 
z
" id="DejaVuSans-6c"/>
     </defs>
     <g style="fill:#262626;" transform="translate(352.016687 56.425969)scale(0.13 -0.13)">
      <use xlink:href="#DejaVuSans-56"/>
      <use x="68.298828" xlink:href="#DejaVuSans-61"/>
      <use x="129.578125" xlink:href="#DejaVuSans-6e"/>
      <use x="192.957031" xlink:href="#DejaVuSans-69"/>
      <use x="220.740234" xlink:href="#DejaVuSans-6c"/>
      <use x="248.523438" xlink:href="#DejaVuSans-6c"/>
      <use x="276.306641" xlink:href="#DejaVuSans-61"/>
     </g>
    </g>
    <g id="line2d_31">
     <path d="M 315.616687 70.957531 
L 341.616687 70.957531 
" style="fill:none;stroke:#ff7f0e;stroke-linecap:round;stroke-width:2.275;"/>
    </g>
    <g id="line2d_32"/>
    <g id="text_18">
     <!-- Optimal -->
     <defs>
      <path d="M 39.40625 66.21875 
Q 28.65625 66.21875 22.328125 58.203125 
Q 16.015625 50.203125 16.015625 36.375 
Q 16.015625 22.609375 22.328125 14.59375 
Q 28.65625 6.59375 39.40625 6.59375 
Q 50.140625 6.59375 56.421875 14.59375 
Q 62.703125 22.609375 62.703125 36.375 
Q 62.703125 50.203125 56.421875 58.203125 
Q 50.140625 66.21875 39.40625 66.21875 
z
M 39.40625 74.21875 
Q 54.734375 74.21875 63.90625 63.9375 
Q 73.09375 53.65625 73.09375 36.375 
Q 73.09375 19.140625 63.90625 8.859375 
Q 54.734375 -1.421875 39.40625 -1.421875 
Q 24.03125 -1.421875 14.8125 8.828125 
Q 5.609375 19.09375 5.609375 36.375 
Q 5.609375 53.65625 14.8125 63.9375 
Q 24.03125 74.21875 39.40625 74.21875 
z
" id="DejaVuSans-4f"/>
      <path d="M 18.109375 8.203125 
L 18.109375 -20.796875 
L 9.078125 -20.796875 
L 9.078125 54.6875 
L 18.109375 54.6875 
L 18.109375 46.390625 
Q 20.953125 51.265625 25.265625 53.625 
Q 29.59375 56 35.59375 56 
Q 45.5625 56 51.78125 48.09375 
Q 58.015625 40.1875 58.015625 27.296875 
Q 58.015625 14.40625 51.78125 6.484375 
Q 45.5625 -1.421875 35.59375 -1.421875 
Q 29.59375 -1.421875 25.265625 0.953125 
Q 20.953125 3.328125 18.109375 8.203125 
z
M 48.6875 27.296875 
Q 48.6875 37.203125 44.609375 42.84375 
Q 40.53125 48.484375 33.40625 48.484375 
Q 26.265625 48.484375 22.1875 42.84375 
Q 18.109375 37.203125 18.109375 27.296875 
Q 18.109375 17.390625 22.1875 11.75 
Q 26.265625 6.109375 33.40625 6.109375 
Q 40.53125 6.109375 44.609375 11.75 
Q 48.6875 17.390625 48.6875 27.296875 
z
" id="DejaVuSans-70"/>
      <path d="M 52 44.1875 
Q 55.375 50.25 60.0625 53.125 
Q 64.75 56 71.09375 56 
Q 79.640625 56 84.28125 50.015625 
Q 88.921875 44.046875 88.921875 33.015625 
L 88.921875 0 
L 79.890625 0 
L 79.890625 32.71875 
Q 79.890625 40.578125 77.09375 44.375 
Q 74.3125 48.1875 68.609375 48.1875 
Q 61.625 48.1875 57.5625 43.546875 
Q 53.515625 38.921875 53.515625 30.90625 
L 53.515625 0 
L 44.484375 0 
L 44.484375 32.71875 
Q 44.484375 40.625 41.703125 44.40625 
Q 38.921875 48.1875 33.109375 48.1875 
Q 26.21875 48.1875 22.15625 43.53125 
Q 18.109375 38.875 18.109375 30.90625 
L 18.109375 0 
L 9.078125 0 
L 9.078125 54.6875 
L 18.109375 54.6875 
L 18.109375 46.1875 
Q 21.1875 51.21875 25.484375 53.609375 
Q 29.78125 56 35.6875 56 
Q 41.65625 56 45.828125 52.96875 
Q 50 49.953125 52 44.1875 
z
" id="DejaVuSans-6d"/>
     </defs>
     <g style="fill:#262626;" transform="translate(352.016687 75.507531)scale(0.13 -0.13)">
      <use xlink:href="#DejaVuSans-4f"/>
      <use x="78.710938" xlink:href="#DejaVuSans-70"/>
      <use x="142.1875" xlink:href="#DejaVuSans-74"/>
      <use x="181.396484" xlink:href="#DejaVuSans-69"/>
      <use x="209.179688" xlink:href="#DejaVuSans-6d"/>
      <use x="306.591797" xlink:href="#DejaVuSans-61"/>
      <use x="367.871094" xlink:href="#DejaVuSans-6c"/>
     </g>
    </g>
   </g>
  </g>
 </g>
 <defs>
  <clipPath id="p860122ec77">
   <rect height="196.204" width="332.064703" x="83.087297" y="34.848"/>
  </clipPath>
 </defs>
</svg>
