<?xml version="1.0" encoding="utf-8" standalone="no"?>
<!DOCTYPE svg PUBLIC "-//W3C//DTD SVG 1.1//EN"
  "http://www.w3.org/Graphics/SVG/1.1/DTD/svg11.dtd">
<!-- Created with matplotlib (http://matplotlib.org/) -->
<svg height="288pt" version="1.1" viewBox="0 0 432 288" width="432pt" xmlns="http://www.w3.org/2000/svg" xmlns:xlink="http://www.w3.org/1999/xlink">
 <defs>
  <style type="text/css">
*{stroke-linecap:butt;stroke-linejoin:round;}
  </style>
 </defs>
 <g id="figure_1">
  <g id="patch_1">
   <path d="M 0 288 
L 432 288 
L 432 0 
L 0 0 
z
" style="fill:none;"/>
  </g>
  <g id="axes_1">
   <g id="patch_2">
    <path d="M 88.939494 231.052 
L 415.152 231.052 
L 415.152 34.848 
L 88.939494 34.848 
z
" style="fill:none;"/>
   </g>
   <g id="matplotlib.axis_1">
    <g id="xtick_1">
     <g id="line2d_1">
      <path clip-path="url(#p5f7fbc802a)" d="M 103.767335 231.052 
L 103.767335 34.848 
" style="fill:none;stroke:#999999;stroke-linecap:round;stroke-width:1.3;"/>
     </g>
     <g id="line2d_2"/>
     <g id="text_1">
      <!-- 0 -->
      <defs>
       <path d="M 31.78125 66.40625 
Q 24.171875 66.40625 20.328125 58.90625 
Q 16.5 51.421875 16.5 36.375 
Q 16.5 21.390625 20.328125 13.890625 
Q 24.171875 6.390625 31.78125 6.390625 
Q 39.453125 6.390625 43.28125 13.890625 
Q 47.125 21.390625 47.125 36.375 
Q 47.125 51.421875 43.28125 58.90625 
Q 39.453125 66.40625 31.78125 66.40625 
z
M 31.78125 74.21875 
Q 44.046875 74.21875 50.515625 64.515625 
Q 56.984375 54.828125 56.984375 36.375 
Q 56.984375 17.96875 50.515625 8.265625 
Q 44.046875 -1.421875 31.78125 -1.421875 
Q 19.53125 -1.421875 13.0625 8.265625 
Q 6.59375 17.96875 6.59375 36.375 
Q 6.59375 54.828125 13.0625 64.515625 
Q 19.53125 74.21875 31.78125 74.21875 
z
" id="DejaVuSans-30"/>
      </defs>
      <g style="fill:#262626;" transform="translate(99.63171 250.029969)scale(0.13 -0.13)">
       <use xlink:href="#DejaVuSans-30"/>
      </g>
     </g>
    </g>
    <g id="xtick_2">
     <g id="line2d_3">
      <path clip-path="url(#p5f7fbc802a)" d="M 161.68859 231.052 
L 161.68859 34.848 
" style="fill:none;stroke:#999999;stroke-linecap:round;stroke-width:1.3;"/>
     </g>
     <g id="line2d_4"/>
     <g id="text_2">
      <!-- 100 -->
      <defs>
       <path d="M 12.40625 8.296875 
L 28.515625 8.296875 
L 28.515625 63.921875 
L 10.984375 60.40625 
L 10.984375 69.390625 
L 28.421875 72.90625 
L 38.28125 72.90625 
L 38.28125 8.296875 
L 54.390625 8.296875 
L 54.390625 0 
L 12.40625 0 
z
" id="DejaVuSans-31"/>
      </defs>
      <g style="fill:#262626;" transform="translate(149.281715 250.029969)scale(0.13 -0.13)">
       <use xlink:href="#DejaVuSans-31"/>
       <use x="63.623047" xlink:href="#DejaVuSans-30"/>
       <use x="127.246094" xlink:href="#DejaVuSans-30"/>
      </g>
     </g>
    </g>
    <g id="xtick_3">
     <g id="line2d_5">
      <path clip-path="url(#p5f7fbc802a)" d="M 219.609844 231.052 
L 219.609844 34.848 
" style="fill:none;stroke:#999999;stroke-linecap:round;stroke-width:1.3;"/>
     </g>
     <g id="line2d_6"/>
     <g id="text_3">
      <!-- 200 -->
      <defs>
       <path d="M 19.1875 8.296875 
L 53.609375 8.296875 
L 53.609375 0 
L 7.328125 0 
L 7.328125 8.296875 
Q 12.9375 14.109375 22.625 23.890625 
Q 32.328125 33.6875 34.8125 36.53125 
Q 39.546875 41.84375 41.421875 45.53125 
Q 43.3125 49.21875 43.3125 52.78125 
Q 43.3125 58.59375 39.234375 62.25 
Q 35.15625 65.921875 28.609375 65.921875 
Q 23.96875 65.921875 18.8125 64.3125 
Q 13.671875 62.703125 7.8125 59.421875 
L 7.8125 69.390625 
Q 13.765625 71.78125 18.9375 73 
Q 24.125 74.21875 28.421875 74.21875 
Q 39.75 74.21875 46.484375 68.546875 
Q 53.21875 62.890625 53.21875 53.421875 
Q 53.21875 48.921875 51.53125 44.890625 
Q 49.859375 40.875 45.40625 35.40625 
Q 44.1875 33.984375 37.640625 27.21875 
Q 31.109375 20.453125 19.1875 8.296875 
z
" id="DejaVuSans-32"/>
      </defs>
      <g style="fill:#262626;" transform="translate(207.202969 250.029969)scale(0.13 -0.13)">
       <use xlink:href="#DejaVuSans-32"/>
       <use x="63.623047" xlink:href="#DejaVuSans-30"/>
       <use x="127.246094" xlink:href="#DejaVuSans-30"/>
      </g>
     </g>
    </g>
    <g id="xtick_4">
     <g id="line2d_7">
      <path clip-path="url(#p5f7fbc802a)" d="M 277.531099 231.052 
L 277.531099 34.848 
" style="fill:none;stroke:#999999;stroke-linecap:round;stroke-width:1.3;"/>
     </g>
     <g id="line2d_8"/>
     <g id="text_4">
      <!-- 300 -->
      <defs>
       <path d="M 40.578125 39.3125 
Q 47.65625 37.796875 51.625 33 
Q 55.609375 28.21875 55.609375 21.1875 
Q 55.609375 10.40625 48.1875 4.484375 
Q 40.765625 -1.421875 27.09375 -1.421875 
Q 22.515625 -1.421875 17.65625 -0.515625 
Q 12.796875 0.390625 7.625 2.203125 
L 7.625 11.71875 
Q 11.71875 9.328125 16.59375 8.109375 
Q 21.484375 6.890625 26.8125 6.890625 
Q 36.078125 6.890625 40.9375 10.546875 
Q 45.796875 14.203125 45.796875 21.1875 
Q 45.796875 27.640625 41.28125 31.265625 
Q 36.765625 34.90625 28.71875 34.90625 
L 20.21875 34.90625 
L 20.21875 43.015625 
L 29.109375 43.015625 
Q 36.375 43.015625 40.234375 45.921875 
Q 44.09375 48.828125 44.09375 54.296875 
Q 44.09375 59.90625 40.109375 62.90625 
Q 36.140625 65.921875 28.71875 65.921875 
Q 24.65625 65.921875 20.015625 65.03125 
Q 15.375 64.15625 9.8125 62.3125 
L 9.8125 71.09375 
Q 15.4375 72.65625 20.34375 73.4375 
Q 25.25 74.21875 29.59375 74.21875 
Q 40.828125 74.21875 47.359375 69.109375 
Q 53.90625 64.015625 53.90625 55.328125 
Q 53.90625 49.265625 50.4375 45.09375 
Q 46.96875 40.921875 40.578125 39.3125 
z
" id="DejaVuSans-33"/>
      </defs>
      <g style="fill:#262626;" transform="translate(265.124224 250.029969)scale(0.13 -0.13)">
       <use xlink:href="#DejaVuSans-33"/>
       <use x="63.623047" xlink:href="#DejaVuSans-30"/>
       <use x="127.246094" xlink:href="#DejaVuSans-30"/>
      </g>
     </g>
    </g>
    <g id="xtick_5">
     <g id="line2d_9">
      <path clip-path="url(#p5f7fbc802a)" d="M 335.452354 231.052 
L 335.452354 34.848 
" style="fill:none;stroke:#999999;stroke-linecap:round;stroke-width:1.3;"/>
     </g>
     <g id="line2d_10"/>
     <g id="text_5">
      <!-- 400 -->
      <defs>
       <path d="M 37.796875 64.3125 
L 12.890625 25.390625 
L 37.796875 25.390625 
z
M 35.203125 72.90625 
L 47.609375 72.90625 
L 47.609375 25.390625 
L 58.015625 25.390625 
L 58.015625 17.1875 
L 47.609375 17.1875 
L 47.609375 0 
L 37.796875 0 
L 37.796875 17.1875 
L 4.890625 17.1875 
L 4.890625 26.703125 
z
" id="DejaVuSans-34"/>
      </defs>
      <g style="fill:#262626;" transform="translate(323.045479 250.029969)scale(0.13 -0.13)">
       <use xlink:href="#DejaVuSans-34"/>
       <use x="63.623047" xlink:href="#DejaVuSans-30"/>
       <use x="127.246094" xlink:href="#DejaVuSans-30"/>
      </g>
     </g>
    </g>
    <g id="xtick_6">
     <g id="line2d_11">
      <path clip-path="url(#p5f7fbc802a)" d="M 393.373608 231.052 
L 393.373608 34.848 
" style="fill:none;stroke:#999999;stroke-linecap:round;stroke-width:1.3;"/>
     </g>
     <g id="line2d_12"/>
     <g id="text_6">
      <!-- 500 -->
      <defs>
       <path d="M 10.796875 72.90625 
L 49.515625 72.90625 
L 49.515625 64.59375 
L 19.828125 64.59375 
L 19.828125 46.734375 
Q 21.96875 47.46875 24.109375 47.828125 
Q 26.265625 48.1875 28.421875 48.1875 
Q 40.625 48.1875 47.75 41.5 
Q 54.890625 34.8125 54.890625 23.390625 
Q 54.890625 11.625 47.5625 5.09375 
Q 40.234375 -1.421875 26.90625 -1.421875 
Q 22.3125 -1.421875 17.546875 -0.640625 
Q 12.796875 0.140625 7.71875 1.703125 
L 7.71875 11.625 
Q 12.109375 9.234375 16.796875 8.0625 
Q 21.484375 6.890625 26.703125 6.890625 
Q 35.15625 6.890625 40.078125 11.328125 
Q 45.015625 15.765625 45.015625 23.390625 
Q 45.015625 31 40.078125 35.4375 
Q 35.15625 39.890625 26.703125 39.890625 
Q 22.75 39.890625 18.8125 39.015625 
Q 14.890625 38.140625 10.796875 36.28125 
z
" id="DejaVuSans-35"/>
      </defs>
      <g style="fill:#262626;" transform="translate(380.966733 250.029969)scale(0.13 -0.13)">
       <use xlink:href="#DejaVuSans-35"/>
       <use x="63.623047" xlink:href="#DejaVuSans-30"/>
       <use x="127.246094" xlink:href="#DejaVuSans-30"/>
      </g>
     </g>
    </g>
    <g id="text_7">
     <!-- Iteration -->
     <defs>
      <path d="M 9.8125 72.90625 
L 19.671875 72.90625 
L 19.671875 0 
L 9.8125 0 
z
" id="DejaVuSans-49"/>
      <path d="M 18.3125 70.21875 
L 18.3125 54.6875 
L 36.8125 54.6875 
L 36.8125 47.703125 
L 18.3125 47.703125 
L 18.3125 18.015625 
Q 18.3125 11.328125 20.140625 9.421875 
Q 21.96875 7.515625 27.59375 7.515625 
L 36.8125 7.515625 
L 36.8125 0 
L 27.59375 0 
Q 17.1875 0 13.234375 3.875 
Q 9.28125 7.765625 9.28125 18.015625 
L 9.28125 47.703125 
L 2.6875 47.703125 
L 2.6875 54.6875 
L 9.28125 54.6875 
L 9.28125 70.21875 
z
" id="DejaVuSans-74"/>
      <path d="M 56.203125 29.59375 
L 56.203125 25.203125 
L 14.890625 25.203125 
Q 15.484375 15.921875 20.484375 11.0625 
Q 25.484375 6.203125 34.421875 6.203125 
Q 39.59375 6.203125 44.453125 7.46875 
Q 49.3125 8.734375 54.109375 11.28125 
L 54.109375 2.78125 
Q 49.265625 0.734375 44.1875 -0.34375 
Q 39.109375 -1.421875 33.890625 -1.421875 
Q 20.796875 -1.421875 13.15625 6.1875 
Q 5.515625 13.8125 5.515625 26.8125 
Q 5.515625 40.234375 12.765625 48.109375 
Q 20.015625 56 32.328125 56 
Q 43.359375 56 49.78125 48.890625 
Q 56.203125 41.796875 56.203125 29.59375 
z
M 47.21875 32.234375 
Q 47.125 39.59375 43.09375 43.984375 
Q 39.0625 48.390625 32.421875 48.390625 
Q 24.90625 48.390625 20.390625 44.140625 
Q 15.875 39.890625 15.1875 32.171875 
z
" id="DejaVuSans-65"/>
      <path d="M 41.109375 46.296875 
Q 39.59375 47.171875 37.8125 47.578125 
Q 36.03125 48 33.890625 48 
Q 26.265625 48 22.1875 43.046875 
Q 18.109375 38.09375 18.109375 28.8125 
L 18.109375 0 
L 9.078125 0 
L 9.078125 54.6875 
L 18.109375 54.6875 
L 18.109375 46.1875 
Q 20.953125 51.171875 25.484375 53.578125 
Q 30.03125 56 36.53125 56 
Q 37.453125 56 38.578125 55.875 
Q 39.703125 55.765625 41.0625 55.515625 
z
" id="DejaVuSans-72"/>
      <path d="M 34.28125 27.484375 
Q 23.390625 27.484375 19.1875 25 
Q 14.984375 22.515625 14.984375 16.5 
Q 14.984375 11.71875 18.140625 8.90625 
Q 21.296875 6.109375 26.703125 6.109375 
Q 34.1875 6.109375 38.703125 11.40625 
Q 43.21875 16.703125 43.21875 25.484375 
L 43.21875 27.484375 
z
M 52.203125 31.203125 
L 52.203125 0 
L 43.21875 0 
L 43.21875 8.296875 
Q 40.140625 3.328125 35.546875 0.953125 
Q 30.953125 -1.421875 24.3125 -1.421875 
Q 15.921875 -1.421875 10.953125 3.296875 
Q 6 8.015625 6 15.921875 
Q 6 25.140625 12.171875 29.828125 
Q 18.359375 34.515625 30.609375 34.515625 
L 43.21875 34.515625 
L 43.21875 35.40625 
Q 43.21875 41.609375 39.140625 45 
Q 35.0625 48.390625 27.6875 48.390625 
Q 23 48.390625 18.546875 47.265625 
Q 14.109375 46.140625 10.015625 43.890625 
L 10.015625 52.203125 
Q 14.9375 54.109375 19.578125 55.046875 
Q 24.21875 56 28.609375 56 
Q 40.484375 56 46.34375 49.84375 
Q 52.203125 43.703125 52.203125 31.203125 
z
" id="DejaVuSans-61"/>
      <path d="M 9.421875 54.6875 
L 18.40625 54.6875 
L 18.40625 0 
L 9.421875 0 
z
M 9.421875 75.984375 
L 18.40625 75.984375 
L 18.40625 64.59375 
L 9.421875 64.59375 
z
" id="DejaVuSans-69"/>
      <path d="M 30.609375 48.390625 
Q 23.390625 48.390625 19.1875 42.75 
Q 14.984375 37.109375 14.984375 27.296875 
Q 14.984375 17.484375 19.15625 11.84375 
Q 23.34375 6.203125 30.609375 6.203125 
Q 37.796875 6.203125 41.984375 11.859375 
Q 46.1875 17.53125 46.1875 27.296875 
Q 46.1875 37.015625 41.984375 42.703125 
Q 37.796875 48.390625 30.609375 48.390625 
z
M 30.609375 56 
Q 42.328125 56 49.015625 48.375 
Q 55.71875 40.765625 55.71875 27.296875 
Q 55.71875 13.875 49.015625 6.21875 
Q 42.328125 -1.421875 30.609375 -1.421875 
Q 18.84375 -1.421875 12.171875 6.21875 
Q 5.515625 13.875 5.515625 27.296875 
Q 5.515625 40.765625 12.171875 48.375 
Q 18.84375 56 30.609375 56 
z
" id="DejaVuSans-6f"/>
      <path d="M 54.890625 33.015625 
L 54.890625 0 
L 45.90625 0 
L 45.90625 32.71875 
Q 45.90625 40.484375 42.875 44.328125 
Q 39.84375 48.1875 33.796875 48.1875 
Q 26.515625 48.1875 22.3125 43.546875 
Q 18.109375 38.921875 18.109375 30.90625 
L 18.109375 0 
L 9.078125 0 
L 9.078125 54.6875 
L 18.109375 54.6875 
L 18.109375 46.1875 
Q 21.34375 51.125 25.703125 53.5625 
Q 30.078125 56 35.796875 56 
Q 45.21875 56 50.046875 50.171875 
Q 54.890625 44.34375 54.890625 33.015625 
z
" id="DejaVuSans-6e"/>
     </defs>
     <g style="fill:#262626;" transform="translate(221.717458 267.599328)scale(0.143 -0.143)">
      <use xlink:href="#DejaVuSans-49"/>
      <use x="29.492188" xlink:href="#DejaVuSans-74"/>
      <use x="68.701172" xlink:href="#DejaVuSans-65"/>
      <use x="130.224609" xlink:href="#DejaVuSans-72"/>
      <use x="171.337891" xlink:href="#DejaVuSans-61"/>
      <use x="232.617188" xlink:href="#DejaVuSans-74"/>
      <use x="271.826172" xlink:href="#DejaVuSans-69"/>
      <use x="299.609375" xlink:href="#DejaVuSans-6f"/>
      <use x="360.791016" xlink:href="#DejaVuSans-6e"/>
     </g>
    </g>
   </g>
   <g id="matplotlib.axis_2">
    <g id="ytick_1">
     <g id="line2d_13">
      <path clip-path="url(#p5f7fbc802a)" d="M 88.939494 204.43314 
L 415.152 204.43314 
" style="fill:none;stroke:#999999;stroke-linecap:round;stroke-width:1.3;"/>
     </g>
     <g id="line2d_14"/>
     <g id="text_8">
      <!-- $\mathdefault{10^{-37}}$ -->
      <defs>
       <path d="M 10.59375 35.5 
L 73.1875 35.5 
L 73.1875 27.203125 
L 10.59375 27.203125 
z
" id="DejaVuSans-2212"/>
       <path d="M 8.203125 72.90625 
L 55.078125 72.90625 
L 55.078125 68.703125 
L 28.609375 0 
L 18.3125 0 
L 43.21875 64.59375 
L 8.203125 64.59375 
z
" id="DejaVuSans-37"/>
      </defs>
      <g style="fill:#262626;" transform="translate(43.569494 209.372124)scale(0.13 -0.13)">
       <use transform="translate(0 0.765625)" xlink:href="#DejaVuSans-31"/>
       <use transform="translate(63.623047 0.765625)" xlink:href="#DejaVuSans-30"/>
       <use transform="translate(128.203125 39.046875)scale(0.7)" xlink:href="#DejaVuSans-2212"/>
       <use transform="translate(186.855469 39.046875)scale(0.7)" xlink:href="#DejaVuSans-33"/>
       <use transform="translate(231.391602 39.046875)scale(0.7)" xlink:href="#DejaVuSans-37"/>
      </g>
     </g>
    </g>
    <g id="ytick_2">
     <g id="line2d_15">
      <path clip-path="url(#p5f7fbc802a)" d="M 88.939494 176.521983 
L 415.152 176.521983 
" style="fill:none;stroke:#999999;stroke-linecap:round;stroke-width:1.3;"/>
     </g>
     <g id="line2d_16"/>
     <g id="text_9">
      <!-- $\mathdefault{10^{-29}}$ -->
      <defs>
       <path d="M 10.984375 1.515625 
L 10.984375 10.5 
Q 14.703125 8.734375 18.5 7.8125 
Q 22.3125 6.890625 25.984375 6.890625 
Q 35.75 6.890625 40.890625 13.453125 
Q 46.046875 20.015625 46.78125 33.40625 
Q 43.953125 29.203125 39.59375 26.953125 
Q 35.25 24.703125 29.984375 24.703125 
Q 19.046875 24.703125 12.671875 31.3125 
Q 6.296875 37.9375 6.296875 49.421875 
Q 6.296875 60.640625 12.9375 67.421875 
Q 19.578125 74.21875 30.609375 74.21875 
Q 43.265625 74.21875 49.921875 64.515625 
Q 56.59375 54.828125 56.59375 36.375 
Q 56.59375 19.140625 48.40625 8.859375 
Q 40.234375 -1.421875 26.421875 -1.421875 
Q 22.703125 -1.421875 18.890625 -0.6875 
Q 15.09375 0.046875 10.984375 1.515625 
z
M 30.609375 32.421875 
Q 37.25 32.421875 41.125 36.953125 
Q 45.015625 41.5 45.015625 49.421875 
Q 45.015625 57.28125 41.125 61.84375 
Q 37.25 66.40625 30.609375 66.40625 
Q 23.96875 66.40625 20.09375 61.84375 
Q 16.21875 57.28125 16.21875 49.421875 
Q 16.21875 41.5 20.09375 36.953125 
Q 23.96875 32.421875 30.609375 32.421875 
z
" id="DejaVuSans-39"/>
      </defs>
      <g style="fill:#262626;" transform="translate(43.569494 181.460968)scale(0.13 -0.13)">
       <use transform="translate(0 0.765625)" xlink:href="#DejaVuSans-31"/>
       <use transform="translate(63.623047 0.765625)" xlink:href="#DejaVuSans-30"/>
       <use transform="translate(128.203125 39.046875)scale(0.7)" xlink:href="#DejaVuSans-2212"/>
       <use transform="translate(186.855469 39.046875)scale(0.7)" xlink:href="#DejaVuSans-32"/>
       <use transform="translate(231.380664 39.046875)scale(0.7)" xlink:href="#DejaVuSans-39"/>
      </g>
     </g>
    </g>
    <g id="ytick_3">
     <g id="line2d_17">
      <path clip-path="url(#p5f7fbc802a)" d="M 88.939494 148.610827 
L 415.152 148.610827 
" style="fill:none;stroke:#999999;stroke-linecap:round;stroke-width:1.3;"/>
     </g>
     <g id="line2d_18"/>
     <g id="text_10">
      <!-- $\mathdefault{10^{-21}}$ -->
      <g style="fill:#262626;" transform="translate(43.569494 153.549811)scale(0.13 -0.13)">
       <use transform="translate(0 0.765625)" xlink:href="#DejaVuSans-31"/>
       <use transform="translate(63.623047 0.765625)" xlink:href="#DejaVuSans-30"/>
       <use transform="translate(128.203125 39.046875)scale(0.7)" xlink:href="#DejaVuSans-2212"/>
       <use transform="translate(186.855469 39.046875)scale(0.7)" xlink:href="#DejaVuSans-32"/>
       <use transform="translate(231.391602 39.046875)scale(0.7)" xlink:href="#DejaVuSans-31"/>
      </g>
     </g>
    </g>
    <g id="ytick_4">
     <g id="line2d_19">
      <path clip-path="url(#p5f7fbc802a)" d="M 88.939494 120.69967 
L 415.152 120.69967 
" style="fill:none;stroke:#999999;stroke-linecap:round;stroke-width:1.3;"/>
     </g>
     <g id="line2d_20"/>
     <g id="text_11">
      <!-- $\mathdefault{10^{-13}}$ -->
      <g style="fill:#262626;" transform="translate(43.569494 125.638655)scale(0.13 -0.13)">
       <use transform="translate(0 0.765625)" xlink:href="#DejaVuSans-31"/>
       <use transform="translate(63.623047 0.765625)" xlink:href="#DejaVuSans-30"/>
       <use transform="translate(128.203125 39.046875)scale(0.7)" xlink:href="#DejaVuSans-2212"/>
       <use transform="translate(186.855469 39.046875)scale(0.7)" xlink:href="#DejaVuSans-31"/>
       <use transform="translate(231.391602 39.046875)scale(0.7)" xlink:href="#DejaVuSans-33"/>
      </g>
     </g>
    </g>
    <g id="ytick_5">
     <g id="line2d_21">
      <path clip-path="url(#p5f7fbc802a)" d="M 88.939494 92.788514 
L 415.152 92.788514 
" style="fill:none;stroke:#999999;stroke-linecap:round;stroke-width:1.3;"/>
     </g>
     <g id="line2d_22"/>
     <g id="text_12">
      <!-- $\mathdefault{10^{-5}}$ -->
      <g style="fill:#262626;" transform="translate(49.289494 97.727498)scale(0.13 -0.13)">
       <use transform="translate(0 0.684375)" xlink:href="#DejaVuSans-31"/>
       <use transform="translate(63.623047 0.684375)" xlink:href="#DejaVuSans-30"/>
       <use transform="translate(128.203125 38.965625)scale(0.7)" xlink:href="#DejaVuSans-2212"/>
       <use transform="translate(186.855469 38.965625)scale(0.7)" xlink:href="#DejaVuSans-35"/>
      </g>
     </g>
    </g>
    <g id="ytick_6">
     <g id="line2d_23">
      <path clip-path="url(#p5f7fbc802a)" d="M 88.939494 64.877358 
L 415.152 64.877358 
" style="fill:none;stroke:#999999;stroke-linecap:round;stroke-width:1.3;"/>
     </g>
     <g id="line2d_24"/>
     <g id="text_13">
      <!-- $\mathdefault{10^{3}}$ -->
      <g style="fill:#262626;" transform="translate(56.959494 69.816342)scale(0.13 -0.13)">
       <use transform="translate(0 0.765625)" xlink:href="#DejaVuSans-31"/>
       <use transform="translate(63.623047 0.765625)" xlink:href="#DejaVuSans-30"/>
       <use transform="translate(128.203125 39.046875)scale(0.7)" xlink:href="#DejaVuSans-33"/>
      </g>
     </g>
    </g>
    <g id="ytick_7">
     <g id="line2d_25">
      <path clip-path="url(#p5f7fbc802a)" d="M 88.939494 36.966201 
L 415.152 36.966201 
" style="fill:none;stroke:#999999;stroke-linecap:round;stroke-width:1.3;"/>
     </g>
     <g id="line2d_26"/>
     <g id="text_14">
      <!-- $\mathdefault{10^{11}}$ -->
      <g style="fill:#262626;" transform="translate(51.109494 41.905185)scale(0.13 -0.13)">
       <use transform="translate(0 0.684375)" xlink:href="#DejaVuSans-31"/>
       <use transform="translate(63.623047 0.684375)" xlink:href="#DejaVuSans-30"/>
       <use transform="translate(128.203125 38.965625)scale(0.7)" xlink:href="#DejaVuSans-31"/>
       <use transform="translate(172.739258 38.965625)scale(0.7)" xlink:href="#DejaVuSans-31"/>
      </g>
     </g>
    </g>
    <g id="text_15">
     <!-- $\|\| x_k - x^* \|\|^2$ -->
     <defs>
      <path d="M 21 76.421875 
L 21 -23.578125 
L 12.703125 -23.578125 
L 12.703125 76.421875 
z
" id="DejaVuSans-7c"/>
      <path d="M 60.015625 54.6875 
L 34.90625 27.875 
L 50.296875 0 
L 39.984375 0 
L 28.421875 21.6875 
L 8.296875 0 
L -2.59375 0 
L 24.3125 28.8125 
L 10.015625 54.6875 
L 20.3125 54.6875 
L 30.8125 34.90625 
L 49.125 54.6875 
z
" id="DejaVuSans-Oblique-78"/>
      <path d="M 18.3125 75.984375 
L 27.296875 75.984375 
L 18.703125 31.6875 
L 49.515625 54.6875 
L 61.1875 54.6875 
L 26.8125 28.515625 
L 51.90625 0 
L 41.015625 0 
L 17.671875 26.703125 
L 12.5 0 
L 3.515625 0 
z
" id="DejaVuSans-Oblique-6b"/>
      <path d="M 47.015625 60.890625 
L 29.5 51.421875 
L 47.015625 41.890625 
L 44.1875 37.109375 
L 27.78125 47.015625 
L 27.78125 28.609375 
L 22.21875 28.609375 
L 22.21875 47.015625 
L 5.8125 37.109375 
L 2.984375 41.890625 
L 20.515625 51.421875 
L 2.984375 60.890625 
L 5.8125 65.71875 
L 22.21875 55.8125 
L 22.21875 74.21875 
L 27.78125 74.21875 
L 27.78125 55.8125 
L 44.1875 65.71875 
z
" id="DejaVuSans-2a"/>
     </defs>
     <g style="fill:#262626;" transform="translate(36.137494 171.3455)rotate(-90)scale(0.143 -0.143)">
      <use transform="translate(0 0.765625)" xlink:href="#DejaVuSans-7c"/>
      <use transform="translate(33.691406 0.765625)" xlink:href="#DejaVuSans-7c"/>
      <use transform="translate(67.382812 0.765625)" xlink:href="#DejaVuSans-Oblique-78"/>
      <use transform="translate(126.5625 -15.640625)scale(0.7)" xlink:href="#DejaVuSans-Oblique-6b"/>
      <use transform="translate(189.316406 0.765625)" xlink:href="#DejaVuSans-2212"/>
      <use transform="translate(292.587891 0.765625)" xlink:href="#DejaVuSans-Oblique-78"/>
      <use transform="translate(369.871419 39.046875)scale(0.7)" xlink:href="#DejaVuSans-2a"/>
      <use transform="translate(421.24349 0.765625)" xlink:href="#DejaVuSans-7c"/>
      <use transform="translate(454.934896 0.765625)" xlink:href="#DejaVuSans-7c"/>
      <use transform="translate(489.583333 39.046875)scale(0.7)" xlink:href="#DejaVuSans-32"/>
     </g>
    </g>
   </g>
   <g id="PolyCollection_1">
    <defs>
     <path d="M 103.767335 -243.019308 
L 103.767335 -243.019308 
L 104.346548 -243.037347 
L 104.92576 -243.011601 
L 105.504973 -242.963405 
L 106.084185 -242.91581 
L 106.663398 -242.83586 
L 107.242611 -242.784523 
L 107.821823 -242.696567 
L 108.401036 -242.597094 
L 108.980248 -242.522016 
L 109.559461 -242.417086 
L 110.138673 -242.368345 
L 110.717886 -242.234897 
L 111.297098 -242.10581 
L 111.876311 -242.035898 
L 112.455524 -241.925658 
L 113.034736 -241.808743 
L 113.613949 -241.737358 
L 114.193161 -241.645856 
L 114.772374 -241.546861 
L 115.351586 -241.445308 
L 115.930799 -241.336502 
L 116.510011 -241.228876 
L 117.089224 -241.147439 
L 117.668436 -241.045298 
L 118.247649 -240.890821 
L 118.826862 -240.755505 
L 119.406074 -240.618444 
L 119.985287 -240.538137 
L 120.564499 -240.437669 
L 121.143712 -240.363542 
L 121.722924 -240.253735 
L 122.302137 -240.147337 
L 122.881349 -240.063619 
L 123.460562 -239.94223 
L 124.039774 -239.815268 
L 124.618987 -239.710092 
L 125.1982 -239.638663 
L 125.777412 -239.556006 
L 126.356625 -239.465269 
L 126.935837 -239.344887 
L 127.51505 -239.205116 
L 128.094262 -239.143095 
L 128.673475 -239.08241 
L 129.252687 -238.993493 
L 129.8319 -238.900832 
L 130.411112 -238.784443 
L 130.990325 -238.689078 
L 131.569538 -238.608739 
L 132.14875 -238.449523 
L 132.727963 -238.399534 
L 133.307175 -238.297799 
L 133.886388 -238.21018 
L 134.4656 -238.149965 
L 135.044813 -238.017816 
L 135.624025 -237.923541 
L 136.203238 -237.799481 
L 136.78245 -237.720638 
L 137.361663 -237.610364 
L 137.940876 -237.487454 
L 138.520088 -237.377325 
L 139.099301 -237.349553 
L 139.678513 -237.227376 
L 140.257726 -237.11179 
L 140.836938 -237.069687 
L 141.416151 -236.954798 
L 141.995363 -236.813809 
L 142.574576 -236.753755 
L 143.153788 -236.68771 
L 143.733001 -236.589435 
L 144.312214 -236.478756 
L 144.891426 -236.444139 
L 145.470639 -236.344003 
L 146.049851 -236.267238 
L 146.629064 -236.032088 
L 147.208276 -236.004926 
L 147.787489 -235.910884 
L 148.366701 -235.860351 
L 148.945914 -235.716267 
L 149.525126 -235.649437 
L 150.104339 -235.523566 
L 150.683552 -235.481973 
L 151.262764 -235.407859 
L 151.841977 -235.255253 
L 152.421189 -235.201304 
L 153.000402 -235.146138 
L 153.579614 -234.973824 
L 154.158827 -234.910751 
L 154.738039 -234.837675 
L 155.317252 -234.779121 
L 155.896464 -234.708789 
L 156.475677 -234.624403 
L 157.05489 -234.580243 
L 157.634102 -234.465563 
L 158.213315 -234.330114 
L 158.792527 -234.271099 
L 159.37174 -234.197244 
L 159.950952 -234.113997 
L 160.530165 -234.005399 
L 161.109377 -233.90898 
L 161.68859 -233.801867 
L 162.267802 -233.758596 
L 162.847015 -233.589618 
L 163.426228 -233.473765 
L 164.00544 -233.355918 
L 164.584653 -233.289995 
L 165.163865 -233.14808 
L 165.743078 -233.06409 
L 166.32229 -232.954858 
L 166.901503 -232.922595 
L 167.480715 -232.8397 
L 168.059928 -232.744043 
L 168.63914 -232.617791 
L 169.218353 -232.570561 
L 169.797566 -232.397109 
L 170.376778 -232.361582 
L 170.955991 -232.243609 
L 171.535203 -232.155493 
L 172.114416 -232.076708 
L 172.693628 -231.985626 
L 173.272841 -231.940821 
L 173.852053 -231.792819 
L 174.431266 -231.710899 
L 175.010478 -231.605411 
L 175.589691 -231.545708 
L 176.168904 -231.421048 
L 176.748116 -231.305687 
L 177.327329 -231.152597 
L 177.906541 -231.090232 
L 178.485754 -230.956671 
L 179.064966 -230.871741 
L 179.644179 -230.754668 
L 180.223391 -230.715662 
L 180.802604 -230.608203 
L 181.381816 -230.53193 
L 181.961029 -230.46648 
L 182.540242 -230.331287 
L 183.119454 -230.311427 
L 183.698667 -230.167622 
L 184.277879 -230.092639 
L 184.857092 -229.889526 
L 185.436304 -229.815785 
L 186.015517 -229.769532 
L 186.594729 -229.639919 
L 187.173942 -229.567286 
L 187.753154 -229.399607 
L 188.332367 -229.269289 
L 188.91158 -229.160489 
L 189.490792 -229.017961 
L 190.070005 -228.902689 
L 190.649217 -228.857778 
L 191.22843 -228.727473 
L 191.807642 -228.654468 
L 192.386855 -228.628324 
L 192.966067 -228.55645 
L 193.54528 -228.446615 
L 194.124492 -228.354777 
L 194.703705 -228.252173 
L 195.282918 -228.17604 
L 195.86213 -228.08864 
L 196.441343 -227.991056 
L 197.020555 -227.914357 
L 197.599768 -227.79839 
L 198.17898 -227.717609 
L 198.758193 -227.640627 
L 199.337405 -227.506421 
L 199.916618 -227.438273 
L 200.49583 -227.315752 
L 201.075043 -227.265798 
L 201.654256 -227.097961 
L 202.233468 -226.997778 
L 202.812681 -226.943239 
L 203.391893 -226.797886 
L 203.971106 -226.760796 
L 204.550318 -226.734484 
L 205.129531 -226.64718 
L 205.708743 -226.541655 
L 206.287956 -226.485684 
L 206.867168 -226.451847 
L 207.446381 -226.320523 
L 208.025594 -226.26401 
L 208.604806 -226.196723 
L 209.184019 -226.036171 
L 209.763231 -225.997631 
L 210.342444 -225.86193 
L 210.921656 -225.803109 
L 211.500869 -225.696384 
L 212.080081 -225.575412 
L 212.659294 -225.420693 
L 213.238506 -225.307832 
L 213.817719 -225.250068 
L 214.396932 -225.142805 
L 214.976144 -224.992114 
L 215.555357 -224.85059 
L 216.134569 -224.693413 
L 216.713782 -224.652461 
L 217.292994 -224.535932 
L 217.872207 -224.417553 
L 218.451419 -224.330767 
L 219.030632 -224.324391 
L 219.609844 -224.243698 
L 220.189057 -224.108022 
L 220.76827 -223.93398 
L 221.347482 -223.881444 
L 221.926695 -223.760889 
L 222.505907 -223.693594 
L 223.08512 -223.609097 
L 223.664332 -223.467017 
L 224.243545 -223.419119 
L 224.822757 -223.354909 
L 225.40197 -223.224884 
L 225.981183 -223.099139 
L 226.560395 -223.059785 
L 227.139608 -222.976456 
L 227.71882 -222.895219 
L 228.298033 -222.764777 
L 228.877245 -222.737614 
L 229.456458 -222.633967 
L 230.03567 -222.537764 
L 230.614883 -222.386824 
L 231.194095 -222.377382 
L 231.773308 -222.244484 
L 232.352521 -222.079863 
L 232.931733 -221.962843 
L 233.510946 -221.924607 
L 234.090158 -221.843954 
L 234.669371 -221.759669 
L 235.248583 -221.557154 
L 235.827796 -221.544565 
L 236.407008 -221.436633 
L 236.986221 -221.237451 
L 237.565433 -221.12443 
L 238.144646 -221.093759 
L 238.723859 -220.902661 
L 239.303071 -220.831383 
L 239.882284 -220.770515 
L 240.461496 -220.720479 
L 241.040709 -220.66379 
L 241.619921 -220.556784 
L 242.199134 -220.446022 
L 242.778346 -220.321023 
L 243.357559 -220.302193 
L 243.936771 -220.212303 
L 244.515984 -220.002733 
L 245.095197 -219.878115 
L 245.674409 -219.834142 
L 246.253622 -219.763704 
L 246.832834 -219.745475 
L 247.412047 -219.704962 
L 247.991259 -219.565815 
L 248.570472 -219.421953 
L 249.149684 -219.361551 
L 249.728897 -219.250563 
L 250.308109 -219.124048 
L 250.887322 -218.984162 
L 251.466535 -218.807072 
L 252.045747 -218.729289 
L 252.62496 -218.660265 
L 253.204172 -218.537818 
L 253.783385 -218.47959 
L 254.362597 -218.442965 
L 254.94181 -218.3607 
L 255.521022 -218.300807 
L 256.100235 -218.264867 
L 256.679447 -218.174806 
L 257.25866 -218.080708 
L 257.837873 -217.953752 
L 258.417085 -217.899217 
L 258.996298 -217.773385 
L 259.57551 -217.639842 
L 260.154723 -217.434312 
L 260.733935 -217.369878 
L 261.313148 -217.343695 
L 261.89236 -217.258001 
L 262.471573 -217.146956 
L 263.050785 -217.0869 
L 263.629998 -216.963058 
L 264.209211 -216.695815 
L 264.788423 -216.641162 
L 265.367636 -216.6162 
L 265.946848 -216.510192 
L 266.526061 -216.458577 
L 267.105273 -216.262544 
L 267.684486 -216.129406 
L 268.263698 -216.086413 
L 268.842911 -215.983423 
L 269.422123 -215.82467 
L 270.001336 -215.802381 
L 270.580549 -215.632754 
L 271.159761 -215.510385 
L 271.738974 -215.418045 
L 272.318186 -215.39209 
L 272.897399 -215.296802 
L 273.476611 -215.23932 
L 274.055824 -215.200948 
L 274.635036 -215.061036 
L 275.214249 -214.957958 
L 275.793461 -214.83082 
L 276.372674 -214.734481 
L 276.951887 -214.624654 
L 277.531099 -214.504442 
L 278.110312 -214.480878 
L 278.689524 -214.396363 
L 279.268737 -214.256298 
L 279.847949 -214.205682 
L 280.427162 -214.005804 
L 281.006374 -213.94534 
L 281.585587 -213.842123 
L 282.164799 -213.762543 
L 282.744012 -213.718878 
L 283.323225 -213.511841 
L 283.902437 -213.350816 
L 284.48165 -213.18805 
L 285.060862 -213.043177 
L 285.640075 -213.024224 
L 286.219287 -212.885723 
L 286.7985 -212.851217 
L 287.377712 -212.67224 
L 287.956925 -212.603367 
L 288.536137 -212.515493 
L 289.11535 -212.503385 
L 289.694563 -212.431098 
L 290.273775 -212.220032 
L 290.852988 -212.132687 
L 291.4322 -212.0778 
L 292.011413 -211.969809 
L 292.590625 -211.872564 
L 293.169838 -211.708879 
L 293.74905 -211.606434 
L 294.328263 -211.437122 
L 294.907475 -211.293097 
L 295.486688 -211.174531 
L 296.065901 -211.09368 
L 296.645113 -210.962584 
L 297.224326 -210.915314 
L 297.803538 -210.811865 
L 298.382751 -210.766619 
L 298.961963 -210.553815 
L 299.541176 -210.544396 
L 300.120388 -210.464156 
L 300.699601 -210.346571 
L 301.278813 -210.305398 
L 301.858026 -210.201344 
L 302.437239 -210.181849 
L 303.016451 -210.036563 
L 303.595664 -209.871357 
L 304.174876 -209.729262 
L 304.754089 -209.63599 
L 305.333301 -209.498637 
L 305.912514 -209.353253 
L 306.491726 -209.337322 
L 307.070939 -209.232831 
L 307.650151 -209.106049 
L 308.229364 -209.002254 
L 308.808577 -208.906703 
L 309.387789 -208.793336 
L 309.967002 -208.786937 
L 310.546214 -208.7061 
L 311.125427 -208.592118 
L 311.704639 -208.489678 
L 312.283852 -208.411097 
L 312.863064 -208.334863 
L 313.442277 -208.191413 
L 314.021489 -208.145746 
L 314.600702 -208.059919 
L 315.179915 -207.959025 
L 315.759127 -207.724548 
L 316.33834 -207.701174 
L 316.917552 -207.646642 
L 317.496765 -207.565874 
L 318.075977 -207.452133 
L 318.65519 -207.379138 
L 319.234402 -207.235393 
L 319.813615 -207.219406 
L 320.392827 -207.139779 
L 320.97204 -206.927464 
L 321.551253 -206.850626 
L 322.130465 -206.810422 
L 322.709678 -206.69717 
L 323.28889 -206.592472 
L 323.868103 -206.353836 
L 324.447315 -206.274714 
L 325.026528 -206.149855 
L 325.60574 -206.042324 
L 326.184953 -205.969014 
L 326.764165 -205.884041 
L 327.343378 -205.746477 
L 327.922591 -205.673793 
L 328.501803 -205.614356 
L 329.081016 -205.455978 
L 329.660228 -205.265042 
L 330.239441 -205.195435 
L 330.818653 -205.036075 
L 331.397866 -204.936875 
L 331.977078 -204.782556 
L 332.556291 -204.697499 
L 333.135503 -204.619348 
L 333.714716 -204.560663 
L 334.293929 -204.474097 
L 334.873141 -204.308172 
L 335.452354 -204.213214 
L 336.031566 -204.011228 
L 336.610779 -203.935326 
L 337.189991 -203.810095 
L 337.769204 -203.794598 
L 338.348416 -203.639169 
L 338.927629 -203.622474 
L 339.506842 -203.537735 
L 340.086054 -203.399566 
L 340.665267 -203.395417 
L 341.244479 -203.293143 
L 341.823692 -203.190464 
L 342.402904 -203.097112 
L 342.982117 -202.986616 
L 343.561329 -202.83906 
L 344.140542 -202.718928 
L 344.719754 -202.65285 
L 345.298967 -202.595483 
L 345.87818 -202.398759 
L 346.457392 -202.258783 
L 347.036605 -202.203453 
L 347.615817 -202.123762 
L 348.19503 -201.965773 
L 348.774242 -201.862144 
L 349.353455 -201.758321 
L 349.932667 -201.630459 
L 350.51188 -201.569398 
L 351.091092 -201.401948 
L 351.670305 -201.318854 
L 352.249518 -201.190675 
L 352.82873 -201.045414 
L 353.407943 -200.863034 
L 353.987155 -200.825705 
L 354.566368 -200.721012 
L 355.14558 -200.722782 
L 355.724793 -200.597822 
L 356.304005 -200.51 
L 356.883218 -200.44264 
L 357.46243 -200.310833 
L 358.041643 -200.208196 
L 358.620856 -200.138486 
L 359.200068 -199.874148 
L 359.779281 -199.835738 
L 360.358493 -199.660069 
L 360.937706 -199.621492 
L 361.516918 -199.481599 
L 362.096131 -199.402114 
L 362.675343 -199.378073 
L 363.254556 -199.203214 
L 363.833768 -199.152153 
L 364.412981 -199.137465 
L 364.992194 -198.976522 
L 365.571406 -198.909147 
L 366.150619 -198.851204 
L 366.729831 -198.695035 
L 367.309044 -198.662084 
L 367.888256 -198.546046 
L 368.467469 -198.394614 
L 369.046681 -198.336876 
L 369.625894 -198.18639 
L 370.205106 -198.117043 
L 370.784319 -197.989096 
L 371.363532 -197.905722 
L 371.942744 -197.800701 
L 372.521957 -197.74726 
L 373.101169 -197.575197 
L 373.680382 -197.441999 
L 374.259594 -197.360358 
L 374.838807 -197.271801 
L 375.418019 -197.207064 
L 375.997232 -197.105146 
L 376.576444 -197.083798 
L 377.155657 -196.986339 
L 377.73487 -196.890508 
L 378.314082 -196.739963 
L 378.893295 -196.69192 
L 379.472507 -196.553762 
L 380.05172 -196.473558 
L 380.630932 -196.386 
L 381.210145 -196.34237 
L 381.789357 -196.251435 
L 382.36857 -196.096221 
L 382.947782 -196.014286 
L 383.526995 -195.887104 
L 384.106208 -195.817233 
L 384.68542 -195.771635 
L 385.264633 -195.62382 
L 385.843845 -195.534395 
L 386.423058 -195.391668 
L 387.00227 -195.338949 
L 387.581483 -195.140818 
L 388.160695 -195.131463 
L 388.739908 -194.964896 
L 389.31912 -194.873154 
L 389.898333 -194.801749 
L 390.477546 -194.744869 
L 391.056758 -194.588688 
L 391.635971 -194.561988 
L 392.215183 -194.463438 
L 392.794396 -194.283628 
L 393.373608 -194.199659 
L 393.952821 -194.113067 
L 394.532033 -194.061858 
L 395.111246 -193.949741 
L 395.690458 -193.787111 
L 396.269671 -193.612214 
L 396.848884 -193.61266 
L 397.428096 -193.615966 
L 398.007309 -193.314454 
L 398.586521 -193.283545 
L 399.165734 -193.225339 
L 399.744946 -193.06771 
L 400.324159 -192.951751 
L 400.324159 -176.868209 
L 400.324159 -176.868209 
L 399.744946 -176.93025 
L 399.165734 -177.160717 
L 398.586521 -177.355724 
L 398.007309 -177.394079 
L 397.428096 -177.725496 
L 396.848884 -177.790353 
L 396.269671 -177.874612 
L 395.690458 -177.988822 
L 395.111246 -178.080953 
L 394.532033 -178.115611 
L 393.952821 -178.214603 
L 393.373608 -178.280206 
L 392.794396 -178.32885 
L 392.215183 -178.355219 
L 391.635971 -178.516901 
L 391.056758 -178.775304 
L 390.477546 -178.862056 
L 389.898333 -179.019214 
L 389.31912 -179.101872 
L 388.739908 -179.307627 
L 388.160695 -179.350954 
L 387.581483 -179.507104 
L 387.00227 -179.564833 
L 386.423058 -179.760431 
L 385.843845 -179.927254 
L 385.264633 -179.99899 
L 384.68542 -180.062408 
L 384.106208 -180.251537 
L 383.526995 -180.362973 
L 382.947782 -180.466765 
L 382.36857 -180.626497 
L 381.789357 -180.811379 
L 381.210145 -180.870408 
L 380.630932 -181.104583 
L 380.05172 -181.116762 
L 379.472507 -181.290541 
L 378.893295 -181.49198 
L 378.314082 -181.690313 
L 377.73487 -181.841258 
L 377.155657 -181.969109 
L 376.576444 -182.14508 
L 375.997232 -182.272629 
L 375.418019 -182.400136 
L 374.838807 -182.548985 
L 374.259594 -182.640897 
L 373.680382 -182.758933 
L 373.101169 -182.908105 
L 372.521957 -183.083126 
L 371.942744 -183.126562 
L 371.363532 -183.211728 
L 370.784319 -183.470587 
L 370.205106 -183.638966 
L 369.625894 -183.789143 
L 369.046681 -183.931181 
L 368.467469 -183.960874 
L 367.888256 -183.996948 
L 367.309044 -184.19368 
L 366.729831 -184.33036 
L 366.150619 -184.463213 
L 365.571406 -184.526709 
L 364.992194 -184.594436 
L 364.412981 -184.756715 
L 363.833768 -184.785919 
L 363.254556 -184.99858 
L 362.675343 -185.055885 
L 362.096131 -185.264629 
L 361.516918 -185.316984 
L 360.937706 -185.44545 
L 360.358493 -185.468629 
L 359.779281 -185.506767 
L 359.200068 -185.601927 
L 358.620856 -185.658765 
L 358.041643 -185.985328 
L 357.46243 -186.056183 
L 356.883218 -186.108143 
L 356.304005 -186.211273 
L 355.724793 -186.383768 
L 355.14558 -186.438245 
L 354.566368 -186.664324 
L 353.987155 -186.75922 
L 353.407943 -186.807384 
L 352.82873 -186.935112 
L 352.249518 -186.997457 
L 351.670305 -187.061857 
L 351.091092 -187.208307 
L 350.51188 -187.217949 
L 349.932667 -187.412594 
L 349.353455 -187.5426 
L 348.774242 -187.639555 
L 348.19503 -187.7679 
L 347.615817 -187.866677 
L 347.036605 -188.020593 
L 346.457392 -188.122378 
L 345.87818 -188.267969 
L 345.298967 -188.444604 
L 344.719754 -188.47486 
L 344.140542 -188.646944 
L 343.561329 -188.704502 
L 342.982117 -188.796446 
L 342.402904 -188.946296 
L 341.823692 -189.195454 
L 341.244479 -189.252689 
L 340.665267 -189.359536 
L 340.086054 -189.441157 
L 339.506842 -189.53011 
L 338.927629 -189.729787 
L 338.348416 -189.82724 
L 337.769204 -189.891418 
L 337.189991 -189.998555 
L 336.610779 -190.057901 
L 336.031566 -190.190069 
L 335.452354 -190.297812 
L 334.873141 -190.413172 
L 334.293929 -190.610104 
L 333.714716 -190.747212 
L 333.135503 -190.871287 
L 332.556291 -191.038712 
L 331.977078 -191.109795 
L 331.397866 -191.193476 
L 330.818653 -191.282131 
L 330.239441 -191.394997 
L 329.660228 -191.55577 
L 329.081016 -191.706121 
L 328.501803 -191.746841 
L 327.922591 -191.903755 
L 327.343378 -192.104636 
L 326.764165 -192.255834 
L 326.184953 -192.373261 
L 325.60574 -192.489963 
L 325.026528 -192.579269 
L 324.447315 -192.743988 
L 323.868103 -192.830343 
L 323.28889 -192.898942 
L 322.709678 -192.990778 
L 322.130465 -193.085988 
L 321.551253 -193.171761 
L 320.97204 -193.252048 
L 320.392827 -193.274406 
L 319.813615 -193.467926 
L 319.234402 -193.561961 
L 318.65519 -193.620452 
L 318.075977 -193.653609 
L 317.496765 -193.848187 
L 316.917552 -194.017356 
L 316.33834 -194.093862 
L 315.759127 -194.216319 
L 315.179915 -194.240293 
L 314.600702 -194.265412 
L 314.021489 -194.384119 
L 313.442277 -194.418799 
L 312.863064 -194.751366 
L 312.283852 -194.896325 
L 311.704639 -195.010364 
L 311.125427 -195.062138 
L 310.546214 -195.154258 
L 309.967002 -195.29235 
L 309.387789 -195.411549 
L 308.808577 -195.559654 
L 308.229364 -195.605594 
L 307.650151 -195.802447 
L 307.070939 -195.853105 
L 306.491726 -196.00528 
L 305.912514 -196.248665 
L 305.333301 -196.285338 
L 304.754089 -196.442246 
L 304.174876 -196.486023 
L 303.595664 -196.697879 
L 303.016451 -196.758088 
L 302.437239 -196.819727 
L 301.858026 -196.853524 
L 301.278813 -196.966108 
L 300.699601 -197.058539 
L 300.120388 -197.234831 
L 299.541176 -197.362577 
L 298.961963 -197.619173 
L 298.382751 -197.745329 
L 297.803538 -197.832774 
L 297.224326 -198.006579 
L 296.645113 -198.097819 
L 296.065901 -198.190621 
L 295.486688 -198.301139 
L 294.907475 -198.365917 
L 294.328263 -198.38268 
L 293.74905 -198.491161 
L 293.169838 -198.93745 
L 292.590625 -198.928121 
L 292.011413 -199.038546 
L 291.4322 -199.155131 
L 290.852988 -199.412599 
L 290.273775 -199.527271 
L 289.694563 -199.671343 
L 289.11535 -199.867989 
L 288.536137 -199.967977 
L 287.956925 -200.097077 
L 287.377712 -200.112118 
L 286.7985 -200.114162 
L 286.219287 -200.198993 
L 285.640075 -200.294857 
L 285.060862 -200.410879 
L 284.48165 -200.473354 
L 283.902437 -200.771175 
L 283.323225 -200.938724 
L 282.744012 -200.959498 
L 282.164799 -200.996526 
L 281.585587 -201.152562 
L 281.006374 -201.293092 
L 280.427162 -201.382058 
L 279.847949 -201.436896 
L 279.268737 -201.534381 
L 278.689524 -201.655055 
L 278.110312 -201.726831 
L 277.531099 -201.932651 
L 276.951887 -202.073182 
L 276.372674 -202.226938 
L 275.793461 -202.441654 
L 275.214249 -202.51945 
L 274.635036 -202.54398 
L 274.055824 -202.78981 
L 273.476611 -202.808667 
L 272.897399 -202.932926 
L 272.318186 -203.033656 
L 271.738974 -203.197936 
L 271.159761 -203.261771 
L 270.580549 -203.326402 
L 270.001336 -203.469478 
L 269.422123 -203.534317 
L 268.842911 -203.663505 
L 268.263698 -203.806421 
L 267.684486 -204.035958 
L 267.105273 -204.082785 
L 266.526061 -204.222442 
L 265.946848 -204.280436 
L 265.367636 -204.311334 
L 264.788423 -204.420769 
L 264.209211 -204.6894 
L 263.629998 -204.710368 
L 263.050785 -204.754978 
L 262.471573 -204.903566 
L 261.89236 -204.875616 
L 261.313148 -204.999968 
L 260.733935 -205.215647 
L 260.154723 -205.436298 
L 259.57551 -205.471343 
L 258.996298 -205.566367 
L 258.417085 -205.675603 
L 257.837873 -205.797552 
L 257.25866 -205.867055 
L 256.679447 -205.930486 
L 256.100235 -206.108146 
L 255.521022 -206.190452 
L 254.94181 -206.330654 
L 254.362597 -206.462899 
L 253.783385 -206.516008 
L 253.204172 -206.706951 
L 252.62496 -206.834325 
L 252.045747 -206.975347 
L 251.466535 -207.082518 
L 250.887322 -207.180938 
L 250.308109 -207.261723 
L 249.728897 -207.374494 
L 249.149684 -207.575285 
L 248.570472 -207.648478 
L 247.991259 -207.69567 
L 247.412047 -207.754169 
L 246.832834 -207.982721 
L 246.253622 -208.175851 
L 245.674409 -208.216061 
L 245.095197 -208.476397 
L 244.515984 -208.515267 
L 243.936771 -208.592244 
L 243.357559 -208.609251 
L 242.778346 -208.753151 
L 242.199134 -208.886406 
L 241.619921 -209.008809 
L 241.040709 -209.109385 
L 240.461496 -209.32591 
L 239.882284 -209.367825 
L 239.303071 -209.411068 
L 238.723859 -209.460294 
L 238.144646 -209.841066 
L 237.565433 -209.88619 
L 236.986221 -210.187315 
L 236.407008 -210.225054 
L 235.827796 -210.300608 
L 235.248583 -210.353923 
L 234.669371 -210.595682 
L 234.090158 -210.747929 
L 233.510946 -210.779245 
L 232.931733 -210.924569 
L 232.352521 -211.004621 
L 231.773308 -211.286447 
L 231.194095 -211.32201 
L 230.614883 -211.414175 
L 230.03567 -211.531661 
L 229.456458 -211.628553 
L 228.877245 -211.812636 
L 228.298033 -211.928732 
L 227.71882 -212.058494 
L 227.139608 -212.164775 
L 226.560395 -212.310422 
L 225.981183 -212.434918 
L 225.40197 -212.622478 
L 224.822757 -212.928088 
L 224.243545 -213.0584 
L 223.664332 -213.178821 
L 223.08512 -213.259822 
L 222.505907 -213.329087 
L 221.926695 -213.36061 
L 221.347482 -213.480938 
L 220.76827 -213.613127 
L 220.189057 -213.769395 
L 219.609844 -213.969908 
L 219.030632 -214.075479 
L 218.451419 -214.285181 
L 217.872207 -214.316658 
L 217.292994 -214.447204 
L 216.713782 -214.46357 
L 216.134569 -214.692449 
L 215.555357 -214.844565 
L 214.976144 -214.897528 
L 214.396932 -215.165678 
L 213.817719 -215.302955 
L 213.238506 -215.374216 
L 212.659294 -215.501247 
L 212.080081 -215.522242 
L 211.500869 -215.674202 
L 210.921656 -215.807512 
L 210.342444 -216.033598 
L 209.763231 -216.120724 
L 209.184019 -216.196693 
L 208.604806 -216.355546 
L 208.025594 -216.3953 
L 207.446381 -216.516496 
L 206.867168 -216.704154 
L 206.287956 -216.730465 
L 205.708743 -216.981817 
L 205.129531 -216.997476 
L 204.550318 -217.086607 
L 203.971106 -217.248811 
L 203.391893 -217.505063 
L 202.812681 -217.612147 
L 202.233468 -217.659932 
L 201.654256 -217.839807 
L 201.075043 -217.998618 
L 200.49583 -218.10641 
L 199.916618 -218.232182 
L 199.337405 -218.355972 
L 198.758193 -218.529139 
L 198.17898 -218.612804 
L 197.599768 -218.740342 
L 197.020555 -218.971531 
L 196.441343 -218.997173 
L 195.86213 -219.223481 
L 195.282918 -219.267779 
L 194.703705 -219.317951 
L 194.124492 -219.436551 
L 193.54528 -219.600649 
L 192.966067 -219.762826 
L 192.386855 -219.88247 
L 191.807642 -220.001962 
L 191.22843 -220.148134 
L 190.649217 -220.237472 
L 190.070005 -220.408018 
L 189.490792 -220.586116 
L 188.91158 -220.800687 
L 188.332367 -220.857244 
L 187.753154 -220.943513 
L 187.173942 -221.077441 
L 186.594729 -221.196024 
L 186.015517 -221.322414 
L 185.436304 -221.451317 
L 184.857092 -221.607426 
L 184.277879 -221.762673 
L 183.698667 -221.828232 
L 183.119454 -221.895537 
L 182.540242 -221.994429 
L 181.961029 -222.168003 
L 181.381816 -222.284498 
L 180.802604 -222.387228 
L 180.223391 -222.49122 
L 179.644179 -222.681254 
L 179.064966 -222.786533 
L 178.485754 -222.930743 
L 177.906541 -223.049594 
L 177.327329 -223.117669 
L 176.748116 -223.250417 
L 176.168904 -223.28969 
L 175.589691 -223.385777 
L 175.010478 -223.572779 
L 174.431266 -223.791013 
L 173.852053 -223.895862 
L 173.272841 -224.193577 
L 172.693628 -224.281326 
L 172.114416 -224.36478 
L 171.535203 -224.432733 
L 170.955991 -224.584185 
L 170.376778 -224.673419 
L 169.797566 -224.721515 
L 169.218353 -224.764585 
L 168.63914 -224.933181 
L 168.059928 -225.036108 
L 167.480715 -225.149246 
L 166.901503 -225.216857 
L 166.32229 -225.292885 
L 165.743078 -225.458997 
L 165.163865 -225.62932 
L 164.584653 -225.759493 
L 164.00544 -225.894745 
L 163.426228 -225.926133 
L 162.847015 -226.16246 
L 162.267802 -226.249473 
L 161.68859 -226.341649 
L 161.109377 -226.37514 
L 160.530165 -226.590229 
L 159.950952 -226.702128 
L 159.37174 -226.821273 
L 158.792527 -227.017957 
L 158.213315 -227.081202 
L 157.634102 -227.233854 
L 157.05489 -227.439553 
L 156.475677 -227.518817 
L 155.896464 -227.605351 
L 155.317252 -227.823333 
L 154.738039 -227.899997 
L 154.158827 -228.061344 
L 153.579614 -228.226689 
L 153.000402 -228.350277 
L 152.421189 -228.526857 
L 151.841977 -228.630517 
L 151.262764 -228.703397 
L 150.683552 -228.928824 
L 150.104339 -229.062267 
L 149.525126 -229.127928 
L 148.945914 -229.216138 
L 148.366701 -229.322712 
L 147.787489 -229.554489 
L 147.208276 -229.67301 
L 146.629064 -229.693523 
L 146.049851 -229.725623 
L 145.470639 -229.991655 
L 144.891426 -230.099749 
L 144.312214 -230.215973 
L 143.733001 -230.367229 
L 143.153788 -230.481024 
L 142.574576 -230.545267 
L 141.995363 -230.784974 
L 141.416151 -230.887698 
L 140.836938 -231.040809 
L 140.257726 -231.170466 
L 139.678513 -231.32538 
L 139.099301 -231.460776 
L 138.520088 -231.646148 
L 137.940876 -231.802179 
L 137.361663 -231.956565 
L 136.78245 -232.040636 
L 136.203238 -232.159054 
L 135.624025 -232.310982 
L 135.044813 -232.433046 
L 134.4656 -232.549286 
L 133.886388 -232.593347 
L 133.307175 -232.720441 
L 132.727963 -232.897255 
L 132.14875 -232.997404 
L 131.569538 -233.243148 
L 130.990325 -233.346574 
L 130.411112 -233.44859 
L 129.8319 -233.618088 
L 129.252687 -233.77843 
L 128.673475 -234.023594 
L 128.094262 -234.185769 
L 127.51505 -234.300909 
L 126.935837 -234.436472 
L 126.356625 -234.672321 
L 125.777412 -234.932457 
L 125.1982 -235.056371 
L 124.618987 -235.210079 
L 124.039774 -235.388216 
L 123.460562 -235.459211 
L 122.881349 -235.736097 
L 122.302137 -235.866205 
L 121.722924 -235.988071 
L 121.143712 -236.155183 
L 120.564499 -236.381682 
L 119.985287 -236.528245 
L 119.406074 -236.701545 
L 118.826862 -236.874367 
L 118.247649 -237.015345 
L 117.668436 -237.220701 
L 117.089224 -237.39416 
L 116.510011 -237.49215 
L 115.930799 -237.625007 
L 115.351586 -237.788535 
L 114.772374 -237.987853 
L 114.193161 -238.056011 
L 113.613949 -238.261756 
L 113.034736 -238.487735 
L 112.455524 -238.701898 
L 111.876311 -238.926417 
L 111.297098 -239.056922 
L 110.717886 -239.26831 
L 110.138673 -239.390697 
L 109.559461 -239.543258 
L 108.980248 -239.808811 
L 108.401036 -240.061514 
L 107.821823 -240.195757 
L 107.242611 -240.289232 
L 106.663398 -240.550387 
L 106.084185 -240.780565 
L 105.504973 -241.134891 
L 104.92576 -241.561812 
L 104.346548 -242.296017 
L 103.767335 -243.019308 
z
" id="m19d62af7a7" style="stroke:#ff7f0e;stroke-opacity:0.2;stroke-width:0.39;"/>
    </defs>
    <g clip-path="url(#p5f7fbc802a)">
     <use style="fill:#ff7f0e;fill-opacity:0.2;stroke:#ff7f0e;stroke-opacity:0.2;stroke-width:0.39;" x="0" xlink:href="#m19d62af7a7" y="288"/>
    </g>
   </g>
   <g id="line2d_27">
    <path clip-path="url(#p5f7fbc802a)" d="M 103.767335 44.980692 
L 104.92576 45.227329 
L 118.826862 48.900492 
L 122.881349 49.877586 
L 125.1982 50.338866 
L 126.356625 50.600519 
L 130.990325 51.500112 
L 133.307175 51.990508 
L 136.78245 52.666615 
L 141.416151 53.546276 
L 143.153788 53.925175 
L 148.366701 54.865131 
L 155.317252 56.112366 
L 158.213315 56.702783 
L 164.584653 57.936692 
L 165.743078 58.210605 
L 174.431266 59.876713 
L 176.748116 60.291198 
L 178.485754 60.682287 
L 180.223391 61.006591 
L 186.015517 62.13392 
L 192.386855 63.199008 
L 194.124492 63.602289 
L 197.020555 64.136318 
L 198.17898 64.439036 
L 203.971106 65.4927 
L 227.71882 70.043301 
L 228.298033 70.251524 
L 231.194095 70.710139 
L 234.669371 71.390717 
L 240.461496 72.403949 
L 244.515984 73.155481 
L 248.570472 73.92891 
L 249.728897 74.212552 
L 252.045747 74.596401 
L 253.204172 74.861645 
L 254.362597 75.042548 
L 269.422123 77.898398 
L 270.580549 78.204385 
L 272.318186 78.515755 
L 274.055824 78.853939 
L 276.372674 79.252813 
L 282.164799 80.238502 
L 283.323225 80.485983 
L 284.48165 80.706921 
L 285.640075 80.976869 
L 289.694563 81.769942 
L 292.011413 82.199404 
L 292.590625 82.371293 
L 293.74905 82.536451 
L 304.754089 84.549749 
L 307.650151 85.154274 
L 310.546214 85.598319 
L 316.917552 86.859931 
L 319.813615 87.412947 
L 325.026528 88.423324 
L 330.818653 89.467168 
L 334.293929 90.094724 
L 336.031566 90.532932 
L 339.506842 91.113763 
L 356.883218 94.160902 
L 358.620856 94.541597 
L 359.779281 94.69563 
L 362.096131 95.115805 
L 368.467469 96.296782 
L 369.625894 96.555965 
L 370.784319 96.805552 
L 371.942744 97.011101 
L 377.155657 98.096913 
L 379.472507 98.439007 
L 391.635971 100.738848 
L 393.952821 101.177532 
L 395.111246 101.318227 
L 400.324159 102.29633 
L 400.324159 102.29633 
" style="fill:none;stroke:#ff7f0e;stroke-linecap:round;stroke-width:2.275;"/>
   </g>
   <g id="line2d_28">
    <path clip-path="url(#p5f7fbc802a)" d="M 103.767335 43.766364 
L 399.744946 70.97845 
L 399.744946 70.97845 
" style="fill:none;stroke:#2ca02c;stroke-linecap:round;stroke-width:2.275;"/>
   </g>
   <g id="line2d_29">
    <path clip-path="url(#p5f7fbc802a)" d="M 103.767335 44.980692 
L 399.744946 222.133636 
L 399.744946 222.133636 
" style="fill:none;stroke:#d62728;stroke-linecap:round;stroke-width:2.275;"/>
   </g>
   <g id="patch_3">
    <path d="M 88.939494 231.052 
L 88.939494 34.848 
" style="fill:none;stroke:#999999;stroke-linecap:square;stroke-linejoin:miter;"/>
   </g>
   <g id="patch_4">
    <path d="M 415.152 231.052 
L 415.152 34.848 
" style="fill:none;stroke:#999999;stroke-linecap:square;stroke-linejoin:miter;"/>
   </g>
   <g id="patch_5">
    <path d="M 88.939494 231.052 
L 415.152 231.052 
" style="fill:none;stroke:#999999;stroke-linecap:square;stroke-linejoin:miter;"/>
   </g>
   <g id="patch_6">
    <path d="M 88.939494 34.848 
L 415.152 34.848 
" style="fill:none;stroke:#999999;stroke-linecap:square;stroke-linejoin:miter;"/>
   </g>
   <g id="text_16">
    <!-- Error vs Iteration (Inconsistent Gaussian) -->
    <defs>
     <path d="M 9.8125 72.90625 
L 55.90625 72.90625 
L 55.90625 64.59375 
L 19.671875 64.59375 
L 19.671875 43.015625 
L 54.390625 43.015625 
L 54.390625 34.71875 
L 19.671875 34.71875 
L 19.671875 8.296875 
L 56.78125 8.296875 
L 56.78125 0 
L 9.8125 0 
z
" id="DejaVuSans-45"/>
     <path id="DejaVuSans-20"/>
     <path d="M 2.984375 54.6875 
L 12.5 54.6875 
L 29.59375 8.796875 
L 46.6875 54.6875 
L 56.203125 54.6875 
L 35.6875 0 
L 23.484375 0 
z
" id="DejaVuSans-76"/>
     <path d="M 44.28125 53.078125 
L 44.28125 44.578125 
Q 40.484375 46.53125 36.375 47.5 
Q 32.28125 48.484375 27.875 48.484375 
Q 21.1875 48.484375 17.84375 46.4375 
Q 14.5 44.390625 14.5 40.28125 
Q 14.5 37.15625 16.890625 35.375 
Q 19.28125 33.59375 26.515625 31.984375 
L 29.59375 31.296875 
Q 39.15625 29.25 43.1875 25.515625 
Q 47.21875 21.78125 47.21875 15.09375 
Q 47.21875 7.46875 41.1875 3.015625 
Q 35.15625 -1.421875 24.609375 -1.421875 
Q 20.21875 -1.421875 15.453125 -0.5625 
Q 10.6875 0.296875 5.421875 2 
L 5.421875 11.28125 
Q 10.40625 8.6875 15.234375 7.390625 
Q 20.0625 6.109375 24.8125 6.109375 
Q 31.15625 6.109375 34.5625 8.28125 
Q 37.984375 10.453125 37.984375 14.40625 
Q 37.984375 18.0625 35.515625 20.015625 
Q 33.0625 21.96875 24.703125 23.78125 
L 21.578125 24.515625 
Q 13.234375 26.265625 9.515625 29.90625 
Q 5.8125 33.546875 5.8125 39.890625 
Q 5.8125 47.609375 11.28125 51.796875 
Q 16.75 56 26.8125 56 
Q 31.78125 56 36.171875 55.265625 
Q 40.578125 54.546875 44.28125 53.078125 
z
" id="DejaVuSans-73"/>
     <path d="M 31 75.875 
Q 24.46875 64.65625 21.28125 53.65625 
Q 18.109375 42.671875 18.109375 31.390625 
Q 18.109375 20.125 21.3125 9.0625 
Q 24.515625 -2 31 -13.1875 
L 23.1875 -13.1875 
Q 15.875 -1.703125 12.234375 9.375 
Q 8.59375 20.453125 8.59375 31.390625 
Q 8.59375 42.28125 12.203125 53.3125 
Q 15.828125 64.359375 23.1875 75.875 
z
" id="DejaVuSans-28"/>
     <path d="M 48.78125 52.59375 
L 48.78125 44.1875 
Q 44.96875 46.296875 41.140625 47.34375 
Q 37.3125 48.390625 33.40625 48.390625 
Q 24.65625 48.390625 19.8125 42.84375 
Q 14.984375 37.3125 14.984375 27.296875 
Q 14.984375 17.28125 19.8125 11.734375 
Q 24.65625 6.203125 33.40625 6.203125 
Q 37.3125 6.203125 41.140625 7.25 
Q 44.96875 8.296875 48.78125 10.40625 
L 48.78125 2.09375 
Q 45.015625 0.34375 40.984375 -0.53125 
Q 36.96875 -1.421875 32.421875 -1.421875 
Q 20.0625 -1.421875 12.78125 6.34375 
Q 5.515625 14.109375 5.515625 27.296875 
Q 5.515625 40.671875 12.859375 48.328125 
Q 20.21875 56 33.015625 56 
Q 37.15625 56 41.109375 55.140625 
Q 45.0625 54.296875 48.78125 52.59375 
z
" id="DejaVuSans-63"/>
     <path d="M 59.515625 10.40625 
L 59.515625 29.984375 
L 43.40625 29.984375 
L 43.40625 38.09375 
L 69.28125 38.09375 
L 69.28125 6.78125 
Q 63.578125 2.734375 56.6875 0.65625 
Q 49.8125 -1.421875 42 -1.421875 
Q 24.90625 -1.421875 15.25 8.5625 
Q 5.609375 18.5625 5.609375 36.375 
Q 5.609375 54.25 15.25 64.234375 
Q 24.90625 74.21875 42 74.21875 
Q 49.125 74.21875 55.546875 72.453125 
Q 61.96875 70.703125 67.390625 67.28125 
L 67.390625 56.78125 
Q 61.921875 61.421875 55.765625 63.765625 
Q 49.609375 66.109375 42.828125 66.109375 
Q 29.4375 66.109375 22.71875 58.640625 
Q 16.015625 51.171875 16.015625 36.375 
Q 16.015625 21.625 22.71875 14.15625 
Q 29.4375 6.6875 42.828125 6.6875 
Q 48.046875 6.6875 52.140625 7.59375 
Q 56.25 8.5 59.515625 10.40625 
z
" id="DejaVuSans-47"/>
     <path d="M 8.5 21.578125 
L 8.5 54.6875 
L 17.484375 54.6875 
L 17.484375 21.921875 
Q 17.484375 14.15625 20.5 10.265625 
Q 23.53125 6.390625 29.59375 6.390625 
Q 36.859375 6.390625 41.078125 11.03125 
Q 45.3125 15.671875 45.3125 23.6875 
L 45.3125 54.6875 
L 54.296875 54.6875 
L 54.296875 0 
L 45.3125 0 
L 45.3125 8.40625 
Q 42.046875 3.421875 37.71875 1 
Q 33.40625 -1.421875 27.6875 -1.421875 
Q 18.265625 -1.421875 13.375 4.4375 
Q 8.5 10.296875 8.5 21.578125 
z
M 31.109375 56 
z
" id="DejaVuSans-75"/>
     <path d="M 8.015625 75.875 
L 15.828125 75.875 
Q 23.140625 64.359375 26.78125 53.3125 
Q 30.421875 42.28125 30.421875 31.390625 
Q 30.421875 20.453125 26.78125 9.375 
Q 23.140625 -1.703125 15.828125 -13.1875 
L 8.015625 -13.1875 
Q 14.5 -2 17.703125 9.0625 
Q 20.90625 20.125 20.90625 31.390625 
Q 20.90625 42.671875 17.703125 53.65625 
Q 14.5 64.65625 8.015625 75.875 
z
" id="DejaVuSans-29"/>
    </defs>
    <g style="fill:#262626;" transform="translate(91.776466 28.848)scale(0.156 -0.156)">
     <use xlink:href="#DejaVuSans-45"/>
     <use x="63.183594" xlink:href="#DejaVuSans-72"/>
     <use x="104.28125" xlink:href="#DejaVuSans-72"/>
     <use x="145.363281" xlink:href="#DejaVuSans-6f"/>
     <use x="206.544922" xlink:href="#DejaVuSans-72"/>
     <use x="247.658203" xlink:href="#DejaVuSans-20"/>
     <use x="279.445312" xlink:href="#DejaVuSans-76"/>
     <use x="338.625" xlink:href="#DejaVuSans-73"/>
     <use x="390.724609" xlink:href="#DejaVuSans-20"/>
     <use x="422.511719" xlink:href="#DejaVuSans-49"/>
     <use x="452.003906" xlink:href="#DejaVuSans-74"/>
     <use x="491.212891" xlink:href="#DejaVuSans-65"/>
     <use x="552.736328" xlink:href="#DejaVuSans-72"/>
     <use x="593.849609" xlink:href="#DejaVuSans-61"/>
     <use x="655.128906" xlink:href="#DejaVuSans-74"/>
     <use x="694.337891" xlink:href="#DejaVuSans-69"/>
     <use x="722.121094" xlink:href="#DejaVuSans-6f"/>
     <use x="783.302734" xlink:href="#DejaVuSans-6e"/>
     <use x="846.681641" xlink:href="#DejaVuSans-20"/>
     <use x="878.46875" xlink:href="#DejaVuSans-28"/>
     <use x="917.482422" xlink:href="#DejaVuSans-49"/>
     <use x="946.974609" xlink:href="#DejaVuSans-6e"/>
     <use x="1010.353516" xlink:href="#DejaVuSans-63"/>
     <use x="1065.333984" xlink:href="#DejaVuSans-6f"/>
     <use x="1126.515625" xlink:href="#DejaVuSans-6e"/>
     <use x="1189.894531" xlink:href="#DejaVuSans-73"/>
     <use x="1241.994141" xlink:href="#DejaVuSans-69"/>
     <use x="1269.777344" xlink:href="#DejaVuSans-73"/>
     <use x="1321.876953" xlink:href="#DejaVuSans-74"/>
     <use x="1361.085938" xlink:href="#DejaVuSans-65"/>
     <use x="1422.609375" xlink:href="#DejaVuSans-6e"/>
     <use x="1485.988281" xlink:href="#DejaVuSans-74"/>
     <use x="1525.197266" xlink:href="#DejaVuSans-20"/>
     <use x="1556.984375" xlink:href="#DejaVuSans-47"/>
     <use x="1634.474609" xlink:href="#DejaVuSans-61"/>
     <use x="1695.753906" xlink:href="#DejaVuSans-75"/>
     <use x="1759.132812" xlink:href="#DejaVuSans-73"/>
     <use x="1811.232422" xlink:href="#DejaVuSans-73"/>
     <use x="1863.332031" xlink:href="#DejaVuSans-69"/>
     <use x="1891.115234" xlink:href="#DejaVuSans-61"/>
     <use x="1952.394531" xlink:href="#DejaVuSans-6e"/>
     <use x="2015.773438" xlink:href="#DejaVuSans-29"/>
    </g>
   </g>
   <g id="legend_1">
    <g id="line2d_30">
     <path d="M 100.639494 173.935281 
L 126.639494 173.935281 
" style="fill:none;stroke:#ff7f0e;stroke-linecap:round;stroke-width:2.275;"/>
    </g>
    <g id="line2d_31"/>
    <g id="text_17">
     <!-- Optimal -->
     <defs>
      <path d="M 39.40625 66.21875 
Q 28.65625 66.21875 22.328125 58.203125 
Q 16.015625 50.203125 16.015625 36.375 
Q 16.015625 22.609375 22.328125 14.59375 
Q 28.65625 6.59375 39.40625 6.59375 
Q 50.140625 6.59375 56.421875 14.59375 
Q 62.703125 22.609375 62.703125 36.375 
Q 62.703125 50.203125 56.421875 58.203125 
Q 50.140625 66.21875 39.40625 66.21875 
z
M 39.40625 74.21875 
Q 54.734375 74.21875 63.90625 63.9375 
Q 73.09375 53.65625 73.09375 36.375 
Q 73.09375 19.140625 63.90625 8.859375 
Q 54.734375 -1.421875 39.40625 -1.421875 
Q 24.03125 -1.421875 14.8125 8.828125 
Q 5.609375 19.09375 5.609375 36.375 
Q 5.609375 53.65625 14.8125 63.9375 
Q 24.03125 74.21875 39.40625 74.21875 
z
" id="DejaVuSans-4f"/>
      <path d="M 18.109375 8.203125 
L 18.109375 -20.796875 
L 9.078125 -20.796875 
L 9.078125 54.6875 
L 18.109375 54.6875 
L 18.109375 46.390625 
Q 20.953125 51.265625 25.265625 53.625 
Q 29.59375 56 35.59375 56 
Q 45.5625 56 51.78125 48.09375 
Q 58.015625 40.1875 58.015625 27.296875 
Q 58.015625 14.40625 51.78125 6.484375 
Q 45.5625 -1.421875 35.59375 -1.421875 
Q 29.59375 -1.421875 25.265625 0.953125 
Q 20.953125 3.328125 18.109375 8.203125 
z
M 48.6875 27.296875 
Q 48.6875 37.203125 44.609375 42.84375 
Q 40.53125 48.484375 33.40625 48.484375 
Q 26.265625 48.484375 22.1875 42.84375 
Q 18.109375 37.203125 18.109375 27.296875 
Q 18.109375 17.390625 22.1875 11.75 
Q 26.265625 6.109375 33.40625 6.109375 
Q 40.53125 6.109375 44.609375 11.75 
Q 48.6875 17.390625 48.6875 27.296875 
z
" id="DejaVuSans-70"/>
      <path d="M 52 44.1875 
Q 55.375 50.25 60.0625 53.125 
Q 64.75 56 71.09375 56 
Q 79.640625 56 84.28125 50.015625 
Q 88.921875 44.046875 88.921875 33.015625 
L 88.921875 0 
L 79.890625 0 
L 79.890625 32.71875 
Q 79.890625 40.578125 77.09375 44.375 
Q 74.3125 48.1875 68.609375 48.1875 
Q 61.625 48.1875 57.5625 43.546875 
Q 53.515625 38.921875 53.515625 30.90625 
L 53.515625 0 
L 44.484375 0 
L 44.484375 32.71875 
Q 44.484375 40.625 41.703125 44.40625 
Q 38.921875 48.1875 33.109375 48.1875 
Q 26.21875 48.1875 22.15625 43.53125 
Q 18.109375 38.875 18.109375 30.90625 
L 18.109375 0 
L 9.078125 0 
L 9.078125 54.6875 
L 18.109375 54.6875 
L 18.109375 46.1875 
Q 21.1875 51.21875 25.484375 53.609375 
Q 29.78125 56 35.6875 56 
Q 41.65625 56 45.828125 52.96875 
Q 50 49.953125 52 44.1875 
z
" id="DejaVuSans-6d"/>
      <path d="M 9.421875 75.984375 
L 18.40625 75.984375 
L 18.40625 0 
L 9.421875 0 
z
" id="DejaVuSans-6c"/>
     </defs>
     <g style="fill:#262626;" transform="translate(137.039494 178.485281)scale(0.13 -0.13)">
      <use xlink:href="#DejaVuSans-4f"/>
      <use x="78.710938" xlink:href="#DejaVuSans-70"/>
      <use x="142.1875" xlink:href="#DejaVuSans-74"/>
      <use x="181.396484" xlink:href="#DejaVuSans-69"/>
      <use x="209.179688" xlink:href="#DejaVuSans-6d"/>
      <use x="306.591797" xlink:href="#DejaVuSans-61"/>
      <use x="367.871094" xlink:href="#DejaVuSans-6c"/>
     </g>
    </g>
    <g id="line2d_32">
     <path d="M 100.639494 193.016844 
L 126.639494 193.016844 
" style="fill:none;stroke:#2ca02c;stroke-linecap:round;stroke-width:2.275;"/>
    </g>
    <g id="line2d_33"/>
    <g id="text_18">
     <!-- Upper Bound -->
     <defs>
      <path d="M 8.6875 72.90625 
L 18.609375 72.90625 
L 18.609375 28.609375 
Q 18.609375 16.890625 22.84375 11.734375 
Q 27.09375 6.59375 36.625 6.59375 
Q 46.09375 6.59375 50.34375 11.734375 
Q 54.59375 16.890625 54.59375 28.609375 
L 54.59375 72.90625 
L 64.5 72.90625 
L 64.5 27.390625 
Q 64.5 13.140625 57.4375 5.859375 
Q 50.390625 -1.421875 36.625 -1.421875 
Q 22.796875 -1.421875 15.734375 5.859375 
Q 8.6875 13.140625 8.6875 27.390625 
z
" id="DejaVuSans-55"/>
      <path d="M 19.671875 34.8125 
L 19.671875 8.109375 
L 35.5 8.109375 
Q 43.453125 8.109375 47.28125 11.40625 
Q 51.125 14.703125 51.125 21.484375 
Q 51.125 28.328125 47.28125 31.5625 
Q 43.453125 34.8125 35.5 34.8125 
z
M 19.671875 64.796875 
L 19.671875 42.828125 
L 34.28125 42.828125 
Q 41.5 42.828125 45.03125 45.53125 
Q 48.578125 48.25 48.578125 53.8125 
Q 48.578125 59.328125 45.03125 62.0625 
Q 41.5 64.796875 34.28125 64.796875 
z
M 9.8125 72.90625 
L 35.015625 72.90625 
Q 46.296875 72.90625 52.390625 68.21875 
Q 58.5 63.53125 58.5 54.890625 
Q 58.5 48.1875 55.375 44.234375 
Q 52.25 40.28125 46.1875 39.3125 
Q 53.46875 37.75 57.5 32.78125 
Q 61.53125 27.828125 61.53125 20.40625 
Q 61.53125 10.640625 54.890625 5.3125 
Q 48.25 0 35.984375 0 
L 9.8125 0 
z
" id="DejaVuSans-42"/>
      <path d="M 45.40625 46.390625 
L 45.40625 75.984375 
L 54.390625 75.984375 
L 54.390625 0 
L 45.40625 0 
L 45.40625 8.203125 
Q 42.578125 3.328125 38.25 0.953125 
Q 33.9375 -1.421875 27.875 -1.421875 
Q 17.96875 -1.421875 11.734375 6.484375 
Q 5.515625 14.40625 5.515625 27.296875 
Q 5.515625 40.1875 11.734375 48.09375 
Q 17.96875 56 27.875 56 
Q 33.9375 56 38.25 53.625 
Q 42.578125 51.265625 45.40625 46.390625 
z
M 14.796875 27.296875 
Q 14.796875 17.390625 18.875 11.75 
Q 22.953125 6.109375 30.078125 6.109375 
Q 37.203125 6.109375 41.296875 11.75 
Q 45.40625 17.390625 45.40625 27.296875 
Q 45.40625 37.203125 41.296875 42.84375 
Q 37.203125 48.484375 30.078125 48.484375 
Q 22.953125 48.484375 18.875 42.84375 
Q 14.796875 37.203125 14.796875 27.296875 
z
" id="DejaVuSans-64"/>
     </defs>
     <g style="fill:#262626;" transform="translate(137.039494 197.566844)scale(0.13 -0.13)">
      <use xlink:href="#DejaVuSans-55"/>
      <use x="73.193359" xlink:href="#DejaVuSans-70"/>
      <use x="136.669922" xlink:href="#DejaVuSans-70"/>
      <use x="200.146484" xlink:href="#DejaVuSans-65"/>
      <use x="261.669922" xlink:href="#DejaVuSans-72"/>
      <use x="302.783203" xlink:href="#DejaVuSans-20"/>
      <use x="334.570312" xlink:href="#DejaVuSans-42"/>
      <use x="403.173828" xlink:href="#DejaVuSans-6f"/>
      <use x="464.355469" xlink:href="#DejaVuSans-75"/>
      <use x="527.734375" xlink:href="#DejaVuSans-6e"/>
      <use x="591.113281" xlink:href="#DejaVuSans-64"/>
     </g>
    </g>
    <g id="line2d_34">
     <path d="M 100.639494 212.098406 
L 126.639494 212.098406 
" style="fill:none;stroke:#d62728;stroke-linecap:round;stroke-width:2.275;"/>
    </g>
    <g id="line2d_35"/>
    <g id="text_19">
     <!-- Lower Bound -->
     <defs>
      <path d="M 9.8125 72.90625 
L 19.671875 72.90625 
L 19.671875 8.296875 
L 55.171875 8.296875 
L 55.171875 0 
L 9.8125 0 
z
" id="DejaVuSans-4c"/>
      <path d="M 4.203125 54.6875 
L 13.1875 54.6875 
L 24.421875 12.015625 
L 35.59375 54.6875 
L 46.1875 54.6875 
L 57.421875 12.015625 
L 68.609375 54.6875 
L 77.59375 54.6875 
L 63.28125 0 
L 52.6875 0 
L 40.921875 44.828125 
L 29.109375 0 
L 18.5 0 
z
" id="DejaVuSans-77"/>
     </defs>
     <g style="fill:#262626;" transform="translate(137.039494 216.648406)scale(0.13 -0.13)">
      <use xlink:href="#DejaVuSans-4c"/>
      <use x="55.697266" xlink:href="#DejaVuSans-6f"/>
      <use x="116.878906" xlink:href="#DejaVuSans-77"/>
      <use x="198.666016" xlink:href="#DejaVuSans-65"/>
      <use x="260.189453" xlink:href="#DejaVuSans-72"/>
      <use x="301.302734" xlink:href="#DejaVuSans-20"/>
      <use x="333.089844" xlink:href="#DejaVuSans-42"/>
      <use x="401.693359" xlink:href="#DejaVuSans-6f"/>
      <use x="462.875" xlink:href="#DejaVuSans-75"/>
      <use x="526.253906" xlink:href="#DejaVuSans-6e"/>
      <use x="589.632812" xlink:href="#DejaVuSans-64"/>
     </g>
    </g>
   </g>
  </g>
 </g>
 <defs>
  <clipPath id="p5f7fbc802a">
   <rect height="196.204" width="326.212506" x="88.939494" y="34.848"/>
  </clipPath>
 </defs>
</svg>
