<?xml version="1.0" encoding="utf-8" standalone="no"?>
<!DOCTYPE svg PUBLIC "-//W3C//DTD SVG 1.1//EN"
  "http://www.w3.org/Graphics/SVG/1.1/DTD/svg11.dtd">
<!-- Created with matplotlib (http://matplotlib.org/) -->
<svg height="288pt" version="1.1" viewBox="0 0 432 288" width="432pt" xmlns="http://www.w3.org/2000/svg" xmlns:xlink="http://www.w3.org/1999/xlink">
 <defs>
  <style type="text/css">
*{stroke-linecap:butt;stroke-linejoin:round;}
  </style>
 </defs>
 <g id="figure_1">
  <g id="patch_1">
   <path d="M 0 288 
L 432 288 
L 432 0 
L 0 0 
z
" style="fill:none;"/>
  </g>
  <g id="axes_1">
   <g id="patch_2">
    <path d="M 88.626994 231.052 
L 415.152 231.052 
L 415.152 34.848 
L 88.626994 34.848 
z
" style="fill:none;"/>
   </g>
   <g id="matplotlib.axis_1">
    <g id="xtick_1">
     <g id="line2d_1">
      <path clip-path="url(#p698e32393a)" d="M 103.46904 231.052 
L 103.46904 34.848 
" style="fill:none;stroke:#999999;stroke-linecap:round;stroke-width:1.3;"/>
     </g>
     <g id="line2d_2"/>
     <g id="text_1">
      <!-- 0 -->
      <defs>
       <path d="M 31.78125 66.40625 
Q 24.171875 66.40625 20.328125 58.90625 
Q 16.5 51.421875 16.5 36.375 
Q 16.5 21.390625 20.328125 13.890625 
Q 24.171875 6.390625 31.78125 6.390625 
Q 39.453125 6.390625 43.28125 13.890625 
Q 47.125 21.390625 47.125 36.375 
Q 47.125 51.421875 43.28125 58.90625 
Q 39.453125 66.40625 31.78125 66.40625 
z
M 31.78125 74.21875 
Q 44.046875 74.21875 50.515625 64.515625 
Q 56.984375 54.828125 56.984375 36.375 
Q 56.984375 17.96875 50.515625 8.265625 
Q 44.046875 -1.421875 31.78125 -1.421875 
Q 19.53125 -1.421875 13.0625 8.265625 
Q 6.59375 17.96875 6.59375 36.375 
Q 6.59375 54.828125 13.0625 64.515625 
Q 19.53125 74.21875 31.78125 74.21875 
z
" id="DejaVuSans-30"/>
      </defs>
      <g style="fill:#262626;" transform="translate(99.333415 250.029969)scale(0.13 -0.13)">
       <use xlink:href="#DejaVuSans-30"/>
      </g>
     </g>
    </g>
    <g id="xtick_2">
     <g id="line2d_3">
      <path clip-path="url(#p698e32393a)" d="M 161.445781 231.052 
L 161.445781 34.848 
" style="fill:none;stroke:#999999;stroke-linecap:round;stroke-width:1.3;"/>
     </g>
     <g id="line2d_4"/>
     <g id="text_2">
      <!-- 100 -->
      <defs>
       <path d="M 12.40625 8.296875 
L 28.515625 8.296875 
L 28.515625 63.921875 
L 10.984375 60.40625 
L 10.984375 69.390625 
L 28.421875 72.90625 
L 38.28125 72.90625 
L 38.28125 8.296875 
L 54.390625 8.296875 
L 54.390625 0 
L 12.40625 0 
z
" id="DejaVuSans-31"/>
      </defs>
      <g style="fill:#262626;" transform="translate(149.038906 250.029969)scale(0.13 -0.13)">
       <use xlink:href="#DejaVuSans-31"/>
       <use x="63.623047" xlink:href="#DejaVuSans-30"/>
       <use x="127.246094" xlink:href="#DejaVuSans-30"/>
      </g>
     </g>
    </g>
    <g id="xtick_3">
     <g id="line2d_5">
      <path clip-path="url(#p698e32393a)" d="M 219.422522 231.052 
L 219.422522 34.848 
" style="fill:none;stroke:#999999;stroke-linecap:round;stroke-width:1.3;"/>
     </g>
     <g id="line2d_6"/>
     <g id="text_3">
      <!-- 200 -->
      <defs>
       <path d="M 19.1875 8.296875 
L 53.609375 8.296875 
L 53.609375 0 
L 7.328125 0 
L 7.328125 8.296875 
Q 12.9375 14.109375 22.625 23.890625 
Q 32.328125 33.6875 34.8125 36.53125 
Q 39.546875 41.84375 41.421875 45.53125 
Q 43.3125 49.21875 43.3125 52.78125 
Q 43.3125 58.59375 39.234375 62.25 
Q 35.15625 65.921875 28.609375 65.921875 
Q 23.96875 65.921875 18.8125 64.3125 
Q 13.671875 62.703125 7.8125 59.421875 
L 7.8125 69.390625 
Q 13.765625 71.78125 18.9375 73 
Q 24.125 74.21875 28.421875 74.21875 
Q 39.75 74.21875 46.484375 68.546875 
Q 53.21875 62.890625 53.21875 53.421875 
Q 53.21875 48.921875 51.53125 44.890625 
Q 49.859375 40.875 45.40625 35.40625 
Q 44.1875 33.984375 37.640625 27.21875 
Q 31.109375 20.453125 19.1875 8.296875 
z
" id="DejaVuSans-32"/>
      </defs>
      <g style="fill:#262626;" transform="translate(207.015647 250.029969)scale(0.13 -0.13)">
       <use xlink:href="#DejaVuSans-32"/>
       <use x="63.623047" xlink:href="#DejaVuSans-30"/>
       <use x="127.246094" xlink:href="#DejaVuSans-30"/>
      </g>
     </g>
    </g>
    <g id="xtick_4">
     <g id="line2d_7">
      <path clip-path="url(#p698e32393a)" d="M 277.399263 231.052 
L 277.399263 34.848 
" style="fill:none;stroke:#999999;stroke-linecap:round;stroke-width:1.3;"/>
     </g>
     <g id="line2d_8"/>
     <g id="text_4">
      <!-- 300 -->
      <defs>
       <path d="M 40.578125 39.3125 
Q 47.65625 37.796875 51.625 33 
Q 55.609375 28.21875 55.609375 21.1875 
Q 55.609375 10.40625 48.1875 4.484375 
Q 40.765625 -1.421875 27.09375 -1.421875 
Q 22.515625 -1.421875 17.65625 -0.515625 
Q 12.796875 0.390625 7.625 2.203125 
L 7.625 11.71875 
Q 11.71875 9.328125 16.59375 8.109375 
Q 21.484375 6.890625 26.8125 6.890625 
Q 36.078125 6.890625 40.9375 10.546875 
Q 45.796875 14.203125 45.796875 21.1875 
Q 45.796875 27.640625 41.28125 31.265625 
Q 36.765625 34.90625 28.71875 34.90625 
L 20.21875 34.90625 
L 20.21875 43.015625 
L 29.109375 43.015625 
Q 36.375 43.015625 40.234375 45.921875 
Q 44.09375 48.828125 44.09375 54.296875 
Q 44.09375 59.90625 40.109375 62.90625 
Q 36.140625 65.921875 28.71875 65.921875 
Q 24.65625 65.921875 20.015625 65.03125 
Q 15.375 64.15625 9.8125 62.3125 
L 9.8125 71.09375 
Q 15.4375 72.65625 20.34375 73.4375 
Q 25.25 74.21875 29.59375 74.21875 
Q 40.828125 74.21875 47.359375 69.109375 
Q 53.90625 64.015625 53.90625 55.328125 
Q 53.90625 49.265625 50.4375 45.09375 
Q 46.96875 40.921875 40.578125 39.3125 
z
" id="DejaVuSans-33"/>
      </defs>
      <g style="fill:#262626;" transform="translate(264.992388 250.029969)scale(0.13 -0.13)">
       <use xlink:href="#DejaVuSans-33"/>
       <use x="63.623047" xlink:href="#DejaVuSans-30"/>
       <use x="127.246094" xlink:href="#DejaVuSans-30"/>
      </g>
     </g>
    </g>
    <g id="xtick_5">
     <g id="line2d_9">
      <path clip-path="url(#p698e32393a)" d="M 335.376004 231.052 
L 335.376004 34.848 
" style="fill:none;stroke:#999999;stroke-linecap:round;stroke-width:1.3;"/>
     </g>
     <g id="line2d_10"/>
     <g id="text_5">
      <!-- 400 -->
      <defs>
       <path d="M 37.796875 64.3125 
L 12.890625 25.390625 
L 37.796875 25.390625 
z
M 35.203125 72.90625 
L 47.609375 72.90625 
L 47.609375 25.390625 
L 58.015625 25.390625 
L 58.015625 17.1875 
L 47.609375 17.1875 
L 47.609375 0 
L 37.796875 0 
L 37.796875 17.1875 
L 4.890625 17.1875 
L 4.890625 26.703125 
z
" id="DejaVuSans-34"/>
      </defs>
      <g style="fill:#262626;" transform="translate(322.969129 250.029969)scale(0.13 -0.13)">
       <use xlink:href="#DejaVuSans-34"/>
       <use x="63.623047" xlink:href="#DejaVuSans-30"/>
       <use x="127.246094" xlink:href="#DejaVuSans-30"/>
      </g>
     </g>
    </g>
    <g id="xtick_6">
     <g id="line2d_11">
      <path clip-path="url(#p698e32393a)" d="M 393.352745 231.052 
L 393.352745 34.848 
" style="fill:none;stroke:#999999;stroke-linecap:round;stroke-width:1.3;"/>
     </g>
     <g id="line2d_12"/>
     <g id="text_6">
      <!-- 500 -->
      <defs>
       <path d="M 10.796875 72.90625 
L 49.515625 72.90625 
L 49.515625 64.59375 
L 19.828125 64.59375 
L 19.828125 46.734375 
Q 21.96875 47.46875 24.109375 47.828125 
Q 26.265625 48.1875 28.421875 48.1875 
Q 40.625 48.1875 47.75 41.5 
Q 54.890625 34.8125 54.890625 23.390625 
Q 54.890625 11.625 47.5625 5.09375 
Q 40.234375 -1.421875 26.90625 -1.421875 
Q 22.3125 -1.421875 17.546875 -0.640625 
Q 12.796875 0.140625 7.71875 1.703125 
L 7.71875 11.625 
Q 12.109375 9.234375 16.796875 8.0625 
Q 21.484375 6.890625 26.703125 6.890625 
Q 35.15625 6.890625 40.078125 11.328125 
Q 45.015625 15.765625 45.015625 23.390625 
Q 45.015625 31 40.078125 35.4375 
Q 35.15625 39.890625 26.703125 39.890625 
Q 22.75 39.890625 18.8125 39.015625 
Q 14.890625 38.140625 10.796875 36.28125 
z
" id="DejaVuSans-35"/>
      </defs>
      <g style="fill:#262626;" transform="translate(380.94587 250.029969)scale(0.13 -0.13)">
       <use xlink:href="#DejaVuSans-35"/>
       <use x="63.623047" xlink:href="#DejaVuSans-30"/>
       <use x="127.246094" xlink:href="#DejaVuSans-30"/>
      </g>
     </g>
    </g>
    <g id="text_7">
     <!-- Iteration -->
     <defs>
      <path d="M 9.8125 72.90625 
L 19.671875 72.90625 
L 19.671875 0 
L 9.8125 0 
z
" id="DejaVuSans-49"/>
      <path d="M 18.3125 70.21875 
L 18.3125 54.6875 
L 36.8125 54.6875 
L 36.8125 47.703125 
L 18.3125 47.703125 
L 18.3125 18.015625 
Q 18.3125 11.328125 20.140625 9.421875 
Q 21.96875 7.515625 27.59375 7.515625 
L 36.8125 7.515625 
L 36.8125 0 
L 27.59375 0 
Q 17.1875 0 13.234375 3.875 
Q 9.28125 7.765625 9.28125 18.015625 
L 9.28125 47.703125 
L 2.6875 47.703125 
L 2.6875 54.6875 
L 9.28125 54.6875 
L 9.28125 70.21875 
z
" id="DejaVuSans-74"/>
      <path d="M 56.203125 29.59375 
L 56.203125 25.203125 
L 14.890625 25.203125 
Q 15.484375 15.921875 20.484375 11.0625 
Q 25.484375 6.203125 34.421875 6.203125 
Q 39.59375 6.203125 44.453125 7.46875 
Q 49.3125 8.734375 54.109375 11.28125 
L 54.109375 2.78125 
Q 49.265625 0.734375 44.1875 -0.34375 
Q 39.109375 -1.421875 33.890625 -1.421875 
Q 20.796875 -1.421875 13.15625 6.1875 
Q 5.515625 13.8125 5.515625 26.8125 
Q 5.515625 40.234375 12.765625 48.109375 
Q 20.015625 56 32.328125 56 
Q 43.359375 56 49.78125 48.890625 
Q 56.203125 41.796875 56.203125 29.59375 
z
M 47.21875 32.234375 
Q 47.125 39.59375 43.09375 43.984375 
Q 39.0625 48.390625 32.421875 48.390625 
Q 24.90625 48.390625 20.390625 44.140625 
Q 15.875 39.890625 15.1875 32.171875 
z
" id="DejaVuSans-65"/>
      <path d="M 41.109375 46.296875 
Q 39.59375 47.171875 37.8125 47.578125 
Q 36.03125 48 33.890625 48 
Q 26.265625 48 22.1875 43.046875 
Q 18.109375 38.09375 18.109375 28.8125 
L 18.109375 0 
L 9.078125 0 
L 9.078125 54.6875 
L 18.109375 54.6875 
L 18.109375 46.1875 
Q 20.953125 51.171875 25.484375 53.578125 
Q 30.03125 56 36.53125 56 
Q 37.453125 56 38.578125 55.875 
Q 39.703125 55.765625 41.0625 55.515625 
z
" id="DejaVuSans-72"/>
      <path d="M 34.28125 27.484375 
Q 23.390625 27.484375 19.1875 25 
Q 14.984375 22.515625 14.984375 16.5 
Q 14.984375 11.71875 18.140625 8.90625 
Q 21.296875 6.109375 26.703125 6.109375 
Q 34.1875 6.109375 38.703125 11.40625 
Q 43.21875 16.703125 43.21875 25.484375 
L 43.21875 27.484375 
z
M 52.203125 31.203125 
L 52.203125 0 
L 43.21875 0 
L 43.21875 8.296875 
Q 40.140625 3.328125 35.546875 0.953125 
Q 30.953125 -1.421875 24.3125 -1.421875 
Q 15.921875 -1.421875 10.953125 3.296875 
Q 6 8.015625 6 15.921875 
Q 6 25.140625 12.171875 29.828125 
Q 18.359375 34.515625 30.609375 34.515625 
L 43.21875 34.515625 
L 43.21875 35.40625 
Q 43.21875 41.609375 39.140625 45 
Q 35.0625 48.390625 27.6875 48.390625 
Q 23 48.390625 18.546875 47.265625 
Q 14.109375 46.140625 10.015625 43.890625 
L 10.015625 52.203125 
Q 14.9375 54.109375 19.578125 55.046875 
Q 24.21875 56 28.609375 56 
Q 40.484375 56 46.34375 49.84375 
Q 52.203125 43.703125 52.203125 31.203125 
z
" id="DejaVuSans-61"/>
      <path d="M 9.421875 54.6875 
L 18.40625 54.6875 
L 18.40625 0 
L 9.421875 0 
z
M 9.421875 75.984375 
L 18.40625 75.984375 
L 18.40625 64.59375 
L 9.421875 64.59375 
z
" id="DejaVuSans-69"/>
      <path d="M 30.609375 48.390625 
Q 23.390625 48.390625 19.1875 42.75 
Q 14.984375 37.109375 14.984375 27.296875 
Q 14.984375 17.484375 19.15625 11.84375 
Q 23.34375 6.203125 30.609375 6.203125 
Q 37.796875 6.203125 41.984375 11.859375 
Q 46.1875 17.53125 46.1875 27.296875 
Q 46.1875 37.015625 41.984375 42.703125 
Q 37.796875 48.390625 30.609375 48.390625 
z
M 30.609375 56 
Q 42.328125 56 49.015625 48.375 
Q 55.71875 40.765625 55.71875 27.296875 
Q 55.71875 13.875 49.015625 6.21875 
Q 42.328125 -1.421875 30.609375 -1.421875 
Q 18.84375 -1.421875 12.171875 6.21875 
Q 5.515625 13.875 5.515625 27.296875 
Q 5.515625 40.765625 12.171875 48.375 
Q 18.84375 56 30.609375 56 
z
" id="DejaVuSans-6f"/>
      <path d="M 54.890625 33.015625 
L 54.890625 0 
L 45.90625 0 
L 45.90625 32.71875 
Q 45.90625 40.484375 42.875 44.328125 
Q 39.84375 48.1875 33.796875 48.1875 
Q 26.515625 48.1875 22.3125 43.546875 
Q 18.109375 38.921875 18.109375 30.90625 
L 18.109375 0 
L 9.078125 0 
L 9.078125 54.6875 
L 18.109375 54.6875 
L 18.109375 46.1875 
Q 21.34375 51.125 25.703125 53.5625 
Q 30.078125 56 35.796875 56 
Q 45.21875 56 50.046875 50.171875 
Q 54.890625 44.34375 54.890625 33.015625 
z
" id="DejaVuSans-6e"/>
     </defs>
     <g style="fill:#262626;" transform="translate(221.561208 267.599328)scale(0.143 -0.143)">
      <use xlink:href="#DejaVuSans-49"/>
      <use x="29.492188" xlink:href="#DejaVuSans-74"/>
      <use x="68.701172" xlink:href="#DejaVuSans-65"/>
      <use x="130.224609" xlink:href="#DejaVuSans-72"/>
      <use x="171.337891" xlink:href="#DejaVuSans-61"/>
      <use x="232.617188" xlink:href="#DejaVuSans-74"/>
      <use x="271.826172" xlink:href="#DejaVuSans-69"/>
      <use x="299.609375" xlink:href="#DejaVuSans-6f"/>
      <use x="360.791016" xlink:href="#DejaVuSans-6e"/>
     </g>
    </g>
   </g>
   <g id="matplotlib.axis_2">
    <g id="ytick_1">
     <g id="line2d_13">
      <path clip-path="url(#p698e32393a)" d="M 88.626994 205.054513 
L 415.152 205.054513 
" style="fill:none;stroke:#999999;stroke-linecap:round;stroke-width:1.3;"/>
     </g>
     <g id="line2d_14"/>
     <g id="text_8">
      <!-- $\mathdefault{10^{-16}}$ -->
      <defs>
       <path d="M 10.59375 35.5 
L 73.1875 35.5 
L 73.1875 27.203125 
L 10.59375 27.203125 
z
" id="DejaVuSans-2212"/>
       <path d="M 33.015625 40.375 
Q 26.375 40.375 22.484375 35.828125 
Q 18.609375 31.296875 18.609375 23.390625 
Q 18.609375 15.53125 22.484375 10.953125 
Q 26.375 6.390625 33.015625 6.390625 
Q 39.65625 6.390625 43.53125 10.953125 
Q 47.40625 15.53125 47.40625 23.390625 
Q 47.40625 31.296875 43.53125 35.828125 
Q 39.65625 40.375 33.015625 40.375 
z
M 52.59375 71.296875 
L 52.59375 62.3125 
Q 48.875 64.0625 45.09375 64.984375 
Q 41.3125 65.921875 37.59375 65.921875 
Q 27.828125 65.921875 22.671875 59.328125 
Q 17.53125 52.734375 16.796875 39.40625 
Q 19.671875 43.65625 24.015625 45.921875 
Q 28.375 48.1875 33.59375 48.1875 
Q 44.578125 48.1875 50.953125 41.515625 
Q 57.328125 34.859375 57.328125 23.390625 
Q 57.328125 12.15625 50.6875 5.359375 
Q 44.046875 -1.421875 33.015625 -1.421875 
Q 20.359375 -1.421875 13.671875 8.265625 
Q 6.984375 17.96875 6.984375 36.375 
Q 6.984375 53.65625 15.1875 63.9375 
Q 23.390625 74.21875 37.203125 74.21875 
Q 40.921875 74.21875 44.703125 73.484375 
Q 48.484375 72.75 52.59375 71.296875 
z
" id="DejaVuSans-36"/>
      </defs>
      <g style="fill:#262626;" transform="translate(43.256994 209.993497)scale(0.13 -0.13)">
       <use transform="translate(0 0.765625)" xlink:href="#DejaVuSans-31"/>
       <use transform="translate(63.623047 0.765625)" xlink:href="#DejaVuSans-30"/>
       <use transform="translate(128.203125 39.046875)scale(0.7)" xlink:href="#DejaVuSans-2212"/>
       <use transform="translate(186.855469 39.046875)scale(0.7)" xlink:href="#DejaVuSans-31"/>
       <use transform="translate(231.391602 39.046875)scale(0.7)" xlink:href="#DejaVuSans-36"/>
      </g>
     </g>
    </g>
    <g id="ytick_2">
     <g id="line2d_15">
      <path clip-path="url(#p698e32393a)" d="M 88.626994 172.701313 
L 415.152 172.701313 
" style="fill:none;stroke:#999999;stroke-linecap:round;stroke-width:1.3;"/>
     </g>
     <g id="line2d_16"/>
     <g id="text_9">
      <!-- $\mathdefault{10^{-11}}$ -->
      <g style="fill:#262626;" transform="translate(43.256994 177.640297)scale(0.13 -0.13)">
       <use transform="translate(0 0.684375)" xlink:href="#DejaVuSans-31"/>
       <use transform="translate(63.623047 0.684375)" xlink:href="#DejaVuSans-30"/>
       <use transform="translate(128.203125 38.965625)scale(0.7)" xlink:href="#DejaVuSans-2212"/>
       <use transform="translate(186.855469 38.965625)scale(0.7)" xlink:href="#DejaVuSans-31"/>
       <use transform="translate(231.391602 38.965625)scale(0.7)" xlink:href="#DejaVuSans-31"/>
      </g>
     </g>
    </g>
    <g id="ytick_3">
     <g id="line2d_17">
      <path clip-path="url(#p698e32393a)" d="M 88.626994 140.348113 
L 415.152 140.348113 
" style="fill:none;stroke:#999999;stroke-linecap:round;stroke-width:1.3;"/>
     </g>
     <g id="line2d_18"/>
     <g id="text_10">
      <!-- $\mathdefault{10^{-6}}$ -->
      <g style="fill:#262626;" transform="translate(48.976994 145.287097)scale(0.13 -0.13)">
       <use transform="translate(0 0.765625)" xlink:href="#DejaVuSans-31"/>
       <use transform="translate(63.623047 0.765625)" xlink:href="#DejaVuSans-30"/>
       <use transform="translate(128.203125 39.046875)scale(0.7)" xlink:href="#DejaVuSans-2212"/>
       <use transform="translate(186.855469 39.046875)scale(0.7)" xlink:href="#DejaVuSans-36"/>
      </g>
     </g>
    </g>
    <g id="ytick_4">
     <g id="line2d_19">
      <path clip-path="url(#p698e32393a)" d="M 88.626994 107.994913 
L 415.152 107.994913 
" style="fill:none;stroke:#999999;stroke-linecap:round;stroke-width:1.3;"/>
     </g>
     <g id="line2d_20"/>
     <g id="text_11">
      <!-- $\mathdefault{10^{-1}}$ -->
      <g style="fill:#262626;" transform="translate(48.976994 112.933898)scale(0.13 -0.13)">
       <use transform="translate(0 0.684375)" xlink:href="#DejaVuSans-31"/>
       <use transform="translate(63.623047 0.684375)" xlink:href="#DejaVuSans-30"/>
       <use transform="translate(128.203125 38.965625)scale(0.7)" xlink:href="#DejaVuSans-2212"/>
       <use transform="translate(186.855469 38.965625)scale(0.7)" xlink:href="#DejaVuSans-31"/>
      </g>
     </g>
    </g>
    <g id="ytick_5">
     <g id="line2d_21">
      <path clip-path="url(#p698e32393a)" d="M 88.626994 75.641714 
L 415.152 75.641714 
" style="fill:none;stroke:#999999;stroke-linecap:round;stroke-width:1.3;"/>
     </g>
     <g id="line2d_22"/>
     <g id="text_12">
      <!-- $\mathdefault{10^{4}}$ -->
      <g style="fill:#262626;" transform="translate(56.646994 80.580698)scale(0.13 -0.13)">
       <use transform="translate(0 0.684375)" xlink:href="#DejaVuSans-31"/>
       <use transform="translate(63.623047 0.684375)" xlink:href="#DejaVuSans-30"/>
       <use transform="translate(128.203125 38.965625)scale(0.7)" xlink:href="#DejaVuSans-34"/>
      </g>
     </g>
    </g>
    <g id="ytick_6">
     <g id="line2d_23">
      <path clip-path="url(#p698e32393a)" d="M 88.626994 43.288514 
L 415.152 43.288514 
" style="fill:none;stroke:#999999;stroke-linecap:round;stroke-width:1.3;"/>
     </g>
     <g id="line2d_24"/>
     <g id="text_13">
      <!-- $\mathdefault{10^{9}}$ -->
      <defs>
       <path d="M 10.984375 1.515625 
L 10.984375 10.5 
Q 14.703125 8.734375 18.5 7.8125 
Q 22.3125 6.890625 25.984375 6.890625 
Q 35.75 6.890625 40.890625 13.453125 
Q 46.046875 20.015625 46.78125 33.40625 
Q 43.953125 29.203125 39.59375 26.953125 
Q 35.25 24.703125 29.984375 24.703125 
Q 19.046875 24.703125 12.671875 31.3125 
Q 6.296875 37.9375 6.296875 49.421875 
Q 6.296875 60.640625 12.9375 67.421875 
Q 19.578125 74.21875 30.609375 74.21875 
Q 43.265625 74.21875 49.921875 64.515625 
Q 56.59375 54.828125 56.59375 36.375 
Q 56.59375 19.140625 48.40625 8.859375 
Q 40.234375 -1.421875 26.421875 -1.421875 
Q 22.703125 -1.421875 18.890625 -0.6875 
Q 15.09375 0.046875 10.984375 1.515625 
z
M 30.609375 32.421875 
Q 37.25 32.421875 41.125 36.953125 
Q 45.015625 41.5 45.015625 49.421875 
Q 45.015625 57.28125 41.125 61.84375 
Q 37.25 66.40625 30.609375 66.40625 
Q 23.96875 66.40625 20.09375 61.84375 
Q 16.21875 57.28125 16.21875 49.421875 
Q 16.21875 41.5 20.09375 36.953125 
Q 23.96875 32.421875 30.609375 32.421875 
z
" id="DejaVuSans-39"/>
      </defs>
      <g style="fill:#262626;" transform="translate(56.646994 48.227498)scale(0.13 -0.13)">
       <use transform="translate(0 0.765625)" xlink:href="#DejaVuSans-31"/>
       <use transform="translate(63.623047 0.765625)" xlink:href="#DejaVuSans-30"/>
       <use transform="translate(128.203125 39.046875)scale(0.7)" xlink:href="#DejaVuSans-39"/>
      </g>
     </g>
    </g>
    <g id="text_14">
     <!-- $\|\| x_k - x^* \|\|^2$ -->
     <defs>
      <path d="M 21 76.421875 
L 21 -23.578125 
L 12.703125 -23.578125 
L 12.703125 76.421875 
z
" id="DejaVuSans-7c"/>
      <path d="M 60.015625 54.6875 
L 34.90625 27.875 
L 50.296875 0 
L 39.984375 0 
L 28.421875 21.6875 
L 8.296875 0 
L -2.59375 0 
L 24.3125 28.8125 
L 10.015625 54.6875 
L 20.3125 54.6875 
L 30.8125 34.90625 
L 49.125 54.6875 
z
" id="DejaVuSans-Oblique-78"/>
      <path d="M 18.3125 75.984375 
L 27.296875 75.984375 
L 18.703125 31.6875 
L 49.515625 54.6875 
L 61.1875 54.6875 
L 26.8125 28.515625 
L 51.90625 0 
L 41.015625 0 
L 17.671875 26.703125 
L 12.5 0 
L 3.515625 0 
z
" id="DejaVuSans-Oblique-6b"/>
      <path d="M 47.015625 60.890625 
L 29.5 51.421875 
L 47.015625 41.890625 
L 44.1875 37.109375 
L 27.78125 47.015625 
L 27.78125 28.609375 
L 22.21875 28.609375 
L 22.21875 47.015625 
L 5.8125 37.109375 
L 2.984375 41.890625 
L 20.515625 51.421875 
L 2.984375 60.890625 
L 5.8125 65.71875 
L 22.21875 55.8125 
L 22.21875 74.21875 
L 27.78125 74.21875 
L 27.78125 55.8125 
L 44.1875 65.71875 
z
" id="DejaVuSans-2a"/>
     </defs>
     <g style="fill:#262626;" transform="translate(35.824994 171.3455)rotate(-90)scale(0.143 -0.143)">
      <use transform="translate(0 0.765625)" xlink:href="#DejaVuSans-7c"/>
      <use transform="translate(33.691406 0.765625)" xlink:href="#DejaVuSans-7c"/>
      <use transform="translate(67.382812 0.765625)" xlink:href="#DejaVuSans-Oblique-78"/>
      <use transform="translate(126.5625 -15.640625)scale(0.7)" xlink:href="#DejaVuSans-Oblique-6b"/>
      <use transform="translate(189.316406 0.765625)" xlink:href="#DejaVuSans-2212"/>
      <use transform="translate(292.587891 0.765625)" xlink:href="#DejaVuSans-Oblique-78"/>
      <use transform="translate(369.871419 39.046875)scale(0.7)" xlink:href="#DejaVuSans-2a"/>
      <use transform="translate(421.24349 0.765625)" xlink:href="#DejaVuSans-7c"/>
      <use transform="translate(454.934896 0.765625)" xlink:href="#DejaVuSans-7c"/>
      <use transform="translate(489.583333 39.046875)scale(0.7)" xlink:href="#DejaVuSans-32"/>
     </g>
    </g>
   </g>
   <g id="PolyCollection_1">
    <defs>
     <path d="M 103.46904 -244.231089 
L 103.46904 -244.231089 
L 104.048807 -244.229819 
L 104.628575 -244.206686 
L 105.208342 -244.124456 
L 105.78811 -244.033198 
L 106.367877 -243.875008 
L 106.947644 -243.773831 
L 107.527412 -243.582958 
L 108.107179 -243.41762 
L 108.686947 -243.279001 
L 109.266714 -243.086892 
L 109.846481 -242.91577 
L 110.426249 -242.716748 
L 111.006016 -242.52171 
L 111.585784 -242.309126 
L 112.165551 -242.109739 
L 112.745318 -241.93693 
L 113.325086 -241.687623 
L 113.904853 -241.463764 
L 114.484621 -241.279849 
L 115.064388 -241.049582 
L 115.644155 -240.730357 
L 116.223923 -240.602434 
L 116.80369 -240.450151 
L 117.383458 -240.089642 
L 117.963225 -239.790607 
L 118.542993 -239.424492 
L 119.12276 -239.220879 
L 119.702527 -239.046128 
L 120.282295 -238.738293 
L 120.862062 -238.533482 
L 121.44183 -238.261777 
L 122.021597 -237.779047 
L 122.601364 -237.648566 
L 123.181132 -237.327901 
L 123.760899 -237.11431 
L 124.340667 -236.948392 
L 124.920434 -236.717752 
L 125.500201 -236.402425 
L 126.079969 -236.072154 
L 126.659736 -235.735491 
L 127.239504 -235.461482 
L 127.819271 -235.273988 
L 128.399039 -235.097317 
L 128.978806 -234.850397 
L 129.558573 -234.660671 
L 130.138341 -234.190759 
L 130.718108 -233.918166 
L 131.297876 -233.587882 
L 131.877643 -233.255652 
L 132.45741 -233.057399 
L 133.037178 -232.763214 
L 133.616945 -232.556957 
L 134.196713 -232.298451 
L 134.77648 -231.952097 
L 135.356247 -231.741143 
L 135.936015 -231.458197 
L 136.515782 -231.094926 
L 137.09555 -230.833292 
L 137.675317 -230.691094 
L 138.255085 -230.550815 
L 138.834852 -230.305406 
L 139.414619 -230.115927 
L 139.994387 -229.863017 
L 140.574154 -229.629873 
L 141.153922 -229.203916 
L 141.733689 -228.894399 
L 142.313456 -228.531196 
L 142.893224 -228.192657 
L 143.472991 -227.857898 
L 144.052759 -227.624632 
L 144.632526 -227.497598 
L 145.212293 -227.132299 
L 145.792061 -226.712847 
L 146.371828 -226.459924 
L 146.951596 -226.126207 
L 147.531363 -225.998653 
L 148.111131 -225.623065 
L 148.690898 -225.271561 
L 149.270665 -225.026888 
L 149.850433 -224.826072 
L 150.4302 -224.386272 
L 151.009968 -224.067278 
L 151.589735 -223.67856 
L 152.169502 -223.461914 
L 152.74927 -223.205182 
L 153.329037 -222.858645 
L 153.908805 -222.65152 
L 154.488572 -222.383998 
L 155.068339 -222.06755 
L 155.648107 -221.6919 
L 156.227874 -221.418376 
L 156.807642 -220.969757 
L 157.387409 -220.70439 
L 157.967176 -220.42872 
L 158.546944 -220.118466 
L 159.126711 -219.83608 
L 159.706479 -219.573606 
L 160.286246 -219.32847 
L 160.866014 -219.074574 
L 161.445781 -218.87392 
L 162.025548 -218.585402 
L 162.605316 -218.246483 
L 163.185083 -217.97952 
L 163.764851 -217.666989 
L 164.344618 -217.272418 
L 164.924385 -216.903175 
L 165.504153 -216.587725 
L 166.08392 -216.31356 
L 166.663688 -216.069988 
L 167.243455 -215.84522 
L 167.823222 -215.418166 
L 168.40299 -215.222368 
L 168.982757 -214.927636 
L 169.562525 -214.697799 
L 170.142292 -214.321768 
L 170.72206 -214.104041 
L 171.301827 -213.816146 
L 171.881594 -213.356582 
L 172.461362 -213.057313 
L 173.041129 -212.885152 
L 173.620897 -212.591457 
L 174.200664 -212.212021 
L 174.780431 -211.877358 
L 175.360199 -211.524347 
L 175.939966 -211.331207 
L 176.519734 -211.062708 
L 177.099501 -210.911469 
L 177.679268 -210.673903 
L 178.259036 -210.164228 
L 178.838803 -209.771384 
L 179.418571 -209.526756 
L 179.998338 -209.158009 
L 180.578106 -209.019918 
L 181.157873 -208.68737 
L 181.73764 -208.247078 
L 182.317408 -208.173634 
L 182.897175 -207.801256 
L 183.476943 -207.46629 
L 184.05671 -207.226726 
L 184.636477 -207.011027 
L 185.216245 -206.757215 
L 185.796012 -206.642411 
L 186.37578 -206.213316 
L 186.955547 -205.895668 
L 187.535314 -205.555192 
L 188.115082 -205.326682 
L 188.694849 -204.972424 
L 189.274617 -204.389681 
L 189.854384 -204.214119 
L 190.434152 -203.879689 
L 191.013919 -203.648345 
L 191.593686 -203.503386 
L 192.173454 -203.186443 
L 192.753221 -203.034549 
L 193.332989 -202.764923 
L 193.912756 -202.578412 
L 194.492523 -202.435724 
L 195.072291 -201.960848 
L 195.652058 -201.706761 
L 196.231826 -201.476119 
L 196.811593 -201.236945 
L 197.39136 -200.719457 
L 197.971128 -200.561988 
L 198.550895 -200.385618 
L 199.130663 -200.327334 
L 199.71043 -199.677804 
L 200.290197 -199.193081 
L 200.869965 -199.023554 
L 201.449732 -198.713942 
L 202.0295 -198.380031 
L 202.609267 -198.182521 
L 203.189035 -197.981165 
L 203.768802 -197.559478 
L 204.348569 -197.281431 
L 204.928337 -197.210168 
L 205.508104 -196.781601 
L 206.087872 -196.428892 
L 206.667639 -196.299487 
L 207.247406 -196.099999 
L 207.827174 -195.828115 
L 208.406941 -195.504338 
L 208.986709 -195.139741 
L 209.566476 -194.778108 
L 210.146243 -194.559662 
L 210.726011 -194.223228 
L 211.305778 -194.037201 
L 211.885546 -193.843978 
L 212.465313 -193.414553 
L 213.045081 -193.193904 
L 213.624848 -193.050657 
L 214.204615 -192.748924 
L 214.784383 -192.397544 
L 215.36415 -191.952437 
L 215.943918 -191.886104 
L 216.523685 -191.551674 
L 217.103452 -191.307701 
L 217.68322 -190.940895 
L 218.262987 -190.747526 
L 218.842755 -190.679983 
L 219.422522 -190.571257 
L 220.002289 -190.50604 
L 220.582057 -190.278074 
L 221.161824 -190.005203 
L 221.741592 -189.989705 
L 222.321359 -189.772597 
L 222.901127 -189.579238 
L 223.480894 -189.462683 
L 224.060661 -189.328976 
L 224.640429 -189.293109 
L 225.220196 -189.152203 
L 225.799964 -189.165252 
L 226.379731 -188.981664 
L 226.959498 -188.966337 
L 227.539266 -188.86482 
L 228.119033 -188.771844 
L 228.698801 -188.820863 
L 229.278568 -188.849306 
L 229.858335 -188.828075 
L 230.438103 -188.62548 
L 231.01787 -188.494121 
L 231.597638 -188.524464 
L 232.177405 -188.585448 
L 232.757173 -188.572167 
L 233.33694 -188.490775 
L 233.916707 -188.481801 
L 234.496475 -188.530975 
L 235.076242 -188.544212 
L 235.65601 -188.483593 
L 236.235777 -188.465062 
L 236.815544 -188.464363 
L 237.395312 -188.478498 
L 237.975079 -188.48182 
L 238.554847 -188.458481 
L 239.134614 -188.469098 
L 239.714381 -188.462012 
L 240.294149 -188.413967 
L 240.873916 -188.385301 
L 241.453684 -188.310647 
L 242.033451 -188.27653 
L 242.613218 -188.265544 
L 243.192986 -188.316257 
L 243.772753 -188.316397 
L 244.352521 -188.353684 
L 244.932288 -188.409504 
L 245.512056 -188.394078 
L 246.091823 -188.405375 
L 246.67159 -188.394153 
L 247.251358 -188.380149 
L 247.831125 -188.396529 
L 248.410893 -188.391433 
L 248.99066 -188.415378 
L 249.570427 -188.424305 
L 250.150195 -188.315989 
L 250.729962 -188.407226 
L 251.30973 -188.452414 
L 251.889497 -188.321209 
L 252.469264 -188.310267 
L 253.049032 -188.382586 
L 253.628799 -188.369372 
L 254.208567 -188.376936 
L 254.788334 -188.279714 
L 255.368102 -188.417144 
L 255.947869 -188.392501 
L 256.527636 -188.37548 
L 257.107404 -188.302547 
L 257.687171 -188.371195 
L 258.266939 -188.239434 
L 258.846706 -188.201216 
L 259.426473 -188.191346 
L 260.006241 -188.312611 
L 260.586008 -188.302903 
L 261.165776 -188.254521 
L 261.745543 -188.301474 
L 262.32531 -188.235644 
L 262.905078 -188.247438 
L 263.484845 -188.285305 
L 264.064613 -188.300999 
L 264.64438 -188.324569 
L 265.224148 -188.38381 
L 265.803915 -188.396633 
L 266.383682 -188.335464 
L 266.96345 -188.374719 
L 267.543217 -188.367165 
L 268.122985 -188.313608 
L 268.702752 -188.261347 
L 269.282519 -188.295141 
L 269.862287 -188.354945 
L 270.442054 -188.26991 
L 271.021822 -188.285674 
L 271.601589 -188.308007 
L 272.181356 -188.350033 
L 272.761124 -188.324805 
L 273.340891 -188.347237 
L 273.920659 -188.36793 
L 274.500426 -188.380448 
L 275.080194 -188.281993 
L 275.659961 -188.415177 
L 276.239728 -188.380672 
L 276.819496 -188.462163 
L 277.399263 -188.42962 
L 277.979031 -188.37255 
L 278.558798 -188.382928 
L 279.138565 -188.379287 
L 279.718333 -188.388978 
L 280.2981 -188.452882 
L 280.877868 -188.402258 
L 281.457635 -188.387862 
L 282.037402 -188.395541 
L 282.61717 -188.404404 
L 283.196937 -188.339648 
L 283.776705 -188.376933 
L 284.356472 -188.371404 
L 284.936239 -188.412253 
L 285.516007 -188.327274 
L 286.095774 -188.284459 
L 286.675542 -188.333601 
L 287.255309 -188.324741 
L 287.835077 -188.463025 
L 288.414844 -188.424956 
L 288.994611 -188.367703 
L 289.574379 -188.416409 
L 290.154146 -188.390978 
L 290.733914 -188.327007 
L 291.313681 -188.416287 
L 291.893448 -188.366575 
L 292.473216 -188.440485 
L 293.052983 -188.389082 
L 293.632751 -188.371626 
L 294.212518 -188.478346 
L 294.792285 -188.352938 
L 295.372053 -188.400112 
L 295.95182 -188.396043 
L 296.531588 -188.349319 
L 297.111355 -188.295511 
L 297.691123 -188.254414 
L 298.27089 -188.289185 
L 298.850657 -188.253338 
L 299.430425 -188.21848 
L 300.010192 -188.21433 
L 300.58996 -188.180074 
L 301.169727 -188.244254 
L 301.749494 -188.31636 
L 302.329262 -188.272893 
L 302.909029 -188.293381 
L 303.488797 -188.362517 
L 304.068564 -188.313024 
L 304.648331 -188.340009 
L 305.228099 -188.288994 
L 305.807866 -188.363558 
L 306.387634 -188.444829 
L 306.967401 -188.44577 
L 307.547169 -188.310771 
L 308.126936 -188.279645 
L 308.706703 -188.249525 
L 309.286471 -188.316078 
L 309.866238 -188.353824 
L 310.446006 -188.320157 
L 311.025773 -188.248615 
L 311.60554 -188.268364 
L 312.185308 -188.20149 
L 312.765075 -188.220432 
L 313.344843 -188.357129 
L 313.92461 -188.217075 
L 314.504377 -188.236814 
L 315.084145 -188.306106 
L 315.663912 -188.254333 
L 316.24368 -188.184518 
L 316.823447 -188.175183 
L 317.403215 -188.273759 
L 317.982982 -188.324399 
L 318.562749 -188.40186 
L 319.142517 -188.313051 
L 319.722284 -188.447892 
L 320.302052 -188.422207 
L 320.881819 -188.46974 
L 321.461586 -188.381054 
L 322.041354 -188.359367 
L 322.621121 -188.362775 
L 323.200889 -188.330807 
L 323.780656 -188.294212 
L 324.360423 -188.391417 
L 324.940191 -188.363046 
L 325.519958 -188.354434 
L 326.099726 -188.339021 
L 326.679493 -188.335243 
L 327.25926 -188.324437 
L 327.839028 -188.421184 
L 328.418795 -188.381883 
L 328.998563 -188.466961 
L 329.57833 -188.390486 
L 330.158098 -188.372874 
L 330.737865 -188.335942 
L 331.317632 -188.349934 
L 331.8974 -188.34102 
L 332.477167 -188.409267 
L 333.056935 -188.357399 
L 333.636702 -188.398304 
L 334.216469 -188.396829 
L 334.796237 -188.38192 
L 335.376004 -188.337221 
L 335.955772 -188.4591 
L 336.535539 -188.462142 
L 337.115306 -188.465465 
L 337.695074 -188.566026 
L 338.274841 -188.422898 
L 338.854609 -188.43932 
L 339.434376 -188.319292 
L 340.014144 -188.288687 
L 340.593911 -188.389965 
L 341.173678 -188.36622 
L 341.753446 -188.219556 
L 342.333213 -188.268842 
L 342.912981 -188.261202 
L 343.492748 -188.287282 
L 344.072515 -188.346387 
L 344.652283 -188.33077 
L 345.23205 -188.376601 
L 345.811818 -188.390195 
L 346.391585 -188.365031 
L 346.971352 -188.428714 
L 347.55112 -188.258277 
L 348.130887 -188.386245 
L 348.710655 -188.284185 
L 349.290422 -188.256121 
L 349.87019 -188.350893 
L 350.449957 -188.376621 
L 351.029724 -188.383315 
L 351.609492 -188.413372 
L 352.189259 -188.46335 
L 352.769027 -188.380126 
L 353.348794 -188.387921 
L 353.928561 -188.368905 
L 354.508329 -188.348995 
L 355.088096 -188.291808 
L 355.667864 -188.346007 
L 356.247631 -188.342179 
L 356.827398 -188.369906 
L 357.407166 -188.346725 
L 357.986933 -188.284972 
L 358.566701 -188.289812 
L 359.146468 -188.282655 
L 359.726236 -188.324694 
L 360.306003 -188.373696 
L 360.88577 -188.249654 
L 361.465538 -188.280678 
L 362.045305 -188.259562 
L 362.625073 -188.281786 
L 363.20484 -188.351702 
L 363.784607 -188.322553 
L 364.364375 -188.328237 
L 364.944142 -188.334935 
L 365.52391 -188.404943 
L 366.103677 -188.416581 
L 366.683444 -188.361226 
L 367.263212 -188.406051 
L 367.842979 -188.291122 
L 368.422747 -188.33358 
L 369.002514 -188.282957 
L 369.582281 -188.336778 
L 370.162049 -188.272372 
L 370.741816 -188.31675 
L 371.321584 -188.367031 
L 371.901351 -188.374433 
L 372.481119 -188.405063 
L 373.060886 -188.395371 
L 373.640653 -188.353546 
L 374.220421 -188.350227 
L 374.800188 -188.382956 
L 375.379956 -188.264756 
L 375.959723 -188.310051 
L 376.53949 -188.329153 
L 377.119258 -188.330329 
L 377.699025 -188.309194 
L 378.278793 -188.331023 
L 378.85856 -188.35747 
L 379.438327 -188.352168 
L 380.018095 -188.368362 
L 380.597862 -188.387255 
L 381.17763 -188.443681 
L 381.757397 -188.410003 
L 382.337165 -188.409929 
L 382.916932 -188.346107 
L 383.496699 -188.343527 
L 384.076467 -188.263314 
L 384.656234 -188.287399 
L 385.236002 -188.318826 
L 385.815769 -188.2841 
L 386.395536 -188.313847 
L 386.975304 -188.251511 
L 387.555071 -188.286009 
L 388.134839 -188.320474 
L 388.714606 -188.338125 
L 389.294373 -188.364854 
L 389.874141 -188.346332 
L 390.453908 -188.405229 
L 391.033676 -188.443282 
L 391.613443 -188.382704 
L 392.193211 -188.384064 
L 392.772978 -188.336841 
L 393.352745 -188.346649 
L 393.932513 -188.351353 
L 394.51228 -188.343257 
L 395.092048 -188.495811 
L 395.671815 -188.303093 
L 396.251582 -188.285702 
L 396.83135 -188.308423 
L 397.411117 -188.336883 
L 397.990885 -188.30961 
L 398.570652 -188.344765 
L 399.150419 -188.394186 
L 399.730187 -188.327714 
L 400.309954 -188.360098 
L 400.309954 -183.843468 
L 400.309954 -183.843468 
L 399.730187 -183.931901 
L 399.150419 -183.898737 
L 398.570652 -183.909415 
L 397.990885 -183.93159 
L 397.411117 -183.767068 
L 396.83135 -183.702014 
L 396.251582 -183.849089 
L 395.671815 -183.787336 
L 395.092048 -183.793588 
L 394.51228 -183.776811 
L 393.932513 -183.866403 
L 393.352745 -183.889778 
L 392.772978 -183.771858 
L 392.193211 -183.895568 
L 391.613443 -183.840792 
L 391.033676 -183.820597 
L 390.453908 -183.71392 
L 389.874141 -183.812893 
L 389.294373 -183.83956 
L 388.714606 -183.80761 
L 388.134839 -183.787845 
L 387.555071 -183.681326 
L 386.975304 -183.750611 
L 386.395536 -183.760574 
L 385.815769 -183.8091 
L 385.236002 -183.751047 
L 384.656234 -183.812913 
L 384.076467 -183.716658 
L 383.496699 -183.775806 
L 382.916932 -183.938077 
L 382.337165 -183.922486 
L 381.757397 -183.807839 
L 381.17763 -183.700176 
L 380.597862 -183.901945 
L 380.018095 -183.885804 
L 379.438327 -183.832422 
L 378.85856 -183.864033 
L 378.278793 -183.845265 
L 377.699025 -183.990307 
L 377.119258 -183.863675 
L 376.53949 -183.782348 
L 375.959723 -183.880517 
L 375.379956 -183.830816 
L 374.800188 -183.974249 
L 374.220421 -183.77231 
L 373.640653 -183.818985 
L 373.060886 -183.822025 
L 372.481119 -183.689217 
L 371.901351 -183.626934 
L 371.321584 -183.870293 
L 370.741816 -183.903429 
L 370.162049 -183.86382 
L 369.582281 -183.693504 
L 369.002514 -183.597473 
L 368.422747 -183.738813 
L 367.842979 -183.815184 
L 367.263212 -183.866569 
L 366.683444 -183.720915 
L 366.103677 -183.632916 
L 365.52391 -183.783878 
L 364.944142 -183.968642 
L 364.364375 -184.04701 
L 363.784607 -184.117973 
L 363.20484 -183.96871 
L 362.625073 -183.967125 
L 362.045305 -183.822993 
L 361.465538 -183.736688 
L 360.88577 -183.741502 
L 360.306003 -183.764678 
L 359.726236 -183.734677 
L 359.146468 -183.735398 
L 358.566701 -183.666179 
L 357.986933 -183.557335 
L 357.407166 -183.562231 
L 356.827398 -183.732475 
L 356.247631 -183.548815 
L 355.667864 -183.649039 
L 355.088096 -183.6075 
L 354.508329 -183.709973 
L 353.928561 -183.658358 
L 353.348794 -183.606508 
L 352.769027 -183.446845 
L 352.189259 -183.560102 
L 351.609492 -183.647118 
L 351.029724 -183.657905 
L 350.449957 -183.565654 
L 349.87019 -183.668642 
L 349.290422 -183.685225 
L 348.710655 -183.776024 
L 348.130887 -183.812233 
L 347.55112 -183.89647 
L 346.971352 -183.854734 
L 346.391585 -183.838567 
L 345.811818 -183.925984 
L 345.23205 -183.940592 
L 344.652283 -183.952136 
L 344.072515 -183.947284 
L 343.492748 -183.876674 
L 342.912981 -183.772437 
L 342.333213 -183.766623 
L 341.753446 -183.724242 
L 341.173678 -183.675318 
L 340.593911 -183.640322 
L 340.014144 -183.68672 
L 339.434376 -183.670947 
L 338.854609 -183.883862 
L 338.274841 -183.825659 
L 337.695074 -183.726166 
L 337.115306 -183.827265 
L 336.535539 -183.806748 
L 335.955772 -183.758532 
L 335.376004 -183.939213 
L 334.796237 -183.763275 
L 334.216469 -183.763905 
L 333.636702 -183.717222 
L 333.056935 -183.662179 
L 332.477167 -183.620445 
L 331.8974 -183.681289 
L 331.317632 -183.679568 
L 330.737865 -183.548835 
L 330.158098 -183.491835 
L 329.57833 -183.462917 
L 328.998563 -183.527776 
L 328.418795 -183.61459 
L 327.839028 -183.720586 
L 327.25926 -183.725185 
L 326.679493 -183.776144 
L 326.099726 -183.797636 
L 325.519958 -183.872567 
L 324.940191 -183.818167 
L 324.360423 -183.708739 
L 323.780656 -183.833094 
L 323.200889 -183.7944 
L 322.621121 -183.766202 
L 322.041354 -183.755589 
L 321.461586 -183.779083 
L 320.881819 -183.737121 
L 320.302052 -183.72437 
L 319.722284 -183.782337 
L 319.142517 -183.891391 
L 318.562749 -183.660074 
L 317.982982 -183.703308 
L 317.403215 -183.729562 
L 316.823447 -183.711623 
L 316.24368 -183.894045 
L 315.663912 -183.793839 
L 315.084145 -183.641567 
L 314.504377 -183.622988 
L 313.92461 -183.735798 
L 313.344843 -183.689102 
L 312.765075 -183.836747 
L 312.185308 -183.818709 
L 311.60554 -183.761347 
L 311.025773 -183.860882 
L 310.446006 -183.907337 
L 309.866238 -183.723076 
L 309.286471 -183.76363 
L 308.706703 -183.832442 
L 308.126936 -183.852794 
L 307.547169 -183.865608 
L 306.967401 -183.784263 
L 306.387634 -183.879361 
L 305.807866 -183.774338 
L 305.228099 -183.68981 
L 304.648331 -183.741949 
L 304.068564 -183.722584 
L 303.488797 -183.89279 
L 302.909029 -183.735159 
L 302.329262 -183.724301 
L 301.749494 -183.610236 
L 301.169727 -183.644795 
L 300.58996 -183.708435 
L 300.010192 -183.744015 
L 299.430425 -183.564326 
L 298.850657 -183.588508 
L 298.27089 -183.66019 
L 297.691123 -183.660452 
L 297.111355 -183.776485 
L 296.531588 -183.803088 
L 295.95182 -183.731565 
L 295.372053 -183.838353 
L 294.792285 -183.847106 
L 294.212518 -183.920191 
L 293.632751 -183.924635 
L 293.052983 -184.054213 
L 292.473216 -183.978231 
L 291.893448 -183.900143 
L 291.313681 -183.797012 
L 290.733914 -183.753657 
L 290.154146 -183.657743 
L 289.574379 -183.595818 
L 288.994611 -183.774398 
L 288.414844 -183.792936 
L 287.835077 -183.717718 
L 287.255309 -183.771369 
L 286.675542 -183.725406 
L 286.095774 -183.881941 
L 285.516007 -183.688725 
L 284.936239 -183.724075 
L 284.356472 -183.615871 
L 283.776705 -183.724739 
L 283.196937 -183.725987 
L 282.61717 -183.756627 
L 282.037402 -183.836891 
L 281.457635 -184.082924 
L 280.877868 -184.034464 
L 280.2981 -183.982749 
L 279.718333 -183.890844 
L 279.138565 -183.944297 
L 278.558798 -183.795315 
L 277.979031 -183.725481 
L 277.399263 -183.584932 
L 276.819496 -183.599135 
L 276.239728 -183.802853 
L 275.659961 -183.937497 
L 275.080194 -183.853312 
L 274.500426 -183.893233 
L 273.920659 -183.839153 
L 273.340891 -183.720481 
L 272.761124 -183.647043 
L 272.181356 -183.652252 
L 271.601589 -183.758249 
L 271.021822 -183.847422 
L 270.442054 -183.828071 
L 269.862287 -183.863354 
L 269.282519 -183.844731 
L 268.702752 -183.932377 
L 268.122985 -183.889149 
L 267.543217 -184.064531 
L 266.96345 -184.029866 
L 266.383682 -183.970362 
L 265.803915 -183.959736 
L 265.224148 -183.794646 
L 264.64438 -183.744491 
L 264.064613 -183.701996 
L 263.484845 -183.884304 
L 262.905078 -183.889354 
L 262.32531 -183.908585 
L 261.745543 -183.841658 
L 261.165776 -183.699851 
L 260.586008 -183.840742 
L 260.006241 -183.844801 
L 259.426473 -183.717153 
L 258.846706 -183.743366 
L 258.266939 -183.706806 
L 257.687171 -183.701528 
L 257.107404 -183.752081 
L 256.527636 -183.647553 
L 255.947869 -183.755895 
L 255.368102 -183.813542 
L 254.788334 -183.934609 
L 254.208567 -183.791978 
L 253.628799 -183.867703 
L 253.049032 -183.926591 
L 252.469264 -183.818316 
L 251.889497 -183.973906 
L 251.30973 -183.950204 
L 250.729962 -183.919177 
L 250.150195 -183.909493 
L 249.570427 -183.846098 
L 248.99066 -183.794686 
L 248.410893 -183.838991 
L 247.831125 -183.87706 
L 247.251358 -183.871893 
L 246.67159 -183.840422 
L 246.091823 -183.89632 
L 245.512056 -183.937703 
L 244.932288 -183.933382 
L 244.352521 -183.89972 
L 243.772753 -183.948486 
L 243.192986 -183.850711 
L 242.613218 -183.895889 
L 242.033451 -183.943524 
L 241.453684 -184.01227 
L 240.873916 -183.904819 
L 240.294149 -183.874576 
L 239.714381 -183.890972 
L 239.134614 -183.836378 
L 238.554847 -183.657668 
L 237.975079 -183.538727 
L 237.395312 -183.674632 
L 236.815544 -183.771077 
L 236.235777 -183.8406 
L 235.65601 -183.835586 
L 235.076242 -183.78058 
L 234.496475 -183.784167 
L 233.916707 -183.778968 
L 233.33694 -183.764501 
L 232.757173 -183.822372 
L 232.177405 -183.807526 
L 231.597638 -183.702195 
L 231.01787 -183.749314 
L 230.438103 -183.930406 
L 229.858335 -183.853463 
L 229.278568 -183.822313 
L 228.698801 -183.654792 
L 228.119033 -183.817886 
L 227.539266 -183.909 
L 226.959498 -183.765026 
L 226.379731 -183.985591 
L 225.799964 -183.935337 
L 225.220196 -183.810784 
L 224.640429 -183.797534 
L 224.060661 -183.961078 
L 223.480894 -183.978161 
L 222.901127 -184.071112 
L 222.321359 -184.050849 
L 221.741592 -184.005374 
L 221.161824 -184.121484 
L 220.582057 -184.03591 
L 220.002289 -184.118839 
L 219.422522 -184.151134 
L 218.842755 -184.193886 
L 218.262987 -184.284849 
L 217.68322 -184.346077 
L 217.103452 -184.432304 
L 216.523685 -184.454064 
L 215.943918 -184.374684 
L 215.36415 -184.285401 
L 214.784383 -184.344773 
L 214.204615 -184.394756 
L 213.624848 -184.452385 
L 213.045081 -184.611539 
L 212.465313 -184.65593 
L 211.885546 -184.633444 
L 211.305778 -184.514552 
L 210.726011 -184.745545 
L 210.146243 -184.750738 
L 209.566476 -184.817162 
L 208.986709 -184.774794 
L 208.406941 -184.774156 
L 207.827174 -184.792281 
L 207.247406 -184.936248 
L 206.667639 -185.08356 
L 206.087872 -185.059351 
L 205.508104 -185.235577 
L 204.928337 -185.30214 
L 204.348569 -185.23599 
L 203.768802 -185.141508 
L 203.189035 -185.250086 
L 202.609267 -185.338395 
L 202.0295 -185.526405 
L 201.449732 -185.582254 
L 200.869965 -185.754497 
L 200.290197 -185.94961 
L 199.71043 -186.007793 
L 199.130663 -186.098409 
L 198.550895 -186.122055 
L 197.971128 -186.340254 
L 197.39136 -186.39968 
L 196.811593 -186.419154 
L 196.231826 -186.556372 
L 195.652058 -186.485195 
L 195.072291 -186.622241 
L 194.492523 -186.811949 
L 193.912756 -186.925233 
L 193.332989 -187.148233 
L 192.753221 -187.264092 
L 192.173454 -187.506646 
L 191.593686 -187.786192 
L 191.013919 -187.957656 
L 190.434152 -188.134382 
L 189.854384 -188.322631 
L 189.274617 -188.56268 
L 188.694849 -188.712623 
L 188.115082 -189.233532 
L 187.535314 -189.309789 
L 186.955547 -189.578428 
L 186.37578 -189.716102 
L 185.796012 -189.872893 
L 185.216245 -190.149454 
L 184.636477 -190.27163 
L 184.05671 -190.795724 
L 183.476943 -191.093063 
L 182.897175 -191.330324 
L 182.317408 -191.662636 
L 181.73764 -191.990463 
L 181.157873 -192.277103 
L 180.578106 -192.53179 
L 179.998338 -192.896545 
L 179.418571 -193.121598 
L 178.838803 -193.581179 
L 178.259036 -193.966776 
L 177.679268 -194.449573 
L 177.099501 -194.747143 
L 176.519734 -195.111814 
L 175.939966 -195.207462 
L 175.360199 -195.451418 
L 174.780431 -195.712072 
L 174.200664 -196.143112 
L 173.620897 -196.508432 
L 173.041129 -197.018644 
L 172.461362 -197.281207 
L 171.881594 -197.47576 
L 171.301827 -197.700449 
L 170.72206 -198.254124 
L 170.142292 -198.714632 
L 169.562525 -199.143179 
L 168.982757 -199.517121 
L 168.40299 -199.944355 
L 167.823222 -200.327949 
L 167.243455 -200.629998 
L 166.663688 -201.08558 
L 166.08392 -201.345523 
L 165.504153 -201.673232 
L 164.924385 -201.996642 
L 164.344618 -202.408534 
L 163.764851 -202.833489 
L 163.185083 -203.173657 
L 162.605316 -203.75379 
L 162.025548 -204.144293 
L 161.445781 -204.375905 
L 160.866014 -204.697774 
L 160.286246 -205.220165 
L 159.706479 -205.847396 
L 159.126711 -205.941338 
L 158.546944 -206.558981 
L 157.967176 -206.804774 
L 157.387409 -207.207447 
L 156.807642 -207.387718 
L 156.227874 -207.690326 
L 155.648107 -207.854984 
L 155.068339 -208.254556 
L 154.488572 -208.462451 
L 153.908805 -208.836971 
L 153.329037 -209.261867 
L 152.74927 -209.685437 
L 152.169502 -209.868797 
L 151.589735 -210.38715 
L 151.009968 -210.640329 
L 150.4302 -210.74773 
L 149.850433 -211.402734 
L 149.270665 -212.09872 
L 148.690898 -212.40953 
L 148.111131 -212.658519 
L 147.531363 -212.956272 
L 146.951596 -213.178559 
L 146.371828 -213.584723 
L 145.792061 -214.001495 
L 145.212293 -214.298228 
L 144.632526 -214.834017 
L 144.052759 -215.329132 
L 143.472991 -215.584945 
L 142.893224 -215.933219 
L 142.313456 -216.351627 
L 141.733689 -216.760431 
L 141.153922 -217.176645 
L 140.574154 -217.49035 
L 139.994387 -217.881146 
L 139.414619 -218.218642 
L 138.834852 -218.698173 
L 138.255085 -218.930501 
L 137.675317 -219.391502 
L 137.09555 -219.85992 
L 136.515782 -220.236107 
L 135.936015 -220.647015 
L 135.356247 -220.90824 
L 134.77648 -221.290881 
L 134.196713 -221.739205 
L 133.616945 -221.88484 
L 133.037178 -222.319881 
L 132.45741 -222.778052 
L 131.877643 -223.145273 
L 131.297876 -223.621536 
L 130.718108 -223.987485 
L 130.138341 -224.267908 
L 129.558573 -224.630217 
L 128.978806 -225.012052 
L 128.399039 -225.489337 
L 127.819271 -226.004293 
L 127.239504 -226.415751 
L 126.659736 -226.645526 
L 126.079969 -227.028548 
L 125.500201 -227.339257 
L 124.920434 -227.658395 
L 124.340667 -228.285444 
L 123.760899 -228.624856 
L 123.181132 -228.996771 
L 122.601364 -229.284744 
L 122.021597 -229.651353 
L 121.44183 -230.087721 
L 120.862062 -230.570285 
L 120.282295 -230.967273 
L 119.702527 -231.301109 
L 119.12276 -231.634127 
L 118.542993 -232.007114 
L 117.963225 -232.314084 
L 117.383458 -232.706175 
L 116.80369 -232.973097 
L 116.223923 -233.521965 
L 115.644155 -233.914848 
L 115.064388 -234.18636 
L 114.484621 -234.806024 
L 113.904853 -235.101191 
L 113.325086 -235.54638 
L 112.745318 -235.953022 
L 112.165551 -236.45183 
L 111.585784 -236.811706 
L 111.006016 -237.350673 
L 110.426249 -237.713768 
L 109.846481 -238.170793 
L 109.266714 -238.601779 
L 108.686947 -239.011562 
L 108.107179 -239.587865 
L 107.527412 -240.002212 
L 106.947644 -240.39731 
L 106.367877 -240.832068 
L 105.78811 -241.321864 
L 105.208342 -241.840753 
L 104.628575 -242.358695 
L 104.048807 -242.986282 
L 103.46904 -244.231089 
z
" id="m47f16bcb4c" style="stroke:#1f77b4;stroke-opacity:0.2;stroke-width:0.39;"/>
    </defs>
    <g clip-path="url(#p698e32393a)">
     <use style="fill:#1f77b4;fill-opacity:0.2;stroke:#1f77b4;stroke-opacity:0.2;stroke-width:0.39;" x="0" xlink:href="#m47f16bcb4c" y="288"/>
    </g>
   </g>
   <g id="PolyCollection_2">
    <defs>
     <path d="M 103.46904 -244.231089 
L 103.46904 -244.231089 
L 104.048807 -244.233636 
L 104.628575 -244.203436 
L 105.208342 -244.148039 
L 105.78811 -244.055314 
L 106.367877 -243.940876 
L 106.947644 -243.79776 
L 107.527412 -243.604114 
L 108.107179 -243.470267 
L 108.686947 -243.266052 
L 109.266714 -243.044958 
L 109.846481 -242.90013 
L 110.426249 -242.712349 
L 111.006016 -242.458972 
L 111.585784 -242.275374 
L 112.165551 -242.15083 
L 112.745318 -241.906816 
L 113.325086 -241.656768 
L 113.904853 -241.504173 
L 114.484621 -241.314404 
L 115.064388 -241.102505 
L 115.644155 -240.819326 
L 116.223923 -240.542262 
L 116.80369 -240.331091 
L 117.383458 -240.116963 
L 117.963225 -239.829546 
L 118.542993 -239.622728 
L 119.12276 -239.420121 
L 119.702527 -239.126997 
L 120.282295 -238.965015 
L 120.862062 -238.752429 
L 121.44183 -238.511875 
L 122.021597 -238.219101 
L 122.601364 -237.882136 
L 123.181132 -237.621153 
L 123.760899 -237.333213 
L 124.340667 -237.175419 
L 124.920434 -236.978516 
L 125.500201 -236.819824 
L 126.079969 -236.53927 
L 126.659736 -236.292674 
L 127.239504 -235.944899 
L 127.819271 -235.61956 
L 128.399039 -235.395998 
L 128.978806 -235.144183 
L 129.558573 -234.928174 
L 130.138341 -234.584559 
L 130.718108 -234.413576 
L 131.297876 -234.102754 
L 131.877643 -233.992613 
L 132.45741 -233.773175 
L 133.037178 -233.536418 
L 133.616945 -233.191876 
L 134.196713 -232.977252 
L 134.77648 -232.713222 
L 135.356247 -232.485662 
L 135.936015 -232.165534 
L 136.515782 -231.956903 
L 137.09555 -231.628543 
L 137.675317 -231.372877 
L 138.255085 -231.094269 
L 138.834852 -230.810174 
L 139.414619 -230.560039 
L 139.994387 -230.328992 
L 140.574154 -230.151925 
L 141.153922 -229.813755 
L 141.733689 -229.336397 
L 142.313456 -229.132905 
L 142.893224 -228.913598 
L 143.472991 -228.733539 
L 144.052759 -228.606111 
L 144.632526 -228.361476 
L 145.212293 -227.991122 
L 145.792061 -227.724698 
L 146.371828 -227.5268 
L 146.951596 -227.203727 
L 147.531363 -226.939499 
L 148.111131 -226.761658 
L 148.690898 -226.577916 
L 149.270665 -226.17683 
L 149.850433 -225.97651 
L 150.4302 -225.803873 
L 151.009968 -225.381878 
L 151.589735 -225.021145 
L 152.169502 -224.999283 
L 152.74927 -224.816014 
L 153.329037 -224.63918 
L 153.908805 -224.604878 
L 154.488572 -224.136297 
L 155.068339 -223.836174 
L 155.648107 -223.465028 
L 156.227874 -222.926403 
L 156.807642 -222.766883 
L 157.387409 -222.469297 
L 157.967176 -222.253417 
L 158.546944 -221.967479 
L 159.126711 -221.867458 
L 159.706479 -221.59075 
L 160.286246 -221.332454 
L 160.866014 -221.064933 
L 161.445781 -220.935427 
L 162.025548 -220.592839 
L 162.605316 -220.442264 
L 163.185083 -220.260077 
L 163.764851 -219.933898 
L 164.344618 -219.679716 
L 164.924385 -219.367988 
L 165.504153 -219.092702 
L 166.08392 -218.825831 
L 166.663688 -218.542965 
L 167.243455 -218.178534 
L 167.823222 -217.937672 
L 168.40299 -217.503865 
L 168.982757 -217.24266 
L 169.562525 -217.042265 
L 170.142292 -216.763122 
L 170.72206 -216.649112 
L 171.301827 -216.212618 
L 171.881594 -215.829316 
L 172.461362 -215.53696 
L 173.041129 -215.353235 
L 173.620897 -215.125277 
L 174.200664 -214.823238 
L 174.780431 -214.678135 
L 175.360199 -214.257028 
L 175.939966 -214.037235 
L 176.519734 -213.745133 
L 177.099501 -213.57016 
L 177.679268 -213.228139 
L 178.259036 -213.106725 
L 178.838803 -212.830707 
L 179.418571 -212.530428 
L 179.998338 -212.286499 
L 180.578106 -211.938473 
L 181.157873 -211.598536 
L 181.73764 -211.266524 
L 182.317408 -210.897065 
L 182.897175 -210.757362 
L 183.476943 -210.285075 
L 184.05671 -209.974303 
L 184.636477 -209.594462 
L 185.216245 -209.348268 
L 185.796012 -209.172196 
L 186.37578 -209.12308 
L 186.955547 -208.97422 
L 187.535314 -208.43786 
L 188.115082 -208.205781 
L 188.694849 -207.936952 
L 189.274617 -207.805445 
L 189.854384 -207.409891 
L 190.434152 -207.185349 
L 191.013919 -206.785557 
L 191.593686 -206.46912 
L 192.173454 -206.189182 
L 192.753221 -206.043024 
L 193.332989 -205.806357 
L 193.912756 -205.451348 
L 194.492523 -205.203586 
L 195.072291 -204.751838 
L 195.652058 -204.595373 
L 196.231826 -204.441981 
L 196.811593 -204.29265 
L 197.39136 -203.939616 
L 197.971128 -203.597354 
L 198.550895 -203.272626 
L 199.130663 -203.230128 
L 199.71043 -202.75215 
L 200.290197 -202.541042 
L 200.869965 -202.247628 
L 201.449732 -202.124835 
L 202.0295 -201.840001 
L 202.609267 -201.783309 
L 203.189035 -201.465668 
L 203.768802 -200.816271 
L 204.348569 -200.320036 
L 204.928337 -200.260449 
L 205.508104 -199.979742 
L 206.087872 -199.66791 
L 206.667639 -199.49617 
L 207.247406 -199.077396 
L 207.827174 -199.061832 
L 208.406941 -198.610926 
L 208.986709 -198.167156 
L 209.566476 -198.0528 
L 210.146243 -197.526824 
L 210.726011 -197.064796 
L 211.305778 -196.972817 
L 211.885546 -196.523605 
L 212.465313 -196.313412 
L 213.045081 -196.201966 
L 213.624848 -196.161876 
L 214.204615 -195.690886 
L 214.784383 -195.389486 
L 215.36415 -195.117226 
L 215.943918 -195.016691 
L 216.523685 -194.830131 
L 217.103452 -194.645645 
L 217.68322 -194.00731 
L 218.262987 -193.574823 
L 218.842755 -193.338093 
L 219.422522 -192.653123 
L 220.002289 -192.523126 
L 220.582057 -191.839701 
L 221.161824 -191.801838 
L 221.741592 -191.524889 
L 222.321359 -191.419217 
L 222.901127 -191.107735 
L 223.480894 -191.01861 
L 224.060661 -190.743164 
L 224.640429 -190.412616 
L 225.220196 -190.224274 
L 225.799964 -190.11055 
L 226.379731 -189.809847 
L 226.959498 -189.258807 
L 227.539266 -189.000184 
L 228.119033 -188.674884 
L 228.698801 -188.501217 
L 229.278568 -188.091801 
L 229.858335 -187.973963 
L 230.438103 -187.611712 
L 231.01787 -187.214921 
L 231.597638 -186.871906 
L 232.177405 -186.696993 
L 232.757173 -186.313034 
L 233.33694 -186.031007 
L 233.916707 -185.539137 
L 234.496475 -185.402609 
L 235.076242 -185.02198 
L 235.65601 -184.789918 
L 236.235777 -184.395514 
L 236.815544 -184.165703 
L 237.395312 -184.125853 
L 237.975079 -183.603857 
L 238.554847 -183.421758 
L 239.134614 -183.083392 
L 239.714381 -182.565031 
L 240.294149 -182.304867 
L 240.873916 -182.077584 
L 241.453684 -181.94431 
L 242.033451 -181.655489 
L 242.613218 -181.31417 
L 243.192986 -181.121194 
L 243.772753 -180.850776 
L 244.352521 -180.595784 
L 244.932288 -180.190367 
L 245.512056 -179.97781 
L 246.091823 -179.673885 
L 246.67159 -179.398948 
L 247.251358 -178.996 
L 247.831125 -178.666548 
L 248.410893 -178.498925 
L 248.99066 -178.30155 
L 249.570427 -178.022155 
L 250.150195 -177.90492 
L 250.729962 -177.556176 
L 251.30973 -177.185971 
L 251.889497 -177.018729 
L 252.469264 -176.821047 
L 253.049032 -176.375836 
L 253.628799 -175.993276 
L 254.208567 -175.928244 
L 254.788334 -175.509675 
L 255.368102 -175.423603 
L 255.947869 -175.000209 
L 256.527636 -174.677552 
L 257.107404 -174.311806 
L 257.687171 -174.114431 
L 258.266939 -173.99263 
L 258.846706 -173.850493 
L 259.426473 -173.45468 
L 260.006241 -173.255629 
L 260.586008 -172.96554 
L 261.165776 -172.627055 
L 261.745543 -172.431842 
L 262.32531 -172.051766 
L 262.905078 -171.90243 
L 263.484845 -171.629456 
L 264.064613 -171.134119 
L 264.64438 -170.693952 
L 265.224148 -170.521909 
L 265.803915 -169.823009 
L 266.383682 -169.624531 
L 266.96345 -169.571955 
L 267.543217 -169.259286 
L 268.122985 -168.862232 
L 268.702752 -168.434042 
L 269.282519 -168.315429 
L 269.862287 -167.917221 
L 270.442054 -167.757023 
L 271.021822 -167.345624 
L 271.601589 -167.03883 
L 272.181356 -166.711739 
L 272.761124 -166.608386 
L 273.340891 -166.161039 
L 273.920659 -165.886719 
L 274.500426 -165.720971 
L 275.080194 -165.489694 
L 275.659961 -165.357228 
L 276.239728 -165.018356 
L 276.819496 -164.845321 
L 277.399263 -164.74032 
L 277.979031 -164.438924 
L 278.558798 -164.136346 
L 279.138565 -163.749357 
L 279.718333 -163.449889 
L 280.2981 -163.233194 
L 280.877868 -162.921688 
L 281.457635 -162.4999 
L 282.037402 -162.299769 
L 282.61717 -162.222693 
L 283.196937 -161.746277 
L 283.776705 -161.485616 
L 284.356472 -161.224181 
L 284.936239 -160.678817 
L 285.516007 -160.505014 
L 286.095774 -159.902235 
L 286.675542 -159.470177 
L 287.255309 -159.047876 
L 287.835077 -158.7957 
L 288.414844 -158.630543 
L 288.994611 -158.204168 
L 289.574379 -158.130566 
L 290.154146 -158.044405 
L 290.733914 -157.587388 
L 291.313681 -157.340077 
L 291.893448 -157.193252 
L 292.473216 -156.8529 
L 293.052983 -156.769524 
L 293.632751 -156.427258 
L 294.212518 -156.35824 
L 294.792285 -156.265852 
L 295.372053 -155.912269 
L 295.95182 -155.65779 
L 296.531588 -155.169628 
L 297.111355 -154.701174 
L 297.691123 -154.236164 
L 298.27089 -154.05248 
L 298.850657 -153.806618 
L 299.430425 -153.761007 
L 300.010192 -153.521926 
L 300.58996 -153.366214 
L 301.169727 -152.892525 
L 301.749494 -152.597342 
L 302.329262 -152.268155 
L 302.909029 -151.98199 
L 303.488797 -151.475477 
L 304.068564 -151.357172 
L 304.648331 -151.081684 
L 305.228099 -150.566345 
L 305.807866 -150.247523 
L 306.387634 -149.947729 
L 306.967401 -149.752789 
L 307.547169 -149.62648 
L 308.126936 -149.190681 
L 308.706703 -149.14886 
L 309.286471 -148.927743 
L 309.866238 -148.720147 
L 310.446006 -148.184189 
L 311.025773 -147.873713 
L 311.60554 -147.813579 
L 312.185308 -147.32324 
L 312.765075 -147.097466 
L 313.344843 -146.824906 
L 313.92461 -146.213243 
L 314.504377 -145.892805 
L 315.084145 -145.744049 
L 315.663912 -145.49068 
L 316.24368 -145.144875 
L 316.823447 -145.028754 
L 317.403215 -144.770766 
L 317.982982 -144.647804 
L 318.562749 -144.355912 
L 319.142517 -144.026763 
L 319.722284 -143.693628 
L 320.302052 -143.248728 
L 320.881819 -143.071255 
L 321.461586 -142.694366 
L 322.041354 -142.595836 
L 322.621121 -142.089549 
L 323.200889 -141.916503 
L 323.780656 -141.497974 
L 324.360423 -141.435364 
L 324.940191 -141.199756 
L 325.519958 -140.789413 
L 326.099726 -140.381134 
L 326.679493 -140.179781 
L 327.25926 -139.792976 
L 327.839028 -139.449894 
L 328.418795 -139.326138 
L 328.998563 -139.070195 
L 329.57833 -138.806514 
L 330.158098 -138.635196 
L 330.737865 -138.262546 
L 331.317632 -138.073721 
L 331.8974 -137.545383 
L 332.477167 -137.283345 
L 333.056935 -137.146577 
L 333.636702 -136.812802 
L 334.216469 -136.50389 
L 334.796237 -136.223407 
L 335.376004 -135.780025 
L 335.955772 -135.473383 
L 336.535539 -135.185355 
L 337.115306 -134.932673 
L 337.695074 -134.649209 
L 338.274841 -134.434793 
L 338.854609 -134.055893 
L 339.434376 -133.710314 
L 340.014144 -133.440209 
L 340.593911 -133.266951 
L 341.173678 -132.98664 
L 341.753446 -132.673186 
L 342.333213 -132.235986 
L 342.912981 -131.979547 
L 343.492748 -131.744267 
L 344.072515 -131.402207 
L 344.652283 -131.144974 
L 345.23205 -131.039225 
L 345.811818 -130.460887 
L 346.391585 -130.350446 
L 346.971352 -130.075203 
L 347.55112 -130.052719 
L 348.130887 -129.513307 
L 348.710655 -129.342823 
L 349.290422 -129.029778 
L 349.87019 -128.758967 
L 350.449957 -128.539559 
L 351.029724 -128.323863 
L 351.609492 -128.077079 
L 352.189259 -127.711086 
L 352.769027 -127.298667 
L 353.348794 -126.980268 
L 353.928561 -126.844475 
L 354.508329 -126.381666 
L 355.088096 -126.019738 
L 355.667864 -125.825994 
L 356.247631 -125.354738 
L 356.827398 -125.174566 
L 357.407166 -124.673177 
L 357.986933 -124.440386 
L 358.566701 -124.148419 
L 359.146468 -123.969679 
L 359.726236 -123.510607 
L 360.306003 -123.33535 
L 360.88577 -123.090225 
L 361.465538 -122.555342 
L 362.045305 -122.378979 
L 362.625073 -121.940137 
L 363.20484 -121.7216 
L 363.784607 -121.266535 
L 364.364375 -120.942847 
L 364.944142 -120.708149 
L 365.52391 -120.687481 
L 366.103677 -120.399201 
L 366.683444 -119.971559 
L 367.263212 -119.893117 
L 367.842979 -119.265461 
L 368.422747 -119.113245 
L 369.002514 -118.504957 
L 369.582281 -118.378925 
L 370.162049 -118.097403 
L 370.741816 -117.734018 
L 371.321584 -117.57107 
L 371.901351 -117.551163 
L 372.481119 -117.440156 
L 373.060886 -117.133384 
L 373.640653 -116.287677 
L 374.220421 -116.171698 
L 374.800188 -115.829701 
L 375.379956 -115.558905 
L 375.959723 -115.051138 
L 376.53949 -114.724761 
L 377.119258 -114.555333 
L 377.699025 -114.304519 
L 378.278793 -114.002793 
L 378.85856 -113.684112 
L 379.438327 -113.499617 
L 380.018095 -112.907356 
L 380.597862 -112.542347 
L 381.17763 -112.362741 
L 381.757397 -112.277041 
L 382.337165 -112.161356 
L 382.916932 -111.673349 
L 383.496699 -111.211215 
L 384.076467 -111.102945 
L 384.656234 -110.849912 
L 385.236002 -110.392381 
L 385.815769 -110.262637 
L 386.395536 -110.041825 
L 386.975304 -110.00527 
L 387.555071 -109.80676 
L 388.134839 -109.38896 
L 388.714606 -109.235617 
L 389.294373 -109.191774 
L 389.874141 -108.755286 
L 390.453908 -108.499583 
L 391.033676 -108.489374 
L 391.613443 -107.802282 
L 392.193211 -107.399691 
L 392.772978 -107.349339 
L 393.352745 -106.839313 
L 393.932513 -106.817148 
L 394.51228 -106.076457 
L 395.092048 -106.076344 
L 395.671815 -105.890111 
L 396.251582 -105.102502 
L 396.83135 -104.760862 
L 397.411117 -104.726562 
L 397.990885 -104.561257 
L 398.570652 -104.298845 
L 399.150419 -104.254292 
L 399.730187 -103.976162 
L 400.309954 -103.310233 
L 400.309954 -65.866364 
L 400.309954 -65.866364 
L 399.730187 -66.174096 
L 399.150419 -66.628501 
L 398.570652 -66.772634 
L 397.990885 -66.941525 
L 397.411117 -67.103018 
L 396.83135 -67.415214 
L 396.251582 -67.617469 
L 395.671815 -67.957949 
L 395.092048 -68.233485 
L 394.51228 -68.614442 
L 393.932513 -69.059431 
L 393.352745 -69.246303 
L 392.772978 -69.304061 
L 392.193211 -69.844544 
L 391.613443 -70.160879 
L 391.033676 -70.535287 
L 390.453908 -71.107992 
L 389.874141 -71.189658 
L 389.294373 -71.632139 
L 388.714606 -71.810716 
L 388.134839 -72.031499 
L 387.555071 -72.275881 
L 386.975304 -72.488175 
L 386.395536 -73.247095 
L 385.815769 -73.727392 
L 385.236002 -74.095857 
L 384.656234 -74.677368 
L 384.076467 -74.910148 
L 383.496699 -75.264625 
L 382.916932 -75.590613 
L 382.337165 -75.947389 
L 381.757397 -76.280383 
L 381.17763 -76.8976 
L 380.597862 -77.384012 
L 380.018095 -77.56952 
L 379.438327 -77.974923 
L 378.85856 -78.269128 
L 378.278793 -78.57914 
L 377.699025 -78.93513 
L 377.119258 -79.19738 
L 376.53949 -79.762404 
L 375.959723 -79.771355 
L 375.379956 -79.899418 
L 374.800188 -80.532817 
L 374.220421 -80.559004 
L 373.640653 -80.558985 
L 373.060886 -81.203619 
L 372.481119 -81.721876 
L 371.901351 -82.665155 
L 371.321584 -82.755609 
L 370.741816 -82.824623 
L 370.162049 -83.135644 
L 369.582281 -83.615555 
L 369.002514 -83.701724 
L 368.422747 -84.078996 
L 367.842979 -84.239309 
L 367.263212 -84.892841 
L 366.683444 -85.042622 
L 366.103677 -85.300309 
L 365.52391 -85.603317 
L 364.944142 -85.978113 
L 364.364375 -86.267362 
L 363.784607 -86.873855 
L 363.20484 -87.308771 
L 362.625073 -87.404818 
L 362.045305 -87.78633 
L 361.465538 -88.24592 
L 360.88577 -88.52608 
L 360.306003 -88.637557 
L 359.726236 -89.178725 
L 359.146468 -89.458274 
L 358.566701 -89.810332 
L 357.986933 -89.946303 
L 357.407166 -90.417695 
L 356.827398 -90.551412 
L 356.247631 -91.023351 
L 355.667864 -91.412517 
L 355.088096 -91.849588 
L 354.508329 -91.935652 
L 353.928561 -91.976211 
L 353.348794 -92.306769 
L 352.769027 -92.703936 
L 352.189259 -92.865852 
L 351.609492 -93.169389 
L 351.029724 -93.763684 
L 350.449957 -93.965786 
L 349.87019 -94.805773 
L 349.290422 -94.980429 
L 348.710655 -95.571583 
L 348.130887 -95.827239 
L 347.55112 -96.124431 
L 346.971352 -96.341828 
L 346.391585 -96.845574 
L 345.811818 -96.96442 
L 345.23205 -97.236186 
L 344.652283 -97.486354 
L 344.072515 -97.835934 
L 343.492748 -98.051372 
L 342.912981 -98.57708 
L 342.333213 -98.898997 
L 341.753446 -99.382991 
L 341.173678 -99.874337 
L 340.593911 -100.287649 
L 340.014144 -100.683186 
L 339.434376 -101.192069 
L 338.854609 -101.499528 
L 338.274841 -101.543519 
L 337.695074 -101.686094 
L 337.115306 -102.147636 
L 336.535539 -102.709051 
L 335.955772 -103.13079 
L 335.376004 -103.456141 
L 334.796237 -103.684803 
L 334.216469 -104.113614 
L 333.636702 -104.445821 
L 333.056935 -104.715565 
L 332.477167 -105.087928 
L 331.8974 -105.730439 
L 331.317632 -105.894877 
L 330.737865 -106.077364 
L 330.158098 -106.254792 
L 329.57833 -106.389758 
L 328.998563 -107.069513 
L 328.418795 -107.232366 
L 327.839028 -107.268394 
L 327.25926 -107.442646 
L 326.679493 -107.686331 
L 326.099726 -108.161159 
L 325.519958 -108.770923 
L 324.940191 -108.821805 
L 324.360423 -109.132886 
L 323.780656 -109.558387 
L 323.200889 -109.907639 
L 322.621121 -110.083563 
L 322.041354 -110.539732 
L 321.461586 -111.045105 
L 320.881819 -111.228235 
L 320.302052 -111.679558 
L 319.722284 -111.994372 
L 319.142517 -112.365117 
L 318.562749 -112.707199 
L 317.982982 -113.383696 
L 317.403215 -113.745892 
L 316.823447 -113.901842 
L 316.24368 -114.200768 
L 315.663912 -114.350541 
L 315.084145 -114.536085 
L 314.504377 -114.904939 
L 313.92461 -115.309853 
L 313.344843 -115.483002 
L 312.765075 -115.860185 
L 312.185308 -116.093352 
L 311.60554 -116.869067 
L 311.025773 -117.059641 
L 310.446006 -117.282878 
L 309.866238 -117.627509 
L 309.286471 -117.820456 
L 308.706703 -118.072282 
L 308.126936 -118.319683 
L 307.547169 -118.721637 
L 306.967401 -119.248597 
L 306.387634 -119.831755 
L 305.807866 -119.870656 
L 305.228099 -120.035612 
L 304.648331 -120.483627 
L 304.068564 -121.061716 
L 303.488797 -121.371907 
L 302.909029 -121.471629 
L 302.329262 -121.974934 
L 301.749494 -122.234764 
L 301.169727 -122.682672 
L 300.58996 -122.867711 
L 300.010192 -123.23009 
L 299.430425 -123.345169 
L 298.850657 -123.580942 
L 298.27089 -124.052606 
L 297.691123 -124.620037 
L 297.111355 -124.83549 
L 296.531588 -125.179026 
L 295.95182 -125.611268 
L 295.372053 -125.973879 
L 294.792285 -126.196893 
L 294.212518 -126.634648 
L 293.632751 -126.847801 
L 293.052983 -127.320458 
L 292.473216 -127.597147 
L 291.893448 -127.990577 
L 291.313681 -128.289565 
L 290.733914 -128.434018 
L 290.154146 -128.80934 
L 289.574379 -129.083606 
L 288.994611 -129.754503 
L 288.414844 -129.906635 
L 287.835077 -130.082299 
L 287.255309 -130.428111 
L 286.675542 -130.697159 
L 286.095774 -131.087378 
L 285.516007 -131.309685 
L 284.936239 -131.824002 
L 284.356472 -132.136152 
L 283.776705 -132.496197 
L 283.196937 -132.819897 
L 282.61717 -133.303631 
L 282.037402 -133.600103 
L 281.457635 -133.767445 
L 280.877868 -133.990691 
L 280.2981 -134.740187 
L 279.718333 -135.043717 
L 279.138565 -135.698571 
L 278.558798 -136.007012 
L 277.979031 -136.424639 
L 277.399263 -136.987349 
L 276.819496 -137.24458 
L 276.239728 -137.592943 
L 275.659961 -137.923147 
L 275.080194 -138.048264 
L 274.500426 -138.530936 
L 273.920659 -138.965642 
L 273.340891 -139.199261 
L 272.761124 -139.528941 
L 272.181356 -139.984632 
L 271.601589 -140.263964 
L 271.021822 -140.555745 
L 270.442054 -140.964788 
L 269.862287 -141.307489 
L 269.282519 -141.591449 
L 268.702752 -141.897762 
L 268.122985 -142.383363 
L 267.543217 -142.756957 
L 266.96345 -142.922174 
L 266.383682 -143.208921 
L 265.803915 -143.458133 
L 265.224148 -143.828184 
L 264.64438 -144.149913 
L 264.064613 -144.549273 
L 263.484845 -144.66332 
L 262.905078 -145.10121 
L 262.32531 -145.296797 
L 261.745543 -145.827446 
L 261.165776 -145.946525 
L 260.586008 -146.156708 
L 260.006241 -146.299524 
L 259.426473 -146.738772 
L 258.846706 -146.956115 
L 258.266939 -147.226847 
L 257.687171 -147.889345 
L 257.107404 -148.07407 
L 256.527636 -148.592607 
L 255.947869 -148.797244 
L 255.368102 -149.291828 
L 254.788334 -149.434176 
L 254.208567 -149.55512 
L 253.628799 -150.014097 
L 253.049032 -150.480037 
L 252.469264 -150.684198 
L 251.889497 -151.19248 
L 251.30973 -151.331412 
L 250.729962 -151.503803 
L 250.150195 -152.081486 
L 249.570427 -152.589402 
L 248.99066 -152.785116 
L 248.410893 -153.069987 
L 247.831125 -153.63167 
L 247.251358 -153.839216 
L 246.67159 -154.13274 
L 246.091823 -154.498784 
L 245.512056 -154.759726 
L 244.932288 -154.948096 
L 244.352521 -155.427584 
L 243.772753 -155.734549 
L 243.192986 -156.000917 
L 242.613218 -156.16401 
L 242.033451 -156.542733 
L 241.453684 -156.996219 
L 240.873916 -157.504259 
L 240.294149 -157.727293 
L 239.714381 -158.18292 
L 239.134614 -158.410122 
L 238.554847 -158.515309 
L 237.975079 -158.964778 
L 237.395312 -159.281407 
L 236.815544 -159.585231 
L 236.235777 -159.824689 
L 235.65601 -160.108176 
L 235.076242 -160.71947 
L 234.496475 -160.87635 
L 233.916707 -161.125619 
L 233.33694 -161.574437 
L 232.757173 -161.746712 
L 232.177405 -162.302713 
L 231.597638 -162.688305 
L 231.01787 -163.013761 
L 230.438103 -163.256793 
L 229.858335 -163.706949 
L 229.278568 -163.873036 
L 228.698801 -164.261153 
L 228.119033 -164.585341 
L 227.539266 -165.083529 
L 226.959498 -165.455111 
L 226.379731 -165.585132 
L 225.799964 -166.000653 
L 225.220196 -166.230703 
L 224.640429 -166.554808 
L 224.060661 -166.920909 
L 223.480894 -167.089149 
L 222.901127 -167.581609 
L 222.321359 -167.790049 
L 221.741592 -168.67404 
L 221.161824 -168.935761 
L 220.582057 -169.164193 
L 220.002289 -169.378357 
L 219.422522 -169.702219 
L 218.842755 -169.940803 
L 218.262987 -170.271292 
L 217.68322 -170.414778 
L 217.103452 -170.703544 
L 216.523685 -171.221315 
L 215.943918 -171.317929 
L 215.36415 -171.960876 
L 214.784383 -172.353388 
L 214.204615 -172.765913 
L 213.624848 -172.793749 
L 213.045081 -173.235801 
L 212.465313 -173.348723 
L 211.885546 -173.617961 
L 211.305778 -173.942595 
L 210.726011 -174.377189 
L 210.146243 -174.667564 
L 209.566476 -175.313319 
L 208.986709 -175.544001 
L 208.406941 -176.200345 
L 207.827174 -176.393197 
L 207.247406 -176.802111 
L 206.667639 -176.935909 
L 206.087872 -177.385385 
L 205.508104 -178.056284 
L 204.928337 -178.836738 
L 204.348569 -179.176302 
L 203.768802 -179.400526 
L 203.189035 -179.823754 
L 202.609267 -180.110124 
L 202.0295 -180.623169 
L 201.449732 -180.874673 
L 200.869965 -181.286834 
L 200.290197 -181.672236 
L 199.71043 -182.086971 
L 199.130663 -182.306253 
L 198.550895 -182.548271 
L 197.971128 -183.032446 
L 197.39136 -183.125664 
L 196.811593 -183.607697 
L 196.231826 -183.95484 
L 195.652058 -184.114417 
L 195.072291 -184.483452 
L 194.492523 -184.780956 
L 193.912756 -185.031229 
L 193.332989 -185.318093 
L 192.753221 -186.020109 
L 192.173454 -186.261801 
L 191.593686 -186.636843 
L 191.013919 -186.961274 
L 190.434152 -187.1048 
L 189.854384 -187.729463 
L 189.274617 -188.17814 
L 188.694849 -188.437864 
L 188.115082 -188.76761 
L 187.535314 -188.914566 
L 186.955547 -189.326809 
L 186.37578 -189.553597 
L 185.796012 -189.93286 
L 185.216245 -190.433315 
L 184.636477 -190.625084 
L 184.05671 -191.207719 
L 183.476943 -191.377475 
L 182.897175 -191.805908 
L 182.317408 -192.108529 
L 181.73764 -192.378838 
L 181.157873 -192.693843 
L 180.578106 -193.057079 
L 179.998338 -193.410754 
L 179.418571 -193.786134 
L 178.838803 -194.31883 
L 178.259036 -194.711319 
L 177.679268 -195.049957 
L 177.099501 -195.391608 
L 176.519734 -195.565787 
L 175.939966 -195.816907 
L 175.360199 -196.152158 
L 174.780431 -196.498937 
L 174.200664 -197.225317 
L 173.620897 -197.351517 
L 173.041129 -197.641234 
L 172.461362 -198.134889 
L 171.881594 -198.260483 
L 171.301827 -198.734051 
L 170.72206 -199.074837 
L 170.142292 -199.649149 
L 169.562525 -200.039894 
L 168.982757 -200.419869 
L 168.40299 -200.539121 
L 167.823222 -200.856022 
L 167.243455 -201.355329 
L 166.663688 -201.897173 
L 166.08392 -202.21845 
L 165.504153 -202.565278 
L 164.924385 -202.970292 
L 164.344618 -203.3152 
L 163.764851 -203.71703 
L 163.185083 -203.94279 
L 162.605316 -204.136845 
L 162.025548 -204.486347 
L 161.445781 -204.803319 
L 160.866014 -205.200451 
L 160.286246 -205.484783 
L 159.706479 -205.990526 
L 159.126711 -206.193789 
L 158.546944 -206.776946 
L 157.967176 -206.945673 
L 157.387409 -207.308516 
L 156.807642 -207.684805 
L 156.227874 -208.033924 
L 155.648107 -208.447178 
L 155.068339 -208.651193 
L 154.488572 -209.1267 
L 153.908805 -209.469345 
L 153.329037 -209.668266 
L 152.74927 -210.337099 
L 152.169502 -210.513884 
L 151.589735 -211.042922 
L 151.009968 -211.38114 
L 150.4302 -211.698817 
L 149.850433 -212.25326 
L 149.270665 -212.38048 
L 148.690898 -212.826985 
L 148.111131 -213.173658 
L 147.531363 -213.425388 
L 146.951596 -214.023789 
L 146.371828 -214.222578 
L 145.792061 -214.57267 
L 145.212293 -215.114419 
L 144.632526 -215.363508 
L 144.052759 -215.65359 
L 143.472991 -216.038015 
L 142.893224 -216.265366 
L 142.313456 -216.584001 
L 141.733689 -217.09851 
L 141.153922 -217.589069 
L 140.574154 -218.041636 
L 139.994387 -218.392931 
L 139.414619 -218.874362 
L 138.834852 -219.090555 
L 138.255085 -219.376775 
L 137.675317 -219.565058 
L 137.09555 -220.035671 
L 136.515782 -220.384646 
L 135.936015 -220.615342 
L 135.356247 -221.096448 
L 134.77648 -221.394124 
L 134.196713 -221.895263 
L 133.616945 -222.139966 
L 133.037178 -222.500894 
L 132.45741 -222.929461 
L 131.877643 -223.288503 
L 131.297876 -223.744399 
L 130.718108 -224.042687 
L 130.138341 -224.442304 
L 129.558573 -224.984709 
L 128.978806 -225.264809 
L 128.399039 -225.567955 
L 127.819271 -225.997073 
L 127.239504 -226.407522 
L 126.659736 -226.817439 
L 126.079969 -227.208475 
L 125.500201 -227.555372 
L 124.920434 -228.026007 
L 124.340667 -228.319791 
L 123.760899 -228.718607 
L 123.181132 -229.101685 
L 122.601364 -229.545276 
L 122.021597 -229.858422 
L 121.44183 -230.164914 
L 120.862062 -230.318138 
L 120.282295 -230.783948 
L 119.702527 -231.257609 
L 119.12276 -231.806667 
L 118.542993 -232.200883 
L 117.963225 -232.519373 
L 117.383458 -232.912552 
L 116.80369 -233.252603 
L 116.223923 -233.638743 
L 115.644155 -234.040406 
L 115.064388 -234.462147 
L 114.484621 -234.919475 
L 113.904853 -235.319649 
L 113.325086 -235.584002 
L 112.745318 -236.040636 
L 112.165551 -236.356674 
L 111.585784 -236.722313 
L 111.006016 -237.236828 
L 110.426249 -237.641057 
L 109.846481 -237.985145 
L 109.266714 -238.61226 
L 108.686947 -239.03408 
L 108.107179 -239.54179 
L 107.527412 -240.101311 
L 106.947644 -240.488293 
L 106.367877 -241.016464 
L 105.78811 -241.469356 
L 105.208342 -241.919717 
L 104.628575 -242.384157 
L 104.048807 -243.127885 
L 103.46904 -244.231089 
z
" id="m8b5df1e442" style="stroke:#ff7f0e;stroke-opacity:0.2;stroke-width:0.39;"/>
    </defs>
    <g clip-path="url(#p698e32393a)">
     <use style="fill:#ff7f0e;fill-opacity:0.2;stroke:#ff7f0e;stroke-opacity:0.2;stroke-width:0.39;" x="0" xlink:href="#m8b5df1e442" y="288"/>
    </g>
   </g>
   <g id="line2d_25">
    <path clip-path="url(#p698e32393a)" d="M 103.46904 43.768911 
L 104.048807 43.900376 
L 109.846481 46.912939 
L 111.585784 47.879555 
L 114.484621 49.374646 
L 117.963225 51.428608 
L 120.282295 52.629083 
L 122.021597 53.67137 
L 123.760899 54.733843 
L 126.079969 55.892185 
L 133.616945 60.26355 
L 134.77648 60.785761 
L 135.936015 61.5511 
L 141.153922 64.224294 
L 142.313456 65.033964 
L 142.893224 65.32801 
L 144.052759 66.085726 
L 146.951596 67.693811 
L 148.111131 68.368705 
L 152.74927 70.890138 
L 153.908805 71.621371 
L 154.488572 72.032244 
L 156.227874 72.773343 
L 156.807642 73.231683 
L 157.387409 73.465283 
L 158.546944 74.150428 
L 160.286246 75.074164 
L 161.445781 75.727044 
L 162.605316 76.402733 
L 169.562525 80.348497 
L 171.881594 81.501776 
L 177.099501 84.393557 
L 177.679268 84.948813 
L 178.838803 85.555959 
L 181.157873 86.939073 
L 182.317408 87.665404 
L 184.636477 88.796713 
L 186.37578 89.812396 
L 186.955547 90.052169 
L 188.115082 90.669497 
L 195.652058 94.932154 
L 196.231826 95.0816 
L 196.811593 95.487218 
L 197.39136 95.642893 
L 199.71043 96.77935 
L 202.609267 97.903514 
L 204.928337 98.874274 
L 207.827174 99.612095 
L 212.465313 100.510194 
L 214.204615 100.658235 
L 214.784383 100.789812 
L 216.523685 100.878244 
L 218.262987 101.053989 
L 220.582057 101.29874 
L 221.741592 101.305723 
L 223.480894 101.338949 
L 225.799964 101.419085 
L 232.177405 101.632219 
L 233.916707 101.630972 
L 237.975079 101.584763 
L 239.134614 101.551624 
L 242.033451 101.731253 
L 251.30973 101.683159 
L 261.745543 101.685232 
L 264.064613 101.70428 
L 266.96345 101.69568 
L 268.702752 101.622479 
L 269.862287 101.732032 
L 271.601589 101.636106 
L 272.761124 101.614482 
L 273.920659 101.648768 
L 279.138565 101.677607 
L 284.936239 101.721445 
L 286.095774 101.654479 
L 298.27089 101.711614 
L 299.430425 101.705032 
L 301.169727 101.710291 
L 306.387634 101.742804 
L 308.706703 101.71428 
L 309.866238 101.648968 
L 311.025773 101.675311 
L 312.765075 101.771571 
L 315.084145 101.775519 
L 317.982982 101.709747 
L 326.679493 101.659436 
L 328.418795 101.713439 
L 334.796237 101.752946 
L 345.811818 101.738642 
L 356.827398 101.807625 
L 357.407166 101.753532 
L 358.566701 101.82035 
L 361.465538 101.75124 
L 363.784607 101.715532 
L 364.944142 101.746314 
L 366.103677 101.788951 
L 381.17763 101.625502 
L 383.496699 101.743692 
L 385.815769 101.75289 
L 388.134839 101.701437 
L 394.51228 101.645929 
L 395.671815 101.713817 
L 400.309954 101.68819 
L 400.309954 101.68819 
" style="fill:none;stroke:#1f77b4;stroke-linecap:round;stroke-width:2.275;"/>
   </g>
   <g id="line2d_26">
    <path clip-path="url(#p698e32393a)" d="M 103.46904 43.768911 
L 104.048807 43.889528 
L 106.947644 45.346201 
L 124.920434 54.742644 
L 126.079969 55.50897 
L 130.718108 58.014656 
L 131.877643 58.591943 
L 133.616945 59.567572 
L 135.356247 60.530989 
L 138.834852 62.315539 
L 151.009968 68.975072 
L 152.74927 69.810817 
L 153.908805 70.568974 
L 155.068339 71.129987 
L 156.227874 71.716961 
L 156.807642 72.132761 
L 157.387409 72.327227 
L 160.286246 73.98888 
L 162.025548 74.811518 
L 163.764851 75.665243 
L 165.504153 76.663709 
L 166.663688 77.266787 
L 168.40299 78.13655 
L 169.562525 78.697807 
L 179.998338 84.391312 
L 180.578106 84.644905 
L 182.317408 85.723747 
L 184.05671 86.686076 
L 184.636477 86.862828 
L 185.796012 87.682855 
L 186.955547 88.35479 
L 187.535314 88.557841 
L 191.593686 90.861964 
L 192.173454 91.133177 
L 193.332989 91.79901 
L 195.072291 92.590851 
L 195.652058 92.9877 
L 197.971128 94.092962 
L 200.869965 95.973635 
L 201.449732 96.198774 
L 202.609267 96.827686 
L 206.087872 98.517458 
L 206.667639 98.979846 
L 207.247406 99.252294 
L 208.406941 100.118786 
L 208.986709 100.278871 
L 211.885546 101.775329 
L 212.465313 102.009572 
L 213.624848 102.812894 
L 214.784383 103.282648 
L 217.103452 104.500106 
L 217.68322 104.947129 
L 221.741592 106.979925 
L 225.220196 109.159817 
L 226.379731 109.784319 
L 228.119033 110.501239 
L 229.278568 111.161521 
L 229.858335 111.286369 
L 230.438103 111.762166 
L 234.496475 113.734548 
L 235.65601 114.297093 
L 237.395312 115.36762 
L 237.975079 115.578768 
L 239.134614 116.410516 
L 242.033451 117.822912 
L 244.352521 118.934114 
L 244.932288 119.47854 
L 249.570427 121.953122 
L 250.150195 122.141413 
L 250.729962 122.54996 
L 251.30973 122.803063 
L 251.889497 123.185024 
L 253.628799 123.984186 
L 255.947869 125.380823 
L 258.846706 126.844741 
L 259.426473 127.203717 
L 260.006241 127.408998 
L 261.165776 128.062461 
L 262.32531 128.615326 
L 262.905078 128.916957 
L 264.064613 129.779759 
L 265.224148 130.28525 
L 267.543217 131.477047 
L 268.122985 131.733226 
L 268.702752 132.157974 
L 271.021822 133.290479 
L 271.601589 133.693634 
L 272.761124 134.240582 
L 273.340891 134.690324 
L 277.399263 136.708419 
L 277.979031 137.22218 
L 279.718333 138.075131 
L 280.877868 138.692124 
L 281.457635 138.914376 
L 283.196937 139.906707 
L 285.516007 140.875401 
L 286.675542 141.696589 
L 288.994611 142.843594 
L 289.574379 143.046632 
L 290.733914 143.760264 
L 291.313681 144.045743 
L 292.473216 144.855222 
L 294.212518 145.78386 
L 294.792285 145.961789 
L 296.531588 147.147877 
L 298.850657 148.145576 
L 299.430425 148.43103 
L 300.010192 148.584027 
L 301.169727 149.383373 
L 303.488797 150.52644 
L 305.807866 151.897312 
L 306.387634 152.044995 
L 307.547169 152.756471 
L 309.866238 154.059549 
L 310.446006 154.556177 
L 311.025773 154.676187 
L 312.185308 155.541692 
L 313.344843 156.152707 
L 313.92461 156.326834 
L 316.24368 157.696499 
L 316.823447 157.908311 
L 317.982982 158.607674 
L 318.562749 158.829514 
L 319.142517 159.413773 
L 319.722284 159.590543 
L 322.621121 161.237428 
L 323.200889 161.645145 
L 323.780656 161.83335 
L 326.679493 163.525729 
L 328.998563 164.660593 
L 330.737865 165.604248 
L 331.317632 166.076421 
L 334.216469 167.539247 
L 334.796237 167.941998 
L 335.376004 168.165902 
L 336.535539 168.734844 
L 338.854609 169.958971 
L 341.173678 171.274929 
L 341.753446 171.429069 
L 342.912981 172.147562 
L 343.492748 172.416429 
L 344.072515 172.541767 
L 347.55112 174.745545 
L 351.029724 176.437039 
L 351.609492 176.612784 
L 352.769027 177.443378 
L 353.928561 177.905369 
L 354.508329 178.419601 
L 356.827398 179.462175 
L 357.407166 179.901229 
L 358.566701 180.364957 
L 359.146468 180.848828 
L 359.726236 180.977571 
L 360.306003 181.396132 
L 360.88577 182.029115 
L 369.582281 186.593138 
L 370.741816 187.632787 
L 371.901351 188.081493 
L 372.481119 188.483927 
L 373.060886 188.689735 
L 374.220421 189.284937 
L 375.379956 189.8478 
L 378.278793 191.568162 
L 378.85856 191.710839 
L 380.018095 192.582837 
L 384.076467 194.987542 
L 386.395536 195.904663 
L 386.975304 196.348352 
L 393.352745 199.462835 
L 393.932513 199.907383 
L 395.092048 200.422307 
L 396.83135 201.423799 
L 397.990885 201.95205 
L 398.570652 202.476955 
L 399.150419 202.724993 
L 400.309954 203.430908 
L 400.309954 203.430908 
" style="fill:none;stroke:#ff7f0e;stroke-linecap:round;stroke-width:2.275;"/>
   </g>
   <g id="patch_3">
    <path d="M 88.626994 231.052 
L 88.626994 34.848 
" style="fill:none;stroke:#999999;stroke-linecap:square;stroke-linejoin:miter;"/>
   </g>
   <g id="patch_4">
    <path d="M 415.152 231.052 
L 415.152 34.848 
" style="fill:none;stroke:#999999;stroke-linecap:square;stroke-linejoin:miter;"/>
   </g>
   <g id="patch_5">
    <path d="M 88.626994 231.052 
L 415.152 231.052 
" style="fill:none;stroke:#999999;stroke-linecap:square;stroke-linejoin:miter;"/>
   </g>
   <g id="patch_6">
    <path d="M 88.626994 34.848 
L 415.152 34.848 
" style="fill:none;stroke:#999999;stroke-linecap:square;stroke-linejoin:miter;"/>
   </g>
   <g id="text_15">
    <!-- Error vs Iteration (Inconsistent Gaussian) -->
    <defs>
     <path d="M 9.8125 72.90625 
L 55.90625 72.90625 
L 55.90625 64.59375 
L 19.671875 64.59375 
L 19.671875 43.015625 
L 54.390625 43.015625 
L 54.390625 34.71875 
L 19.671875 34.71875 
L 19.671875 8.296875 
L 56.78125 8.296875 
L 56.78125 0 
L 9.8125 0 
z
" id="DejaVuSans-45"/>
     <path id="DejaVuSans-20"/>
     <path d="M 2.984375 54.6875 
L 12.5 54.6875 
L 29.59375 8.796875 
L 46.6875 54.6875 
L 56.203125 54.6875 
L 35.6875 0 
L 23.484375 0 
z
" id="DejaVuSans-76"/>
     <path d="M 44.28125 53.078125 
L 44.28125 44.578125 
Q 40.484375 46.53125 36.375 47.5 
Q 32.28125 48.484375 27.875 48.484375 
Q 21.1875 48.484375 17.84375 46.4375 
Q 14.5 44.390625 14.5 40.28125 
Q 14.5 37.15625 16.890625 35.375 
Q 19.28125 33.59375 26.515625 31.984375 
L 29.59375 31.296875 
Q 39.15625 29.25 43.1875 25.515625 
Q 47.21875 21.78125 47.21875 15.09375 
Q 47.21875 7.46875 41.1875 3.015625 
Q 35.15625 -1.421875 24.609375 -1.421875 
Q 20.21875 -1.421875 15.453125 -0.5625 
Q 10.6875 0.296875 5.421875 2 
L 5.421875 11.28125 
Q 10.40625 8.6875 15.234375 7.390625 
Q 20.0625 6.109375 24.8125 6.109375 
Q 31.15625 6.109375 34.5625 8.28125 
Q 37.984375 10.453125 37.984375 14.40625 
Q 37.984375 18.0625 35.515625 20.015625 
Q 33.0625 21.96875 24.703125 23.78125 
L 21.578125 24.515625 
Q 13.234375 26.265625 9.515625 29.90625 
Q 5.8125 33.546875 5.8125 39.890625 
Q 5.8125 47.609375 11.28125 51.796875 
Q 16.75 56 26.8125 56 
Q 31.78125 56 36.171875 55.265625 
Q 40.578125 54.546875 44.28125 53.078125 
z
" id="DejaVuSans-73"/>
     <path d="M 31 75.875 
Q 24.46875 64.65625 21.28125 53.65625 
Q 18.109375 42.671875 18.109375 31.390625 
Q 18.109375 20.125 21.3125 9.0625 
Q 24.515625 -2 31 -13.1875 
L 23.1875 -13.1875 
Q 15.875 -1.703125 12.234375 9.375 
Q 8.59375 20.453125 8.59375 31.390625 
Q 8.59375 42.28125 12.203125 53.3125 
Q 15.828125 64.359375 23.1875 75.875 
z
" id="DejaVuSans-28"/>
     <path d="M 48.78125 52.59375 
L 48.78125 44.1875 
Q 44.96875 46.296875 41.140625 47.34375 
Q 37.3125 48.390625 33.40625 48.390625 
Q 24.65625 48.390625 19.8125 42.84375 
Q 14.984375 37.3125 14.984375 27.296875 
Q 14.984375 17.28125 19.8125 11.734375 
Q 24.65625 6.203125 33.40625 6.203125 
Q 37.3125 6.203125 41.140625 7.25 
Q 44.96875 8.296875 48.78125 10.40625 
L 48.78125 2.09375 
Q 45.015625 0.34375 40.984375 -0.53125 
Q 36.96875 -1.421875 32.421875 -1.421875 
Q 20.0625 -1.421875 12.78125 6.34375 
Q 5.515625 14.109375 5.515625 27.296875 
Q 5.515625 40.671875 12.859375 48.328125 
Q 20.21875 56 33.015625 56 
Q 37.15625 56 41.109375 55.140625 
Q 45.0625 54.296875 48.78125 52.59375 
z
" id="DejaVuSans-63"/>
     <path d="M 59.515625 10.40625 
L 59.515625 29.984375 
L 43.40625 29.984375 
L 43.40625 38.09375 
L 69.28125 38.09375 
L 69.28125 6.78125 
Q 63.578125 2.734375 56.6875 0.65625 
Q 49.8125 -1.421875 42 -1.421875 
Q 24.90625 -1.421875 15.25 8.5625 
Q 5.609375 18.5625 5.609375 36.375 
Q 5.609375 54.25 15.25 64.234375 
Q 24.90625 74.21875 42 74.21875 
Q 49.125 74.21875 55.546875 72.453125 
Q 61.96875 70.703125 67.390625 67.28125 
L 67.390625 56.78125 
Q 61.921875 61.421875 55.765625 63.765625 
Q 49.609375 66.109375 42.828125 66.109375 
Q 29.4375 66.109375 22.71875 58.640625 
Q 16.015625 51.171875 16.015625 36.375 
Q 16.015625 21.625 22.71875 14.15625 
Q 29.4375 6.6875 42.828125 6.6875 
Q 48.046875 6.6875 52.140625 7.59375 
Q 56.25 8.5 59.515625 10.40625 
z
" id="DejaVuSans-47"/>
     <path d="M 8.5 21.578125 
L 8.5 54.6875 
L 17.484375 54.6875 
L 17.484375 21.921875 
Q 17.484375 14.15625 20.5 10.265625 
Q 23.53125 6.390625 29.59375 6.390625 
Q 36.859375 6.390625 41.078125 11.03125 
Q 45.3125 15.671875 45.3125 23.6875 
L 45.3125 54.6875 
L 54.296875 54.6875 
L 54.296875 0 
L 45.3125 0 
L 45.3125 8.40625 
Q 42.046875 3.421875 37.71875 1 
Q 33.40625 -1.421875 27.6875 -1.421875 
Q 18.265625 -1.421875 13.375 4.4375 
Q 8.5 10.296875 8.5 21.578125 
z
M 31.109375 56 
z
" id="DejaVuSans-75"/>
     <path d="M 8.015625 75.875 
L 15.828125 75.875 
Q 23.140625 64.359375 26.78125 53.3125 
Q 30.421875 42.28125 30.421875 31.390625 
Q 30.421875 20.453125 26.78125 9.375 
Q 23.140625 -1.703125 15.828125 -13.1875 
L 8.015625 -13.1875 
Q 14.5 -2 17.703125 9.0625 
Q 20.90625 20.125 20.90625 31.390625 
Q 20.90625 42.671875 17.703125 53.65625 
Q 14.5 64.65625 8.015625 75.875 
z
" id="DejaVuSans-29"/>
    </defs>
    <g style="fill:#262626;" transform="translate(91.620216 28.848)scale(0.156 -0.156)">
     <use xlink:href="#DejaVuSans-45"/>
     <use x="63.183594" xlink:href="#DejaVuSans-72"/>
     <use x="104.28125" xlink:href="#DejaVuSans-72"/>
     <use x="145.363281" xlink:href="#DejaVuSans-6f"/>
     <use x="206.544922" xlink:href="#DejaVuSans-72"/>
     <use x="247.658203" xlink:href="#DejaVuSans-20"/>
     <use x="279.445312" xlink:href="#DejaVuSans-76"/>
     <use x="338.625" xlink:href="#DejaVuSans-73"/>
     <use x="390.724609" xlink:href="#DejaVuSans-20"/>
     <use x="422.511719" xlink:href="#DejaVuSans-49"/>
     <use x="452.003906" xlink:href="#DejaVuSans-74"/>
     <use x="491.212891" xlink:href="#DejaVuSans-65"/>
     <use x="552.736328" xlink:href="#DejaVuSans-72"/>
     <use x="593.849609" xlink:href="#DejaVuSans-61"/>
     <use x="655.128906" xlink:href="#DejaVuSans-74"/>
     <use x="694.337891" xlink:href="#DejaVuSans-69"/>
     <use x="722.121094" xlink:href="#DejaVuSans-6f"/>
     <use x="783.302734" xlink:href="#DejaVuSans-6e"/>
     <use x="846.681641" xlink:href="#DejaVuSans-20"/>
     <use x="878.46875" xlink:href="#DejaVuSans-28"/>
     <use x="917.482422" xlink:href="#DejaVuSans-49"/>
     <use x="946.974609" xlink:href="#DejaVuSans-6e"/>
     <use x="1010.353516" xlink:href="#DejaVuSans-63"/>
     <use x="1065.333984" xlink:href="#DejaVuSans-6f"/>
     <use x="1126.515625" xlink:href="#DejaVuSans-6e"/>
     <use x="1189.894531" xlink:href="#DejaVuSans-73"/>
     <use x="1241.994141" xlink:href="#DejaVuSans-69"/>
     <use x="1269.777344" xlink:href="#DejaVuSans-73"/>
     <use x="1321.876953" xlink:href="#DejaVuSans-74"/>
     <use x="1361.085938" xlink:href="#DejaVuSans-65"/>
     <use x="1422.609375" xlink:href="#DejaVuSans-6e"/>
     <use x="1485.988281" xlink:href="#DejaVuSans-74"/>
     <use x="1525.197266" xlink:href="#DejaVuSans-20"/>
     <use x="1556.984375" xlink:href="#DejaVuSans-47"/>
     <use x="1634.474609" xlink:href="#DejaVuSans-61"/>
     <use x="1695.753906" xlink:href="#DejaVuSans-75"/>
     <use x="1759.132812" xlink:href="#DejaVuSans-73"/>
     <use x="1811.232422" xlink:href="#DejaVuSans-73"/>
     <use x="1863.332031" xlink:href="#DejaVuSans-69"/>
     <use x="1891.115234" xlink:href="#DejaVuSans-61"/>
     <use x="1952.394531" xlink:href="#DejaVuSans-6e"/>
     <use x="2015.773438" xlink:href="#DejaVuSans-29"/>
    </g>
   </g>
   <g id="legend_1">
    <g id="line2d_27">
     <path d="M 315.616687 51.875969 
L 341.616687 51.875969 
" style="fill:none;stroke:#1f77b4;stroke-linecap:round;stroke-width:2.275;"/>
    </g>
    <g id="line2d_28"/>
    <g id="text_16">
     <!-- Vanilla -->
     <defs>
      <path d="M 28.609375 0 
L 0.78125 72.90625 
L 11.078125 72.90625 
L 34.1875 11.53125 
L 57.328125 72.90625 
L 67.578125 72.90625 
L 39.796875 0 
z
" id="DejaVuSans-56"/>
      <path d="M 9.421875 75.984375 
L 18.40625 75.984375 
L 18.40625 0 
L 9.421875 0 
z
" id="DejaVuSans-6c"/>
     </defs>
     <g style="fill:#262626;" transform="translate(352.016687 56.425969)scale(0.13 -0.13)">
      <use xlink:href="#DejaVuSans-56"/>
      <use x="68.298828" xlink:href="#DejaVuSans-61"/>
      <use x="129.578125" xlink:href="#DejaVuSans-6e"/>
      <use x="192.957031" xlink:href="#DejaVuSans-69"/>
      <use x="220.740234" xlink:href="#DejaVuSans-6c"/>
      <use x="248.523438" xlink:href="#DejaVuSans-6c"/>
      <use x="276.306641" xlink:href="#DejaVuSans-61"/>
     </g>
    </g>
    <g id="line2d_29">
     <path d="M 315.616687 70.957531 
L 341.616687 70.957531 
" style="fill:none;stroke:#ff7f0e;stroke-linecap:round;stroke-width:2.275;"/>
    </g>
    <g id="line2d_30"/>
    <g id="text_17">
     <!-- Optimal -->
     <defs>
      <path d="M 39.40625 66.21875 
Q 28.65625 66.21875 22.328125 58.203125 
Q 16.015625 50.203125 16.015625 36.375 
Q 16.015625 22.609375 22.328125 14.59375 
Q 28.65625 6.59375 39.40625 6.59375 
Q 50.140625 6.59375 56.421875 14.59375 
Q 62.703125 22.609375 62.703125 36.375 
Q 62.703125 50.203125 56.421875 58.203125 
Q 50.140625 66.21875 39.40625 66.21875 
z
M 39.40625 74.21875 
Q 54.734375 74.21875 63.90625 63.9375 
Q 73.09375 53.65625 73.09375 36.375 
Q 73.09375 19.140625 63.90625 8.859375 
Q 54.734375 -1.421875 39.40625 -1.421875 
Q 24.03125 -1.421875 14.8125 8.828125 
Q 5.609375 19.09375 5.609375 36.375 
Q 5.609375 53.65625 14.8125 63.9375 
Q 24.03125 74.21875 39.40625 74.21875 
z
" id="DejaVuSans-4f"/>
      <path d="M 18.109375 8.203125 
L 18.109375 -20.796875 
L 9.078125 -20.796875 
L 9.078125 54.6875 
L 18.109375 54.6875 
L 18.109375 46.390625 
Q 20.953125 51.265625 25.265625 53.625 
Q 29.59375 56 35.59375 56 
Q 45.5625 56 51.78125 48.09375 
Q 58.015625 40.1875 58.015625 27.296875 
Q 58.015625 14.40625 51.78125 6.484375 
Q 45.5625 -1.421875 35.59375 -1.421875 
Q 29.59375 -1.421875 25.265625 0.953125 
Q 20.953125 3.328125 18.109375 8.203125 
z
M 48.6875 27.296875 
Q 48.6875 37.203125 44.609375 42.84375 
Q 40.53125 48.484375 33.40625 48.484375 
Q 26.265625 48.484375 22.1875 42.84375 
Q 18.109375 37.203125 18.109375 27.296875 
Q 18.109375 17.390625 22.1875 11.75 
Q 26.265625 6.109375 33.40625 6.109375 
Q 40.53125 6.109375 44.609375 11.75 
Q 48.6875 17.390625 48.6875 27.296875 
z
" id="DejaVuSans-70"/>
      <path d="M 52 44.1875 
Q 55.375 50.25 60.0625 53.125 
Q 64.75 56 71.09375 56 
Q 79.640625 56 84.28125 50.015625 
Q 88.921875 44.046875 88.921875 33.015625 
L 88.921875 0 
L 79.890625 0 
L 79.890625 32.71875 
Q 79.890625 40.578125 77.09375 44.375 
Q 74.3125 48.1875 68.609375 48.1875 
Q 61.625 48.1875 57.5625 43.546875 
Q 53.515625 38.921875 53.515625 30.90625 
L 53.515625 0 
L 44.484375 0 
L 44.484375 32.71875 
Q 44.484375 40.625 41.703125 44.40625 
Q 38.921875 48.1875 33.109375 48.1875 
Q 26.21875 48.1875 22.15625 43.53125 
Q 18.109375 38.875 18.109375 30.90625 
L 18.109375 0 
L 9.078125 0 
L 9.078125 54.6875 
L 18.109375 54.6875 
L 18.109375 46.1875 
Q 21.1875 51.21875 25.484375 53.609375 
Q 29.78125 56 35.6875 56 
Q 41.65625 56 45.828125 52.96875 
Q 50 49.953125 52 44.1875 
z
" id="DejaVuSans-6d"/>
     </defs>
     <g style="fill:#262626;" transform="translate(352.016687 75.507531)scale(0.13 -0.13)">
      <use xlink:href="#DejaVuSans-4f"/>
      <use x="78.710938" xlink:href="#DejaVuSans-70"/>
      <use x="142.1875" xlink:href="#DejaVuSans-74"/>
      <use x="181.396484" xlink:href="#DejaVuSans-69"/>
      <use x="209.179688" xlink:href="#DejaVuSans-6d"/>
      <use x="306.591797" xlink:href="#DejaVuSans-61"/>
      <use x="367.871094" xlink:href="#DejaVuSans-6c"/>
     </g>
    </g>
   </g>
  </g>
 </g>
 <defs>
  <clipPath id="p698e32393a">
   <rect height="196.204" width="326.525006" x="88.626994" y="34.848"/>
  </clipPath>
 </defs>
</svg>
