<?xml version="1.0" encoding="utf-8" standalone="no"?>
<!DOCTYPE svg PUBLIC "-//W3C//DTD SVG 1.1//EN"
  "http://www.w3.org/Graphics/SVG/1.1/DTD/svg11.dtd">
<!-- Created with matplotlib (http://matplotlib.org/) -->
<svg height="288pt" version="1.1" viewBox="0 0 432 288" width="432pt" xmlns="http://www.w3.org/2000/svg" xmlns:xlink="http://www.w3.org/1999/xlink">
 <defs>
  <style type="text/css">
*{stroke-linecap:butt;stroke-linejoin:round;}
  </style>
 </defs>
 <g id="figure_1">
  <g id="patch_1">
   <path d="M 0 288 
L 432 288 
L 432 0 
L 0 0 
z
" style="fill:none;"/>
  </g>
  <g id="axes_1">
   <g id="patch_2">
    <path d="M 88.939494 231.052 
L 415.152 231.052 
L 415.152 34.848 
L 88.939494 34.848 
z
" style="fill:none;"/>
   </g>
   <g id="matplotlib.axis_1">
    <g id="xtick_1">
     <g id="line2d_1">
      <path clip-path="url(#pbfc47c9637)" d="M 103.767335 231.052 
L 103.767335 34.848 
" style="fill:none;stroke:#999999;stroke-linecap:round;stroke-width:1.3;"/>
     </g>
     <g id="line2d_2"/>
     <g id="text_1">
      <!-- 0 -->
      <defs>
       <path d="M 31.78125 66.40625 
Q 24.171875 66.40625 20.328125 58.90625 
Q 16.5 51.421875 16.5 36.375 
Q 16.5 21.390625 20.328125 13.890625 
Q 24.171875 6.390625 31.78125 6.390625 
Q 39.453125 6.390625 43.28125 13.890625 
Q 47.125 21.390625 47.125 36.375 
Q 47.125 51.421875 43.28125 58.90625 
Q 39.453125 66.40625 31.78125 66.40625 
z
M 31.78125 74.21875 
Q 44.046875 74.21875 50.515625 64.515625 
Q 56.984375 54.828125 56.984375 36.375 
Q 56.984375 17.96875 50.515625 8.265625 
Q 44.046875 -1.421875 31.78125 -1.421875 
Q 19.53125 -1.421875 13.0625 8.265625 
Q 6.59375 17.96875 6.59375 36.375 
Q 6.59375 54.828125 13.0625 64.515625 
Q 19.53125 74.21875 31.78125 74.21875 
z
" id="DejaVuSans-30"/>
      </defs>
      <g style="fill:#262626;" transform="translate(99.63171 250.029969)scale(0.13 -0.13)">
       <use xlink:href="#DejaVuSans-30"/>
      </g>
     </g>
    </g>
    <g id="xtick_2">
     <g id="line2d_3">
      <path clip-path="url(#pbfc47c9637)" d="M 161.68859 231.052 
L 161.68859 34.848 
" style="fill:none;stroke:#999999;stroke-linecap:round;stroke-width:1.3;"/>
     </g>
     <g id="line2d_4"/>
     <g id="text_2">
      <!-- 100 -->
      <defs>
       <path d="M 12.40625 8.296875 
L 28.515625 8.296875 
L 28.515625 63.921875 
L 10.984375 60.40625 
L 10.984375 69.390625 
L 28.421875 72.90625 
L 38.28125 72.90625 
L 38.28125 8.296875 
L 54.390625 8.296875 
L 54.390625 0 
L 12.40625 0 
z
" id="DejaVuSans-31"/>
      </defs>
      <g style="fill:#262626;" transform="translate(149.281715 250.029969)scale(0.13 -0.13)">
       <use xlink:href="#DejaVuSans-31"/>
       <use x="63.623047" xlink:href="#DejaVuSans-30"/>
       <use x="127.246094" xlink:href="#DejaVuSans-30"/>
      </g>
     </g>
    </g>
    <g id="xtick_3">
     <g id="line2d_5">
      <path clip-path="url(#pbfc47c9637)" d="M 219.609844 231.052 
L 219.609844 34.848 
" style="fill:none;stroke:#999999;stroke-linecap:round;stroke-width:1.3;"/>
     </g>
     <g id="line2d_6"/>
     <g id="text_3">
      <!-- 200 -->
      <defs>
       <path d="M 19.1875 8.296875 
L 53.609375 8.296875 
L 53.609375 0 
L 7.328125 0 
L 7.328125 8.296875 
Q 12.9375 14.109375 22.625 23.890625 
Q 32.328125 33.6875 34.8125 36.53125 
Q 39.546875 41.84375 41.421875 45.53125 
Q 43.3125 49.21875 43.3125 52.78125 
Q 43.3125 58.59375 39.234375 62.25 
Q 35.15625 65.921875 28.609375 65.921875 
Q 23.96875 65.921875 18.8125 64.3125 
Q 13.671875 62.703125 7.8125 59.421875 
L 7.8125 69.390625 
Q 13.765625 71.78125 18.9375 73 
Q 24.125 74.21875 28.421875 74.21875 
Q 39.75 74.21875 46.484375 68.546875 
Q 53.21875 62.890625 53.21875 53.421875 
Q 53.21875 48.921875 51.53125 44.890625 
Q 49.859375 40.875 45.40625 35.40625 
Q 44.1875 33.984375 37.640625 27.21875 
Q 31.109375 20.453125 19.1875 8.296875 
z
" id="DejaVuSans-32"/>
      </defs>
      <g style="fill:#262626;" transform="translate(207.202969 250.029969)scale(0.13 -0.13)">
       <use xlink:href="#DejaVuSans-32"/>
       <use x="63.623047" xlink:href="#DejaVuSans-30"/>
       <use x="127.246094" xlink:href="#DejaVuSans-30"/>
      </g>
     </g>
    </g>
    <g id="xtick_4">
     <g id="line2d_7">
      <path clip-path="url(#pbfc47c9637)" d="M 277.531099 231.052 
L 277.531099 34.848 
" style="fill:none;stroke:#999999;stroke-linecap:round;stroke-width:1.3;"/>
     </g>
     <g id="line2d_8"/>
     <g id="text_4">
      <!-- 300 -->
      <defs>
       <path d="M 40.578125 39.3125 
Q 47.65625 37.796875 51.625 33 
Q 55.609375 28.21875 55.609375 21.1875 
Q 55.609375 10.40625 48.1875 4.484375 
Q 40.765625 -1.421875 27.09375 -1.421875 
Q 22.515625 -1.421875 17.65625 -0.515625 
Q 12.796875 0.390625 7.625 2.203125 
L 7.625 11.71875 
Q 11.71875 9.328125 16.59375 8.109375 
Q 21.484375 6.890625 26.8125 6.890625 
Q 36.078125 6.890625 40.9375 10.546875 
Q 45.796875 14.203125 45.796875 21.1875 
Q 45.796875 27.640625 41.28125 31.265625 
Q 36.765625 34.90625 28.71875 34.90625 
L 20.21875 34.90625 
L 20.21875 43.015625 
L 29.109375 43.015625 
Q 36.375 43.015625 40.234375 45.921875 
Q 44.09375 48.828125 44.09375 54.296875 
Q 44.09375 59.90625 40.109375 62.90625 
Q 36.140625 65.921875 28.71875 65.921875 
Q 24.65625 65.921875 20.015625 65.03125 
Q 15.375 64.15625 9.8125 62.3125 
L 9.8125 71.09375 
Q 15.4375 72.65625 20.34375 73.4375 
Q 25.25 74.21875 29.59375 74.21875 
Q 40.828125 74.21875 47.359375 69.109375 
Q 53.90625 64.015625 53.90625 55.328125 
Q 53.90625 49.265625 50.4375 45.09375 
Q 46.96875 40.921875 40.578125 39.3125 
z
" id="DejaVuSans-33"/>
      </defs>
      <g style="fill:#262626;" transform="translate(265.124224 250.029969)scale(0.13 -0.13)">
       <use xlink:href="#DejaVuSans-33"/>
       <use x="63.623047" xlink:href="#DejaVuSans-30"/>
       <use x="127.246094" xlink:href="#DejaVuSans-30"/>
      </g>
     </g>
    </g>
    <g id="xtick_5">
     <g id="line2d_9">
      <path clip-path="url(#pbfc47c9637)" d="M 335.452354 231.052 
L 335.452354 34.848 
" style="fill:none;stroke:#999999;stroke-linecap:round;stroke-width:1.3;"/>
     </g>
     <g id="line2d_10"/>
     <g id="text_5">
      <!-- 400 -->
      <defs>
       <path d="M 37.796875 64.3125 
L 12.890625 25.390625 
L 37.796875 25.390625 
z
M 35.203125 72.90625 
L 47.609375 72.90625 
L 47.609375 25.390625 
L 58.015625 25.390625 
L 58.015625 17.1875 
L 47.609375 17.1875 
L 47.609375 0 
L 37.796875 0 
L 37.796875 17.1875 
L 4.890625 17.1875 
L 4.890625 26.703125 
z
" id="DejaVuSans-34"/>
      </defs>
      <g style="fill:#262626;" transform="translate(323.045479 250.029969)scale(0.13 -0.13)">
       <use xlink:href="#DejaVuSans-34"/>
       <use x="63.623047" xlink:href="#DejaVuSans-30"/>
       <use x="127.246094" xlink:href="#DejaVuSans-30"/>
      </g>
     </g>
    </g>
    <g id="xtick_6">
     <g id="line2d_11">
      <path clip-path="url(#pbfc47c9637)" d="M 393.373608 231.052 
L 393.373608 34.848 
" style="fill:none;stroke:#999999;stroke-linecap:round;stroke-width:1.3;"/>
     </g>
     <g id="line2d_12"/>
     <g id="text_6">
      <!-- 500 -->
      <defs>
       <path d="M 10.796875 72.90625 
L 49.515625 72.90625 
L 49.515625 64.59375 
L 19.828125 64.59375 
L 19.828125 46.734375 
Q 21.96875 47.46875 24.109375 47.828125 
Q 26.265625 48.1875 28.421875 48.1875 
Q 40.625 48.1875 47.75 41.5 
Q 54.890625 34.8125 54.890625 23.390625 
Q 54.890625 11.625 47.5625 5.09375 
Q 40.234375 -1.421875 26.90625 -1.421875 
Q 22.3125 -1.421875 17.546875 -0.640625 
Q 12.796875 0.140625 7.71875 1.703125 
L 7.71875 11.625 
Q 12.109375 9.234375 16.796875 8.0625 
Q 21.484375 6.890625 26.703125 6.890625 
Q 35.15625 6.890625 40.078125 11.328125 
Q 45.015625 15.765625 45.015625 23.390625 
Q 45.015625 31 40.078125 35.4375 
Q 35.15625 39.890625 26.703125 39.890625 
Q 22.75 39.890625 18.8125 39.015625 
Q 14.890625 38.140625 10.796875 36.28125 
z
" id="DejaVuSans-35"/>
      </defs>
      <g style="fill:#262626;" transform="translate(380.966733 250.029969)scale(0.13 -0.13)">
       <use xlink:href="#DejaVuSans-35"/>
       <use x="63.623047" xlink:href="#DejaVuSans-30"/>
       <use x="127.246094" xlink:href="#DejaVuSans-30"/>
      </g>
     </g>
    </g>
    <g id="text_7">
     <!-- Iteration -->
     <defs>
      <path d="M 9.8125 72.90625 
L 19.671875 72.90625 
L 19.671875 0 
L 9.8125 0 
z
" id="DejaVuSans-49"/>
      <path d="M 18.3125 70.21875 
L 18.3125 54.6875 
L 36.8125 54.6875 
L 36.8125 47.703125 
L 18.3125 47.703125 
L 18.3125 18.015625 
Q 18.3125 11.328125 20.140625 9.421875 
Q 21.96875 7.515625 27.59375 7.515625 
L 36.8125 7.515625 
L 36.8125 0 
L 27.59375 0 
Q 17.1875 0 13.234375 3.875 
Q 9.28125 7.765625 9.28125 18.015625 
L 9.28125 47.703125 
L 2.6875 47.703125 
L 2.6875 54.6875 
L 9.28125 54.6875 
L 9.28125 70.21875 
z
" id="DejaVuSans-74"/>
      <path d="M 56.203125 29.59375 
L 56.203125 25.203125 
L 14.890625 25.203125 
Q 15.484375 15.921875 20.484375 11.0625 
Q 25.484375 6.203125 34.421875 6.203125 
Q 39.59375 6.203125 44.453125 7.46875 
Q 49.3125 8.734375 54.109375 11.28125 
L 54.109375 2.78125 
Q 49.265625 0.734375 44.1875 -0.34375 
Q 39.109375 -1.421875 33.890625 -1.421875 
Q 20.796875 -1.421875 13.15625 6.1875 
Q 5.515625 13.8125 5.515625 26.8125 
Q 5.515625 40.234375 12.765625 48.109375 
Q 20.015625 56 32.328125 56 
Q 43.359375 56 49.78125 48.890625 
Q 56.203125 41.796875 56.203125 29.59375 
z
M 47.21875 32.234375 
Q 47.125 39.59375 43.09375 43.984375 
Q 39.0625 48.390625 32.421875 48.390625 
Q 24.90625 48.390625 20.390625 44.140625 
Q 15.875 39.890625 15.1875 32.171875 
z
" id="DejaVuSans-65"/>
      <path d="M 41.109375 46.296875 
Q 39.59375 47.171875 37.8125 47.578125 
Q 36.03125 48 33.890625 48 
Q 26.265625 48 22.1875 43.046875 
Q 18.109375 38.09375 18.109375 28.8125 
L 18.109375 0 
L 9.078125 0 
L 9.078125 54.6875 
L 18.109375 54.6875 
L 18.109375 46.1875 
Q 20.953125 51.171875 25.484375 53.578125 
Q 30.03125 56 36.53125 56 
Q 37.453125 56 38.578125 55.875 
Q 39.703125 55.765625 41.0625 55.515625 
z
" id="DejaVuSans-72"/>
      <path d="M 34.28125 27.484375 
Q 23.390625 27.484375 19.1875 25 
Q 14.984375 22.515625 14.984375 16.5 
Q 14.984375 11.71875 18.140625 8.90625 
Q 21.296875 6.109375 26.703125 6.109375 
Q 34.1875 6.109375 38.703125 11.40625 
Q 43.21875 16.703125 43.21875 25.484375 
L 43.21875 27.484375 
z
M 52.203125 31.203125 
L 52.203125 0 
L 43.21875 0 
L 43.21875 8.296875 
Q 40.140625 3.328125 35.546875 0.953125 
Q 30.953125 -1.421875 24.3125 -1.421875 
Q 15.921875 -1.421875 10.953125 3.296875 
Q 6 8.015625 6 15.921875 
Q 6 25.140625 12.171875 29.828125 
Q 18.359375 34.515625 30.609375 34.515625 
L 43.21875 34.515625 
L 43.21875 35.40625 
Q 43.21875 41.609375 39.140625 45 
Q 35.0625 48.390625 27.6875 48.390625 
Q 23 48.390625 18.546875 47.265625 
Q 14.109375 46.140625 10.015625 43.890625 
L 10.015625 52.203125 
Q 14.9375 54.109375 19.578125 55.046875 
Q 24.21875 56 28.609375 56 
Q 40.484375 56 46.34375 49.84375 
Q 52.203125 43.703125 52.203125 31.203125 
z
" id="DejaVuSans-61"/>
      <path d="M 9.421875 54.6875 
L 18.40625 54.6875 
L 18.40625 0 
L 9.421875 0 
z
M 9.421875 75.984375 
L 18.40625 75.984375 
L 18.40625 64.59375 
L 9.421875 64.59375 
z
" id="DejaVuSans-69"/>
      <path d="M 30.609375 48.390625 
Q 23.390625 48.390625 19.1875 42.75 
Q 14.984375 37.109375 14.984375 27.296875 
Q 14.984375 17.484375 19.15625 11.84375 
Q 23.34375 6.203125 30.609375 6.203125 
Q 37.796875 6.203125 41.984375 11.859375 
Q 46.1875 17.53125 46.1875 27.296875 
Q 46.1875 37.015625 41.984375 42.703125 
Q 37.796875 48.390625 30.609375 48.390625 
z
M 30.609375 56 
Q 42.328125 56 49.015625 48.375 
Q 55.71875 40.765625 55.71875 27.296875 
Q 55.71875 13.875 49.015625 6.21875 
Q 42.328125 -1.421875 30.609375 -1.421875 
Q 18.84375 -1.421875 12.171875 6.21875 
Q 5.515625 13.875 5.515625 27.296875 
Q 5.515625 40.765625 12.171875 48.375 
Q 18.84375 56 30.609375 56 
z
" id="DejaVuSans-6f"/>
      <path d="M 54.890625 33.015625 
L 54.890625 0 
L 45.90625 0 
L 45.90625 32.71875 
Q 45.90625 40.484375 42.875 44.328125 
Q 39.84375 48.1875 33.796875 48.1875 
Q 26.515625 48.1875 22.3125 43.546875 
Q 18.109375 38.921875 18.109375 30.90625 
L 18.109375 0 
L 9.078125 0 
L 9.078125 54.6875 
L 18.109375 54.6875 
L 18.109375 46.1875 
Q 21.34375 51.125 25.703125 53.5625 
Q 30.078125 56 35.796875 56 
Q 45.21875 56 50.046875 50.171875 
Q 54.890625 44.34375 54.890625 33.015625 
z
" id="DejaVuSans-6e"/>
     </defs>
     <g style="fill:#262626;" transform="translate(221.717458 267.599328)scale(0.143 -0.143)">
      <use xlink:href="#DejaVuSans-49"/>
      <use x="29.492188" xlink:href="#DejaVuSans-74"/>
      <use x="68.701172" xlink:href="#DejaVuSans-65"/>
      <use x="130.224609" xlink:href="#DejaVuSans-72"/>
      <use x="171.337891" xlink:href="#DejaVuSans-61"/>
      <use x="232.617188" xlink:href="#DejaVuSans-74"/>
      <use x="271.826172" xlink:href="#DejaVuSans-69"/>
      <use x="299.609375" xlink:href="#DejaVuSans-6f"/>
      <use x="360.791016" xlink:href="#DejaVuSans-6e"/>
     </g>
    </g>
   </g>
   <g id="matplotlib.axis_2">
    <g id="ytick_1">
     <g id="line2d_13">
      <path clip-path="url(#pbfc47c9637)" d="M 88.939494 203.772596 
L 415.152 203.772596 
" style="fill:none;stroke:#999999;stroke-linecap:round;stroke-width:1.3;"/>
     </g>
     <g id="line2d_14"/>
     <g id="text_8">
      <!-- $\mathdefault{10^{-17}}$ -->
      <defs>
       <path d="M 10.59375 35.5 
L 73.1875 35.5 
L 73.1875 27.203125 
L 10.59375 27.203125 
z
" id="DejaVuSans-2212"/>
       <path d="M 8.203125 72.90625 
L 55.078125 72.90625 
L 55.078125 68.703125 
L 28.609375 0 
L 18.3125 0 
L 43.21875 64.59375 
L 8.203125 64.59375 
z
" id="DejaVuSans-37"/>
      </defs>
      <g style="fill:#262626;" transform="translate(43.569494 208.71158)scale(0.13 -0.13)">
       <use transform="translate(0 0.684375)" xlink:href="#DejaVuSans-31"/>
       <use transform="translate(63.623047 0.684375)" xlink:href="#DejaVuSans-30"/>
       <use transform="translate(128.203125 38.965625)scale(0.7)" xlink:href="#DejaVuSans-2212"/>
       <use transform="translate(186.855469 38.965625)scale(0.7)" xlink:href="#DejaVuSans-31"/>
       <use transform="translate(231.391602 38.965625)scale(0.7)" xlink:href="#DejaVuSans-37"/>
      </g>
     </g>
    </g>
    <g id="ytick_2">
     <g id="line2d_15">
      <path clip-path="url(#pbfc47c9637)" d="M 88.939494 172.642778 
L 415.152 172.642778 
" style="fill:none;stroke:#999999;stroke-linecap:round;stroke-width:1.3;"/>
     </g>
     <g id="line2d_16"/>
     <g id="text_9">
      <!-- $\mathdefault{10^{-12}}$ -->
      <g style="fill:#262626;" transform="translate(43.569494 177.581763)scale(0.13 -0.13)">
       <use transform="translate(0 0.765625)" xlink:href="#DejaVuSans-31"/>
       <use transform="translate(63.623047 0.765625)" xlink:href="#DejaVuSans-30"/>
       <use transform="translate(128.203125 39.046875)scale(0.7)" xlink:href="#DejaVuSans-2212"/>
       <use transform="translate(186.855469 39.046875)scale(0.7)" xlink:href="#DejaVuSans-31"/>
       <use transform="translate(231.391602 39.046875)scale(0.7)" xlink:href="#DejaVuSans-32"/>
      </g>
     </g>
    </g>
    <g id="ytick_3">
     <g id="line2d_17">
      <path clip-path="url(#pbfc47c9637)" d="M 88.939494 141.512961 
L 415.152 141.512961 
" style="fill:none;stroke:#999999;stroke-linecap:round;stroke-width:1.3;"/>
     </g>
     <g id="line2d_18"/>
     <g id="text_10">
      <!-- $\mathdefault{10^{-7}}$ -->
      <g style="fill:#262626;" transform="translate(49.289494 146.451945)scale(0.13 -0.13)">
       <use transform="translate(0 0.684375)" xlink:href="#DejaVuSans-31"/>
       <use transform="translate(63.623047 0.684375)" xlink:href="#DejaVuSans-30"/>
       <use transform="translate(128.203125 38.965625)scale(0.7)" xlink:href="#DejaVuSans-2212"/>
       <use transform="translate(186.855469 38.965625)scale(0.7)" xlink:href="#DejaVuSans-37"/>
      </g>
     </g>
    </g>
    <g id="ytick_4">
     <g id="line2d_19">
      <path clip-path="url(#pbfc47c9637)" d="M 88.939494 110.383143 
L 415.152 110.383143 
" style="fill:none;stroke:#999999;stroke-linecap:round;stroke-width:1.3;"/>
     </g>
     <g id="line2d_20"/>
     <g id="text_11">
      <!-- $\mathdefault{10^{-2}}$ -->
      <g style="fill:#262626;" transform="translate(49.289494 115.322128)scale(0.13 -0.13)">
       <use transform="translate(0 0.765625)" xlink:href="#DejaVuSans-31"/>
       <use transform="translate(63.623047 0.765625)" xlink:href="#DejaVuSans-30"/>
       <use transform="translate(128.203125 39.046875)scale(0.7)" xlink:href="#DejaVuSans-2212"/>
       <use transform="translate(186.855469 39.046875)scale(0.7)" xlink:href="#DejaVuSans-32"/>
      </g>
     </g>
    </g>
    <g id="ytick_5">
     <g id="line2d_21">
      <path clip-path="url(#pbfc47c9637)" d="M 88.939494 79.253326 
L 415.152 79.253326 
" style="fill:none;stroke:#999999;stroke-linecap:round;stroke-width:1.3;"/>
     </g>
     <g id="line2d_22"/>
     <g id="text_12">
      <!-- $\mathdefault{10^{3}}$ -->
      <g style="fill:#262626;" transform="translate(56.959494 84.19231)scale(0.13 -0.13)">
       <use transform="translate(0 0.765625)" xlink:href="#DejaVuSans-31"/>
       <use transform="translate(63.623047 0.765625)" xlink:href="#DejaVuSans-30"/>
       <use transform="translate(128.203125 39.046875)scale(0.7)" xlink:href="#DejaVuSans-33"/>
      </g>
     </g>
    </g>
    <g id="ytick_6">
     <g id="line2d_23">
      <path clip-path="url(#pbfc47c9637)" d="M 88.939494 48.123509 
L 415.152 48.123509 
" style="fill:none;stroke:#999999;stroke-linecap:round;stroke-width:1.3;"/>
     </g>
     <g id="line2d_24"/>
     <g id="text_13">
      <!-- $\mathdefault{10^{8}}$ -->
      <defs>
       <path d="M 31.78125 34.625 
Q 24.75 34.625 20.71875 30.859375 
Q 16.703125 27.09375 16.703125 20.515625 
Q 16.703125 13.921875 20.71875 10.15625 
Q 24.75 6.390625 31.78125 6.390625 
Q 38.8125 6.390625 42.859375 10.171875 
Q 46.921875 13.96875 46.921875 20.515625 
Q 46.921875 27.09375 42.890625 30.859375 
Q 38.875 34.625 31.78125 34.625 
z
M 21.921875 38.8125 
Q 15.578125 40.375 12.03125 44.71875 
Q 8.5 49.078125 8.5 55.328125 
Q 8.5 64.0625 14.71875 69.140625 
Q 20.953125 74.21875 31.78125 74.21875 
Q 42.671875 74.21875 48.875 69.140625 
Q 55.078125 64.0625 55.078125 55.328125 
Q 55.078125 49.078125 51.53125 44.71875 
Q 48 40.375 41.703125 38.8125 
Q 48.828125 37.15625 52.796875 32.3125 
Q 56.78125 27.484375 56.78125 20.515625 
Q 56.78125 9.90625 50.3125 4.234375 
Q 43.84375 -1.421875 31.78125 -1.421875 
Q 19.734375 -1.421875 13.25 4.234375 
Q 6.78125 9.90625 6.78125 20.515625 
Q 6.78125 27.484375 10.78125 32.3125 
Q 14.796875 37.15625 21.921875 38.8125 
z
M 18.3125 54.390625 
Q 18.3125 48.734375 21.84375 45.5625 
Q 25.390625 42.390625 31.78125 42.390625 
Q 38.140625 42.390625 41.71875 45.5625 
Q 45.3125 48.734375 45.3125 54.390625 
Q 45.3125 60.0625 41.71875 63.234375 
Q 38.140625 66.40625 31.78125 66.40625 
Q 25.390625 66.40625 21.84375 63.234375 
Q 18.3125 60.0625 18.3125 54.390625 
z
" id="DejaVuSans-38"/>
      </defs>
      <g style="fill:#262626;" transform="translate(56.959494 53.062493)scale(0.13 -0.13)">
       <use transform="translate(0 0.765625)" xlink:href="#DejaVuSans-31"/>
       <use transform="translate(63.623047 0.765625)" xlink:href="#DejaVuSans-30"/>
       <use transform="translate(128.203125 39.046875)scale(0.7)" xlink:href="#DejaVuSans-38"/>
      </g>
     </g>
    </g>
    <g id="text_14">
     <!-- $\|\| x_k - x^* \|\|^2$ -->
     <defs>
      <path d="M 21 76.421875 
L 21 -23.578125 
L 12.703125 -23.578125 
L 12.703125 76.421875 
z
" id="DejaVuSans-7c"/>
      <path d="M 60.015625 54.6875 
L 34.90625 27.875 
L 50.296875 0 
L 39.984375 0 
L 28.421875 21.6875 
L 8.296875 0 
L -2.59375 0 
L 24.3125 28.8125 
L 10.015625 54.6875 
L 20.3125 54.6875 
L 30.8125 34.90625 
L 49.125 54.6875 
z
" id="DejaVuSans-Oblique-78"/>
      <path d="M 18.3125 75.984375 
L 27.296875 75.984375 
L 18.703125 31.6875 
L 49.515625 54.6875 
L 61.1875 54.6875 
L 26.8125 28.515625 
L 51.90625 0 
L 41.015625 0 
L 17.671875 26.703125 
L 12.5 0 
L 3.515625 0 
z
" id="DejaVuSans-Oblique-6b"/>
      <path d="M 47.015625 60.890625 
L 29.5 51.421875 
L 47.015625 41.890625 
L 44.1875 37.109375 
L 27.78125 47.015625 
L 27.78125 28.609375 
L 22.21875 28.609375 
L 22.21875 47.015625 
L 5.8125 37.109375 
L 2.984375 41.890625 
L 20.515625 51.421875 
L 2.984375 60.890625 
L 5.8125 65.71875 
L 22.21875 55.8125 
L 22.21875 74.21875 
L 27.78125 74.21875 
L 27.78125 55.8125 
L 44.1875 65.71875 
z
" id="DejaVuSans-2a"/>
     </defs>
     <g style="fill:#262626;" transform="translate(36.137494 171.3455)rotate(-90)scale(0.143 -0.143)">
      <use transform="translate(0 0.765625)" xlink:href="#DejaVuSans-7c"/>
      <use transform="translate(33.691406 0.765625)" xlink:href="#DejaVuSans-7c"/>
      <use transform="translate(67.382812 0.765625)" xlink:href="#DejaVuSans-Oblique-78"/>
      <use transform="translate(126.5625 -15.640625)scale(0.7)" xlink:href="#DejaVuSans-Oblique-6b"/>
      <use transform="translate(189.316406 0.765625)" xlink:href="#DejaVuSans-2212"/>
      <use transform="translate(292.587891 0.765625)" xlink:href="#DejaVuSans-Oblique-78"/>
      <use transform="translate(369.871419 39.046875)scale(0.7)" xlink:href="#DejaVuSans-2a"/>
      <use transform="translate(421.24349 0.765625)" xlink:href="#DejaVuSans-7c"/>
      <use transform="translate(454.934896 0.765625)" xlink:href="#DejaVuSans-7c"/>
      <use transform="translate(489.583333 39.046875)scale(0.7)" xlink:href="#DejaVuSans-32"/>
     </g>
    </g>
   </g>
   <g id="PolyCollection_1">
    <defs>
     <path d="M 103.767335 -244.233636 
L 103.767335 -244.233636 
L 104.346548 -244.232815 
L 104.92576 -244.210391 
L 105.504973 -244.126701 
L 106.084185 -243.991957 
L 106.663398 -243.885334 
L 107.242611 -243.726564 
L 107.821823 -243.605068 
L 108.401036 -243.350769 
L 108.980248 -243.210571 
L 109.559461 -242.965954 
L 110.138673 -242.736587 
L 110.717886 -242.516319 
L 111.297098 -242.31925 
L 111.876311 -242.074006 
L 112.455524 -241.84045 
L 113.034736 -241.648348 
L 113.613949 -241.420348 
L 114.193161 -241.129646 
L 114.772374 -240.973254 
L 115.351586 -240.738444 
L 115.930799 -240.480038 
L 116.510011 -240.188675 
L 117.089224 -239.919541 
L 117.668436 -239.81451 
L 118.247649 -239.591631 
L 118.826862 -239.329463 
L 119.406074 -239.123496 
L 119.985287 -238.854196 
L 120.564499 -238.680964 
L 121.143712 -238.36913 
L 121.722924 -238.03379 
L 122.302137 -237.82107 
L 122.881349 -237.572982 
L 123.460562 -237.257694 
L 124.039774 -237.100446 
L 124.618987 -236.739979 
L 125.1982 -236.558722 
L 125.777412 -236.206638 
L 126.356625 -236.050046 
L 126.935837 -235.851762 
L 127.51505 -235.709778 
L 128.094262 -235.335906 
L 128.673475 -235.00333 
L 129.252687 -234.680807 
L 129.8319 -234.418541 
L 130.411112 -234.163618 
L 130.990325 -233.9949 
L 131.569538 -233.745129 
L 132.14875 -233.438994 
L 132.727963 -233.076242 
L 133.307175 -232.827785 
L 133.886388 -232.473211 
L 134.4656 -232.311779 
L 135.044813 -232.180275 
L 135.624025 -231.938688 
L 136.203238 -231.489833 
L 136.78245 -231.164872 
L 137.361663 -231.015008 
L 137.940876 -230.749851 
L 138.520088 -230.477768 
L 139.099301 -230.141363 
L 139.678513 -229.854823 
L 140.257726 -229.490792 
L 140.836938 -229.262623 
L 141.416151 -228.966322 
L 141.995363 -228.808333 
L 142.574576 -228.495818 
L 143.153788 -228.162733 
L 143.733001 -228.021378 
L 144.312214 -227.531367 
L 144.891426 -227.361425 
L 145.470639 -227.067505 
L 146.049851 -226.816952 
L 146.629064 -226.584146 
L 147.208276 -226.211963 
L 147.787489 -225.782449 
L 148.366701 -225.587634 
L 148.945914 -225.36063 
L 149.525126 -225.15542 
L 150.104339 -224.767642 
L 150.683552 -224.505576 
L 151.262764 -224.330553 
L 151.841977 -223.998478 
L 152.421189 -223.739063 
L 153.000402 -223.557457 
L 153.579614 -223.239229 
L 154.158827 -223.039858 
L 154.738039 -222.83618 
L 155.317252 -222.623553 
L 155.896464 -222.255132 
L 156.475677 -221.941281 
L 157.05489 -221.610515 
L 157.634102 -221.216667 
L 158.213315 -220.912166 
L 158.792527 -220.692691 
L 159.37174 -220.557216 
L 159.950952 -220.246499 
L 160.530165 -219.847642 
L 161.109377 -219.626863 
L 161.68859 -219.393004 
L 162.267802 -219.016217 
L 162.847015 -218.756414 
L 163.426228 -218.428633 
L 164.00544 -218.18649 
L 164.584653 -217.893035 
L 165.163865 -217.53065 
L 165.743078 -217.298741 
L 166.32229 -217.042391 
L 166.901503 -216.846568 
L 167.480715 -216.585585 
L 168.059928 -216.245431 
L 168.63914 -215.977503 
L 169.218353 -215.780429 
L 169.797566 -215.573701 
L 170.376778 -215.188536 
L 170.955991 -215.037898 
L 171.535203 -214.712033 
L 172.114416 -214.279011 
L 172.693628 -214.027444 
L 173.272841 -213.742538 
L 173.852053 -213.478573 
L 174.431266 -213.148178 
L 175.010478 -212.74491 
L 175.589691 -212.453709 
L 176.168904 -212.135497 
L 176.748116 -211.937553 
L 177.327329 -211.72185 
L 177.906541 -211.270888 
L 178.485754 -210.999834 
L 179.064966 -210.724392 
L 179.644179 -210.549521 
L 180.223391 -210.174391 
L 180.802604 -209.937778 
L 181.381816 -209.533843 
L 181.961029 -209.277656 
L 182.540242 -208.929527 
L 183.119454 -208.811681 
L 183.698667 -208.512922 
L 184.277879 -208.218222 
L 184.857092 -207.815654 
L 185.436304 -207.452009 
L 186.015517 -207.195473 
L 186.594729 -206.836875 
L 187.173942 -206.699386 
L 187.753154 -206.441446 
L 188.332367 -206.082804 
L 188.91158 -205.748656 
L 189.490792 -205.456285 
L 190.070005 -205.176266 
L 190.649217 -204.92576 
L 191.22843 -204.821395 
L 191.807642 -204.46993 
L 192.386855 -204.207762 
L 192.966067 -203.999438 
L 193.54528 -203.728917 
L 194.124492 -203.313078 
L 194.703705 -203.023783 
L 195.282918 -202.567098 
L 195.86213 -202.237451 
L 196.441343 -201.950307 
L 197.020555 -201.785434 
L 197.599768 -201.574142 
L 198.17898 -201.293912 
L 198.758193 -201.00017 
L 199.337405 -200.933326 
L 199.916618 -200.32514 
L 200.49583 -200.204301 
L 201.075043 -199.729836 
L 201.654256 -199.437793 
L 202.233468 -199.213773 
L 202.812681 -198.89415 
L 203.391893 -198.625533 
L 203.971106 -198.536445 
L 204.550318 -198.229317 
L 205.129531 -198.184788 
L 205.708743 -197.754032 
L 206.287956 -197.615108 
L 206.867168 -197.331949 
L 207.446381 -197.164967 
L 208.025594 -196.961607 
L 208.604806 -196.414784 
L 209.184019 -196.216264 
L 209.763231 -195.875343 
L 210.342444 -195.658704 
L 210.921656 -195.25444 
L 211.500869 -195.111202 
L 212.080081 -194.887291 
L 212.659294 -194.704036 
L 213.238506 -194.569584 
L 213.817719 -194.274114 
L 214.396932 -194.193672 
L 214.976144 -193.979687 
L 215.555357 -193.80041 
L 216.134569 -193.482499 
L 216.713782 -193.308307 
L 217.292994 -193.157433 
L 217.872207 -193.096554 
L 218.451419 -192.915251 
L 219.030632 -192.855464 
L 219.609844 -192.840971 
L 220.189057 -192.774064 
L 220.76827 -192.649071 
L 221.347482 -192.627658 
L 221.926695 -192.627457 
L 222.505907 -192.615661 
L 223.08512 -192.553857 
L 223.664332 -192.383757 
L 224.243545 -192.347301 
L 224.822757 -192.219348 
L 225.40197 -192.194434 
L 225.981183 -192.138565 
L 226.560395 -192.084196 
L 227.139608 -192.016135 
L 227.71882 -191.995641 
L 228.298033 -192.043048 
L 228.877245 -192.013861 
L 229.456458 -192.061864 
L 230.03567 -191.959359 
L 230.614883 -191.95637 
L 231.194095 -191.922441 
L 231.773308 -191.955573 
L 232.352521 -191.921759 
L 232.931733 -191.959855 
L 233.510946 -191.963029 
L 234.090158 -191.938458 
L 234.669371 -191.951895 
L 235.248583 -191.950561 
L 235.827796 -191.898725 
L 236.407008 -191.933754 
L 236.986221 -191.906159 
L 237.565433 -191.907876 
L 238.144646 -191.928836 
L 238.723859 -191.940585 
L 239.303071 -191.884023 
L 239.882284 -191.938736 
L 240.461496 -191.942469 
L 241.040709 -191.920921 
L 241.619921 -191.877756 
L 242.199134 -191.874733 
L 242.778346 -191.929785 
L 243.357559 -191.850511 
L 243.936771 -191.884734 
L 244.515984 -191.879598 
L 245.095197 -191.822511 
L 245.674409 -191.846856 
L 246.253622 -191.818886 
L 246.832834 -191.791526 
L 247.412047 -191.856415 
L 247.991259 -191.872469 
L 248.570472 -191.846913 
L 249.149684 -191.868226 
L 249.728897 -191.805144 
L 250.308109 -191.919374 
L 250.887322 -191.938871 
L 251.466535 -191.939981 
L 252.045747 -191.950811 
L 252.62496 -191.945639 
L 253.204172 -191.872425 
L 253.783385 -191.772951 
L 254.362597 -191.832043 
L 254.94181 -191.86775 
L 255.521022 -191.801893 
L 256.100235 -191.874144 
L 256.679447 -191.930217 
L 257.25866 -191.905734 
L 257.837873 -191.921495 
L 258.417085 -191.803035 
L 258.996298 -191.804422 
L 259.57551 -191.840751 
L 260.154723 -191.828921 
L 260.733935 -191.855116 
L 261.313148 -191.806434 
L 261.89236 -191.88237 
L 262.471573 -191.914055 
L 263.050785 -191.872135 
L 263.629998 -191.8562 
L 264.209211 -191.827734 
L 264.788423 -191.774842 
L 265.367636 -191.758747 
L 265.946848 -191.827275 
L 266.526061 -191.803735 
L 267.105273 -191.817908 
L 267.684486 -191.789954 
L 268.263698 -191.751164 
L 268.842911 -191.737688 
L 269.422123 -191.842349 
L 270.001336 -191.917059 
L 270.580549 -191.948688 
L 271.159761 -191.811228 
L 271.738974 -191.901358 
L 272.318186 -191.895308 
L 272.897399 -191.891558 
L 273.476611 -191.868231 
L 274.055824 -191.861001 
L 274.635036 -191.883896 
L 275.214249 -191.949047 
L 275.793461 -191.961445 
L 276.372674 -191.834047 
L 276.951887 -191.770141 
L 277.531099 -191.832504 
L 278.110312 -191.846075 
L 278.689524 -191.882373 
L 279.268737 -191.818719 
L 279.847949 -191.785754 
L 280.427162 -191.726484 
L 281.006374 -191.738888 
L 281.585587 -191.800933 
L 282.164799 -191.819918 
L 282.744012 -191.858165 
L 283.323225 -191.873935 
L 283.902437 -191.925641 
L 284.48165 -191.824976 
L 285.060862 -191.87482 
L 285.640075 -191.849848 
L 286.219287 -191.893116 
L 286.7985 -191.916639 
L 287.377712 -191.890872 
L 287.956925 -191.861736 
L 288.536137 -191.897381 
L 289.11535 -191.810538 
L 289.694563 -191.842905 
L 290.273775 -191.769623 
L 290.852988 -191.754402 
L 291.4322 -191.722331 
L 292.011413 -191.773177 
L 292.590625 -191.735809 
L 293.169838 -191.796255 
L 293.74905 -191.657825 
L 294.328263 -191.702278 
L 294.907475 -191.634593 
L 295.486688 -191.67053 
L 296.065901 -191.758895 
L 296.645113 -191.702324 
L 297.224326 -191.728928 
L 297.803538 -191.71506 
L 298.382751 -191.752333 
L 298.961963 -191.749066 
L 299.541176 -191.799096 
L 300.120388 -191.905537 
L 300.699601 -191.877845 
L 301.278813 -191.865306 
L 301.858026 -191.858125 
L 302.437239 -191.884788 
L 303.016451 -191.921589 
L 303.595664 -191.922657 
L 304.174876 -191.885795 
L 304.754089 -191.880439 
L 305.333301 -191.954609 
L 305.912514 -191.911151 
L 306.491726 -191.974313 
L 307.070939 -191.956422 
L 307.650151 -191.831742 
L 308.229364 -191.854243 
L 308.808577 -191.823541 
L 309.387789 -191.874312 
L 309.967002 -191.824515 
L 310.546214 -191.876437 
L 311.125427 -191.917892 
L 311.704639 -191.907631 
L 312.283852 -191.863656 
L 312.863064 -191.846463 
L 313.442277 -191.825402 
L 314.021489 -191.748521 
L 314.600702 -191.792899 
L 315.179915 -191.806302 
L 315.759127 -191.736499 
L 316.33834 -191.796202 
L 316.917552 -191.792474 
L 317.496765 -191.720293 
L 318.075977 -191.804543 
L 318.65519 -191.668359 
L 319.234402 -191.686107 
L 319.813615 -191.776041 
L 320.392827 -191.759419 
L 320.97204 -191.822661 
L 321.551253 -191.691488 
L 322.130465 -191.713892 
L 322.709678 -191.740206 
L 323.28889 -191.788375 
L 323.868103 -191.762058 
L 324.447315 -191.746444 
L 325.026528 -191.825618 
L 325.60574 -191.825386 
L 326.184953 -191.902774 
L 326.764165 -191.911425 
L 327.343378 -191.860066 
L 327.922591 -191.807795 
L 328.501803 -191.87431 
L 329.081016 -191.803502 
L 329.660228 -191.811202 
L 330.239441 -191.737825 
L 330.818653 -191.737139 
L 331.397866 -191.732926 
L 331.977078 -191.824459 
L 332.556291 -191.785209 
L 333.135503 -191.791205 
L 333.714716 -191.825158 
L 334.293929 -191.792803 
L 334.873141 -191.763418 
L 335.452354 -191.770333 
L 336.031566 -191.747589 
L 336.610779 -191.760823 
L 337.189991 -191.703311 
L 337.769204 -191.739875 
L 338.348416 -191.759111 
L 338.927629 -191.742973 
L 339.506842 -191.74348 
L 340.086054 -191.765098 
L 340.665267 -191.702391 
L 341.244479 -191.712708 
L 341.823692 -191.708009 
L 342.402904 -191.801066 
L 342.982117 -191.737662 
L 343.561329 -191.771369 
L 344.140542 -191.762074 
L 344.719754 -191.763674 
L 345.298967 -191.779649 
L 345.87818 -191.946089 
L 346.457392 -191.821078 
L 347.036605 -191.66057 
L 347.615817 -191.734345 
L 348.19503 -191.842836 
L 348.774242 -191.887842 
L 349.353455 -191.802255 
L 349.932667 -191.781888 
L 350.51188 -191.770158 
L 351.091092 -191.761796 
L 351.670305 -191.806974 
L 352.249518 -191.800283 
L 352.82873 -191.746236 
L 353.407943 -191.666093 
L 353.987155 -191.700755 
L 354.566368 -191.727456 
L 355.14558 -191.765516 
L 355.724793 -191.697187 
L 356.304005 -191.715753 
L 356.883218 -191.696126 
L 357.46243 -191.780389 
L 358.041643 -191.732129 
L 358.620856 -191.70339 
L 359.200068 -191.622743 
L 359.779281 -191.65646 
L 360.358493 -191.617587 
L 360.937706 -191.694331 
L 361.516918 -191.756087 
L 362.096131 -191.752187 
L 362.675343 -191.754166 
L 363.254556 -191.742678 
L 363.833768 -191.764877 
L 364.412981 -191.782591 
L 364.992194 -191.768482 
L 365.571406 -191.708942 
L 366.150619 -191.802616 
L 366.729831 -191.754863 
L 367.309044 -191.729525 
L 367.888256 -191.691165 
L 368.467469 -191.74041 
L 369.046681 -191.763939 
L 369.625894 -191.674942 
L 370.205106 -191.744196 
L 370.784319 -191.641368 
L 371.363532 -191.674908 
L 371.942744 -191.672324 
L 372.521957 -191.691158 
L 373.101169 -191.758281 
L 373.680382 -191.877638 
L 374.259594 -191.842719 
L 374.838807 -191.945663 
L 375.418019 -191.903851 
L 375.997232 -191.978608 
L 376.576444 -191.948025 
L 377.155657 -191.978919 
L 377.73487 -191.972273 
L 378.314082 -191.964539 
L 378.893295 -191.965355 
L 379.472507 -192.045886 
L 380.05172 -192.074074 
L 380.630932 -192.062532 
L 381.210145 -192.00033 
L 381.789357 -191.966747 
L 382.36857 -191.960865 
L 382.947782 -191.941977 
L 383.526995 -191.982932 
L 384.106208 -191.840138 
L 384.68542 -191.988304 
L 385.264633 -191.895615 
L 385.843845 -191.898213 
L 386.423058 -191.899206 
L 387.00227 -191.834854 
L 387.581483 -191.881981 
L 388.160695 -191.891806 
L 388.739908 -191.893183 
L 389.31912 -191.883247 
L 389.898333 -191.907336 
L 390.477546 -191.850576 
L 391.056758 -191.878616 
L 391.635971 -191.910786 
L 392.215183 -191.901975 
L 392.794396 -191.900353 
L 393.373608 -191.941882 
L 393.952821 -191.796289 
L 394.532033 -191.828655 
L 395.111246 -191.941857 
L 395.690458 -191.858456 
L 396.269671 -191.845869 
L 396.848884 -191.900587 
L 397.428096 -191.90664 
L 398.007309 -191.88035 
L 398.586521 -191.854157 
L 399.165734 -191.798527 
L 399.744946 -191.809962 
L 400.324159 -191.876573 
L 400.324159 -187.525286 
L 400.324159 -187.525286 
L 399.744946 -187.4915 
L 399.165734 -187.462426 
L 398.586521 -187.499048 
L 398.007309 -187.635641 
L 397.428096 -187.462472 
L 396.848884 -187.375634 
L 396.269671 -187.338019 
L 395.690458 -187.370297 
L 395.111246 -187.454427 
L 394.532033 -187.574511 
L 393.952821 -187.424002 
L 393.373608 -187.307826 
L 392.794396 -187.31572 
L 392.215183 -187.279446 
L 391.635971 -187.356075 
L 391.056758 -187.369577 
L 390.477546 -187.54354 
L 389.898333 -187.541554 
L 389.31912 -187.570264 
L 388.739908 -187.515609 
L 388.160695 -187.56329 
L 387.581483 -187.546577 
L 387.00227 -187.498209 
L 386.423058 -187.519414 
L 385.843845 -187.517849 
L 385.264633 -187.315892 
L 384.68542 -187.327406 
L 384.106208 -187.497244 
L 383.526995 -187.412566 
L 382.947782 -187.323673 
L 382.36857 -187.330081 
L 381.789357 -187.37764 
L 381.210145 -187.288478 
L 380.630932 -187.223762 
L 380.05172 -187.43521 
L 379.472507 -187.420668 
L 378.893295 -187.502367 
L 378.314082 -187.355825 
L 377.73487 -187.326061 
L 377.155657 -187.401848 
L 376.576444 -187.382867 
L 375.997232 -187.373247 
L 375.418019 -187.505173 
L 374.838807 -187.444336 
L 374.259594 -187.418252 
L 373.680382 -187.484021 
L 373.101169 -187.431744 
L 372.521957 -187.365181 
L 371.942744 -187.476734 
L 371.363532 -187.394609 
L 370.784319 -187.384427 
L 370.205106 -187.322588 
L 369.625894 -187.396375 
L 369.046681 -187.331002 
L 368.467469 -187.302705 
L 367.888256 -187.404851 
L 367.309044 -187.51957 
L 366.729831 -187.5242 
L 366.150619 -187.380114 
L 365.571406 -187.362443 
L 364.992194 -187.396891 
L 364.412981 -187.476318 
L 363.833768 -187.370336 
L 363.254556 -187.305342 
L 362.675343 -187.30887 
L 362.096131 -187.363115 
L 361.516918 -187.19337 
L 360.937706 -187.421851 
L 360.358493 -187.324398 
L 359.779281 -187.270865 
L 359.200068 -187.29534 
L 358.620856 -187.364361 
L 358.041643 -187.178985 
L 357.46243 -187.075639 
L 356.883218 -187.143854 
L 356.304005 -187.300976 
L 355.724793 -187.23449 
L 355.14558 -187.394015 
L 354.566368 -187.406939 
L 353.987155 -187.530189 
L 353.407943 -187.393898 
L 352.82873 -187.425242 
L 352.249518 -187.477744 
L 351.670305 -187.415508 
L 351.091092 -187.448587 
L 350.51188 -187.497991 
L 349.932667 -187.575149 
L 349.353455 -187.555844 
L 348.774242 -187.529013 
L 348.19503 -187.50322 
L 347.615817 -187.427285 
L 347.036605 -187.265069 
L 346.457392 -187.524129 
L 345.87818 -187.543392 
L 345.298967 -187.398899 
L 344.719754 -187.43269 
L 344.140542 -187.36529 
L 343.561329 -187.407997 
L 342.982117 -187.565319 
L 342.402904 -187.62563 
L 341.823692 -187.50885 
L 341.244479 -187.519571 
L 340.665267 -187.481507 
L 340.086054 -187.516861 
L 339.506842 -187.612417 
L 338.927629 -187.435355 
L 338.348416 -187.477241 
L 337.769204 -187.584965 
L 337.189991 -187.651019 
L 336.610779 -187.600851 
L 336.031566 -187.492241 
L 335.452354 -187.607304 
L 334.873141 -187.580574 
L 334.293929 -187.671989 
L 333.714716 -187.62743 
L 333.135503 -187.571112 
L 332.556291 -187.60033 
L 331.977078 -187.590466 
L 331.397866 -187.414784 
L 330.818653 -187.516031 
L 330.239441 -187.561534 
L 329.660228 -187.511946 
L 329.081016 -187.448171 
L 328.501803 -187.391712 
L 327.922591 -187.408966 
L 327.343378 -187.521976 
L 326.764165 -187.525327 
L 326.184953 -187.597402 
L 325.60574 -187.418955 
L 325.026528 -187.499365 
L 324.447315 -187.551166 
L 323.868103 -187.553735 
L 323.28889 -187.571377 
L 322.709678 -187.579133 
L 322.130465 -187.384901 
L 321.551253 -187.472754 
L 320.97204 -187.408725 
L 320.392827 -187.409117 
L 319.813615 -187.334411 
L 319.234402 -187.258896 
L 318.65519 -187.269048 
L 318.075977 -187.267993 
L 317.496765 -187.277921 
L 316.917552 -187.338655 
L 316.33834 -187.345835 
L 315.759127 -187.35527 
L 315.179915 -187.376475 
L 314.600702 -187.446534 
L 314.021489 -187.535219 
L 313.442277 -187.44282 
L 312.863064 -187.463013 
L 312.283852 -187.501139 
L 311.704639 -187.555659 
L 311.125427 -187.564891 
L 310.546214 -187.566515 
L 309.967002 -187.574116 
L 309.387789 -187.380809 
L 308.808577 -187.46372 
L 308.229364 -187.342859 
L 307.650151 -187.347701 
L 307.070939 -187.260225 
L 306.491726 -187.39545 
L 305.912514 -187.55475 
L 305.333301 -187.702759 
L 304.754089 -187.653195 
L 304.174876 -187.589415 
L 303.595664 -187.439871 
L 303.016451 -187.414476 
L 302.437239 -187.442137 
L 301.858026 -187.508612 
L 301.278813 -187.479422 
L 300.699601 -187.5541 
L 300.120388 -187.546466 
L 299.541176 -187.597524 
L 298.961963 -187.534376 
L 298.382751 -187.565398 
L 297.803538 -187.495985 
L 297.224326 -187.519362 
L 296.645113 -187.398516 
L 296.065901 -187.330247 
L 295.486688 -187.245942 
L 294.907475 -187.218635 
L 294.328263 -187.400672 
L 293.74905 -187.39346 
L 293.169838 -187.422702 
L 292.590625 -187.428698 
L 292.011413 -187.330944 
L 291.4322 -187.343369 
L 290.852988 -187.428913 
L 290.273775 -187.512179 
L 289.694563 -187.470922 
L 289.11535 -187.521256 
L 288.536137 -187.530344 
L 287.956925 -187.428194 
L 287.377712 -187.430573 
L 286.7985 -187.526073 
L 286.219287 -187.49465 
L 285.640075 -187.40973 
L 285.060862 -187.384902 
L 284.48165 -187.44966 
L 283.902437 -187.472524 
L 283.323225 -187.433314 
L 282.744012 -187.347445 
L 282.164799 -187.375074 
L 281.585587 -187.418097 
L 281.006374 -187.259541 
L 280.427162 -187.309148 
L 279.847949 -187.396125 
L 279.268737 -187.357877 
L 278.689524 -187.50667 
L 278.110312 -187.547299 
L 277.531099 -187.339925 
L 276.951887 -187.415765 
L 276.372674 -187.525293 
L 275.793461 -187.529175 
L 275.214249 -187.503273 
L 274.635036 -187.448511 
L 274.055824 -187.454519 
L 273.476611 -187.445109 
L 272.897399 -187.582348 
L 272.318186 -187.685682 
L 271.738974 -187.556397 
L 271.159761 -187.574483 
L 270.580549 -187.607453 
L 270.001336 -187.609016 
L 269.422123 -187.416452 
L 268.842911 -187.386787 
L 268.263698 -187.37642 
L 267.684486 -187.469606 
L 267.105273 -187.541309 
L 266.526061 -187.607803 
L 265.946848 -187.545084 
L 265.367636 -187.526022 
L 264.788423 -187.379876 
L 264.209211 -187.402214 
L 263.629998 -187.434534 
L 263.050785 -187.446197 
L 262.471573 -187.470945 
L 261.89236 -187.465225 
L 261.313148 -187.504942 
L 260.733935 -187.500752 
L 260.154723 -187.468231 
L 259.57551 -187.456143 
L 258.996298 -187.39879 
L 258.417085 -187.407894 
L 257.837873 -187.365963 
L 257.25866 -187.443541 
L 256.679447 -187.433955 
L 256.100235 -187.393775 
L 255.521022 -187.50853 
L 254.94181 -187.500796 
L 254.362597 -187.548397 
L 253.783385 -187.520812 
L 253.204172 -187.480492 
L 252.62496 -187.331388 
L 252.045747 -187.288702 
L 251.466535 -187.457691 
L 250.887322 -187.369878 
L 250.308109 -187.323109 
L 249.728897 -187.315539 
L 249.149684 -187.381032 
L 248.570472 -187.3275 
L 247.991259 -187.274228 
L 247.412047 -187.367975 
L 246.832834 -187.347585 
L 246.253622 -187.381085 
L 245.674409 -187.373157 
L 245.095197 -187.559231 
L 244.515984 -187.375205 
L 243.936771 -187.544804 
L 243.357559 -187.554067 
L 242.778346 -187.397909 
L 242.199134 -187.511857 
L 241.619921 -187.309326 
L 241.040709 -187.356239 
L 240.461496 -187.447163 
L 239.882284 -187.396894 
L 239.303071 -187.402605 
L 238.723859 -187.444049 
L 238.144646 -187.361213 
L 237.565433 -187.476585 
L 236.986221 -187.496187 
L 236.407008 -187.574537 
L 235.827796 -187.599771 
L 235.248583 -187.630903 
L 234.669371 -187.656065 
L 234.090158 -187.765292 
L 233.510946 -187.681325 
L 232.931733 -187.715892 
L 232.352521 -187.724685 
L 231.773308 -187.649358 
L 231.194095 -187.619012 
L 230.614883 -187.588577 
L 230.03567 -187.488618 
L 229.456458 -187.423872 
L 228.877245 -187.470899 
L 228.298033 -187.439346 
L 227.71882 -187.544146 
L 227.139608 -187.559015 
L 226.560395 -187.776908 
L 225.981183 -187.690643 
L 225.40197 -187.758295 
L 224.822757 -187.769154 
L 224.243545 -187.707861 
L 223.664332 -187.781351 
L 223.08512 -187.715303 
L 222.505907 -187.763661 
L 221.926695 -187.814871 
L 221.347482 -187.679408 
L 220.76827 -187.711677 
L 220.189057 -187.727518 
L 219.609844 -187.618643 
L 219.030632 -187.685167 
L 218.451419 -187.586364 
L 217.872207 -187.711274 
L 217.292994 -187.710738 
L 216.713782 -187.724587 
L 216.134569 -187.786587 
L 215.555357 -187.727024 
L 214.976144 -187.876851 
L 214.396932 -187.896742 
L 213.817719 -187.888616 
L 213.238506 -187.896007 
L 212.659294 -187.87961 
L 212.080081 -187.76993 
L 211.500869 -187.837951 
L 210.921656 -187.876498 
L 210.342444 -187.855291 
L 209.763231 -187.922289 
L 209.184019 -187.962855 
L 208.604806 -188.122425 
L 208.025594 -188.146122 
L 207.446381 -188.231496 
L 206.867168 -188.140077 
L 206.287956 -188.342317 
L 205.708743 -188.34594 
L 205.129531 -188.402083 
L 204.550318 -188.431481 
L 203.971106 -188.486477 
L 203.391893 -188.478999 
L 202.812681 -188.549455 
L 202.233468 -188.59732 
L 201.654256 -188.624675 
L 201.075043 -188.845902 
L 200.49583 -188.826066 
L 199.916618 -188.890392 
L 199.337405 -189.018286 
L 198.758193 -189.147149 
L 198.17898 -189.179059 
L 197.599768 -189.231656 
L 197.020555 -189.302602 
L 196.441343 -189.289544 
L 195.86213 -189.161178 
L 195.282918 -189.478713 
L 194.703705 -189.410759 
L 194.124492 -189.609597 
L 193.54528 -189.633572 
L 192.966067 -189.699117 
L 192.386855 -189.762301 
L 191.807642 -189.755508 
L 191.22843 -190.0072 
L 190.649217 -190.087155 
L 190.070005 -190.204919 
L 189.490792 -190.558929 
L 188.91158 -190.633859 
L 188.332367 -190.704695 
L 187.753154 -190.782619 
L 187.173942 -190.898844 
L 186.594729 -191.034693 
L 186.015517 -191.070094 
L 185.436304 -191.457327 
L 184.857092 -191.652317 
L 184.277879 -191.961167 
L 183.698667 -192.366728 
L 183.119454 -192.650952 
L 182.540242 -192.837937 
L 181.961029 -193.116543 
L 181.381816 -193.375595 
L 180.802604 -193.52399 
L 180.223391 -193.753328 
L 179.644179 -194.08575 
L 179.064966 -194.334692 
L 178.485754 -194.453755 
L 177.906541 -194.848235 
L 177.327329 -194.972387 
L 176.748116 -195.257383 
L 176.168904 -195.654527 
L 175.589691 -196.195521 
L 175.010478 -196.650377 
L 174.431266 -196.852552 
L 173.852053 -197.216954 
L 173.272841 -197.874264 
L 172.693628 -197.986124 
L 172.114416 -198.246943 
L 171.535203 -198.410913 
L 170.955991 -198.893203 
L 170.376778 -199.217301 
L 169.797566 -199.743407 
L 169.218353 -200.134071 
L 168.63914 -200.386636 
L 168.059928 -200.723742 
L 167.480715 -201.364995 
L 166.901503 -201.730198 
L 166.32229 -202.100434 
L 165.743078 -202.417337 
L 165.163865 -202.601034 
L 164.584653 -202.924255 
L 164.00544 -203.055634 
L 163.426228 -203.526443 
L 162.847015 -203.834222 
L 162.267802 -204.115392 
L 161.68859 -204.519264 
L 161.109377 -205.054177 
L 160.530165 -205.460044 
L 159.950952 -205.89884 
L 159.37174 -206.119404 
L 158.792527 -206.284336 
L 158.213315 -206.622939 
L 157.634102 -206.906002 
L 157.05489 -207.375603 
L 156.475677 -207.662192 
L 155.896464 -208.211804 
L 155.317252 -208.622772 
L 154.738039 -208.908487 
L 154.158827 -209.219351 
L 153.579614 -209.808629 
L 153.000402 -210.045705 
L 152.421189 -210.332309 
L 151.841977 -210.552334 
L 151.262764 -210.885638 
L 150.683552 -211.142535 
L 150.104339 -211.398658 
L 149.525126 -211.897366 
L 148.945914 -212.153328 
L 148.366701 -212.545904 
L 147.787489 -212.93746 
L 147.208276 -213.426466 
L 146.629064 -213.743541 
L 146.049851 -214.356921 
L 145.470639 -214.761538 
L 144.891426 -215.027396 
L 144.312214 -215.440095 
L 143.733001 -215.620676 
L 143.153788 -216.141492 
L 142.574576 -216.613051 
L 141.995363 -216.892141 
L 141.416151 -217.36361 
L 140.836938 -217.650617 
L 140.257726 -218.043633 
L 139.678513 -218.377868 
L 139.099301 -218.576917 
L 138.520088 -219.131985 
L 137.940876 -219.408281 
L 137.361663 -219.658078 
L 136.78245 -219.959819 
L 136.203238 -220.111323 
L 135.624025 -220.676488 
L 135.044813 -220.952632 
L 134.4656 -221.526801 
L 133.886388 -221.798757 
L 133.307175 -222.138808 
L 132.727963 -222.534972 
L 132.14875 -222.768344 
L 131.569538 -223.160802 
L 130.990325 -223.593269 
L 130.411112 -224.030314 
L 129.8319 -224.465041 
L 129.252687 -224.8678 
L 128.673475 -225.339101 
L 128.094262 -225.741864 
L 127.51505 -226.05678 
L 126.935837 -226.373266 
L 126.356625 -226.764599 
L 125.777412 -227.21194 
L 125.1982 -227.549825 
L 124.618987 -227.865603 
L 124.039774 -228.375501 
L 123.460562 -228.837186 
L 122.881349 -229.09231 
L 122.302137 -229.548059 
L 121.722924 -229.879083 
L 121.143712 -230.36973 
L 120.564499 -230.78777 
L 119.985287 -231.106421 
L 119.406074 -231.551032 
L 118.826862 -231.786763 
L 118.247649 -232.355279 
L 117.668436 -232.678552 
L 117.089224 -232.975448 
L 116.510011 -233.56881 
L 115.930799 -234.003399 
L 115.351586 -234.294259 
L 114.772374 -234.66071 
L 114.193161 -235.020228 
L 113.613949 -235.344392 
L 113.034736 -235.783534 
L 112.455524 -236.353702 
L 111.876311 -236.711463 
L 111.297098 -237.175722 
L 110.717886 -237.589975 
L 110.138673 -238.039784 
L 109.559461 -238.484577 
L 108.980248 -238.91012 
L 108.401036 -239.493038 
L 107.821823 -239.831817 
L 107.242611 -240.244079 
L 106.663398 -240.540188 
L 106.084185 -241.179311 
L 105.504973 -241.710732 
L 104.92576 -242.302156 
L 104.346548 -243.057377 
L 103.767335 -244.233636 
z
" id="m39a384863c" style="stroke:#1f77b4;stroke-opacity:0.2;stroke-width:0.39;"/>
    </defs>
    <g clip-path="url(#pbfc47c9637)">
     <use style="fill:#1f77b4;fill-opacity:0.2;stroke:#1f77b4;stroke-opacity:0.2;stroke-width:0.39;" x="0" xlink:href="#m39a384863c" y="288"/>
    </g>
   </g>
   <g id="PolyCollection_2">
    <defs>
     <path d="M 103.767335 -244.233636 
L 103.767335 -244.233636 
L 104.346548 -244.232855 
L 104.92576 -244.200528 
L 105.504973 -244.1249 
L 106.084185 -244.007228 
L 106.663398 -243.876992 
L 107.242611 -243.701005 
L 107.821823 -243.552972 
L 108.401036 -243.341718 
L 108.980248 -243.225419 
L 109.559461 -242.993235 
L 110.138673 -242.839857 
L 110.717886 -242.650504 
L 111.297098 -242.360535 
L 111.876311 -242.142811 
L 112.455524 -241.997867 
L 113.034736 -241.72479 
L 113.613949 -241.515924 
L 114.193161 -241.257465 
L 114.772374 -241.128475 
L 115.351586 -240.855719 
L 115.930799 -240.582778 
L 116.510011 -240.265024 
L 117.089224 -240.054554 
L 117.668436 -239.940967 
L 118.247649 -239.722669 
L 118.826862 -239.429397 
L 119.406074 -239.245025 
L 119.985287 -238.885488 
L 120.564499 -238.558553 
L 121.143712 -238.322838 
L 121.722924 -238.01139 
L 122.302137 -237.834673 
L 122.881349 -237.588155 
L 123.460562 -237.262866 
L 124.039774 -237.019427 
L 124.618987 -236.858092 
L 125.1982 -236.487489 
L 125.777412 -236.198428 
L 126.356625 -236.014769 
L 126.935837 -235.747796 
L 127.51505 -235.376644 
L 128.094262 -235.152489 
L 128.673475 -234.864485 
L 129.252687 -234.741477 
L 129.8319 -234.367133 
L 130.411112 -234.035353 
L 130.990325 -233.87156 
L 131.569538 -233.648961 
L 132.14875 -233.3806 
L 132.727963 -232.9804 
L 133.307175 -232.802902 
L 133.886388 -232.401737 
L 134.4656 -232.250676 
L 135.044813 -232.002316 
L 135.624025 -231.747356 
L 136.203238 -231.48707 
L 136.78245 -231.167492 
L 137.361663 -230.999217 
L 137.940876 -230.673037 
L 138.520088 -230.461067 
L 139.099301 -230.057339 
L 139.678513 -229.855411 
L 140.257726 -229.636464 
L 140.836938 -229.326682 
L 141.416151 -229.026289 
L 141.995363 -228.793598 
L 142.574576 -228.516154 
L 143.153788 -228.25998 
L 143.733001 -227.845723 
L 144.312214 -227.632929 
L 144.891426 -227.283044 
L 145.470639 -226.949071 
L 146.049851 -226.667722 
L 146.629064 -226.522376 
L 147.208276 -226.316444 
L 147.787489 -226.126903 
L 148.366701 -225.716385 
L 148.945914 -225.547798 
L 149.525126 -225.225813 
L 150.104339 -224.990764 
L 150.683552 -224.867258 
L 151.262764 -224.40205 
L 151.841977 -224.241983 
L 152.421189 -223.797885 
L 153.000402 -223.57194 
L 153.579614 -223.301296 
L 154.158827 -223.151474 
L 154.738039 -222.921779 
L 155.317252 -222.706983 
L 155.896464 -222.404198 
L 156.475677 -222.133556 
L 157.05489 -221.768783 
L 157.634102 -221.444007 
L 158.213315 -221.123561 
L 158.792527 -220.990638 
L 159.37174 -220.716979 
L 159.950952 -220.331878 
L 160.530165 -219.853615 
L 161.109377 -219.602867 
L 161.68859 -219.218936 
L 162.267802 -219.033279 
L 162.847015 -218.755943 
L 163.426228 -218.511578 
L 164.00544 -218.158385 
L 164.584653 -217.816825 
L 165.163865 -217.553366 
L 165.743078 -217.222525 
L 166.32229 -217.036433 
L 166.901503 -216.59331 
L 167.480715 -216.44232 
L 168.059928 -216.070297 
L 168.63914 -215.776575 
L 169.218353 -215.540894 
L 169.797566 -215.203479 
L 170.376778 -214.996275 
L 170.955991 -214.694139 
L 171.535203 -214.312197 
L 172.114416 -214.19401 
L 172.693628 -214.093027 
L 173.272841 -213.528976 
L 173.852053 -213.284357 
L 174.431266 -213.079736 
L 175.010478 -212.855462 
L 175.589691 -212.663409 
L 176.168904 -212.320837 
L 176.748116 -212.07866 
L 177.327329 -211.661941 
L 177.906541 -211.539202 
L 178.485754 -211.117817 
L 179.064966 -210.869435 
L 179.644179 -210.609316 
L 180.223391 -210.345843 
L 180.802604 -209.986051 
L 181.381816 -209.772317 
L 181.961029 -209.39087 
L 182.540242 -209.288213 
L 183.119454 -209.120557 
L 183.698667 -208.947832 
L 184.277879 -208.75761 
L 184.857092 -208.397114 
L 185.436304 -208.006669 
L 186.015517 -207.894871 
L 186.594729 -207.706539 
L 187.173942 -207.202408 
L 187.753154 -206.993988 
L 188.332367 -206.821117 
L 188.91158 -206.508011 
L 189.490792 -206.113774 
L 190.070005 -205.829846 
L 190.649217 -205.454833 
L 191.22843 -205.216976 
L 191.807642 -204.782252 
L 192.386855 -204.552589 
L 192.966067 -204.356679 
L 193.54528 -204.052775 
L 194.124492 -203.776077 
L 194.703705 -203.401603 
L 195.282918 -203.171876 
L 195.86213 -202.945169 
L 196.441343 -202.603917 
L 197.020555 -202.242883 
L 197.599768 -201.900027 
L 198.17898 -201.697611 
L 198.758193 -201.426514 
L 199.337405 -200.979289 
L 199.916618 -200.628039 
L 200.49583 -200.196051 
L 201.075043 -199.928904 
L 201.654256 -199.831611 
L 202.233468 -199.404999 
L 202.812681 -199.21496 
L 203.391893 -198.928255 
L 203.971106 -198.589196 
L 204.550318 -198.483443 
L 205.129531 -198.116377 
L 205.708743 -197.730107 
L 206.287956 -197.508054 
L 206.867168 -197.03414 
L 207.446381 -196.763095 
L 208.025594 -196.531231 
L 208.604806 -196.063131 
L 209.184019 -196.017872 
L 209.763231 -195.884684 
L 210.342444 -195.620706 
L 210.921656 -195.136943 
L 211.500869 -194.912316 
L 212.080081 -194.541315 
L 212.659294 -194.348321 
L 213.238506 -194.016986 
L 213.817719 -193.893362 
L 214.396932 -193.639101 
L 214.976144 -193.351395 
L 215.555357 -193.059555 
L 216.134569 -192.831229 
L 216.713782 -192.398228 
L 217.292994 -192.272867 
L 217.872207 -191.743036 
L 218.451419 -191.648992 
L 219.030632 -191.284143 
L 219.609844 -191.054539 
L 220.189057 -190.668453 
L 220.76827 -190.306034 
L 221.347482 -190.288813 
L 221.926695 -189.958968 
L 222.505907 -189.656551 
L 223.08512 -189.517477 
L 223.664332 -189.223747 
L 224.243545 -188.929267 
L 224.822757 -188.630964 
L 225.40197 -188.010404 
L 225.981183 -187.85515 
L 226.560395 -187.544203 
L 227.139608 -187.303234 
L 227.71882 -186.961222 
L 228.298033 -186.561935 
L 228.877245 -186.237216 
L 229.456458 -186.135977 
L 230.03567 -185.670303 
L 230.614883 -185.366072 
L 231.194095 -185.067929 
L 231.773308 -184.897857 
L 232.352521 -184.753095 
L 232.931733 -183.960632 
L 233.510946 -183.751569 
L 234.090158 -183.442118 
L 234.669371 -183.290253 
L 235.248583 -182.961723 
L 235.827796 -182.604425 
L 236.407008 -182.380084 
L 236.986221 -182.153164 
L 237.565433 -181.787639 
L 238.144646 -181.462809 
L 238.723859 -181.287981 
L 239.303071 -181.009627 
L 239.882284 -180.84846 
L 240.461496 -180.632621 
L 241.040709 -180.387019 
L 241.619921 -179.990784 
L 242.199134 -179.526968 
L 242.778346 -179.184027 
L 243.357559 -178.906318 
L 243.936771 -178.731745 
L 244.515984 -178.579329 
L 245.095197 -178.194704 
L 245.674409 -178.032936 
L 246.253622 -177.729603 
L 246.832834 -177.20967 
L 247.412047 -176.874869 
L 247.991259 -176.563378 
L 248.570472 -176.230013 
L 249.149684 -175.974069 
L 249.728897 -175.946927 
L 250.308109 -175.453854 
L 250.887322 -175.268874 
L 251.466535 -174.919067 
L 252.045747 -174.824033 
L 252.62496 -174.342066 
L 253.204172 -173.89907 
L 253.783385 -173.544828 
L 254.362597 -173.263305 
L 254.94181 -173.096947 
L 255.521022 -172.857051 
L 256.100235 -172.650804 
L 256.679447 -172.249421 
L 257.25866 -171.974691 
L 257.837873 -171.8726 
L 258.417085 -171.635646 
L 258.996298 -171.384115 
L 259.57551 -170.923207 
L 260.154723 -170.851403 
L 260.733935 -170.470634 
L 261.313148 -170.106218 
L 261.89236 -169.809973 
L 262.471573 -169.732543 
L 263.050785 -169.425734 
L 263.629998 -169.165756 
L 264.209211 -168.804825 
L 264.788423 -168.592413 
L 265.367636 -168.078113 
L 265.946848 -167.933596 
L 266.526061 -167.707496 
L 267.105273 -167.293953 
L 267.684486 -167.052996 
L 268.263698 -166.864263 
L 268.842911 -166.497895 
L 269.422123 -166.136774 
L 270.001336 -165.720573 
L 270.580549 -165.515274 
L 271.159761 -165.082039 
L 271.738974 -164.839123 
L 272.318186 -164.45482 
L 272.897399 -164.019184 
L 273.476611 -163.967559 
L 274.055824 -163.407561 
L 274.635036 -163.145332 
L 275.214249 -162.896721 
L 275.793461 -162.731611 
L 276.372674 -162.496625 
L 276.951887 -162.287767 
L 277.531099 -162.0575 
L 278.110312 -161.855305 
L 278.689524 -161.510861 
L 279.268737 -161.250639 
L 279.847949 -161.034578 
L 280.427162 -160.603137 
L 281.006374 -160.18176 
L 281.585587 -159.673843 
L 282.164799 -159.562465 
L 282.744012 -159.316027 
L 283.323225 -158.950755 
L 283.902437 -158.755143 
L 284.48165 -158.270447 
L 285.060862 -158.102015 
L 285.640075 -157.687132 
L 286.219287 -157.478062 
L 286.7985 -157.218776 
L 287.377712 -156.967592 
L 287.956925 -156.456262 
L 288.536137 -156.232252 
L 289.11535 -156.005913 
L 289.694563 -155.792977 
L 290.273775 -155.604179 
L 290.852988 -155.127698 
L 291.4322 -154.669621 
L 292.011413 -154.483918 
L 292.590625 -154.361177 
L 293.169838 -153.933718 
L 293.74905 -153.494307 
L 294.328263 -153.195888 
L 294.907475 -153.015849 
L 295.486688 -152.626237 
L 296.065901 -152.299923 
L 296.645113 -152.051049 
L 297.224326 -151.753358 
L 297.803538 -150.987298 
L 298.382751 -150.792118 
L 298.961963 -150.741975 
L 299.541176 -150.303235 
L 300.120388 -150.03727 
L 300.699601 -149.85177 
L 301.278813 -149.51609 
L 301.858026 -149.258956 
L 302.437239 -148.877369 
L 303.016451 -148.288966 
L 303.595664 -148.258512 
L 304.174876 -147.902652 
L 304.754089 -147.340189 
L 305.333301 -147.1166 
L 305.912514 -146.783061 
L 306.491726 -146.523395 
L 307.070939 -146.360551 
L 307.650151 -146.02398 
L 308.229364 -145.897714 
L 308.808577 -145.642326 
L 309.387789 -145.218434 
L 309.967002 -144.925041 
L 310.546214 -144.481149 
L 311.125427 -144.090794 
L 311.704639 -143.726538 
L 312.283852 -143.384912 
L 312.863064 -143.052097 
L 313.442277 -142.717742 
L 314.021489 -142.300806 
L 314.600702 -142.005557 
L 315.179915 -141.792614 
L 315.759127 -141.30152 
L 316.33834 -140.976982 
L 316.917552 -140.711438 
L 317.496765 -140.517609 
L 318.075977 -140.046309 
L 318.65519 -139.914586 
L 319.234402 -139.749862 
L 319.813615 -139.431397 
L 320.392827 -139.143983 
L 320.97204 -138.737955 
L 321.551253 -138.429697 
L 322.130465 -138.222152 
L 322.709678 -137.99844 
L 323.28889 -137.916335 
L 323.868103 -137.776329 
L 324.447315 -137.35527 
L 325.026528 -137.274696 
L 325.60574 -136.911909 
L 326.184953 -136.566237 
L 326.764165 -136.189843 
L 327.343378 -136.068254 
L 327.922591 -135.86627 
L 328.501803 -135.438348 
L 329.081016 -135.35818 
L 329.660228 -134.89084 
L 330.239441 -134.68017 
L 330.818653 -134.577741 
L 331.397866 -134.071297 
L 331.977078 -133.950556 
L 332.556291 -133.542672 
L 333.135503 -133.212011 
L 333.714716 -132.970719 
L 334.293929 -132.617708 
L 334.873141 -132.25293 
L 335.452354 -132.045754 
L 336.031566 -131.582883 
L 336.610779 -131.340281 
L 337.189991 -131.202022 
L 337.769204 -130.95627 
L 338.348416 -130.819259 
L 338.927629 -130.380497 
L 339.506842 -130.297163 
L 340.086054 -129.694427 
L 340.665267 -129.449942 
L 341.244479 -129.06955 
L 341.823692 -129.00466 
L 342.402904 -128.663474 
L 342.982117 -128.393313 
L 343.561329 -128.017149 
L 344.140542 -127.797449 
L 344.719754 -127.551378 
L 345.298967 -126.853524 
L 345.87818 -126.670457 
L 346.457392 -126.331481 
L 347.036605 -125.975422 
L 347.615817 -125.680892 
L 348.19503 -125.614941 
L 348.774242 -125.356637 
L 349.353455 -124.906549 
L 349.932667 -124.735774 
L 350.51188 -124.473366 
L 351.091092 -124.30516 
L 351.670305 -123.927816 
L 352.249518 -123.759085 
L 352.82873 -123.40269 
L 353.407943 -123.326397 
L 353.987155 -122.849172 
L 354.566368 -122.764661 
L 355.14558 -122.214539 
L 355.724793 -122.126973 
L 356.304005 -121.64535 
L 356.883218 -121.392926 
L 357.46243 -121.074264 
L 358.041643 -120.86436 
L 358.620856 -120.580068 
L 359.200068 -120.498139 
L 359.779281 -120.047883 
L 360.358493 -119.850249 
L 360.937706 -119.593204 
L 361.516918 -119.03841 
L 362.096131 -118.748422 
L 362.675343 -118.552393 
L 363.254556 -118.35726 
L 363.833768 -118.16929 
L 364.412981 -117.986275 
L 364.992194 -117.588433 
L 365.571406 -117.247965 
L 366.150619 -117.026164 
L 366.729831 -116.776021 
L 367.309044 -116.554653 
L 367.888256 -116.336234 
L 368.467469 -116.005791 
L 369.046681 -115.314103 
L 369.625894 -114.9924 
L 370.205106 -114.809571 
L 370.784319 -114.398919 
L 371.363532 -114.108617 
L 371.942744 -113.641992 
L 372.521957 -113.520165 
L 373.101169 -113.229108 
L 373.680382 -112.725859 
L 374.259594 -112.389731 
L 374.838807 -112.130138 
L 375.418019 -111.90786 
L 375.997232 -111.785847 
L 376.576444 -111.58839 
L 377.155657 -111.160498 
L 377.73487 -111.02176 
L 378.314082 -110.397335 
L 378.893295 -110.223508 
L 379.472507 -109.52774 
L 380.05172 -109.314955 
L 380.630932 -109.24753 
L 381.210145 -109.125223 
L 381.789357 -108.631537 
L 382.36857 -108.061835 
L 382.947782 -107.899841 
L 383.526995 -107.592798 
L 384.106208 -107.440924 
L 384.68542 -107.20221 
L 385.264633 -106.949959 
L 385.843845 -106.631562 
L 386.423058 -106.206707 
L 387.00227 -105.877759 
L 387.581483 -105.871964 
L 388.160695 -105.397013 
L 388.739908 -105.15981 
L 389.31912 -104.82151 
L 389.898333 -104.289651 
L 390.477546 -104.160766 
L 391.056758 -104.160659 
L 391.635971 -103.575267 
L 392.215183 -103.292555 
L 392.794396 -103.056575 
L 393.373608 -102.744926 
L 393.952821 -102.36161 
L 394.532033 -102.168062 
L 395.111246 -102.002307 
L 395.690458 -101.692204 
L 396.269671 -101.331624 
L 396.848884 -100.990116 
L 397.428096 -100.765914 
L 398.007309 -100.56953 
L 398.586521 -100.259256 
L 399.165734 -99.917395 
L 399.744946 -99.637852 
L 400.324159 -99.164893 
L 400.324159 -65.866364 
L 400.324159 -65.866364 
L 399.744946 -65.920572 
L 399.165734 -66.418026 
L 398.586521 -66.720401 
L 398.007309 -66.977811 
L 397.428096 -67.394028 
L 396.848884 -67.701531 
L 396.269671 -67.79364 
L 395.690458 -68.421738 
L 395.111246 -68.69351 
L 394.532033 -68.912334 
L 393.952821 -69.060632 
L 393.373608 -69.281387 
L 392.794396 -69.889669 
L 392.215183 -70.312598 
L 391.635971 -70.483131 
L 391.056758 -70.938069 
L 390.477546 -71.317868 
L 389.898333 -71.631751 
L 389.31912 -71.792137 
L 388.739908 -72.330437 
L 388.160695 -72.388945 
L 387.581483 -72.968501 
L 387.00227 -73.301216 
L 386.423058 -73.527815 
L 385.843845 -73.620699 
L 385.264633 -74.364995 
L 384.68542 -74.632537 
L 384.106208 -74.833143 
L 383.526995 -75.068349 
L 382.947782 -75.479232 
L 382.36857 -75.730794 
L 381.789357 -75.93557 
L 381.210145 -76.268485 
L 380.630932 -76.443443 
L 380.05172 -76.85882 
L 379.472507 -77.335605 
L 378.893295 -77.748381 
L 378.314082 -78.123128 
L 377.73487 -78.346194 
L 377.155657 -78.700451 
L 376.576444 -79.019082 
L 375.997232 -79.313832 
L 375.418019 -79.531798 
L 374.838807 -79.689937 
L 374.259594 -80.099877 
L 373.680382 -80.450789 
L 373.101169 -80.667871 
L 372.521957 -81.069971 
L 371.942744 -82.076728 
L 371.363532 -82.282489 
L 370.784319 -82.342384 
L 370.205106 -82.618263 
L 369.625894 -83.098599 
L 369.046681 -83.406007 
L 368.467469 -83.719283 
L 367.888256 -84.293382 
L 367.309044 -84.751298 
L 366.729831 -85.026891 
L 366.150619 -85.454673 
L 365.571406 -85.60465 
L 364.992194 -86.10867 
L 364.412981 -86.147561 
L 363.833768 -86.941033 
L 363.254556 -87.331517 
L 362.675343 -87.626669 
L 362.096131 -87.733895 
L 361.516918 -88.062564 
L 360.937706 -88.434528 
L 360.358493 -88.539683 
L 359.779281 -89.07668 
L 359.200068 -89.109754 
L 358.620856 -89.256044 
L 358.041643 -89.879772 
L 357.46243 -90.093549 
L 356.883218 -90.538894 
L 356.304005 -90.916475 
L 355.724793 -91.107009 
L 355.14558 -91.583863 
L 354.566368 -91.68495 
L 353.987155 -91.900798 
L 353.407943 -92.400585 
L 352.82873 -92.847099 
L 352.249518 -93.067808 
L 351.670305 -93.747366 
L 351.091092 -94.247325 
L 350.51188 -94.269634 
L 349.932667 -94.501416 
L 349.353455 -94.799433 
L 348.774242 -95.269596 
L 348.19503 -95.777141 
L 347.615817 -96.273713 
L 347.036605 -96.382142 
L 346.457392 -96.726869 
L 345.87818 -97.02598 
L 345.298967 -97.558263 
L 344.719754 -97.974461 
L 344.140542 -98.203665 
L 343.561329 -98.443501 
L 342.982117 -98.829877 
L 342.402904 -99.013294 
L 341.823692 -99.514876 
L 341.244479 -99.719286 
L 340.665267 -99.958611 
L 340.086054 -100.139255 
L 339.506842 -100.828153 
L 338.927629 -101.12607 
L 338.348416 -101.51909 
L 337.769204 -101.668073 
L 337.189991 -101.909554 
L 336.610779 -102.132764 
L 336.031566 -102.42698 
L 335.452354 -102.945101 
L 334.873141 -103.247756 
L 334.293929 -103.587192 
L 333.714716 -103.824577 
L 333.135503 -104.240644 
L 332.556291 -104.37156 
L 331.977078 -104.743891 
L 331.397866 -104.889021 
L 330.818653 -105.311036 
L 330.239441 -105.517965 
L 329.660228 -105.878587 
L 329.081016 -106.208529 
L 328.501803 -106.4205 
L 327.922591 -106.898876 
L 327.343378 -107.203445 
L 326.764165 -107.467718 
L 326.184953 -108.007493 
L 325.60574 -108.209354 
L 325.026528 -108.856185 
L 324.447315 -109.093749 
L 323.868103 -109.302904 
L 323.28889 -110.065747 
L 322.709678 -110.469401 
L 322.130465 -110.725914 
L 321.551253 -111.032394 
L 320.97204 -111.397124 
L 320.392827 -111.754013 
L 319.813615 -112.115259 
L 319.234402 -112.555461 
L 318.65519 -113.088544 
L 318.075977 -113.208179 
L 317.496765 -113.576042 
L 316.917552 -113.893576 
L 316.33834 -114.094708 
L 315.759127 -114.244932 
L 315.179915 -114.506059 
L 314.600702 -114.926548 
L 314.021489 -115.100114 
L 313.442277 -115.359331 
L 312.863064 -115.766592 
L 312.283852 -116.014519 
L 311.704639 -116.299589 
L 311.125427 -116.733673 
L 310.546214 -117.11266 
L 309.967002 -117.399707 
L 309.387789 -118.301741 
L 308.808577 -118.574458 
L 308.229364 -118.987439 
L 307.650151 -119.281844 
L 307.070939 -119.533904 
L 306.491726 -119.882513 
L 305.912514 -120.066139 
L 305.333301 -120.489692 
L 304.754089 -120.815691 
L 304.174876 -121.253428 
L 303.595664 -121.620254 
L 303.016451 -121.968861 
L 302.437239 -122.204389 
L 301.858026 -122.58506 
L 301.278813 -122.774055 
L 300.699601 -123.000741 
L 300.120388 -123.499986 
L 299.541176 -124.015229 
L 298.961963 -124.425282 
L 298.382751 -124.783578 
L 297.803538 -125.241859 
L 297.224326 -125.525059 
L 296.645113 -126.148032 
L 296.065901 -126.498196 
L 295.486688 -127.031024 
L 294.907475 -127.032464 
L 294.328263 -127.623707 
L 293.74905 -127.966698 
L 293.169838 -128.199176 
L 292.590625 -128.443229 
L 292.011413 -128.824377 
L 291.4322 -128.963722 
L 290.852988 -129.381648 
L 290.273775 -130.0266 
L 289.694563 -130.530722 
L 289.11535 -130.740448 
L 288.536137 -131.139223 
L 287.956925 -131.334987 
L 287.377712 -131.621979 
L 286.7985 -132.35575 
L 286.219287 -132.750219 
L 285.640075 -133.042613 
L 285.060862 -133.205415 
L 284.48165 -133.577383 
L 283.902437 -133.624083 
L 283.323225 -133.933668 
L 282.744012 -134.298847 
L 282.164799 -134.400542 
L 281.585587 -134.878651 
L 281.006374 -135.399752 
L 280.427162 -135.597421 
L 279.847949 -135.872555 
L 279.268737 -136.357295 
L 278.689524 -136.691918 
L 278.110312 -136.819545 
L 277.531099 -137.364962 
L 276.951887 -137.534765 
L 276.372674 -137.965686 
L 275.793461 -138.302991 
L 275.214249 -138.584604 
L 274.635036 -138.894929 
L 274.055824 -139.19148 
L 273.476611 -139.676516 
L 272.897399 -140.041972 
L 272.318186 -140.14482 
L 271.738974 -140.494027 
L 271.159761 -140.704395 
L 270.580549 -140.937254 
L 270.001336 -141.215292 
L 269.422123 -141.772093 
L 268.842911 -141.906938 
L 268.263698 -142.014836 
L 267.684486 -142.502145 
L 267.105273 -143.286289 
L 266.526061 -143.420712 
L 265.946848 -143.865337 
L 265.367636 -144.081729 
L 264.788423 -144.646161 
L 264.209211 -144.958849 
L 263.629998 -145.260635 
L 263.050785 -145.611806 
L 262.471573 -145.828611 
L 261.89236 -146.136592 
L 261.313148 -146.62526 
L 260.733935 -147.031918 
L 260.154723 -147.418263 
L 259.57551 -147.641607 
L 258.996298 -148.03665 
L 258.417085 -148.332573 
L 257.837873 -148.680894 
L 257.25866 -148.841676 
L 256.679447 -149.363388 
L 256.100235 -149.49253 
L 255.521022 -149.914332 
L 254.94181 -150.342297 
L 254.362597 -150.693467 
L 253.783385 -151.027726 
L 253.204172 -151.447815 
L 252.62496 -151.866707 
L 252.045747 -152.011504 
L 251.466535 -152.349046 
L 250.887322 -152.915608 
L 250.308109 -153.122997 
L 249.728897 -153.245583 
L 249.149684 -153.53443 
L 248.570472 -154.073748 
L 247.991259 -154.422539 
L 247.412047 -154.698891 
L 246.832834 -154.971872 
L 246.253622 -155.279424 
L 245.674409 -155.692152 
L 245.095197 -156.074437 
L 244.515984 -156.388009 
L 243.936771 -156.574422 
L 243.357559 -157.014534 
L 242.778346 -157.388803 
L 242.199134 -157.696791 
L 241.619921 -158.050178 
L 241.040709 -158.480083 
L 240.461496 -158.67981 
L 239.882284 -158.99615 
L 239.303071 -159.323497 
L 238.723859 -159.523182 
L 238.144646 -159.761697 
L 237.565433 -159.919887 
L 236.986221 -160.256827 
L 236.407008 -160.548561 
L 235.827796 -160.847475 
L 235.248583 -161.197754 
L 234.669371 -161.662228 
L 234.090158 -162.453695 
L 233.510946 -162.900961 
L 232.931733 -163.14315 
L 232.352521 -163.354758 
L 231.773308 -163.590166 
L 231.194095 -164.16725 
L 230.614883 -164.473072 
L 230.03567 -164.746287 
L 229.456458 -164.906918 
L 228.877245 -165.372321 
L 228.298033 -165.677054 
L 227.71882 -165.911962 
L 227.139608 -166.337241 
L 226.560395 -166.495927 
L 225.981183 -166.886321 
L 225.40197 -167.074576 
L 224.822757 -167.527108 
L 224.243545 -168.060517 
L 223.664332 -168.34665 
L 223.08512 -168.852028 
L 222.505907 -169.323366 
L 221.926695 -169.552495 
L 221.347482 -169.913228 
L 220.76827 -170.205516 
L 220.189057 -170.681978 
L 219.609844 -171.269799 
L 219.030632 -171.351062 
L 218.451419 -171.829731 
L 217.872207 -172.219276 
L 217.292994 -172.411418 
L 216.713782 -172.799762 
L 216.134569 -173.078675 
L 215.555357 -173.342499 
L 214.976144 -173.909044 
L 214.396932 -174.2013 
L 213.817719 -174.419113 
L 213.238506 -174.987465 
L 212.659294 -175.348645 
L 212.080081 -175.622128 
L 211.500869 -175.906572 
L 210.921656 -176.163714 
L 210.342444 -176.423868 
L 209.763231 -176.720362 
L 209.184019 -177.164527 
L 208.604806 -177.395486 
L 208.025594 -177.583909 
L 207.446381 -178.016083 
L 206.867168 -178.266035 
L 206.287956 -178.834044 
L 205.708743 -179.014114 
L 205.129531 -179.459733 
L 204.550318 -179.811346 
L 203.971106 -180.213245 
L 203.391893 -180.300211 
L 202.812681 -180.754663 
L 202.233468 -181.140569 
L 201.654256 -181.33518 
L 201.075043 -181.625608 
L 200.49583 -182.090055 
L 199.916618 -182.262974 
L 199.337405 -182.69698 
L 198.758193 -182.966753 
L 198.17898 -183.486836 
L 197.599768 -183.786948 
L 197.020555 -183.904173 
L 196.441343 -184.368517 
L 195.86213 -184.778225 
L 195.282918 -185.075504 
L 194.703705 -185.294017 
L 194.124492 -185.698019 
L 193.54528 -186.151046 
L 192.966067 -186.412084 
L 192.386855 -186.645344 
L 191.807642 -187.148503 
L 191.22843 -187.692775 
L 190.649217 -188.139461 
L 190.070005 -188.300768 
L 189.490792 -188.666435 
L 188.91158 -189.067812 
L 188.332367 -189.333766 
L 187.753154 -189.540034 
L 187.173942 -189.963053 
L 186.594729 -190.253168 
L 186.015517 -190.562316 
L 185.436304 -190.86583 
L 184.857092 -191.371851 
L 184.277879 -191.612616 
L 183.698667 -192.145175 
L 183.119454 -192.475874 
L 182.540242 -192.801241 
L 181.961029 -193.281183 
L 181.381816 -193.467404 
L 180.802604 -193.974255 
L 180.223391 -194.324362 
L 179.644179 -194.670335 
L 179.064966 -194.848462 
L 178.485754 -195.179298 
L 177.906541 -195.602882 
L 177.327329 -195.993024 
L 176.748116 -196.122856 
L 176.168904 -196.390467 
L 175.589691 -196.935312 
L 175.010478 -197.245324 
L 174.431266 -197.839414 
L 173.852053 -198.109972 
L 173.272841 -198.43048 
L 172.693628 -198.603051 
L 172.114416 -198.96571 
L 171.535203 -199.308642 
L 170.955991 -199.677303 
L 170.376778 -200.076699 
L 169.797566 -200.514034 
L 169.218353 -200.746265 
L 168.63914 -201.115402 
L 168.059928 -201.391753 
L 167.480715 -201.740063 
L 166.901503 -201.906494 
L 166.32229 -202.724203 
L 165.743078 -203.045771 
L 165.163865 -203.337778 
L 164.584653 -203.618788 
L 164.00544 -203.989162 
L 163.426228 -204.37844 
L 162.847015 -204.631651 
L 162.267802 -204.825046 
L 161.68859 -204.987742 
L 161.109377 -205.468714 
L 160.530165 -205.848961 
L 159.950952 -206.184329 
L 159.37174 -206.342503 
L 158.792527 -206.607265 
L 158.213315 -206.930045 
L 157.634102 -207.424679 
L 157.05489 -208.012618 
L 156.475677 -208.15386 
L 155.896464 -208.589085 
L 155.317252 -208.822551 
L 154.738039 -209.063295 
L 154.158827 -209.544809 
L 153.579614 -210.077334 
L 153.000402 -210.582784 
L 152.421189 -210.965472 
L 151.841977 -211.289639 
L 151.262764 -211.604886 
L 150.683552 -212.038966 
L 150.104339 -212.480782 
L 149.525126 -212.748052 
L 148.945914 -213.093314 
L 148.366701 -213.364352 
L 147.787489 -213.620136 
L 147.208276 -213.914221 
L 146.629064 -214.227444 
L 146.049851 -214.698476 
L 145.470639 -214.924446 
L 144.891426 -215.317861 
L 144.312214 -215.575269 
L 143.733001 -215.998223 
L 143.153788 -216.299627 
L 142.574576 -216.861147 
L 141.995363 -217.113117 
L 141.416151 -217.645187 
L 140.836938 -218.040846 
L 140.257726 -218.388795 
L 139.678513 -218.580251 
L 139.099301 -219.076578 
L 138.520088 -219.217975 
L 137.940876 -219.668539 
L 137.361663 -220.018665 
L 136.78245 -220.428939 
L 136.203238 -220.811457 
L 135.624025 -221.239715 
L 135.044813 -221.500286 
L 134.4656 -221.951894 
L 133.886388 -222.404659 
L 133.307175 -222.872015 
L 132.727963 -223.132812 
L 132.14875 -223.447606 
L 131.569538 -223.930738 
L 130.990325 -224.115664 
L 130.411112 -224.373996 
L 129.8319 -224.761794 
L 129.252687 -225.215816 
L 128.673475 -225.72887 
L 128.094262 -226.174768 
L 127.51505 -226.449991 
L 126.935837 -226.70306 
L 126.356625 -227.081183 
L 125.777412 -227.368279 
L 125.1982 -227.87055 
L 124.618987 -228.126615 
L 124.039774 -228.503927 
L 123.460562 -228.88382 
L 122.881349 -229.229423 
L 122.302137 -229.645907 
L 121.722924 -230.216089 
L 121.143712 -230.540658 
L 120.564499 -230.96971 
L 119.985287 -231.341089 
L 119.406074 -231.639376 
L 118.826862 -232.014301 
L 118.247649 -232.462168 
L 117.668436 -232.634387 
L 117.089224 -233.155652 
L 116.510011 -233.415281 
L 115.930799 -233.746962 
L 115.351586 -234.273575 
L 114.772374 -234.748534 
L 114.193161 -235.169678 
L 113.613949 -235.593575 
L 113.034736 -235.988063 
L 112.455524 -236.435082 
L 111.876311 -236.691251 
L 111.297098 -237.004998 
L 110.717886 -237.390824 
L 110.138673 -238.03407 
L 109.559461 -238.448754 
L 108.980248 -239.026903 
L 108.401036 -239.432004 
L 107.821823 -239.843278 
L 107.242611 -240.24918 
L 106.663398 -240.788843 
L 106.084185 -241.362605 
L 105.504973 -241.788809 
L 104.92576 -242.336667 
L 104.346548 -242.970072 
L 103.767335 -244.233636 
z
" id="ma48c32100c" style="stroke:#ff7f0e;stroke-opacity:0.2;stroke-width:0.39;"/>
    </defs>
    <g clip-path="url(#pbfc47c9637)">
     <use style="fill:#ff7f0e;fill-opacity:0.2;stroke:#ff7f0e;stroke-opacity:0.2;stroke-width:0.39;" x="0" xlink:href="#ma48c32100c" y="288"/>
    </g>
   </g>
   <g id="line2d_25">
    <path clip-path="url(#pbfc47c9637)" d="M 103.767335 43.766364 
L 104.346548 43.907308 
L 110.138673 47.086093 
L 111.876311 48.080923 
L 115.351586 49.989463 
L 124.618987 55.170683 
L 125.777412 55.823 
L 129.8319 58.122012 
L 130.411112 58.371267 
L 131.569538 59.070959 
L 134.4656 60.53206 
L 136.78245 61.781008 
L 147.787489 67.825488 
L 150.683552 69.377009 
L 154.158827 71.196063 
L 154.738039 71.448331 
L 155.896464 72.139205 
L 158.213315 73.374289 
L 159.37174 73.936007 
L 161.109377 74.84231 
L 164.584653 76.942054 
L 166.32229 77.818703 
L 167.480715 78.438586 
L 168.63914 79.200614 
L 172.114416 81.084598 
L 173.272841 81.642837 
L 175.589691 82.77322 
L 177.327329 83.750976 
L 179.064966 84.731869 
L 180.223391 85.429231 
L 181.381816 86.043972 
L 181.961029 86.286051 
L 182.540242 86.70094 
L 183.698667 87.245812 
L 184.277879 87.621651 
L 184.857092 87.824541 
L 186.015517 88.603963 
L 186.594729 88.948848 
L 187.173942 89.149271 
L 192.386855 91.948114 
L 192.966067 92.108374 
L 194.124492 92.650706 
L 195.282918 93.18409 
L 197.599768 94.104187 
L 198.17898 94.198796 
L 200.49583 95.116897 
L 201.654256 95.396973 
L 204.550318 96.098407 
L 205.708743 96.38297 
L 207.446381 96.780112 
L 209.763231 96.973046 
L 210.921656 97.213857 
L 216.134569 97.681296 
L 216.713782 97.621406 
L 217.292994 97.73802 
L 220.76827 97.793796 
L 221.926695 97.855953 
L 224.243545 97.936995 
L 225.40197 97.968763 
L 227.139608 98.033772 
L 228.877245 97.999559 
L 234.669371 98.083859 
L 235.827796 98.125118 
L 236.986221 98.072201 
L 239.303071 98.058192 
L 239.882284 98.042967 
L 240.461496 98.155351 
L 241.619921 98.065095 
L 247.991259 98.139302 
L 249.149684 98.172235 
L 252.045747 98.18535 
L 253.204172 98.064469 
L 255.521022 98.103194 
L 260.154723 98.235503 
L 262.471573 98.135848 
L 276.951887 98.142745 
L 278.689524 98.159489 
L 294.907475 98.234771 
L 296.065901 98.212039 
L 301.858026 98.104354 
L 307.650151 98.112315 
L 311.704639 98.228227 
L 314.021489 98.172124 
L 315.179915 98.182239 
L 316.33834 98.253816 
L 327.343378 98.077693 
L 330.239441 98.168378 
L 337.769204 98.060628 
L 345.87818 98.206435 
L 347.615817 98.137673 
L 352.82873 98.217676 
L 354.566368 98.226108 
L 364.412981 98.300584 
L 365.571406 98.257084 
L 367.888256 98.271014 
L 370.205106 98.173587 
L 373.101169 98.214594 
L 378.893295 98.18886 
L 381.210145 98.165786 
L 381.789357 98.239439 
L 384.68542 98.107313 
L 385.843845 98.146125 
L 387.581483 98.161456 
L 391.635971 98.146723 
L 393.952821 98.06477 
L 396.848884 98.048303 
L 398.586521 98.104377 
L 400.324159 98.126761 
L 400.324159 98.126761 
" style="fill:none;stroke:#1f77b4;stroke-linecap:round;stroke-width:2.275;"/>
   </g>
   <g id="line2d_26">
    <path clip-path="url(#pbfc47c9637)" d="M 103.767335 43.766364 
L 104.346548 43.894692 
L 111.297098 47.681293 
L 139.099301 62.963522 
L 140.836938 64.00624 
L 141.416151 64.226936 
L 144.312214 65.907697 
L 146.049851 66.801792 
L 147.787489 67.763724 
L 148.366701 68.022291 
L 149.525126 68.841425 
L 151.262764 69.75283 
L 155.896464 72.22113 
L 158.792527 73.767583 
L 159.37174 73.966352 
L 161.109377 75.046631 
L 162.847015 75.894081 
L 163.426228 76.289539 
L 164.00544 76.519621 
L 165.163865 77.258201 
L 165.743078 77.508276 
L 166.901503 78.206654 
L 177.906541 84.291885 
L 179.064966 84.855197 
L 180.223391 85.477858 
L 181.381816 86.025433 
L 182.540242 86.648491 
L 183.119454 86.893497 
L 183.698667 87.320735 
L 184.857092 87.928946 
L 188.332367 89.807768 
L 197.599768 94.741824 
L 199.337405 95.785098 
L 200.49583 96.429723 
L 203.391893 97.931977 
L 204.550318 98.702221 
L 206.867168 99.978004 
L 207.446381 100.21704 
L 209.763231 101.718922 
L 214.976144 104.302297 
L 215.555357 104.738377 
L 216.134569 104.93695 
L 217.292994 105.63217 
L 222.505907 108.480427 
L 223.08512 108.705657 
L 223.664332 109.232805 
L 224.822757 109.836714 
L 227.139608 110.979187 
L 227.71882 111.188062 
L 230.614883 112.846207 
L 231.194095 113.033064 
L 232.352521 113.86235 
L 238.144646 116.893308 
L 239.303071 117.457589 
L 241.040709 118.480384 
L 242.778346 119.535265 
L 243.936771 120.064364 
L 245.674409 121.165511 
L 247.412047 121.986036 
L 250.887322 124.054152 
L 253.204172 125.147861 
L 253.783385 125.437852 
L 254.362597 125.861738 
L 254.94181 125.996363 
L 256.100235 126.731506 
L 257.25866 127.319029 
L 258.417085 127.940005 
L 258.996298 128.374699 
L 261.313148 129.567268 
L 261.89236 129.993392 
L 262.471573 130.213139 
L 263.050785 130.624434 
L 264.788423 131.454905 
L 270.001336 134.227322 
L 270.580549 134.485331 
L 271.159761 134.871018 
L 271.738974 135.112509 
L 274.635036 136.911863 
L 279.268737 139.284407 
L 279.847949 139.71478 
L 281.585587 140.475196 
L 282.744012 141.16901 
L 283.323225 141.40842 
L 283.902437 141.905896 
L 285.060862 142.439127 
L 285.640075 142.723628 
L 286.7985 143.478043 
L 289.11535 144.722962 
L 290.852988 145.534598 
L 292.011413 146.138686 
L 301.278813 151.137715 
L 302.437239 152.022057 
L 304.754089 153.280334 
L 305.333301 153.501052 
L 305.912514 153.918348 
L 307.070939 154.530221 
L 307.650151 154.914669 
L 308.229364 155.15199 
L 309.967002 156.212777 
L 311.704639 157.085409 
L 312.283852 157.344039 
L 312.863064 157.869502 
L 313.442277 158.067161 
L 315.179915 158.980046 
L 316.33834 159.448443 
L 316.917552 159.974694 
L 319.234402 161.211822 
L 322.709678 163.334355 
L 323.868103 163.73273 
L 325.026528 164.397501 
L 326.184953 165.025187 
L 327.922591 165.946826 
L 329.081016 166.509989 
L 329.660228 166.889803 
L 330.239441 167.115303 
L 331.977078 168.269373 
L 332.556291 168.447248 
L 334.293929 169.422289 
L 334.873141 169.59904 
L 336.031566 170.388839 
L 339.506842 172.404733 
L 340.665267 172.901148 
L 341.244479 173.276219 
L 342.982117 174.057783 
L 344.140542 174.705401 
L 348.19503 176.719694 
L 348.774242 177.148629 
L 349.353455 177.338988 
L 353.987155 179.865357 
L 354.566368 180.422427 
L 355.14558 180.574075 
L 355.724793 181.107365 
L 364.992194 185.797309 
L 365.571406 186.441526 
L 369.046681 188.037882 
L 371.942744 189.709692 
L 372.521957 189.928094 
L 373.101169 190.420034 
L 374.259594 190.858716 
L 375.997232 191.901439 
L 377.155657 192.706294 
L 378.314082 192.954361 
L 379.472507 193.583195 
L 380.630932 194.356935 
L 382.36857 195.119071 
L 388.160695 198.43839 
L 388.739908 198.948539 
L 391.056758 200.237588 
L 391.635971 200.455776 
L 393.952821 201.756707 
L 395.111246 202.299651 
L 396.269671 203.094446 
L 396.848884 203.274013 
L 398.586521 204.267697 
L 399.165734 204.790246 
L 400.324159 205.422355 
L 400.324159 205.422355 
" style="fill:none;stroke:#ff7f0e;stroke-linecap:round;stroke-width:2.275;"/>
   </g>
   <g id="patch_3">
    <path d="M 88.939494 231.052 
L 88.939494 34.848 
" style="fill:none;stroke:#999999;stroke-linecap:square;stroke-linejoin:miter;"/>
   </g>
   <g id="patch_4">
    <path d="M 415.152 231.052 
L 415.152 34.848 
" style="fill:none;stroke:#999999;stroke-linecap:square;stroke-linejoin:miter;"/>
   </g>
   <g id="patch_5">
    <path d="M 88.939494 231.052 
L 415.152 231.052 
" style="fill:none;stroke:#999999;stroke-linecap:square;stroke-linejoin:miter;"/>
   </g>
   <g id="patch_6">
    <path d="M 88.939494 34.848 
L 415.152 34.848 
" style="fill:none;stroke:#999999;stroke-linecap:square;stroke-linejoin:miter;"/>
   </g>
   <g id="text_15">
    <!-- Error vs Iteration (Inconsistent Gaussian) -->
    <defs>
     <path d="M 9.8125 72.90625 
L 55.90625 72.90625 
L 55.90625 64.59375 
L 19.671875 64.59375 
L 19.671875 43.015625 
L 54.390625 43.015625 
L 54.390625 34.71875 
L 19.671875 34.71875 
L 19.671875 8.296875 
L 56.78125 8.296875 
L 56.78125 0 
L 9.8125 0 
z
" id="DejaVuSans-45"/>
     <path id="DejaVuSans-20"/>
     <path d="M 2.984375 54.6875 
L 12.5 54.6875 
L 29.59375 8.796875 
L 46.6875 54.6875 
L 56.203125 54.6875 
L 35.6875 0 
L 23.484375 0 
z
" id="DejaVuSans-76"/>
     <path d="M 44.28125 53.078125 
L 44.28125 44.578125 
Q 40.484375 46.53125 36.375 47.5 
Q 32.28125 48.484375 27.875 48.484375 
Q 21.1875 48.484375 17.84375 46.4375 
Q 14.5 44.390625 14.5 40.28125 
Q 14.5 37.15625 16.890625 35.375 
Q 19.28125 33.59375 26.515625 31.984375 
L 29.59375 31.296875 
Q 39.15625 29.25 43.1875 25.515625 
Q 47.21875 21.78125 47.21875 15.09375 
Q 47.21875 7.46875 41.1875 3.015625 
Q 35.15625 -1.421875 24.609375 -1.421875 
Q 20.21875 -1.421875 15.453125 -0.5625 
Q 10.6875 0.296875 5.421875 2 
L 5.421875 11.28125 
Q 10.40625 8.6875 15.234375 7.390625 
Q 20.0625 6.109375 24.8125 6.109375 
Q 31.15625 6.109375 34.5625 8.28125 
Q 37.984375 10.453125 37.984375 14.40625 
Q 37.984375 18.0625 35.515625 20.015625 
Q 33.0625 21.96875 24.703125 23.78125 
L 21.578125 24.515625 
Q 13.234375 26.265625 9.515625 29.90625 
Q 5.8125 33.546875 5.8125 39.890625 
Q 5.8125 47.609375 11.28125 51.796875 
Q 16.75 56 26.8125 56 
Q 31.78125 56 36.171875 55.265625 
Q 40.578125 54.546875 44.28125 53.078125 
z
" id="DejaVuSans-73"/>
     <path d="M 31 75.875 
Q 24.46875 64.65625 21.28125 53.65625 
Q 18.109375 42.671875 18.109375 31.390625 
Q 18.109375 20.125 21.3125 9.0625 
Q 24.515625 -2 31 -13.1875 
L 23.1875 -13.1875 
Q 15.875 -1.703125 12.234375 9.375 
Q 8.59375 20.453125 8.59375 31.390625 
Q 8.59375 42.28125 12.203125 53.3125 
Q 15.828125 64.359375 23.1875 75.875 
z
" id="DejaVuSans-28"/>
     <path d="M 48.78125 52.59375 
L 48.78125 44.1875 
Q 44.96875 46.296875 41.140625 47.34375 
Q 37.3125 48.390625 33.40625 48.390625 
Q 24.65625 48.390625 19.8125 42.84375 
Q 14.984375 37.3125 14.984375 27.296875 
Q 14.984375 17.28125 19.8125 11.734375 
Q 24.65625 6.203125 33.40625 6.203125 
Q 37.3125 6.203125 41.140625 7.25 
Q 44.96875 8.296875 48.78125 10.40625 
L 48.78125 2.09375 
Q 45.015625 0.34375 40.984375 -0.53125 
Q 36.96875 -1.421875 32.421875 -1.421875 
Q 20.0625 -1.421875 12.78125 6.34375 
Q 5.515625 14.109375 5.515625 27.296875 
Q 5.515625 40.671875 12.859375 48.328125 
Q 20.21875 56 33.015625 56 
Q 37.15625 56 41.109375 55.140625 
Q 45.0625 54.296875 48.78125 52.59375 
z
" id="DejaVuSans-63"/>
     <path d="M 59.515625 10.40625 
L 59.515625 29.984375 
L 43.40625 29.984375 
L 43.40625 38.09375 
L 69.28125 38.09375 
L 69.28125 6.78125 
Q 63.578125 2.734375 56.6875 0.65625 
Q 49.8125 -1.421875 42 -1.421875 
Q 24.90625 -1.421875 15.25 8.5625 
Q 5.609375 18.5625 5.609375 36.375 
Q 5.609375 54.25 15.25 64.234375 
Q 24.90625 74.21875 42 74.21875 
Q 49.125 74.21875 55.546875 72.453125 
Q 61.96875 70.703125 67.390625 67.28125 
L 67.390625 56.78125 
Q 61.921875 61.421875 55.765625 63.765625 
Q 49.609375 66.109375 42.828125 66.109375 
Q 29.4375 66.109375 22.71875 58.640625 
Q 16.015625 51.171875 16.015625 36.375 
Q 16.015625 21.625 22.71875 14.15625 
Q 29.4375 6.6875 42.828125 6.6875 
Q 48.046875 6.6875 52.140625 7.59375 
Q 56.25 8.5 59.515625 10.40625 
z
" id="DejaVuSans-47"/>
     <path d="M 8.5 21.578125 
L 8.5 54.6875 
L 17.484375 54.6875 
L 17.484375 21.921875 
Q 17.484375 14.15625 20.5 10.265625 
Q 23.53125 6.390625 29.59375 6.390625 
Q 36.859375 6.390625 41.078125 11.03125 
Q 45.3125 15.671875 45.3125 23.6875 
L 45.3125 54.6875 
L 54.296875 54.6875 
L 54.296875 0 
L 45.3125 0 
L 45.3125 8.40625 
Q 42.046875 3.421875 37.71875 1 
Q 33.40625 -1.421875 27.6875 -1.421875 
Q 18.265625 -1.421875 13.375 4.4375 
Q 8.5 10.296875 8.5 21.578125 
z
M 31.109375 56 
z
" id="DejaVuSans-75"/>
     <path d="M 8.015625 75.875 
L 15.828125 75.875 
Q 23.140625 64.359375 26.78125 53.3125 
Q 30.421875 42.28125 30.421875 31.390625 
Q 30.421875 20.453125 26.78125 9.375 
Q 23.140625 -1.703125 15.828125 -13.1875 
L 8.015625 -13.1875 
Q 14.5 -2 17.703125 9.0625 
Q 20.90625 20.125 20.90625 31.390625 
Q 20.90625 42.671875 17.703125 53.65625 
Q 14.5 64.65625 8.015625 75.875 
z
" id="DejaVuSans-29"/>
    </defs>
    <g style="fill:#262626;" transform="translate(91.776466 28.848)scale(0.156 -0.156)">
     <use xlink:href="#DejaVuSans-45"/>
     <use x="63.183594" xlink:href="#DejaVuSans-72"/>
     <use x="104.28125" xlink:href="#DejaVuSans-72"/>
     <use x="145.363281" xlink:href="#DejaVuSans-6f"/>
     <use x="206.544922" xlink:href="#DejaVuSans-72"/>
     <use x="247.658203" xlink:href="#DejaVuSans-20"/>
     <use x="279.445312" xlink:href="#DejaVuSans-76"/>
     <use x="338.625" xlink:href="#DejaVuSans-73"/>
     <use x="390.724609" xlink:href="#DejaVuSans-20"/>
     <use x="422.511719" xlink:href="#DejaVuSans-49"/>
     <use x="452.003906" xlink:href="#DejaVuSans-74"/>
     <use x="491.212891" xlink:href="#DejaVuSans-65"/>
     <use x="552.736328" xlink:href="#DejaVuSans-72"/>
     <use x="593.849609" xlink:href="#DejaVuSans-61"/>
     <use x="655.128906" xlink:href="#DejaVuSans-74"/>
     <use x="694.337891" xlink:href="#DejaVuSans-69"/>
     <use x="722.121094" xlink:href="#DejaVuSans-6f"/>
     <use x="783.302734" xlink:href="#DejaVuSans-6e"/>
     <use x="846.681641" xlink:href="#DejaVuSans-20"/>
     <use x="878.46875" xlink:href="#DejaVuSans-28"/>
     <use x="917.482422" xlink:href="#DejaVuSans-49"/>
     <use x="946.974609" xlink:href="#DejaVuSans-6e"/>
     <use x="1010.353516" xlink:href="#DejaVuSans-63"/>
     <use x="1065.333984" xlink:href="#DejaVuSans-6f"/>
     <use x="1126.515625" xlink:href="#DejaVuSans-6e"/>
     <use x="1189.894531" xlink:href="#DejaVuSans-73"/>
     <use x="1241.994141" xlink:href="#DejaVuSans-69"/>
     <use x="1269.777344" xlink:href="#DejaVuSans-73"/>
     <use x="1321.876953" xlink:href="#DejaVuSans-74"/>
     <use x="1361.085938" xlink:href="#DejaVuSans-65"/>
     <use x="1422.609375" xlink:href="#DejaVuSans-6e"/>
     <use x="1485.988281" xlink:href="#DejaVuSans-74"/>
     <use x="1525.197266" xlink:href="#DejaVuSans-20"/>
     <use x="1556.984375" xlink:href="#DejaVuSans-47"/>
     <use x="1634.474609" xlink:href="#DejaVuSans-61"/>
     <use x="1695.753906" xlink:href="#DejaVuSans-75"/>
     <use x="1759.132812" xlink:href="#DejaVuSans-73"/>
     <use x="1811.232422" xlink:href="#DejaVuSans-73"/>
     <use x="1863.332031" xlink:href="#DejaVuSans-69"/>
     <use x="1891.115234" xlink:href="#DejaVuSans-61"/>
     <use x="1952.394531" xlink:href="#DejaVuSans-6e"/>
     <use x="2015.773438" xlink:href="#DejaVuSans-29"/>
    </g>
   </g>
   <g id="legend_1">
    <g id="line2d_27">
     <path d="M 315.616688 51.875969 
L 341.616688 51.875969 
" style="fill:none;stroke:#1f77b4;stroke-linecap:round;stroke-width:2.275;"/>
    </g>
    <g id="line2d_28"/>
    <g id="text_16">
     <!-- Vanilla -->
     <defs>
      <path d="M 28.609375 0 
L 0.78125 72.90625 
L 11.078125 72.90625 
L 34.1875 11.53125 
L 57.328125 72.90625 
L 67.578125 72.90625 
L 39.796875 0 
z
" id="DejaVuSans-56"/>
      <path d="M 9.421875 75.984375 
L 18.40625 75.984375 
L 18.40625 0 
L 9.421875 0 
z
" id="DejaVuSans-6c"/>
     </defs>
     <g style="fill:#262626;" transform="translate(352.016687 56.425969)scale(0.13 -0.13)">
      <use xlink:href="#DejaVuSans-56"/>
      <use x="68.298828" xlink:href="#DejaVuSans-61"/>
      <use x="129.578125" xlink:href="#DejaVuSans-6e"/>
      <use x="192.957031" xlink:href="#DejaVuSans-69"/>
      <use x="220.740234" xlink:href="#DejaVuSans-6c"/>
      <use x="248.523438" xlink:href="#DejaVuSans-6c"/>
      <use x="276.306641" xlink:href="#DejaVuSans-61"/>
     </g>
    </g>
    <g id="line2d_29">
     <path d="M 315.616688 70.957531 
L 341.616688 70.957531 
" style="fill:none;stroke:#ff7f0e;stroke-linecap:round;stroke-width:2.275;"/>
    </g>
    <g id="line2d_30"/>
    <g id="text_17">
     <!-- Optimal -->
     <defs>
      <path d="M 39.40625 66.21875 
Q 28.65625 66.21875 22.328125 58.203125 
Q 16.015625 50.203125 16.015625 36.375 
Q 16.015625 22.609375 22.328125 14.59375 
Q 28.65625 6.59375 39.40625 6.59375 
Q 50.140625 6.59375 56.421875 14.59375 
Q 62.703125 22.609375 62.703125 36.375 
Q 62.703125 50.203125 56.421875 58.203125 
Q 50.140625 66.21875 39.40625 66.21875 
z
M 39.40625 74.21875 
Q 54.734375 74.21875 63.90625 63.9375 
Q 73.09375 53.65625 73.09375 36.375 
Q 73.09375 19.140625 63.90625 8.859375 
Q 54.734375 -1.421875 39.40625 -1.421875 
Q 24.03125 -1.421875 14.8125 8.828125 
Q 5.609375 19.09375 5.609375 36.375 
Q 5.609375 53.65625 14.8125 63.9375 
Q 24.03125 74.21875 39.40625 74.21875 
z
" id="DejaVuSans-4f"/>
      <path d="M 18.109375 8.203125 
L 18.109375 -20.796875 
L 9.078125 -20.796875 
L 9.078125 54.6875 
L 18.109375 54.6875 
L 18.109375 46.390625 
Q 20.953125 51.265625 25.265625 53.625 
Q 29.59375 56 35.59375 56 
Q 45.5625 56 51.78125 48.09375 
Q 58.015625 40.1875 58.015625 27.296875 
Q 58.015625 14.40625 51.78125 6.484375 
Q 45.5625 -1.421875 35.59375 -1.421875 
Q 29.59375 -1.421875 25.265625 0.953125 
Q 20.953125 3.328125 18.109375 8.203125 
z
M 48.6875 27.296875 
Q 48.6875 37.203125 44.609375 42.84375 
Q 40.53125 48.484375 33.40625 48.484375 
Q 26.265625 48.484375 22.1875 42.84375 
Q 18.109375 37.203125 18.109375 27.296875 
Q 18.109375 17.390625 22.1875 11.75 
Q 26.265625 6.109375 33.40625 6.109375 
Q 40.53125 6.109375 44.609375 11.75 
Q 48.6875 17.390625 48.6875 27.296875 
z
" id="DejaVuSans-70"/>
      <path d="M 52 44.1875 
Q 55.375 50.25 60.0625 53.125 
Q 64.75 56 71.09375 56 
Q 79.640625 56 84.28125 50.015625 
Q 88.921875 44.046875 88.921875 33.015625 
L 88.921875 0 
L 79.890625 0 
L 79.890625 32.71875 
Q 79.890625 40.578125 77.09375 44.375 
Q 74.3125 48.1875 68.609375 48.1875 
Q 61.625 48.1875 57.5625 43.546875 
Q 53.515625 38.921875 53.515625 30.90625 
L 53.515625 0 
L 44.484375 0 
L 44.484375 32.71875 
Q 44.484375 40.625 41.703125 44.40625 
Q 38.921875 48.1875 33.109375 48.1875 
Q 26.21875 48.1875 22.15625 43.53125 
Q 18.109375 38.875 18.109375 30.90625 
L 18.109375 0 
L 9.078125 0 
L 9.078125 54.6875 
L 18.109375 54.6875 
L 18.109375 46.1875 
Q 21.1875 51.21875 25.484375 53.609375 
Q 29.78125 56 35.6875 56 
Q 41.65625 56 45.828125 52.96875 
Q 50 49.953125 52 44.1875 
z
" id="DejaVuSans-6d"/>
     </defs>
     <g style="fill:#262626;" transform="translate(352.016687 75.507531)scale(0.13 -0.13)">
      <use xlink:href="#DejaVuSans-4f"/>
      <use x="78.710938" xlink:href="#DejaVuSans-70"/>
      <use x="142.1875" xlink:href="#DejaVuSans-74"/>
      <use x="181.396484" xlink:href="#DejaVuSans-69"/>
      <use x="209.179688" xlink:href="#DejaVuSans-6d"/>
      <use x="306.591797" xlink:href="#DejaVuSans-61"/>
      <use x="367.871094" xlink:href="#DejaVuSans-6c"/>
     </g>
    </g>
   </g>
  </g>
 </g>
 <defs>
  <clipPath id="pbfc47c9637">
   <rect height="196.204" width="326.212506" x="88.939494" y="34.848"/>
  </clipPath>
 </defs>
</svg>
