<?xml version="1.0" encoding="utf-8" standalone="no"?>
<!DOCTYPE svg PUBLIC "-//W3C//DTD SVG 1.1//EN"
  "http://www.w3.org/Graphics/SVG/1.1/DTD/svg11.dtd">
<!-- Created with matplotlib (http://matplotlib.org/) -->
<svg height="288pt" version="1.1" viewBox="0 0 432 288" width="432pt" xmlns="http://www.w3.org/2000/svg" xmlns:xlink="http://www.w3.org/1999/xlink">
 <defs>
  <style type="text/css">
*{stroke-linecap:butt;stroke-linejoin:round;}
  </style>
 </defs>
 <g id="figure_1">
  <g id="patch_1">
   <path d="M 0 288 
L 432 288 
L 432 0 
L 0 0 
z
" style="fill:none;"/>
  </g>
  <g id="axes_1">
   <g id="patch_2">
    <path d="M 42.573 231.052 
L 415.152 231.052 
L 415.152 34.848 
L 42.573 34.848 
z
" style="fill:none;"/>
   </g>
   <g id="matplotlib.axis_1">
    <g id="xtick_1">
     <g id="line2d_1">
      <path clip-path="url(#p4da332faef)" d="M 45.708353 231.052 
L 45.708353 34.848 
" style="fill:none;stroke:#999999;stroke-linecap:round;stroke-width:1.3;"/>
     </g>
     <g id="line2d_2"/>
     <g id="text_1">
      <!-- −0.08 -->
      <defs>
       <path d="M 10.59375 35.5 
L 73.1875 35.5 
L 73.1875 27.203125 
L 10.59375 27.203125 
z
" id="DejaVuSans-2212"/>
       <path d="M 31.78125 66.40625 
Q 24.171875 66.40625 20.328125 58.90625 
Q 16.5 51.421875 16.5 36.375 
Q 16.5 21.390625 20.328125 13.890625 
Q 24.171875 6.390625 31.78125 6.390625 
Q 39.453125 6.390625 43.28125 13.890625 
Q 47.125 21.390625 47.125 36.375 
Q 47.125 51.421875 43.28125 58.90625 
Q 39.453125 66.40625 31.78125 66.40625 
z
M 31.78125 74.21875 
Q 44.046875 74.21875 50.515625 64.515625 
Q 56.984375 54.828125 56.984375 36.375 
Q 56.984375 17.96875 50.515625 8.265625 
Q 44.046875 -1.421875 31.78125 -1.421875 
Q 19.53125 -1.421875 13.0625 8.265625 
Q 6.59375 17.96875 6.59375 36.375 
Q 6.59375 54.828125 13.0625 64.515625 
Q 19.53125 74.21875 31.78125 74.21875 
z
" id="DejaVuSans-30"/>
       <path d="M 10.6875 12.40625 
L 21 12.40625 
L 21 0 
L 10.6875 0 
z
" id="DejaVuSans-2e"/>
       <path d="M 31.78125 34.625 
Q 24.75 34.625 20.71875 30.859375 
Q 16.703125 27.09375 16.703125 20.515625 
Q 16.703125 13.921875 20.71875 10.15625 
Q 24.75 6.390625 31.78125 6.390625 
Q 38.8125 6.390625 42.859375 10.171875 
Q 46.921875 13.96875 46.921875 20.515625 
Q 46.921875 27.09375 42.890625 30.859375 
Q 38.875 34.625 31.78125 34.625 
z
M 21.921875 38.8125 
Q 15.578125 40.375 12.03125 44.71875 
Q 8.5 49.078125 8.5 55.328125 
Q 8.5 64.0625 14.71875 69.140625 
Q 20.953125 74.21875 31.78125 74.21875 
Q 42.671875 74.21875 48.875 69.140625 
Q 55.078125 64.0625 55.078125 55.328125 
Q 55.078125 49.078125 51.53125 44.71875 
Q 48 40.375 41.703125 38.8125 
Q 48.828125 37.15625 52.796875 32.3125 
Q 56.78125 27.484375 56.78125 20.515625 
Q 56.78125 9.90625 50.3125 4.234375 
Q 43.84375 -1.421875 31.78125 -1.421875 
Q 19.734375 -1.421875 13.25 4.234375 
Q 6.78125 9.90625 6.78125 20.515625 
Q 6.78125 27.484375 10.78125 32.3125 
Q 14.796875 37.15625 21.921875 38.8125 
z
M 18.3125 54.390625 
Q 18.3125 48.734375 21.84375 45.5625 
Q 25.390625 42.390625 31.78125 42.390625 
Q 38.140625 42.390625 41.71875 45.5625 
Q 45.3125 48.734375 45.3125 54.390625 
Q 45.3125 60.0625 41.71875 63.234375 
Q 38.140625 66.40625 31.78125 66.40625 
Q 25.390625 66.40625 21.84375 63.234375 
Q 18.3125 60.0625 18.3125 54.390625 
z
" id="DejaVuSans-38"/>
      </defs>
      <g style="fill:#262626;" transform="translate(25.7889 250.029969)scale(0.13 -0.13)">
       <use xlink:href="#DejaVuSans-2212"/>
       <use x="83.789062" xlink:href="#DejaVuSans-30"/>
       <use x="147.412109" xlink:href="#DejaVuSans-2e"/>
       <use x="179.199219" xlink:href="#DejaVuSans-30"/>
       <use x="242.822266" xlink:href="#DejaVuSans-38"/>
      </g>
     </g>
    </g>
    <g id="xtick_2">
     <g id="line2d_3">
      <path clip-path="url(#p4da332faef)" d="M 92.286776 231.052 
L 92.286776 34.848 
" style="fill:none;stroke:#999999;stroke-linecap:round;stroke-width:1.3;"/>
     </g>
     <g id="line2d_4"/>
     <g id="text_2">
      <!-- −0.06 -->
      <defs>
       <path d="M 33.015625 40.375 
Q 26.375 40.375 22.484375 35.828125 
Q 18.609375 31.296875 18.609375 23.390625 
Q 18.609375 15.53125 22.484375 10.953125 
Q 26.375 6.390625 33.015625 6.390625 
Q 39.65625 6.390625 43.53125 10.953125 
Q 47.40625 15.53125 47.40625 23.390625 
Q 47.40625 31.296875 43.53125 35.828125 
Q 39.65625 40.375 33.015625 40.375 
z
M 52.59375 71.296875 
L 52.59375 62.3125 
Q 48.875 64.0625 45.09375 64.984375 
Q 41.3125 65.921875 37.59375 65.921875 
Q 27.828125 65.921875 22.671875 59.328125 
Q 17.53125 52.734375 16.796875 39.40625 
Q 19.671875 43.65625 24.015625 45.921875 
Q 28.375 48.1875 33.59375 48.1875 
Q 44.578125 48.1875 50.953125 41.515625 
Q 57.328125 34.859375 57.328125 23.390625 
Q 57.328125 12.15625 50.6875 5.359375 
Q 44.046875 -1.421875 33.015625 -1.421875 
Q 20.359375 -1.421875 13.671875 8.265625 
Q 6.984375 17.96875 6.984375 36.375 
Q 6.984375 53.65625 15.1875 63.9375 
Q 23.390625 74.21875 37.203125 74.21875 
Q 40.921875 74.21875 44.703125 73.484375 
Q 48.484375 72.75 52.59375 71.296875 
z
" id="DejaVuSans-36"/>
      </defs>
      <g style="fill:#262626;" transform="translate(72.367323 250.029969)scale(0.13 -0.13)">
       <use xlink:href="#DejaVuSans-2212"/>
       <use x="83.789062" xlink:href="#DejaVuSans-30"/>
       <use x="147.412109" xlink:href="#DejaVuSans-2e"/>
       <use x="179.199219" xlink:href="#DejaVuSans-30"/>
       <use x="242.822266" xlink:href="#DejaVuSans-36"/>
      </g>
     </g>
    </g>
    <g id="xtick_3">
     <g id="line2d_5">
      <path clip-path="url(#p4da332faef)" d="M 138.865199 231.052 
L 138.865199 34.848 
" style="fill:none;stroke:#999999;stroke-linecap:round;stroke-width:1.3;"/>
     </g>
     <g id="line2d_6"/>
     <g id="text_3">
      <!-- −0.04 -->
      <defs>
       <path d="M 37.796875 64.3125 
L 12.890625 25.390625 
L 37.796875 25.390625 
z
M 35.203125 72.90625 
L 47.609375 72.90625 
L 47.609375 25.390625 
L 58.015625 25.390625 
L 58.015625 17.1875 
L 47.609375 17.1875 
L 47.609375 0 
L 37.796875 0 
L 37.796875 17.1875 
L 4.890625 17.1875 
L 4.890625 26.703125 
z
" id="DejaVuSans-34"/>
      </defs>
      <g style="fill:#262626;" transform="translate(118.945746 250.029969)scale(0.13 -0.13)">
       <use xlink:href="#DejaVuSans-2212"/>
       <use x="83.789062" xlink:href="#DejaVuSans-30"/>
       <use x="147.412109" xlink:href="#DejaVuSans-2e"/>
       <use x="179.199219" xlink:href="#DejaVuSans-30"/>
       <use x="242.822266" xlink:href="#DejaVuSans-34"/>
      </g>
     </g>
    </g>
    <g id="xtick_4">
     <g id="line2d_7">
      <path clip-path="url(#p4da332faef)" d="M 185.443621 231.052 
L 185.443621 34.848 
" style="fill:none;stroke:#999999;stroke-linecap:round;stroke-width:1.3;"/>
     </g>
     <g id="line2d_8"/>
     <g id="text_4">
      <!-- −0.02 -->
      <defs>
       <path d="M 19.1875 8.296875 
L 53.609375 8.296875 
L 53.609375 0 
L 7.328125 0 
L 7.328125 8.296875 
Q 12.9375 14.109375 22.625 23.890625 
Q 32.328125 33.6875 34.8125 36.53125 
Q 39.546875 41.84375 41.421875 45.53125 
Q 43.3125 49.21875 43.3125 52.78125 
Q 43.3125 58.59375 39.234375 62.25 
Q 35.15625 65.921875 28.609375 65.921875 
Q 23.96875 65.921875 18.8125 64.3125 
Q 13.671875 62.703125 7.8125 59.421875 
L 7.8125 69.390625 
Q 13.765625 71.78125 18.9375 73 
Q 24.125 74.21875 28.421875 74.21875 
Q 39.75 74.21875 46.484375 68.546875 
Q 53.21875 62.890625 53.21875 53.421875 
Q 53.21875 48.921875 51.53125 44.890625 
Q 49.859375 40.875 45.40625 35.40625 
Q 44.1875 33.984375 37.640625 27.21875 
Q 31.109375 20.453125 19.1875 8.296875 
z
" id="DejaVuSans-32"/>
      </defs>
      <g style="fill:#262626;" transform="translate(165.524168 250.029969)scale(0.13 -0.13)">
       <use xlink:href="#DejaVuSans-2212"/>
       <use x="83.789062" xlink:href="#DejaVuSans-30"/>
       <use x="147.412109" xlink:href="#DejaVuSans-2e"/>
       <use x="179.199219" xlink:href="#DejaVuSans-30"/>
       <use x="242.822266" xlink:href="#DejaVuSans-32"/>
      </g>
     </g>
    </g>
    <g id="xtick_5">
     <g id="line2d_9">
      <path clip-path="url(#p4da332faef)" d="M 232.022044 231.052 
L 232.022044 34.848 
" style="fill:none;stroke:#999999;stroke-linecap:round;stroke-width:1.3;"/>
     </g>
     <g id="line2d_10"/>
     <g id="text_5">
      <!-- 0.00 -->
      <g style="fill:#262626;" transform="translate(217.549388 250.029969)scale(0.13 -0.13)">
       <use xlink:href="#DejaVuSans-30"/>
       <use x="63.623047" xlink:href="#DejaVuSans-2e"/>
       <use x="95.410156" xlink:href="#DejaVuSans-30"/>
       <use x="159.033203" xlink:href="#DejaVuSans-30"/>
      </g>
     </g>
    </g>
    <g id="xtick_6">
     <g id="line2d_11">
      <path clip-path="url(#p4da332faef)" d="M 278.600466 231.052 
L 278.600466 34.848 
" style="fill:none;stroke:#999999;stroke-linecap:round;stroke-width:1.3;"/>
     </g>
     <g id="line2d_12"/>
     <g id="text_6">
      <!-- 0.02 -->
      <g style="fill:#262626;" transform="translate(264.12781 250.029969)scale(0.13 -0.13)">
       <use xlink:href="#DejaVuSans-30"/>
       <use x="63.623047" xlink:href="#DejaVuSans-2e"/>
       <use x="95.410156" xlink:href="#DejaVuSans-30"/>
       <use x="159.033203" xlink:href="#DejaVuSans-32"/>
      </g>
     </g>
    </g>
    <g id="xtick_7">
     <g id="line2d_13">
      <path clip-path="url(#p4da332faef)" d="M 325.178889 231.052 
L 325.178889 34.848 
" style="fill:none;stroke:#999999;stroke-linecap:round;stroke-width:1.3;"/>
     </g>
     <g id="line2d_14"/>
     <g id="text_7">
      <!-- 0.04 -->
      <g style="fill:#262626;" transform="translate(310.706233 250.029969)scale(0.13 -0.13)">
       <use xlink:href="#DejaVuSans-30"/>
       <use x="63.623047" xlink:href="#DejaVuSans-2e"/>
       <use x="95.410156" xlink:href="#DejaVuSans-30"/>
       <use x="159.033203" xlink:href="#DejaVuSans-34"/>
      </g>
     </g>
    </g>
    <g id="xtick_8">
     <g id="line2d_15">
      <path clip-path="url(#p4da332faef)" d="M 371.757312 231.052 
L 371.757312 34.848 
" style="fill:none;stroke:#999999;stroke-linecap:round;stroke-width:1.3;"/>
     </g>
     <g id="line2d_16"/>
     <g id="text_8">
      <!-- 0.06 -->
      <g style="fill:#262626;" transform="translate(357.284655 250.029969)scale(0.13 -0.13)">
       <use xlink:href="#DejaVuSans-30"/>
       <use x="63.623047" xlink:href="#DejaVuSans-2e"/>
       <use x="95.410156" xlink:href="#DejaVuSans-30"/>
       <use x="159.033203" xlink:href="#DejaVuSans-36"/>
      </g>
     </g>
    </g>
    <g id="text_9">
     <!-- Step Size -->
     <defs>
      <path d="M 53.515625 70.515625 
L 53.515625 60.890625 
Q 47.90625 63.578125 42.921875 64.890625 
Q 37.9375 66.21875 33.296875 66.21875 
Q 25.25 66.21875 20.875 63.09375 
Q 16.5 59.96875 16.5 54.203125 
Q 16.5 49.359375 19.40625 46.890625 
Q 22.3125 44.4375 30.421875 42.921875 
L 36.375 41.703125 
Q 47.40625 39.59375 52.65625 34.296875 
Q 57.90625 29 57.90625 20.125 
Q 57.90625 9.515625 50.796875 4.046875 
Q 43.703125 -1.421875 29.984375 -1.421875 
Q 24.8125 -1.421875 18.96875 -0.25 
Q 13.140625 0.921875 6.890625 3.21875 
L 6.890625 13.375 
Q 12.890625 10.015625 18.65625 8.296875 
Q 24.421875 6.59375 29.984375 6.59375 
Q 38.421875 6.59375 43.015625 9.90625 
Q 47.609375 13.234375 47.609375 19.390625 
Q 47.609375 24.75 44.3125 27.78125 
Q 41.015625 30.8125 33.5 32.328125 
L 27.484375 33.5 
Q 16.453125 35.6875 11.515625 40.375 
Q 6.59375 45.0625 6.59375 53.421875 
Q 6.59375 63.09375 13.40625 68.65625 
Q 20.21875 74.21875 32.171875 74.21875 
Q 37.3125 74.21875 42.625 73.28125 
Q 47.953125 72.359375 53.515625 70.515625 
z
" id="DejaVuSans-53"/>
      <path d="M 18.3125 70.21875 
L 18.3125 54.6875 
L 36.8125 54.6875 
L 36.8125 47.703125 
L 18.3125 47.703125 
L 18.3125 18.015625 
Q 18.3125 11.328125 20.140625 9.421875 
Q 21.96875 7.515625 27.59375 7.515625 
L 36.8125 7.515625 
L 36.8125 0 
L 27.59375 0 
Q 17.1875 0 13.234375 3.875 
Q 9.28125 7.765625 9.28125 18.015625 
L 9.28125 47.703125 
L 2.6875 47.703125 
L 2.6875 54.6875 
L 9.28125 54.6875 
L 9.28125 70.21875 
z
" id="DejaVuSans-74"/>
      <path d="M 56.203125 29.59375 
L 56.203125 25.203125 
L 14.890625 25.203125 
Q 15.484375 15.921875 20.484375 11.0625 
Q 25.484375 6.203125 34.421875 6.203125 
Q 39.59375 6.203125 44.453125 7.46875 
Q 49.3125 8.734375 54.109375 11.28125 
L 54.109375 2.78125 
Q 49.265625 0.734375 44.1875 -0.34375 
Q 39.109375 -1.421875 33.890625 -1.421875 
Q 20.796875 -1.421875 13.15625 6.1875 
Q 5.515625 13.8125 5.515625 26.8125 
Q 5.515625 40.234375 12.765625 48.109375 
Q 20.015625 56 32.328125 56 
Q 43.359375 56 49.78125 48.890625 
Q 56.203125 41.796875 56.203125 29.59375 
z
M 47.21875 32.234375 
Q 47.125 39.59375 43.09375 43.984375 
Q 39.0625 48.390625 32.421875 48.390625 
Q 24.90625 48.390625 20.390625 44.140625 
Q 15.875 39.890625 15.1875 32.171875 
z
" id="DejaVuSans-65"/>
      <path d="M 18.109375 8.203125 
L 18.109375 -20.796875 
L 9.078125 -20.796875 
L 9.078125 54.6875 
L 18.109375 54.6875 
L 18.109375 46.390625 
Q 20.953125 51.265625 25.265625 53.625 
Q 29.59375 56 35.59375 56 
Q 45.5625 56 51.78125 48.09375 
Q 58.015625 40.1875 58.015625 27.296875 
Q 58.015625 14.40625 51.78125 6.484375 
Q 45.5625 -1.421875 35.59375 -1.421875 
Q 29.59375 -1.421875 25.265625 0.953125 
Q 20.953125 3.328125 18.109375 8.203125 
z
M 48.6875 27.296875 
Q 48.6875 37.203125 44.609375 42.84375 
Q 40.53125 48.484375 33.40625 48.484375 
Q 26.265625 48.484375 22.1875 42.84375 
Q 18.109375 37.203125 18.109375 27.296875 
Q 18.109375 17.390625 22.1875 11.75 
Q 26.265625 6.109375 33.40625 6.109375 
Q 40.53125 6.109375 44.609375 11.75 
Q 48.6875 17.390625 48.6875 27.296875 
z
" id="DejaVuSans-70"/>
      <path id="DejaVuSans-20"/>
      <path d="M 9.421875 54.6875 
L 18.40625 54.6875 
L 18.40625 0 
L 9.421875 0 
z
M 9.421875 75.984375 
L 18.40625 75.984375 
L 18.40625 64.59375 
L 9.421875 64.59375 
z
" id="DejaVuSans-69"/>
      <path d="M 5.515625 54.6875 
L 48.1875 54.6875 
L 48.1875 46.484375 
L 14.40625 7.171875 
L 48.1875 7.171875 
L 48.1875 0 
L 4.296875 0 
L 4.296875 8.203125 
L 38.09375 47.515625 
L 5.515625 47.515625 
z
" id="DejaVuSans-7a"/>
     </defs>
     <g style="fill:#262626;" transform="translate(195.631758 267.599328)scale(0.143 -0.143)">
      <use xlink:href="#DejaVuSans-53"/>
      <use x="63.476562" xlink:href="#DejaVuSans-74"/>
      <use x="102.685547" xlink:href="#DejaVuSans-65"/>
      <use x="164.208984" xlink:href="#DejaVuSans-70"/>
      <use x="227.685547" xlink:href="#DejaVuSans-20"/>
      <use x="259.472656" xlink:href="#DejaVuSans-53"/>
      <use x="322.949219" xlink:href="#DejaVuSans-69"/>
      <use x="350.732422" xlink:href="#DejaVuSans-7a"/>
      <use x="403.222656" xlink:href="#DejaVuSans-65"/>
     </g>
    </g>
   </g>
   <g id="matplotlib.axis_2">
    <g id="ytick_1">
     <g id="line2d_17">
      <path clip-path="url(#p4da332faef)" d="M 42.573 231.052 
L 415.152 231.052 
" style="fill:none;stroke:#999999;stroke-linecap:round;stroke-width:1.3;"/>
     </g>
     <g id="line2d_18"/>
     <g id="text_10">
      <!-- 0 -->
      <g style="fill:#262626;" transform="translate(25.20175 235.990984)scale(0.13 -0.13)">
       <use xlink:href="#DejaVuSans-30"/>
      </g>
     </g>
    </g>
    <g id="ytick_2">
     <g id="line2d_19">
      <path clip-path="url(#p4da332faef)" d="M 42.573 178.566909 
L 415.152 178.566909 
" style="fill:none;stroke:#999999;stroke-linecap:round;stroke-width:1.3;"/>
     </g>
     <g id="line2d_20"/>
     <g id="text_11">
      <!-- 10 -->
      <defs>
       <path d="M 12.40625 8.296875 
L 28.515625 8.296875 
L 28.515625 63.921875 
L 10.984375 60.40625 
L 10.984375 69.390625 
L 28.421875 72.90625 
L 38.28125 72.90625 
L 38.28125 8.296875 
L 54.390625 8.296875 
L 54.390625 0 
L 12.40625 0 
z
" id="DejaVuSans-31"/>
      </defs>
      <g style="fill:#262626;" transform="translate(16.9305 183.505893)scale(0.13 -0.13)">
       <use xlink:href="#DejaVuSans-31"/>
       <use x="63.623047" xlink:href="#DejaVuSans-30"/>
      </g>
     </g>
    </g>
    <g id="ytick_3">
     <g id="line2d_21">
      <path clip-path="url(#p4da332faef)" d="M 42.573 126.081817 
L 415.152 126.081817 
" style="fill:none;stroke:#999999;stroke-linecap:round;stroke-width:1.3;"/>
     </g>
     <g id="line2d_22"/>
     <g id="text_12">
      <!-- 20 -->
      <g style="fill:#262626;" transform="translate(16.9305 131.020802)scale(0.13 -0.13)">
       <use xlink:href="#DejaVuSans-32"/>
       <use x="63.623047" xlink:href="#DejaVuSans-30"/>
      </g>
     </g>
    </g>
    <g id="ytick_4">
     <g id="line2d_23">
      <path clip-path="url(#p4da332faef)" d="M 42.573 73.596726 
L 415.152 73.596726 
" style="fill:none;stroke:#999999;stroke-linecap:round;stroke-width:1.3;"/>
     </g>
     <g id="line2d_24"/>
     <g id="text_13">
      <!-- 30 -->
      <defs>
       <path d="M 40.578125 39.3125 
Q 47.65625 37.796875 51.625 33 
Q 55.609375 28.21875 55.609375 21.1875 
Q 55.609375 10.40625 48.1875 4.484375 
Q 40.765625 -1.421875 27.09375 -1.421875 
Q 22.515625 -1.421875 17.65625 -0.515625 
Q 12.796875 0.390625 7.625 2.203125 
L 7.625 11.71875 
Q 11.71875 9.328125 16.59375 8.109375 
Q 21.484375 6.890625 26.8125 6.890625 
Q 36.078125 6.890625 40.9375 10.546875 
Q 45.796875 14.203125 45.796875 21.1875 
Q 45.796875 27.640625 41.28125 31.265625 
Q 36.765625 34.90625 28.71875 34.90625 
L 20.21875 34.90625 
L 20.21875 43.015625 
L 29.109375 43.015625 
Q 36.375 43.015625 40.234375 45.921875 
Q 44.09375 48.828125 44.09375 54.296875 
Q 44.09375 59.90625 40.109375 62.90625 
Q 36.140625 65.921875 28.71875 65.921875 
Q 24.65625 65.921875 20.015625 65.03125 
Q 15.375 64.15625 9.8125 62.3125 
L 9.8125 71.09375 
Q 15.4375 72.65625 20.34375 73.4375 
Q 25.25 74.21875 29.59375 74.21875 
Q 40.828125 74.21875 47.359375 69.109375 
Q 53.90625 64.015625 53.90625 55.328125 
Q 53.90625 49.265625 50.4375 45.09375 
Q 46.96875 40.921875 40.578125 39.3125 
z
" id="DejaVuSans-33"/>
      </defs>
      <g style="fill:#262626;" transform="translate(16.9305 78.53571)scale(0.13 -0.13)">
       <use xlink:href="#DejaVuSans-33"/>
       <use x="63.623047" xlink:href="#DejaVuSans-30"/>
      </g>
     </g>
    </g>
   </g>
   <g id="PolyCollection_1">
    <path clip-path="url(#p4da332faef)" d="M 71.894526 231.051816 
L 71.894526 231.052 
L 74.463991 231.052 
L 77.033456 231.052 
L 79.602921 231.052 
L 82.172386 231.052 
L 84.741851 231.052 
L 87.311317 231.052 
L 89.880782 231.052 
L 92.450247 231.052 
L 95.019712 231.052 
L 97.589177 231.052 
L 100.158642 231.052 
L 102.728107 231.052 
L 105.297572 231.052 
L 107.867037 231.052 
L 110.436502 231.052 
L 113.005967 231.052 
L 115.575432 231.052 
L 118.144897 231.052 
L 120.714363 231.052 
L 123.283828 231.052 
L 125.853293 231.052 
L 128.422758 231.052 
L 130.992223 231.052 
L 133.561688 231.052 
L 136.131153 231.052 
L 138.700618 231.052 
L 141.270083 231.052 
L 143.839548 231.052 
L 146.409013 231.052 
L 148.978478 231.052 
L 151.547943 231.052 
L 154.117409 231.052 
L 156.686874 231.052 
L 159.256339 231.052 
L 161.825804 231.052 
L 164.395269 231.052 
L 166.964734 231.052 
L 169.534199 231.052 
L 172.103664 231.052 
L 174.673129 231.052 
L 177.242594 231.052 
L 179.812059 231.052 
L 182.381524 231.052 
L 184.95099 231.052 
L 187.520455 231.052 
L 190.08992 231.052 
L 192.659385 231.052 
L 195.22885 231.052 
L 197.798315 231.052 
L 200.36778 231.052 
L 202.937245 231.052 
L 205.50671 231.052 
L 208.076175 231.052 
L 210.64564 231.052 
L 213.215105 231.052 
L 215.78457 231.052 
L 218.354036 231.052 
L 220.923501 231.052 
L 223.492966 231.052 
L 226.062431 231.052 
L 228.631896 231.052 
L 231.201361 231.052 
L 233.770826 231.052 
L 236.340291 231.052 
L 238.909756 231.052 
L 241.479221 231.052 
L 244.048686 231.052 
L 246.618151 231.052 
L 249.187616 231.052 
L 251.757082 231.052 
L 254.326547 231.052 
L 256.896012 231.052 
L 259.465477 231.052 
L 262.034942 231.052 
L 264.604407 231.052 
L 267.173872 231.052 
L 269.743337 231.052 
L 272.312802 231.052 
L 274.882267 231.052 
L 277.451732 231.052 
L 280.021197 231.052 
L 282.590662 231.052 
L 285.160128 231.052 
L 287.729593 231.052 
L 290.299058 231.052 
L 292.868523 231.052 
L 295.437988 231.052 
L 298.007453 231.052 
L 300.576918 231.052 
L 303.146383 231.052 
L 305.715848 231.052 
L 308.285313 231.052 
L 310.854778 231.052 
L 313.424243 231.052 
L 315.993708 231.052 
L 318.563174 231.052 
L 321.132639 231.052 
L 323.702104 231.052 
L 326.271569 231.052 
L 328.841034 231.052 
L 331.410499 231.052 
L 333.979964 231.052 
L 336.549429 231.052 
L 339.118894 231.052 
L 341.688359 231.052 
L 344.257824 231.052 
L 346.827289 231.052 
L 349.396754 231.052 
L 351.96622 231.052 
L 354.535685 231.052 
L 357.10515 231.052 
L 359.674615 231.052 
L 362.24408 231.052 
L 364.813545 231.052 
L 367.38301 231.052 
L 369.952475 231.052 
L 372.52194 231.052 
L 375.091405 231.052 
L 377.66087 231.052 
L 380.230335 231.052 
L 382.7998 231.052 
L 385.369266 231.052 
L 387.938731 231.052 
L 390.508196 231.052 
L 393.077661 231.052 
L 395.647126 231.052 
L 398.216591 231.052 
L 398.216591 231.051738 
L 398.216591 231.051738 
L 395.647126 231.050648 
L 393.077661 231.046618 
L 390.508196 231.036587 
L 387.938731 231.019441 
L 385.369266 230.998756 
L 382.7998 230.979604 
L 380.230335 230.962581 
L 377.66087 230.942256 
L 375.091405 230.913411 
L 372.52194 230.877496 
L 369.952475 230.833204 
L 367.38301 230.770085 
L 364.813545 230.688258 
L 362.24408 230.595808 
L 359.674615 230.466103 
L 357.10515 230.247581 
L 354.535685 229.938481 
L 351.96622 229.604016 
L 349.396754 229.296788 
L 346.827289 228.985156 
L 344.257824 228.585144 
L 341.688359 228.056008 
L 339.118894 227.432628 
L 336.549429 226.743061 
L 333.979964 225.929567 
L 331.410499 224.904793 
L 328.841034 223.654983 
L 326.271569 222.243328 
L 323.702104 220.744603 
L 321.132639 219.173667 
L 318.563174 217.450743 
L 315.993708 215.475059 
L 313.424243 213.240358 
L 310.854778 210.82163 
L 308.285313 208.239215 
L 305.715848 205.385824 
L 303.146383 202.120763 
L 300.576918 198.431461 
L 298.007453 194.482175 
L 295.437988 190.497289 
L 292.868523 186.586775 
L 290.299058 182.664357 
L 287.729593 178.526674 
L 285.160128 174.037125 
L 282.590662 169.27185 
L 280.021197 164.409395 
L 277.451732 159.501815 
L 274.882267 154.572923 
L 272.312802 149.819058 
L 269.743337 145.42838 
L 267.173872 141.28018 
L 264.604407 137.053104 
L 262.034942 132.614932 
L 259.465477 128.106011 
L 256.896012 123.846099 
L 254.326547 120.370204 
L 251.757082 118.033564 
L 249.187616 116.441758 
L 246.618151 114.836638 
L 244.048686 112.974839 
L 241.479221 111.207869 
L 238.909756 109.878231 
L 236.340291 108.984561 
L 233.770826 108.349813 
L 231.201361 107.95667 
L 228.631896 108.161137 
L 226.062431 109.418871 
L 223.492966 111.749232 
L 220.923501 114.777723 
L 218.354036 118.226415 
L 215.78457 121.952061 
L 213.215105 125.675136 
L 210.64564 129.150137 
L 208.076175 132.547977 
L 205.50671 136.323092 
L 202.937245 140.710303 
L 200.36778 145.565259 
L 197.798315 150.653302 
L 195.22885 155.85986 
L 192.659385 161.088087 
L 190.08992 166.159256 
L 187.520455 170.965822 
L 184.95099 175.62104 
L 182.381524 180.309177 
L 179.812059 185.033747 
L 177.242594 189.617822 
L 174.673129 193.892614 
L 172.103664 197.772192 
L 169.534199 201.214034 
L 166.964734 204.244222 
L 164.395269 207.041307 
L 161.825804 209.835597 
L 159.256339 212.645158 
L 156.686874 215.248159 
L 154.117409 217.450608 
L 151.547943 219.278572 
L 148.978478 220.893926 
L 146.409013 222.426072 
L 143.839548 223.901721 
L 141.270083 225.258943 
L 138.700618 226.396688 
L 136.131153 227.256581 
L 133.561688 227.893906 
L 130.992223 228.431408 
L 128.422758 228.940308 
L 125.853293 229.399848 
L 123.283828 229.757473 
L 120.714363 230.003156 
L 118.144897 230.184452 
L 115.575432 230.355811 
L 113.005967 230.527193 
L 110.436502 230.664903 
L 107.867037 230.740111 
L 105.297572 230.772463 
L 102.728107 230.809268 
L 100.158642 230.868134 
L 97.589177 230.926488 
L 95.019712 230.962694 
L 92.450247 230.982082 
L 89.880782 230.999361 
L 87.311317 231.016748 
L 84.741851 231.029785 
L 82.172386 231.038588 
L 79.602921 231.045066 
L 77.033456 231.04927 
L 74.463991 231.051224 
L 71.894526 231.051816 
z
" style="fill:#1f77b4;fill-opacity:0.25;"/>
   </g>
   <g id="PolyCollection_2">
    <path clip-path="url(#p4da332faef)" d="M 59.508409 231.051816 
L 59.508409 231.052 
L 62.173173 231.052 
L 64.837936 231.052 
L 67.5027 231.052 
L 70.167464 231.052 
L 72.832227 231.052 
L 75.496991 231.052 
L 78.161755 231.052 
L 80.826518 231.052 
L 83.491282 231.052 
L 86.156046 231.052 
L 88.820809 231.052 
L 91.485573 231.052 
L 94.150337 231.052 
L 96.8151 231.052 
L 99.479864 231.052 
L 102.144628 231.052 
L 104.809391 231.052 
L 107.474155 231.052 
L 110.138919 231.052 
L 112.803682 231.052 
L 115.468446 231.052 
L 118.13321 231.052 
L 120.797973 231.052 
L 123.462737 231.052 
L 126.127501 231.052 
L 128.792264 231.052 
L 131.457028 231.052 
L 134.121792 231.052 
L 136.786555 231.052 
L 139.451319 231.052 
L 142.116083 231.052 
L 144.780846 231.052 
L 147.44561 231.052 
L 150.110374 231.052 
L 152.775137 231.052 
L 155.439901 231.052 
L 158.104665 231.052 
L 160.769428 231.052 
L 163.434192 231.052 
L 166.098956 231.052 
L 168.763719 231.052 
L 171.428483 231.052 
L 174.093247 231.052 
L 176.75801 231.052 
L 179.422774 231.052 
L 182.087538 231.052 
L 184.752301 231.052 
L 187.417065 231.052 
L 190.081829 231.052 
L 192.746592 231.052 
L 195.411356 231.052 
L 198.07612 231.052 
L 200.740883 231.052 
L 203.405647 231.052 
L 206.070411 231.052 
L 208.735174 231.052 
L 211.399938 231.052 
L 214.064702 231.052 
L 216.729465 231.052 
L 219.394229 231.052 
L 222.058992 231.052 
L 224.723756 231.052 
L 227.38852 231.052 
L 230.053283 231.052 
L 232.718047 231.052 
L 235.382811 231.052 
L 238.047574 231.052 
L 240.712338 231.052 
L 243.377102 231.052 
L 246.041865 231.052 
L 248.706629 231.052 
L 251.371393 231.052 
L 254.036156 231.052 
L 256.70092 231.052 
L 259.365684 231.052 
L 262.030447 231.052 
L 264.695211 231.052 
L 267.359975 231.052 
L 270.024738 231.052 
L 272.689502 231.052 
L 275.354266 231.052 
L 278.019029 231.052 
L 280.683793 231.052 
L 283.348557 231.052 
L 286.01332 231.052 
L 288.678084 231.052 
L 291.342848 231.052 
L 294.007611 231.052 
L 296.672375 231.052 
L 299.337139 231.052 
L 302.001902 231.052 
L 304.666666 231.052 
L 307.33143 231.052 
L 309.996193 231.052 
L 312.660957 231.052 
L 315.325721 231.052 
L 317.990484 231.052 
L 320.655248 231.052 
L 323.320012 231.052 
L 325.984775 231.052 
L 328.649539 231.052 
L 331.314303 231.052 
L 333.979066 231.052 
L 336.64383 231.052 
L 339.308594 231.052 
L 341.973357 231.052 
L 344.638121 231.052 
L 347.302885 231.052 
L 349.967648 231.052 
L 352.632412 231.052 
L 355.297176 231.052 
L 357.961939 231.052 
L 360.626703 231.052 
L 363.291467 231.052 
L 365.95623 231.052 
L 368.620994 231.052 
L 371.285758 231.052 
L 373.950521 231.052 
L 376.615285 231.052 
L 379.280049 231.052 
L 381.944812 231.052 
L 384.609576 231.052 
L 387.27434 231.052 
L 389.939103 231.052 
L 392.603867 231.052 
L 395.268631 231.052 
L 397.933394 231.052 
L 397.933394 231.051815 
L 397.933394 231.051815 
L 395.268631 231.051139 
L 392.603867 231.048997 
L 389.939103 231.045001 
L 387.27434 231.041103 
L 384.609576 231.040663 
L 381.944812 231.043853 
L 379.280049 231.045904 
L 376.615285 231.038378 
L 373.950521 231.008415 
L 371.285758 230.945502 
L 368.620994 230.860741 
L 365.95623 230.78358 
L 363.291467 230.720603 
L 360.626703 230.643135 
L 357.961939 230.524921 
L 355.297176 230.351249 
L 352.632412 230.111365 
L 349.967648 229.827564 
L 347.302885 229.544086 
L 344.638121 229.267024 
L 341.973357 228.951205 
L 339.308594 228.520502 
L 336.64383 227.904206 
L 333.979066 227.083737 
L 331.314303 226.092434 
L 328.649539 224.987797 
L 325.984775 223.812913 
L 323.320012 222.546606 
L 320.655248 221.118582 
L 317.990484 219.492414 
L 315.325721 217.669073 
L 312.660957 215.622851 
L 309.996193 213.338131 
L 307.33143 210.857735 
L 304.666666 208.216405 
L 302.001902 205.383938 
L 299.337139 202.273563 
L 296.672375 198.766126 
L 294.007611 194.817293 
L 291.342848 190.557797 
L 288.678084 186.145513 
L 286.01332 181.546867 
L 283.348557 176.637243 
L 280.683793 171.486217 
L 278.019029 166.342548 
L 275.354266 161.354048 
L 272.689502 156.479761 
L 270.024738 151.586986 
L 267.359975 146.591073 
L 264.695211 141.664723 
L 262.030447 137.173035 
L 259.365684 133.176178 
L 256.70092 129.28252 
L 254.036156 125.249738 
L 251.371393 121.296473 
L 248.706629 117.721351 
L 246.041865 114.619197 
L 243.377102 111.887306 
L 240.712338 109.443533 
L 238.047574 107.524994 
L 235.382811 106.529752 
L 232.718047 106.478032 
L 230.053283 106.995851 
L 227.38852 107.850367 
L 224.723756 108.910684 
L 222.058992 110.04732 
L 219.394229 111.610382 
L 216.729465 114.218904 
L 214.064702 117.952332 
L 211.399938 122.29452 
L 208.735174 126.876512 
L 206.070411 131.833237 
L 203.405647 137.182006 
L 200.740883 142.380335 
L 198.07612 146.935248 
L 195.411356 151.061476 
L 192.746592 155.33477 
L 190.081829 160.038062 
L 187.417065 165.085752 
L 184.752301 170.161918 
L 182.087538 174.929523 
L 179.422774 179.444211 
L 176.75801 184.085236 
L 174.093247 188.973571 
L 171.428483 193.794466 
L 168.763719 198.154664 
L 166.098956 201.92305 
L 163.434192 205.253929 
L 160.769428 208.360049 
L 158.104665 211.299147 
L 155.439901 213.999963 
L 152.775137 216.391126 
L 150.110374 218.452466 
L 147.44561 220.244522 
L 144.780846 221.870985 
L 142.116083 223.345532 
L 139.451319 224.610582 
L 136.786555 225.684335 
L 134.121792 226.624549 
L 131.457028 227.415126 
L 128.792264 228.024363 
L 126.127501 228.495643 
L 123.462737 228.919194 
L 120.797973 229.355899 
L 118.13321 229.788857 
L 115.468446 230.153717 
L 112.803682 230.406164 
L 110.138919 230.544496 
L 107.474155 230.608057 
L 104.809391 230.657508 
L 102.144628 230.72942 
L 99.479864 230.816808 
L 96.8151 230.89382 
L 94.150337 230.948159 
L 91.485573 230.985853 
L 88.820809 231.012437 
L 86.156046 231.02714 
L 83.491282 231.032066 
L 80.826518 231.032515 
L 78.161755 231.032328 
L 75.496991 231.03319 
L 72.832227 231.035415 
L 70.167464 231.039413 
L 67.5027 231.044642 
L 64.837936 231.048947 
L 62.173173 231.051134 
L 59.508409 231.051816 
z
" style="fill:#ff7f0e;fill-opacity:0.25;"/>
   </g>
   <g id="line2d_25">
    <path clip-path="url(#p4da332faef)" d="M 71.894526 231.051816 
L 95.019712 230.962694 
L 110.436502 230.664903 
L 120.714363 230.003156 
L 123.283828 229.757473 
L 128.422758 228.940308 
L 133.561688 227.893906 
L 136.131153 227.256581 
L 138.700618 226.396688 
L 141.270083 225.258943 
L 146.409013 222.426072 
L 151.547943 219.278572 
L 154.117409 217.450608 
L 156.686874 215.248159 
L 159.256339 212.645158 
L 166.964734 204.244222 
L 169.534199 201.214034 
L 172.103664 197.772192 
L 174.673129 193.892614 
L 177.242594 189.617822 
L 182.381524 180.309177 
L 190.08992 166.159256 
L 195.22885 155.85986 
L 200.36778 145.565259 
L 202.937245 140.710303 
L 205.50671 136.323092 
L 208.076175 132.547977 
L 213.215105 125.675136 
L 218.354036 118.226415 
L 220.923501 114.777723 
L 223.492966 111.749232 
L 226.062431 109.418871 
L 228.631896 108.161137 
L 231.201361 107.95667 
L 233.770826 108.349813 
L 236.340291 108.984561 
L 238.909756 109.878231 
L 241.479221 111.207869 
L 249.187616 116.441758 
L 251.757082 118.033564 
L 254.326547 120.370204 
L 256.896012 123.846099 
L 259.465477 128.106011 
L 264.604407 137.053104 
L 272.312802 149.819058 
L 277.451732 159.501815 
L 285.160128 174.037125 
L 287.729593 178.526674 
L 290.299058 182.664357 
L 303.146383 202.120763 
L 305.715848 205.385824 
L 308.285313 208.239215 
L 310.854778 210.82163 
L 313.424243 213.240358 
L 315.993708 215.475059 
L 318.563174 217.450743 
L 321.132639 219.173667 
L 326.271569 222.243328 
L 328.841034 223.654983 
L 331.410499 224.904793 
L 333.979964 225.929567 
L 336.549429 226.743061 
L 341.688359 228.056008 
L 344.257824 228.585144 
L 349.396754 229.296788 
L 359.674615 230.466103 
L 367.38301 230.770085 
L 377.66087 230.942256 
L 398.216591 231.051738 
L 398.216591 231.051738 
" style="fill:none;stroke:#1f77b4;stroke-linecap:round;stroke-width:2.275;"/>
   </g>
   <g id="line2d_26">
    <path clip-path="url(#p4da332faef)" d="M 59.508409 231.051816 
L 94.150337 230.948159 
L 110.138919 230.544496 
L 112.803682 230.406164 
L 115.468446 230.153717 
L 120.797973 229.355899 
L 128.792264 228.024363 
L 131.457028 227.415126 
L 134.121792 226.624549 
L 136.786555 225.684335 
L 139.451319 224.610582 
L 142.116083 223.345532 
L 144.780846 221.870985 
L 147.44561 220.244522 
L 150.110374 218.452466 
L 152.775137 216.391126 
L 155.439901 213.999963 
L 158.104665 211.299147 
L 160.769428 208.360049 
L 163.434192 205.253929 
L 166.098956 201.92305 
L 168.763719 198.154664 
L 171.428483 193.794466 
L 179.422774 179.444211 
L 182.087538 174.929523 
L 184.752301 170.161918 
L 190.081829 160.038062 
L 192.746592 155.33477 
L 200.740883 142.380335 
L 208.735174 126.876512 
L 211.399938 122.29452 
L 214.064702 117.952332 
L 216.729465 114.218904 
L 219.394229 111.610382 
L 222.058992 110.04732 
L 227.38852 107.850367 
L 230.053283 106.995851 
L 232.718047 106.478032 
L 235.382811 106.529752 
L 238.047574 107.524994 
L 240.712338 109.443533 
L 243.377102 111.887306 
L 246.041865 114.619197 
L 248.706629 117.721351 
L 251.371393 121.296473 
L 262.030447 137.173035 
L 264.695211 141.664723 
L 278.019029 166.342548 
L 286.01332 181.546867 
L 291.342848 190.557797 
L 294.007611 194.817293 
L 296.672375 198.766126 
L 299.337139 202.273563 
L 302.001902 205.383938 
L 304.666666 208.216405 
L 307.33143 210.857735 
L 309.996193 213.338131 
L 312.660957 215.622851 
L 315.325721 217.669073 
L 317.990484 219.492414 
L 320.655248 221.118582 
L 323.320012 222.546606 
L 328.649539 224.987797 
L 333.979066 227.083737 
L 336.64383 227.904206 
L 339.308594 228.520502 
L 341.973357 228.951205 
L 352.632412 230.111365 
L 357.961939 230.524921 
L 365.95623 230.78358 
L 376.615285 231.038378 
L 397.933394 231.051815 
L 397.933394 231.051815 
" style="fill:none;stroke:#ff7f0e;stroke-linecap:round;stroke-width:2.275;"/>
   </g>
   <g id="patch_3">
    <path d="M 42.573 231.052 
L 42.573 34.848 
" style="fill:none;stroke:#999999;stroke-linecap:square;stroke-linejoin:miter;"/>
   </g>
   <g id="patch_4">
    <path d="M 415.152 231.052 
L 415.152 34.848 
" style="fill:none;stroke:#999999;stroke-linecap:square;stroke-linejoin:miter;"/>
   </g>
   <g id="patch_5">
    <path d="M 42.573 231.052 
L 415.152 231.052 
" style="fill:none;stroke:#999999;stroke-linecap:square;stroke-linejoin:miter;"/>
   </g>
   <g id="patch_6">
    <path d="M 42.573 34.848 
L 415.152 34.848 
" style="fill:none;stroke:#999999;stroke-linecap:square;stroke-linejoin:miter;"/>
   </g>
   <g id="text_14">
    <!-- Optimal Step Size: 0, m/M = 0.3 -->
    <defs>
     <path d="M 39.40625 66.21875 
Q 28.65625 66.21875 22.328125 58.203125 
Q 16.015625 50.203125 16.015625 36.375 
Q 16.015625 22.609375 22.328125 14.59375 
Q 28.65625 6.59375 39.40625 6.59375 
Q 50.140625 6.59375 56.421875 14.59375 
Q 62.703125 22.609375 62.703125 36.375 
Q 62.703125 50.203125 56.421875 58.203125 
Q 50.140625 66.21875 39.40625 66.21875 
z
M 39.40625 74.21875 
Q 54.734375 74.21875 63.90625 63.9375 
Q 73.09375 53.65625 73.09375 36.375 
Q 73.09375 19.140625 63.90625 8.859375 
Q 54.734375 -1.421875 39.40625 -1.421875 
Q 24.03125 -1.421875 14.8125 8.828125 
Q 5.609375 19.09375 5.609375 36.375 
Q 5.609375 53.65625 14.8125 63.9375 
Q 24.03125 74.21875 39.40625 74.21875 
z
" id="DejaVuSans-4f"/>
     <path d="M 52 44.1875 
Q 55.375 50.25 60.0625 53.125 
Q 64.75 56 71.09375 56 
Q 79.640625 56 84.28125 50.015625 
Q 88.921875 44.046875 88.921875 33.015625 
L 88.921875 0 
L 79.890625 0 
L 79.890625 32.71875 
Q 79.890625 40.578125 77.09375 44.375 
Q 74.3125 48.1875 68.609375 48.1875 
Q 61.625 48.1875 57.5625 43.546875 
Q 53.515625 38.921875 53.515625 30.90625 
L 53.515625 0 
L 44.484375 0 
L 44.484375 32.71875 
Q 44.484375 40.625 41.703125 44.40625 
Q 38.921875 48.1875 33.109375 48.1875 
Q 26.21875 48.1875 22.15625 43.53125 
Q 18.109375 38.875 18.109375 30.90625 
L 18.109375 0 
L 9.078125 0 
L 9.078125 54.6875 
L 18.109375 54.6875 
L 18.109375 46.1875 
Q 21.1875 51.21875 25.484375 53.609375 
Q 29.78125 56 35.6875 56 
Q 41.65625 56 45.828125 52.96875 
Q 50 49.953125 52 44.1875 
z
" id="DejaVuSans-6d"/>
     <path d="M 34.28125 27.484375 
Q 23.390625 27.484375 19.1875 25 
Q 14.984375 22.515625 14.984375 16.5 
Q 14.984375 11.71875 18.140625 8.90625 
Q 21.296875 6.109375 26.703125 6.109375 
Q 34.1875 6.109375 38.703125 11.40625 
Q 43.21875 16.703125 43.21875 25.484375 
L 43.21875 27.484375 
z
M 52.203125 31.203125 
L 52.203125 0 
L 43.21875 0 
L 43.21875 8.296875 
Q 40.140625 3.328125 35.546875 0.953125 
Q 30.953125 -1.421875 24.3125 -1.421875 
Q 15.921875 -1.421875 10.953125 3.296875 
Q 6 8.015625 6 15.921875 
Q 6 25.140625 12.171875 29.828125 
Q 18.359375 34.515625 30.609375 34.515625 
L 43.21875 34.515625 
L 43.21875 35.40625 
Q 43.21875 41.609375 39.140625 45 
Q 35.0625 48.390625 27.6875 48.390625 
Q 23 48.390625 18.546875 47.265625 
Q 14.109375 46.140625 10.015625 43.890625 
L 10.015625 52.203125 
Q 14.9375 54.109375 19.578125 55.046875 
Q 24.21875 56 28.609375 56 
Q 40.484375 56 46.34375 49.84375 
Q 52.203125 43.703125 52.203125 31.203125 
z
" id="DejaVuSans-61"/>
     <path d="M 9.421875 75.984375 
L 18.40625 75.984375 
L 18.40625 0 
L 9.421875 0 
z
" id="DejaVuSans-6c"/>
     <path d="M 11.71875 12.40625 
L 22.015625 12.40625 
L 22.015625 0 
L 11.71875 0 
z
M 11.71875 51.703125 
L 22.015625 51.703125 
L 22.015625 39.3125 
L 11.71875 39.3125 
z
" id="DejaVuSans-3a"/>
     <path d="M 11.71875 12.40625 
L 22.015625 12.40625 
L 22.015625 4 
L 14.015625 -11.625 
L 7.71875 -11.625 
L 11.71875 4 
z
" id="DejaVuSans-2c"/>
     <path d="M 25.390625 72.90625 
L 33.6875 72.90625 
L 8.296875 -9.28125 
L 0 -9.28125 
z
" id="DejaVuSans-2f"/>
     <path d="M 9.8125 72.90625 
L 24.515625 72.90625 
L 43.109375 23.296875 
L 61.8125 72.90625 
L 76.515625 72.90625 
L 76.515625 0 
L 66.890625 0 
L 66.890625 64.015625 
L 48.09375 14.015625 
L 38.1875 14.015625 
L 19.390625 64.015625 
L 19.390625 0 
L 9.8125 0 
z
" id="DejaVuSans-4d"/>
     <path d="M 10.59375 45.40625 
L 73.1875 45.40625 
L 73.1875 37.203125 
L 10.59375 37.203125 
z
M 10.59375 25.484375 
L 73.1875 25.484375 
L 73.1875 17.1875 
L 10.59375 17.1875 
z
" id="DejaVuSans-3d"/>
    </defs>
    <g style="fill:#262626;" transform="translate(103.38975 28.848)scale(0.156 -0.156)">
     <use xlink:href="#DejaVuSans-4f"/>
     <use x="78.710938" xlink:href="#DejaVuSans-70"/>
     <use x="142.1875" xlink:href="#DejaVuSans-74"/>
     <use x="181.396484" xlink:href="#DejaVuSans-69"/>
     <use x="209.179688" xlink:href="#DejaVuSans-6d"/>
     <use x="306.591797" xlink:href="#DejaVuSans-61"/>
     <use x="367.871094" xlink:href="#DejaVuSans-6c"/>
     <use x="395.654297" xlink:href="#DejaVuSans-20"/>
     <use x="427.441406" xlink:href="#DejaVuSans-53"/>
     <use x="490.917969" xlink:href="#DejaVuSans-74"/>
     <use x="530.126953" xlink:href="#DejaVuSans-65"/>
     <use x="591.650391" xlink:href="#DejaVuSans-70"/>
     <use x="655.126953" xlink:href="#DejaVuSans-20"/>
     <use x="686.914062" xlink:href="#DejaVuSans-53"/>
     <use x="750.390625" xlink:href="#DejaVuSans-69"/>
     <use x="778.173828" xlink:href="#DejaVuSans-7a"/>
     <use x="830.664062" xlink:href="#DejaVuSans-65"/>
     <use x="892.1875" xlink:href="#DejaVuSans-3a"/>
     <use x="925.878906" xlink:href="#DejaVuSans-20"/>
     <use x="957.666016" xlink:href="#DejaVuSans-30"/>
     <use x="1021.289062" xlink:href="#DejaVuSans-2c"/>
     <use x="1053.076172" xlink:href="#DejaVuSans-20"/>
     <use x="1084.863281" xlink:href="#DejaVuSans-6d"/>
     <use x="1182.275391" xlink:href="#DejaVuSans-2f"/>
     <use x="1215.966797" xlink:href="#DejaVuSans-4d"/>
     <use x="1302.246094" xlink:href="#DejaVuSans-20"/>
     <use x="1334.033203" xlink:href="#DejaVuSans-3d"/>
     <use x="1417.822266" xlink:href="#DejaVuSans-20"/>
     <use x="1449.609375" xlink:href="#DejaVuSans-30"/>
     <use x="1513.232422" xlink:href="#DejaVuSans-2e"/>
     <use x="1545.019531" xlink:href="#DejaVuSans-33"/>
    </g>
   </g>
   <g id="legend_1">
    <g id="line2d_27">
     <path d="M 159.275437 51.875969 
L 185.275437 51.875969 
" style="fill:none;stroke:#1f77b4;stroke-linecap:round;stroke-width:2.275;"/>
    </g>
    <g id="line2d_28"/>
    <g id="text_15">
     <!-- Uncorrected, Bias 1.7e-03 -->
     <defs>
      <path d="M 8.6875 72.90625 
L 18.609375 72.90625 
L 18.609375 28.609375 
Q 18.609375 16.890625 22.84375 11.734375 
Q 27.09375 6.59375 36.625 6.59375 
Q 46.09375 6.59375 50.34375 11.734375 
Q 54.59375 16.890625 54.59375 28.609375 
L 54.59375 72.90625 
L 64.5 72.90625 
L 64.5 27.390625 
Q 64.5 13.140625 57.4375 5.859375 
Q 50.390625 -1.421875 36.625 -1.421875 
Q 22.796875 -1.421875 15.734375 5.859375 
Q 8.6875 13.140625 8.6875 27.390625 
z
" id="DejaVuSans-55"/>
      <path d="M 54.890625 33.015625 
L 54.890625 0 
L 45.90625 0 
L 45.90625 32.71875 
Q 45.90625 40.484375 42.875 44.328125 
Q 39.84375 48.1875 33.796875 48.1875 
Q 26.515625 48.1875 22.3125 43.546875 
Q 18.109375 38.921875 18.109375 30.90625 
L 18.109375 0 
L 9.078125 0 
L 9.078125 54.6875 
L 18.109375 54.6875 
L 18.109375 46.1875 
Q 21.34375 51.125 25.703125 53.5625 
Q 30.078125 56 35.796875 56 
Q 45.21875 56 50.046875 50.171875 
Q 54.890625 44.34375 54.890625 33.015625 
z
" id="DejaVuSans-6e"/>
      <path d="M 48.78125 52.59375 
L 48.78125 44.1875 
Q 44.96875 46.296875 41.140625 47.34375 
Q 37.3125 48.390625 33.40625 48.390625 
Q 24.65625 48.390625 19.8125 42.84375 
Q 14.984375 37.3125 14.984375 27.296875 
Q 14.984375 17.28125 19.8125 11.734375 
Q 24.65625 6.203125 33.40625 6.203125 
Q 37.3125 6.203125 41.140625 7.25 
Q 44.96875 8.296875 48.78125 10.40625 
L 48.78125 2.09375 
Q 45.015625 0.34375 40.984375 -0.53125 
Q 36.96875 -1.421875 32.421875 -1.421875 
Q 20.0625 -1.421875 12.78125 6.34375 
Q 5.515625 14.109375 5.515625 27.296875 
Q 5.515625 40.671875 12.859375 48.328125 
Q 20.21875 56 33.015625 56 
Q 37.15625 56 41.109375 55.140625 
Q 45.0625 54.296875 48.78125 52.59375 
z
" id="DejaVuSans-63"/>
      <path d="M 30.609375 48.390625 
Q 23.390625 48.390625 19.1875 42.75 
Q 14.984375 37.109375 14.984375 27.296875 
Q 14.984375 17.484375 19.15625 11.84375 
Q 23.34375 6.203125 30.609375 6.203125 
Q 37.796875 6.203125 41.984375 11.859375 
Q 46.1875 17.53125 46.1875 27.296875 
Q 46.1875 37.015625 41.984375 42.703125 
Q 37.796875 48.390625 30.609375 48.390625 
z
M 30.609375 56 
Q 42.328125 56 49.015625 48.375 
Q 55.71875 40.765625 55.71875 27.296875 
Q 55.71875 13.875 49.015625 6.21875 
Q 42.328125 -1.421875 30.609375 -1.421875 
Q 18.84375 -1.421875 12.171875 6.21875 
Q 5.515625 13.875 5.515625 27.296875 
Q 5.515625 40.765625 12.171875 48.375 
Q 18.84375 56 30.609375 56 
z
" id="DejaVuSans-6f"/>
      <path d="M 41.109375 46.296875 
Q 39.59375 47.171875 37.8125 47.578125 
Q 36.03125 48 33.890625 48 
Q 26.265625 48 22.1875 43.046875 
Q 18.109375 38.09375 18.109375 28.8125 
L 18.109375 0 
L 9.078125 0 
L 9.078125 54.6875 
L 18.109375 54.6875 
L 18.109375 46.1875 
Q 20.953125 51.171875 25.484375 53.578125 
Q 30.03125 56 36.53125 56 
Q 37.453125 56 38.578125 55.875 
Q 39.703125 55.765625 41.0625 55.515625 
z
" id="DejaVuSans-72"/>
      <path d="M 45.40625 46.390625 
L 45.40625 75.984375 
L 54.390625 75.984375 
L 54.390625 0 
L 45.40625 0 
L 45.40625 8.203125 
Q 42.578125 3.328125 38.25 0.953125 
Q 33.9375 -1.421875 27.875 -1.421875 
Q 17.96875 -1.421875 11.734375 6.484375 
Q 5.515625 14.40625 5.515625 27.296875 
Q 5.515625 40.1875 11.734375 48.09375 
Q 17.96875 56 27.875 56 
Q 33.9375 56 38.25 53.625 
Q 42.578125 51.265625 45.40625 46.390625 
z
M 14.796875 27.296875 
Q 14.796875 17.390625 18.875 11.75 
Q 22.953125 6.109375 30.078125 6.109375 
Q 37.203125 6.109375 41.296875 11.75 
Q 45.40625 17.390625 45.40625 27.296875 
Q 45.40625 37.203125 41.296875 42.84375 
Q 37.203125 48.484375 30.078125 48.484375 
Q 22.953125 48.484375 18.875 42.84375 
Q 14.796875 37.203125 14.796875 27.296875 
z
" id="DejaVuSans-64"/>
      <path d="M 19.671875 34.8125 
L 19.671875 8.109375 
L 35.5 8.109375 
Q 43.453125 8.109375 47.28125 11.40625 
Q 51.125 14.703125 51.125 21.484375 
Q 51.125 28.328125 47.28125 31.5625 
Q 43.453125 34.8125 35.5 34.8125 
z
M 19.671875 64.796875 
L 19.671875 42.828125 
L 34.28125 42.828125 
Q 41.5 42.828125 45.03125 45.53125 
Q 48.578125 48.25 48.578125 53.8125 
Q 48.578125 59.328125 45.03125 62.0625 
Q 41.5 64.796875 34.28125 64.796875 
z
M 9.8125 72.90625 
L 35.015625 72.90625 
Q 46.296875 72.90625 52.390625 68.21875 
Q 58.5 63.53125 58.5 54.890625 
Q 58.5 48.1875 55.375 44.234375 
Q 52.25 40.28125 46.1875 39.3125 
Q 53.46875 37.75 57.5 32.78125 
Q 61.53125 27.828125 61.53125 20.40625 
Q 61.53125 10.640625 54.890625 5.3125 
Q 48.25 0 35.984375 0 
L 9.8125 0 
z
" id="DejaVuSans-42"/>
      <path d="M 44.28125 53.078125 
L 44.28125 44.578125 
Q 40.484375 46.53125 36.375 47.5 
Q 32.28125 48.484375 27.875 48.484375 
Q 21.1875 48.484375 17.84375 46.4375 
Q 14.5 44.390625 14.5 40.28125 
Q 14.5 37.15625 16.890625 35.375 
Q 19.28125 33.59375 26.515625 31.984375 
L 29.59375 31.296875 
Q 39.15625 29.25 43.1875 25.515625 
Q 47.21875 21.78125 47.21875 15.09375 
Q 47.21875 7.46875 41.1875 3.015625 
Q 35.15625 -1.421875 24.609375 -1.421875 
Q 20.21875 -1.421875 15.453125 -0.5625 
Q 10.6875 0.296875 5.421875 2 
L 5.421875 11.28125 
Q 10.40625 8.6875 15.234375 7.390625 
Q 20.0625 6.109375 24.8125 6.109375 
Q 31.15625 6.109375 34.5625 8.28125 
Q 37.984375 10.453125 37.984375 14.40625 
Q 37.984375 18.0625 35.515625 20.015625 
Q 33.0625 21.96875 24.703125 23.78125 
L 21.578125 24.515625 
Q 13.234375 26.265625 9.515625 29.90625 
Q 5.8125 33.546875 5.8125 39.890625 
Q 5.8125 47.609375 11.28125 51.796875 
Q 16.75 56 26.8125 56 
Q 31.78125 56 36.171875 55.265625 
Q 40.578125 54.546875 44.28125 53.078125 
z
" id="DejaVuSans-73"/>
      <path d="M 8.203125 72.90625 
L 55.078125 72.90625 
L 55.078125 68.703125 
L 28.609375 0 
L 18.3125 0 
L 43.21875 64.59375 
L 8.203125 64.59375 
z
" id="DejaVuSans-37"/>
      <path d="M 4.890625 31.390625 
L 31.203125 31.390625 
L 31.203125 23.390625 
L 4.890625 23.390625 
z
" id="DejaVuSans-2d"/>
     </defs>
     <g style="fill:#262626;" transform="translate(195.675437 56.425969)scale(0.13 -0.13)">
      <use xlink:href="#DejaVuSans-55"/>
      <use x="73.193359" xlink:href="#DejaVuSans-6e"/>
      <use x="136.572266" xlink:href="#DejaVuSans-63"/>
      <use x="191.552734" xlink:href="#DejaVuSans-6f"/>
      <use x="252.734375" xlink:href="#DejaVuSans-72"/>
      <use x="293.832031" xlink:href="#DejaVuSans-72"/>
      <use x="334.914062" xlink:href="#DejaVuSans-65"/>
      <use x="396.4375" xlink:href="#DejaVuSans-63"/>
      <use x="451.417969" xlink:href="#DejaVuSans-74"/>
      <use x="490.626953" xlink:href="#DejaVuSans-65"/>
      <use x="552.150391" xlink:href="#DejaVuSans-64"/>
      <use x="615.626953" xlink:href="#DejaVuSans-2c"/>
      <use x="647.414062" xlink:href="#DejaVuSans-20"/>
      <use x="679.201172" xlink:href="#DejaVuSans-42"/>
      <use x="747.804688" xlink:href="#DejaVuSans-69"/>
      <use x="775.587891" xlink:href="#DejaVuSans-61"/>
      <use x="836.867188" xlink:href="#DejaVuSans-73"/>
      <use x="888.966797" xlink:href="#DejaVuSans-20"/>
      <use x="920.753906" xlink:href="#DejaVuSans-31"/>
      <use x="984.376953" xlink:href="#DejaVuSans-2e"/>
      <use x="1016.164062" xlink:href="#DejaVuSans-37"/>
      <use x="1079.787109" xlink:href="#DejaVuSans-65"/>
      <use x="1141.310547" xlink:href="#DejaVuSans-2d"/>
      <use x="1177.394531" xlink:href="#DejaVuSans-30"/>
      <use x="1241.017578" xlink:href="#DejaVuSans-33"/>
     </g>
    </g>
    <g id="line2d_29">
     <path d="M 159.275437 70.957531 
L 185.275437 70.957531 
" style="fill:none;stroke:#ff7f0e;stroke-linecap:round;stroke-width:2.275;"/>
    </g>
    <g id="line2d_30"/>
    <g id="text_16">
     <!-- 1 Term Correction, Bias 2.7e-04 -->
     <defs>
      <path d="M -0.296875 72.90625 
L 61.375 72.90625 
L 61.375 64.59375 
L 35.5 64.59375 
L 35.5 0 
L 25.59375 0 
L 25.59375 64.59375 
L -0.296875 64.59375 
z
" id="DejaVuSans-54"/>
      <path d="M 64.40625 67.28125 
L 64.40625 56.890625 
Q 59.421875 61.53125 53.78125 63.8125 
Q 48.140625 66.109375 41.796875 66.109375 
Q 29.296875 66.109375 22.65625 58.46875 
Q 16.015625 50.828125 16.015625 36.375 
Q 16.015625 21.96875 22.65625 14.328125 
Q 29.296875 6.6875 41.796875 6.6875 
Q 48.140625 6.6875 53.78125 8.984375 
Q 59.421875 11.28125 64.40625 15.921875 
L 64.40625 5.609375 
Q 59.234375 2.09375 53.4375 0.328125 
Q 47.65625 -1.421875 41.21875 -1.421875 
Q 24.65625 -1.421875 15.125 8.703125 
Q 5.609375 18.84375 5.609375 36.375 
Q 5.609375 53.953125 15.125 64.078125 
Q 24.65625 74.21875 41.21875 74.21875 
Q 47.75 74.21875 53.53125 72.484375 
Q 59.328125 70.75 64.40625 67.28125 
z
" id="DejaVuSans-43"/>
     </defs>
     <g style="fill:#262626;" transform="translate(195.675437 75.507531)scale(0.13 -0.13)">
      <use xlink:href="#DejaVuSans-31"/>
      <use x="63.623047" xlink:href="#DejaVuSans-20"/>
      <use x="95.410156" xlink:href="#DejaVuSans-54"/>
      <use x="156.228516" xlink:href="#DejaVuSans-65"/>
      <use x="217.751953" xlink:href="#DejaVuSans-72"/>
      <use x="258.849609" xlink:href="#DejaVuSans-6d"/>
      <use x="356.261719" xlink:href="#DejaVuSans-20"/>
      <use x="388.048828" xlink:href="#DejaVuSans-43"/>
      <use x="457.873047" xlink:href="#DejaVuSans-6f"/>
      <use x="519.054688" xlink:href="#DejaVuSans-72"/>
      <use x="560.152344" xlink:href="#DejaVuSans-72"/>
      <use x="601.234375" xlink:href="#DejaVuSans-65"/>
      <use x="662.757812" xlink:href="#DejaVuSans-63"/>
      <use x="717.738281" xlink:href="#DejaVuSans-74"/>
      <use x="756.947266" xlink:href="#DejaVuSans-69"/>
      <use x="784.730469" xlink:href="#DejaVuSans-6f"/>
      <use x="845.912109" xlink:href="#DejaVuSans-6e"/>
      <use x="909.291016" xlink:href="#DejaVuSans-2c"/>
      <use x="941.078125" xlink:href="#DejaVuSans-20"/>
      <use x="972.865234" xlink:href="#DejaVuSans-42"/>
      <use x="1041.46875" xlink:href="#DejaVuSans-69"/>
      <use x="1069.251953" xlink:href="#DejaVuSans-61"/>
      <use x="1130.53125" xlink:href="#DejaVuSans-73"/>
      <use x="1182.630859" xlink:href="#DejaVuSans-20"/>
      <use x="1214.417969" xlink:href="#DejaVuSans-32"/>
      <use x="1278.041016" xlink:href="#DejaVuSans-2e"/>
      <use x="1309.828125" xlink:href="#DejaVuSans-37"/>
      <use x="1373.451172" xlink:href="#DejaVuSans-65"/>
      <use x="1434.974609" xlink:href="#DejaVuSans-2d"/>
      <use x="1471.058594" xlink:href="#DejaVuSans-30"/>
      <use x="1534.681641" xlink:href="#DejaVuSans-34"/>
     </g>
    </g>
   </g>
  </g>
 </g>
 <defs>
  <clipPath id="p4da332faef">
   <rect height="196.204" width="372.579" x="42.573" y="34.848"/>
  </clipPath>
 </defs>
</svg>
