<?xml version="1.0" encoding="utf-8" standalone="no"?>
<!DOCTYPE svg PUBLIC "-//W3C//DTD SVG 1.1//EN"
  "http://www.w3.org/Graphics/SVG/1.1/DTD/svg11.dtd">
<!-- Created with matplotlib (http://matplotlib.org/) -->
<svg height="288pt" version="1.1" viewBox="0 0 432 288" width="432pt" xmlns="http://www.w3.org/2000/svg" xmlns:xlink="http://www.w3.org/1999/xlink">
 <defs>
  <style type="text/css">
*{stroke-linecap:butt;stroke-linejoin:round;}
  </style>
 </defs>
 <g id="figure_1">
  <g id="patch_1">
   <path d="M 0 288 
L 432 288 
L 432 0 
L 0 0 
z
" style="fill:none;"/>
  </g>
  <g id="axes_1">
   <g id="patch_2">
    <path d="M 50.823 231.052 
L 415.152 231.052 
L 415.152 34.848 
L 50.823 34.848 
z
" style="fill:none;"/>
   </g>
   <g id="matplotlib.axis_1">
    <g id="xtick_1">
     <g id="line2d_1">
      <path clip-path="url(#p72fe91028b)" d="M 91.790342 231.052 
L 91.790342 34.848 
" style="fill:none;stroke:#999999;stroke-linecap:round;stroke-width:1.3;"/>
     </g>
     <g id="line2d_2"/>
     <g id="text_1">
      <!-- −0.06 -->
      <defs>
       <path d="M 10.59375 35.5 
L 73.1875 35.5 
L 73.1875 27.203125 
L 10.59375 27.203125 
z
" id="DejaVuSans-2212"/>
       <path d="M 31.78125 66.40625 
Q 24.171875 66.40625 20.328125 58.90625 
Q 16.5 51.421875 16.5 36.375 
Q 16.5 21.390625 20.328125 13.890625 
Q 24.171875 6.390625 31.78125 6.390625 
Q 39.453125 6.390625 43.28125 13.890625 
Q 47.125 21.390625 47.125 36.375 
Q 47.125 51.421875 43.28125 58.90625 
Q 39.453125 66.40625 31.78125 66.40625 
z
M 31.78125 74.21875 
Q 44.046875 74.21875 50.515625 64.515625 
Q 56.984375 54.828125 56.984375 36.375 
Q 56.984375 17.96875 50.515625 8.265625 
Q 44.046875 -1.421875 31.78125 -1.421875 
Q 19.53125 -1.421875 13.0625 8.265625 
Q 6.59375 17.96875 6.59375 36.375 
Q 6.59375 54.828125 13.0625 64.515625 
Q 19.53125 74.21875 31.78125 74.21875 
z
" id="DejaVuSans-30"/>
       <path d="M 10.6875 12.40625 
L 21 12.40625 
L 21 0 
L 10.6875 0 
z
" id="DejaVuSans-2e"/>
       <path d="M 33.015625 40.375 
Q 26.375 40.375 22.484375 35.828125 
Q 18.609375 31.296875 18.609375 23.390625 
Q 18.609375 15.53125 22.484375 10.953125 
Q 26.375 6.390625 33.015625 6.390625 
Q 39.65625 6.390625 43.53125 10.953125 
Q 47.40625 15.53125 47.40625 23.390625 
Q 47.40625 31.296875 43.53125 35.828125 
Q 39.65625 40.375 33.015625 40.375 
z
M 52.59375 71.296875 
L 52.59375 62.3125 
Q 48.875 64.0625 45.09375 64.984375 
Q 41.3125 65.921875 37.59375 65.921875 
Q 27.828125 65.921875 22.671875 59.328125 
Q 17.53125 52.734375 16.796875 39.40625 
Q 19.671875 43.65625 24.015625 45.921875 
Q 28.375 48.1875 33.59375 48.1875 
Q 44.578125 48.1875 50.953125 41.515625 
Q 57.328125 34.859375 57.328125 23.390625 
Q 57.328125 12.15625 50.6875 5.359375 
Q 44.046875 -1.421875 33.015625 -1.421875 
Q 20.359375 -1.421875 13.671875 8.265625 
Q 6.984375 17.96875 6.984375 36.375 
Q 6.984375 53.65625 15.1875 63.9375 
Q 23.390625 74.21875 37.203125 74.21875 
Q 40.921875 74.21875 44.703125 73.484375 
Q 48.484375 72.75 52.59375 71.296875 
z
" id="DejaVuSans-36"/>
      </defs>
      <g style="fill:#262626;" transform="translate(71.870889 250.029969)scale(0.13 -0.13)">
       <use xlink:href="#DejaVuSans-2212"/>
       <use x="83.789062" xlink:href="#DejaVuSans-30"/>
       <use x="147.412109" xlink:href="#DejaVuSans-2e"/>
       <use x="179.199219" xlink:href="#DejaVuSans-30"/>
       <use x="242.822266" xlink:href="#DejaVuSans-36"/>
      </g>
     </g>
    </g>
    <g id="xtick_2">
     <g id="line2d_3">
      <path clip-path="url(#p72fe91028b)" d="M 139.217616 231.052 
L 139.217616 34.848 
" style="fill:none;stroke:#999999;stroke-linecap:round;stroke-width:1.3;"/>
     </g>
     <g id="line2d_4"/>
     <g id="text_2">
      <!-- −0.04 -->
      <defs>
       <path d="M 37.796875 64.3125 
L 12.890625 25.390625 
L 37.796875 25.390625 
z
M 35.203125 72.90625 
L 47.609375 72.90625 
L 47.609375 25.390625 
L 58.015625 25.390625 
L 58.015625 17.1875 
L 47.609375 17.1875 
L 47.609375 0 
L 37.796875 0 
L 37.796875 17.1875 
L 4.890625 17.1875 
L 4.890625 26.703125 
z
" id="DejaVuSans-34"/>
      </defs>
      <g style="fill:#262626;" transform="translate(119.298163 250.029969)scale(0.13 -0.13)">
       <use xlink:href="#DejaVuSans-2212"/>
       <use x="83.789062" xlink:href="#DejaVuSans-30"/>
       <use x="147.412109" xlink:href="#DejaVuSans-2e"/>
       <use x="179.199219" xlink:href="#DejaVuSans-30"/>
       <use x="242.822266" xlink:href="#DejaVuSans-34"/>
      </g>
     </g>
    </g>
    <g id="xtick_3">
     <g id="line2d_5">
      <path clip-path="url(#p72fe91028b)" d="M 186.644891 231.052 
L 186.644891 34.848 
" style="fill:none;stroke:#999999;stroke-linecap:round;stroke-width:1.3;"/>
     </g>
     <g id="line2d_6"/>
     <g id="text_3">
      <!-- −0.02 -->
      <defs>
       <path d="M 19.1875 8.296875 
L 53.609375 8.296875 
L 53.609375 0 
L 7.328125 0 
L 7.328125 8.296875 
Q 12.9375 14.109375 22.625 23.890625 
Q 32.328125 33.6875 34.8125 36.53125 
Q 39.546875 41.84375 41.421875 45.53125 
Q 43.3125 49.21875 43.3125 52.78125 
Q 43.3125 58.59375 39.234375 62.25 
Q 35.15625 65.921875 28.609375 65.921875 
Q 23.96875 65.921875 18.8125 64.3125 
Q 13.671875 62.703125 7.8125 59.421875 
L 7.8125 69.390625 
Q 13.765625 71.78125 18.9375 73 
Q 24.125 74.21875 28.421875 74.21875 
Q 39.75 74.21875 46.484375 68.546875 
Q 53.21875 62.890625 53.21875 53.421875 
Q 53.21875 48.921875 51.53125 44.890625 
Q 49.859375 40.875 45.40625 35.40625 
Q 44.1875 33.984375 37.640625 27.21875 
Q 31.109375 20.453125 19.1875 8.296875 
z
" id="DejaVuSans-32"/>
      </defs>
      <g style="fill:#262626;" transform="translate(166.725437 250.029969)scale(0.13 -0.13)">
       <use xlink:href="#DejaVuSans-2212"/>
       <use x="83.789062" xlink:href="#DejaVuSans-30"/>
       <use x="147.412109" xlink:href="#DejaVuSans-2e"/>
       <use x="179.199219" xlink:href="#DejaVuSans-30"/>
       <use x="242.822266" xlink:href="#DejaVuSans-32"/>
      </g>
     </g>
    </g>
    <g id="xtick_4">
     <g id="line2d_7">
      <path clip-path="url(#p72fe91028b)" d="M 234.072165 231.052 
L 234.072165 34.848 
" style="fill:none;stroke:#999999;stroke-linecap:round;stroke-width:1.3;"/>
     </g>
     <g id="line2d_8"/>
     <g id="text_4">
      <!-- 0.00 -->
      <g style="fill:#262626;" transform="translate(219.599508 250.029969)scale(0.13 -0.13)">
       <use xlink:href="#DejaVuSans-30"/>
       <use x="63.623047" xlink:href="#DejaVuSans-2e"/>
       <use x="95.410156" xlink:href="#DejaVuSans-30"/>
       <use x="159.033203" xlink:href="#DejaVuSans-30"/>
      </g>
     </g>
    </g>
    <g id="xtick_5">
     <g id="line2d_9">
      <path clip-path="url(#p72fe91028b)" d="M 281.499439 231.052 
L 281.499439 34.848 
" style="fill:none;stroke:#999999;stroke-linecap:round;stroke-width:1.3;"/>
     </g>
     <g id="line2d_10"/>
     <g id="text_5">
      <!-- 0.02 -->
      <g style="fill:#262626;" transform="translate(267.026782 250.029969)scale(0.13 -0.13)">
       <use xlink:href="#DejaVuSans-30"/>
       <use x="63.623047" xlink:href="#DejaVuSans-2e"/>
       <use x="95.410156" xlink:href="#DejaVuSans-30"/>
       <use x="159.033203" xlink:href="#DejaVuSans-32"/>
      </g>
     </g>
    </g>
    <g id="xtick_6">
     <g id="line2d_11">
      <path clip-path="url(#p72fe91028b)" d="M 328.926713 231.052 
L 328.926713 34.848 
" style="fill:none;stroke:#999999;stroke-linecap:round;stroke-width:1.3;"/>
     </g>
     <g id="line2d_12"/>
     <g id="text_6">
      <!-- 0.04 -->
      <g style="fill:#262626;" transform="translate(314.454056 250.029969)scale(0.13 -0.13)">
       <use xlink:href="#DejaVuSans-30"/>
       <use x="63.623047" xlink:href="#DejaVuSans-2e"/>
       <use x="95.410156" xlink:href="#DejaVuSans-30"/>
       <use x="159.033203" xlink:href="#DejaVuSans-34"/>
      </g>
     </g>
    </g>
    <g id="xtick_7">
     <g id="line2d_13">
      <path clip-path="url(#p72fe91028b)" d="M 376.353987 231.052 
L 376.353987 34.848 
" style="fill:none;stroke:#999999;stroke-linecap:round;stroke-width:1.3;"/>
     </g>
     <g id="line2d_14"/>
     <g id="text_7">
      <!-- 0.06 -->
      <g style="fill:#262626;" transform="translate(361.88133 250.029969)scale(0.13 -0.13)">
       <use xlink:href="#DejaVuSans-30"/>
       <use x="63.623047" xlink:href="#DejaVuSans-2e"/>
       <use x="95.410156" xlink:href="#DejaVuSans-30"/>
       <use x="159.033203" xlink:href="#DejaVuSans-36"/>
      </g>
     </g>
    </g>
    <g id="text_8">
     <!-- Step Size -->
     <defs>
      <path d="M 53.515625 70.515625 
L 53.515625 60.890625 
Q 47.90625 63.578125 42.921875 64.890625 
Q 37.9375 66.21875 33.296875 66.21875 
Q 25.25 66.21875 20.875 63.09375 
Q 16.5 59.96875 16.5 54.203125 
Q 16.5 49.359375 19.40625 46.890625 
Q 22.3125 44.4375 30.421875 42.921875 
L 36.375 41.703125 
Q 47.40625 39.59375 52.65625 34.296875 
Q 57.90625 29 57.90625 20.125 
Q 57.90625 9.515625 50.796875 4.046875 
Q 43.703125 -1.421875 29.984375 -1.421875 
Q 24.8125 -1.421875 18.96875 -0.25 
Q 13.140625 0.921875 6.890625 3.21875 
L 6.890625 13.375 
Q 12.890625 10.015625 18.65625 8.296875 
Q 24.421875 6.59375 29.984375 6.59375 
Q 38.421875 6.59375 43.015625 9.90625 
Q 47.609375 13.234375 47.609375 19.390625 
Q 47.609375 24.75 44.3125 27.78125 
Q 41.015625 30.8125 33.5 32.328125 
L 27.484375 33.5 
Q 16.453125 35.6875 11.515625 40.375 
Q 6.59375 45.0625 6.59375 53.421875 
Q 6.59375 63.09375 13.40625 68.65625 
Q 20.21875 74.21875 32.171875 74.21875 
Q 37.3125 74.21875 42.625 73.28125 
Q 47.953125 72.359375 53.515625 70.515625 
z
" id="DejaVuSans-53"/>
      <path d="M 18.3125 70.21875 
L 18.3125 54.6875 
L 36.8125 54.6875 
L 36.8125 47.703125 
L 18.3125 47.703125 
L 18.3125 18.015625 
Q 18.3125 11.328125 20.140625 9.421875 
Q 21.96875 7.515625 27.59375 7.515625 
L 36.8125 7.515625 
L 36.8125 0 
L 27.59375 0 
Q 17.1875 0 13.234375 3.875 
Q 9.28125 7.765625 9.28125 18.015625 
L 9.28125 47.703125 
L 2.6875 47.703125 
L 2.6875 54.6875 
L 9.28125 54.6875 
L 9.28125 70.21875 
z
" id="DejaVuSans-74"/>
      <path d="M 56.203125 29.59375 
L 56.203125 25.203125 
L 14.890625 25.203125 
Q 15.484375 15.921875 20.484375 11.0625 
Q 25.484375 6.203125 34.421875 6.203125 
Q 39.59375 6.203125 44.453125 7.46875 
Q 49.3125 8.734375 54.109375 11.28125 
L 54.109375 2.78125 
Q 49.265625 0.734375 44.1875 -0.34375 
Q 39.109375 -1.421875 33.890625 -1.421875 
Q 20.796875 -1.421875 13.15625 6.1875 
Q 5.515625 13.8125 5.515625 26.8125 
Q 5.515625 40.234375 12.765625 48.109375 
Q 20.015625 56 32.328125 56 
Q 43.359375 56 49.78125 48.890625 
Q 56.203125 41.796875 56.203125 29.59375 
z
M 47.21875 32.234375 
Q 47.125 39.59375 43.09375 43.984375 
Q 39.0625 48.390625 32.421875 48.390625 
Q 24.90625 48.390625 20.390625 44.140625 
Q 15.875 39.890625 15.1875 32.171875 
z
" id="DejaVuSans-65"/>
      <path d="M 18.109375 8.203125 
L 18.109375 -20.796875 
L 9.078125 -20.796875 
L 9.078125 54.6875 
L 18.109375 54.6875 
L 18.109375 46.390625 
Q 20.953125 51.265625 25.265625 53.625 
Q 29.59375 56 35.59375 56 
Q 45.5625 56 51.78125 48.09375 
Q 58.015625 40.1875 58.015625 27.296875 
Q 58.015625 14.40625 51.78125 6.484375 
Q 45.5625 -1.421875 35.59375 -1.421875 
Q 29.59375 -1.421875 25.265625 0.953125 
Q 20.953125 3.328125 18.109375 8.203125 
z
M 48.6875 27.296875 
Q 48.6875 37.203125 44.609375 42.84375 
Q 40.53125 48.484375 33.40625 48.484375 
Q 26.265625 48.484375 22.1875 42.84375 
Q 18.109375 37.203125 18.109375 27.296875 
Q 18.109375 17.390625 22.1875 11.75 
Q 26.265625 6.109375 33.40625 6.109375 
Q 40.53125 6.109375 44.609375 11.75 
Q 48.6875 17.390625 48.6875 27.296875 
z
" id="DejaVuSans-70"/>
      <path id="DejaVuSans-20"/>
      <path d="M 9.421875 54.6875 
L 18.40625 54.6875 
L 18.40625 0 
L 9.421875 0 
z
M 9.421875 75.984375 
L 18.40625 75.984375 
L 18.40625 64.59375 
L 9.421875 64.59375 
z
" id="DejaVuSans-69"/>
      <path d="M 5.515625 54.6875 
L 48.1875 54.6875 
L 48.1875 46.484375 
L 14.40625 7.171875 
L 48.1875 7.171875 
L 48.1875 0 
L 4.296875 0 
L 4.296875 8.203125 
L 38.09375 47.515625 
L 5.515625 47.515625 
z
" id="DejaVuSans-7a"/>
     </defs>
     <g style="fill:#262626;" transform="translate(199.756758 267.599328)scale(0.143 -0.143)">
      <use xlink:href="#DejaVuSans-53"/>
      <use x="63.476562" xlink:href="#DejaVuSans-74"/>
      <use x="102.685547" xlink:href="#DejaVuSans-65"/>
      <use x="164.208984" xlink:href="#DejaVuSans-70"/>
      <use x="227.685547" xlink:href="#DejaVuSans-20"/>
      <use x="259.472656" xlink:href="#DejaVuSans-53"/>
      <use x="322.949219" xlink:href="#DejaVuSans-69"/>
      <use x="350.732422" xlink:href="#DejaVuSans-7a"/>
      <use x="403.222656" xlink:href="#DejaVuSans-65"/>
     </g>
    </g>
   </g>
   <g id="matplotlib.axis_2">
    <g id="ytick_1">
     <g id="line2d_15">
      <path clip-path="url(#p72fe91028b)" d="M 50.823 231.052 
L 415.152 231.052 
" style="fill:none;stroke:#999999;stroke-linecap:round;stroke-width:1.3;"/>
     </g>
     <g id="line2d_16"/>
     <g id="text_9">
      <!-- 0 -->
      <g style="fill:#262626;" transform="translate(33.45175 235.990984)scale(0.13 -0.13)">
       <use xlink:href="#DejaVuSans-30"/>
      </g>
     </g>
    </g>
    <g id="ytick_2">
     <g id="line2d_17">
      <path clip-path="url(#p72fe91028b)" d="M 50.823 196.489279 
L 415.152 196.489279 
" style="fill:none;stroke:#999999;stroke-linecap:round;stroke-width:1.3;"/>
     </g>
     <g id="line2d_18"/>
     <g id="text_10">
      <!-- 20 -->
      <g style="fill:#262626;" transform="translate(25.1805 201.428264)scale(0.13 -0.13)">
       <use xlink:href="#DejaVuSans-32"/>
       <use x="63.623047" xlink:href="#DejaVuSans-30"/>
      </g>
     </g>
    </g>
    <g id="ytick_3">
     <g id="line2d_19">
      <path clip-path="url(#p72fe91028b)" d="M 50.823 161.926559 
L 415.152 161.926559 
" style="fill:none;stroke:#999999;stroke-linecap:round;stroke-width:1.3;"/>
     </g>
     <g id="line2d_20"/>
     <g id="text_11">
      <!-- 40 -->
      <g style="fill:#262626;" transform="translate(25.1805 166.865543)scale(0.13 -0.13)">
       <use xlink:href="#DejaVuSans-34"/>
       <use x="63.623047" xlink:href="#DejaVuSans-30"/>
      </g>
     </g>
    </g>
    <g id="ytick_4">
     <g id="line2d_21">
      <path clip-path="url(#p72fe91028b)" d="M 50.823 127.363838 
L 415.152 127.363838 
" style="fill:none;stroke:#999999;stroke-linecap:round;stroke-width:1.3;"/>
     </g>
     <g id="line2d_22"/>
     <g id="text_12">
      <!-- 60 -->
      <g style="fill:#262626;" transform="translate(25.1805 132.302822)scale(0.13 -0.13)">
       <use xlink:href="#DejaVuSans-36"/>
       <use x="63.623047" xlink:href="#DejaVuSans-30"/>
      </g>
     </g>
    </g>
    <g id="ytick_5">
     <g id="line2d_23">
      <path clip-path="url(#p72fe91028b)" d="M 50.823 92.801117 
L 415.152 92.801117 
" style="fill:none;stroke:#999999;stroke-linecap:round;stroke-width:1.3;"/>
     </g>
     <g id="line2d_24"/>
     <g id="text_13">
      <!-- 80 -->
      <defs>
       <path d="M 31.78125 34.625 
Q 24.75 34.625 20.71875 30.859375 
Q 16.703125 27.09375 16.703125 20.515625 
Q 16.703125 13.921875 20.71875 10.15625 
Q 24.75 6.390625 31.78125 6.390625 
Q 38.8125 6.390625 42.859375 10.171875 
Q 46.921875 13.96875 46.921875 20.515625 
Q 46.921875 27.09375 42.890625 30.859375 
Q 38.875 34.625 31.78125 34.625 
z
M 21.921875 38.8125 
Q 15.578125 40.375 12.03125 44.71875 
Q 8.5 49.078125 8.5 55.328125 
Q 8.5 64.0625 14.71875 69.140625 
Q 20.953125 74.21875 31.78125 74.21875 
Q 42.671875 74.21875 48.875 69.140625 
Q 55.078125 64.0625 55.078125 55.328125 
Q 55.078125 49.078125 51.53125 44.71875 
Q 48 40.375 41.703125 38.8125 
Q 48.828125 37.15625 52.796875 32.3125 
Q 56.78125 27.484375 56.78125 20.515625 
Q 56.78125 9.90625 50.3125 4.234375 
Q 43.84375 -1.421875 31.78125 -1.421875 
Q 19.734375 -1.421875 13.25 4.234375 
Q 6.78125 9.90625 6.78125 20.515625 
Q 6.78125 27.484375 10.78125 32.3125 
Q 14.796875 37.15625 21.921875 38.8125 
z
M 18.3125 54.390625 
Q 18.3125 48.734375 21.84375 45.5625 
Q 25.390625 42.390625 31.78125 42.390625 
Q 38.140625 42.390625 41.71875 45.5625 
Q 45.3125 48.734375 45.3125 54.390625 
Q 45.3125 60.0625 41.71875 63.234375 
Q 38.140625 66.40625 31.78125 66.40625 
Q 25.390625 66.40625 21.84375 63.234375 
Q 18.3125 60.0625 18.3125 54.390625 
z
" id="DejaVuSans-38"/>
      </defs>
      <g style="fill:#262626;" transform="translate(25.1805 97.740102)scale(0.13 -0.13)">
       <use xlink:href="#DejaVuSans-38"/>
       <use x="63.623047" xlink:href="#DejaVuSans-30"/>
      </g>
     </g>
    </g>
    <g id="ytick_6">
     <g id="line2d_25">
      <path clip-path="url(#p72fe91028b)" d="M 50.823 58.238396 
L 415.152 58.238396 
" style="fill:none;stroke:#999999;stroke-linecap:round;stroke-width:1.3;"/>
     </g>
     <g id="line2d_26"/>
     <g id="text_14">
      <!-- 100 -->
      <defs>
       <path d="M 12.40625 8.296875 
L 28.515625 8.296875 
L 28.515625 63.921875 
L 10.984375 60.40625 
L 10.984375 69.390625 
L 28.421875 72.90625 
L 38.28125 72.90625 
L 38.28125 8.296875 
L 54.390625 8.296875 
L 54.390625 0 
L 12.40625 0 
z
" id="DejaVuSans-31"/>
      </defs>
      <g style="fill:#262626;" transform="translate(16.90925 63.177381)scale(0.13 -0.13)">
       <use xlink:href="#DejaVuSans-31"/>
       <use x="63.623047" xlink:href="#DejaVuSans-30"/>
       <use x="127.246094" xlink:href="#DejaVuSans-30"/>
      </g>
     </g>
    </g>
   </g>
   <g id="PolyCollection_1">
    <path clip-path="url(#p72fe91028b)" d="M 166.883306 231.051871 
L 166.883306 231.052 
L 167.914908 231.052 
L 168.94651 231.052 
L 169.978112 231.052 
L 171.009714 231.052 
L 172.041317 231.052 
L 173.072919 231.052 
L 174.104521 231.052 
L 175.136123 231.052 
L 176.167726 231.052 
L 177.199328 231.052 
L 178.23093 231.052 
L 179.262532 231.052 
L 180.294134 231.052 
L 181.325737 231.052 
L 182.357339 231.052 
L 183.388941 231.052 
L 184.420543 231.052 
L 185.452146 231.052 
L 186.483748 231.052 
L 187.51535 231.052 
L 188.546952 231.052 
L 189.578554 231.052 
L 190.610157 231.052 
L 191.641759 231.052 
L 192.673361 231.052 
L 193.704963 231.052 
L 194.736566 231.052 
L 195.768168 231.052 
L 196.79977 231.052 
L 197.831372 231.052 
L 198.862975 231.052 
L 199.894577 231.052 
L 200.926179 231.052 
L 201.957781 231.052 
L 202.989383 231.052 
L 204.020986 231.052 
L 205.052588 231.052 
L 206.08419 231.052 
L 207.115792 231.052 
L 208.147395 231.052 
L 209.178997 231.052 
L 210.210599 231.052 
L 211.242201 231.052 
L 212.273803 231.052 
L 213.305406 231.052 
L 214.337008 231.052 
L 215.36861 231.052 
L 216.400212 231.052 
L 217.431815 231.052 
L 218.463417 231.052 
L 219.495019 231.052 
L 220.526621 231.052 
L 221.558223 231.052 
L 222.589826 231.052 
L 223.621428 231.052 
L 224.65303 231.052 
L 225.684632 231.052 
L 226.716235 231.052 
L 227.747837 231.052 
L 228.779439 231.052 
L 229.811041 231.052 
L 230.842644 231.052 
L 231.874246 231.052 
L 232.905848 231.052 
L 233.93745 231.052 
L 234.969052 231.052 
L 236.000655 231.052 
L 237.032257 231.052 
L 238.063859 231.052 
L 239.095461 231.052 
L 240.127064 231.052 
L 241.158666 231.052 
L 242.190268 231.052 
L 243.22187 231.052 
L 244.253472 231.052 
L 245.285075 231.052 
L 246.316677 231.052 
L 247.348279 231.052 
L 248.379881 231.052 
L 249.411484 231.052 
L 250.443086 231.052 
L 251.474688 231.052 
L 252.50629 231.052 
L 253.537892 231.052 
L 254.569495 231.052 
L 255.601097 231.052 
L 256.632699 231.052 
L 257.664301 231.052 
L 258.695904 231.052 
L 259.727506 231.052 
L 260.759108 231.052 
L 261.79071 231.052 
L 262.822313 231.052 
L 263.853915 231.052 
L 264.885517 231.052 
L 265.917119 231.052 
L 266.948721 231.052 
L 267.980324 231.052 
L 269.011926 231.052 
L 270.043528 231.052 
L 271.07513 231.052 
L 272.106733 231.052 
L 273.138335 231.052 
L 274.169937 231.052 
L 275.201539 231.052 
L 276.233141 231.052 
L 277.264744 231.052 
L 278.296346 231.052 
L 279.327948 231.052 
L 280.35955 231.052 
L 281.391153 231.052 
L 282.422755 231.052 
L 283.454357 231.052 
L 284.485959 231.052 
L 285.517561 231.052 
L 286.549164 231.052 
L 287.580766 231.052 
L 288.612368 231.052 
L 289.64397 231.052 
L 290.675573 231.052 
L 291.707175 231.052 
L 292.738777 231.052 
L 293.770379 231.052 
L 294.801982 231.052 
L 295.833584 231.052 
L 296.865186 231.052 
L 297.896788 231.052 
L 297.896788 231.051777 
L 297.896788 231.051777 
L 296.865186 231.050398 
L 295.833584 231.044732 
L 294.801982 231.031695 
L 293.770379 231.014582 
L 292.738777 230.999641 
L 291.707175 230.986388 
L 290.675573 230.974184 
L 289.64397 230.966419 
L 288.612368 230.961898 
L 287.580766 230.949864 
L 286.549164 230.920855 
L 285.517561 230.879856 
L 284.485959 230.835675 
L 283.454357 230.792349 
L 282.422755 230.744167 
L 281.391153 230.663183 
L 280.35955 230.525607 
L 279.327948 230.360136 
L 278.296346 230.222481 
L 277.264744 230.112148 
L 276.233141 229.949849 
L 275.201539 229.65902 
L 274.169937 229.249428 
L 273.138335 228.77786 
L 272.106733 228.242007 
L 271.07513 227.600691 
L 270.043528 226.879466 
L 269.011926 226.115382 
L 267.980324 225.219196 
L 266.948721 224.075315 
L 265.917119 222.703883 
L 264.885517 221.183234 
L 263.853915 219.485453 
L 262.822313 217.459765 
L 261.79071 215.07665 
L 260.759108 212.433797 
L 259.727506 209.554302 
L 258.695904 206.474295 
L 257.664301 203.293362 
L 256.632699 200.000939 
L 255.601097 196.329614 
L 254.569495 192.034073 
L 253.537892 187.239947 
L 252.50629 182.238393 
L 251.474688 177.051322 
L 250.443086 171.578982 
L 249.411484 166.149149 
L 248.379881 160.911564 
L 247.348279 155.385246 
L 246.316677 149.369765 
L 245.285075 143.079029 
L 244.253472 136.978956 
L 243.22187 131.464966 
L 242.190268 126.493413 
L 241.158666 122.051203 
L 240.127064 118.126155 
L 239.095461 114.548383 
L 238.063859 111.363695 
L 237.032257 108.804012 
L 236.000655 107.06651 
L 234.969052 106.478032 
L 233.93745 107.259047 
L 232.905848 109.219551 
L 231.874246 112.001824 
L 230.842644 115.107529 
L 229.811041 118.324681 
L 228.779439 122.195007 
L 227.747837 127.180041 
L 226.716235 132.727933 
L 225.684632 138.121601 
L 224.65303 143.503112 
L 223.621428 149.168767 
L 222.589826 154.983497 
L 221.558223 160.563354 
L 220.526621 165.679082 
L 219.495019 170.4888 
L 218.463417 175.262927 
L 217.431815 180.114568 
L 216.400212 184.877035 
L 215.36861 189.235126 
L 214.337008 193.101019 
L 213.305406 196.585685 
L 212.273803 199.855772 
L 211.242201 203.126415 
L 210.210599 206.392156 
L 209.178997 209.306424 
L 208.147395 211.620372 
L 207.115792 213.512298 
L 206.08419 215.289744 
L 205.052588 217.013295 
L 204.020986 218.643098 
L 202.989383 220.218919 
L 201.957781 221.734605 
L 200.926179 223.130853 
L 199.894577 224.332656 
L 198.862975 225.308666 
L 197.831372 226.106725 
L 196.79977 226.761532 
L 195.768168 227.293755 
L 194.736566 227.777218 
L 193.704963 228.268934 
L 192.673361 228.758327 
L 191.641759 229.190641 
L 190.610157 229.535552 
L 189.578554 229.821494 
L 188.546952 230.089764 
L 187.51535 230.34248 
L 186.483748 230.542828 
L 185.452146 230.657289 
L 184.420543 230.676816 
L 183.388941 230.6462 
L 182.357339 230.647056 
L 181.325737 230.709894 
L 180.294134 230.796518 
L 179.262532 230.86835 
L 178.23093 230.924348 
L 177.199328 230.972907 
L 176.167726 231.006386 
L 175.136123 231.017201 
L 174.104521 231.016741 
L 173.072919 231.020395 
L 172.041317 231.028185 
L 171.009714 231.035415 
L 169.978112 231.04255 
L 168.94651 231.048409 
L 167.914908 231.051168 
L 166.883306 231.051871 
z
" style="fill:#1f77b4;fill-opacity:0.25;"/>
   </g>
   <g id="PolyCollection_2">
    <path clip-path="url(#p72fe91028b)" d="M 100.105354 231.051921 
L 100.105354 231.052 
L 102.213071 231.052 
L 104.320788 231.052 
L 106.428505 231.052 
L 108.536222 231.052 
L 110.643939 231.052 
L 112.751656 231.052 
L 114.859373 231.052 
L 116.96709 231.052 
L 119.074807 231.052 
L 121.182524 231.052 
L 123.290241 231.052 
L 125.397958 231.052 
L 127.505675 231.052 
L 129.613392 231.052 
L 131.721109 231.052 
L 133.828826 231.052 
L 135.936543 231.052 
L 138.04426 231.052 
L 140.151977 231.052 
L 142.259694 231.052 
L 144.367411 231.052 
L 146.475128 231.052 
L 148.582845 231.052 
L 150.690563 231.052 
L 152.79828 231.052 
L 154.905997 231.052 
L 157.013714 231.052 
L 159.121431 231.052 
L 161.229148 231.052 
L 163.336865 231.052 
L 165.444582 231.052 
L 167.552299 231.052 
L 169.660016 231.052 
L 171.767733 231.052 
L 173.87545 231.052 
L 175.983167 231.052 
L 178.090884 231.052 
L 180.198601 231.052 
L 182.306318 231.052 
L 184.414035 231.052 
L 186.521752 231.052 
L 188.629469 231.052 
L 190.737186 231.052 
L 192.844903 231.052 
L 194.95262 231.052 
L 197.060337 231.052 
L 199.168055 231.052 
L 201.275772 231.052 
L 203.383489 231.052 
L 205.491206 231.052 
L 207.598923 231.052 
L 209.70664 231.052 
L 211.814357 231.052 
L 213.922074 231.052 
L 216.029791 231.052 
L 218.137508 231.052 
L 220.245225 231.052 
L 222.352942 231.052 
L 224.460659 231.052 
L 226.568376 231.052 
L 228.676093 231.052 
L 230.78381 231.052 
L 232.891527 231.052 
L 234.999244 231.052 
L 237.106961 231.052 
L 239.214678 231.052 
L 241.322395 231.052 
L 243.430112 231.052 
L 245.537829 231.052 
L 247.645546 231.052 
L 249.753264 231.052 
L 251.860981 231.052 
L 253.968698 231.052 
L 256.076415 231.052 
L 258.184132 231.052 
L 260.291849 231.052 
L 262.399566 231.052 
L 264.507283 231.052 
L 266.615 231.052 
L 268.722717 231.052 
L 270.830434 231.052 
L 272.938151 231.052 
L 275.045868 231.052 
L 277.153585 231.052 
L 279.261302 231.052 
L 281.369019 231.052 
L 283.476736 231.052 
L 285.584453 231.052 
L 287.69217 231.052 
L 289.799887 231.052 
L 291.907604 231.052 
L 294.015321 231.052 
L 296.123038 231.052 
L 298.230756 231.052 
L 300.338473 231.052 
L 302.44619 231.052 
L 304.553907 231.052 
L 306.661624 231.052 
L 308.769341 231.052 
L 310.877058 231.052 
L 312.984775 231.052 
L 315.092492 231.052 
L 317.200209 231.052 
L 319.307926 231.052 
L 321.415643 231.052 
L 323.52336 231.052 
L 325.631077 231.052 
L 327.738794 231.052 
L 329.846511 231.052 
L 331.954228 231.052 
L 334.061945 231.052 
L 336.169662 231.052 
L 338.277379 231.052 
L 340.385096 231.052 
L 342.492813 231.052 
L 344.60053 231.052 
L 346.708248 231.052 
L 348.815965 231.052 
L 350.923682 231.052 
L 353.031399 231.052 
L 355.139116 231.052 
L 357.246833 231.052 
L 359.35455 231.052 
L 361.462267 231.052 
L 363.569984 231.052 
L 365.677701 231.052 
L 367.785418 231.052 
L 367.785418 231.051911 
L 367.785418 231.051911 
L 365.677701 231.051505 
L 363.569984 231.050034 
L 361.462267 231.04683 
L 359.35455 231.043041 
L 357.246833 231.041686 
L 355.139116 231.043414 
L 353.031399 231.044344 
L 350.923682 231.040926 
L 348.815965 231.032979 
L 346.708248 231.019942 
L 344.60053 230.999911 
L 342.492813 230.973624 
L 340.385096 230.94309 
L 338.277379 230.910797 
L 336.169662 230.881693 
L 334.061945 230.855221 
L 331.954228 230.819471 
L 329.846511 230.762583 
L 327.738794 230.682106 
L 325.631077 230.577968 
L 323.52336 230.446045 
L 321.415643 230.278454 
L 319.307926 230.067642 
L 317.200209 229.830404 
L 315.092492 229.600923 
L 312.984775 229.372303 
L 310.877058 229.09388 
L 308.769341 228.728695 
L 306.661624 228.248539 
L 304.553907 227.626148 
L 302.44619 226.896334 
L 300.338473 226.11051 
L 298.230756 225.242905 
L 296.123038 224.243339 
L 294.015321 223.117915 
L 291.907604 221.916657 
L 289.799887 220.651194 
L 287.69217 219.252997 
L 285.584453 217.689478 
L 283.476736 216.051968 
L 281.369019 214.37113 
L 279.261302 212.497142 
L 277.153585 210.352338 
L 275.045868 208.075303 
L 272.938151 205.808331 
L 270.830434 203.552138 
L 268.722717 201.259641 
L 266.615 198.939238 
L 264.507283 196.63264 
L 262.399566 194.344732 
L 260.291849 192.024409 
L 258.184132 189.642562 
L 256.076415 187.332572 
L 253.968698 185.268103 
L 251.860981 183.398534 
L 249.753264 181.639159 
L 247.645546 180.167004 
L 245.537829 179.097032 
L 243.430112 178.206285 
L 241.322395 177.336434 
L 239.214678 176.644147 
L 237.106961 176.333118 
L 234.999244 176.386151 
L 232.891527 176.667597 
L 230.78381 177.179218 
L 228.676093 177.99128 
L 226.568376 179.105678 
L 224.460659 180.481294 
L 222.352942 181.972627 
L 220.245225 183.411175 
L 218.137508 184.86541 
L 216.029791 186.534455 
L 213.922074 188.500442 
L 211.814357 190.751053 
L 209.70664 193.220826 
L 207.598923 195.773183 
L 205.491206 198.283217 
L 203.383489 200.696444 
L 201.275772 203.00123 
L 199.168055 205.190779 
L 197.060337 207.239683 
L 194.95262 209.172666 
L 192.844903 211.077573 
L 190.737186 212.990627 
L 188.629469 214.85442 
L 186.521752 216.587887 
L 184.414035 218.189644 
L 182.306318 219.710348 
L 180.198601 221.139302 
L 178.090884 222.419155 
L 175.983167 223.526176 
L 173.87545 224.469868 
L 171.767733 225.287878 
L 169.660016 226.063905 
L 167.552299 226.849711 
L 165.444582 227.586024 
L 163.336865 228.176201 
L 161.229148 228.611668 
L 159.121431 228.973854 
L 157.013714 229.321102 
L 154.905997 229.637698 
L 152.79828 229.894496 
L 150.690563 230.092624 
L 148.582845 230.24587 
L 146.475128 230.368984 
L 144.367411 230.481527 
L 142.259694 230.594987 
L 140.151977 230.701909 
L 138.04426 230.788354 
L 135.936543 230.84924 
L 133.828826 230.888704 
L 131.721109 230.912555 
L 129.613392 230.92795 
L 127.505675 230.947384 
L 125.397958 230.97822 
L 123.290241 231.011663 
L 121.182524 231.034851 
L 119.074807 231.044805 
L 116.96709 231.046267 
L 114.859373 231.045183 
L 112.751656 231.044762 
L 110.643939 231.045226 
L 108.536222 231.046527 
L 106.428505 231.04865 
L 104.320788 231.050592 
L 102.213071 231.051612 
L 100.105354 231.051921 
z
" style="fill:#ff7f0e;fill-opacity:0.25;"/>
   </g>
   <g id="PolyCollection_3">
    <path clip-path="url(#p72fe91028b)" d="M 67.383409 231.051938 
L 67.383409 231.052 
L 69.991348 231.052 
L 72.599286 231.052 
L 75.207224 231.052 
L 77.815163 231.052 
L 80.423101 231.052 
L 83.03104 231.052 
L 85.638978 231.052 
L 88.246917 231.052 
L 90.854855 231.052 
L 93.462793 231.052 
L 96.070732 231.052 
L 98.67867 231.052 
L 101.286609 231.052 
L 103.894547 231.052 
L 106.502486 231.052 
L 109.110424 231.052 
L 111.718363 231.052 
L 114.326301 231.052 
L 116.934239 231.052 
L 119.542178 231.052 
L 122.150116 231.052 
L 124.758055 231.052 
L 127.365993 231.052 
L 129.973932 231.052 
L 132.58187 231.052 
L 135.189809 231.052 
L 137.797747 231.052 
L 140.405685 231.052 
L 143.013624 231.052 
L 145.621562 231.052 
L 148.229501 231.052 
L 150.837439 231.052 
L 153.445378 231.052 
L 156.053316 231.052 
L 158.661254 231.052 
L 161.269193 231.052 
L 163.877131 231.052 
L 166.48507 231.052 
L 169.093008 231.052 
L 171.700947 231.052 
L 174.308885 231.052 
L 176.916824 231.052 
L 179.524762 231.052 
L 182.1327 231.052 
L 184.740639 231.052 
L 187.348577 231.052 
L 189.956516 231.052 
L 192.564454 231.052 
L 195.172393 231.052 
L 197.780331 231.052 
L 200.38827 231.052 
L 202.996208 231.052 
L 205.604146 231.052 
L 208.212085 231.052 
L 210.820023 231.052 
L 213.427962 231.052 
L 216.0359 231.052 
L 218.643839 231.052 
L 221.251777 231.052 
L 223.859715 231.052 
L 226.467654 231.052 
L 229.075592 231.052 
L 231.683531 231.052 
L 234.291469 231.052 
L 236.899408 231.052 
L 239.507346 231.052 
L 242.115285 231.052 
L 244.723223 231.052 
L 247.331161 231.052 
L 249.9391 231.052 
L 252.547038 231.052 
L 255.154977 231.052 
L 257.762915 231.052 
L 260.370854 231.052 
L 262.978792 231.052 
L 265.58673 231.052 
L 268.194669 231.052 
L 270.802607 231.052 
L 273.410546 231.052 
L 276.018484 231.052 
L 278.626423 231.052 
L 281.234361 231.052 
L 283.8423 231.052 
L 286.450238 231.052 
L 289.058176 231.052 
L 291.666115 231.052 
L 294.274053 231.052 
L 296.881992 231.052 
L 299.48993 231.052 
L 302.097869 231.052 
L 304.705807 231.052 
L 307.313746 231.052 
L 309.921684 231.052 
L 312.529622 231.052 
L 315.137561 231.052 
L 317.745499 231.052 
L 320.353438 231.052 
L 322.961376 231.052 
L 325.569315 231.052 
L 328.177253 231.052 
L 330.785191 231.052 
L 333.39313 231.052 
L 336.001068 231.052 
L 338.609007 231.052 
L 341.216945 231.052 
L 343.824884 231.052 
L 346.432822 231.052 
L 349.040761 231.052 
L 351.648699 231.052 
L 354.256637 231.052 
L 356.864576 231.052 
L 359.472514 231.052 
L 362.080453 231.052 
L 364.688391 231.052 
L 367.29633 231.052 
L 369.904268 231.052 
L 372.512207 231.052 
L 375.120145 231.052 
L 377.728083 231.052 
L 380.336022 231.052 
L 382.94396 231.052 
L 385.551899 231.052 
L 388.159837 231.052 
L 390.767776 231.052 
L 393.375714 231.052 
L 395.983652 231.052 
L 398.591591 231.052 
L 398.591591 231.051907 
L 398.591591 231.051907 
L 395.983652 231.051516 
L 393.375714 231.050056 
L 390.767776 231.046346 
L 388.159837 231.039718 
L 385.551899 231.03084 
L 382.94396 231.020573 
L 380.336022 231.008452 
L 377.728083 230.992998 
L 375.120145 230.973119 
L 372.512207 230.949126 
L 369.904268 230.921501 
L 367.29633 230.889607 
L 364.688391 230.853244 
L 362.080453 230.809633 
L 359.472514 230.749065 
L 356.864576 230.662887 
L 354.256637 230.549719 
L 351.648699 230.411212 
L 349.040761 230.24961 
L 346.432822 230.06195 
L 343.824884 229.83716 
L 341.216945 229.572242 
L 338.609007 229.281243 
L 336.001068 228.974785 
L 333.39313 228.645083 
L 330.785191 228.278389 
L 328.177253 227.865607 
L 325.569315 227.39663 
L 322.961376 226.854314 
L 320.353438 226.221307 
L 317.745499 225.496884 
L 315.137561 224.701418 
L 312.529622 223.854709 
L 309.921684 222.948519 
L 307.313746 221.948417 
L 304.705807 220.819775 
L 302.097869 219.547822 
L 299.48993 218.164981 
L 296.881992 216.782257 
L 294.274053 215.516035 
L 291.666115 214.33719 
L 289.058176 213.091037 
L 286.450238 211.684079 
L 283.8423 210.14125 
L 281.234361 208.514067 
L 278.626423 206.844896 
L 276.018484 205.162583 
L 273.410546 203.45219 
L 270.802607 201.693235 
L 268.194669 199.967416 
L 265.58673 198.462884 
L 262.978792 197.315953 
L 260.370854 196.464383 
L 257.762915 195.644795 
L 255.154977 194.573347 
L 252.547038 193.214224 
L 249.9391 191.85704 
L 247.331161 190.892929 
L 244.723223 190.480802 
L 242.115285 190.40416 
L 239.507346 190.295839 
L 236.899408 190.043045 
L 234.291469 189.88612 
L 231.683531 190.084849 
L 229.075592 190.646706 
L 226.467654 191.397791 
L 223.859715 192.194293 
L 221.251777 193.045141 
L 218.643839 194.034273 
L 216.0359 195.193227 
L 213.427962 196.51542 
L 210.820023 197.990077 
L 208.212085 199.565155 
L 205.604146 201.170855 
L 202.996208 202.79257 
L 200.38827 204.449212 
L 197.780331 206.121623 
L 195.172393 207.766968 
L 192.564454 209.392224 
L 189.956516 211.029711 
L 187.348577 212.648346 
L 184.740639 214.192251 
L 182.1327 215.662503 
L 179.524762 217.081188 
L 176.916824 218.445056 
L 174.308885 219.734554 
L 171.700947 220.912429 
L 169.093008 221.948719 
L 166.48507 222.888584 
L 163.877131 223.82255 
L 161.269193 224.759429 
L 158.661254 225.617115 
L 156.053316 226.343802 
L 153.445378 226.971121 
L 150.837439 227.551659 
L 148.229501 228.094999 
L 145.621562 228.570021 
L 143.013624 228.957535 
L 140.405685 229.281395 
L 137.797747 229.573695 
L 135.189809 229.836507 
L 132.58187 230.058257 
L 129.973932 230.240598 
L 127.365993 230.391303 
L 124.758055 230.512889 
L 122.150116 230.610653 
L 119.542178 230.696855 
L 116.934239 230.778257 
L 114.326301 230.849055 
L 111.718363 230.901572 
L 109.110424 230.937702 
L 106.502486 230.965008 
L 103.894547 230.987859 
L 101.286609 231.00672 
L 98.67867 231.021134 
L 96.070732 231.031267 
L 93.462793 231.037691 
L 90.854855 231.040894 
L 88.246917 231.042219 
L 85.638978 231.043432 
L 83.03104 231.044915 
L 80.423101 231.046372 
L 77.815163 231.048017 
L 75.207224 231.049785 
L 72.599286 231.051104 
L 69.991348 231.051743 
L 67.383409 231.051938 
z
" style="fill:#2ca02c;fill-opacity:0.25;"/>
   </g>
   <g id="line2d_27">
    <path clip-path="url(#p72fe91028b)" d="M 166.883306 231.051871 
L 177.199328 230.972907 
L 186.483748 230.542828 
L 188.546952 230.089764 
L 191.641759 229.190641 
L 194.736566 227.777218 
L 196.79977 226.761532 
L 197.831372 226.106725 
L 198.862975 225.308666 
L 199.894577 224.332656 
L 200.926179 223.130853 
L 202.989383 220.218919 
L 206.08419 215.289744 
L 208.147395 211.620372 
L 209.178997 209.306424 
L 210.210599 206.392156 
L 214.337008 193.101019 
L 215.36861 189.235126 
L 217.431815 180.114568 
L 221.558223 160.563354 
L 227.747837 127.180041 
L 228.779439 122.195007 
L 229.811041 118.324681 
L 231.874246 112.001824 
L 232.905848 109.219551 
L 233.93745 107.259047 
L 234.969052 106.478032 
L 236.000655 107.06651 
L 237.032257 108.804012 
L 238.063859 111.363695 
L 239.095461 114.548383 
L 241.158666 122.051203 
L 242.190268 126.493413 
L 244.253472 136.978956 
L 248.379881 160.911564 
L 254.569495 192.034073 
L 255.601097 196.329614 
L 257.664301 203.293362 
L 259.727506 209.554302 
L 261.79071 215.07665 
L 262.822313 217.459765 
L 263.853915 219.485453 
L 265.917119 222.703883 
L 266.948721 224.075315 
L 267.980324 225.219196 
L 270.043528 226.879466 
L 272.106733 228.242007 
L 274.169937 229.249428 
L 276.233141 229.949849 
L 281.391153 230.663183 
L 285.517561 230.879856 
L 290.675573 230.974184 
L 297.896788 231.051777 
L 297.896788 231.051777 
" style="fill:none;stroke:#1f77b4;stroke-linecap:round;stroke-width:2.275;"/>
   </g>
   <g id="line2d_28">
    <path clip-path="url(#p72fe91028b)" d="M 100.105354 231.051921 
L 127.505675 230.947384 
L 138.04426 230.788354 
L 148.582845 230.24587 
L 152.79828 229.894496 
L 157.013714 229.321102 
L 163.336865 228.176201 
L 165.444582 227.586024 
L 171.767733 225.287878 
L 173.87545 224.469868 
L 175.983167 223.526176 
L 178.090884 222.419155 
L 180.198601 221.139302 
L 184.414035 218.189644 
L 188.629469 214.85442 
L 194.95262 209.172666 
L 199.168055 205.190779 
L 203.383489 200.696444 
L 207.598923 195.773183 
L 211.814357 190.751053 
L 213.922074 188.500442 
L 216.029791 186.534455 
L 218.137508 184.86541 
L 226.568376 179.105678 
L 228.676093 177.99128 
L 230.78381 177.179218 
L 232.891527 176.667597 
L 234.999244 176.386151 
L 237.106961 176.333118 
L 239.214678 176.644147 
L 241.322395 177.336434 
L 245.537829 179.097032 
L 247.645546 180.167004 
L 249.753264 181.639159 
L 253.968698 185.268103 
L 256.076415 187.332572 
L 277.153585 210.352338 
L 279.261302 212.497142 
L 281.369019 214.37113 
L 285.584453 217.689478 
L 287.69217 219.252997 
L 291.907604 221.916657 
L 296.123038 224.243339 
L 298.230756 225.242905 
L 302.44619 226.896334 
L 306.661624 228.248539 
L 308.769341 228.728695 
L 312.984775 229.372303 
L 323.52336 230.446045 
L 329.846511 230.762583 
L 340.385096 230.94309 
L 353.031399 231.044344 
L 367.785418 231.051911 
L 367.785418 231.051911 
" style="fill:none;stroke:#ff7f0e;stroke-linecap:round;stroke-width:2.275;"/>
   </g>
   <g id="line2d_29">
    <path clip-path="url(#p72fe91028b)" d="M 67.383409 231.051938 
L 106.502486 230.965008 
L 116.934239 230.778257 
L 127.365993 230.391303 
L 135.189809 229.836507 
L 143.013624 228.957535 
L 148.229501 228.094999 
L 153.445378 226.971121 
L 158.661254 225.617115 
L 163.877131 223.82255 
L 171.700947 220.912429 
L 176.916824 218.445056 
L 182.1327 215.662503 
L 187.348577 212.648346 
L 200.38827 204.449212 
L 208.212085 199.565155 
L 213.427962 196.51542 
L 216.0359 195.193227 
L 218.643839 194.034273 
L 221.251777 193.045141 
L 226.467654 191.397791 
L 229.075592 190.646706 
L 231.683531 190.084849 
L 234.291469 189.88612 
L 244.723223 190.480802 
L 247.331161 190.892929 
L 249.9391 191.85704 
L 255.154977 194.573347 
L 257.762915 195.644795 
L 262.978792 197.315953 
L 265.58673 198.462884 
L 268.194669 199.967416 
L 281.234361 208.514067 
L 286.450238 211.684079 
L 289.058176 213.091037 
L 299.48993 218.164981 
L 304.705807 220.819775 
L 307.313746 221.948417 
L 312.529622 223.854709 
L 317.745499 225.496884 
L 322.961376 226.854314 
L 328.177253 227.865607 
L 333.39313 228.645083 
L 341.216945 229.572242 
L 346.432822 230.06195 
L 354.256637 230.549719 
L 362.080453 230.809633 
L 380.336022 231.008452 
L 398.591591 231.051907 
L 398.591591 231.051907 
" style="fill:none;stroke:#2ca02c;stroke-linecap:round;stroke-width:2.275;"/>
   </g>
   <g id="patch_3">
    <path d="M 50.823 231.052 
L 50.823 34.848 
" style="fill:none;stroke:#999999;stroke-linecap:square;stroke-linejoin:miter;"/>
   </g>
   <g id="patch_4">
    <path d="M 415.152 231.052 
L 415.152 34.848 
" style="fill:none;stroke:#999999;stroke-linecap:square;stroke-linejoin:miter;"/>
   </g>
   <g id="patch_5">
    <path d="M 50.823 231.052 
L 415.152 231.052 
" style="fill:none;stroke:#999999;stroke-linecap:square;stroke-linejoin:miter;"/>
   </g>
   <g id="patch_6">
    <path d="M 50.823 34.848 
L 415.152 34.848 
" style="fill:none;stroke:#999999;stroke-linecap:square;stroke-linejoin:miter;"/>
   </g>
   <g id="text_15">
    <!-- Optimal Step Size: 0, no bias correction -->
    <defs>
     <path d="M 39.40625 66.21875 
Q 28.65625 66.21875 22.328125 58.203125 
Q 16.015625 50.203125 16.015625 36.375 
Q 16.015625 22.609375 22.328125 14.59375 
Q 28.65625 6.59375 39.40625 6.59375 
Q 50.140625 6.59375 56.421875 14.59375 
Q 62.703125 22.609375 62.703125 36.375 
Q 62.703125 50.203125 56.421875 58.203125 
Q 50.140625 66.21875 39.40625 66.21875 
z
M 39.40625 74.21875 
Q 54.734375 74.21875 63.90625 63.9375 
Q 73.09375 53.65625 73.09375 36.375 
Q 73.09375 19.140625 63.90625 8.859375 
Q 54.734375 -1.421875 39.40625 -1.421875 
Q 24.03125 -1.421875 14.8125 8.828125 
Q 5.609375 19.09375 5.609375 36.375 
Q 5.609375 53.65625 14.8125 63.9375 
Q 24.03125 74.21875 39.40625 74.21875 
z
" id="DejaVuSans-4f"/>
     <path d="M 52 44.1875 
Q 55.375 50.25 60.0625 53.125 
Q 64.75 56 71.09375 56 
Q 79.640625 56 84.28125 50.015625 
Q 88.921875 44.046875 88.921875 33.015625 
L 88.921875 0 
L 79.890625 0 
L 79.890625 32.71875 
Q 79.890625 40.578125 77.09375 44.375 
Q 74.3125 48.1875 68.609375 48.1875 
Q 61.625 48.1875 57.5625 43.546875 
Q 53.515625 38.921875 53.515625 30.90625 
L 53.515625 0 
L 44.484375 0 
L 44.484375 32.71875 
Q 44.484375 40.625 41.703125 44.40625 
Q 38.921875 48.1875 33.109375 48.1875 
Q 26.21875 48.1875 22.15625 43.53125 
Q 18.109375 38.875 18.109375 30.90625 
L 18.109375 0 
L 9.078125 0 
L 9.078125 54.6875 
L 18.109375 54.6875 
L 18.109375 46.1875 
Q 21.1875 51.21875 25.484375 53.609375 
Q 29.78125 56 35.6875 56 
Q 41.65625 56 45.828125 52.96875 
Q 50 49.953125 52 44.1875 
z
" id="DejaVuSans-6d"/>
     <path d="M 34.28125 27.484375 
Q 23.390625 27.484375 19.1875 25 
Q 14.984375 22.515625 14.984375 16.5 
Q 14.984375 11.71875 18.140625 8.90625 
Q 21.296875 6.109375 26.703125 6.109375 
Q 34.1875 6.109375 38.703125 11.40625 
Q 43.21875 16.703125 43.21875 25.484375 
L 43.21875 27.484375 
z
M 52.203125 31.203125 
L 52.203125 0 
L 43.21875 0 
L 43.21875 8.296875 
Q 40.140625 3.328125 35.546875 0.953125 
Q 30.953125 -1.421875 24.3125 -1.421875 
Q 15.921875 -1.421875 10.953125 3.296875 
Q 6 8.015625 6 15.921875 
Q 6 25.140625 12.171875 29.828125 
Q 18.359375 34.515625 30.609375 34.515625 
L 43.21875 34.515625 
L 43.21875 35.40625 
Q 43.21875 41.609375 39.140625 45 
Q 35.0625 48.390625 27.6875 48.390625 
Q 23 48.390625 18.546875 47.265625 
Q 14.109375 46.140625 10.015625 43.890625 
L 10.015625 52.203125 
Q 14.9375 54.109375 19.578125 55.046875 
Q 24.21875 56 28.609375 56 
Q 40.484375 56 46.34375 49.84375 
Q 52.203125 43.703125 52.203125 31.203125 
z
" id="DejaVuSans-61"/>
     <path d="M 9.421875 75.984375 
L 18.40625 75.984375 
L 18.40625 0 
L 9.421875 0 
z
" id="DejaVuSans-6c"/>
     <path d="M 11.71875 12.40625 
L 22.015625 12.40625 
L 22.015625 0 
L 11.71875 0 
z
M 11.71875 51.703125 
L 22.015625 51.703125 
L 22.015625 39.3125 
L 11.71875 39.3125 
z
" id="DejaVuSans-3a"/>
     <path d="M 11.71875 12.40625 
L 22.015625 12.40625 
L 22.015625 4 
L 14.015625 -11.625 
L 7.71875 -11.625 
L 11.71875 4 
z
" id="DejaVuSans-2c"/>
     <path d="M 54.890625 33.015625 
L 54.890625 0 
L 45.90625 0 
L 45.90625 32.71875 
Q 45.90625 40.484375 42.875 44.328125 
Q 39.84375 48.1875 33.796875 48.1875 
Q 26.515625 48.1875 22.3125 43.546875 
Q 18.109375 38.921875 18.109375 30.90625 
L 18.109375 0 
L 9.078125 0 
L 9.078125 54.6875 
L 18.109375 54.6875 
L 18.109375 46.1875 
Q 21.34375 51.125 25.703125 53.5625 
Q 30.078125 56 35.796875 56 
Q 45.21875 56 50.046875 50.171875 
Q 54.890625 44.34375 54.890625 33.015625 
z
" id="DejaVuSans-6e"/>
     <path d="M 30.609375 48.390625 
Q 23.390625 48.390625 19.1875 42.75 
Q 14.984375 37.109375 14.984375 27.296875 
Q 14.984375 17.484375 19.15625 11.84375 
Q 23.34375 6.203125 30.609375 6.203125 
Q 37.796875 6.203125 41.984375 11.859375 
Q 46.1875 17.53125 46.1875 27.296875 
Q 46.1875 37.015625 41.984375 42.703125 
Q 37.796875 48.390625 30.609375 48.390625 
z
M 30.609375 56 
Q 42.328125 56 49.015625 48.375 
Q 55.71875 40.765625 55.71875 27.296875 
Q 55.71875 13.875 49.015625 6.21875 
Q 42.328125 -1.421875 30.609375 -1.421875 
Q 18.84375 -1.421875 12.171875 6.21875 
Q 5.515625 13.875 5.515625 27.296875 
Q 5.515625 40.765625 12.171875 48.375 
Q 18.84375 56 30.609375 56 
z
" id="DejaVuSans-6f"/>
     <path d="M 48.6875 27.296875 
Q 48.6875 37.203125 44.609375 42.84375 
Q 40.53125 48.484375 33.40625 48.484375 
Q 26.265625 48.484375 22.1875 42.84375 
Q 18.109375 37.203125 18.109375 27.296875 
Q 18.109375 17.390625 22.1875 11.75 
Q 26.265625 6.109375 33.40625 6.109375 
Q 40.53125 6.109375 44.609375 11.75 
Q 48.6875 17.390625 48.6875 27.296875 
z
M 18.109375 46.390625 
Q 20.953125 51.265625 25.265625 53.625 
Q 29.59375 56 35.59375 56 
Q 45.5625 56 51.78125 48.09375 
Q 58.015625 40.1875 58.015625 27.296875 
Q 58.015625 14.40625 51.78125 6.484375 
Q 45.5625 -1.421875 35.59375 -1.421875 
Q 29.59375 -1.421875 25.265625 0.953125 
Q 20.953125 3.328125 18.109375 8.203125 
L 18.109375 0 
L 9.078125 0 
L 9.078125 75.984375 
L 18.109375 75.984375 
z
" id="DejaVuSans-62"/>
     <path d="M 44.28125 53.078125 
L 44.28125 44.578125 
Q 40.484375 46.53125 36.375 47.5 
Q 32.28125 48.484375 27.875 48.484375 
Q 21.1875 48.484375 17.84375 46.4375 
Q 14.5 44.390625 14.5 40.28125 
Q 14.5 37.15625 16.890625 35.375 
Q 19.28125 33.59375 26.515625 31.984375 
L 29.59375 31.296875 
Q 39.15625 29.25 43.1875 25.515625 
Q 47.21875 21.78125 47.21875 15.09375 
Q 47.21875 7.46875 41.1875 3.015625 
Q 35.15625 -1.421875 24.609375 -1.421875 
Q 20.21875 -1.421875 15.453125 -0.5625 
Q 10.6875 0.296875 5.421875 2 
L 5.421875 11.28125 
Q 10.40625 8.6875 15.234375 7.390625 
Q 20.0625 6.109375 24.8125 6.109375 
Q 31.15625 6.109375 34.5625 8.28125 
Q 37.984375 10.453125 37.984375 14.40625 
Q 37.984375 18.0625 35.515625 20.015625 
Q 33.0625 21.96875 24.703125 23.78125 
L 21.578125 24.515625 
Q 13.234375 26.265625 9.515625 29.90625 
Q 5.8125 33.546875 5.8125 39.890625 
Q 5.8125 47.609375 11.28125 51.796875 
Q 16.75 56 26.8125 56 
Q 31.78125 56 36.171875 55.265625 
Q 40.578125 54.546875 44.28125 53.078125 
z
" id="DejaVuSans-73"/>
     <path d="M 48.78125 52.59375 
L 48.78125 44.1875 
Q 44.96875 46.296875 41.140625 47.34375 
Q 37.3125 48.390625 33.40625 48.390625 
Q 24.65625 48.390625 19.8125 42.84375 
Q 14.984375 37.3125 14.984375 27.296875 
Q 14.984375 17.28125 19.8125 11.734375 
Q 24.65625 6.203125 33.40625 6.203125 
Q 37.3125 6.203125 41.140625 7.25 
Q 44.96875 8.296875 48.78125 10.40625 
L 48.78125 2.09375 
Q 45.015625 0.34375 40.984375 -0.53125 
Q 36.96875 -1.421875 32.421875 -1.421875 
Q 20.0625 -1.421875 12.78125 6.34375 
Q 5.515625 14.109375 5.515625 27.296875 
Q 5.515625 40.671875 12.859375 48.328125 
Q 20.21875 56 33.015625 56 
Q 37.15625 56 41.109375 55.140625 
Q 45.0625 54.296875 48.78125 52.59375 
z
" id="DejaVuSans-63"/>
     <path d="M 41.109375 46.296875 
Q 39.59375 47.171875 37.8125 47.578125 
Q 36.03125 48 33.890625 48 
Q 26.265625 48 22.1875 43.046875 
Q 18.109375 38.09375 18.109375 28.8125 
L 18.109375 0 
L 9.078125 0 
L 9.078125 54.6875 
L 18.109375 54.6875 
L 18.109375 46.1875 
Q 20.953125 51.171875 25.484375 53.578125 
Q 30.03125 56 36.53125 56 
Q 37.453125 56 38.578125 55.875 
Q 39.703125 55.765625 41.0625 55.515625 
z
" id="DejaVuSans-72"/>
    </defs>
    <g style="fill:#262626;" transform="translate(78.233062 28.848)scale(0.156 -0.156)">
     <use xlink:href="#DejaVuSans-4f"/>
     <use x="78.710938" xlink:href="#DejaVuSans-70"/>
     <use x="142.1875" xlink:href="#DejaVuSans-74"/>
     <use x="181.396484" xlink:href="#DejaVuSans-69"/>
     <use x="209.179688" xlink:href="#DejaVuSans-6d"/>
     <use x="306.591797" xlink:href="#DejaVuSans-61"/>
     <use x="367.871094" xlink:href="#DejaVuSans-6c"/>
     <use x="395.654297" xlink:href="#DejaVuSans-20"/>
     <use x="427.441406" xlink:href="#DejaVuSans-53"/>
     <use x="490.917969" xlink:href="#DejaVuSans-74"/>
     <use x="530.126953" xlink:href="#DejaVuSans-65"/>
     <use x="591.650391" xlink:href="#DejaVuSans-70"/>
     <use x="655.126953" xlink:href="#DejaVuSans-20"/>
     <use x="686.914062" xlink:href="#DejaVuSans-53"/>
     <use x="750.390625" xlink:href="#DejaVuSans-69"/>
     <use x="778.173828" xlink:href="#DejaVuSans-7a"/>
     <use x="830.664062" xlink:href="#DejaVuSans-65"/>
     <use x="892.1875" xlink:href="#DejaVuSans-3a"/>
     <use x="925.878906" xlink:href="#DejaVuSans-20"/>
     <use x="957.666016" xlink:href="#DejaVuSans-30"/>
     <use x="1021.289062" xlink:href="#DejaVuSans-2c"/>
     <use x="1053.076172" xlink:href="#DejaVuSans-20"/>
     <use x="1084.863281" xlink:href="#DejaVuSans-6e"/>
     <use x="1148.242188" xlink:href="#DejaVuSans-6f"/>
     <use x="1209.423828" xlink:href="#DejaVuSans-20"/>
     <use x="1241.210938" xlink:href="#DejaVuSans-62"/>
     <use x="1304.6875" xlink:href="#DejaVuSans-69"/>
     <use x="1332.470703" xlink:href="#DejaVuSans-61"/>
     <use x="1393.75" xlink:href="#DejaVuSans-73"/>
     <use x="1445.849609" xlink:href="#DejaVuSans-20"/>
     <use x="1477.636719" xlink:href="#DejaVuSans-63"/>
     <use x="1532.617188" xlink:href="#DejaVuSans-6f"/>
     <use x="1593.798828" xlink:href="#DejaVuSans-72"/>
     <use x="1634.896484" xlink:href="#DejaVuSans-72"/>
     <use x="1675.978516" xlink:href="#DejaVuSans-65"/>
     <use x="1737.501953" xlink:href="#DejaVuSans-63"/>
     <use x="1792.482422" xlink:href="#DejaVuSans-74"/>
     <use x="1831.691406" xlink:href="#DejaVuSans-69"/>
     <use x="1859.474609" xlink:href="#DejaVuSans-6f"/>
     <use x="1920.65625" xlink:href="#DejaVuSans-6e"/>
    </g>
   </g>
   <g id="legend_1">
    <g id="line2d_30">
     <path d="M 209.392469 51.875969 
L 235.392469 51.875969 
" style="fill:none;stroke:#1f77b4;stroke-linecap:round;stroke-width:2.275;"/>
    </g>
    <g id="line2d_31"/>
    <g id="text_16">
     <!-- m/M = 0.9, Bias 1.2e-04 -->
     <defs>
      <path d="M 25.390625 72.90625 
L 33.6875 72.90625 
L 8.296875 -9.28125 
L 0 -9.28125 
z
" id="DejaVuSans-2f"/>
      <path d="M 9.8125 72.90625 
L 24.515625 72.90625 
L 43.109375 23.296875 
L 61.8125 72.90625 
L 76.515625 72.90625 
L 76.515625 0 
L 66.890625 0 
L 66.890625 64.015625 
L 48.09375 14.015625 
L 38.1875 14.015625 
L 19.390625 64.015625 
L 19.390625 0 
L 9.8125 0 
z
" id="DejaVuSans-4d"/>
      <path d="M 10.59375 45.40625 
L 73.1875 45.40625 
L 73.1875 37.203125 
L 10.59375 37.203125 
z
M 10.59375 25.484375 
L 73.1875 25.484375 
L 73.1875 17.1875 
L 10.59375 17.1875 
z
" id="DejaVuSans-3d"/>
      <path d="M 10.984375 1.515625 
L 10.984375 10.5 
Q 14.703125 8.734375 18.5 7.8125 
Q 22.3125 6.890625 25.984375 6.890625 
Q 35.75 6.890625 40.890625 13.453125 
Q 46.046875 20.015625 46.78125 33.40625 
Q 43.953125 29.203125 39.59375 26.953125 
Q 35.25 24.703125 29.984375 24.703125 
Q 19.046875 24.703125 12.671875 31.3125 
Q 6.296875 37.9375 6.296875 49.421875 
Q 6.296875 60.640625 12.9375 67.421875 
Q 19.578125 74.21875 30.609375 74.21875 
Q 43.265625 74.21875 49.921875 64.515625 
Q 56.59375 54.828125 56.59375 36.375 
Q 56.59375 19.140625 48.40625 8.859375 
Q 40.234375 -1.421875 26.421875 -1.421875 
Q 22.703125 -1.421875 18.890625 -0.6875 
Q 15.09375 0.046875 10.984375 1.515625 
z
M 30.609375 32.421875 
Q 37.25 32.421875 41.125 36.953125 
Q 45.015625 41.5 45.015625 49.421875 
Q 45.015625 57.28125 41.125 61.84375 
Q 37.25 66.40625 30.609375 66.40625 
Q 23.96875 66.40625 20.09375 61.84375 
Q 16.21875 57.28125 16.21875 49.421875 
Q 16.21875 41.5 20.09375 36.953125 
Q 23.96875 32.421875 30.609375 32.421875 
z
" id="DejaVuSans-39"/>
      <path d="M 19.671875 34.8125 
L 19.671875 8.109375 
L 35.5 8.109375 
Q 43.453125 8.109375 47.28125 11.40625 
Q 51.125 14.703125 51.125 21.484375 
Q 51.125 28.328125 47.28125 31.5625 
Q 43.453125 34.8125 35.5 34.8125 
z
M 19.671875 64.796875 
L 19.671875 42.828125 
L 34.28125 42.828125 
Q 41.5 42.828125 45.03125 45.53125 
Q 48.578125 48.25 48.578125 53.8125 
Q 48.578125 59.328125 45.03125 62.0625 
Q 41.5 64.796875 34.28125 64.796875 
z
M 9.8125 72.90625 
L 35.015625 72.90625 
Q 46.296875 72.90625 52.390625 68.21875 
Q 58.5 63.53125 58.5 54.890625 
Q 58.5 48.1875 55.375 44.234375 
Q 52.25 40.28125 46.1875 39.3125 
Q 53.46875 37.75 57.5 32.78125 
Q 61.53125 27.828125 61.53125 20.40625 
Q 61.53125 10.640625 54.890625 5.3125 
Q 48.25 0 35.984375 0 
L 9.8125 0 
z
" id="DejaVuSans-42"/>
      <path d="M 4.890625 31.390625 
L 31.203125 31.390625 
L 31.203125 23.390625 
L 4.890625 23.390625 
z
" id="DejaVuSans-2d"/>
     </defs>
     <g style="fill:#262626;" transform="translate(245.792469 56.425969)scale(0.13 -0.13)">
      <use xlink:href="#DejaVuSans-6d"/>
      <use x="97.412109" xlink:href="#DejaVuSans-2f"/>
      <use x="131.103516" xlink:href="#DejaVuSans-4d"/>
      <use x="217.382812" xlink:href="#DejaVuSans-20"/>
      <use x="249.169922" xlink:href="#DejaVuSans-3d"/>
      <use x="332.958984" xlink:href="#DejaVuSans-20"/>
      <use x="364.746094" xlink:href="#DejaVuSans-30"/>
      <use x="428.369141" xlink:href="#DejaVuSans-2e"/>
      <use x="460.15625" xlink:href="#DejaVuSans-39"/>
      <use x="523.779297" xlink:href="#DejaVuSans-2c"/>
      <use x="555.566406" xlink:href="#DejaVuSans-20"/>
      <use x="587.353516" xlink:href="#DejaVuSans-42"/>
      <use x="655.957031" xlink:href="#DejaVuSans-69"/>
      <use x="683.740234" xlink:href="#DejaVuSans-61"/>
      <use x="745.019531" xlink:href="#DejaVuSans-73"/>
      <use x="797.119141" xlink:href="#DejaVuSans-20"/>
      <use x="828.90625" xlink:href="#DejaVuSans-31"/>
      <use x="892.529297" xlink:href="#DejaVuSans-2e"/>
      <use x="924.316406" xlink:href="#DejaVuSans-32"/>
      <use x="987.939453" xlink:href="#DejaVuSans-65"/>
      <use x="1049.462891" xlink:href="#DejaVuSans-2d"/>
      <use x="1085.546875" xlink:href="#DejaVuSans-30"/>
      <use x="1149.169922" xlink:href="#DejaVuSans-34"/>
     </g>
    </g>
    <g id="line2d_32">
     <path d="M 209.392469 70.957531 
L 235.392469 70.957531 
" style="fill:none;stroke:#ff7f0e;stroke-linecap:round;stroke-width:2.275;"/>
    </g>
    <g id="line2d_33"/>
    <g id="text_17">
     <!-- m/M = 0.6, Bias 5.5e-04 -->
     <defs>
      <path d="M 10.796875 72.90625 
L 49.515625 72.90625 
L 49.515625 64.59375 
L 19.828125 64.59375 
L 19.828125 46.734375 
Q 21.96875 47.46875 24.109375 47.828125 
Q 26.265625 48.1875 28.421875 48.1875 
Q 40.625 48.1875 47.75 41.5 
Q 54.890625 34.8125 54.890625 23.390625 
Q 54.890625 11.625 47.5625 5.09375 
Q 40.234375 -1.421875 26.90625 -1.421875 
Q 22.3125 -1.421875 17.546875 -0.640625 
Q 12.796875 0.140625 7.71875 1.703125 
L 7.71875 11.625 
Q 12.109375 9.234375 16.796875 8.0625 
Q 21.484375 6.890625 26.703125 6.890625 
Q 35.15625 6.890625 40.078125 11.328125 
Q 45.015625 15.765625 45.015625 23.390625 
Q 45.015625 31 40.078125 35.4375 
Q 35.15625 39.890625 26.703125 39.890625 
Q 22.75 39.890625 18.8125 39.015625 
Q 14.890625 38.140625 10.796875 36.28125 
z
" id="DejaVuSans-35"/>
     </defs>
     <g style="fill:#262626;" transform="translate(245.792469 75.507531)scale(0.13 -0.13)">
      <use xlink:href="#DejaVuSans-6d"/>
      <use x="97.412109" xlink:href="#DejaVuSans-2f"/>
      <use x="131.103516" xlink:href="#DejaVuSans-4d"/>
      <use x="217.382812" xlink:href="#DejaVuSans-20"/>
      <use x="249.169922" xlink:href="#DejaVuSans-3d"/>
      <use x="332.958984" xlink:href="#DejaVuSans-20"/>
      <use x="364.746094" xlink:href="#DejaVuSans-30"/>
      <use x="428.369141" xlink:href="#DejaVuSans-2e"/>
      <use x="460.15625" xlink:href="#DejaVuSans-36"/>
      <use x="523.779297" xlink:href="#DejaVuSans-2c"/>
      <use x="555.566406" xlink:href="#DejaVuSans-20"/>
      <use x="587.353516" xlink:href="#DejaVuSans-42"/>
      <use x="655.957031" xlink:href="#DejaVuSans-69"/>
      <use x="683.740234" xlink:href="#DejaVuSans-61"/>
      <use x="745.019531" xlink:href="#DejaVuSans-73"/>
      <use x="797.119141" xlink:href="#DejaVuSans-20"/>
      <use x="828.90625" xlink:href="#DejaVuSans-35"/>
      <use x="892.529297" xlink:href="#DejaVuSans-2e"/>
      <use x="924.316406" xlink:href="#DejaVuSans-35"/>
      <use x="987.939453" xlink:href="#DejaVuSans-65"/>
      <use x="1049.462891" xlink:href="#DejaVuSans-2d"/>
      <use x="1085.546875" xlink:href="#DejaVuSans-30"/>
      <use x="1149.169922" xlink:href="#DejaVuSans-34"/>
     </g>
    </g>
    <g id="line2d_34">
     <path d="M 209.392469 90.039094 
L 235.392469 90.039094 
" style="fill:none;stroke:#2ca02c;stroke-linecap:round;stroke-width:2.275;"/>
    </g>
    <g id="line2d_35"/>
    <g id="text_18">
     <!-- m/M = 0.3, Bias 1.7e-03 -->
     <defs>
      <path d="M 40.578125 39.3125 
Q 47.65625 37.796875 51.625 33 
Q 55.609375 28.21875 55.609375 21.1875 
Q 55.609375 10.40625 48.1875 4.484375 
Q 40.765625 -1.421875 27.09375 -1.421875 
Q 22.515625 -1.421875 17.65625 -0.515625 
Q 12.796875 0.390625 7.625 2.203125 
L 7.625 11.71875 
Q 11.71875 9.328125 16.59375 8.109375 
Q 21.484375 6.890625 26.8125 6.890625 
Q 36.078125 6.890625 40.9375 10.546875 
Q 45.796875 14.203125 45.796875 21.1875 
Q 45.796875 27.640625 41.28125 31.265625 
Q 36.765625 34.90625 28.71875 34.90625 
L 20.21875 34.90625 
L 20.21875 43.015625 
L 29.109375 43.015625 
Q 36.375 43.015625 40.234375 45.921875 
Q 44.09375 48.828125 44.09375 54.296875 
Q 44.09375 59.90625 40.109375 62.90625 
Q 36.140625 65.921875 28.71875 65.921875 
Q 24.65625 65.921875 20.015625 65.03125 
Q 15.375 64.15625 9.8125 62.3125 
L 9.8125 71.09375 
Q 15.4375 72.65625 20.34375 73.4375 
Q 25.25 74.21875 29.59375 74.21875 
Q 40.828125 74.21875 47.359375 69.109375 
Q 53.90625 64.015625 53.90625 55.328125 
Q 53.90625 49.265625 50.4375 45.09375 
Q 46.96875 40.921875 40.578125 39.3125 
z
" id="DejaVuSans-33"/>
      <path d="M 8.203125 72.90625 
L 55.078125 72.90625 
L 55.078125 68.703125 
L 28.609375 0 
L 18.3125 0 
L 43.21875 64.59375 
L 8.203125 64.59375 
z
" id="DejaVuSans-37"/>
     </defs>
     <g style="fill:#262626;" transform="translate(245.792469 94.589094)scale(0.13 -0.13)">
      <use xlink:href="#DejaVuSans-6d"/>
      <use x="97.412109" xlink:href="#DejaVuSans-2f"/>
      <use x="131.103516" xlink:href="#DejaVuSans-4d"/>
      <use x="217.382812" xlink:href="#DejaVuSans-20"/>
      <use x="249.169922" xlink:href="#DejaVuSans-3d"/>
      <use x="332.958984" xlink:href="#DejaVuSans-20"/>
      <use x="364.746094" xlink:href="#DejaVuSans-30"/>
      <use x="428.369141" xlink:href="#DejaVuSans-2e"/>
      <use x="460.15625" xlink:href="#DejaVuSans-33"/>
      <use x="523.779297" xlink:href="#DejaVuSans-2c"/>
      <use x="555.566406" xlink:href="#DejaVuSans-20"/>
      <use x="587.353516" xlink:href="#DejaVuSans-42"/>
      <use x="655.957031" xlink:href="#DejaVuSans-69"/>
      <use x="683.740234" xlink:href="#DejaVuSans-61"/>
      <use x="745.019531" xlink:href="#DejaVuSans-73"/>
      <use x="797.119141" xlink:href="#DejaVuSans-20"/>
      <use x="828.90625" xlink:href="#DejaVuSans-31"/>
      <use x="892.529297" xlink:href="#DejaVuSans-2e"/>
      <use x="924.316406" xlink:href="#DejaVuSans-37"/>
      <use x="987.939453" xlink:href="#DejaVuSans-65"/>
      <use x="1049.462891" xlink:href="#DejaVuSans-2d"/>
      <use x="1085.546875" xlink:href="#DejaVuSans-30"/>
      <use x="1149.169922" xlink:href="#DejaVuSans-33"/>
     </g>
    </g>
   </g>
  </g>
 </g>
 <defs>
  <clipPath id="p72fe91028b">
   <rect height="196.204" width="364.329" x="50.823" y="34.848"/>
  </clipPath>
 </defs>
</svg>
