<?xml version="1.0" encoding="utf-8" standalone="no"?>
<!DOCTYPE svg PUBLIC "-//W3C//DTD SVG 1.1//EN"
  "http://www.w3.org/Graphics/SVG/1.1/DTD/svg11.dtd">
<!-- Created with matplotlib (http://matplotlib.org/) -->
<svg height="288pt" version="1.1" viewBox="0 0 432 288" width="432pt" xmlns="http://www.w3.org/2000/svg" xmlns:xlink="http://www.w3.org/1999/xlink">
 <defs>
  <style type="text/css">
*{stroke-linecap:butt;stroke-linejoin:round;}
  </style>
 </defs>
 <g id="figure_1">
  <g id="patch_1">
   <path d="M 0 288 
L 432 288 
L 432 0 
L 0 0 
z
" style="fill:none;"/>
  </g>
  <g id="axes_1">
   <g id="patch_2">
    <path d="M 75.321867 231.052 
L 415.152 231.052 
L 415.152 34.848 
L 75.321867 34.848 
z
" style="fill:none;"/>
   </g>
   <g id="matplotlib.axis_1">
    <g id="xtick_1">
     <g id="line2d_1">
      <path clip-path="url(#p8881c2c3ab)" d="M 90.768691 231.052 
L 90.768691 34.848 
" style="fill:none;stroke:#999999;stroke-linecap:round;stroke-width:1.3;"/>
     </g>
     <g id="line2d_2"/>
     <g id="text_1">
      <!-- 0 -->
      <defs>
       <path d="M 31.78125 66.40625 
Q 24.171875 66.40625 20.328125 58.90625 
Q 16.5 51.421875 16.5 36.375 
Q 16.5 21.390625 20.328125 13.890625 
Q 24.171875 6.390625 31.78125 6.390625 
Q 39.453125 6.390625 43.28125 13.890625 
Q 47.125 21.390625 47.125 36.375 
Q 47.125 51.421875 43.28125 58.90625 
Q 39.453125 66.40625 31.78125 66.40625 
z
M 31.78125 74.21875 
Q 44.046875 74.21875 50.515625 64.515625 
Q 56.984375 54.828125 56.984375 36.375 
Q 56.984375 17.96875 50.515625 8.265625 
Q 44.046875 -1.421875 31.78125 -1.421875 
Q 19.53125 -1.421875 13.0625 8.265625 
Q 6.59375 17.96875 6.59375 36.375 
Q 6.59375 54.828125 13.0625 64.515625 
Q 19.53125 74.21875 31.78125 74.21875 
z
" id="DejaVuSans-30"/>
      </defs>
      <g style="fill:#262626;" transform="translate(86.633066 250.029969)scale(0.13 -0.13)">
       <use xlink:href="#DejaVuSans-30"/>
      </g>
     </g>
    </g>
    <g id="xtick_2">
     <g id="line2d_3">
      <path clip-path="url(#p8881c2c3ab)" d="M 151.107849 231.052 
L 151.107849 34.848 
" style="fill:none;stroke:#999999;stroke-linecap:round;stroke-width:1.3;"/>
     </g>
     <g id="line2d_4"/>
     <g id="text_2">
      <!-- 100 -->
      <defs>
       <path d="M 12.40625 8.296875 
L 28.515625 8.296875 
L 28.515625 63.921875 
L 10.984375 60.40625 
L 10.984375 69.390625 
L 28.421875 72.90625 
L 38.28125 72.90625 
L 38.28125 8.296875 
L 54.390625 8.296875 
L 54.390625 0 
L 12.40625 0 
z
" id="DejaVuSans-31"/>
      </defs>
      <g style="fill:#262626;" transform="translate(138.700974 250.029969)scale(0.13 -0.13)">
       <use xlink:href="#DejaVuSans-31"/>
       <use x="63.623047" xlink:href="#DejaVuSans-30"/>
       <use x="127.246094" xlink:href="#DejaVuSans-30"/>
      </g>
     </g>
    </g>
    <g id="xtick_3">
     <g id="line2d_5">
      <path clip-path="url(#p8881c2c3ab)" d="M 211.447006 231.052 
L 211.447006 34.848 
" style="fill:none;stroke:#999999;stroke-linecap:round;stroke-width:1.3;"/>
     </g>
     <g id="line2d_6"/>
     <g id="text_3">
      <!-- 200 -->
      <defs>
       <path d="M 19.1875 8.296875 
L 53.609375 8.296875 
L 53.609375 0 
L 7.328125 0 
L 7.328125 8.296875 
Q 12.9375 14.109375 22.625 23.890625 
Q 32.328125 33.6875 34.8125 36.53125 
Q 39.546875 41.84375 41.421875 45.53125 
Q 43.3125 49.21875 43.3125 52.78125 
Q 43.3125 58.59375 39.234375 62.25 
Q 35.15625 65.921875 28.609375 65.921875 
Q 23.96875 65.921875 18.8125 64.3125 
Q 13.671875 62.703125 7.8125 59.421875 
L 7.8125 69.390625 
Q 13.765625 71.78125 18.9375 73 
Q 24.125 74.21875 28.421875 74.21875 
Q 39.75 74.21875 46.484375 68.546875 
Q 53.21875 62.890625 53.21875 53.421875 
Q 53.21875 48.921875 51.53125 44.890625 
Q 49.859375 40.875 45.40625 35.40625 
Q 44.1875 33.984375 37.640625 27.21875 
Q 31.109375 20.453125 19.1875 8.296875 
z
" id="DejaVuSans-32"/>
      </defs>
      <g style="fill:#262626;" transform="translate(199.040131 250.029969)scale(0.13 -0.13)">
       <use xlink:href="#DejaVuSans-32"/>
       <use x="63.623047" xlink:href="#DejaVuSans-30"/>
       <use x="127.246094" xlink:href="#DejaVuSans-30"/>
      </g>
     </g>
    </g>
    <g id="xtick_4">
     <g id="line2d_7">
      <path clip-path="url(#p8881c2c3ab)" d="M 271.786163 231.052 
L 271.786163 34.848 
" style="fill:none;stroke:#999999;stroke-linecap:round;stroke-width:1.3;"/>
     </g>
     <g id="line2d_8"/>
     <g id="text_4">
      <!-- 300 -->
      <defs>
       <path d="M 40.578125 39.3125 
Q 47.65625 37.796875 51.625 33 
Q 55.609375 28.21875 55.609375 21.1875 
Q 55.609375 10.40625 48.1875 4.484375 
Q 40.765625 -1.421875 27.09375 -1.421875 
Q 22.515625 -1.421875 17.65625 -0.515625 
Q 12.796875 0.390625 7.625 2.203125 
L 7.625 11.71875 
Q 11.71875 9.328125 16.59375 8.109375 
Q 21.484375 6.890625 26.8125 6.890625 
Q 36.078125 6.890625 40.9375 10.546875 
Q 45.796875 14.203125 45.796875 21.1875 
Q 45.796875 27.640625 41.28125 31.265625 
Q 36.765625 34.90625 28.71875 34.90625 
L 20.21875 34.90625 
L 20.21875 43.015625 
L 29.109375 43.015625 
Q 36.375 43.015625 40.234375 45.921875 
Q 44.09375 48.828125 44.09375 54.296875 
Q 44.09375 59.90625 40.109375 62.90625 
Q 36.140625 65.921875 28.71875 65.921875 
Q 24.65625 65.921875 20.015625 65.03125 
Q 15.375 64.15625 9.8125 62.3125 
L 9.8125 71.09375 
Q 15.4375 72.65625 20.34375 73.4375 
Q 25.25 74.21875 29.59375 74.21875 
Q 40.828125 74.21875 47.359375 69.109375 
Q 53.90625 64.015625 53.90625 55.328125 
Q 53.90625 49.265625 50.4375 45.09375 
Q 46.96875 40.921875 40.578125 39.3125 
z
" id="DejaVuSans-33"/>
      </defs>
      <g style="fill:#262626;" transform="translate(259.379288 250.029969)scale(0.13 -0.13)">
       <use xlink:href="#DejaVuSans-33"/>
       <use x="63.623047" xlink:href="#DejaVuSans-30"/>
       <use x="127.246094" xlink:href="#DejaVuSans-30"/>
      </g>
     </g>
    </g>
    <g id="xtick_5">
     <g id="line2d_9">
      <path clip-path="url(#p8881c2c3ab)" d="M 332.12532 231.052 
L 332.12532 34.848 
" style="fill:none;stroke:#999999;stroke-linecap:round;stroke-width:1.3;"/>
     </g>
     <g id="line2d_10"/>
     <g id="text_5">
      <!-- 400 -->
      <defs>
       <path d="M 37.796875 64.3125 
L 12.890625 25.390625 
L 37.796875 25.390625 
z
M 35.203125 72.90625 
L 47.609375 72.90625 
L 47.609375 25.390625 
L 58.015625 25.390625 
L 58.015625 17.1875 
L 47.609375 17.1875 
L 47.609375 0 
L 37.796875 0 
L 37.796875 17.1875 
L 4.890625 17.1875 
L 4.890625 26.703125 
z
" id="DejaVuSans-34"/>
      </defs>
      <g style="fill:#262626;" transform="translate(319.718445 250.029969)scale(0.13 -0.13)">
       <use xlink:href="#DejaVuSans-34"/>
       <use x="63.623047" xlink:href="#DejaVuSans-30"/>
       <use x="127.246094" xlink:href="#DejaVuSans-30"/>
      </g>
     </g>
    </g>
    <g id="xtick_6">
     <g id="line2d_11">
      <path clip-path="url(#p8881c2c3ab)" d="M 392.464477 231.052 
L 392.464477 34.848 
" style="fill:none;stroke:#999999;stroke-linecap:round;stroke-width:1.3;"/>
     </g>
     <g id="line2d_12"/>
     <g id="text_6">
      <!-- 500 -->
      <defs>
       <path d="M 10.796875 72.90625 
L 49.515625 72.90625 
L 49.515625 64.59375 
L 19.828125 64.59375 
L 19.828125 46.734375 
Q 21.96875 47.46875 24.109375 47.828125 
Q 26.265625 48.1875 28.421875 48.1875 
Q 40.625 48.1875 47.75 41.5 
Q 54.890625 34.8125 54.890625 23.390625 
Q 54.890625 11.625 47.5625 5.09375 
Q 40.234375 -1.421875 26.90625 -1.421875 
Q 22.3125 -1.421875 17.546875 -0.640625 
Q 12.796875 0.140625 7.71875 1.703125 
L 7.71875 11.625 
Q 12.109375 9.234375 16.796875 8.0625 
Q 21.484375 6.890625 26.703125 6.890625 
Q 35.15625 6.890625 40.078125 11.328125 
Q 45.015625 15.765625 45.015625 23.390625 
Q 45.015625 31 40.078125 35.4375 
Q 35.15625 39.890625 26.703125 39.890625 
Q 22.75 39.890625 18.8125 39.015625 
Q 14.890625 38.140625 10.796875 36.28125 
z
" id="DejaVuSans-35"/>
      </defs>
      <g style="fill:#262626;" transform="translate(380.057602 250.029969)scale(0.13 -0.13)">
       <use xlink:href="#DejaVuSans-35"/>
       <use x="63.623047" xlink:href="#DejaVuSans-30"/>
       <use x="127.246094" xlink:href="#DejaVuSans-30"/>
      </g>
     </g>
    </g>
    <g id="text_7">
     <!-- Iteration -->
     <defs>
      <path d="M 9.8125 72.90625 
L 19.671875 72.90625 
L 19.671875 0 
L 9.8125 0 
z
" id="DejaVuSans-49"/>
      <path d="M 18.3125 70.21875 
L 18.3125 54.6875 
L 36.8125 54.6875 
L 36.8125 47.703125 
L 18.3125 47.703125 
L 18.3125 18.015625 
Q 18.3125 11.328125 20.140625 9.421875 
Q 21.96875 7.515625 27.59375 7.515625 
L 36.8125 7.515625 
L 36.8125 0 
L 27.59375 0 
Q 17.1875 0 13.234375 3.875 
Q 9.28125 7.765625 9.28125 18.015625 
L 9.28125 47.703125 
L 2.6875 47.703125 
L 2.6875 54.6875 
L 9.28125 54.6875 
L 9.28125 70.21875 
z
" id="DejaVuSans-74"/>
      <path d="M 56.203125 29.59375 
L 56.203125 25.203125 
L 14.890625 25.203125 
Q 15.484375 15.921875 20.484375 11.0625 
Q 25.484375 6.203125 34.421875 6.203125 
Q 39.59375 6.203125 44.453125 7.46875 
Q 49.3125 8.734375 54.109375 11.28125 
L 54.109375 2.78125 
Q 49.265625 0.734375 44.1875 -0.34375 
Q 39.109375 -1.421875 33.890625 -1.421875 
Q 20.796875 -1.421875 13.15625 6.1875 
Q 5.515625 13.8125 5.515625 26.8125 
Q 5.515625 40.234375 12.765625 48.109375 
Q 20.015625 56 32.328125 56 
Q 43.359375 56 49.78125 48.890625 
Q 56.203125 41.796875 56.203125 29.59375 
z
M 47.21875 32.234375 
Q 47.125 39.59375 43.09375 43.984375 
Q 39.0625 48.390625 32.421875 48.390625 
Q 24.90625 48.390625 20.390625 44.140625 
Q 15.875 39.890625 15.1875 32.171875 
z
" id="DejaVuSans-65"/>
      <path d="M 41.109375 46.296875 
Q 39.59375 47.171875 37.8125 47.578125 
Q 36.03125 48 33.890625 48 
Q 26.265625 48 22.1875 43.046875 
Q 18.109375 38.09375 18.109375 28.8125 
L 18.109375 0 
L 9.078125 0 
L 9.078125 54.6875 
L 18.109375 54.6875 
L 18.109375 46.1875 
Q 20.953125 51.171875 25.484375 53.578125 
Q 30.03125 56 36.53125 56 
Q 37.453125 56 38.578125 55.875 
Q 39.703125 55.765625 41.0625 55.515625 
z
" id="DejaVuSans-72"/>
      <path d="M 34.28125 27.484375 
Q 23.390625 27.484375 19.1875 25 
Q 14.984375 22.515625 14.984375 16.5 
Q 14.984375 11.71875 18.140625 8.90625 
Q 21.296875 6.109375 26.703125 6.109375 
Q 34.1875 6.109375 38.703125 11.40625 
Q 43.21875 16.703125 43.21875 25.484375 
L 43.21875 27.484375 
z
M 52.203125 31.203125 
L 52.203125 0 
L 43.21875 0 
L 43.21875 8.296875 
Q 40.140625 3.328125 35.546875 0.953125 
Q 30.953125 -1.421875 24.3125 -1.421875 
Q 15.921875 -1.421875 10.953125 3.296875 
Q 6 8.015625 6 15.921875 
Q 6 25.140625 12.171875 29.828125 
Q 18.359375 34.515625 30.609375 34.515625 
L 43.21875 34.515625 
L 43.21875 35.40625 
Q 43.21875 41.609375 39.140625 45 
Q 35.0625 48.390625 27.6875 48.390625 
Q 23 48.390625 18.546875 47.265625 
Q 14.109375 46.140625 10.015625 43.890625 
L 10.015625 52.203125 
Q 14.9375 54.109375 19.578125 55.046875 
Q 24.21875 56 28.609375 56 
Q 40.484375 56 46.34375 49.84375 
Q 52.203125 43.703125 52.203125 31.203125 
z
" id="DejaVuSans-61"/>
      <path d="M 9.421875 54.6875 
L 18.40625 54.6875 
L 18.40625 0 
L 9.421875 0 
z
M 9.421875 75.984375 
L 18.40625 75.984375 
L 18.40625 64.59375 
L 9.421875 64.59375 
z
" id="DejaVuSans-69"/>
      <path d="M 30.609375 48.390625 
Q 23.390625 48.390625 19.1875 42.75 
Q 14.984375 37.109375 14.984375 27.296875 
Q 14.984375 17.484375 19.15625 11.84375 
Q 23.34375 6.203125 30.609375 6.203125 
Q 37.796875 6.203125 41.984375 11.859375 
Q 46.1875 17.53125 46.1875 27.296875 
Q 46.1875 37.015625 41.984375 42.703125 
Q 37.796875 48.390625 30.609375 48.390625 
z
M 30.609375 56 
Q 42.328125 56 49.015625 48.375 
Q 55.71875 40.765625 55.71875 27.296875 
Q 55.71875 13.875 49.015625 6.21875 
Q 42.328125 -1.421875 30.609375 -1.421875 
Q 18.84375 -1.421875 12.171875 6.21875 
Q 5.515625 13.875 5.515625 27.296875 
Q 5.515625 40.765625 12.171875 48.375 
Q 18.84375 56 30.609375 56 
z
" id="DejaVuSans-6f"/>
      <path d="M 54.890625 33.015625 
L 54.890625 0 
L 45.90625 0 
L 45.90625 32.71875 
Q 45.90625 40.484375 42.875 44.328125 
Q 39.84375 48.1875 33.796875 48.1875 
Q 26.515625 48.1875 22.3125 43.546875 
Q 18.109375 38.921875 18.109375 30.90625 
L 18.109375 0 
L 9.078125 0 
L 9.078125 54.6875 
L 18.109375 54.6875 
L 18.109375 46.1875 
Q 21.34375 51.125 25.703125 53.5625 
Q 30.078125 56 35.796875 56 
Q 45.21875 56 50.046875 50.171875 
Q 54.890625 44.34375 54.890625 33.015625 
z
" id="DejaVuSans-6e"/>
     </defs>
     <g style="fill:#262626;" transform="translate(214.908645 267.599328)scale(0.143 -0.143)">
      <use xlink:href="#DejaVuSans-49"/>
      <use x="29.492188" xlink:href="#DejaVuSans-74"/>
      <use x="68.701172" xlink:href="#DejaVuSans-65"/>
      <use x="130.224609" xlink:href="#DejaVuSans-72"/>
      <use x="171.337891" xlink:href="#DejaVuSans-61"/>
      <use x="232.617188" xlink:href="#DejaVuSans-74"/>
      <use x="271.826172" xlink:href="#DejaVuSans-69"/>
      <use x="299.609375" xlink:href="#DejaVuSans-6f"/>
      <use x="360.791016" xlink:href="#DejaVuSans-6e"/>
     </g>
    </g>
   </g>
   <g id="matplotlib.axis_2">
    <g id="ytick_1">
     <g id="line2d_13">
      <path clip-path="url(#p8881c2c3ab)" d="M 75.321867 194.25793 
L 415.152 194.25793 
" style="fill:none;stroke:#999999;stroke-linecap:round;stroke-width:1.3;"/>
     </g>
     <g id="line2d_14"/>
     <g id="text_8">
      <!-- $\mathdefault{10^{1}}$ -->
      <g style="fill:#262626;" transform="translate(43.341867 199.196914)scale(0.13 -0.13)">
       <use transform="translate(0 0.684375)" xlink:href="#DejaVuSans-31"/>
       <use transform="translate(63.623047 0.684375)" xlink:href="#DejaVuSans-30"/>
       <use transform="translate(128.203125 38.965625)scale(0.7)" xlink:href="#DejaVuSans-31"/>
      </g>
     </g>
    </g>
    <g id="ytick_2">
     <g id="line2d_15">
      <path clip-path="url(#p8881c2c3ab)" d="M 75.321867 156.282615 
L 415.152 156.282615 
" style="fill:none;stroke:#999999;stroke-linecap:round;stroke-width:1.3;"/>
     </g>
     <g id="line2d_16"/>
     <g id="text_9">
      <!-- $\mathdefault{10^{3}}$ -->
      <g style="fill:#262626;" transform="translate(43.341867 161.221599)scale(0.13 -0.13)">
       <use transform="translate(0 0.765625)" xlink:href="#DejaVuSans-31"/>
       <use transform="translate(63.623047 0.765625)" xlink:href="#DejaVuSans-30"/>
       <use transform="translate(128.203125 39.046875)scale(0.7)" xlink:href="#DejaVuSans-33"/>
      </g>
     </g>
    </g>
    <g id="ytick_3">
     <g id="line2d_17">
      <path clip-path="url(#p8881c2c3ab)" d="M 75.321867 118.3073 
L 415.152 118.3073 
" style="fill:none;stroke:#999999;stroke-linecap:round;stroke-width:1.3;"/>
     </g>
     <g id="line2d_18"/>
     <g id="text_10">
      <!-- $\mathdefault{10^{5}}$ -->
      <g style="fill:#262626;" transform="translate(43.341867 123.246284)scale(0.13 -0.13)">
       <use transform="translate(0 0.684375)" xlink:href="#DejaVuSans-31"/>
       <use transform="translate(63.623047 0.684375)" xlink:href="#DejaVuSans-30"/>
       <use transform="translate(128.203125 38.965625)scale(0.7)" xlink:href="#DejaVuSans-35"/>
      </g>
     </g>
    </g>
    <g id="ytick_4">
     <g id="line2d_19">
      <path clip-path="url(#p8881c2c3ab)" d="M 75.321867 80.331984 
L 415.152 80.331984 
" style="fill:none;stroke:#999999;stroke-linecap:round;stroke-width:1.3;"/>
     </g>
     <g id="line2d_20"/>
     <g id="text_11">
      <!-- $\mathdefault{10^{7}}$ -->
      <defs>
       <path d="M 8.203125 72.90625 
L 55.078125 72.90625 
L 55.078125 68.703125 
L 28.609375 0 
L 18.3125 0 
L 43.21875 64.59375 
L 8.203125 64.59375 
z
" id="DejaVuSans-37"/>
      </defs>
      <g style="fill:#262626;" transform="translate(43.341867 85.270969)scale(0.13 -0.13)">
       <use transform="translate(0 0.684375)" xlink:href="#DejaVuSans-31"/>
       <use transform="translate(63.623047 0.684375)" xlink:href="#DejaVuSans-30"/>
       <use transform="translate(128.203125 38.965625)scale(0.7)" xlink:href="#DejaVuSans-37"/>
      </g>
     </g>
    </g>
    <g id="ytick_5">
     <g id="line2d_21">
      <path clip-path="url(#p8881c2c3ab)" d="M 75.321867 42.356669 
L 415.152 42.356669 
" style="fill:none;stroke:#999999;stroke-linecap:round;stroke-width:1.3;"/>
     </g>
     <g id="line2d_22"/>
     <g id="text_12">
      <!-- $\mathdefault{10^{9}}$ -->
      <defs>
       <path d="M 10.984375 1.515625 
L 10.984375 10.5 
Q 14.703125 8.734375 18.5 7.8125 
Q 22.3125 6.890625 25.984375 6.890625 
Q 35.75 6.890625 40.890625 13.453125 
Q 46.046875 20.015625 46.78125 33.40625 
Q 43.953125 29.203125 39.59375 26.953125 
Q 35.25 24.703125 29.984375 24.703125 
Q 19.046875 24.703125 12.671875 31.3125 
Q 6.296875 37.9375 6.296875 49.421875 
Q 6.296875 60.640625 12.9375 67.421875 
Q 19.578125 74.21875 30.609375 74.21875 
Q 43.265625 74.21875 49.921875 64.515625 
Q 56.59375 54.828125 56.59375 36.375 
Q 56.59375 19.140625 48.40625 8.859375 
Q 40.234375 -1.421875 26.421875 -1.421875 
Q 22.703125 -1.421875 18.890625 -0.6875 
Q 15.09375 0.046875 10.984375 1.515625 
z
M 30.609375 32.421875 
Q 37.25 32.421875 41.125 36.953125 
Q 45.015625 41.5 45.015625 49.421875 
Q 45.015625 57.28125 41.125 61.84375 
Q 37.25 66.40625 30.609375 66.40625 
Q 23.96875 66.40625 20.09375 61.84375 
Q 16.21875 57.28125 16.21875 49.421875 
Q 16.21875 41.5 20.09375 36.953125 
Q 23.96875 32.421875 30.609375 32.421875 
z
" id="DejaVuSans-39"/>
      </defs>
      <g style="fill:#262626;" transform="translate(43.341867 47.295654)scale(0.13 -0.13)">
       <use transform="translate(0 0.765625)" xlink:href="#DejaVuSans-31"/>
       <use transform="translate(63.623047 0.765625)" xlink:href="#DejaVuSans-30"/>
       <use transform="translate(128.203125 39.046875)scale(0.7)" xlink:href="#DejaVuSans-39"/>
      </g>
     </g>
    </g>
    <g id="text_13">
     <!-- $\|\| x_k - x^* \|\|^2$ -->
     <defs>
      <path d="M 21 76.421875 
L 21 -23.578125 
L 12.703125 -23.578125 
L 12.703125 76.421875 
z
" id="DejaVuSans-7c"/>
      <path d="M 60.015625 54.6875 
L 34.90625 27.875 
L 50.296875 0 
L 39.984375 0 
L 28.421875 21.6875 
L 8.296875 0 
L -2.59375 0 
L 24.3125 28.8125 
L 10.015625 54.6875 
L 20.3125 54.6875 
L 30.8125 34.90625 
L 49.125 54.6875 
z
" id="DejaVuSans-Oblique-78"/>
      <path d="M 18.3125 75.984375 
L 27.296875 75.984375 
L 18.703125 31.6875 
L 49.515625 54.6875 
L 61.1875 54.6875 
L 26.8125 28.515625 
L 51.90625 0 
L 41.015625 0 
L 17.671875 26.703125 
L 12.5 0 
L 3.515625 0 
z
" id="DejaVuSans-Oblique-6b"/>
      <path d="M 10.59375 35.5 
L 73.1875 35.5 
L 73.1875 27.203125 
L 10.59375 27.203125 
z
" id="DejaVuSans-2212"/>
      <path d="M 47.015625 60.890625 
L 29.5 51.421875 
L 47.015625 41.890625 
L 44.1875 37.109375 
L 27.78125 47.015625 
L 27.78125 28.609375 
L 22.21875 28.609375 
L 22.21875 47.015625 
L 5.8125 37.109375 
L 2.984375 41.890625 
L 20.515625 51.421875 
L 2.984375 60.890625 
L 5.8125 65.71875 
L 22.21875 55.8125 
L 22.21875 74.21875 
L 27.78125 74.21875 
L 27.78125 55.8125 
L 44.1875 65.71875 
z
" id="DejaVuSans-2a"/>
     </defs>
     <g style="fill:#262626;" transform="translate(35.909867 171.3455)rotate(-90)scale(0.143 -0.143)">
      <use transform="translate(0 0.765625)" xlink:href="#DejaVuSans-7c"/>
      <use transform="translate(33.691406 0.765625)" xlink:href="#DejaVuSans-7c"/>
      <use transform="translate(67.382812 0.765625)" xlink:href="#DejaVuSans-Oblique-78"/>
      <use transform="translate(126.5625 -15.640625)scale(0.7)" xlink:href="#DejaVuSans-Oblique-6b"/>
      <use transform="translate(189.316406 0.765625)" xlink:href="#DejaVuSans-2212"/>
      <use transform="translate(292.587891 0.765625)" xlink:href="#DejaVuSans-Oblique-78"/>
      <use transform="translate(369.871419 39.046875)scale(0.7)" xlink:href="#DejaVuSans-2a"/>
      <use transform="translate(421.24349 0.765625)" xlink:href="#DejaVuSans-7c"/>
      <use transform="translate(454.934896 0.765625)" xlink:href="#DejaVuSans-7c"/>
      <use transform="translate(489.583333 39.046875)scale(0.7)" xlink:href="#DejaVuSans-32"/>
     </g>
    </g>
   </g>
   <g id="PolyCollection_1">
    <defs>
     <path d="M 90.768691 -244.233636 
L 90.768691 -244.233636 
L 91.372083 -244.22991 
L 91.975475 -244.162029 
L 92.578866 -243.92073 
L 93.182258 -243.652939 
L 93.785649 -243.188742 
L 94.389041 -242.891846 
L 94.992432 -242.331741 
L 95.595824 -241.846567 
L 96.199216 -241.439798 
L 96.802607 -240.876069 
L 97.405999 -240.373922 
L 98.00939 -239.789907 
L 98.612782 -239.217578 
L 99.216173 -238.593767 
L 99.819565 -238.00868 
L 100.422957 -237.501583 
L 101.026348 -236.770009 
L 101.62974 -236.113108 
L 102.233131 -235.573421 
L 102.836523 -234.897719 
L 103.439914 -233.960975 
L 104.043306 -233.585594 
L 104.646698 -233.138729 
L 105.250089 -232.080839 
L 105.853481 -231.20334 
L 106.456872 -230.129001 
L 107.060264 -229.531514 
L 107.663655 -229.018718 
L 108.267047 -228.115398 
L 108.870439 -227.514394 
L 109.47383 -226.717094 
L 110.077222 -225.300555 
L 110.680613 -224.917665 
L 111.284005 -223.976697 
L 111.887396 -223.349927 
L 112.490788 -222.863053 
L 113.09418 -222.186255 
L 113.697571 -221.260948 
L 114.300963 -220.291792 
L 114.904354 -219.303878 
L 115.507746 -218.499816 
L 116.111137 -217.949628 
L 116.714529 -217.431196 
L 117.317921 -216.706629 
L 117.921312 -216.149889 
L 118.524704 -214.770965 
L 119.128095 -213.97106 
L 119.731487 -213.001862 
L 120.334878 -212.026956 
L 120.93827 -211.445197 
L 121.541662 -210.58193 
L 122.145053 -209.976681 
L 122.748445 -209.218113 
L 123.351836 -208.201762 
L 123.955228 -207.58273 
L 124.558619 -206.752445 
L 125.162011 -205.686452 
L 125.765403 -204.918704 
L 126.368794 -204.501432 
L 126.972186 -204.089794 
L 127.575577 -203.369658 
L 128.178969 -202.813644 
L 128.78236 -202.071496 
L 129.385752 -201.387351 
L 129.989144 -200.137411 
L 130.592535 -199.229152 
L 131.195927 -198.163358 
L 131.799318 -197.169939 
L 132.40271 -196.18761 
L 133.006101 -195.503107 
L 133.609493 -195.130335 
L 134.212885 -194.058387 
L 134.816276 -192.827536 
L 135.419668 -192.085349 
L 136.023059 -191.10608 
L 136.626451 -190.731779 
L 137.229842 -189.629644 
L 137.833234 -188.598178 
L 138.436626 -187.880201 
L 139.040017 -187.29092 
L 139.643409 -186.000358 
L 140.2468 -185.064292 
L 140.850192 -183.923624 
L 141.453583 -183.28789 
L 142.056975 -182.534528 
L 142.660367 -181.517639 
L 143.263758 -180.909844 
L 143.86715 -180.12482 
L 144.470541 -179.196224 
L 145.073933 -178.093902 
L 145.677324 -177.291265 
L 146.280716 -175.974822 
L 146.884108 -175.196122 
L 147.487499 -174.387188 
L 148.090891 -173.476767 
L 148.694282 -172.648123 
L 149.297674 -171.877913 
L 149.901065 -171.158578 
L 150.504457 -170.413537 
L 151.107849 -169.824731 
L 151.71124 -168.978095 
L 152.314632 -167.983558 
L 152.918023 -167.200174 
L 153.521415 -166.283074 
L 154.124806 -165.12523 
L 154.728198 -164.041713 
L 155.33159 -163.116045 
L 155.934981 -162.311527 
L 156.538373 -161.596781 
L 157.141764 -160.937216 
L 157.745156 -159.684052 
L 158.348547 -159.109497 
L 158.951939 -158.244626 
L 159.555331 -157.570186 
L 160.158722 -156.466747 
L 160.762114 -155.827843 
L 161.365505 -154.983034 
L 161.968897 -153.634474 
L 162.572288 -152.756289 
L 163.17568 -152.251094 
L 163.779072 -151.389266 
L 164.382463 -150.275836 
L 164.985855 -149.293789 
L 165.589246 -148.257904 
L 166.192638 -147.691147 
L 166.796029 -146.903255 
L 167.399421 -146.459455 
L 168.002813 -145.762333 
L 168.606204 -144.266727 
L 169.209596 -143.113952 
L 169.812987 -142.396107 
L 170.416379 -141.314045 
L 171.01977 -140.908825 
L 171.623162 -139.932987 
L 172.226553 -138.640979 
L 172.829945 -138.42546 
L 173.433337 -137.332743 
L 174.036728 -136.34981 
L 174.64012 -135.646824 
L 175.243511 -135.01387 
L 175.846903 -134.269075 
L 176.450294 -133.932191 
L 177.053686 -132.67304 
L 177.657078 -131.740923 
L 178.260469 -130.741821 
L 178.863861 -130.071274 
L 179.467252 -129.031726 
L 180.070644 -127.321707 
L 180.674035 -126.806532 
L 181.277427 -125.825169 
L 181.880819 -125.146304 
L 182.48421 -124.720932 
L 183.087602 -123.790885 
L 183.690993 -123.345162 
L 184.294385 -122.553963 
L 184.897776 -122.006658 
L 185.501168 -121.587952 
L 186.10456 -120.194461 
L 186.707951 -119.448857 
L 187.311343 -118.772056 
L 187.914734 -118.070213 
L 188.518126 -116.55168 
L 189.121517 -116.0896 
L 189.724909 -115.572054 
L 190.328301 -115.401024 
L 190.931692 -113.495019 
L 191.535084 -112.072633 
L 192.138475 -111.575167 
L 192.741867 -110.666632 
L 193.345258 -109.686794 
L 193.94865 -109.107212 
L 194.552042 -108.516348 
L 195.155433 -107.278936 
L 195.758825 -106.463025 
L 196.362216 -106.25391 
L 196.965608 -104.996306 
L 197.568999 -103.961306 
L 198.172391 -103.581576 
L 198.775783 -102.996193 
L 199.379174 -102.198366 
L 199.982566 -101.248266 
L 200.585957 -100.178379 
L 201.189349 -99.117193 
L 201.79274 -98.476178 
L 202.396132 -97.488935 
L 202.999524 -96.94305 
L 203.602915 -96.376052 
L 204.206307 -95.115931 
L 204.809698 -94.468452 
L 205.41309 -94.048105 
L 206.016481 -93.162687 
L 206.619873 -92.131586 
L 207.223265 -90.82545 
L 207.826656 -90.630802 
L 208.430048 -89.649439 
L 209.033439 -88.933517 
L 209.636831 -87.857148 
L 210.240222 -87.28972 
L 210.843614 -87.091519 
L 211.447006 -86.772471 
L 212.050397 -86.581097 
L 212.653789 -85.912145 
L 213.25718 -85.111423 
L 213.860572 -85.065947 
L 214.463963 -84.428858 
L 215.067355 -83.861459 
L 215.670747 -83.519435 
L 216.274138 -83.127081 
L 216.87753 -83.021833 
L 217.480921 -82.608353 
L 218.084313 -82.646643 
L 218.687704 -82.107917 
L 219.291096 -82.062942 
L 219.894488 -81.765046 
L 220.497879 -81.492214 
L 221.101271 -81.636057 
L 221.704662 -81.719522 
L 222.308054 -81.657221 
L 222.911445 -81.06272 
L 223.514837 -80.677256 
L 224.118229 -80.766296 
L 224.72162 -80.945248 
L 225.325012 -80.906275 
L 225.928403 -80.667438 
L 226.531795 -80.641103 
L 227.135186 -80.785402 
L 227.738578 -80.824245 
L 228.34197 -80.646361 
L 228.945361 -80.591984 
L 229.548753 -80.589934 
L 230.152144 -80.631411 
L 230.755536 -80.641159 
L 231.358927 -80.572671 
L 231.962319 -80.603826 
L 232.565711 -80.583034 
L 233.169102 -80.442048 
L 233.772494 -80.357929 
L 234.375885 -80.138863 
L 234.979277 -80.038749 
L 235.582668 -80.006513 
L 236.18606 -80.155325 
L 236.789452 -80.155735 
L 237.392843 -80.265151 
L 237.996235 -80.428951 
L 238.599626 -80.383685 
L 239.203018 -80.416836 
L 239.806409 -80.383904 
L 240.409801 -80.342813 
L 241.013193 -80.390877 
L 241.616584 -80.375923 
L 242.219976 -80.44619 
L 242.823367 -80.472385 
L 243.426759 -80.15454 
L 244.03015 -80.422266 
L 244.633542 -80.55487 
L 245.236934 -80.169858 
L 245.840325 -80.137747 
L 246.443717 -80.349963 
L 247.047108 -80.311189 
L 247.6505 -80.333384 
L 248.253891 -80.048093 
L 248.857283 -80.451372 
L 249.460675 -80.379057 
L 250.064066 -80.329111 
L 250.667458 -80.115093 
L 251.270849 -80.316537 
L 251.874241 -79.929892 
L 252.477632 -79.817745 
L 253.081024 -79.788783 
L 253.684416 -80.144627 
L 254.287807 -80.116139 
L 254.891199 -79.974166 
L 255.49459 -80.111944 
L 256.097982 -79.918772 
L 256.701373 -79.953381 
L 257.304765 -80.064498 
L 257.908157 -80.110552 
L 258.511548 -80.179716 
L 259.11494 -80.353556 
L 259.718331 -80.391185 
L 260.321723 -80.211687 
L 260.925114 -80.326877 
L 261.528506 -80.304712 
L 262.131898 -80.147552 
L 262.735289 -79.994196 
L 263.338681 -80.093362 
L 263.942072 -80.268854 
L 264.545464 -80.019322 
L 265.148855 -80.065583 
L 265.752247 -80.131118 
L 266.355639 -80.254438 
L 266.95903 -80.180409 
L 267.562422 -80.246233 
L 268.165813 -80.306956 
L 268.769205 -80.343688 
L 269.372596 -80.054779 
L 269.975988 -80.445598 
L 270.57938 -80.344348 
L 271.182771 -80.583477 
L 271.786163 -80.487983 
L 272.389554 -80.320512 
L 272.992946 -80.350966 
L 273.596337 -80.340283 
L 274.199729 -80.368719 
L 274.803121 -80.556242 
L 275.406512 -80.407689 
L 276.009904 -80.365446 
L 276.613295 -80.387977 
L 277.216687 -80.413988 
L 277.820078 -80.223966 
L 278.42347 -80.333375 
L 279.026862 -80.317149 
L 279.630253 -80.437018 
L 280.233645 -80.187655 
L 280.837036 -80.062017 
L 281.440428 -80.206219 
L 282.043819 -80.18022 
L 282.647211 -80.586007 
L 283.250603 -80.474296 
L 283.853994 -80.306291 
L 284.457386 -80.449215 
L 285.060777 -80.374588 
L 285.664169 -80.186871 
L 286.26756 -80.448857 
L 286.870952 -80.30298 
L 287.474344 -80.519864 
L 288.077735 -80.369026 
L 288.681127 -80.317801 
L 289.284518 -80.630964 
L 289.88791 -80.262964 
L 290.491301 -80.401392 
L 291.094693 -80.389452 
L 291.698085 -80.252344 
L 292.301476 -80.094448 
L 292.904868 -79.973851 
L 293.508259 -80.075883 
L 294.111651 -79.970694 
L 294.715042 -79.868404 
L 295.318434 -79.856226 
L 295.921826 -79.755706 
L 296.525217 -79.944036 
L 297.128609 -80.155627 
L 297.732 -80.028076 
L 298.335392 -80.088198 
L 298.938783 -80.291072 
L 299.542175 -80.14584 
L 300.145567 -80.225023 
L 300.748958 -80.075323 
L 301.35235 -80.294126 
L 301.955741 -80.532612 
L 302.559133 -80.535373 
L 303.162524 -80.139228 
L 303.765916 -80.047891 
L 304.369308 -79.959505 
L 304.972699 -80.154801 
L 305.576091 -80.265562 
L 306.179482 -80.166769 
L 306.782874 -79.956834 
L 307.386265 -80.014787 
L 307.989657 -79.818548 
L 308.593049 -79.874133 
L 309.19644 -80.275262 
L 309.799832 -79.864281 
L 310.403223 -79.922204 
L 311.006615 -80.125539 
L 311.610006 -79.973614 
L 312.213398 -79.768746 
L 312.81679 -79.741352 
L 313.420181 -80.030618 
L 314.023573 -80.179218 
L 314.626964 -80.40652 
L 315.230356 -80.145918 
L 315.833747 -80.541598 
L 316.437139 -80.466227 
L 317.040531 -80.605711 
L 317.643922 -80.345466 
L 318.247314 -80.281828 
L 318.850705 -80.29183 
L 319.454097 -80.198022 
L 320.057488 -80.090637 
L 320.66088 -80.375877 
L 321.264272 -80.292624 
L 321.867663 -80.267352 
L 322.471055 -80.222124 
L 323.074446 -80.211038 
L 323.677838 -80.179328 
L 324.281229 -80.463225 
L 324.884621 -80.3479 
L 325.488013 -80.597557 
L 326.091404 -80.373146 
L 326.694796 -80.321465 
L 327.298187 -80.213089 
L 327.901579 -80.254147 
L 328.50497 -80.227991 
L 329.108362 -80.428256 
L 329.711754 -80.276052 
L 330.315145 -80.396088 
L 330.918537 -80.391757 
L 331.521928 -80.34801 
L 332.12532 -80.216841 
L 332.728711 -80.574489 
L 333.332103 -80.583415 
L 333.935495 -80.593165 
L 334.538886 -80.888256 
L 335.142278 -80.468255 
L 335.745669 -80.516446 
L 336.349061 -80.164232 
L 336.952452 -80.074422 
L 337.555844 -80.371617 
L 338.159236 -80.301937 
L 338.762627 -79.871563 
L 339.366019 -80.016189 
L 339.96941 -79.993771 
L 340.572802 -80.070301 
L 341.176193 -80.243741 
L 341.779585 -80.197912 
L 342.382977 -80.3324 
L 342.986368 -80.372291 
L 343.58976 -80.298448 
L 344.193151 -80.485321 
L 344.796543 -79.985186 
L 345.399934 -80.360699 
L 346.003326 -80.061211 
L 346.606718 -79.97886 
L 347.210109 -80.256961 
L 347.813501 -80.332459 
L 348.416892 -80.352103 
L 349.020284 -80.440302 
L 349.623675 -80.586961 
L 350.227067 -80.342745 
L 350.830459 -80.365618 
L 351.43385 -80.309816 
L 352.037242 -80.251392 
L 352.640633 -80.08358 
L 353.244025 -80.242625 
L 353.847416 -80.23139 
L 354.450808 -80.312756 
L 355.0542 -80.244731 
L 355.657591 -80.063521 
L 356.260983 -80.077724 
L 356.864374 -80.056723 
L 357.467766 -80.180082 
L 358.071157 -80.323875 
L 358.674549 -79.959882 
L 359.277941 -80.050922 
L 359.881332 -79.988959 
L 360.484724 -80.054172 
L 361.088115 -80.259337 
L 361.691507 -80.173799 
L 362.294898 -80.190481 
L 362.89829 -80.210134 
L 363.501682 -80.415568 
L 364.105073 -80.44972 
L 364.708465 -80.287284 
L 365.311856 -80.41882 
L 365.915248 -80.081569 
L 366.518639 -80.206157 
L 367.122031 -80.057608 
L 367.725423 -80.215542 
L 368.328814 -80.026548 
L 368.932206 -80.156773 
L 369.535597 -80.304319 
L 370.138989 -80.32604 
L 370.74238 -80.415919 
L 371.345772 -80.38748 
L 371.949164 -80.264747 
L 372.552555 -80.255007 
L 373.155947 -80.351048 
L 373.759338 -80.004199 
L 374.36273 -80.137115 
L 374.966121 -80.193167 
L 375.569513 -80.196619 
L 376.172905 -80.134599 
L 376.776296 -80.198654 
L 377.379688 -80.276263 
L 377.983079 -80.260704 
L 378.586471 -80.308225 
L 379.189862 -80.363665 
L 379.793254 -80.529243 
L 380.396646 -80.430415 
L 381.000037 -80.430201 
L 381.603429 -80.242917 
L 382.20682 -80.235346 
L 382.810212 -79.999966 
L 383.413603 -80.070644 
L 384.016995 -80.162863 
L 384.620387 -80.060962 
L 385.223778 -80.148254 
L 385.82717 -79.965331 
L 386.430561 -80.066564 
L 387.033953 -80.167699 
L 387.637344 -80.219496 
L 388.240736 -80.29793 
L 388.844128 -80.243577 
L 389.447519 -80.416408 
L 390.050911 -80.528071 
L 390.654302 -80.350309 
L 391.257694 -80.354299 
L 391.861085 -80.215728 
L 392.464477 -80.244508 
L 393.067868 -80.258313 
L 393.67126 -80.234556 
L 394.274652 -80.682214 
L 394.878043 -80.116695 
L 395.481435 -80.065663 
L 396.084826 -80.132336 
L 396.688218 -80.215851 
L 397.291609 -80.13582 
L 397.895001 -80.238981 
L 398.498393 -80.384003 
L 399.101784 -80.188945 
L 399.705176 -80.283975 
L 399.705176 -67.030228 
L 399.705176 -67.030228 
L 399.101784 -67.289727 
L 398.498393 -67.192409 
L 397.895001 -67.223742 
L 397.291609 -67.288814 
L 396.688218 -66.806035 
L 396.084826 -66.615141 
L 395.481435 -67.04672 
L 394.878043 -66.865511 
L 394.274652 -66.883857 
L 393.67126 -66.834627 
L 393.067868 -67.097529 
L 392.464477 -67.16612 
L 391.861085 -66.820092 
L 391.257694 -67.183112 
L 390.654302 -67.022374 
L 390.050911 -66.963114 
L 389.447519 -66.650077 
L 388.844128 -66.940508 
L 388.240736 -67.018758 
L 387.637344 -66.925005 
L 387.033953 -66.867004 
L 386.430561 -66.554432 
L 385.82717 -66.757745 
L 385.223778 -66.78698 
L 384.620387 -66.929377 
L 384.016995 -66.759025 
L 383.413603 -66.940565 
L 382.810212 -66.658111 
L 382.20682 -66.831676 
L 381.603429 -67.307849 
L 381.000037 -67.262101 
L 380.396646 -66.925677 
L 379.793254 -66.609747 
L 379.189862 -67.201825 
L 378.586471 -67.154459 
L 377.983079 -66.997814 
L 377.379688 -67.090573 
L 376.776296 -67.0355 
L 376.172905 -67.461116 
L 375.569513 -67.089522 
L 374.966121 -66.850873 
L 374.36273 -67.138945 
L 373.759338 -66.993101 
L 373.155947 -67.413994 
L 372.552555 -66.821419 
L 371.949164 -66.958383 
L 371.345772 -66.967303 
L 370.74238 -66.577587 
L 370.138989 -66.394824 
L 369.535597 -67.108943 
L 368.932206 -67.206179 
L 368.328814 -67.089948 
L 367.725423 -66.590167 
L 367.122031 -66.30837 
L 366.518639 -66.723125 
L 365.915248 -66.94723 
L 365.311856 -67.098015 
L 364.708465 -66.670603 
L 364.105073 -66.412376 
L 363.501682 -66.855363 
L 362.89829 -67.397542 
L 362.294898 -67.627508 
L 361.691507 -67.835743 
L 361.088115 -67.397741 
L 360.484724 -67.393089 
L 359.881332 -66.970143 
L 359.277941 -66.71689 
L 358.674549 -66.731014 
L 358.071157 -66.799024 
L 357.467766 -66.710988 
L 356.864374 -66.713102 
L 356.260983 -66.509984 
L 355.657591 -66.190588 
L 355.0542 -66.204957 
L 354.450808 -66.704525 
L 353.847416 -66.165587 
L 353.244025 -66.459689 
L 352.640633 -66.337795 
L 352.037242 -66.638494 
L 351.43385 -66.487034 
L 350.830459 -66.334885 
L 350.227067 -65.866364 
L 349.623675 -66.198709 
L 349.020284 -66.454051 
L 348.416892 -66.485705 
L 347.813501 -66.215002 
L 347.210109 -66.517211 
L 346.606718 -66.565875 
L 346.003326 -66.832318 
L 345.399934 -66.938571 
L 344.796543 -67.185756 
L 344.193151 -67.063286 
L 343.58976 -67.015846 
L 342.986368 -67.272364 
L 342.382977 -67.315229 
L 341.779585 -67.349105 
L 341.176193 -67.334867 
L 340.572802 -67.127667 
L 339.96941 -66.82179 
L 339.366019 -66.80473 
L 338.762627 -66.680365 
L 338.159236 -66.536802 
L 337.555844 -66.434108 
L 336.952452 -66.57026 
L 336.349061 -66.523977 
L 335.745669 -67.148759 
L 335.142278 -66.977969 
L 334.538886 -66.686011 
L 333.935495 -66.982681 
L 333.332103 -66.922475 
L 332.728711 -66.780987 
L 332.12532 -67.311183 
L 331.521928 -66.794906 
L 330.918537 -66.796755 
L 330.315145 -66.659765 
L 329.711754 -66.498246 
L 329.108362 -66.375781 
L 328.50497 -66.554322 
L 327.901579 -66.549274 
L 327.298187 -66.165645 
L 326.694796 -65.998384 
L 326.091404 -65.913526 
L 325.488013 -66.103849 
L 324.884621 -66.3586 
L 324.281229 -66.669639 
L 323.677838 -66.683133 
L 323.074446 -66.832669 
L 322.471055 -66.895736 
L 321.867663 -67.115615 
L 321.264272 -66.955983 
L 320.66088 -66.634873 
L 320.057488 -66.999784 
L 319.454097 -66.88624 
L 318.850705 -66.803495 
L 318.247314 -66.772351 
L 317.643922 -66.841293 
L 317.040531 -66.718159 
L 316.437139 -66.680742 
L 315.833747 -66.850841 
L 315.230356 -67.170855 
L 314.626964 -66.49207 
L 314.023573 -66.618937 
L 313.420181 -66.695977 
L 312.81679 -66.643335 
L 312.213398 -67.178643 
L 311.610006 -66.884595 
L 311.006615 -66.437763 
L 310.403223 -66.383242 
L 309.799832 -66.714277 
L 309.19644 -66.57725 
L 308.593049 -67.010505 
L 307.989657 -66.957574 
L 307.386265 -66.789248 
L 306.782874 -67.081326 
L 306.179482 -67.217645 
L 305.576091 -66.676943 
L 304.972699 -66.795949 
L 304.369308 -66.997872 
L 303.765916 -67.057595 
L 303.162524 -67.095196 
L 302.559133 -66.856494 
L 301.955741 -67.135552 
L 301.35235 -66.82737 
L 300.748958 -66.579327 
L 300.145567 -66.732326 
L 299.542175 -66.6755 
L 298.938783 -67.174959 
L 298.335392 -66.712401 
L 297.732 -66.68054 
L 297.128609 -66.345822 
L 296.525217 -66.447233 
L 295.921826 -66.633983 
L 295.318434 -66.738389 
L 294.715042 -66.211103 
L 294.111651 -66.282063 
L 293.508259 -66.492409 
L 292.904868 -66.493178 
L 292.301476 -66.833669 
L 291.698085 -66.911735 
L 291.094693 -66.701855 
L 290.491301 -67.015216 
L 289.88791 -67.040902 
L 289.284518 -67.255365 
L 288.681127 -67.268407 
L 288.077735 -67.648643 
L 287.474344 -67.425679 
L 286.870952 -67.196535 
L 286.26756 -66.893906 
L 285.664169 -66.766682 
L 285.060777 -66.48523 
L 284.457386 -66.303516 
L 283.853994 -66.827547 
L 283.250603 -66.881943 
L 282.647211 -66.661223 
L 282.043819 -66.818656 
L 281.440428 -66.683781 
L 280.837036 -67.143123 
L 280.233645 -66.576143 
L 279.630253 -66.679876 
L 279.026862 -66.362358 
L 278.42347 -66.681824 
L 277.820078 -66.685487 
L 277.216687 -66.775399 
L 276.613295 -67.010928 
L 276.009904 -67.732895 
L 275.406512 -67.590693 
L 274.803121 -67.438938 
L 274.199729 -67.169249 
L 273.596337 -67.326103 
L 272.992946 -66.888925 
L 272.389554 -66.684002 
L 271.786163 -66.271569 
L 271.182771 -66.313247 
L 270.57938 -66.911046 
L 269.975988 -67.306148 
L 269.372596 -67.059114 
L 268.769205 -67.176258 
L 268.165813 -67.017566 
L 267.562422 -66.66933 
L 266.95903 -66.45383 
L 266.355639 -66.469117 
L 265.752247 -66.780158 
L 265.148855 -67.041829 
L 264.545464 -66.985047 
L 263.942072 -67.08858 
L 263.338681 -67.033934 
L 262.735289 -67.291125 
L 262.131898 -67.164275 
L 261.528506 -67.67892 
L 260.925114 -67.577199 
L 260.321723 -67.402589 
L 259.718331 -67.371407 
L 259.11494 -66.886963 
L 258.511548 -66.739785 
L 257.908157 -66.615087 
L 257.304765 -67.150058 
L 256.701373 -67.164877 
L 256.097982 -67.221308 
L 255.49459 -67.024917 
L 254.891199 -66.608793 
L 254.287807 -67.022229 
L 253.684416 -67.034139 
L 253.081024 -66.659565 
L 252.477632 -66.736484 
L 251.874241 -66.629201 
L 251.270849 -66.613714 
L 250.667458 -66.762058 
L 250.064066 -66.455327 
L 249.460675 -66.77325 
L 248.857283 -66.942411 
L 248.253891 -67.297674 
L 247.6505 -66.879133 
L 247.047108 -67.101342 
L 246.443717 -67.274146 
L 245.840325 -66.956419 
L 245.236934 -67.412989 
L 244.633542 -67.343436 
L 244.03015 -67.252389 
L 243.426759 -67.223972 
L 242.823367 -67.037943 
L 242.219976 -66.887081 
L 241.616584 -67.01709 
L 241.013193 -67.128799 
L 240.409801 -67.113637 
L 239.806409 -67.021289 
L 239.203018 -67.185318 
L 238.599626 -67.306754 
L 237.996235 -67.294072 
L 237.392843 -67.195296 
L 236.789452 -67.338396 
L 236.18606 -67.051481 
L 235.582668 -67.184054 
L 234.979277 -67.323833 
L 234.375885 -67.525566 
L 233.772494 -67.210257 
L 233.169102 -67.12151 
L 232.565711 -67.169623 
L 231.962319 -67.009422 
L 231.358927 -66.48501 
L 230.755536 -66.135984 
L 230.152144 -66.534788 
L 229.548753 -66.817799 
L 228.945361 -67.021812 
L 228.34197 -67.007097 
L 227.738578 -66.845685 
L 227.135186 -66.856211 
L 226.531795 -66.840955 
L 225.928403 -66.798502 
L 225.325012 -66.968323 
L 224.72162 -66.924758 
L 224.118229 -66.61567 
L 223.514837 -66.75394 
L 222.911445 -67.28534 
L 222.308054 -67.059557 
L 221.704662 -66.968149 
L 221.101271 -66.476569 
L 220.497879 -66.955159 
L 219.894488 -67.222527 
L 219.291096 -66.800044 
L 218.687704 -67.447276 
L 218.084313 -67.299809 
L 217.480921 -66.934319 
L 216.87753 -66.895435 
L 216.274138 -67.375347 
L 215.670747 -67.425473 
L 215.067355 -67.698232 
L 214.463963 -67.638774 
L 213.860572 -67.50533 
L 213.25718 -67.846047 
L 212.653789 -67.594936 
L 212.050397 -67.838284 
L 211.447006 -67.933052 
L 210.843614 -68.058504 
L 210.240222 -68.325431 
L 209.636831 -68.5051 
L 209.033439 -68.758127 
L 208.430048 -68.821979 
L 207.826656 -68.589044 
L 207.223265 -68.327051 
L 206.619873 -68.501272 
L 206.016481 -68.647944 
L 205.41309 -68.817053 
L 204.809698 -69.284079 
L 204.206307 -69.414342 
L 203.602915 -69.348357 
L 202.999524 -68.999478 
L 202.396132 -69.677311 
L 201.79274 -69.692548 
L 201.189349 -69.887465 
L 200.585957 -69.763141 
L 199.982566 -69.761268 
L 199.379174 -69.814455 
L 198.775783 -70.236915 
L 198.172391 -70.669192 
L 197.568999 -70.598153 
L 196.965608 -71.115277 
L 196.362216 -71.310602 
L 195.758825 -71.116489 
L 195.155433 -70.839237 
L 194.552042 -71.157853 
L 193.94865 -71.416989 
L 193.345258 -71.968691 
L 192.741867 -72.132576 
L 192.138475 -72.638012 
L 191.535084 -73.210558 
L 190.931692 -73.381293 
L 190.328301 -73.6472 
L 189.724909 -73.716586 
L 189.121517 -74.356879 
L 188.518126 -74.531259 
L 187.914734 -74.588403 
L 187.311343 -74.99106 
L 186.707951 -74.782198 
L 186.10456 -75.18435 
L 185.501168 -75.741036 
L 184.897776 -76.073459 
L 184.294385 -76.727839 
L 183.690993 -77.067818 
L 183.087602 -77.779576 
L 182.48421 -78.599884 
L 181.880819 -79.103035 
L 181.277427 -79.621624 
L 180.674035 -80.17403 
L 180.070644 -80.878436 
L 179.467252 -81.318433 
L 178.863861 -82.847007 
L 178.260469 -83.070779 
L 177.657078 -83.859082 
L 177.053686 -84.263075 
L 176.450294 -84.723169 
L 175.846903 -85.534719 
L 175.243511 -85.893237 
L 174.64012 -87.431153 
L 174.036728 -88.303675 
L 173.433337 -88.999902 
L 172.829945 -89.97505 
L 172.226553 -90.937034 
L 171.623162 -91.77816 
L 171.01977 -92.525523 
L 170.416379 -93.595872 
L 169.812987 -94.256275 
L 169.209596 -95.604884 
L 168.606204 -96.736393 
L 168.002813 -98.153128 
L 167.399421 -99.026326 
L 166.796029 -100.096431 
L 166.192638 -100.377102 
L 165.589246 -101.092976 
L 164.985855 -101.857846 
L 164.382463 -103.122703 
L 163.779072 -104.194711 
L 163.17568 -105.691895 
L 162.572288 -106.462369 
L 161.968897 -107.033272 
L 161.365505 -107.692604 
L 160.762114 -109.317327 
L 160.158722 -110.668656 
L 159.555331 -111.926198 
L 158.951939 -113.023505 
L 158.348547 -114.277197 
L 157.745156 -115.402826 
L 157.141764 -116.28917 
L 156.538373 -117.626044 
L 155.934981 -118.388828 
L 155.33159 -119.350469 
L 154.728198 -120.299494 
L 154.124806 -121.508164 
L 153.521415 -122.755165 
L 152.918023 -123.753365 
L 152.314632 -125.455728 
L 151.71124 -126.601631 
L 151.107849 -127.281282 
L 150.504457 -128.225786 
L 149.901065 -129.758704 
L 149.297674 -131.599274 
L 148.694282 -131.87494 
L 148.090891 -133.68737 
L 147.487499 -134.408634 
L 146.884108 -135.590252 
L 146.280716 -136.119244 
L 145.677324 -137.007227 
L 145.073933 -137.490405 
L 144.470541 -138.662923 
L 143.86715 -139.272977 
L 143.263758 -140.37198 
L 142.660367 -141.618808 
L 142.056975 -142.861747 
L 141.453583 -143.399805 
L 140.850192 -144.920877 
L 140.2468 -145.663814 
L 139.643409 -145.978973 
L 139.040017 -147.901038 
L 138.436626 -149.943364 
L 137.833234 -150.855413 
L 137.229842 -151.586055 
L 136.626451 -152.459791 
L 136.023059 -153.112077 
L 135.419668 -154.303937 
L 134.816276 -155.526929 
L 134.212885 -156.397671 
L 133.609493 -157.969909 
L 133.006101 -159.42279 
L 132.40271 -160.173456 
L 131.799318 -161.195442 
L 131.195927 -162.423231 
L 130.592535 -163.622839 
L 129.989144 -164.844192 
L 129.385752 -165.764737 
L 128.78236 -166.911504 
L 128.178969 -167.90186 
L 127.575577 -169.309012 
L 126.972186 -169.990763 
L 126.368794 -171.343541 
L 125.765403 -172.718082 
L 125.162011 -173.821977 
L 124.558619 -175.02776 
L 123.955228 -175.794307 
L 123.351836 -176.91714 
L 122.748445 -178.232718 
L 122.145053 -178.660073 
L 121.541662 -179.936673 
L 120.93827 -181.281143 
L 120.334878 -182.35873 
L 119.731487 -183.756291 
L 119.128095 -184.830143 
L 118.524704 -185.653025 
L 117.921312 -186.716198 
L 117.317921 -187.836668 
L 116.714529 -189.237228 
L 116.111137 -190.748331 
L 115.507746 -191.955726 
L 114.904354 -192.629987 
L 114.300963 -193.753938 
L 113.697571 -194.665692 
L 113.09418 -195.602182 
L 112.490788 -197.442214 
L 111.887396 -198.438197 
L 111.284005 -199.529558 
L 110.680613 -200.374592 
L 110.077222 -201.450382 
L 109.47383 -202.730876 
L 108.870439 -204.146928 
L 108.267047 -205.311861 
L 107.663655 -206.29148 
L 107.060264 -207.2687 
L 106.456872 -208.363206 
L 105.853481 -209.263988 
L 105.250089 -210.414553 
L 104.646698 -211.197817 
L 104.043306 -212.808432 
L 103.439914 -213.961323 
L 102.836523 -214.758056 
L 102.233131 -216.576418 
L 101.62974 -217.442566 
L 101.026348 -218.748944 
L 100.422957 -219.942207 
L 99.819565 -221.405927 
L 99.216173 -222.461958 
L 98.612782 -224.043518 
L 98.00939 -225.108997 
L 97.405999 -226.450107 
L 96.802607 -227.714805 
L 96.199216 -228.917285 
L 95.595824 -230.60841 
L 94.992432 -231.824283 
L 94.389041 -232.983669 
L 93.785649 -234.259439 
L 93.182258 -235.696713 
L 92.578866 -237.219358 
L 91.975475 -238.739223 
L 91.372083 -240.580835 
L 90.768691 -244.233636 
z
" id="ma5e9f04f99" style="stroke:#1f77b4;stroke-opacity:0.2;stroke-width:0.39;"/>
    </defs>
    <g clip-path="url(#p8881c2c3ab)">
     <use style="fill:#1f77b4;fill-opacity:0.2;stroke:#1f77b4;stroke-opacity:0.2;stroke-width:0.39;" x="0" xlink:href="#ma5e9f04f99" y="288"/>
    </g>
   </g>
   <g id="line2d_23">
    <path clip-path="url(#p8881c2c3ab)" d="M 90.768691 43.766364 
L 91.372083 44.152139 
L 94.992432 49.332587 
L 95.595824 50.435673 
L 96.802607 52.112111 
L 102.233131 60.216016 
L 105.250089 65.360614 
L 109.47383 71.482734 
L 110.680613 73.964089 
L 112.490788 76.715946 
L 114.300963 79.341294 
L 116.714529 83.165695 
L 117.921312 85.099646 
L 119.128095 87.419514 
L 119.731487 88.21631 
L 120.93827 90.45204 
L 121.541662 91.120743 
L 122.145053 92.16877 
L 123.351836 93.701164 
L 123.955228 94.96248 
L 125.765403 97.705051 
L 127.575577 100.183218 
L 128.178969 101.351214 
L 128.78236 102.030905 
L 129.989144 103.791308 
L 130.592535 105.132775 
L 133.609493 110.164023 
L 136.023059 113.972372 
L 136.626451 115.135186 
L 137.833234 116.918264 
L 139.040017 119.062123 
L 139.643409 119.723384 
L 141.453583 122.630082 
L 142.056975 123.351778 
L 142.660367 124.259856 
L 143.86715 126.703213 
L 145.677324 128.877916 
L 146.280716 130.222883 
L 146.884108 130.908369 
L 148.090891 132.918881 
L 149.297674 134.647597 
L 154.728198 143.279841 
L 155.33159 144.14055 
L 157.141764 147.384954 
L 158.951939 150.038349 
L 159.555331 151.106698 
L 161.365505 153.503658 
L 166.192638 161.188724 
L 166.796029 161.88714 
L 167.399421 162.976652 
L 168.002813 164.606014 
L 168.606204 165.64319 
L 169.209596 166.387643 
L 171.01977 169.411203 
L 173.433337 173.337329 
L 175.243511 175.897419 
L 177.053686 178.87787 
L 177.657078 179.581468 
L 178.260469 180.681076 
L 178.863861 181.392976 
L 181.880819 186.190253 
L 182.48421 186.817797 
L 184.294385 189.969448 
L 184.897776 191.067875 
L 186.10456 192.612977 
L 186.707951 193.901456 
L 187.311343 194.339996 
L 187.914734 195.530253 
L 188.518126 195.987071 
L 190.931692 199.321929 
L 192.138475 200.65252 
L 194.552042 203.419559 
L 195.155433 203.881801 
L 195.758825 204.85517 
L 196.965608 205.959252 
L 201.79274 209.220116 
L 204.206307 210.269838 
L 205.41309 210.504441 
L 206.016481 210.704257 
L 206.619873 211.09036 
L 207.223265 211.069873 
L 209.033439 211.431442 
L 209.636831 211.519089 
L 210.240222 211.86557 
L 211.447006 212.181084 
L 212.050397 212.267846 
L 212.653789 212.583774 
L 213.25718 212.456624 
L 213.860572 212.604265 
L 214.463963 212.572158 
L 215.067355 212.700093 
L 215.670747 212.701765 
L 216.274138 212.839986 
L 216.87753 212.653488 
L 217.480921 212.910496 
L 219.291096 213.09699 
L 220.497879 213.315869 
L 222.911445 213.507981 
L 224.118229 213.457826 
L 224.72162 213.562346 
L 225.325012 213.453069 
L 228.945361 213.700245 
L 229.548753 213.556941 
L 230.755536 213.42309 
L 231.358927 213.229441 
L 235.582668 213.824604 
L 236.18606 213.646212 
L 237.996235 213.69799 
L 238.599626 213.689148 
L 239.203018 213.562154 
L 239.806409 213.673147 
L 240.409801 213.575944 
L 241.013193 213.653679 
L 243.426759 213.500671 
L 245.236934 213.728412 
L 247.047108 213.698546 
L 248.253891 213.947122 
L 252.477632 213.958518 
L 253.081024 213.82962 
L 254.287807 213.87296 
L 254.891199 213.729684 
L 256.701373 213.755209 
L 258.511548 213.82348 
L 259.11494 213.769566 
L 259.718331 213.838027 
L 262.735289 213.533765 
L 263.942072 213.855242 
L 265.148855 213.59511 
L 266.95903 213.510298 
L 267.562422 213.721465 
L 268.769205 213.588902 
L 269.372596 213.658334 
L 271.786163 213.5334 
L 272.992946 213.682919 
L 275.406512 213.810655 
L 276.009904 213.960061 
L 276.613295 213.956474 
L 277.216687 213.716691 
L 279.026862 213.704454 
L 279.630253 213.824173 
L 280.233645 213.613924 
L 285.664169 213.806271 
L 286.26756 213.912336 
L 286.870952 213.599909 
L 287.474344 213.815761 
L 288.077735 213.739277 
L 288.681127 213.870583 
L 291.094693 213.713819 
L 291.698085 213.645781 
L 292.301476 213.727601 
L 292.904868 213.675294 
L 294.111651 213.891213 
L 295.318434 213.681888 
L 297.732 213.865832 
L 298.335392 213.88926 
L 298.938783 213.700603 
L 299.542175 213.666606 
L 300.145567 214.003683 
L 301.35235 214.050286 
L 303.162524 213.664389 
L 303.765916 213.804388 
L 304.972699 213.863574 
L 305.576091 213.611495 
L 306.179482 213.578665 
L 309.19644 214.023952 
L 311.006615 213.982849 
L 313.420181 213.653076 
L 314.023573 213.789848 
L 315.230356 213.666736 
L 315.833747 213.875313 
L 316.437139 213.813683 
L 317.040531 213.885318 
L 318.247314 213.722562 
L 318.850705 213.765692 
L 320.66088 213.639082 
L 323.074446 213.642213 
L 323.677838 213.785881 
L 324.281229 213.730381 
L 325.488013 213.836789 
L 326.694796 213.798418 
L 327.298187 213.905207 
L 329.108362 213.902855 
L 329.711754 214.002601 
L 330.315145 213.86903 
L 330.918537 214.076359 
L 331.521928 213.91661 
L 332.728711 213.906035 
L 333.332103 213.989802 
L 334.538886 213.865339 
L 335.745669 213.916067 
L 336.349061 213.783128 
L 336.952452 213.812731 
L 338.159236 213.636435 
L 338.762627 213.661713 
L 339.366019 213.528612 
L 340.572802 213.564693 
L 341.779585 213.551573 
L 342.382977 213.639492 
L 342.986368 213.874638 
L 343.58976 213.895177 
L 344.796543 213.705554 
L 345.399934 213.862228 
L 348.416892 213.828638 
L 349.020284 213.962323 
L 350.227067 213.958774 
L 350.830459 214.184924 
L 351.43385 213.897143 
L 352.037242 214.005341 
L 353.244025 214.04194 
L 353.847416 214.165012 
L 355.0542 213.918332 
L 355.657591 214.100082 
L 356.864374 214.029975 
L 360.484724 213.933506 
L 361.088115 213.780812 
L 362.89829 213.89715 
L 363.501682 214.119053 
L 365.311856 213.931909 
L 370.138989 213.756781 
L 370.74238 214.035276 
L 371.949164 213.663371 
L 373.155947 213.800075 
L 374.36273 213.667968 
L 376.172905 213.687394 
L 376.776296 213.436486 
L 377.379688 213.572585 
L 378.586471 213.306978 
L 379.189862 213.483807 
L 382.20682 213.889456 
L 384.016995 214.027951 
L 385.82717 213.714716 
L 386.430561 213.830794 
L 387.637344 213.734805 
L 388.240736 213.934129 
L 388.844128 213.672754 
L 391.257694 213.616764 
L 391.861085 213.784348 
L 393.67126 213.602578 
L 394.274652 213.771634 
L 397.895001 213.943412 
L 399.705176 213.726588 
L 399.705176 213.726588 
" style="fill:none;stroke:#1f77b4;stroke-linecap:round;stroke-width:2.275;"/>
   </g>
   <g id="line2d_24">
    <path clip-path="url(#p8881c2c3ab)" d="M 90.768691 43.766364 
L 207.826656 179.292701 
L 216.274138 188.71035 
L 221.101271 193.809304 
L 225.325012 197.948045 
L 228.34197 200.632887 
L 231.358927 203.025211 
L 233.772494 204.695241 
L 236.18606 206.131971 
L 238.599626 207.333284 
L 241.013193 208.310048 
L 243.426759 209.08385 
L 246.443717 209.809002 
L 250.064066 210.402188 
L 254.287807 210.828036 
L 259.718331 211.120979 
L 267.562422 211.296736 
L 283.250603 211.375664 
L 374.36273 211.385493 
L 399.101784 211.385493 
L 399.101784 211.385493 
" style="fill:none;stroke:#2ca02c;stroke-linecap:round;stroke-width:2.275;"/>
   </g>
   <g id="line2d_25">
    <path clip-path="url(#p8881c2c3ab)" d="M 90.768691 43.766364 
L 175.846903 183.356563 
L 181.880819 192.822827 
L 185.501168 198.137377 
L 188.518126 202.169688 
L 190.931692 205.018778 
L 192.741867 206.883212 
L 194.552042 208.488333 
L 196.362216 209.826734 
L 198.172391 210.907718 
L 199.982566 211.755095 
L 201.79274 212.402035 
L 204.206307 213.015926 
L 207.223265 213.495909 
L 210.843614 213.809982 
L 216.274138 214.012632 
L 226.531795 214.104694 
L 274.803121 214.11848 
L 399.101784 214.118481 
L 399.101784 214.118481 
" style="fill:none;stroke:#d62728;stroke-linecap:round;stroke-width:2.275;"/>
   </g>
   <g id="patch_3">
    <path d="M 75.321867 231.052 
L 75.321867 34.848 
" style="fill:none;stroke:#999999;stroke-linecap:square;stroke-linejoin:miter;"/>
   </g>
   <g id="patch_4">
    <path d="M 415.152 231.052 
L 415.152 34.848 
" style="fill:none;stroke:#999999;stroke-linecap:square;stroke-linejoin:miter;"/>
   </g>
   <g id="patch_5">
    <path d="M 75.321867 231.052 
L 415.152 231.052 
" style="fill:none;stroke:#999999;stroke-linecap:square;stroke-linejoin:miter;"/>
   </g>
   <g id="patch_6">
    <path d="M 75.321867 34.848 
L 415.152 34.848 
" style="fill:none;stroke:#999999;stroke-linecap:square;stroke-linejoin:miter;"/>
   </g>
   <g id="text_14">
    <!-- Error vs Iteration (Inconsistent Gaussian) -->
    <defs>
     <path d="M 9.8125 72.90625 
L 55.90625 72.90625 
L 55.90625 64.59375 
L 19.671875 64.59375 
L 19.671875 43.015625 
L 54.390625 43.015625 
L 54.390625 34.71875 
L 19.671875 34.71875 
L 19.671875 8.296875 
L 56.78125 8.296875 
L 56.78125 0 
L 9.8125 0 
z
" id="DejaVuSans-45"/>
     <path id="DejaVuSans-20"/>
     <path d="M 2.984375 54.6875 
L 12.5 54.6875 
L 29.59375 8.796875 
L 46.6875 54.6875 
L 56.203125 54.6875 
L 35.6875 0 
L 23.484375 0 
z
" id="DejaVuSans-76"/>
     <path d="M 44.28125 53.078125 
L 44.28125 44.578125 
Q 40.484375 46.53125 36.375 47.5 
Q 32.28125 48.484375 27.875 48.484375 
Q 21.1875 48.484375 17.84375 46.4375 
Q 14.5 44.390625 14.5 40.28125 
Q 14.5 37.15625 16.890625 35.375 
Q 19.28125 33.59375 26.515625 31.984375 
L 29.59375 31.296875 
Q 39.15625 29.25 43.1875 25.515625 
Q 47.21875 21.78125 47.21875 15.09375 
Q 47.21875 7.46875 41.1875 3.015625 
Q 35.15625 -1.421875 24.609375 -1.421875 
Q 20.21875 -1.421875 15.453125 -0.5625 
Q 10.6875 0.296875 5.421875 2 
L 5.421875 11.28125 
Q 10.40625 8.6875 15.234375 7.390625 
Q 20.0625 6.109375 24.8125 6.109375 
Q 31.15625 6.109375 34.5625 8.28125 
Q 37.984375 10.453125 37.984375 14.40625 
Q 37.984375 18.0625 35.515625 20.015625 
Q 33.0625 21.96875 24.703125 23.78125 
L 21.578125 24.515625 
Q 13.234375 26.265625 9.515625 29.90625 
Q 5.8125 33.546875 5.8125 39.890625 
Q 5.8125 47.609375 11.28125 51.796875 
Q 16.75 56 26.8125 56 
Q 31.78125 56 36.171875 55.265625 
Q 40.578125 54.546875 44.28125 53.078125 
z
" id="DejaVuSans-73"/>
     <path d="M 31 75.875 
Q 24.46875 64.65625 21.28125 53.65625 
Q 18.109375 42.671875 18.109375 31.390625 
Q 18.109375 20.125 21.3125 9.0625 
Q 24.515625 -2 31 -13.1875 
L 23.1875 -13.1875 
Q 15.875 -1.703125 12.234375 9.375 
Q 8.59375 20.453125 8.59375 31.390625 
Q 8.59375 42.28125 12.203125 53.3125 
Q 15.828125 64.359375 23.1875 75.875 
z
" id="DejaVuSans-28"/>
     <path d="M 48.78125 52.59375 
L 48.78125 44.1875 
Q 44.96875 46.296875 41.140625 47.34375 
Q 37.3125 48.390625 33.40625 48.390625 
Q 24.65625 48.390625 19.8125 42.84375 
Q 14.984375 37.3125 14.984375 27.296875 
Q 14.984375 17.28125 19.8125 11.734375 
Q 24.65625 6.203125 33.40625 6.203125 
Q 37.3125 6.203125 41.140625 7.25 
Q 44.96875 8.296875 48.78125 10.40625 
L 48.78125 2.09375 
Q 45.015625 0.34375 40.984375 -0.53125 
Q 36.96875 -1.421875 32.421875 -1.421875 
Q 20.0625 -1.421875 12.78125 6.34375 
Q 5.515625 14.109375 5.515625 27.296875 
Q 5.515625 40.671875 12.859375 48.328125 
Q 20.21875 56 33.015625 56 
Q 37.15625 56 41.109375 55.140625 
Q 45.0625 54.296875 48.78125 52.59375 
z
" id="DejaVuSans-63"/>
     <path d="M 59.515625 10.40625 
L 59.515625 29.984375 
L 43.40625 29.984375 
L 43.40625 38.09375 
L 69.28125 38.09375 
L 69.28125 6.78125 
Q 63.578125 2.734375 56.6875 0.65625 
Q 49.8125 -1.421875 42 -1.421875 
Q 24.90625 -1.421875 15.25 8.5625 
Q 5.609375 18.5625 5.609375 36.375 
Q 5.609375 54.25 15.25 64.234375 
Q 24.90625 74.21875 42 74.21875 
Q 49.125 74.21875 55.546875 72.453125 
Q 61.96875 70.703125 67.390625 67.28125 
L 67.390625 56.78125 
Q 61.921875 61.421875 55.765625 63.765625 
Q 49.609375 66.109375 42.828125 66.109375 
Q 29.4375 66.109375 22.71875 58.640625 
Q 16.015625 51.171875 16.015625 36.375 
Q 16.015625 21.625 22.71875 14.15625 
Q 29.4375 6.6875 42.828125 6.6875 
Q 48.046875 6.6875 52.140625 7.59375 
Q 56.25 8.5 59.515625 10.40625 
z
" id="DejaVuSans-47"/>
     <path d="M 8.5 21.578125 
L 8.5 54.6875 
L 17.484375 54.6875 
L 17.484375 21.921875 
Q 17.484375 14.15625 20.5 10.265625 
Q 23.53125 6.390625 29.59375 6.390625 
Q 36.859375 6.390625 41.078125 11.03125 
Q 45.3125 15.671875 45.3125 23.6875 
L 45.3125 54.6875 
L 54.296875 54.6875 
L 54.296875 0 
L 45.3125 0 
L 45.3125 8.40625 
Q 42.046875 3.421875 37.71875 1 
Q 33.40625 -1.421875 27.6875 -1.421875 
Q 18.265625 -1.421875 13.375 4.4375 
Q 8.5 10.296875 8.5 21.578125 
z
M 31.109375 56 
z
" id="DejaVuSans-75"/>
     <path d="M 8.015625 75.875 
L 15.828125 75.875 
Q 23.140625 64.359375 26.78125 53.3125 
Q 30.421875 42.28125 30.421875 31.390625 
Q 30.421875 20.453125 26.78125 9.375 
Q 23.140625 -1.703125 15.828125 -13.1875 
L 8.015625 -13.1875 
Q 14.5 -2 17.703125 9.0625 
Q 20.90625 20.125 20.90625 31.390625 
Q 20.90625 42.671875 17.703125 53.65625 
Q 14.5 64.65625 8.015625 75.875 
z
" id="DejaVuSans-29"/>
    </defs>
    <g style="fill:#262626;" transform="translate(84.967652 28.848)scale(0.156 -0.156)">
     <use xlink:href="#DejaVuSans-45"/>
     <use x="63.183594" xlink:href="#DejaVuSans-72"/>
     <use x="104.28125" xlink:href="#DejaVuSans-72"/>
     <use x="145.363281" xlink:href="#DejaVuSans-6f"/>
     <use x="206.544922" xlink:href="#DejaVuSans-72"/>
     <use x="247.658203" xlink:href="#DejaVuSans-20"/>
     <use x="279.445312" xlink:href="#DejaVuSans-76"/>
     <use x="338.625" xlink:href="#DejaVuSans-73"/>
     <use x="390.724609" xlink:href="#DejaVuSans-20"/>
     <use x="422.511719" xlink:href="#DejaVuSans-49"/>
     <use x="452.003906" xlink:href="#DejaVuSans-74"/>
     <use x="491.212891" xlink:href="#DejaVuSans-65"/>
     <use x="552.736328" xlink:href="#DejaVuSans-72"/>
     <use x="593.849609" xlink:href="#DejaVuSans-61"/>
     <use x="655.128906" xlink:href="#DejaVuSans-74"/>
     <use x="694.337891" xlink:href="#DejaVuSans-69"/>
     <use x="722.121094" xlink:href="#DejaVuSans-6f"/>
     <use x="783.302734" xlink:href="#DejaVuSans-6e"/>
     <use x="846.681641" xlink:href="#DejaVuSans-20"/>
     <use x="878.46875" xlink:href="#DejaVuSans-28"/>
     <use x="917.482422" xlink:href="#DejaVuSans-49"/>
     <use x="946.974609" xlink:href="#DejaVuSans-6e"/>
     <use x="1010.353516" xlink:href="#DejaVuSans-63"/>
     <use x="1065.333984" xlink:href="#DejaVuSans-6f"/>
     <use x="1126.515625" xlink:href="#DejaVuSans-6e"/>
     <use x="1189.894531" xlink:href="#DejaVuSans-73"/>
     <use x="1241.994141" xlink:href="#DejaVuSans-69"/>
     <use x="1269.777344" xlink:href="#DejaVuSans-73"/>
     <use x="1321.876953" xlink:href="#DejaVuSans-74"/>
     <use x="1361.085938" xlink:href="#DejaVuSans-65"/>
     <use x="1422.609375" xlink:href="#DejaVuSans-6e"/>
     <use x="1485.988281" xlink:href="#DejaVuSans-74"/>
     <use x="1525.197266" xlink:href="#DejaVuSans-20"/>
     <use x="1556.984375" xlink:href="#DejaVuSans-47"/>
     <use x="1634.474609" xlink:href="#DejaVuSans-61"/>
     <use x="1695.753906" xlink:href="#DejaVuSans-75"/>
     <use x="1759.132812" xlink:href="#DejaVuSans-73"/>
     <use x="1811.232422" xlink:href="#DejaVuSans-73"/>
     <use x="1863.332031" xlink:href="#DejaVuSans-69"/>
     <use x="1891.115234" xlink:href="#DejaVuSans-61"/>
     <use x="1952.394531" xlink:href="#DejaVuSans-6e"/>
     <use x="2015.773438" xlink:href="#DejaVuSans-29"/>
    </g>
   </g>
   <g id="legend_1">
    <g id="line2d_26">
     <path d="M 281.952781 51.875969 
L 307.952781 51.875969 
" style="fill:none;stroke:#1f77b4;stroke-linecap:round;stroke-width:2.275;"/>
    </g>
    <g id="line2d_27"/>
    <g id="text_15">
     <!-- Vanilla -->
     <defs>
      <path d="M 28.609375 0 
L 0.78125 72.90625 
L 11.078125 72.90625 
L 34.1875 11.53125 
L 57.328125 72.90625 
L 67.578125 72.90625 
L 39.796875 0 
z
" id="DejaVuSans-56"/>
      <path d="M 9.421875 75.984375 
L 18.40625 75.984375 
L 18.40625 0 
L 9.421875 0 
z
" id="DejaVuSans-6c"/>
     </defs>
     <g style="fill:#262626;" transform="translate(318.352781 56.425969)scale(0.13 -0.13)">
      <use xlink:href="#DejaVuSans-56"/>
      <use x="68.298828" xlink:href="#DejaVuSans-61"/>
      <use x="129.578125" xlink:href="#DejaVuSans-6e"/>
      <use x="192.957031" xlink:href="#DejaVuSans-69"/>
      <use x="220.740234" xlink:href="#DejaVuSans-6c"/>
      <use x="248.523438" xlink:href="#DejaVuSans-6c"/>
      <use x="276.306641" xlink:href="#DejaVuSans-61"/>
     </g>
    </g>
    <g id="line2d_28">
     <path d="M 281.952781 70.957531 
L 307.952781 70.957531 
" style="fill:none;stroke:#2ca02c;stroke-linecap:round;stroke-width:2.275;"/>
    </g>
    <g id="line2d_29"/>
    <g id="text_16">
     <!-- Upper Bound -->
     <defs>
      <path d="M 8.6875 72.90625 
L 18.609375 72.90625 
L 18.609375 28.609375 
Q 18.609375 16.890625 22.84375 11.734375 
Q 27.09375 6.59375 36.625 6.59375 
Q 46.09375 6.59375 50.34375 11.734375 
Q 54.59375 16.890625 54.59375 28.609375 
L 54.59375 72.90625 
L 64.5 72.90625 
L 64.5 27.390625 
Q 64.5 13.140625 57.4375 5.859375 
Q 50.390625 -1.421875 36.625 -1.421875 
Q 22.796875 -1.421875 15.734375 5.859375 
Q 8.6875 13.140625 8.6875 27.390625 
z
" id="DejaVuSans-55"/>
      <path d="M 18.109375 8.203125 
L 18.109375 -20.796875 
L 9.078125 -20.796875 
L 9.078125 54.6875 
L 18.109375 54.6875 
L 18.109375 46.390625 
Q 20.953125 51.265625 25.265625 53.625 
Q 29.59375 56 35.59375 56 
Q 45.5625 56 51.78125 48.09375 
Q 58.015625 40.1875 58.015625 27.296875 
Q 58.015625 14.40625 51.78125 6.484375 
Q 45.5625 -1.421875 35.59375 -1.421875 
Q 29.59375 -1.421875 25.265625 0.953125 
Q 20.953125 3.328125 18.109375 8.203125 
z
M 48.6875 27.296875 
Q 48.6875 37.203125 44.609375 42.84375 
Q 40.53125 48.484375 33.40625 48.484375 
Q 26.265625 48.484375 22.1875 42.84375 
Q 18.109375 37.203125 18.109375 27.296875 
Q 18.109375 17.390625 22.1875 11.75 
Q 26.265625 6.109375 33.40625 6.109375 
Q 40.53125 6.109375 44.609375 11.75 
Q 48.6875 17.390625 48.6875 27.296875 
z
" id="DejaVuSans-70"/>
      <path d="M 19.671875 34.8125 
L 19.671875 8.109375 
L 35.5 8.109375 
Q 43.453125 8.109375 47.28125 11.40625 
Q 51.125 14.703125 51.125 21.484375 
Q 51.125 28.328125 47.28125 31.5625 
Q 43.453125 34.8125 35.5 34.8125 
z
M 19.671875 64.796875 
L 19.671875 42.828125 
L 34.28125 42.828125 
Q 41.5 42.828125 45.03125 45.53125 
Q 48.578125 48.25 48.578125 53.8125 
Q 48.578125 59.328125 45.03125 62.0625 
Q 41.5 64.796875 34.28125 64.796875 
z
M 9.8125 72.90625 
L 35.015625 72.90625 
Q 46.296875 72.90625 52.390625 68.21875 
Q 58.5 63.53125 58.5 54.890625 
Q 58.5 48.1875 55.375 44.234375 
Q 52.25 40.28125 46.1875 39.3125 
Q 53.46875 37.75 57.5 32.78125 
Q 61.53125 27.828125 61.53125 20.40625 
Q 61.53125 10.640625 54.890625 5.3125 
Q 48.25 0 35.984375 0 
L 9.8125 0 
z
" id="DejaVuSans-42"/>
      <path d="M 45.40625 46.390625 
L 45.40625 75.984375 
L 54.390625 75.984375 
L 54.390625 0 
L 45.40625 0 
L 45.40625 8.203125 
Q 42.578125 3.328125 38.25 0.953125 
Q 33.9375 -1.421875 27.875 -1.421875 
Q 17.96875 -1.421875 11.734375 6.484375 
Q 5.515625 14.40625 5.515625 27.296875 
Q 5.515625 40.1875 11.734375 48.09375 
Q 17.96875 56 27.875 56 
Q 33.9375 56 38.25 53.625 
Q 42.578125 51.265625 45.40625 46.390625 
z
M 14.796875 27.296875 
Q 14.796875 17.390625 18.875 11.75 
Q 22.953125 6.109375 30.078125 6.109375 
Q 37.203125 6.109375 41.296875 11.75 
Q 45.40625 17.390625 45.40625 27.296875 
Q 45.40625 37.203125 41.296875 42.84375 
Q 37.203125 48.484375 30.078125 48.484375 
Q 22.953125 48.484375 18.875 42.84375 
Q 14.796875 37.203125 14.796875 27.296875 
z
" id="DejaVuSans-64"/>
     </defs>
     <g style="fill:#262626;" transform="translate(318.352781 75.507531)scale(0.13 -0.13)">
      <use xlink:href="#DejaVuSans-55"/>
      <use x="73.193359" xlink:href="#DejaVuSans-70"/>
      <use x="136.669922" xlink:href="#DejaVuSans-70"/>
      <use x="200.146484" xlink:href="#DejaVuSans-65"/>
      <use x="261.669922" xlink:href="#DejaVuSans-72"/>
      <use x="302.783203" xlink:href="#DejaVuSans-20"/>
      <use x="334.570312" xlink:href="#DejaVuSans-42"/>
      <use x="403.173828" xlink:href="#DejaVuSans-6f"/>
      <use x="464.355469" xlink:href="#DejaVuSans-75"/>
      <use x="527.734375" xlink:href="#DejaVuSans-6e"/>
      <use x="591.113281" xlink:href="#DejaVuSans-64"/>
     </g>
    </g>
    <g id="line2d_30">
     <path d="M 281.952781 90.039094 
L 307.952781 90.039094 
" style="fill:none;stroke:#d62728;stroke-linecap:round;stroke-width:2.275;"/>
    </g>
    <g id="line2d_31"/>
    <g id="text_17">
     <!-- Lower Bound -->
     <defs>
      <path d="M 9.8125 72.90625 
L 19.671875 72.90625 
L 19.671875 8.296875 
L 55.171875 8.296875 
L 55.171875 0 
L 9.8125 0 
z
" id="DejaVuSans-4c"/>
      <path d="M 4.203125 54.6875 
L 13.1875 54.6875 
L 24.421875 12.015625 
L 35.59375 54.6875 
L 46.1875 54.6875 
L 57.421875 12.015625 
L 68.609375 54.6875 
L 77.59375 54.6875 
L 63.28125 0 
L 52.6875 0 
L 40.921875 44.828125 
L 29.109375 0 
L 18.5 0 
z
" id="DejaVuSans-77"/>
     </defs>
     <g style="fill:#262626;" transform="translate(318.352781 94.589094)scale(0.13 -0.13)">
      <use xlink:href="#DejaVuSans-4c"/>
      <use x="55.697266" xlink:href="#DejaVuSans-6f"/>
      <use x="116.878906" xlink:href="#DejaVuSans-77"/>
      <use x="198.666016" xlink:href="#DejaVuSans-65"/>
      <use x="260.189453" xlink:href="#DejaVuSans-72"/>
      <use x="301.302734" xlink:href="#DejaVuSans-20"/>
      <use x="333.089844" xlink:href="#DejaVuSans-42"/>
      <use x="401.693359" xlink:href="#DejaVuSans-6f"/>
      <use x="462.875" xlink:href="#DejaVuSans-75"/>
      <use x="526.253906" xlink:href="#DejaVuSans-6e"/>
      <use x="589.632812" xlink:href="#DejaVuSans-64"/>
     </g>
    </g>
   </g>
  </g>
 </g>
 <defs>
  <clipPath id="p8881c2c3ab">
   <rect height="196.204" width="339.830133" x="75.321867" y="34.848"/>
  </clipPath>
 </defs>
</svg>
