<?xml version="1.0" encoding="utf-8" standalone="no"?>
<!DOCTYPE svg PUBLIC "-//W3C//DTD SVG 1.1//EN"
  "http://www.w3.org/Graphics/SVG/1.1/DTD/svg11.dtd">
<!-- Created with matplotlib (http://matplotlib.org/) -->
<svg height="288pt" version="1.1" viewBox="0 0 432 288" width="432pt" xmlns="http://www.w3.org/2000/svg" xmlns:xlink="http://www.w3.org/1999/xlink">
 <defs>
  <style type="text/css">
*{stroke-linecap:butt;stroke-linejoin:round;}
  </style>
 </defs>
 <g id="figure_1">
  <g id="patch_1">
   <path d="M 0 288 
L 432 288 
L 432 0 
L 0 0 
z
" style="fill:none;"/>
  </g>
  <g id="axes_1">
   <g id="patch_2">
    <path d="M 75.524992 231.052 
L 415.152 231.052 
L 415.152 34.848 
L 75.524992 34.848 
z
" style="fill:none;"/>
   </g>
   <g id="matplotlib.axis_1">
    <g id="xtick_1">
     <g id="line2d_1">
      <path clip-path="url(#paf3c68827f)" d="M 90.962583 231.052 
L 90.962583 34.848 
" style="fill:none;stroke:#999999;stroke-linecap:round;stroke-width:1.3;"/>
     </g>
     <g id="line2d_2"/>
     <g id="text_1">
      <!-- 0 -->
      <defs>
       <path d="M 31.78125 66.40625 
Q 24.171875 66.40625 20.328125 58.90625 
Q 16.5 51.421875 16.5 36.375 
Q 16.5 21.390625 20.328125 13.890625 
Q 24.171875 6.390625 31.78125 6.390625 
Q 39.453125 6.390625 43.28125 13.890625 
Q 47.125 21.390625 47.125 36.375 
Q 47.125 51.421875 43.28125 58.90625 
Q 39.453125 66.40625 31.78125 66.40625 
z
M 31.78125 74.21875 
Q 44.046875 74.21875 50.515625 64.515625 
Q 56.984375 54.828125 56.984375 36.375 
Q 56.984375 17.96875 50.515625 8.265625 
Q 44.046875 -1.421875 31.78125 -1.421875 
Q 19.53125 -1.421875 13.0625 8.265625 
Q 6.59375 17.96875 6.59375 36.375 
Q 6.59375 54.828125 13.0625 64.515625 
Q 19.53125 74.21875 31.78125 74.21875 
z
" id="DejaVuSans-30"/>
      </defs>
      <g style="fill:#262626;" transform="translate(86.826958 250.029969)scale(0.13 -0.13)">
       <use xlink:href="#DejaVuSans-30"/>
      </g>
     </g>
    </g>
    <g id="xtick_2">
     <g id="line2d_3">
      <path clip-path="url(#paf3c68827f)" d="M 151.265674 231.052 
L 151.265674 34.848 
" style="fill:none;stroke:#999999;stroke-linecap:round;stroke-width:1.3;"/>
     </g>
     <g id="line2d_4"/>
     <g id="text_2">
      <!-- 100 -->
      <defs>
       <path d="M 12.40625 8.296875 
L 28.515625 8.296875 
L 28.515625 63.921875 
L 10.984375 60.40625 
L 10.984375 69.390625 
L 28.421875 72.90625 
L 38.28125 72.90625 
L 38.28125 8.296875 
L 54.390625 8.296875 
L 54.390625 0 
L 12.40625 0 
z
" id="DejaVuSans-31"/>
      </defs>
      <g style="fill:#262626;" transform="translate(138.858799 250.029969)scale(0.13 -0.13)">
       <use xlink:href="#DejaVuSans-31"/>
       <use x="63.623047" xlink:href="#DejaVuSans-30"/>
       <use x="127.246094" xlink:href="#DejaVuSans-30"/>
      </g>
     </g>
    </g>
    <g id="xtick_3">
     <g id="line2d_5">
      <path clip-path="url(#paf3c68827f)" d="M 211.568765 231.052 
L 211.568765 34.848 
" style="fill:none;stroke:#999999;stroke-linecap:round;stroke-width:1.3;"/>
     </g>
     <g id="line2d_6"/>
     <g id="text_3">
      <!-- 200 -->
      <defs>
       <path d="M 19.1875 8.296875 
L 53.609375 8.296875 
L 53.609375 0 
L 7.328125 0 
L 7.328125 8.296875 
Q 12.9375 14.109375 22.625 23.890625 
Q 32.328125 33.6875 34.8125 36.53125 
Q 39.546875 41.84375 41.421875 45.53125 
Q 43.3125 49.21875 43.3125 52.78125 
Q 43.3125 58.59375 39.234375 62.25 
Q 35.15625 65.921875 28.609375 65.921875 
Q 23.96875 65.921875 18.8125 64.3125 
Q 13.671875 62.703125 7.8125 59.421875 
L 7.8125 69.390625 
Q 13.765625 71.78125 18.9375 73 
Q 24.125 74.21875 28.421875 74.21875 
Q 39.75 74.21875 46.484375 68.546875 
Q 53.21875 62.890625 53.21875 53.421875 
Q 53.21875 48.921875 51.53125 44.890625 
Q 49.859375 40.875 45.40625 35.40625 
Q 44.1875 33.984375 37.640625 27.21875 
Q 31.109375 20.453125 19.1875 8.296875 
z
" id="DejaVuSans-32"/>
      </defs>
      <g style="fill:#262626;" transform="translate(199.16189 250.029969)scale(0.13 -0.13)">
       <use xlink:href="#DejaVuSans-32"/>
       <use x="63.623047" xlink:href="#DejaVuSans-30"/>
       <use x="127.246094" xlink:href="#DejaVuSans-30"/>
      </g>
     </g>
    </g>
    <g id="xtick_4">
     <g id="line2d_7">
      <path clip-path="url(#paf3c68827f)" d="M 271.871856 231.052 
L 271.871856 34.848 
" style="fill:none;stroke:#999999;stroke-linecap:round;stroke-width:1.3;"/>
     </g>
     <g id="line2d_8"/>
     <g id="text_4">
      <!-- 300 -->
      <defs>
       <path d="M 40.578125 39.3125 
Q 47.65625 37.796875 51.625 33 
Q 55.609375 28.21875 55.609375 21.1875 
Q 55.609375 10.40625 48.1875 4.484375 
Q 40.765625 -1.421875 27.09375 -1.421875 
Q 22.515625 -1.421875 17.65625 -0.515625 
Q 12.796875 0.390625 7.625 2.203125 
L 7.625 11.71875 
Q 11.71875 9.328125 16.59375 8.109375 
Q 21.484375 6.890625 26.8125 6.890625 
Q 36.078125 6.890625 40.9375 10.546875 
Q 45.796875 14.203125 45.796875 21.1875 
Q 45.796875 27.640625 41.28125 31.265625 
Q 36.765625 34.90625 28.71875 34.90625 
L 20.21875 34.90625 
L 20.21875 43.015625 
L 29.109375 43.015625 
Q 36.375 43.015625 40.234375 45.921875 
Q 44.09375 48.828125 44.09375 54.296875 
Q 44.09375 59.90625 40.109375 62.90625 
Q 36.140625 65.921875 28.71875 65.921875 
Q 24.65625 65.921875 20.015625 65.03125 
Q 15.375 64.15625 9.8125 62.3125 
L 9.8125 71.09375 
Q 15.4375 72.65625 20.34375 73.4375 
Q 25.25 74.21875 29.59375 74.21875 
Q 40.828125 74.21875 47.359375 69.109375 
Q 53.90625 64.015625 53.90625 55.328125 
Q 53.90625 49.265625 50.4375 45.09375 
Q 46.96875 40.921875 40.578125 39.3125 
z
" id="DejaVuSans-33"/>
      </defs>
      <g style="fill:#262626;" transform="translate(259.464981 250.029969)scale(0.13 -0.13)">
       <use xlink:href="#DejaVuSans-33"/>
       <use x="63.623047" xlink:href="#DejaVuSans-30"/>
       <use x="127.246094" xlink:href="#DejaVuSans-30"/>
      </g>
     </g>
    </g>
    <g id="xtick_5">
     <g id="line2d_9">
      <path clip-path="url(#paf3c68827f)" d="M 332.174947 231.052 
L 332.174947 34.848 
" style="fill:none;stroke:#999999;stroke-linecap:round;stroke-width:1.3;"/>
     </g>
     <g id="line2d_10"/>
     <g id="text_5">
      <!-- 400 -->
      <defs>
       <path d="M 37.796875 64.3125 
L 12.890625 25.390625 
L 37.796875 25.390625 
z
M 35.203125 72.90625 
L 47.609375 72.90625 
L 47.609375 25.390625 
L 58.015625 25.390625 
L 58.015625 17.1875 
L 47.609375 17.1875 
L 47.609375 0 
L 37.796875 0 
L 37.796875 17.1875 
L 4.890625 17.1875 
L 4.890625 26.703125 
z
" id="DejaVuSans-34"/>
      </defs>
      <g style="fill:#262626;" transform="translate(319.768072 250.029969)scale(0.13 -0.13)">
       <use xlink:href="#DejaVuSans-34"/>
       <use x="63.623047" xlink:href="#DejaVuSans-30"/>
       <use x="127.246094" xlink:href="#DejaVuSans-30"/>
      </g>
     </g>
    </g>
    <g id="xtick_6">
     <g id="line2d_11">
      <path clip-path="url(#paf3c68827f)" d="M 392.478038 231.052 
L 392.478038 34.848 
" style="fill:none;stroke:#999999;stroke-linecap:round;stroke-width:1.3;"/>
     </g>
     <g id="line2d_12"/>
     <g id="text_6">
      <!-- 500 -->
      <defs>
       <path d="M 10.796875 72.90625 
L 49.515625 72.90625 
L 49.515625 64.59375 
L 19.828125 64.59375 
L 19.828125 46.734375 
Q 21.96875 47.46875 24.109375 47.828125 
Q 26.265625 48.1875 28.421875 48.1875 
Q 40.625 48.1875 47.75 41.5 
Q 54.890625 34.8125 54.890625 23.390625 
Q 54.890625 11.625 47.5625 5.09375 
Q 40.234375 -1.421875 26.90625 -1.421875 
Q 22.3125 -1.421875 17.546875 -0.640625 
Q 12.796875 0.140625 7.71875 1.703125 
L 7.71875 11.625 
Q 12.109375 9.234375 16.796875 8.0625 
Q 21.484375 6.890625 26.703125 6.890625 
Q 35.15625 6.890625 40.078125 11.328125 
Q 45.015625 15.765625 45.015625 23.390625 
Q 45.015625 31 40.078125 35.4375 
Q 35.15625 39.890625 26.703125 39.890625 
Q 22.75 39.890625 18.8125 39.015625 
Q 14.890625 38.140625 10.796875 36.28125 
z
" id="DejaVuSans-35"/>
      </defs>
      <g style="fill:#262626;" transform="translate(380.071163 250.029969)scale(0.13 -0.13)">
       <use xlink:href="#DejaVuSans-35"/>
       <use x="63.623047" xlink:href="#DejaVuSans-30"/>
       <use x="127.246094" xlink:href="#DejaVuSans-30"/>
      </g>
     </g>
    </g>
    <g id="text_7">
     <!-- Iteration -->
     <defs>
      <path d="M 9.8125 72.90625 
L 19.671875 72.90625 
L 19.671875 0 
L 9.8125 0 
z
" id="DejaVuSans-49"/>
      <path d="M 18.3125 70.21875 
L 18.3125 54.6875 
L 36.8125 54.6875 
L 36.8125 47.703125 
L 18.3125 47.703125 
L 18.3125 18.015625 
Q 18.3125 11.328125 20.140625 9.421875 
Q 21.96875 7.515625 27.59375 7.515625 
L 36.8125 7.515625 
L 36.8125 0 
L 27.59375 0 
Q 17.1875 0 13.234375 3.875 
Q 9.28125 7.765625 9.28125 18.015625 
L 9.28125 47.703125 
L 2.6875 47.703125 
L 2.6875 54.6875 
L 9.28125 54.6875 
L 9.28125 70.21875 
z
" id="DejaVuSans-74"/>
      <path d="M 56.203125 29.59375 
L 56.203125 25.203125 
L 14.890625 25.203125 
Q 15.484375 15.921875 20.484375 11.0625 
Q 25.484375 6.203125 34.421875 6.203125 
Q 39.59375 6.203125 44.453125 7.46875 
Q 49.3125 8.734375 54.109375 11.28125 
L 54.109375 2.78125 
Q 49.265625 0.734375 44.1875 -0.34375 
Q 39.109375 -1.421875 33.890625 -1.421875 
Q 20.796875 -1.421875 13.15625 6.1875 
Q 5.515625 13.8125 5.515625 26.8125 
Q 5.515625 40.234375 12.765625 48.109375 
Q 20.015625 56 32.328125 56 
Q 43.359375 56 49.78125 48.890625 
Q 56.203125 41.796875 56.203125 29.59375 
z
M 47.21875 32.234375 
Q 47.125 39.59375 43.09375 43.984375 
Q 39.0625 48.390625 32.421875 48.390625 
Q 24.90625 48.390625 20.390625 44.140625 
Q 15.875 39.890625 15.1875 32.171875 
z
" id="DejaVuSans-65"/>
      <path d="M 41.109375 46.296875 
Q 39.59375 47.171875 37.8125 47.578125 
Q 36.03125 48 33.890625 48 
Q 26.265625 48 22.1875 43.046875 
Q 18.109375 38.09375 18.109375 28.8125 
L 18.109375 0 
L 9.078125 0 
L 9.078125 54.6875 
L 18.109375 54.6875 
L 18.109375 46.1875 
Q 20.953125 51.171875 25.484375 53.578125 
Q 30.03125 56 36.53125 56 
Q 37.453125 56 38.578125 55.875 
Q 39.703125 55.765625 41.0625 55.515625 
z
" id="DejaVuSans-72"/>
      <path d="M 34.28125 27.484375 
Q 23.390625 27.484375 19.1875 25 
Q 14.984375 22.515625 14.984375 16.5 
Q 14.984375 11.71875 18.140625 8.90625 
Q 21.296875 6.109375 26.703125 6.109375 
Q 34.1875 6.109375 38.703125 11.40625 
Q 43.21875 16.703125 43.21875 25.484375 
L 43.21875 27.484375 
z
M 52.203125 31.203125 
L 52.203125 0 
L 43.21875 0 
L 43.21875 8.296875 
Q 40.140625 3.328125 35.546875 0.953125 
Q 30.953125 -1.421875 24.3125 -1.421875 
Q 15.921875 -1.421875 10.953125 3.296875 
Q 6 8.015625 6 15.921875 
Q 6 25.140625 12.171875 29.828125 
Q 18.359375 34.515625 30.609375 34.515625 
L 43.21875 34.515625 
L 43.21875 35.40625 
Q 43.21875 41.609375 39.140625 45 
Q 35.0625 48.390625 27.6875 48.390625 
Q 23 48.390625 18.546875 47.265625 
Q 14.109375 46.140625 10.015625 43.890625 
L 10.015625 52.203125 
Q 14.9375 54.109375 19.578125 55.046875 
Q 24.21875 56 28.609375 56 
Q 40.484375 56 46.34375 49.84375 
Q 52.203125 43.703125 52.203125 31.203125 
z
" id="DejaVuSans-61"/>
      <path d="M 9.421875 54.6875 
L 18.40625 54.6875 
L 18.40625 0 
L 9.421875 0 
z
M 9.421875 75.984375 
L 18.40625 75.984375 
L 18.40625 64.59375 
L 9.421875 64.59375 
z
" id="DejaVuSans-69"/>
      <path d="M 30.609375 48.390625 
Q 23.390625 48.390625 19.1875 42.75 
Q 14.984375 37.109375 14.984375 27.296875 
Q 14.984375 17.484375 19.15625 11.84375 
Q 23.34375 6.203125 30.609375 6.203125 
Q 37.796875 6.203125 41.984375 11.859375 
Q 46.1875 17.53125 46.1875 27.296875 
Q 46.1875 37.015625 41.984375 42.703125 
Q 37.796875 48.390625 30.609375 48.390625 
z
M 30.609375 56 
Q 42.328125 56 49.015625 48.375 
Q 55.71875 40.765625 55.71875 27.296875 
Q 55.71875 13.875 49.015625 6.21875 
Q 42.328125 -1.421875 30.609375 -1.421875 
Q 18.84375 -1.421875 12.171875 6.21875 
Q 5.515625 13.875 5.515625 27.296875 
Q 5.515625 40.765625 12.171875 48.375 
Q 18.84375 56 30.609375 56 
z
" id="DejaVuSans-6f"/>
      <path d="M 54.890625 33.015625 
L 54.890625 0 
L 45.90625 0 
L 45.90625 32.71875 
Q 45.90625 40.484375 42.875 44.328125 
Q 39.84375 48.1875 33.796875 48.1875 
Q 26.515625 48.1875 22.3125 43.546875 
Q 18.109375 38.921875 18.109375 30.90625 
L 18.109375 0 
L 9.078125 0 
L 9.078125 54.6875 
L 18.109375 54.6875 
L 18.109375 46.1875 
Q 21.34375 51.125 25.703125 53.5625 
Q 30.078125 56 35.796875 56 
Q 45.21875 56 50.046875 50.171875 
Q 54.890625 44.34375 54.890625 33.015625 
z
" id="DejaVuSans-6e"/>
     </defs>
     <g style="fill:#262626;" transform="translate(215.010207 267.599328)scale(0.143 -0.143)">
      <use xlink:href="#DejaVuSans-49"/>
      <use x="29.492188" xlink:href="#DejaVuSans-74"/>
      <use x="68.701172" xlink:href="#DejaVuSans-65"/>
      <use x="130.224609" xlink:href="#DejaVuSans-72"/>
      <use x="171.337891" xlink:href="#DejaVuSans-61"/>
      <use x="232.617188" xlink:href="#DejaVuSans-74"/>
      <use x="271.826172" xlink:href="#DejaVuSans-69"/>
      <use x="299.609375" xlink:href="#DejaVuSans-6f"/>
      <use x="360.791016" xlink:href="#DejaVuSans-6e"/>
     </g>
    </g>
   </g>
   <g id="matplotlib.axis_2">
    <g id="ytick_1">
     <g id="line2d_13">
      <path clip-path="url(#paf3c68827f)" d="M 75.524992 211.306551 
L 415.152 211.306551 
" style="fill:none;stroke:#999999;stroke-linecap:round;stroke-width:1.3;"/>
     </g>
     <g id="line2d_14"/>
     <g id="text_8">
      <!-- $\mathdefault{10^{0}}$ -->
      <g style="fill:#262626;" transform="translate(43.544992 216.245535)scale(0.13 -0.13)">
       <use transform="translate(0 0.765625)" xlink:href="#DejaVuSans-31"/>
       <use transform="translate(63.623047 0.765625)" xlink:href="#DejaVuSans-30"/>
       <use transform="translate(128.203125 39.046875)scale(0.7)" xlink:href="#DejaVuSans-30"/>
      </g>
     </g>
    </g>
    <g id="ytick_2">
     <g id="line2d_15">
      <path clip-path="url(#paf3c68827f)" d="M 75.524992 172.804207 
L 415.152 172.804207 
" style="fill:none;stroke:#999999;stroke-linecap:round;stroke-width:1.3;"/>
     </g>
     <g id="line2d_16"/>
     <g id="text_9">
      <!-- $\mathdefault{10^{2}}$ -->
      <g style="fill:#262626;" transform="translate(43.544992 177.743191)scale(0.13 -0.13)">
       <use transform="translate(0 0.765625)" xlink:href="#DejaVuSans-31"/>
       <use transform="translate(63.623047 0.765625)" xlink:href="#DejaVuSans-30"/>
       <use transform="translate(128.203125 39.046875)scale(0.7)" xlink:href="#DejaVuSans-32"/>
      </g>
     </g>
    </g>
    <g id="ytick_3">
     <g id="line2d_17">
      <path clip-path="url(#paf3c68827f)" d="M 75.524992 134.301863 
L 415.152 134.301863 
" style="fill:none;stroke:#999999;stroke-linecap:round;stroke-width:1.3;"/>
     </g>
     <g id="line2d_18"/>
     <g id="text_10">
      <!-- $\mathdefault{10^{4}}$ -->
      <g style="fill:#262626;" transform="translate(43.544992 139.240847)scale(0.13 -0.13)">
       <use transform="translate(0 0.684375)" xlink:href="#DejaVuSans-31"/>
       <use transform="translate(63.623047 0.684375)" xlink:href="#DejaVuSans-30"/>
       <use transform="translate(128.203125 38.965625)scale(0.7)" xlink:href="#DejaVuSans-34"/>
      </g>
     </g>
    </g>
    <g id="ytick_4">
     <g id="line2d_19">
      <path clip-path="url(#paf3c68827f)" d="M 75.524992 95.799519 
L 415.152 95.799519 
" style="fill:none;stroke:#999999;stroke-linecap:round;stroke-width:1.3;"/>
     </g>
     <g id="line2d_20"/>
     <g id="text_11">
      <!-- $\mathdefault{10^{6}}$ -->
      <defs>
       <path d="M 33.015625 40.375 
Q 26.375 40.375 22.484375 35.828125 
Q 18.609375 31.296875 18.609375 23.390625 
Q 18.609375 15.53125 22.484375 10.953125 
Q 26.375 6.390625 33.015625 6.390625 
Q 39.65625 6.390625 43.53125 10.953125 
Q 47.40625 15.53125 47.40625 23.390625 
Q 47.40625 31.296875 43.53125 35.828125 
Q 39.65625 40.375 33.015625 40.375 
z
M 52.59375 71.296875 
L 52.59375 62.3125 
Q 48.875 64.0625 45.09375 64.984375 
Q 41.3125 65.921875 37.59375 65.921875 
Q 27.828125 65.921875 22.671875 59.328125 
Q 17.53125 52.734375 16.796875 39.40625 
Q 19.671875 43.65625 24.015625 45.921875 
Q 28.375 48.1875 33.59375 48.1875 
Q 44.578125 48.1875 50.953125 41.515625 
Q 57.328125 34.859375 57.328125 23.390625 
Q 57.328125 12.15625 50.6875 5.359375 
Q 44.046875 -1.421875 33.015625 -1.421875 
Q 20.359375 -1.421875 13.671875 8.265625 
Q 6.984375 17.96875 6.984375 36.375 
Q 6.984375 53.65625 15.1875 63.9375 
Q 23.390625 74.21875 37.203125 74.21875 
Q 40.921875 74.21875 44.703125 73.484375 
Q 48.484375 72.75 52.59375 71.296875 
z
" id="DejaVuSans-36"/>
      </defs>
      <g style="fill:#262626;" transform="translate(43.544992 100.738503)scale(0.13 -0.13)">
       <use transform="translate(0 0.765625)" xlink:href="#DejaVuSans-31"/>
       <use transform="translate(63.623047 0.765625)" xlink:href="#DejaVuSans-30"/>
       <use transform="translate(128.203125 39.046875)scale(0.7)" xlink:href="#DejaVuSans-36"/>
      </g>
     </g>
    </g>
    <g id="ytick_5">
     <g id="line2d_21">
      <path clip-path="url(#paf3c68827f)" d="M 75.524992 57.297175 
L 415.152 57.297175 
" style="fill:none;stroke:#999999;stroke-linecap:round;stroke-width:1.3;"/>
     </g>
     <g id="line2d_22"/>
     <g id="text_12">
      <!-- $\mathdefault{10^{8}}$ -->
      <defs>
       <path d="M 31.78125 34.625 
Q 24.75 34.625 20.71875 30.859375 
Q 16.703125 27.09375 16.703125 20.515625 
Q 16.703125 13.921875 20.71875 10.15625 
Q 24.75 6.390625 31.78125 6.390625 
Q 38.8125 6.390625 42.859375 10.171875 
Q 46.921875 13.96875 46.921875 20.515625 
Q 46.921875 27.09375 42.890625 30.859375 
Q 38.875 34.625 31.78125 34.625 
z
M 21.921875 38.8125 
Q 15.578125 40.375 12.03125 44.71875 
Q 8.5 49.078125 8.5 55.328125 
Q 8.5 64.0625 14.71875 69.140625 
Q 20.953125 74.21875 31.78125 74.21875 
Q 42.671875 74.21875 48.875 69.140625 
Q 55.078125 64.0625 55.078125 55.328125 
Q 55.078125 49.078125 51.53125 44.71875 
Q 48 40.375 41.703125 38.8125 
Q 48.828125 37.15625 52.796875 32.3125 
Q 56.78125 27.484375 56.78125 20.515625 
Q 56.78125 9.90625 50.3125 4.234375 
Q 43.84375 -1.421875 31.78125 -1.421875 
Q 19.734375 -1.421875 13.25 4.234375 
Q 6.78125 9.90625 6.78125 20.515625 
Q 6.78125 27.484375 10.78125 32.3125 
Q 14.796875 37.15625 21.921875 38.8125 
z
M 18.3125 54.390625 
Q 18.3125 48.734375 21.84375 45.5625 
Q 25.390625 42.390625 31.78125 42.390625 
Q 38.140625 42.390625 41.71875 45.5625 
Q 45.3125 48.734375 45.3125 54.390625 
Q 45.3125 60.0625 41.71875 63.234375 
Q 38.140625 66.40625 31.78125 66.40625 
Q 25.390625 66.40625 21.84375 63.234375 
Q 18.3125 60.0625 18.3125 54.390625 
z
" id="DejaVuSans-38"/>
      </defs>
      <g style="fill:#262626;" transform="translate(43.544992 62.23616)scale(0.13 -0.13)">
       <use transform="translate(0 0.765625)" xlink:href="#DejaVuSans-31"/>
       <use transform="translate(63.623047 0.765625)" xlink:href="#DejaVuSans-30"/>
       <use transform="translate(128.203125 39.046875)scale(0.7)" xlink:href="#DejaVuSans-38"/>
      </g>
     </g>
    </g>
    <g id="text_13">
     <!-- $\|\| x_k - x^* \|\|^2$ -->
     <defs>
      <path d="M 21 76.421875 
L 21 -23.578125 
L 12.703125 -23.578125 
L 12.703125 76.421875 
z
" id="DejaVuSans-7c"/>
      <path d="M 60.015625 54.6875 
L 34.90625 27.875 
L 50.296875 0 
L 39.984375 0 
L 28.421875 21.6875 
L 8.296875 0 
L -2.59375 0 
L 24.3125 28.8125 
L 10.015625 54.6875 
L 20.3125 54.6875 
L 30.8125 34.90625 
L 49.125 54.6875 
z
" id="DejaVuSans-Oblique-78"/>
      <path d="M 18.3125 75.984375 
L 27.296875 75.984375 
L 18.703125 31.6875 
L 49.515625 54.6875 
L 61.1875 54.6875 
L 26.8125 28.515625 
L 51.90625 0 
L 41.015625 0 
L 17.671875 26.703125 
L 12.5 0 
L 3.515625 0 
z
" id="DejaVuSans-Oblique-6b"/>
      <path d="M 10.59375 35.5 
L 73.1875 35.5 
L 73.1875 27.203125 
L 10.59375 27.203125 
z
" id="DejaVuSans-2212"/>
      <path d="M 47.015625 60.890625 
L 29.5 51.421875 
L 47.015625 41.890625 
L 44.1875 37.109375 
L 27.78125 47.015625 
L 27.78125 28.609375 
L 22.21875 28.609375 
L 22.21875 47.015625 
L 5.8125 37.109375 
L 2.984375 41.890625 
L 20.515625 51.421875 
L 2.984375 60.890625 
L 5.8125 65.71875 
L 22.21875 55.8125 
L 22.21875 74.21875 
L 27.78125 74.21875 
L 27.78125 55.8125 
L 44.1875 65.71875 
z
" id="DejaVuSans-2a"/>
     </defs>
     <g style="fill:#262626;" transform="translate(36.112992 171.3455)rotate(-90)scale(0.143 -0.143)">
      <use transform="translate(0 0.765625)" xlink:href="#DejaVuSans-7c"/>
      <use transform="translate(33.691406 0.765625)" xlink:href="#DejaVuSans-7c"/>
      <use transform="translate(67.382812 0.765625)" xlink:href="#DejaVuSans-Oblique-78"/>
      <use transform="translate(126.5625 -15.640625)scale(0.7)" xlink:href="#DejaVuSans-Oblique-6b"/>
      <use transform="translate(189.316406 0.765625)" xlink:href="#DejaVuSans-2212"/>
      <use transform="translate(292.587891 0.765625)" xlink:href="#DejaVuSans-Oblique-78"/>
      <use transform="translate(369.871419 39.046875)scale(0.7)" xlink:href="#DejaVuSans-2a"/>
      <use transform="translate(421.24349 0.765625)" xlink:href="#DejaVuSans-7c"/>
      <use transform="translate(454.934896 0.765625)" xlink:href="#DejaVuSans-7c"/>
      <use transform="translate(489.583333 39.046875)scale(0.7)" xlink:href="#DejaVuSans-32"/>
     </g>
    </g>
   </g>
   <g id="PolyCollection_1">
    <defs>
     <path d="M 90.962583 -244.233636 
L 90.962583 -244.233636 
L 91.565614 -244.216361 
L 92.168645 -244.025164 
L 92.771676 -243.714494 
L 93.374707 -243.204573 
L 93.977738 -242.710539 
L 94.580769 -242.165672 
L 95.1838 -241.738103 
L 95.786831 -241.094976 
L 96.389862 -240.479966 
L 96.992893 -239.854821 
L 97.595923 -239.369688 
L 98.198954 -238.723973 
L 98.801985 -238.041262 
L 99.405016 -237.080178 
L 100.008047 -236.65696 
L 100.611078 -236.159175 
L 101.214109 -235.77519 
L 101.81714 -235.069057 
L 102.420171 -234.402544 
L 103.023202 -233.694214 
L 103.626233 -232.654158 
L 104.229263 -231.600459 
L 104.832294 -230.869539 
L 105.435325 -230.397543 
L 106.038356 -229.761533 
L 106.641387 -229.105343 
L 107.244418 -228.37887 
L 107.847449 -227.950868 
L 108.45048 -227.333419 
L 109.053511 -226.586605 
L 109.656542 -225.749982 
L 110.259573 -225.00987 
L 110.862603 -224.353544 
L 111.465634 -223.456274 
L 112.068665 -222.757136 
L 112.671696 -222.040804 
L 113.274727 -221.647919 
L 113.877758 -220.546931 
L 114.480789 -219.761145 
L 115.08382 -219.140085 
L 115.686851 -218.413981 
L 116.289882 -217.867432 
L 116.892913 -217.151877 
L 117.495943 -216.550996 
L 118.098974 -215.654087 
L 118.702005 -214.860488 
L 119.305036 -214.303477 
L 119.908067 -213.66777 
L 120.511098 -212.926935 
L 121.114129 -211.912338 
L 121.71716 -211.380638 
L 122.320191 -210.865263 
L 122.923222 -210.300584 
L 123.526253 -209.743569 
L 124.129283 -209.088289 
L 124.732314 -208.540869 
L 125.335345 -207.41903 
L 125.938376 -206.378601 
L 126.541407 -205.323336 
L 127.144438 -204.649594 
L 127.747469 -203.898241 
L 128.3505 -203.345437 
L 128.953531 -202.402446 
L 129.556562 -201.604048 
L 130.159593 -200.927405 
L 130.762623 -200.08344 
L 131.365654 -199.486936 
L 131.968685 -198.755156 
L 132.571716 -198.165571 
L 133.174747 -197.205643 
L 133.777778 -196.535017 
L 134.380809 -195.933456 
L 134.98384 -195.229918 
L 135.586871 -193.962948 
L 136.189902 -193.505584 
L 136.792933 -193.134057 
L 137.395963 -192.344053 
L 137.998994 -191.67648 
L 138.602025 -191.06291 
L 139.205056 -190.051798 
L 139.808087 -189.240424 
L 140.411118 -188.243194 
L 141.014149 -187.479252 
L 141.61718 -186.84521 
L 142.220211 -186.188661 
L 142.823242 -185.36197 
L 143.426273 -184.170969 
L 144.029303 -182.918882 
L 144.632334 -182.380939 
L 145.235365 -181.891648 
L 145.838396 -180.863493 
L 146.441427 -180.119067 
L 147.044458 -179.28151 
L 147.647489 -178.819621 
L 148.25052 -177.487173 
L 148.853551 -177.375666 
L 149.456582 -176.547891 
L 150.059613 -175.788688 
L 150.662643 -175.263148 
L 151.265674 -174.792667 
L 151.868705 -174.035355 
L 152.471736 -173.043955 
L 153.074767 -171.44599 
L 153.677798 -170.942897 
L 154.280829 -170.66797 
L 154.88386 -169.935282 
L 155.486891 -169.121288 
L 156.089922 -168.194039 
L 156.692953 -167.11965 
L 157.295983 -166.026927 
L 157.899014 -165.356664 
L 158.502045 -164.431533 
L 159.105076 -163.421168 
L 159.708107 -162.882539 
L 160.311138 -162.167344 
L 160.914169 -161.799921 
L 161.5172 -161.098349 
L 162.120231 -160.79477 
L 162.723262 -159.681638 
L 163.326293 -158.731704 
L 163.929323 -158.213909 
L 164.532354 -157.398443 
L 165.135385 -156.922584 
L 165.738416 -155.603992 
L 166.341447 -154.879884 
L 166.944478 -154.523941 
L 167.547509 -153.600087 
L 168.15054 -152.80108 
L 168.753571 -151.908267 
L 169.356602 -151.044077 
L 169.959632 -150.306223 
L 170.562663 -149.588257 
L 171.165694 -149.251905 
L 171.768725 -148.268135 
L 172.371756 -147.212652 
L 172.974787 -146.251315 
L 173.577818 -145.80859 
L 174.180849 -145.25476 
L 174.78388 -144.501339 
L 175.386911 -143.342083 
L 175.989942 -142.798573 
L 176.592972 -141.564442 
L 177.196003 -140.537105 
L 177.799034 -139.998101 
L 178.402065 -139.021418 
L 179.005096 -137.702037 
L 179.608127 -137.281028 
L 180.211158 -136.276262 
L 180.814189 -135.51395 
L 181.41722 -134.837817 
L 182.020251 -134.122254 
L 182.623282 -133.544325 
L 183.226312 -133.072105 
L 183.829343 -132.428186 
L 184.432374 -131.589731 
L 185.035405 -131.054136 
L 185.638436 -130.373213 
L 186.241467 -128.731 
L 186.844498 -127.645104 
L 187.447529 -126.859781 
L 188.05056 -125.993755 
L 188.653591 -125.708536 
L 189.256622 -124.843694 
L 189.859652 -123.437913 
L 190.462683 -122.79218 
L 191.065714 -122.426103 
L 191.668745 -121.07104 
L 192.271776 -120.077744 
L 192.874807 -119.428568 
L 193.477838 -119.045813 
L 194.080869 -118.42752 
L 194.6839 -117.056745 
L 195.286931 -116.630734 
L 195.889962 -115.627886 
L 196.492992 -114.889076 
L 197.096023 -113.762191 
L 197.699054 -112.812533 
L 198.302085 -112.570143 
L 198.905116 -111.573279 
L 199.508147 -110.907464 
L 200.111178 -109.571488 
L 200.714209 -108.932273 
L 201.31724 -108.418117 
L 201.920271 -107.756706 
L 202.523302 -107.282818 
L 203.126332 -106.234921 
L 203.729363 -105.832919 
L 204.332394 -104.884011 
L 204.935425 -104.505732 
L 205.538456 -103.534618 
L 206.141487 -103.204939 
L 206.744518 -102.889635 
L 207.347549 -101.549169 
L 207.95058 -100.530506 
L 208.553611 -99.515468 
L 209.156642 -98.902793 
L 209.759672 -97.892111 
L 210.362703 -97.483071 
L 210.965734 -96.973737 
L 211.568765 -96.582899 
L 212.171796 -96.247397 
L 212.774827 -95.703688 
L 213.377858 -95.160491 
L 213.980889 -94.296569 
L 214.58392 -93.210912 
L 215.186951 -92.582855 
L 215.789982 -92.141701 
L 216.393012 -91.49701 
L 216.996043 -90.873151 
L 217.599074 -89.765377 
L 218.202105 -89.34661 
L 218.805136 -89.035406 
L 219.408167 -88.534311 
L 220.011198 -87.808763 
L 220.614229 -87.007143 
L 221.21726 -86.80604 
L 221.820291 -85.765518 
L 222.423322 -85.401346 
L 223.026352 -85.28541 
L 223.629383 -85.235164 
L 224.232414 -85.351187 
L 224.835445 -84.875847 
L 225.438476 -84.518011 
L 226.041507 -84.339499 
L 226.644538 -83.666651 
L 227.247569 -84.008786 
L 227.8506 -83.695356 
L 228.453631 -83.578615 
L 229.056662 -83.361956 
L 229.659692 -83.244181 
L 230.262723 -82.819903 
L 230.865754 -82.498878 
L 231.468785 -82.407425 
L 232.071816 -82.237379 
L 232.674847 -82.027032 
L 233.277878 -81.831102 
L 233.880909 -81.636371 
L 234.48394 -81.400394 
L 235.086971 -81.527376 
L 235.690002 -81.893946 
L 236.293032 -82.012658 
L 236.896063 -82.139705 
L 237.499094 -82.073457 
L 238.102125 -82.015536 
L 238.705156 -81.714433 
L 239.308187 -81.615546 
L 239.911218 -81.539933 
L 240.514249 -81.664641 
L 241.11728 -81.378367 
L 241.720311 -81.432618 
L 242.323342 -81.175399 
L 242.926372 -81.316289 
L 243.529403 -81.338693 
L 244.132434 -81.153977 
L 244.735465 -81.06973 
L 245.338496 -81.03826 
L 245.941527 -80.724254 
L 246.544558 -80.906913 
L 247.147589 -80.915203 
L 247.75062 -80.838097 
L 248.353651 -81.196375 
L 248.956682 -81.574014 
L 249.559712 -81.500011 
L 250.162743 -81.30868 
L 250.765774 -80.994347 
L 251.368805 -80.939558 
L 251.971836 -80.848158 
L 252.574867 -80.689083 
L 253.177898 -80.713233 
L 253.780929 -80.793628 
L 254.38396 -81.352305 
L 254.986991 -81.080553 
L 255.590022 -81.197006 
L 256.193052 -81.09825 
L 256.796083 -81.39092 
L 257.399114 -81.443132 
L 258.002145 -81.444309 
L 258.605176 -81.15314 
L 259.208207 -81.198463 
L 259.811238 -81.35056 
L 260.414269 -81.222535 
L 261.0173 -81.206847 
L 261.620331 -80.716555 
L 262.223362 -80.606069 
L 262.826392 -80.978677 
L 263.429423 -80.972961 
L 264.032454 -80.96079 
L 264.635485 -80.862443 
L 265.238516 -80.819193 
L 265.841547 -80.706658 
L 266.444578 -80.865487 
L 267.047609 -80.669143 
L 267.65064 -80.838788 
L 268.253671 -81.014578 
L 268.856702 -80.888555 
L 269.459732 -81.033863 
L 270.062763 -80.535567 
L 270.665794 -80.641687 
L 271.268825 -80.739866 
L 271.871856 -81.356866 
L 272.474887 -81.192979 
L 273.077918 -80.920493 
L 273.680949 -81.118036 
L 274.28398 -81.118735 
L 274.887011 -81.02358 
L 275.490042 -81.128213 
L 276.093072 -81.418984 
L 276.696103 -81.396589 
L 277.299134 -81.602045 
L 277.902165 -81.479392 
L 278.505196 -81.540024 
L 279.108227 -81.778739 
L 279.711258 -81.869346 
L 280.314289 -81.891571 
L 280.91732 -81.781904 
L 281.520351 -81.781623 
L 282.123382 -81.661105 
L 282.726412 -81.561965 
L 283.329443 -81.005895 
L 283.932474 -81.098296 
L 284.535505 -81.124947 
L 285.138536 -81.030831 
L 285.741567 -81.20202 
L 286.344598 -81.524914 
L 286.947629 -81.454179 
L 287.55066 -81.825238 
L 288.153691 -81.474515 
L 288.756722 -81.608732 
L 289.359752 -81.643044 
L 289.962783 -81.161734 
L 290.565814 -81.166005 
L 291.168845 -81.040388 
L 291.771876 -80.686081 
L 292.374907 -80.730206 
L 292.977938 -81.395245 
L 293.580969 -81.499557 
L 294.184 -81.382716 
L 294.787031 -81.403914 
L 295.390062 -81.206572 
L 295.993092 -81.177118 
L 296.596123 -81.212005 
L 297.199154 -81.181667 
L 297.802185 -81.489914 
L 298.405216 -81.532894 
L 299.008247 -81.18818 
L 299.611278 -81.508693 
L 300.214309 -81.713065 
L 300.81734 -81.418264 
L 301.420371 -81.053179 
L 302.023402 -80.890601 
L 302.626432 -80.83024 
L 303.229463 -80.61403 
L 303.832494 -80.971847 
L 304.435525 -80.656638 
L 305.038556 -80.515166 
L 305.641587 -80.786858 
L 306.244618 -80.951671 
L 306.847649 -80.646294 
L 307.45068 -80.416041 
L 308.053711 -80.466591 
L 308.656742 -80.397686 
L 309.259772 -80.476589 
L 309.862803 -80.43995 
L 310.465834 -80.474648 
L 311.068865 -80.572524 
L 311.671896 -80.949448 
L 312.274927 -80.844637 
L 312.877958 -81.106079 
L 313.480989 -80.922841 
L 314.08402 -80.867576 
L 314.687051 -80.964055 
L 315.290082 -80.904892 
L 315.893112 -81.002934 
L 316.496143 -80.732522 
L 317.099174 -81.26156 
L 317.702205 -80.993338 
L 318.305236 -81.304709 
L 318.908267 -81.118686 
L 319.511298 -80.893986 
L 320.114329 -81.202648 
L 320.71736 -81.099869 
L 321.320391 -80.661285 
L 321.923422 -81.007593 
L 322.526452 -81.352099 
L 323.129483 -81.303114 
L 323.732514 -81.756131 
L 324.335545 -81.793688 
L 324.938576 -81.228735 
L 325.541607 -81.03912 
L 326.144638 -80.793095 
L 326.747669 -81.150532 
L 327.3507 -81.10793 
L 327.953731 -81.359251 
L 328.556762 -81.20601 
L 329.159792 -81.354554 
L 329.762823 -81.226932 
L 330.365854 -81.536165 
L 330.968885 -81.229113 
L 331.571916 -81.273613 
L 332.174947 -81.450426 
L 332.777978 -81.552144 
L 333.381009 -81.505129 
L 333.98404 -81.122102 
L 334.587071 -80.883161 
L 335.190101 -81.128296 
L 335.793132 -80.600475 
L 336.396163 -80.672093 
L 336.999194 -80.694849 
L 337.602225 -80.615691 
L 338.205256 -80.564345 
L 338.808287 -80.860829 
L 339.411318 -81.001127 
L 340.014349 -80.965177 
L 340.61738 -80.845219 
L 341.220411 -80.849789 
L 341.823441 -80.794686 
L 342.426472 -81.171452 
L 343.029503 -81.514789 
L 343.632534 -81.696569 
L 344.235565 -81.70894 
L 344.838596 -81.62308 
L 345.441627 -81.28098 
L 346.044658 -81.340094 
L 346.647689 -81.031835 
L 347.25072 -81.003764 
L 347.853751 -81.389582 
L 348.456781 -81.205095 
L 349.059812 -81.106936 
L 349.662843 -81.141826 
L 350.265874 -81.244651 
L 350.868905 -81.319169 
L 351.471936 -81.19815 
L 352.074967 -81.313263 
L 352.677998 -81.108096 
L 353.281029 -81.006908 
L 353.88406 -80.723709 
L 354.487091 -80.701247 
L 355.090121 -80.649396 
L 355.693152 -81.258679 
L 356.296183 -81.247811 
L 356.899214 -81.629962 
L 357.502245 -81.323933 
L 358.105276 -81.60018 
L 358.708307 -81.323449 
L 359.311338 -81.190027 
L 359.914369 -80.505288 
L 360.5174 -80.877956 
L 361.120431 -80.410092 
L 361.723461 -80.894632 
L 362.326492 -80.884477 
L 362.929523 -80.992129 
L 363.532554 -81.204992 
L 364.135585 -81.278949 
L 364.738616 -81.177087 
L 365.341647 -80.8699 
L 365.944678 -81.012051 
L 366.547709 -80.939646 
L 367.15074 -81.082022 
L 367.753771 -81.171736 
L 368.356801 -81.218828 
L 368.959832 -81.248201 
L 369.562863 -81.1435 
L 370.165894 -81.049133 
L 370.768925 -80.859457 
L 371.371956 -81.06594 
L 371.974987 -81.650712 
L 372.578018 -81.652091 
L 373.181049 -81.646097 
L 373.78408 -81.386104 
L 374.387111 -81.526735 
L 374.990141 -81.441372 
L 375.593172 -81.591176 
L 376.196203 -81.648294 
L 376.799234 -81.022883 
L 377.402265 -81.155802 
L 378.005296 -80.897512 
L 378.608327 -81.222387 
L 379.211358 -80.980337 
L 379.814389 -81.187733 
L 380.41742 -81.080534 
L 381.020451 -80.943739 
L 381.623481 -81.178177 
L 382.226512 -81.11745 
L 382.829543 -81.169936 
L 383.432574 -81.163548 
L 384.035605 -81.08025 
L 384.638636 -81.024656 
L 385.241667 -81.354143 
L 385.844698 -81.535684 
L 386.447729 -81.440252 
L 387.05076 -81.260108 
L 387.653791 -81.102213 
L 388.256821 -80.926391 
L 388.859852 -81.026909 
L 389.462883 -80.994824 
L 390.065914 -80.922212 
L 390.668945 -80.858582 
L 391.271976 -80.855962 
L 391.875007 -81.007974 
L 392.478038 -81.003273 
L 393.081069 -81.224215 
L 393.6841 -81.083816 
L 394.287131 -81.280048 
L 394.890161 -80.939082 
L 395.493192 -80.903473 
L 396.096223 -80.935218 
L 396.699254 -81.213277 
L 397.302285 -81.205257 
L 397.905316 -81.168684 
L 398.508347 -81.21349 
L 399.111378 -81.343861 
L 399.714409 -80.947518 
L 399.714409 -66.939901 
L 399.714409 -66.939901 
L 399.111378 -66.630409 
L 398.508347 -66.725019 
L 397.905316 -67.034418 
L 397.302285 -66.545797 
L 396.699254 -66.869728 
L 396.096223 -66.864929 
L 395.493192 -66.370402 
L 394.890161 -66.301217 
L 394.287131 -66.385019 
L 393.6841 -66.33165 
L 393.081069 -66.236225 
L 392.478038 -66.275148 
L 391.875007 -66.784513 
L 391.271976 -67.05936 
L 390.668945 -66.964283 
L 390.065914 -66.568743 
L 389.462883 -66.6555 
L 388.859852 -66.606509 
L 388.256821 -66.863856 
L 387.653791 -66.399782 
L 387.05076 -66.487601 
L 386.447729 -66.746588 
L 385.844698 -67.354858 
L 385.241667 -67.55405 
L 384.638636 -67.341573 
L 384.035605 -67.381172 
L 383.432574 -67.515771 
L 382.829543 -67.375221 
L 382.226512 -67.231704 
L 381.623481 -67.216214 
L 381.020451 -67.460732 
L 380.41742 -66.939124 
L 379.814389 -66.866686 
L 379.211358 -66.93936 
L 378.608327 -67.127744 
L 378.005296 -66.911771 
L 377.402265 -67.408426 
L 376.799234 -66.972389 
L 376.196203 -66.776589 
L 375.593172 -66.43568 
L 374.990141 -66.375916 
L 374.387111 -65.954242 
L 373.78408 -66.418582 
L 373.181049 -66.676495 
L 372.578018 -67.4389 
L 371.974987 -66.575145 
L 371.371956 -66.74503 
L 370.768925 -66.508906 
L 370.165894 -66.295014 
L 369.562863 -66.747275 
L 368.959832 -66.471742 
L 368.356801 -66.80743 
L 367.753771 -66.675082 
L 367.15074 -66.949865 
L 366.547709 -66.469223 
L 365.944678 -66.348296 
L 365.341647 -66.462082 
L 364.738616 -66.290459 
L 364.135585 -66.373439 
L 363.532554 -66.621959 
L 362.929523 -66.696149 
L 362.326492 -66.515437 
L 361.723461 -66.943305 
L 361.120431 -66.441652 
L 360.5174 -66.312096 
L 359.914369 -66.715251 
L 359.311338 -66.643386 
L 358.708307 -66.643341 
L 358.105276 -67.001634 
L 357.502245 -67.171962 
L 356.899214 -66.664671 
L 356.296183 -66.679549 
L 355.693152 -66.140917 
L 355.090121 -66.724767 
L 354.487091 -66.177505 
L 353.88406 -66.481875 
L 353.281029 -66.687546 
L 352.677998 -66.311616 
L 352.074967 -66.514186 
L 351.471936 -66.825321 
L 350.868905 -66.344837 
L 350.265874 -67.113197 
L 349.662843 -67.305948 
L 349.059812 -67.004425 
L 348.456781 -66.861266 
L 347.853751 -66.675906 
L 347.25072 -66.658797 
L 346.647689 -67.162703 
L 346.044658 -66.913504 
L 345.441627 -66.572395 
L 344.838596 -66.997607 
L 344.235565 -66.77434 
L 343.632534 -66.651832 
L 343.029503 -66.471557 
L 342.426472 -66.747626 
L 341.823441 -67.113183 
L 341.220411 -66.945299 
L 340.61738 -66.8214 
L 340.014349 -66.390846 
L 339.411318 -66.798329 
L 338.808287 -66.692208 
L 338.205256 -66.933155 
L 337.602225 -67.528227 
L 336.999194 -67.601976 
L 336.396163 -67.174273 
L 335.793132 -67.076579 
L 335.190101 -67.314841 
L 334.587071 -67.111764 
L 333.98404 -67.054645 
L 333.381009 -66.700468 
L 332.777978 -66.897437 
L 332.174947 -67.081665 
L 331.571916 -66.524373 
L 330.968885 -66.607691 
L 330.365854 -66.401172 
L 329.762823 -66.648201 
L 329.159792 -67.12016 
L 328.556762 -66.915388 
L 327.953731 -66.78396 
L 327.3507 -66.80743 
L 326.747669 -67.167756 
L 326.144638 -67.123219 
L 325.541607 -67.282874 
L 324.938576 -67.387115 
L 324.335545 -67.667113 
L 323.732514 -67.750174 
L 323.129483 -67.544726 
L 322.526452 -67.735206 
L 321.923422 -67.1893 
L 321.320391 -66.885294 
L 320.71736 -67.023439 
L 320.114329 -67.069006 
L 319.511298 -67.235672 
L 318.908267 -67.346265 
L 318.305236 -66.915058 
L 317.702205 -67.372896 
L 317.099174 -67.325687 
L 316.496143 -67.013826 
L 315.893112 -67.317775 
L 315.290082 -67.179618 
L 314.687051 -66.840352 
L 314.08402 -66.875229 
L 313.480989 -66.777893 
L 312.877958 -66.681868 
L 312.274927 -66.916612 
L 311.671896 -66.972154 
L 311.068865 -67.10117 
L 310.465834 -66.378077 
L 309.862803 -66.339419 
L 309.259772 -66.838773 
L 308.656742 -66.408718 
L 308.053711 -66.55997 
L 307.45068 -66.695022 
L 306.847649 -66.8595 
L 306.244618 -66.719792 
L 305.641587 -66.745137 
L 305.038556 -66.992921 
L 304.435525 -66.436598 
L 303.832494 -66.759459 
L 303.229463 -66.855356 
L 302.626432 -67.0268 
L 302.023402 -67.097309 
L 301.420371 -66.899428 
L 300.81734 -66.862933 
L 300.214309 -66.770972 
L 299.611278 -66.559379 
L 299.008247 -66.942678 
L 298.405216 -66.730717 
L 297.802185 -66.264305 
L 297.199154 -66.642912 
L 296.596123 -67.094575 
L 295.993092 -66.621373 
L 295.390062 -66.129835 
L 294.787031 -66.224806 
L 294.184 -66.327728 
L 293.580969 -66.780436 
L 292.977938 -66.964321 
L 292.374907 -66.779362 
L 291.771876 -66.591967 
L 291.168845 -66.262158 
L 290.565814 -66.419038 
L 289.962783 -66.567389 
L 289.359752 -66.482712 
L 288.756722 -66.733251 
L 288.153691 -66.212017 
L 287.55066 -66.583827 
L 286.947629 -66.292643 
L 286.344598 -66.324301 
L 285.741567 -66.272925 
L 285.138536 -66.575524 
L 284.535505 -66.459579 
L 283.932474 -66.488138 
L 283.329443 -65.986894 
L 282.726412 -66.714274 
L 282.123382 -66.512822 
L 281.520351 -66.835905 
L 280.91732 -66.733436 
L 280.314289 -66.817305 
L 279.711258 -67.150735 
L 279.108227 -67.107976 
L 278.505196 -67.296545 
L 277.902165 -67.539337 
L 277.299134 -66.939945 
L 276.696103 -67.196411 
L 276.093072 -67.17516 
L 275.490042 -66.995305 
L 274.887011 -67.3195 
L 274.28398 -67.2052 
L 273.680949 -66.730534 
L 273.077918 -66.92431 
L 272.474887 -67.457478 
L 271.871856 -67.58492 
L 271.268825 -67.260067 
L 270.665794 -67.231889 
L 270.062763 -67.032477 
L 269.459732 -67.019277 
L 268.856702 -66.828893 
L 268.253671 -66.28738 
L 267.65064 -66.786171 
L 267.047609 -66.498513 
L 266.444578 -66.525406 
L 265.841547 -66.805194 
L 265.238516 -66.410143 
L 264.635485 -66.638431 
L 264.032454 -67.054743 
L 263.429423 -66.747327 
L 262.826392 -66.984498 
L 262.223362 -66.78691 
L 261.620331 -66.896756 
L 261.0173 -67.123136 
L 260.414269 -67.108879 
L 259.811238 -67.021336 
L 259.208207 -66.35775 
L 258.605176 -66.770341 
L 258.002145 -66.560767 
L 257.399114 -65.866364 
L 256.796083 -66.136212 
L 256.193052 -66.293455 
L 255.590022 -66.656095 
L 254.986991 -66.739679 
L 254.38396 -67.105863 
L 253.780929 -66.929647 
L 253.177898 -66.4222 
L 252.574867 -66.712687 
L 251.971836 -66.703377 
L 251.368805 -66.80369 
L 250.765774 -66.55331 
L 250.162743 -66.89539 
L 249.559712 -66.37922 
L 248.956682 -66.746859 
L 248.353651 -67.043126 
L 247.75062 -66.675172 
L 247.147589 -67.019612 
L 246.544558 -66.424702 
L 245.941527 -66.926869 
L 245.338496 -66.625135 
L 244.735465 -67.344438 
L 244.132434 -66.873819 
L 243.529403 -67.273781 
L 242.926372 -66.832723 
L 242.323342 -66.939869 
L 241.720311 -67.152575 
L 241.11728 -66.364909 
L 240.514249 -66.524307 
L 239.911218 -67.116063 
L 239.308187 -66.924735 
L 238.705156 -66.629009 
L 238.102125 -66.594176 
L 237.499094 -66.907758 
L 236.896063 -66.6799 
L 236.293032 -66.945117 
L 235.690002 -66.843732 
L 235.086971 -66.902274 
L 234.48394 -66.803197 
L 233.880909 -67.184588 
L 233.277878 -67.006934 
L 232.674847 -67.006934 
L 232.071816 -66.990133 
L 231.468785 -67.595264 
L 230.865754 -67.580671 
L 230.262723 -67.487077 
L 229.659692 -67.901471 
L 229.056662 -67.91856 
L 228.453631 -67.786386 
L 227.8506 -67.528044 
L 227.247569 -67.006747 
L 226.644538 -66.844973 
L 226.041507 -66.590897 
L 225.438476 -66.631266 
L 224.835445 -66.484731 
L 224.232414 -66.755429 
L 223.629383 -66.905563 
L 223.026352 -67.124365 
L 222.423322 -67.025638 
L 221.820291 -66.925555 
L 221.21726 -67.057801 
L 220.614229 -67.231326 
L 220.011198 -67.85046 
L 219.408167 -67.731095 
L 218.805136 -67.727109 
L 218.202105 -68.196765 
L 217.599074 -68.344921 
L 216.996043 -68.440294 
L 216.393012 -68.53756 
L 215.789982 -68.148781 
L 215.186951 -68.189221 
L 214.58392 -68.702314 
L 213.980889 -69.09192 
L 213.377858 -68.790252 
L 212.774827 -69.278628 
L 212.171796 -69.57252 
L 211.568765 -69.1696 
L 210.965734 -69.189988 
L 210.362703 -69.183957 
L 209.759672 -69.120575 
L 209.156642 -69.401267 
L 208.553611 -69.595745 
L 207.95058 -69.577601 
L 207.347549 -69.265146 
L 206.744518 -69.641719 
L 206.141487 -70.446734 
L 205.538456 -70.031432 
L 204.935425 -70.344848 
L 204.332394 -70.312144 
L 203.729363 -70.782845 
L 203.126332 -70.725019 
L 202.523302 -70.886834 
L 201.920271 -71.034641 
L 201.31724 -71.061788 
L 200.714209 -71.205656 
L 200.111178 -71.699329 
L 199.508147 -72.117301 
L 198.905116 -72.148024 
L 198.302085 -72.245609 
L 197.699054 -72.393018 
L 197.096023 -72.86375 
L 196.492992 -73.042734 
L 195.889962 -73.248654 
L 195.286931 -73.754198 
L 194.6839 -74.102422 
L 194.080869 -74.548676 
L 193.477838 -74.699656 
L 192.874807 -74.582914 
L 192.271776 -75.300883 
L 191.668745 -75.691216 
L 191.065714 -76.49344 
L 190.462683 -76.427724 
L 189.859652 -76.902967 
L 189.256622 -76.867389 
L 188.653591 -77.255205 
L 188.05056 -77.398279 
L 187.447529 -77.64714 
L 186.844498 -77.768423 
L 186.241467 -78.61029 
L 185.638436 -78.919412 
L 185.035405 -79.663192 
L 184.432374 -79.865369 
L 183.829343 -81.233179 
L 183.226312 -81.686996 
L 182.623282 -82.512193 
L 182.020251 -83.739802 
L 181.41722 -84.055375 
L 180.814189 -84.382666 
L 180.211158 -85.280545 
L 179.608127 -85.911949 
L 179.005096 -86.513988 
L 178.402065 -86.742735 
L 177.799034 -87.706399 
L 177.196003 -89.016304 
L 176.592972 -89.491976 
L 175.989942 -90.282973 
L 175.386911 -90.961943 
L 174.78388 -92.071291 
L 174.180849 -92.911204 
L 173.577818 -93.064436 
L 172.974787 -93.854229 
L 172.371756 -94.57156 
L 171.768725 -95.425629 
L 171.165694 -96.417285 
L 170.562663 -96.984124 
L 169.959632 -98.787662 
L 169.356602 -99.463748 
L 168.753571 -100.115158 
L 168.15054 -101.523502 
L 167.547509 -102.744379 
L 166.944478 -104.08903 
L 166.341447 -104.949918 
L 165.738416 -105.283713 
L 165.135385 -105.904067 
L 164.532354 -107.000971 
L 163.929323 -108.00335 
L 163.326293 -109.63221 
L 162.723262 -109.859761 
L 162.120231 -110.918575 
L 161.5172 -112.204191 
L 160.914169 -112.690557 
L 160.311138 -113.461481 
L 159.708107 -114.061767 
L 159.105076 -115.835913 
L 158.502045 -117.024674 
L 157.899014 -118.633824 
L 157.295983 -119.750241 
L 156.692953 -120.399354 
L 156.089922 -121.220271 
L 155.486891 -122.215364 
L 154.88386 -122.942815 
L 154.280829 -123.989767 
L 153.677798 -124.955247 
L 153.074767 -125.752497 
L 152.471736 -127.378421 
L 151.868705 -128.448871 
L 151.265674 -129.457867 
L 150.662643 -129.582429 
L 150.059613 -130.616331 
L 149.456582 -132.219264 
L 148.853551 -133.090525 
L 148.25052 -133.684141 
L 147.647489 -134.15044 
L 147.044458 -135.290147 
L 146.441427 -136.076009 
L 145.838396 -138.211025 
L 145.235365 -138.856765 
L 144.632334 -140.876631 
L 144.029303 -141.437647 
L 143.426273 -142.704299 
L 142.823242 -143.397623 
L 142.220211 -144.594756 
L 141.61718 -145.415113 
L 141.014149 -146.365056 
L 140.411118 -147.196508 
L 139.808087 -147.926942 
L 139.205056 -149.207506 
L 138.602025 -149.970806 
L 137.998994 -150.693942 
L 137.395963 -152.204825 
L 136.792933 -153.119676 
L 136.189902 -154.574294 
L 135.586871 -155.742754 
L 134.98384 -156.391901 
L 134.380809 -157.220406 
L 133.777778 -157.825449 
L 133.174747 -158.993785 
L 132.571716 -160.237537 
L 131.968685 -161.748517 
L 131.365654 -162.688526 
L 130.762623 -164.232323 
L 130.159593 -164.931786 
L 129.556562 -166.205631 
L 128.953531 -166.695653 
L 128.3505 -167.850306 
L 127.747469 -168.895143 
L 127.144438 -170.219525 
L 126.541407 -170.921279 
L 125.938376 -171.661625 
L 125.335345 -172.600202 
L 124.732314 -173.503415 
L 124.129283 -174.597185 
L 123.526253 -175.901454 
L 122.923222 -176.598615 
L 122.320191 -177.410809 
L 121.71716 -178.104809 
L 121.114129 -179.058495 
L 120.511098 -179.962891 
L 119.908067 -180.949273 
L 119.305036 -181.791012 
L 118.702005 -184.266872 
L 118.098974 -185.285944 
L 117.495943 -185.864244 
L 116.892913 -187.763914 
L 116.289882 -188.345486 
L 115.686851 -189.571029 
L 115.08382 -190.237208 
L 114.480789 -191.47052 
L 113.877758 -192.389879 
L 113.274727 -193.405908 
L 112.671696 -193.988591 
L 112.068665 -196.192725 
L 111.465634 -196.753472 
L 110.862603 -197.777331 
L 110.259573 -198.872272 
L 109.656542 -199.929672 
L 109.053511 -201.42356 
L 108.45048 -202.276128 
L 107.847449 -203.424213 
L 107.244418 -204.387531 
L 106.641387 -205.194704 
L 106.038356 -206.419551 
L 105.435325 -207.277691 
L 104.832294 -208.461053 
L 104.229263 -209.06149 
L 103.626233 -210.768047 
L 103.023202 -212.137402 
L 102.420171 -213.083351 
L 101.81714 -214.173974 
L 101.214109 -214.869902 
L 100.611078 -216.795343 
L 100.008047 -217.793789 
L 99.405016 -218.53436 
L 98.801985 -220.27341 
L 98.198954 -221.526451 
L 97.595923 -222.471557 
L 96.992893 -223.45269 
L 96.389862 -225.330978 
L 95.786831 -226.508114 
L 95.1838 -227.882667 
L 94.580769 -229.143506 
L 93.977738 -230.577718 
L 93.374707 -231.824306 
L 92.771676 -234.505231 
L 92.168645 -236.139592 
L 91.565614 -240.150415 
L 90.962583 -244.233636 
z
" id="m431f758cee" style="stroke:#1f77b4;stroke-opacity:0.2;stroke-width:0.39;"/>
    </defs>
    <g clip-path="url(#paf3c68827f)">
     <use style="fill:#1f77b4;fill-opacity:0.2;stroke:#1f77b4;stroke-opacity:0.2;stroke-width:0.39;" x="0" xlink:href="#m431f758cee" y="288"/>
    </g>
   </g>
   <g id="line2d_23">
    <path clip-path="url(#paf3c68827f)" d="M 90.962583 43.766364 
L 91.565614 44.339196 
L 97.595923 54.589183 
L 98.801985 56.766647 
L 100.008047 58.580746 
L 101.214109 60.695293 
L 103.626233 64.309136 
L 106.038356 67.885337 
L 106.641387 69.252566 
L 107.847449 71.012909 
L 110.259573 74.278968 
L 110.862603 75.269572 
L 112.068665 76.88474 
L 113.274727 78.829093 
L 115.08382 81.655712 
L 115.686851 82.320024 
L 118.098974 86.299134 
L 120.511098 89.945203 
L 121.114129 90.591124 
L 122.923222 93.404802 
L 124.732314 96.233912 
L 127.144438 99.819478 
L 128.953531 102.804527 
L 129.556562 103.537955 
L 130.159593 104.531325 
L 130.762623 104.945667 
L 134.98384 111.135376 
L 136.189902 113.044753 
L 137.395963 114.393138 
L 138.602025 116.354606 
L 140.411118 118.958593 
L 142.220211 121.504595 
L 142.823242 121.974732 
L 144.632334 124.953129 
L 148.25052 129.900959 
L 149.456582 131.310972 
L 150.059613 132.138972 
L 151.265674 134.431539 
L 154.280829 138.786234 
L 155.486891 140.391385 
L 156.692953 142.884183 
L 157.295983 143.298773 
L 158.502045 145.447844 
L 159.105076 146.084485 
L 159.708107 147.434372 
L 161.5172 149.496834 
L 166.341447 156.914563 
L 166.944478 157.713326 
L 169.959632 162.808757 
L 171.768725 165.186918 
L 173.577818 167.676444 
L 175.989942 171.386494 
L 176.592972 171.988709 
L 177.799034 173.797013 
L 178.402065 175.208345 
L 179.005096 175.66777 
L 179.608127 176.909391 
L 180.814189 177.888983 
L 182.020251 179.578473 
L 182.623282 180.885199 
L 183.226312 181.365767 
L 183.829343 182.509952 
L 185.035405 183.83947 
L 185.638436 185.04129 
L 186.241467 185.652709 
L 189.859652 190.806412 
L 191.065714 192.2592 
L 192.271776 194.045173 
L 192.874807 194.61902 
L 195.286931 197.69162 
L 195.889962 198.407575 
L 196.492992 199.362208 
L 197.699054 200.721306 
L 198.302085 201.115774 
L 200.111178 203.168921 
L 201.920271 204.462805 
L 202.523302 205.282501 
L 203.126332 205.516967 
L 204.935425 206.787134 
L 206.141487 207.562719 
L 207.347549 208.285058 
L 208.553611 208.632139 
L 209.759672 209.197564 
L 210.362703 209.397211 
L 210.965734 209.768114 
L 211.568765 209.863877 
L 212.171796 210.095938 
L 213.377858 210.241476 
L 213.980889 210.435584 
L 214.58392 210.334361 
L 216.996043 211.160818 
L 220.011198 211.806603 
L 220.614229 211.855785 
L 221.21726 212.113649 
L 223.629383 212.452076 
L 224.835445 212.294576 
L 225.438476 212.664462 
L 226.644538 212.756446 
L 227.247569 212.630105 
L 229.056662 212.861133 
L 230.262723 212.993543 
L 230.865754 213.261657 
L 232.071816 212.98921 
L 233.277878 213.192018 
L 233.880909 213.481127 
L 234.48394 213.337727 
L 235.086971 213.474007 
L 236.896063 213.310306 
L 237.499094 213.395038 
L 238.102125 213.672398 
L 238.705156 213.806141 
L 239.308187 213.679783 
L 239.911218 213.764035 
L 241.720311 213.448892 
L 243.529403 213.563808 
L 244.132434 213.772476 
L 245.338496 213.614957 
L 245.941527 213.704883 
L 246.544558 213.952125 
L 248.353651 213.857323 
L 248.956682 213.665725 
L 249.559712 213.746987 
L 250.162743 213.648485 
L 251.368805 213.771709 
L 251.971836 213.89265 
L 252.574867 213.770779 
L 256.193052 213.674104 
L 256.796083 213.52187 
L 257.399114 213.637243 
L 258.002145 213.622089 
L 258.605176 213.407708 
L 259.208207 213.469391 
L 259.811238 213.69427 
L 260.414269 213.57635 
L 261.0173 213.652865 
L 262.223362 213.490293 
L 262.826392 213.641094 
L 263.429423 213.658749 
L 264.635485 213.502398 
L 265.238516 213.586752 
L 265.841547 213.526467 
L 267.65064 213.629792 
L 269.459732 213.627072 
L 270.062763 213.452639 
L 271.871856 213.681113 
L 274.28398 213.609108 
L 275.490042 213.465731 
L 276.696103 213.587385 
L 277.299134 213.522917 
L 280.91732 213.870286 
L 281.520351 213.802342 
L 282.123382 213.927132 
L 283.329443 213.790345 
L 283.932474 213.95212 
L 284.535505 213.666077 
L 285.138536 213.746036 
L 285.741567 214.111316 
L 287.55066 213.689193 
L 288.153691 213.694501 
L 288.756722 213.556716 
L 289.962783 213.706362 
L 290.565814 213.642435 
L 291.168845 213.858437 
L 291.771876 213.744015 
L 293.580969 213.839548 
L 294.787031 213.841015 
L 295.390062 213.900039 
L 295.993092 213.770103 
L 296.596123 213.848192 
L 297.199154 213.789242 
L 297.802185 213.847303 
L 298.405216 213.626491 
L 299.008247 213.585315 
L 299.611278 213.689409 
L 300.214309 213.581013 
L 303.229463 213.730072 
L 303.832494 213.802118 
L 304.435525 213.58681 
L 305.038556 213.713644 
L 305.641587 213.607379 
L 306.244618 213.676013 
L 306.847649 213.626175 
L 307.45068 213.779788 
L 308.053711 213.707839 
L 308.656742 213.878764 
L 311.068865 213.787784 
L 312.274927 213.678364 
L 313.480989 213.595965 
L 314.08402 213.710984 
L 314.687051 213.541255 
L 318.305236 213.433019 
L 318.908267 213.525186 
L 319.511298 213.496326 
L 320.114329 213.651931 
L 321.320391 213.506694 
L 321.923422 213.590588 
L 322.526452 213.432328 
L 325.541607 213.335998 
L 326.144638 213.576336 
L 326.747669 213.606137 
L 327.3507 213.518884 
L 327.953731 213.575085 
L 329.159792 213.30585 
L 330.365854 213.806446 
L 330.968885 213.789246 
L 331.571916 213.656555 
L 332.174947 213.373529 
L 334.587071 213.621425 
L 335.190101 213.745036 
L 335.793132 213.644602 
L 336.396163 213.703134 
L 336.999194 213.474779 
L 337.602225 213.435468 
L 338.808287 213.739117 
L 339.411318 213.586133 
L 340.014349 213.802605 
L 340.61738 213.774289 
L 341.220411 213.96429 
L 341.823441 213.68824 
L 344.235565 213.708221 
L 344.838596 213.77616 
L 345.441627 213.730567 
L 346.044658 213.440821 
L 346.647689 213.433502 
L 347.853751 213.640298 
L 349.059812 213.757581 
L 349.662843 213.546693 
L 350.265874 213.497432 
L 350.868905 213.712203 
L 353.281029 213.617747 
L 353.88406 213.584491 
L 354.487091 213.809853 
L 355.693152 213.779718 
L 358.105276 213.459344 
L 358.708307 213.471752 
L 359.914369 213.974708 
L 361.723461 213.628594 
L 362.929523 213.691044 
L 363.532554 213.636629 
L 364.135585 213.74042 
L 364.738616 213.694591 
L 365.341647 213.956769 
L 366.547709 213.696717 
L 367.15074 213.448834 
L 373.181049 213.436877 
L 373.78408 213.650058 
L 374.387111 213.554579 
L 374.990141 213.62967 
L 375.593172 213.576388 
L 376.196203 213.749486 
L 378.005296 213.580119 
L 378.608327 213.746535 
L 380.41742 213.697937 
L 381.020451 213.769334 
L 381.623481 213.549505 
L 382.226512 213.624268 
L 382.829543 213.498918 
L 383.432574 213.506385 
L 384.035605 213.321729 
L 384.638636 213.254704 
L 388.256821 213.778285 
L 389.462883 213.655112 
L 390.668945 213.540451 
L 391.271976 213.723624 
L 391.875007 213.503828 
L 392.478038 213.5378 
L 393.081069 213.698883 
L 393.6841 213.631332 
L 394.287131 213.739732 
L 394.890161 213.497659 
L 395.493192 213.497327 
L 396.096223 213.621172 
L 397.302285 213.409368 
L 397.905316 213.570713 
L 398.508347 213.522731 
L 399.714409 213.721402 
L 399.714409 213.721402 
" style="fill:none;stroke:#1f77b4;stroke-linecap:round;stroke-width:2.275;"/>
   </g>
   <g id="line2d_24">
    <path clip-path="url(#paf3c68827f)" d="M 90.962583 43.766364 
L 240.514249 174.728314 
L 251.368805 183.942469 
L 258.605176 189.805254 
L 264.032454 193.9149 
L 268.253671 196.851186 
L 271.871856 199.130251 
L 275.490042 201.148058 
L 279.108227 202.876663 
L 282.123382 204.088508 
L 285.138536 205.097624 
L 288.756722 206.061794 
L 292.374907 206.792088 
L 296.596123 207.405606 
L 301.420371 207.872306 
L 307.45068 208.221118 
L 315.893112 208.461771 
L 329.762823 208.594263 
L 365.944678 208.634137 
L 399.111378 208.635029 
L 399.111378 208.635029 
" style="fill:none;stroke:#2ca02c;stroke-linecap:round;stroke-width:2.275;"/>
   </g>
   <g id="line2d_25">
    <path clip-path="url(#paf3c68827f)" d="M 90.962583 43.766364 
L 154.88386 186.618216 
L 159.105076 195.566304 
L 162.120231 201.467173 
L 164.532354 205.638921 
L 166.341447 208.312462 
L 168.15054 210.52093 
L 169.959632 212.244058 
L 171.165694 213.137524 
L 172.974787 214.145706 
L 174.78388 214.833318 
L 176.592972 215.286917 
L 179.005096 215.650578 
L 182.623282 215.908596 
L 188.653591 216.037986 
L 206.141487 216.070133 
L 399.111378 216.070433 
L 399.111378 216.070433 
" style="fill:none;stroke:#d62728;stroke-linecap:round;stroke-width:2.275;"/>
   </g>
   <g id="patch_3">
    <path d="M 75.524992 231.052 
L 75.524992 34.848 
" style="fill:none;stroke:#999999;stroke-linecap:square;stroke-linejoin:miter;"/>
   </g>
   <g id="patch_4">
    <path d="M 415.152 231.052 
L 415.152 34.848 
" style="fill:none;stroke:#999999;stroke-linecap:square;stroke-linejoin:miter;"/>
   </g>
   <g id="patch_5">
    <path d="M 75.524992 231.052 
L 415.152 231.052 
" style="fill:none;stroke:#999999;stroke-linecap:square;stroke-linejoin:miter;"/>
   </g>
   <g id="patch_6">
    <path d="M 75.524992 34.848 
L 415.152 34.848 
" style="fill:none;stroke:#999999;stroke-linecap:square;stroke-linejoin:miter;"/>
   </g>
   <g id="text_14">
    <!-- Error vs Iteration (Inconsistent Gaussian) -->
    <defs>
     <path d="M 9.8125 72.90625 
L 55.90625 72.90625 
L 55.90625 64.59375 
L 19.671875 64.59375 
L 19.671875 43.015625 
L 54.390625 43.015625 
L 54.390625 34.71875 
L 19.671875 34.71875 
L 19.671875 8.296875 
L 56.78125 8.296875 
L 56.78125 0 
L 9.8125 0 
z
" id="DejaVuSans-45"/>
     <path id="DejaVuSans-20"/>
     <path d="M 2.984375 54.6875 
L 12.5 54.6875 
L 29.59375 8.796875 
L 46.6875 54.6875 
L 56.203125 54.6875 
L 35.6875 0 
L 23.484375 0 
z
" id="DejaVuSans-76"/>
     <path d="M 44.28125 53.078125 
L 44.28125 44.578125 
Q 40.484375 46.53125 36.375 47.5 
Q 32.28125 48.484375 27.875 48.484375 
Q 21.1875 48.484375 17.84375 46.4375 
Q 14.5 44.390625 14.5 40.28125 
Q 14.5 37.15625 16.890625 35.375 
Q 19.28125 33.59375 26.515625 31.984375 
L 29.59375 31.296875 
Q 39.15625 29.25 43.1875 25.515625 
Q 47.21875 21.78125 47.21875 15.09375 
Q 47.21875 7.46875 41.1875 3.015625 
Q 35.15625 -1.421875 24.609375 -1.421875 
Q 20.21875 -1.421875 15.453125 -0.5625 
Q 10.6875 0.296875 5.421875 2 
L 5.421875 11.28125 
Q 10.40625 8.6875 15.234375 7.390625 
Q 20.0625 6.109375 24.8125 6.109375 
Q 31.15625 6.109375 34.5625 8.28125 
Q 37.984375 10.453125 37.984375 14.40625 
Q 37.984375 18.0625 35.515625 20.015625 
Q 33.0625 21.96875 24.703125 23.78125 
L 21.578125 24.515625 
Q 13.234375 26.265625 9.515625 29.90625 
Q 5.8125 33.546875 5.8125 39.890625 
Q 5.8125 47.609375 11.28125 51.796875 
Q 16.75 56 26.8125 56 
Q 31.78125 56 36.171875 55.265625 
Q 40.578125 54.546875 44.28125 53.078125 
z
" id="DejaVuSans-73"/>
     <path d="M 31 75.875 
Q 24.46875 64.65625 21.28125 53.65625 
Q 18.109375 42.671875 18.109375 31.390625 
Q 18.109375 20.125 21.3125 9.0625 
Q 24.515625 -2 31 -13.1875 
L 23.1875 -13.1875 
Q 15.875 -1.703125 12.234375 9.375 
Q 8.59375 20.453125 8.59375 31.390625 
Q 8.59375 42.28125 12.203125 53.3125 
Q 15.828125 64.359375 23.1875 75.875 
z
" id="DejaVuSans-28"/>
     <path d="M 48.78125 52.59375 
L 48.78125 44.1875 
Q 44.96875 46.296875 41.140625 47.34375 
Q 37.3125 48.390625 33.40625 48.390625 
Q 24.65625 48.390625 19.8125 42.84375 
Q 14.984375 37.3125 14.984375 27.296875 
Q 14.984375 17.28125 19.8125 11.734375 
Q 24.65625 6.203125 33.40625 6.203125 
Q 37.3125 6.203125 41.140625 7.25 
Q 44.96875 8.296875 48.78125 10.40625 
L 48.78125 2.09375 
Q 45.015625 0.34375 40.984375 -0.53125 
Q 36.96875 -1.421875 32.421875 -1.421875 
Q 20.0625 -1.421875 12.78125 6.34375 
Q 5.515625 14.109375 5.515625 27.296875 
Q 5.515625 40.671875 12.859375 48.328125 
Q 20.21875 56 33.015625 56 
Q 37.15625 56 41.109375 55.140625 
Q 45.0625 54.296875 48.78125 52.59375 
z
" id="DejaVuSans-63"/>
     <path d="M 59.515625 10.40625 
L 59.515625 29.984375 
L 43.40625 29.984375 
L 43.40625 38.09375 
L 69.28125 38.09375 
L 69.28125 6.78125 
Q 63.578125 2.734375 56.6875 0.65625 
Q 49.8125 -1.421875 42 -1.421875 
Q 24.90625 -1.421875 15.25 8.5625 
Q 5.609375 18.5625 5.609375 36.375 
Q 5.609375 54.25 15.25 64.234375 
Q 24.90625 74.21875 42 74.21875 
Q 49.125 74.21875 55.546875 72.453125 
Q 61.96875 70.703125 67.390625 67.28125 
L 67.390625 56.78125 
Q 61.921875 61.421875 55.765625 63.765625 
Q 49.609375 66.109375 42.828125 66.109375 
Q 29.4375 66.109375 22.71875 58.640625 
Q 16.015625 51.171875 16.015625 36.375 
Q 16.015625 21.625 22.71875 14.15625 
Q 29.4375 6.6875 42.828125 6.6875 
Q 48.046875 6.6875 52.140625 7.59375 
Q 56.25 8.5 59.515625 10.40625 
z
" id="DejaVuSans-47"/>
     <path d="M 8.5 21.578125 
L 8.5 54.6875 
L 17.484375 54.6875 
L 17.484375 21.921875 
Q 17.484375 14.15625 20.5 10.265625 
Q 23.53125 6.390625 29.59375 6.390625 
Q 36.859375 6.390625 41.078125 11.03125 
Q 45.3125 15.671875 45.3125 23.6875 
L 45.3125 54.6875 
L 54.296875 54.6875 
L 54.296875 0 
L 45.3125 0 
L 45.3125 8.40625 
Q 42.046875 3.421875 37.71875 1 
Q 33.40625 -1.421875 27.6875 -1.421875 
Q 18.265625 -1.421875 13.375 4.4375 
Q 8.5 10.296875 8.5 21.578125 
z
M 31.109375 56 
z
" id="DejaVuSans-75"/>
     <path d="M 8.015625 75.875 
L 15.828125 75.875 
Q 23.140625 64.359375 26.78125 53.3125 
Q 30.421875 42.28125 30.421875 31.390625 
Q 30.421875 20.453125 26.78125 9.375 
Q 23.140625 -1.703125 15.828125 -13.1875 
L 8.015625 -13.1875 
Q 14.5 -2 17.703125 9.0625 
Q 20.90625 20.125 20.90625 31.390625 
Q 20.90625 42.671875 17.703125 53.65625 
Q 14.5 64.65625 8.015625 75.875 
z
" id="DejaVuSans-29"/>
    </defs>
    <g style="fill:#262626;" transform="translate(85.069215 28.848)scale(0.156 -0.156)">
     <use xlink:href="#DejaVuSans-45"/>
     <use x="63.183594" xlink:href="#DejaVuSans-72"/>
     <use x="104.28125" xlink:href="#DejaVuSans-72"/>
     <use x="145.363281" xlink:href="#DejaVuSans-6f"/>
     <use x="206.544922" xlink:href="#DejaVuSans-72"/>
     <use x="247.658203" xlink:href="#DejaVuSans-20"/>
     <use x="279.445312" xlink:href="#DejaVuSans-76"/>
     <use x="338.625" xlink:href="#DejaVuSans-73"/>
     <use x="390.724609" xlink:href="#DejaVuSans-20"/>
     <use x="422.511719" xlink:href="#DejaVuSans-49"/>
     <use x="452.003906" xlink:href="#DejaVuSans-74"/>
     <use x="491.212891" xlink:href="#DejaVuSans-65"/>
     <use x="552.736328" xlink:href="#DejaVuSans-72"/>
     <use x="593.849609" xlink:href="#DejaVuSans-61"/>
     <use x="655.128906" xlink:href="#DejaVuSans-74"/>
     <use x="694.337891" xlink:href="#DejaVuSans-69"/>
     <use x="722.121094" xlink:href="#DejaVuSans-6f"/>
     <use x="783.302734" xlink:href="#DejaVuSans-6e"/>
     <use x="846.681641" xlink:href="#DejaVuSans-20"/>
     <use x="878.46875" xlink:href="#DejaVuSans-28"/>
     <use x="917.482422" xlink:href="#DejaVuSans-49"/>
     <use x="946.974609" xlink:href="#DejaVuSans-6e"/>
     <use x="1010.353516" xlink:href="#DejaVuSans-63"/>
     <use x="1065.333984" xlink:href="#DejaVuSans-6f"/>
     <use x="1126.515625" xlink:href="#DejaVuSans-6e"/>
     <use x="1189.894531" xlink:href="#DejaVuSans-73"/>
     <use x="1241.994141" xlink:href="#DejaVuSans-69"/>
     <use x="1269.777344" xlink:href="#DejaVuSans-73"/>
     <use x="1321.876953" xlink:href="#DejaVuSans-74"/>
     <use x="1361.085938" xlink:href="#DejaVuSans-65"/>
     <use x="1422.609375" xlink:href="#DejaVuSans-6e"/>
     <use x="1485.988281" xlink:href="#DejaVuSans-74"/>
     <use x="1525.197266" xlink:href="#DejaVuSans-20"/>
     <use x="1556.984375" xlink:href="#DejaVuSans-47"/>
     <use x="1634.474609" xlink:href="#DejaVuSans-61"/>
     <use x="1695.753906" xlink:href="#DejaVuSans-75"/>
     <use x="1759.132812" xlink:href="#DejaVuSans-73"/>
     <use x="1811.232422" xlink:href="#DejaVuSans-73"/>
     <use x="1863.332031" xlink:href="#DejaVuSans-69"/>
     <use x="1891.115234" xlink:href="#DejaVuSans-61"/>
     <use x="1952.394531" xlink:href="#DejaVuSans-6e"/>
     <use x="2015.773438" xlink:href="#DejaVuSans-29"/>
    </g>
   </g>
   <g id="legend_1">
    <g id="line2d_26">
     <path d="M 281.952781 51.875969 
L 307.952781 51.875969 
" style="fill:none;stroke:#1f77b4;stroke-linecap:round;stroke-width:2.275;"/>
    </g>
    <g id="line2d_27"/>
    <g id="text_15">
     <!-- Vanilla -->
     <defs>
      <path d="M 28.609375 0 
L 0.78125 72.90625 
L 11.078125 72.90625 
L 34.1875 11.53125 
L 57.328125 72.90625 
L 67.578125 72.90625 
L 39.796875 0 
z
" id="DejaVuSans-56"/>
      <path d="M 9.421875 75.984375 
L 18.40625 75.984375 
L 18.40625 0 
L 9.421875 0 
z
" id="DejaVuSans-6c"/>
     </defs>
     <g style="fill:#262626;" transform="translate(318.352781 56.425969)scale(0.13 -0.13)">
      <use xlink:href="#DejaVuSans-56"/>
      <use x="68.298828" xlink:href="#DejaVuSans-61"/>
      <use x="129.578125" xlink:href="#DejaVuSans-6e"/>
      <use x="192.957031" xlink:href="#DejaVuSans-69"/>
      <use x="220.740234" xlink:href="#DejaVuSans-6c"/>
      <use x="248.523438" xlink:href="#DejaVuSans-6c"/>
      <use x="276.306641" xlink:href="#DejaVuSans-61"/>
     </g>
    </g>
    <g id="line2d_28">
     <path d="M 281.952781 70.957531 
L 307.952781 70.957531 
" style="fill:none;stroke:#2ca02c;stroke-linecap:round;stroke-width:2.275;"/>
    </g>
    <g id="line2d_29"/>
    <g id="text_16">
     <!-- Upper Bound -->
     <defs>
      <path d="M 8.6875 72.90625 
L 18.609375 72.90625 
L 18.609375 28.609375 
Q 18.609375 16.890625 22.84375 11.734375 
Q 27.09375 6.59375 36.625 6.59375 
Q 46.09375 6.59375 50.34375 11.734375 
Q 54.59375 16.890625 54.59375 28.609375 
L 54.59375 72.90625 
L 64.5 72.90625 
L 64.5 27.390625 
Q 64.5 13.140625 57.4375 5.859375 
Q 50.390625 -1.421875 36.625 -1.421875 
Q 22.796875 -1.421875 15.734375 5.859375 
Q 8.6875 13.140625 8.6875 27.390625 
z
" id="DejaVuSans-55"/>
      <path d="M 18.109375 8.203125 
L 18.109375 -20.796875 
L 9.078125 -20.796875 
L 9.078125 54.6875 
L 18.109375 54.6875 
L 18.109375 46.390625 
Q 20.953125 51.265625 25.265625 53.625 
Q 29.59375 56 35.59375 56 
Q 45.5625 56 51.78125 48.09375 
Q 58.015625 40.1875 58.015625 27.296875 
Q 58.015625 14.40625 51.78125 6.484375 
Q 45.5625 -1.421875 35.59375 -1.421875 
Q 29.59375 -1.421875 25.265625 0.953125 
Q 20.953125 3.328125 18.109375 8.203125 
z
M 48.6875 27.296875 
Q 48.6875 37.203125 44.609375 42.84375 
Q 40.53125 48.484375 33.40625 48.484375 
Q 26.265625 48.484375 22.1875 42.84375 
Q 18.109375 37.203125 18.109375 27.296875 
Q 18.109375 17.390625 22.1875 11.75 
Q 26.265625 6.109375 33.40625 6.109375 
Q 40.53125 6.109375 44.609375 11.75 
Q 48.6875 17.390625 48.6875 27.296875 
z
" id="DejaVuSans-70"/>
      <path d="M 19.671875 34.8125 
L 19.671875 8.109375 
L 35.5 8.109375 
Q 43.453125 8.109375 47.28125 11.40625 
Q 51.125 14.703125 51.125 21.484375 
Q 51.125 28.328125 47.28125 31.5625 
Q 43.453125 34.8125 35.5 34.8125 
z
M 19.671875 64.796875 
L 19.671875 42.828125 
L 34.28125 42.828125 
Q 41.5 42.828125 45.03125 45.53125 
Q 48.578125 48.25 48.578125 53.8125 
Q 48.578125 59.328125 45.03125 62.0625 
Q 41.5 64.796875 34.28125 64.796875 
z
M 9.8125 72.90625 
L 35.015625 72.90625 
Q 46.296875 72.90625 52.390625 68.21875 
Q 58.5 63.53125 58.5 54.890625 
Q 58.5 48.1875 55.375 44.234375 
Q 52.25 40.28125 46.1875 39.3125 
Q 53.46875 37.75 57.5 32.78125 
Q 61.53125 27.828125 61.53125 20.40625 
Q 61.53125 10.640625 54.890625 5.3125 
Q 48.25 0 35.984375 0 
L 9.8125 0 
z
" id="DejaVuSans-42"/>
      <path d="M 45.40625 46.390625 
L 45.40625 75.984375 
L 54.390625 75.984375 
L 54.390625 0 
L 45.40625 0 
L 45.40625 8.203125 
Q 42.578125 3.328125 38.25 0.953125 
Q 33.9375 -1.421875 27.875 -1.421875 
Q 17.96875 -1.421875 11.734375 6.484375 
Q 5.515625 14.40625 5.515625 27.296875 
Q 5.515625 40.1875 11.734375 48.09375 
Q 17.96875 56 27.875 56 
Q 33.9375 56 38.25 53.625 
Q 42.578125 51.265625 45.40625 46.390625 
z
M 14.796875 27.296875 
Q 14.796875 17.390625 18.875 11.75 
Q 22.953125 6.109375 30.078125 6.109375 
Q 37.203125 6.109375 41.296875 11.75 
Q 45.40625 17.390625 45.40625 27.296875 
Q 45.40625 37.203125 41.296875 42.84375 
Q 37.203125 48.484375 30.078125 48.484375 
Q 22.953125 48.484375 18.875 42.84375 
Q 14.796875 37.203125 14.796875 27.296875 
z
" id="DejaVuSans-64"/>
     </defs>
     <g style="fill:#262626;" transform="translate(318.352781 75.507531)scale(0.13 -0.13)">
      <use xlink:href="#DejaVuSans-55"/>
      <use x="73.193359" xlink:href="#DejaVuSans-70"/>
      <use x="136.669922" xlink:href="#DejaVuSans-70"/>
      <use x="200.146484" xlink:href="#DejaVuSans-65"/>
      <use x="261.669922" xlink:href="#DejaVuSans-72"/>
      <use x="302.783203" xlink:href="#DejaVuSans-20"/>
      <use x="334.570312" xlink:href="#DejaVuSans-42"/>
      <use x="403.173828" xlink:href="#DejaVuSans-6f"/>
      <use x="464.355469" xlink:href="#DejaVuSans-75"/>
      <use x="527.734375" xlink:href="#DejaVuSans-6e"/>
      <use x="591.113281" xlink:href="#DejaVuSans-64"/>
     </g>
    </g>
    <g id="line2d_30">
     <path d="M 281.952781 90.039094 
L 307.952781 90.039094 
" style="fill:none;stroke:#d62728;stroke-linecap:round;stroke-width:2.275;"/>
    </g>
    <g id="line2d_31"/>
    <g id="text_17">
     <!-- Lower Bound -->
     <defs>
      <path d="M 9.8125 72.90625 
L 19.671875 72.90625 
L 19.671875 8.296875 
L 55.171875 8.296875 
L 55.171875 0 
L 9.8125 0 
z
" id="DejaVuSans-4c"/>
      <path d="M 4.203125 54.6875 
L 13.1875 54.6875 
L 24.421875 12.015625 
L 35.59375 54.6875 
L 46.1875 54.6875 
L 57.421875 12.015625 
L 68.609375 54.6875 
L 77.59375 54.6875 
L 63.28125 0 
L 52.6875 0 
L 40.921875 44.828125 
L 29.109375 0 
L 18.5 0 
z
" id="DejaVuSans-77"/>
     </defs>
     <g style="fill:#262626;" transform="translate(318.352781 94.589094)scale(0.13 -0.13)">
      <use xlink:href="#DejaVuSans-4c"/>
      <use x="55.697266" xlink:href="#DejaVuSans-6f"/>
      <use x="116.878906" xlink:href="#DejaVuSans-77"/>
      <use x="198.666016" xlink:href="#DejaVuSans-65"/>
      <use x="260.189453" xlink:href="#DejaVuSans-72"/>
      <use x="301.302734" xlink:href="#DejaVuSans-20"/>
      <use x="333.089844" xlink:href="#DejaVuSans-42"/>
      <use x="401.693359" xlink:href="#DejaVuSans-6f"/>
      <use x="462.875" xlink:href="#DejaVuSans-75"/>
      <use x="526.253906" xlink:href="#DejaVuSans-6e"/>
      <use x="589.632812" xlink:href="#DejaVuSans-64"/>
     </g>
    </g>
   </g>
  </g>
 </g>
 <defs>
  <clipPath id="paf3c68827f">
   <rect height="196.204" width="339.627008" x="75.524992" y="34.848"/>
  </clipPath>
 </defs>
</svg>
